<svg xmlns="http://www.w3.org/2000/svg" viewBox="0.002 463.591 1920.003 152.815" enable-background="new 0.002 463.591 1920.003 152.815"><g fill="#fff"><path d="M866.846 550.173c-15.358 2.223-29.176 4.182-42.979 6.24-7.351 1.101-9.202 3.634-8.685 11.983.414 6.57 1.447 13.136 1.484 19.706.021 3.128-1.313 6.483-5.087 7.682-3.402 1.08-6.4.341-9.274-1.623-4.425-3.05-6.56-7.279-6.56-12.562-.021-16.48-.403-32.966.202-49.415.424-11.502 2.021-22.978 3.484-34.418 1.189-9.29 5.443-13.539 13.973-14.64 9.801-1.251 19.618-2.492 29.45-3.391 17.669-1.628 34.408 2.776 50.625 9.057 9.047 3.505 15.912 16.134 15.074 26.375-.253 3.122-1.313 6.632-3.179 9.078-3.458 4.534-7.263 9.134-11.864 12.365-6.751 4.735-7.284 10.38-4.828 17.214 2.481 6.937 4.947 13.885 7.661 20.73 1.132 2.869 5.805 3.738 8.478 1.815 3.955-2.838 7.687-6.028 11.817-8.571 3.381-2.078 8.266 1.928 8.39 6.048.465 15.57-18.486 25.031-29.848 19.577-8.767-4.198-15.178-9.884-18.987-18.398-3.329-7.415-5.775-15.231-9.347-24.852zm-46.023-51.007c-6.343 10.644-3.769 21.598-4.508 32.087-.3 4.218 3.308 7.635 7.708 7.635 20.114.031 38.921-5.211 56.492-14.79 2.709-1.484 4.694-4.482 6.684-7.036 2.264-2.905 1.845-8.964-1.049-11.378-3.081-2.564-6.42-5.443-10.132-6.524-18.534-5.416-37.107-4.196-55.195.006zM1236.778 539.23c-10.639 0-20.502-.083-30.355.041-4.187.052-7.087 3.391-7.47 8.25-.775 9.863-1.422 19.747-2.275 29.626-.227 2.595-4.435 5.676-7.247 5.583-3.469-.119-6.529-1.303-8.095-4.585-1.044-2.192-2.119-4.632-2.166-6.989-.558-27.259-.936-54.522-1.323-81.791-.021-1.644.181-3.303.372-4.937.455-3.965 3.66-8.028 7.589-8.793 24.648-4.828 49.203-6.25 73.143 3.37 4.549 1.825 9.083 4.172 12.944 7.16 12.794 9.884 12.805 28.613.202 38.59-2.569 2.032-5.754 3.252-8.452 5.138-1.975 1.38-3.614 3.241-5.485 4.947 0 5.857-.507 11.631.119 17.266.899 8.018 2.564 8.964 13.146 10.096.827.083 1.654.129 2.466.284 3.314.574 5.066 4.503 3.676 7.491-3.112 6.653-8.457 10.448-15.55 10.267-6.824-.181-13.125-3.05-15.984-9.853-2.202-5.252-3.381-10.933-4.999-16.439-1.351-4.616-2.669-9.243-4.256-14.722zm-36.889-17.447c14.045 2.466 27.036 2.476 39.707-1.334 6.183-1.856 12.076-5.138 17.607-8.561 5.893-3.644 5.154-13.622-.91-16.651-8.943-4.461-18.46-7.108-28.442-7.268-28.939-.475-33.959-1.101-27.962 33.814zM664.803 541.639c1.225-30.278 20.011-50.433 50.232-53.793 3.252-.362 6.555-.3 9.822-.527 25.392-1.747 34.573 7.573 42.72 31.916 8.835 26.4.021 50.707-19.778 69.586-12.495 11.916-28.541 16.051-45.76 9.755-26.08-9.544-38.771-28.061-37.236-56.937zm85.725-1.603c-.832-11.399-2.254-21.95-9.414-30.732-2.688-3.293-5.836-5.816-10.179-6.271-20.781-2.171-47.74 10.995-47.936 41.376-.119 18.677 5.138 31.968 23.712 39.236 4.777 1.877 9.419 2.192 14.371.372 15.882-5.825 29.741-26.673 29.446-43.981zM1868.647 463.595c28.034-.31 49.203 18.041 51.348 41.516.171 1.845-1.939 4.735-3.758 5.717-1.835.987-5.118 1.049-6.886.021-2.709-1.577-5.221-4.11-6.824-6.824-2.9-4.906-4.415-10.711-7.682-15.317-6.271-8.835-16.739-10.489-26.442-5.066-7.46 4.172-9.352 15.627-3.086 21.314 3.608 3.262 7.977 5.754 12.19 8.281 7.067 4.239 14.309 8.199 21.438 12.35 2.13 1.241 4.353 2.461 6.152 4.11 21.81 19.918 15.064 41.687-10.091 52.046-4.513 1.856-9.858 1.654-14.412 3.443-15.183 5.966-33.658-3.562-42.617-17.587-3.045-4.766-4.57-10.541-6.56-15.943-.977-2.647 1.556-8.049 3.944-7.966 3.071.103 7.093.496 8.928 2.445 3.308 3.505 5.428 8.178 7.811 12.5 4.663 8.462 11.724 11.28 20.854 8.886 5.547-1.442 11.202-2.895 16.387-5.263 9.868-4.492 11.399-15.591 3.076-21.929-5.226-3.986-11.001-7.268-16.682-10.613-5.697-3.35-11.76-6.079-17.339-9.6-13.337-8.431-18.124-20.859-15.953-36.197.987-7.025 4.642-12.582 11.12-15.369 5.97-2.582 12.385-4.097 15.084-4.955zM1411.945 527.94c-.248 28.272-18.31 52.046-49.105 58.348-1.587.32-3.345.517-4.885.181-25.734-5.593-45.14-17.002-50.221-46.809-4.089-24.002 13.368-53.116 36.46-60.834 8.064-2.693 16.589-3.148 24.079.656 10.168 5.159 20.192 10.964 29.238 17.861 10.299 7.872 15.479 18.986 14.434 30.597zm-19.189-1.303c-1.199-3.582-2.207-9.388-4.968-14.175-5.02-8.731-12.35-14.914-22.678-17.395-5.169-1.241-9.574-.998-14.087 1.535-12.097 6.813-18.869 17.318-23.345 30.319-4.937 14.335 3.122 31.513 14.712 38.388 7.392 4.394 15.369 5.604 23.526 1.845 16.429-7.551 24.649-20.806 26.84-40.517zM193.602 574.201c-10.432-3.443-17.731-1.101-25.072-.708-6.55.341-13.125.072-17.995.072-6.25 3.655-7.578 8.633-10.106 12.763-4.74 7.723-9.29 15.601-14.469 23.02-1.944 2.786-5.583 2.978-8.979 1.401-3.329-1.556-5.387-4.332-5.257-7.661.129-3.128 1.344-6.42 2.797-9.269 13.528-26.462 27.16-52.873 40.89-79.237 3.433-6.581 7.129-13.043 11.068-19.334 2.993-4.777 11.807-4.766 14.971-.103 1.83 2.693 3.334 5.666 4.642 8.664 4.311 9.832 8.835 19.597 12.603 29.642 6.963 18.558 13.565 37.246 20.052 55.985 1.608 4.642 2.988 9.651 2.905 14.469-.052 2.502-3.112 5.593-5.604 7.17-1.442.899-5.402.093-6.586-1.323-3.107-3.696-5.904-7.904-7.749-12.36-3.133-7.548-5.449-15.447-8.111-23.191zm-20.947-50.045c-5.454 10.199-9.77 17.943-13.751 25.858-2.264 4.492.289 8.39 5.071 8.116 4.864-.284 9.729-.688 14.557-1.292 4.854-.594 7.713-4.332 6.1-8.349-2.941-7.321-3.659-15.742-11.977-24.333zM1056.891 542.59c-2.213-22.13-3.986-38.518-1.52-54.988.812-5.412 3.831-9.171 9.083-10.51 18.62-4.766 37.448-5.009 56.244-1.375 4.74.92 9.202 3.515 13.647 5.635 10.964 5.231 14.966 15.022 15.452 26.199.16 3.665-1.897 8.199-4.404 11.068-6.617 7.563-14.904 13.032-25.196 14.314-12.231 1.515-24.508 2.636-36.76 3.996-3.738.424-6.121 2.879-6.183 6.4-.238 12.34-.119 24.679-.031 37.013.026 3.401-.589 6.431-3.195 8.855-3.748 3.495-13.286 1.603-14.867-3.314-1.235-3.846-2.073-7.987-2.166-12.003-.274-12.339-.104-24.689-.104-31.29zm42.473-53.623c-24.689.15-27.439 3.345-25.336 23.526.393 3.758 2.735 6.048 6.24 6.343 14.759 1.23 29.373.827 43.155-5.655 3.856-1.814 6.643-6.059 6.11-9.61-.636-4.229-2.611-7.682-6.581-9.651-1.453-.719-3.003-1.396-4.585-1.675-7.987-1.448-15.99-2.761-19.003-3.278zM1597.767 544.379c-4.151 7.734-7.827 14.991-11.89 22.032-2.032 3.526-4.368 7.036-7.273 9.822-2.424 2.311-5.904 2.554-9.114.615-2.988-1.82-4.854-4.404-5.097-7.873-.109-1.587.021-3.401.693-4.797 12.825-26.674 25.744-53.302 38.657-79.935.362-.739.791-1.442 1.23-2.14 2.895-4.544 11.058-6.1 15.39-2.786 1.928 1.463 3.763 3.138 5.33 4.989 20.295 23.847 38.864 48.919 53.83 76.524 1.168 2.15 2.197 4.394 3.148 6.653 1.184 2.786-.196 7.32-2.792 8.705-3.05 1.613-6.421 2.011-9.258-.15-2.564-1.949-5.138-4.229-6.813-6.917-3.484-5.562-6.312-11.533-9.522-17.276-2.585-4.616-6.514-7.32-11.926-7.439-4.11-.093-8.23-.021-12.339-.021-10.594-.006-21.197-.006-32.254-.006zm23.981-39.986c-2.331.667-4.451.615-5.211 1.608-3.944 5.149-9.015 11.057-5.283 17.416 2.962 5.04 10.158 4.13 15.741 4.322 1.959.072 4.301-1.391 5.821-2.838.672-.636.16-3.262-.6-4.503-3.381-5.501-7.046-10.836-10.468-16.005zM1493.933 473.862c15.508 1.06 29.28 5.604 37.318 20.171 1.897 3.433 2.647 7.744 2.967 11.724.274 3.303-1.427 6.302-4.978 7.656-3.526 1.344-6.901.284-8.876-2.254-2.471-3.179-3.624-7.341-5.764-10.825-5.681-9.217-14.64-12.205-25.666-8.835-7.723 2.362-10.277 9.744-4.958 15.255 3.386 3.515 7.186 6.803 11.295 9.408 6.245 3.965 12.908 7.279 19.422 10.825 9.155 4.978 15.017 12.608 18.181 22.425 3.035 9.408.166 18.243-8.323 23.707-9.75 6.271-20.197 11.078-31.787 12.944-14.092 2.275-30.707-6.684-36.414-19.809-1.303-3.009-1.949-6.291-3.004-9.408-1.184-3.515-.45-6.612 2.486-8.695 3.856-2.724 10.752-1.142 13.043 2.926 2.414 4.291 3.96 9.176 6.917 13.012 1.747 2.254 5.474 4.099 8.349 4.172 10.236.253 19.329-3.252 26.809-10.489 2.275-2.202 2.916-6.364.905-8.974-2.481-3.221-4.828-6.834-8.049-9.14-6.007-4.28-12.427-8.095-19.013-11.45-8.395-4.28-14.33-11.135-19.799-18.295-7.858-10.277-3.851-25.697 7.423-31.906 6.809-3.742 14.005-4.538 21.516-4.145zM.124 560.311c1.98-24.715 10.923-46.608 28.411-64.215 11.026-11.104 25.129-15.105 40.952-12.862 8.581 1.21 21.681 13.751 18.646 25.33-.491 1.866-3.014 3.562-4.994 4.534-1.049.517-3.179-.372-4.394-1.23-1.272-.899-2.233-2.404-2.978-3.836-1.871-3.613-2.988-7.837-7.46-9.3-5.924-1.939-11.538-.584-16.547 2.564-12.329 7.765-20.394 19.267-25.573 32.48-3.283 8.359-4.663 17.468-6.865 26.24-2.647 10.551.501 19.696 7.599 27.383 3.872 4.198 8.483 7.806 13.141 11.145 6.09 4.373 11.843 3.727 18.197-1.08 8.742-6.601 14.645-15.498 20.357-24.617 2.28-3.644 6.674-4.42 10.902-2.626 4.223 1.789 6.617 6.26 5.247 9.801-4.921 12.712-13.425 22.88-24.245 30.634-5.873 4.208-13.213 6.198-21.091 5.666-24.6-1.654-51.466-28.804-49.305-56.011zM577.537 536.288c15.658 1.504 30.412 1.675 45.083-1.375 5.092-1.049 9.786.031 13.911 3.35 2.331 1.876 2.021 6.917-.305 8.592-4.921 3.546-10.479 4.565-16.315 4.808-11.528.476-23.061.848-34.573 1.525-5.599.321-8.938 4.12-8.747 9.812.248 7.413.982 14.8 1.287 22.213.14 3.272-.052 6.591-.507 9.822-.486 3.453-2.373 6.048-6.053 6.782-3.841.755-8.633-1.908-9.972-5.454-.579-1.546-1.478-3.029-1.696-4.616-4.28-31.125-4.704-62.437-4.136-93.79.047-2.414.832-4.864 1.551-7.222 1.256-4.161 3.717-7.392 8.178-8.318 4.839-.998 9.967-3.04 14.547-2.244 15.829 2.755 31.172.072 46.67-2.13 2.998-.424 6.576.553 9.326 1.98 1.851.956 3.706 3.805 3.748 5.836.041 1.959-1.83 5.04-3.608 5.754-11.667 4.704-24.022 5.573-36.434 5.19-25.367-.786-25.661-.605-25.542 25.997.021 3.241.827 6.493 1.396 9.713.129.756.775 1.403 2.191 3.775zM1716.509 525.071c.724-13.208 1.339-26.4 2.228-39.588.315-4.653 3.856-7.615 8.157-7.553 5.309.062 10.189 3.939 10.081 8.824-.207 9.894-1.034 19.768-1.401 29.662-.486 13.198-.951 26.4-1.039 39.608-.041 5.454 4.058 9.238 9.243 9.765 14.237 1.422 28.081-1.334 41.681-4.766 7.904-2.001 14.676-.698 21.241 3.262 1.158.698 2.202 2.967 1.964 4.28-.398 2.182-1.778 4.218-2.926 6.219-.357.615-1.266 1.163-2.011 1.292-24.431 4.404-48.955 7.847-73.882 5.898-6.565-.507-10.541-3.996-12.557-10.127-2.641-8.028-2.771-16.242-2.156-24.534.553-7.413 1.246-14.8 1.877-22.203l-.5-.039zM369.808 547.082c-1.416-18.538-2.828-34.966-3.81-51.421-.207-3.391 2.063-6.1 5.697-7.118 4.379-1.241 9.76.496 10.675 3.696.9 3.138 1.856 6.353 2.099 9.584 1.83 23.847 4.285 47.699 4.947 71.587.6 21.65 3.924 24.193 24.948 21.598 7.372-.91 14.754-1.768 22.156-2.331 3.236-.243 6.55.181 9.801.507 2.58.243 6.115 4.766 5.268 7.237-.739 2.15-2.28 5.252-3.986 5.635-20.228 4.575-40.679 6.948-61.341 3.252-9.176-1.644-13.053-5.986-13.663-14.893-1.106-16.466-1.954-32.946-2.791-47.333zM281.183 594.879c9.956 1.654 20.549 1.313 31.203.109 2.347-.264 5.164-.284 7.092.796 1.897 1.06 3.794 3.526 4.099 5.614.305 2.032-.889 4.885-2.404 6.4-1.587 1.587-4.301 2.735-6.57 2.807-13.156.465-26.328.646-39.495.677-2.383.01-4.839-.91-7.139-1.727-4.13-1.463-6.968-4.404-7.935-8.695-.719-3.2-1.142-6.513-1.282-9.796-1.096-24.695-2.275-49.394-2.967-74.099-.16-5.624 1.303-11.326 2.352-16.94.507-2.735 5.495-5.836 7.785-4.606 2.688 1.442 5.635 3.593 6.865 6.198 1.313 2.776.879 6.431.977 9.713.646 21.422 1.241 42.85 1.825 64.267.181 6.591.011 13.223 5.594 19.282z"/></g></svg>