<svg xmlns="http://www.w3.org/2000/svg" viewBox="0 0 412.412 29.562" enable-background="new 0 0 412.412 29.562"><g fill-rule="evenodd" clip-rule="evenodd" fill="#fff"><path d="M167.686 16.749c-2.971.43-5.644.809-8.314 1.207-1.422.213-1.78.703-1.68 2.318.08 1.271.28 2.541.287 3.812.004.605-.254 1.254-.984 1.486-.658.209-1.238.066-1.794-.314-.856-.59-1.269-1.408-1.269-2.43-.004-3.188-.078-6.377.039-9.559.082-2.225.391-4.445.674-6.658.23-1.797 1.053-2.619 2.703-2.832 1.896-.242 3.795-.482 5.697-.656 3.418-.315 6.656.537 9.793 1.752 1.75.678 3.078 3.121 2.916 5.102-.049.604-.254 1.283-.615 1.756-.669.877-1.405 1.767-2.295 2.392-1.306.916-1.409 2.008-.934 3.33.48 1.342.957 2.686 1.482 4.01.219.555 1.123.723 1.64.351.765-.549 1.487-1.166 2.286-1.658.654-.402 1.599.373 1.623 1.17.09 3.012-3.576 4.842-5.774 3.787-1.696-.812-2.936-1.912-3.673-3.559-.644-1.434-1.117-2.946-1.808-4.807zm-8.903-9.867c-1.227 2.059-.729 4.178-.872 6.207-.058.816.64 1.477 1.491 1.477 3.891.006 7.529-1.008 10.928-2.861.524-.287.908-.867 1.293-1.361.438-.562.357-1.734-.203-2.201-.596-.496-1.242-1.053-1.96-1.262-3.585-1.048-7.178-.812-10.677.001zM239.247 14.632c-2.058 0-3.966-.016-5.872.008-.81.01-1.371.656-1.445 1.596-.15 1.908-.275 3.82-.44 5.731-.044.502-.858 1.098-1.402 1.08-.671-.023-1.263-.252-1.566-.887-.202-.424-.41-.896-.419-1.352-.108-5.273-.181-10.547-.256-15.822-.004-.318.035-.639.072-.955.088-.767.708-1.553 1.468-1.701 4.768-.934 9.518-1.209 14.149.652.88.353 1.757.807 2.504 1.385 2.475 1.912 2.477 5.535.039 7.465-.497.393-1.113.629-1.635.994-.382.267-.699.627-1.061.957 0 1.133-.098 2.25.023 3.34.174 1.551.496 1.734 2.543 1.953l.477.055c.641.111.98.871.711 1.449-.602 1.287-1.636 2.021-3.008 1.986-1.32-.035-2.539-.59-3.092-1.906-.426-1.016-.654-2.115-.967-3.18l-.823-2.848zm-7.136-3.375c2.717.477 5.23.479 7.681-.258 1.196-.359 2.336-.994 3.406-1.656 1.14-.705.997-2.635-.176-3.221-1.73-.863-3.571-1.375-5.502-1.406-5.598-.092-6.569-.213-5.409 6.541zM128.602 15.098c.237-5.857 3.871-9.756 9.717-10.406.629-.07 1.268-.058 1.9-.102 4.912-.338 6.688 1.465 8.264 6.174 1.709 5.107.004 9.809-3.826 13.461-2.417 2.305-5.521 3.105-8.852 1.887-5.045-1.846-7.5-5.428-7.203-11.014zm16.583-.31c-.161-2.205-.436-4.246-1.821-5.945-.52-.637-1.129-1.125-1.969-1.213-4.02-.42-9.235 2.127-9.273 8.004-.023 3.613.994 6.184 4.587 7.59.924.363 1.822.424 2.78.072 3.072-1.127 5.753-5.16 5.696-8.508zM402.478.001c5.423-.06 9.518 3.49 9.933 8.031.033.357-.375.916-.727 1.106-.355.191-.99.203-1.332.004-.524-.305-1.01-.795-1.32-1.32-.561-.949-.854-2.072-1.486-2.963-1.213-1.709-3.238-2.029-5.115-.98-1.443.807-1.809 3.023-.597 4.123.698.631 1.543 1.113 2.358 1.602 1.367.82 2.768 1.586 4.147 2.389.412.24.842.476 1.19.795 4.219 3.853 2.914 8.064-1.952 10.068-.873.359-1.907.32-2.788.666-2.937 1.154-6.511-.689-8.244-3.402-.589-.922-.884-2.039-1.269-3.084-.189-.512.301-1.557.763-1.541.594.02 1.372.096 1.727.473.64.678 1.05 1.582 1.511 2.418.902 1.637 2.268 2.182 4.034 1.719 1.073-.279 2.167-.56 3.17-1.018 1.909-.869 2.205-3.016.595-4.242-1.011-.771-2.128-1.406-3.227-2.053-1.102-.648-2.275-1.176-3.354-1.857-2.58-1.631-3.506-4.035-3.086-7.002.191-1.359.898-2.434 2.151-2.973 1.155-.5 2.396-.793 2.918-.959zM273.132 12.448c-.048 5.469-3.542 10.068-9.499 11.287-.307.062-.647.1-.945.035-4.978-1.082-8.732-3.289-9.715-9.055-.791-4.643 2.586-10.275 7.053-11.768 1.56-.521 3.209-.609 4.658.127 1.967.998 3.906 2.121 5.656 3.455 1.992 1.523 2.994 3.673 2.792 5.919zm-3.712-.252c-.232-.693-.427-1.816-.961-2.742-.971-1.689-2.389-2.885-4.387-3.365-1-.24-1.852-.193-2.725.297-2.34 1.318-3.65 3.35-4.516 5.865-.955 2.773.604 6.096 2.846 7.426 1.43.85 2.973 1.084 4.551.357 3.178-1.461 4.768-4.025 5.192-7.838zM319.132 12.448c-.048 5.469-3.542 10.068-9.499 11.287-.307.062-.647.1-.945.035-4.978-1.082-8.732-3.289-9.715-9.055-.791-4.643 2.586-10.275 7.053-11.768 1.56-.521 3.209-.609 4.658.127 1.967.998 3.906 2.121 5.656 3.455 1.992 1.523 2.994 3.673 2.792 5.919zm-3.712-.252c-.232-.693-.427-1.816-.961-2.742-.971-1.689-2.389-2.885-4.387-3.365-1-.24-1.852-.193-2.725.297-2.34 1.318-3.65 3.35-4.516 5.865-.955 2.773.604 6.096 2.846 7.426 1.43.85 2.973 1.084 4.551.357 3.178-1.461 4.768-4.025 5.192-7.838zM37.451 21.397c-2.018-.666-3.43-.213-4.85-.137-1.267.066-2.539.014-3.481.014-1.209.707-1.466 1.67-1.955 2.469-.917 1.494-1.797 3.018-2.799 4.453-.376.539-1.08.576-1.737.271-.644-.301-1.042-.838-1.017-1.482.025-.605.26-1.242.541-1.793 2.617-5.119 5.254-10.228 7.91-15.328.664-1.273 1.379-2.523 2.141-3.74.579-.924 2.284-.922 2.896-.02.354.521.645 1.096.898 1.676.834 1.902 1.709 3.791 2.438 5.734 1.347 3.59 2.624 7.205 3.879 10.83.311.898.578 1.867.562 2.799-.01.484-.602 1.082-1.084 1.387-.279.174-1.045.018-1.274-.256-.601-.715-1.142-1.529-1.499-2.391-.606-1.46-1.054-2.988-1.569-4.486zm-4.052-9.681c-1.055 1.973-1.89 3.471-2.66 5.002-.438.869.056 1.623.981 1.57.941-.055 1.882-.133 2.816-.25.939-.115 1.492-.838 1.18-1.615-.569-1.416-.708-3.045-2.317-4.707zM204.449 15.282c-.428-4.281-.771-7.451-.294-10.637.157-1.047.741-1.774 1.757-2.033 3.602-.922 7.244-.969 10.88-.266.917.178 1.78.68 2.64 1.09 2.121 1.012 2.895 2.906 2.989 5.068.031.709-.367 1.586-.852 2.141-1.28 1.463-2.883 2.521-4.874 2.769-2.366.293-4.741.51-7.111.773-.723.082-1.184.557-1.196 1.238-.046 2.387-.023 4.774-.006 7.16.005.658-.114 1.244-.618 1.713-.725.676-2.57.31-2.876-.641-.239-.744-.401-1.545-.419-2.322-.053-2.387-.02-4.776-.02-6.053zm8.216-10.373c-4.776.029-5.308.647-4.901 4.551.076.727.529 1.17 1.207 1.227 2.855.238 5.682.16 8.348-1.094.746-.351 1.285-1.172 1.182-1.859-.123-.818-.505-1.486-1.273-1.867-.281-.139-.581-.27-.887-.324-1.545-.28-3.093-.534-3.676-.634zM278.449 15.282c-.428-4.281-.772-7.451-.294-10.637.157-1.047.741-1.774 1.757-2.033 3.602-.922 7.244-.969 10.88-.266.917.178 1.78.68 2.64 1.09 2.121 1.012 2.895 2.906 2.989 5.068.031.709-.367 1.586-.852 2.141-1.28 1.463-2.883 2.521-4.874 2.769-2.366.293-4.741.51-7.111.773-.723.082-1.184.557-1.196 1.238-.046 2.387-.022 4.774-.006 7.16.005.658-.114 1.244-.618 1.713-.725.676-2.57.31-2.876-.641-.239-.744-.401-1.545-.419-2.322-.053-2.387-.02-4.776-.02-6.053zm8.216-10.373c-4.776.029-5.308.647-4.901 4.551.076.727.529 1.17 1.207 1.227 2.855.238 5.682.16 8.348-1.094.746-.351 1.285-1.172 1.182-1.859-.123-.818-.505-1.486-1.273-1.867-.281-.139-.581-.27-.887-.324-1.545-.28-3.093-.534-3.676-.634zM350.078 15.628c-.803 1.496-1.514 2.9-2.3 4.262-.393.682-.845 1.361-1.407 1.9-.469.447-1.142.494-1.763.119-.578-.352-.939-.852-.986-1.523-.021-.307.004-.658.134-.928 2.481-5.16 4.98-10.311 7.478-15.463.07-.143.153-.279.238-.414.56-.879 2.139-1.18 2.977-.539.373.283.728.607 1.031.965 3.926 4.613 7.518 9.463 10.413 14.803.226.416.425.85.609 1.287.229.539-.038 1.416-.54 1.684-.59.312-1.242.389-1.791-.029-.496-.377-.994-.818-1.318-1.338-.674-1.076-1.221-2.231-1.842-3.342-.5-.893-1.26-1.416-2.307-1.439-.795-.018-1.592-.004-2.387-.004l-6.239-.001zm4.639-7.735c-.451.129-.861.119-1.008.311-.763.996-1.744 2.139-1.022 3.369.573.975 1.965.799 3.045.836.379.014.832-.269 1.126-.549.13-.123.031-.631-.116-.871-.654-1.064-1.363-2.096-2.025-3.096zM330.992 1.987c3 .205 5.664 1.084 7.219 3.902.367.664.512 1.498.574 2.268.053.639-.276 1.219-.963 1.481-.682.26-1.335.055-1.717-.436-.478-.615-.701-1.42-1.115-2.094-1.099-1.783-2.832-2.361-4.965-1.709-1.494.457-1.988 1.885-.959 2.951.655.68 1.39 1.316 2.185 1.82 1.208.767 2.497 1.408 3.757 2.094 1.771.963 2.905 2.439 3.517 4.338.587 1.82.032 3.529-1.61 4.586-1.886 1.213-3.907 2.143-6.149 2.504-2.726.44-5.94-1.293-7.044-3.832-.252-.582-.377-1.217-.581-1.82-.229-.68-.087-1.279.481-1.682.746-.527 2.08-.221 2.523.566.467.83.766 1.775 1.338 2.517.338.436 1.059.793 1.615.807 1.98.049 3.739-.629 5.186-2.029.44-.426.564-1.231.175-1.736-.48-.623-.934-1.322-1.557-1.768-1.162-.828-2.404-1.566-3.678-2.215-1.624-.828-2.772-2.154-3.83-3.539-1.52-1.988-.745-4.971 1.436-6.172 1.317-.724 2.709-.878 4.162-.802zM.024 18.71c.383-4.781 2.113-9.016 5.496-12.422 2.133-2.148 4.861-2.922 7.922-2.488 1.66.234 4.194 2.66 3.607 4.9-.095.361-.583.689-.966.877-.203.1-.615-.072-.85-.238-.246-.174-.432-.465-.576-.742-.362-.699-.578-1.516-1.443-1.799-1.146-.375-2.232-.113-3.201.496-2.385 1.502-3.945 3.727-4.947 6.283-.635 1.617-.902 3.379-1.328 5.076-.512 2.041.097 3.81 1.47 5.297.749.812 1.641 1.51 2.542 2.156 1.178.846 2.291.721 3.52-.209 1.691-1.277 2.833-2.998 3.938-4.762.441-.705 1.291-.855 2.109-.508.817.346 1.28 1.211 1.015 1.896-.952 2.459-2.597 4.426-4.69 5.926-1.136.814-2.556 1.199-4.08 1.096-4.759-.32-9.956-5.572-9.538-10.835zM111.721 14.063c3.029.291 5.883.324 8.721-.266.985-.203 1.893.006 2.691.648.451.363.391 1.338-.059 1.662-.952.686-2.027.883-3.156.93-2.23.092-4.461.164-6.688.295-1.083.062-1.729.797-1.692 1.898.048 1.434.19 2.863.249 4.297.027.633-.01 1.275-.098 1.9-.094.668-.459 1.17-1.171 1.312-.743.146-1.67-.369-1.929-1.055-.112-.299-.286-.586-.328-.893-.828-6.021-.91-12.078-.8-18.143.009-.467.161-.941.3-1.397.243-.805.719-1.43 1.582-1.609.936-.193 1.928-.588 2.814-.434 3.062.533 6.03.014 9.028-.412.58-.082 1.272.107 1.804.383.358.185.717.736.725 1.129.008.379-.354.975-.698 1.113-2.257.91-4.647 1.078-7.048 1.004-4.907-.152-4.964-.117-4.941 5.029.004.627.16 1.256.27 1.879.025.146.15.271.424.73zM373.048 11.893c.14-2.555.259-5.107.431-7.658.061-.9.746-1.473 1.578-1.461 1.027.012 1.971.762 1.95 1.707-.04 1.914-.2 3.824-.271 5.738-.094 2.553-.184 5.107-.201 7.662-.008 1.055.785 1.787 1.788 1.889 2.754.275 5.432-.258 8.063-.922 1.529-.387 2.839-.135 4.109.631.224.135.426.574.38.828-.077.422-.344.816-.566 1.203-.069.119-.245.225-.389.25-4.726.852-9.47 1.518-14.292 1.141-1.27-.098-2.039-.773-2.429-1.959-.511-1.553-.536-3.142-.417-4.746.107-1.434.241-2.863.363-4.295l-.097-.008zM71.537 16.151c-.274-3.586-.547-6.764-.737-9.947-.04-.656.399-1.18 1.102-1.377.847-.24 1.888.096 2.065.715.174.607.359 1.229.406 1.854.354 4.613.829 9.227.957 13.848.116 4.188.759 4.68 4.826 4.178 1.426-.176 2.854-.342 4.286-.451.626-.047 1.267.035 1.896.098.499.047 1.183.922 1.019 1.4-.143.416-.441 1.016-.771 1.09-3.913.885-7.869 1.344-11.866.629-1.775-.318-2.525-1.158-2.643-2.881-.214-3.185-.378-6.373-.54-9.156zM54.393 25.397c1.926.32 3.975.254 6.036.021.454-.051.999-.055 1.372.154.367.205.734.682.793 1.086.059.393-.172.945-.465 1.238-.307.307-.832.529-1.271.543-2.545.09-5.093.125-7.64.131-.461.002-.936-.176-1.381-.334-.799-.283-1.348-.852-1.535-1.682-.139-.619-.221-1.26-.248-1.895-.212-4.777-.44-9.555-.574-14.334-.031-1.088.252-2.191.455-3.277.098-.529 1.063-1.129 1.506-.891.52.279 1.09.695 1.328 1.199.254.537.17 1.244.189 1.879.125 4.144.24 8.289.353 12.432.035 1.275.002 2.558 1.082 3.73z"/></g></svg>