<svg xmlns="http://www.w3.org/2000/svg" viewBox="0.005 252.976 1919.998 574.027" enable-background="new 0.005 252.976 1919.998 574.027"><path d="M739.59 467.544c6.557 5.022 13.448 2.98 19.981 3.362 4.729.281 9.471.502 14.188.985 3.141.328 7.052 4.526 7.602 7.703.454 2.633-3.69 7.076-7.261 7.417-10.456.985-20.918 1.863-31.381 2.705-8.659.699-14.021 5.261-16.398 13.538-15.024 52.221-30.401 104.347-44.906 156.706-5.088 18.351-8.408 37.221-11.788 55.995-1.505 8.372-1.367 17.132 6.324 24.728 3.153-1.487 7.076-2.365 9.632-4.729 6.999-6.461 13.699-13.311 20.029-20.441 15.221-17.132 30.246-34.444 45.181-51.827 6.21-7.232 11.866-14.935 17.968-22.268 10.343-12.433 18.739-26.346 31.004-37.382 6.163-5.542 10.056-13.782 14.397-21.139 8.426-14.296 19.915-25.63 33.381-34.946 5.422-3.75 11.555-6.694 17.712-9.125 13.973-5.524 26.197-2.58 36.098 8.957 3.087 3.607 6.073 7.291 9.017 10.832 4.682-.263 6.36-3.356 7.739-6.915 2.383-6.175 4.431-12.552 7.512-18.375 2.424-4.598 7.357-5.697 12.409-5.195 3.601.358 7.811 4.759 7.094 7.763-2.639 11.095-4.771 22.393-8.486 33.142-8.091 23.444-16.756 46.704-25.749 69.825-5.936 15.251-9.716 30.945-11.925 47.05-1.66 12.069-.699 15.174 7.046 30.306 3.207-2.066 6.7-3.672 9.393-6.151 25.457-23.474 46.202-50.902 64.815-79.84 12.325-19.175 24.812-38.296 33.489-59.757 6.796-16.792 17.329-31.745 29.201-45.7 9.596-11.274 20.548-19.832 36.624-23.45 2.383.537 6.234.926 9.71 2.275 21.456 8.33 30.795 21.916 28.789 43.778-1.397 15.21-4.873 30.144-11.215 44.213-.77 1.714-2.06 3.183-3.099 4.783-2.478 3.816-8.748 5.571-12.654 3.541-3.72-1.935-6.121-5.273-5.578-9.148.926-6.527 2.556-13.018 4.58-19.294 3.899-12.069 4.783-24.286 2.711-36.707-.454-2.729-1.899-5.327-3.075-7.894-1.332-2.902-7.196-5.088-9.955-3.828-1.72.782-3.667 1.314-5.094 2.472-3.685 3.01-7.608 5.912-10.606 9.548-28.048 33.96-45.324 72.716-50.699 116.517-1.887 15.389 1.015 30.479 5.159 45.253 2.204 7.859 14.326 16.619 25.648 11.925 9.817-4.067 19.151-8.701 27.069-15.783 17.079-15.269 34.474-30.24 50.913-46.178 17.915-17.371 32.229-37.71 44.715-59.298 1.905-3.302 3.38-6.873 5.446-10.074 5.13-7.942 11.435-15.287 15.484-23.725 3.667-7.626 4.807-16.44 7.357-24.639 5.1-16.392 10.516-32.688 15.502-49.116 1.081-3.553.902-7.488 1.356-11.74-2.83-1.212-5.225-3.016-7.721-3.153-6.652-.37-13.352.155-20.029-.018-7.363-.191-13.084-4.515-12.54-9.053.531-4.407 5.822-8.068 13.161-8.85 5.703-.603 11.424-.997 17.132-1.421 2.86-.209 5.775.006 8.575-.478 6.037-1.045 10.48-4.079 12.248-10.391 5.655-20.214 10.868-40.577 17.288-60.552 9.328-29.046 19.479-57.835 29.488-86.659 1.863-5.368 4.18-10.785 7.381-15.419 1.941-2.813 5.757-4.873 9.148-5.989 3.906-1.284 7.202 1.212 10.247 4.885-.119 2.186.364 5.159-.502 7.661-7.823 22.543-15.747 45.049-23.898 67.479-10.779 29.643-18.225 60.187-25.033 90.917-.167.734.514 1.66.812 2.538 4.467 5.416 10.516 2.771 15.98 3.016 7.011.316 12.869 2.998 17.771 7.996 2.329 2.371 1.218 8.683-2.072 9.674-3.553 1.075-7.273 2.078-10.94 2.138-8.486.149-16.977-.281-26.173-.496-2.442 4.724-5.165 8.635-6.593 12.982-4.449 13.579-8.372 27.338-12.564 41.007-12.021 39.227-21.928 79.04-31.243 118.959-4.097 17.568-5.327 35.799-7.823 53.732-.125.932-.215 1.989.084 2.848.872 2.514 1.302 6.085 3.117 7.118 1.893 1.081 5.834.609 7.787-.758 14.141-9.925 26.848-21.563 37.609-35.059 8.312-10.426 15.723-21.563 23.516-32.396 3.213-4.467 8.193-5.87 12.337-3.44 5.745 3.374 8.492 9.584 6.336 14.266-.394.866-.555 1.863-1.045 2.651-17.15 27.869-37.794 52.705-63.209 73.504-6.127 5.01-12.827 8.181-20.59 9.22-7.124.955-13.191-1.332-18.148-6.449-6.927-7.172-10.898-15.89-10.892-25.755 0-11.43.932-22.865 1.756-34.277.472-6.581 1.511-13.12 2.281-19.575-5.231-1.212-7.721 1.32-10.217 4.186-20.727 23.874-43.813 45.294-68.315 65.18-6.61 5.362-13.788 10.182-21.193 14.403-18.715 10.671-41.108 6.658-58.306-8.211-5.995-5.177-9.883-11.776-11.848-19.234-2.18-8.289-3.284-16.858-5.231-25.218-.555-2.371-2.424-4.437-3.661-6.581-7.56 2.86-9.847 9.668-14.093 14.618-4.353 5.076-8.247 10.546-12.636 15.574-9.411 10.779-18.978 21.426-28.55 32.055-7.745 8.593-18.315 9.841-28.855 9.943-5.763.06-11.37-2.848-14.929-7.5-4.007-5.243-7.351-11.083-10.283-17.019-2.365-4.789-3.661-10.092-5.972-16.72-6.425 6.581-11.645 12.009-16.965 17.335-9.566 9.578-21.044 16.207-33.041 22.334-18.237 9.322-41.664-6.455-43.873-23.785-1.439-11.322-2.293-22.728-3.481-34.886-2.765.973-6.061 1.129-7.638 2.86-10.313 11.25-20.255 22.847-30.33 34.319-7.566 8.605-14.75 17.604-22.847 25.672-6.706 6.676-13.979 13.09-21.951 18.13-14.983 9.465-33.471 3.481-40.672-13.066-3.368-7.751-4.753-16.356-7.327-25.6-2.281.615-5.249.531-6.831 1.977-11.991 10.934-23.57 22.286-37 31.56-7.936 5.482-16.159 9.996-25.672 12.23-9.393 2.198-16.941-.561-23.206-7.369-5.303-5.769-8.36-12.594-9.208-20.524-1.439-13.567.352-26.699 4.921-39.46 7.405-20.644 14.881-41.258 22.447-61.847 5.261-14.326 9.949-28.783 9.519-44.279-.024-1.039-3.057-3.057-4.246-2.771-2.628.621-5.231 2.114-7.399 3.816-14.344 11.244-27.051 24.209-38.463 38.367-7.823 9.698-16.105 18.822-25.666 26.86-5.1 4.288-9.471 9.423-14.23 14.117-12.558 12.391-20.423 27.499-25.254 44.255-2.908 10.08-5.279 20.327-8.038 30.461-.746 2.735-1.863 5.41-3.123 7.96-3.434 6.891-12.785 8.014-19.39 2.221-1.344-1.164-1.917-3.201-3.255-5.554 10.51-47.564 26.406-94.446 35.829-143.347-2.789.143-4.879-.388-5.983.424-3.822 2.807-7.345 6.019-10.892 9.184-16.667 14.881-34.832 26.753-58.193 27.977-9.22 14.087-15.974 28.801-23.647 42.971-10.964 20.238-24.03 38.947-39.771 55.739-3.899 4.156-8.121 8.115-12.636 11.597-14.105 10.886-29.637 12.522-45.766 5.362-9.793-4.341-18.136-10.486-21.223-21.814-1.445-5.309-4.001-10.319-6.563-16.738-3.947 2.842-7.411 4.568-9.841 7.232-7.076 7.757-13.878 15.777-20.542 23.898-22.202 27.069-50.758 46.005-80.473 63.573-17.485 10.331-36.277 10.737-55.553 8.289-2.771-.352-5.709-1.176-8.085-2.598-8.987-5.368-18.165-10.552-26.556-16.774-12.552-9.304-21.038-21.432-25.678-36.833-5.804-19.294-10.964-38.529-11.477-58.802-.436-17.186-1.445-34.36-1.666-51.541-.382-30.073 7.715-58.539 18.046-86.349 12.982-34.916 27.995-68.96 46.441-101.403 12.737-22.405 24.579-45.342 41.305-65.257 24-28.592 49.379-55.774 78.675-79.087 1.493-1.188 2.938-2.448 4.479-3.583 24.973-18.273 51.523-29.135 84.086-17.013 22.871 14.487 32.318 37.758 33.799 64.708.89 16.159-.657 32.24-4.735 48.226-7.888 30.909-19.396 59.895-39.538 84.981-2.383 2.974-4.652 6.151-7.548 8.557-2.042 1.696-5.052 3.093-7.602 3.063-2.526-.036-5.016-2.03-7.954-3.356.639-3.069.603-6.073 1.863-8.348 4.622-8.348 9.471-16.589 14.63-24.615 17.419-27.099 25.343-57.369 30.336-88.714 2.311-14.529.442-28.717-4.15-42.362-2.377-7.07-6.467-13.884-11.083-19.79-7.721-9.877-17.807-13.221-30.574-9.495-12.11 3.535-23.08 8.653-33.274 16.064-22.555 16.398-42.022 36.05-60.558 56.67-21.766 24.221-40.559 50.466-56.461 79.069-15.347 27.607-29.213 55.87-41.168 84.975-12.325 30.031-22.895 60.832-26.084 93.449-1.194 12.224-1.511 24.639-.944 36.916 1.308 28.538 2.359 57.142 12.152 84.569 4.365 12.254 11.74 21.39 22.31 28.819 14.535 10.217 29.995 11.334 46.417 6.79 3.655-1.015 7.333-2.371 10.623-4.234 26.693-15.018 52.645-30.885 72.931-54.64 14.242-16.679 29.476-32.509 44.309-48.68 8.468-9.226 14.983-19.133 18.583-31.649 8.605-29.912 26.287-54.956 46.411-78.156 13.514-15.568 32.139-23.713 50.925-30.921 4.162-1.6 9.805-1.75 14.003-.317 8.963 3.057 17.879 6.837 25.964 11.734 7.644 4.628 11.728 12.761 12.403 21.653.711 9.441.155 18.978.155 28.06 3.565 4.622 7.082 2.078 10.05.37 15.944-9.178 28.687-22.023 40.648-35.794 6.246-7.196 12.827-14.111 19.443-20.984 1.941-2.018 4.353-3.696 6.796-5.106 5.571-3.237 17.114-2.239 21.617 1.893 4.986 4.574 4.067 10.414 2.484 15.962-4.962 17.437-10.307 34.76-15.216 52.209-.979 3.481-.687 7.327-1.009 11.292 2.801-.173 5.082.382 5.912-.478 7.303-7.506 14.672-14.995 21.396-23.014 12.313-14.696 25.821-28.078 40.678-40.195 6.837-5.571 14.409-9.363 22.805-11.549 10.868-2.825 24.263 4.903 26.687 16.123 1.373 6.384 1.72 13.352.77 19.802-2.365 16.069-6.843 31.625-12.743 46.871-7.572 19.563-14.445 39.43-20.877 59.393-2.604 8.079-3.607 16.738-4.604 25.224-.412 3.559 1.111 7.339 1.66 10.534 7.208 2.872 12.134-.973 16.667-3.935 16.899-11.059 31.279-25.021 44.172-40.511 3.046-3.661 5.291-8.008 8.42-11.573 17.401-19.82 27.063-42.864 33.453-68.5 8.521-34.193 20.405-67.544 30.766-101.278 1.935-6.312 4.305-12.672 1.469-19.33-5.088-3.959-10.898-3.105-16.535-2.418-11.37 1.385-22.68 3.356-34.074 4.461-3.517.346-7.608-.627-10.713-2.323-1.929-1.051-3.034-4.491-3.469-7.04-.239-1.379 1.32-3.81 2.723-4.598 3.255-1.827 6.802-3.667 10.42-4.222 13.203-2.006 26.472-3.595 39.735-5.142 7.506-.872 15.329.018 23.462-5.076 1.971-6.127 4.419-13.293 6.593-20.536 11.531-38.379 22.937-76.788 34.51-115.15 1.971-6.521 6.563-9.142 13.054-8.229 6.587.926 10.516 5.972 8.856 11.979-3.786 13.8-7.661 27.571-11.794 41.275-5.786 19.181-11.734 38.319-17.795 57.417-3.145 9.992-5.002 20.162-6.011 30.176zm-393.986 115.197c-8.874 1.057-15.687 6.437-22.154 11.818-6.551 5.44-12.869 11.418-18.148 18.07-6.509 8.199-11.907 17.294-17.646 26.084-13.956 21.36-19.867 45.402-21.748 70.369-.705 9.316 1.147 18.942 2.795 28.257 1.141 6.497 9.405 10.731 15.771 8.904 3.625-1.039 7.327-2.293 10.498-4.246 4.025-2.484 7.65-5.655 11.28-8.748 15.556-13.257 26.024-30.455 35.752-47.964 7.781-14.015 16.768-27.618 21.354-43.981-9.74-8.629-18.446-17.491-20.536-31.088.86-4.15 2.096-8.79 2.705-13.508.585-4.496 3.684-9.046.077-13.967zm451.785 104.694c1.158 9.978 1.815 16.619 2.735 23.223.585 4.156 7.136 7.261 11.406 5.601 12.743-4.974 23.122-13 31.53-23.803 19.384-24.907 34.42-52.663 51.797-78.884 3.75-5.655 4.449-12.331-1.606-18.076-3.69-3.505-3.243-8.635-3.81-13.376-.663-5.613-1.786-11.244-3.38-16.667-1.803-6.139-8.103-8.724-13.573-6.258-11.525 5.195-20.632 13.215-28.747 22.883-20.614 24.573-33.011 53.392-43.216 83.232-2.713 7.919-2.45 16.87-3.136 22.125zm-425.689-69.425c5.183-8.987 6.617-15.586.758-22.298-5.201 9.435-5.219 9.435-.758 22.298zm1453.89-355.822c-1.732 3.792-3.499 8.115-5.631 12.254-21.468 41.58-40.117 84.277-54.317 128.974-12.707 39.986-26.555 79.589-46.005 117.019-16.344 31.464-26.89 65.156-35.734 99.367-3.822 14.762-7.106 29.667-10.474 44.536-3.189 14.081-2.729 28.222-1.791 41.222 5.267 3.583 9.089 2.86 12.116.537 9.059-6.951 18.751-13.412 26.508-21.653 28.108-29.84 57.064-58.85 83.076-90.726 22.889-28.042 48.191-54.138 72.728-80.813 6.431-6.993 13.878-13.072 21.038-19.366 8.002-7.04 17.222-7.303 26.896-4.24 5.756 1.827 8.187 10.104 3.625 13.573-9.178 6.999-17.21 14.965-24.233 24.149-10.773 14.093-16.589 29.756-17.664 47.486-1.278 21.092.502 41.944 3.583 62.761 1.111 7.536 2.592 15.036 3.338 22.602.848 8.635-.818 16.929-3.44 25.296-6.545 20.9-19.216 34.754-41.275 39.042-3.726.729-7.345 1.995-12.068 3.296-6.557-1.606-14.021-3.135-21.301-5.291-9.614-2.848-16.416-9.244-21.456-17.855-7.363-12.594-11.376-26.155-11.543-41.622-3.744.818-7.011.567-8.701 2.078-4.956 4.425-9.184 9.656-13.896 14.38-12.122 12.152-24.089 24.501-36.677 36.164-5.524 5.112-12.295 8.922-18.673 13.048-14.176 9.166-38.618 1.6-43.013-18.661-1.2-5.548-2.198-11.232-2.436-16.888-.394-9.465-.108-18.96-.108-28.341-2.789-.167-5.219-1.057-6.055-.257-7.584 7.232-15.502 14.266-22.137 22.322-9.811 11.913-21.48 21.76-33.333 31.273-11.955 9.59-26.024 15.813-40.702 20.327-5.625 1.732-11.22 1.164-16.75-1.158-17.007-7.16-28.001-18.846-31.655-37.615-1.845-9.471-3.792-18.763-2.478-28.305 3.511-25.505 6.39-51.152 11.28-76.4 11.615-60.014 29.446-118.464 46.351-177.116 9.262-32.157 23.104-62.618 37-92.941 9.513-20.763 20.715-40.762 30.849-60.504 2.52-1.105 4.198-2.341 5.99-2.532 6.891-.734 12.2 3.941 10.576 9.471-1.863 6.36-3.78 12.827-6.754 18.709-15.532 30.688-28.395 62.474-41.198 94.363-12.851 32.008-21.283 65.245-30.3 98.34-8.026 29.416-15.419 59.017-22.555 88.66-6.706 27.816-12.666 55.816-15.317 84.378-1.326 14.218-2.807 28.49-.328 42.721.806 4.634 2.401 9.172 4.013 13.621 1.427 3.941 7.817 6.891 11.925 5.804 12.14-3.231 23.217-8.772 32.987-16.565 24.74-19.736 46.339-42.273 64.594-68.374 20.888-29.846 39.102-60.808 51.206-95.318 3.768-10.731 9.465-20.823 14.696-30.986 11.376-22.101 20.476-45.115 28.329-68.661 4.837-14.475 10.11-28.801 14.69-43.359 13.203-41.98 32.234-81.53 50.364-121.462 1.965-4.329 4.252-8.545 6.682-12.63 6.126-10.298 15.836-9.85 25.558 1.866zm-26.209 392.284c-1.72 11.591-3.452 20.972-.269 30.33 3.23 9.477 8.115 17.849 18.38 20.178 11.346 2.58 20.703-2.831 27.547-11.388 4.061-5.07 7.136-11.364 9.047-17.598 2.49-8.139 3.368-16.631 2.174-25.415-3.338-24.525-6.073-49.14-9.047-73.701-.884-.245-1.726-.615-2.592-.675-.884-.072-2.108-.179-2.645.311-22.692 20.459-40.183 45.372-60.116 68.721 5.804 3.05 10.743 5.66 17.521 9.237z" fill="#fff"/></svg>