<svg xmlns="http://www.w3.org/2000/svg" viewBox="-0.006 236.222 1920.006 607.567" enable-background="new -0.006 236.222 1920.006 607.567"><g fill="#fff"><path d="M1581.159 475.364c6.748-1.569 10.157-6.282 13.546-10.806 8.838-11.813 19.042-22.354 29.265-32.961 8.077-8.383 17.447-14.742 27.026-20.969 6.272-4.079 13.281-6.114 20.826-6.42 7.709-.312 14.574 3.808 17.411 10.975 2.157 5.434 2.924 11.123 1.61 16.828-1.283 5.562-2.786 11.118-4.749 16.475-6.743 18.382-12.887 37.004-22.114 54.405-3.435 6.472-6.415 13.28-8.711 20.227-3.328 10.101-5.418 20.478-1.574 31.489 2.658 0 5.557.91 7.116-.158 6.022-4.11 12.58-8.031 17.171-13.511 14.707-17.513 28.846-35.522 42.704-53.715 3.9-5.117 6.272-11.445 9.033-17.36 13.833-29.664 23.729-60.836 34.985-91.486.521-1.416.072-3.195.072-5.669-1.528-.68-3.589-2.454-5.51-2.316-14.661 1.053-29.286 2.576-43.936 3.742-4.856.383-9.804.516-14.62-.015-2.111-.23-4.309-2.121-5.94-3.773-2.76-2.796-1.181-9.385 2.346-10.357 3.118-.859 6.292-1.702 9.498-2.009 17.089-1.626 34.203-3.001 51.292-4.636 4.826-.46 9.595-1.513 13.557-2.157 5.986-5.286 7.433-11.808 9.278-17.953 9.401-31.346 22.594-61.28 34.101-91.839.542-1.442 1.881-2.576 2.893-3.911 6.446-3.042 10.817-.296 14.196 5.168.082 1.574.644 3.282.164 4.611-6.073 16.895-11.675 33.937-19.139 50.351-7.059 15.53-11.43 32.071-15.433 49.61 4.171.782 7.295 1.968 10.351 1.825 9.779-.46 19.542-1.309 29.291-2.208 5.117-.47 9.794.639 13.991 3.379 1.181.772 1.794 2.597 2.392 4.054.695 1.687-1.569 5.362-3.517 5.613-12.135 1.58-24.286 3.082-36.432 4.58-7.208.889-14.742-.818-22.257 2.842-1.375 2.449-3.343 5.122-4.478 8.107-6.083 16.026-11.967 32.128-17.907 48.204-7.075 19.139-13.572 38.471-22.691 56.838-8.399 16.905-14.64 34.633-15.53 53.781-.113 2.382.368 4.81.746 7.192.112.746.782 1.411 1.196 2.121 1.528.179 3.374 1.007 4.519.435 6.543-3.302 13.301-6.38 19.282-10.541 22.967-15.99 42.811-35.282 59.829-57.554 19.839-25.963 39.683-51.936 60.105-77.439 9.094-11.364 19.614-21.587 29.26-32.077 10.674 3.256 10.674 3.256 14.328 12.202-3.415 6.86-6.967 14.18-10.678 21.424-8.026 15.678-11.108 32.388-10.06 49.83.69 11.404 2.132 22.768 3.154 34.152 1.242 13.909 1.304 27.604-3.404 41.181-2.735 7.882-6.477 15.034-11.287 21.608-11.66 15.934-34.086 22.313-52.708 15.177-4.55-1.748-8.935-4.043-13.143-6.518-10.408-6.124-13.761-15.622-12.212-27.185.598-4.452 3.307-7.279 7.494-8.777 5.868 3.128 5.868 3.128 15.514 23.402 8.072 5.03 17.033 4.493 25.769 2.009 3.701-1.053 7.305-3.87 9.989-6.773 7.949-8.613 12.785-18.949 14.344-30.589.757-5.649 1.263-11.43.961-17.104-.93-17.125-2.244-34.224-3.578-51.323-.179-2.316-1.314-4.555-1.983-6.753-6.216.394-8.307 5.311-10.97 9.109-15.985 22.783-33.937 43.951-52.038 65.053-13.434 15.652-29.199 28.57-45.301 41.124-5.735 4.473-12.488 7.734-19.062 10.975-3.589 1.769-7.703 2.745-11.691 3.379-12.539 1.999-21.643-3.706-26.423-16.215-.864-2.259-1.513-4.601-2.617-8.005-2.96 2.152-5.73 3.66-7.852 5.807-4.595 4.636-8.578 9.907-13.332 14.369-6.563 6.155-13.751 11.394-22.379 14.722-6.661 2.571-12.524 2.019-18.883-.665-7.509-3.164-11.997-8.787-13.352-16.327-2.04-11.328-2.489-22.891 1.651-33.907 4.299-11.44 8.849-22.829 13.996-33.912 8.966-19.307 16.848-38.952 21.193-59.849.215-1.022-1.472-2.592-2.535-3.65-.45-.445-1.656-.486-2.362-.245-1.513.516-2.965 1.263-4.376 2.035-13.142 7.172-23.412 17.917-33.119 28.825-18.985 21.357-37.577 43.133-55.116 65.677-11.011 14.155-19.568 30.139-23.749 48.005-.532 2.249-2.045 4.273-3.323 6.84-2.5 0-5.066.578-7.218-.112-5.725-1.84-8.296-5.541-7.877-10.811.373-4.749 1.089-9.472 1.794-15.397-3.047 1.273-5.352 1.672-6.885 2.98-7.453 6.344-14.523 13.148-22.078 19.364-5.695 4.688-12.299 7.806-19.461 10.045-13.884 4.325-25.881.951-36.432-8.21-7.54-6.543-13.107-14.845-15.52-24.506-2.96-11.844-5.695-23.862-1.661-36.227 1.191-3.655.864-7.801 1.176-11.185-6.548-5.102-11.604.424-17.002.235-6.512-.225-13.081.567-19.573.174-5.608-.337-11.149-1.718-17.109-2.704-2.438 2.336-5.045 4.33-7.024 6.819-16.245 20.478-32.077 41.293-48.659 61.495-8.787 10.704-18.454 20.759-28.411 30.4-6.098 5.914-13.95 8.526-22.625 5.142-10.075-3.931-15.729-11.486-17.007-22.052-.583-4.82-.067-9.779-.061-14.676.01-3.9.005-7.801.005-11.573-5.792-.951-8.767 2.234-11.353 5.173-10.316 11.727-22.344 21.51-34.311 31.417-18.469 15.289-38.957 26.658-61.786 34.137-11.307 3.701-22.201 5.025-33.467.526-2.254-.905-4.8-1.063-7.126-1.81-24.46-7.867-38.405-27.64-38.047-53.587.194-14.282 4.989-27.379 11.082-39.841 6.477-13.24 15.08-25.263 25.401-35.905 9.81-10.121 20.989-18.132 34.893-21.741 3.067-.797 6.042-1.948 10.019-3.251-3.911-8.041-7.739-15.177-10.868-22.604-2.837-6.732-5.025-13.751-7.289-20.713-3.118-9.615-2.295-19.144-.302-29.009 7.177-35.466 23.811-65.733 48.455-91.936 9.048-9.615 19.476-17.482 30.431-24.598 14.216-9.232 30.062-12.202 46.891-10.796 25.559 2.132 35.696 22.149 36.805 38.947.102 1.631.204 3.292.021 4.902-2.413 21.142-5.342 42.249-14.558 61.699-7.698 16.24-16.225 32.087-24.491 48.051-1.114 2.147-2.505 4.401-4.365 5.827-1.764 1.35-4.621 2.679-6.41 2.126-1.554-.48-2.955-3.532-3.195-5.597-.266-2.28.491-4.892 1.457-7.065 5.296-11.931 10.633-23.847 16.261-35.624 8.879-18.587 15.392-37.822 16.997-58.489.378-4.882.685-9.799.501-14.686-.665-17.293-8.092-25.59-24.915-27.701-3.134-.394-6.528.046-9.62.828-8.787 2.213-16.808 6.047-24.235 11.394-12.059 8.685-22.502 19.077-31.622 30.62-18.515 23.458-30.85 49.896-36.514 79.397-2.587 13.485.501 25.891 5.705 38.124 5.209 12.238 13.332 22.379 22.287 32.02 3.854 4.141 7.218 8.741 10.719 13.204.435.552.353 1.513.526 2.351-2.607 7.351-8.905 6.804-14.241 5.306-6.983-1.958-13.526-5.495-19.215-7.913-14.195.869-24.685 6.829-33.431 15.913-17.298 17.978-30.195 38.41-35.22 63.335-4.222 20.928 7.376 41.554 31.024 43.778 12.524 1.176 24.388-.496 35.956-5.337 15.243-6.38 29.127-15.279 41.354-26.014 23.949-21.015 46.395-43.655 67.752-67.363 5.633-6.252 9.702-12.964 11.798-21.076 3.471-13.444 7.141-26.837 10.852-40.215 1.528-5.521 3.404-10.883 7.673-15.111 2.331-2.305 6.257-3.461 8.813-1.38 1.713 1.39 3.951 4.013 3.665 5.679-1.968 11.22-4.033 22.471-7.024 33.452-6.645 24.404-13.843 48.664-20.841 72.971-3.205 11.128-4.248 22.441-2.822 33.917.153 1.232 1.559 2.888 2.719 3.251 1.314.409 3.348.031 4.488-.797 10.725-7.79 18.346-18.551 26.607-28.626 12.432-15.162 24.409-30.686 36.483-46.134 3.011-3.854 5.807-7.903 8.373-12.064 2.106-3.42 3.737-7.136 5.664-10.903-3.215-6.18-6.702-11.732-9.104-17.718-9.206-22.886-4.253-43.241 11.987-61.173 6.421-7.08 16.475-7.801 24.45-2.295 7.908 5.465 12.718 12.723 12.417 22.579-.312 9.81-1.201 19.522-4.928 28.841-3.026 7.571-5.362 15.417-7.76 22.436 1.032 5.48 4.212 7.479 8.588 8.179 8.419 1.355 16.46-.286 23.673-4.396 10.622-6.068 21.112-12.463 31.11-19.491 3.788-2.663 6.303-7.33 8.966-11.374 7.223-10.98 15.018-21.429 25.789-29.245 2.638-1.917 5.306-3.941 8.261-5.25 17.891-7.923 34.055-.849 40.363 18.811.705 2.188.619 4.969-.031 7.203-6.978 23.979-20.805 42.479-44.105 52.667-11.174 4.887-22.809 8.736-35.747 13.628-9.017 15.156-7.555 31.432.987 47.586 4.647 8.782 14.134 12.008 23.039 8.123 9.825-4.284 18.612-10.244 26.305-17.712 15.274-14.829 29.654-30.502 42.351-47.586 3.813-5.137 6.778-11.195 8.859-17.268 6.88-20.084 13.163-40.373 19.706-60.57 1.258-3.875 2.612-7.729 4.054-11.537 1.252-3.312 4.734-5.429 7.56-4.8 4.013.895 8.312 4.902 8.332 7.98.021 2.433.205 4.979-.424 7.269-2.592 9.416-5.459 18.755-8.23 28.12-2.075 7.018-4.371 13.986-6.088 21.086-.442 1.787.928 4.041 1.47 6.127zm-112.327 6.154c1.661 0 3.399.45 4.779-.066 15.969-5.986 27.675-17.038 36.069-31.576 2.382-4.125 3.466-9.073 4.677-13.761.317-1.211-.741-3.507-1.856-4.202-1.856-1.165-4.493-2.357-6.4-1.891-3.057.741-6.226 2.331-8.583 4.427-13.592 12.059-24.189 26.346-30.645 43.455-.336.869 1.32 2.495 1.959 3.614zm-97.748-21.612c7.341-10.878 9.032-23.32 9.237-36.1.015-.992-2.055-2.127-3.307-2.97-.45-.307-1.656-.235-1.994.138-9.804 10.827-14.17 22.983-8.516 37.28.327.849 2.545.962 4.58 1.652zM725.918 615.151c-8.118 6.165-14.42 11.22-20.999 15.888-13.393 9.503-27.103 10.198-41.206 1.252-4.279-2.714-7.801-5.925-10.086-10.397-1.789-3.502-3.343-7.121-4.744-10.121-6.19-1.314-8.358 2.847-11.088 5.511-10.541 10.295-21.173 20.36-33.85 28.166-6.027 3.716-12.013 4.616-18.679 3.803-8.077-.981-13.628-5.521-16.675-12.733-4.575-10.822-5.858-22.165-2.735-33.61 3.655-13.398 7.944-26.546 14.185-39.085 6.906-13.863 12.928-28.171 19.159-42.362.884-2.009.736-4.463 1.053-6.666-1.994-.501-3.951-1.636-4.739-1.089-14.144 9.902-26.5 21.838-37.981 34.633-15.274 17.022-29.613 34.868-46.017 50.893-5.884 5.746-9.932 12.79-11.992 21.035-1.958 7.821-3.451 15.944-7.918 22.277-5.449 3.139-10.034 1.881-14.804-.567l-4.243-8.562c-1.559.082-3.496-.404-4.601.342-4.723 3.185-9.273 6.651-13.766 10.167-6.707 5.25-14.645 7.545-22.773 8.158-11.292.849-20.989-2.832-26.73-13.526-1.912-3.568-3.553-7.289-5.224-10.745-5.01.026-7.898 2.975-10.571 6.073-11.875 13.735-28.263 19.103-44.856 23.586-13.49 3.64-26.5-7.003-26.995-20.964-.296-8.291 1.385-16.184 4.125-24 9.217-26.275 20.856-51.435 34.132-75.88 2.239-4.13 5.955-7.795 4.764-13.93-2.812-.777-5.868-1.805-9.002-2.464-5.541-1.155-11.123-2.091-17.007-3.18-9.457 8.542-17.217 17.973-25.217 27.128-9.186 10.515-19.18 20.12-30.247 28.595-6.461 4.948-12.943 9.932-20.989 11.266-3.721-1.048-6.354-3.042-7.08-6.466-.731-3.425.951-6.288 3.578-8.521 1.242-1.053 2.495-2.121 3.839-3.042 20.493-14.001 36.902-32.179 52.427-51.256.981-1.211 1.385-2.893 2.06-4.36.757-4.831-2.817-7.243-5.608-10.121-6.727-6.947-8.557-15.371-8.005-24.813 1.079-18.413 8.869-32.848 24.322-43.021 2.034-1.339 4.171-2.612 6.42-3.532 19.583-8.041 35.026 10.06 33.017 23.985-.808 5.592-2.075 11.272-4.166 16.496-3.931 9.835-8.613 19.364-13.04 29.158 4.427 5.787 10.868 6.538 17.329 6.242 6.497-.302 12.933-1.81 19.435-2.219 6.41-.399 11.783 8.9 8.112 14.231-14.431 20.979-25.82 43.604-35.895 66.852-6.16 14.201-10.97 29.01-15.959 43.691-1.283 3.767-1.35 8.153 3.021 11.686 9.59-.153 18.53-4.187 25.856-10.909 9.62-8.833 18.97-18.07 27.481-27.956 6.349-7.376 10.479-16.087 12.974-25.999 6.4-25.39 16.93-49.39 27.374-73.354 1.615-3.727 3.599-7.315 5.649-10.827 2.009-3.445 6.855-3.885 10.786-.762 1.835 1.452 3.016 3.732 4.912 6.19-1.104 3.691-1.994 7.637-3.456 11.369-5.971 15.213-12.498 30.216-18.08 45.567-4.744 13.035-9.365 26.239-12.335 39.744-2.249 10.244-2.413 21.076-2.413 31.647.01 10.172 4.994 14.287 16.526 8.869 8.987-4.217 16.46-10.638 22.993-18.065 5.94-6.753 11.558-13.792 17.498-20.544 9.866-11.2 16.552-23.775 21.066-38.221 6.809-21.787 13.194-43.829 23.059-64.562 1.733-3.645 3.716-7.315 6.313-10.336 1.258-1.462 4.483-2.387 6.344-1.861 1.932.542 4.406 2.955 4.682 4.841.567 3.905.654 8.256-.501 11.982-5.321 17.135-11.154 34.106-16.767 51.149-.997 3.047-2.484 6.155.194 9.196 6.395-.93 9.15-6.405 12.524-10.689 13.756-17.477 30.369-31.959 47.397-46.027 3.134-2.592 6.574-4.82 9.948-7.116 10.132-6.896 19.788-6.594 29.792 3.062 2.975 9.396 2.699 19.865-1.217 30.006-4.115 10.648-8.935 21.03-13.577 31.468-4.641 10.438-9.917 20.616-14.037 31.248-3.236 8.337-5.546 17.104-7.417 25.866-.803 3.752.378 8 .971 11.982.445 2.99 5.137 4.958 7.852 3.353 4.197-2.489 8.828-4.596 12.314-7.882 10.111-9.508 19.941-19.338 29.51-29.393 10.76-11.302 19.077-24.138 25.983-38.328 8.189-16.843 18.551-32.644 28.161-48.787 5.991-10.07 14.686-17.523 24.629-23.443 4.161-2.479 8.787-4.238 13.301-6.073 6.507-2.643 12.948-1.723 18.929 1.513 5.004 2.699 9.702 5.955 14.19 8.757 4.534-.317 5.188-3.819 6.466-6.569 1.723-3.696 2.934-7.632 4.764-11.266 3.215-6.385 9.994-6.206 15.586.317.496.578.567 1.518 1.37 3.772-2.745 9.702-5.771 20.677-8.956 31.606-3.205 10.975-6.886 21.833-9.764 32.889-3.082 11.834-5.393 23.867-8.199 35.772-2.628 11.128-5.705 22.155-8.133 33.329-2.346 10.796-9.211 20.754-7.136 33.513 26.617-9.534 45.531-27.016 61.878-47.826 1.007-1.278 1.595-2.888 2.663-4.11 11.701-13.388 17.232-28.437 18.162-46.701 1.268-24.767 9.978-47.836 24.828-68.191 7.305-10.014 16.005-18.551 26.372-25.36 13.546-8.905 27.558-9.344 41.748-1.779 2.806 1.498 5.327 3.813 7.479 6.206 8.368 9.288 9.896 33.804.874 43.747-4.381 4.831-8.573 10.096-13.792 13.853-16.7 12.018-34.213 22.502-55.806 22.85-2.392.041-4.764.859-7.489 1.385-1.242 1.937-3.333 3.798-3.66 5.935-2.239 14.574-3.123 29.265-1.309 43.941 1.958 15.785 12.069 20.616 26.229 13.086 9.544-5.081 17.401-12.258 24.567-20.089 7.703-8.424 14.65-17.539 21.971-26.316 2.137-2.566 5.94-3.231 8.884-1.718 5.142 2.643 8.261 7.969 6.829 11.675-.588 1.523-.982 3.174-1.845 4.519-12.13 18.811-27.415 34.535-46.906 45.638-19.481 11.098-36.749 7.934-52.728-8.654-1.125-1.171-2.382-2.219-3.609-3.353-3.793-.511-5.628 2.265-7.412 4.769-14.042 19.691-32.261 34.443-53.28 46.144-12.82 7.136-25.232 15.003-38.374 22.88-3.108 9.288-6.155 18.551-9.309 27.772-4.764 13.904-9.135 27.972-14.558 41.615-4.514 11.374-10.193 22.282-17.59 32.199-11.711 15.714-22.942 31.806-35.062 47.192-4.994 6.339-11.394 11.747-17.81 16.741-9.845 7.673-20.897 8.573-32.348 3.481-9.682-4.304-15.714-11.793-17.252-22.119-1.196-8.066-.889-16.312 1.523-24.307 7.652-25.401 18.648-48.542 39.269-66.561 22.768-19.905 44.912-40.48 70.354-57.063 3.415-2.224 6.717-4.698 9.753-7.412 2.403-2.147 5.071-4.519 6.282-7.356 2.858-6.742 4.82-13.858 7.315-20.764 1.904-5.377 3.759-10.703 2.262-19.869zm30.205-101.03c-2.607-5.142-4.222-8.859-6.287-12.319-6.64-11.118-16.465-12.953-26.178-4.049-7.131 6.538-13.746 13.843-19.553 21.582-12.749 16.992-21.623 36.212-29.587 55.78-4.672 11.481-4.667 23.79-3.936 35.972.424 7.105 7.105 10.883 14.236 8.746 8.849-2.658 15.872-8.153 22.006-14.671 7.218-7.678 14.063-15.729 20.764-23.867 10.898-13.245 20.197-27.22 22.451-44.979.906-7.15 3.784-14.051 6.084-22.195zm-56.782 183.489c-3.527 1.779-6.732 2.735-9.114 4.698-15.131 12.452-30.441 24.716-44.984 37.822-16.046 14.466-27.456 32.235-34.29 52.882-2.607 7.882-3.967 15.78-2.975 24.061.44 3.675 5.071 7.53 8.849 6.62 3.9-.941 8.194-1.774 11.328-4.023 5.26-3.773 10.392-8.107 14.426-13.132 13.27-16.557 26.689-33.058 37.608-51.323 9.273-15.509 16.276-32.025 20.232-49.697.479-2.122-.579-4.591-1.08-7.908zm161.477-182.221c18.362-3.916 34.111-11.711 47.54-23.841 7.908-7.141 9.912-16.419 6.732-26.719-1.426-4.636-6.548-8.148-11.307-7.111-3.103.68-6.303 1.59-9.043 3.139-18.724 10.597-29.168 27.68-36.054 47.289-.592 1.702 1.192 4.243 2.132 7.243zm-533.478-25.175c6.681-10.443 13.178-21.362 16.25-34.06.368-1.528.435-3.246.143-4.78-.286-1.493-.859-3.318-1.948-4.161-.987-.762-3.205-1.033-4.263-.429-13.28 7.514-18.612 19.481-18.208 34.229.102 4.038 2.014 7.575 8.026 9.201zM282.386 281.718c5.362-4.146 10.438-8.21 15.673-12.074 4.309-3.18 8.966-3.522 14.201-.685.557 2.781 1.186 5.873 1.84 9.099 3.481 3.404 7.78 2.28 11.394.895 16.762-6.426 33.942-12.181 47.248-25.155 1.14-1.109 2.673-1.881 4.146-2.566 2.95-1.375 5.971-2.76 9.201-.685 2.97 1.917 3.629 7.376 1.61 11.036-7.417 13.418-18.316 22.916-32.465 28.585-13.705 5.49-27.711 9.907-42.602 10.873-7.295.475-14.574 1.273-21.909 1.927-8.552 11.64-15.652 23.448-21.879 35.88-15.765 31.504-28.064 64.271-37.168 98.285-3.164 11.839-6.891 23.53-9.994 35.384-1.615 6.19-2.438 12.595-3.727 19.491 3.246.705 5.623 1.932 7.698 1.549 12.851-2.382 25.6-5.326 38.466-7.601 2.965-.521 6.42.363 9.365 1.401 3.261 1.15 5.004 4.038 5.086 7.606.066 2.776-2.888 5.679-6.339 6.328-19.256 3.634-38.512 7.238-57.758 10.898-.762.143-1.431.772-3.614 2.014-1.293 3.21-3.573 7.514-4.78 12.1-7.739 29.418-20.294 56.854-33.697 84.002-15.08 30.528-36.12 56.337-61.654 78.538-14.201 12.355-31.657 16.317-50.019 16.91-3.236.107-6.502-.849-9.753-.9-28.33-.44-49.406-27.967-50.888-53.705-1.268-21.94 13.996-47.622 34.213-54.676 13.71-4.785 27.318-4.018 39.55 5.03 2.673 1.978 3.926 6.497 1.922 8.619-1.559 1.651-3.926 2.592-6.037 3.634-.608.302-1.59-.092-2.382-.24-.797-.153-1.615-.302-2.357-.624-7.785-3.41-15.652-4.943-23.53-.419-8.716 5.004-15.545 11.655-19.277 21.357-3.001 7.801-4.304 15.647-3.65 23.979 1.298 16.608 12.892 29.362 29.342 30.845 20.35 1.835 38.855-2.617 54.206-17.222 22.722-21.623 41.462-46.078 55.059-74.474 10.254-21.418 19.364-43.261 26.459-65.917 1.176-3.767 1.416-7.831 2.009-11.302-6.671-6.231-14.957-3.164-21.556-6.216-2.096-.966-3.916-2.679-5.638-4.284-1.718-1.58-.808-5.7 1.247-6.047 3.972-.665 7.959-1.385 11.972-1.702 6.441-.501 13.137.731 18.97-3.082 8.624-15.811 11.522-26.034 12.319-43.415-1.426-.169-3.139-.925-4.248-.399-6.645 3.139-13.204 6.477-19.696 9.932-14.114 7.53-29.536 9.278-45.076 9.815-14.937.511-26.97-5.551-35.353-18.213-7.417-11.2-11.951-23.32-10.679-36.943 1.293-13.858 3.727-27.476 9.125-40.486 11.215-27.052 27.43-49.855 52.37-66.229 15.795-10.362 31.269-21.398 50.147-24.813 20.866-3.773 41.845-7.545 63.299-6.017 6.477.468 12.994.079 19.588.079zm-16.23 21.158c-3.793-.68-6.84-1.881-9.764-1.631-11.333.956-22.65 2.188-33.937 3.65-32.997 4.284-59.547 20.779-81.59 44.774-16.281 17.718-25.487 39.535-31.913 62.395-1.932 6.875-2.535 14.661-1.534 21.715 1.937 13.597 9.641 21.02 22.599 21.199 7.985.107 16.486-.705 23.887-3.435 11.374-4.202 22.379-9.774 32.838-15.949 10.449-6.165 20.038-13.792 30.809-21.347 3.036-8.445 6.098-17.687 9.692-26.725 3.89-9.815 8.158-19.476 12.463-29.112 3.977-8.905 9.007-17.421 12.125-26.602 3.381-9.952 12.889-16.837 14.325-28.932zM499.981 396.1c.005 6.461-6.252 12.095-12.8 11.527-3.803-.332-7.351-4.161-7.509-8.107-.24-6.088 4.074-11.006 9.953-11.358 5.224-.318 10.346 3.619 10.356 7.938z"/></g></svg>