<svg xmlns="http://www.w3.org/2000/svg" viewBox="-0.02 135.864 1920.025 808.28" enable-background="new -0.02 135.864 1920.025 808.28"><g fill="#fff"><path d="M1030.896 769.377c23.522-69.895 43.86-130.848 64.661-191.641 2.452-7.162 7.064-13.701 11.322-20.094 4.661-7.003 18.056-8.504 26.694-3.599 6.942 3.953 12.017 12.774 10.114 19.325-13.079 44.872-26.645 89.611-39.529 134.532-8.052 28.073-16.226 56.194-22.473 84.694-5.393 24.693-7.845 49.972-3.221 73.726 8.699 8.101 16.214 5.478 21.79.183 16.946-16.092 33.538-32.587 49.533-49.631 21.265-22.668 41.835-46.007 65.43-72.079 9.748-35.649 19.948-75.275 31.538-114.511 8.26-27.951 17.251-55.792 28.036-82.84 8.272-20.716 23.949-23.119 47.813-9.748 0 5.246 1.257 11.2-.183 16.409-21.155 76.984-42.847 153.821-64.015 230.792-8.918 32.404-10.517 65.161-3.209 96.833 10.431 8.467 19.63 5.588 28.17.573 31.172-18.361 53.913-45.751 71.298-76.166 29.939-52.4 59.903-104.934 82.705-161.177 15.36-37.882 33.05-74.812 49.923-112.071 4.331-9.577 15.055-14.738 23.668-12.261 15.909 4.563 26.267 17.178 21.985 29.207-7.82 21.96-16.056 43.896-25.974 64.966-13.25 28.17-25.596 56.56-35.649 85.609 4.905 2.708 8.833 6.515 10.748 5.685 63.575-27.463 116.756-69.932 166.484-117.098 32.538-30.867 64.222-62.636 96.821-93.454 20.13-19.045 31.269-16.629 51.583 10.09-10.236 32.672-36.601 59.22-40.968 94.857-3.099 25.084-5.563 50.253-7.698 75.434-.281 3.257 3.184 6.82 5.99 12.395 27.036.683 50.912-12.615 76.081-21.716 24.657-8.906 39.565-30.562 59.696-44.665 6.991 2.66 12.993 3.745 17.568 6.905 14.396 9.907 16.678 29.781 4.502 39.675-9.004 7.32-18.374 14.848-28.78 19.667-26.499 12.273-53.522 23.485-80.631 34.319-16.275 6.503-33.124 11.505-48.215 16.678-11.261 9.687-10.468 21.814-12.151 33.258-2.794 19.252-3.794 39.175-9.687 57.488-15.519 48.337-45.031 84.914-92.124 107.777-27.646 13.42-77.996 5.978-101.25-23.351-8.077-10.175-13.298-24.059-15.604-37.003-2.696-15.116-.61-31.062-.927-46.642-.72-34.649 16.3-59 44.006-77.569 27.951-18.715 59.696-28.378 91.099-38.748 10.919-3.587 22.985-3.562 32.184-8.784 10.26-34.6 10.26-34.6 4.965-81.546-3.575 0-8.04-1.354-10.651.268-6.539 4.087-12.456 9.297-18.252 14.457-61.916 55.145-129.981 99.408-211.491 120.05-3.697.939-7.052 3.172-11.407 5.185-16.336 13.75-23.376 34.295-33.953 52.827-25.523 44.726-60.049 81.205-105.752 106.093-6.82 3.709-14.055 6.857-21.399 9.382-20.936 7.21-44.763.244-57.048-18.227-7.43-11.188-12.981-23.864-17.861-36.454-3.44-8.882-4.307-18.752-6.283-27.951-5.417.403-10.212-.695-12.554 1.22-7.466 6.051-14.616 12.713-20.814 20.069-20.716 24.571-46.605 40.81-74.739 49.789-28.219-2.062-46.507-14.518-57.463-37.821-3.941-8.418-8.211-16.69-12.713-25.84-20.533 10.309-36.649 24.144-52.925 38.175-28.585 24.62-62.075 39.992-99.078 47.532-11.822 2.403-22.997.854-34.075-4.356-27.902-13.127-47.483-32.684-56.353-63.27-5.514-19.02-9.309-37.992-8.394-57.548 3.965-85.914 29.305-164.447 81.754-233.5 13.335-17.556 30.708-30.232 49.667-40.102 9.894-5.148 22.4-7.003 33.795-7.198 39.138-.683 64.844 35.698 51.9 72.164-14.226 40.09-37.272 72.616-77.301 90.916-24.754 11.31-49.191 23.315-76.288 36.198-10.907 31.745-19.142 65.357-18.093 100.786.281 9.699.964 19.557 3.062 28.976 7.894 35.503 35.966 42.701 62.636 28.854 45.312-23.522 83.913-56.67 119.465-93.161 10.847-11.175 20.693-23.339 28.489-32.196zm538.384 94.93c.646 2.513 2.269 10.004 4.526 17.288 4.355 13.982 18.081 20.655 32.123 16.165 18.74-6.003 34.453-15.799 47.3-31.367 22.729-27.573 37.601-57.939 39.59-94.039.561-10.26-8.101-20.033-16.934-18.374-24.754 4.66-48.789 11.785-70.347 25.01-7.954 4.868-16.946 11.419-20.521 19.398-8.563 19.155-17.543 38.761-15.737 65.919zm-705.637-193.801c46.153-18.557 66.504-45.287 79.607-78.679 1.025-2.635-.94-7.906-3.282-9.98-2.111-1.879-7.369-2.55-9.968-1.232-32.953 16.616-49.582 45.775-66.357 89.891zM650.529 221.122c-14.128-.622-19.594 8.089-26.023 14.726-51.863 53.681-93.673 114.536-128.127 180.6-50.46 96.772-100.896 193.557-151.612 290.183-20.826 39.7-42.103 79.167-63.722 118.44-15.153 27.536-33.709 52.729-59.196 71.603-46.117 34.148-96.65 49.265-153.906 33.514-33.148-9.114-53.669-30.928-63.112-63.002-11.712-39.773-.451-77.325 15.019-113.511 14.604-34.124 41.859-55.731 76.129-68.456 25.047-9.297 49.826-7.259 73.555 4.99 7.503 3.88 10.822 10.602 9.894 19.203-8.796 6.247-18.422 2.538-27.926 1.623-43.128-4.124-92.453 34.551-99.249 74.909-3.233 19.142-8.748 38.211-9.309 57.439-1.086 37.601 21.448 59.318 58.098 56.841 31.513-2.135 61.257-10.553 85.829-32.355 19.081-16.922 36.747-34.758 48.85-57.646 20.948-39.614 43.75-78.301 63.392-118.55 53.901-110.412 113.426-217.811 172.633-325.368 34.136-61.989 78.033-116.488 127.785-166.484 17.885-17.971 35.759-35.966 54.035-53.522 10.102-9.699 26.706-8.552 37.016 1.44 10.138 9.821 16.299 21.643 18.715 36.088-44.385 177.123-79.448 356.735-113.779 536.493-.647 3.367 1.879 7.345 2.952 11.114 9.65-.256 11.127-8.87 14.03-14.933 21.094-43.933 38.602-89.318 54.779-135.264 9.699-27.548 20.082-54.901 31.245-81.888 19.447-46.971 44.055-91.209 72.604-133.3 22.973-33.868 46.398-67.504 67.894-102.311 17.593-28.463 38.675-54.071 61.77-77.667 16.129-16.495 35.881-29.805 55.243-42.676 11.444-7.601 26.06-9.821 39.419-4.941 8.589 3.135 15.824 10.029 22.448 14.408-.415 11.31-4.575 19.093-12.627 19.777-36.357 3.05-59.806 25.913-81.742 51.302-10.187 11.785-20.484 23.681-29.085 36.625-34.478 51.961-68.382 104.312-102.397 156.602-34.283 52.693-58.366 110.29-77.996 169.559-25.804 77.898-58.805 152.759-92.148 227.486-15.092 33.819-31.574 66.918-40.883 103.031-2.684 10.37-11.078 15.372-21.704 16.446-10.273 1.037-22.021-5.124-22.839-13.701-2.208-23.107-5.014-46.324-4.734-69.468 1.122-90.196 20.387-177.806 39.553-265.404 19.167-87.549 37.625-175.269 56.548-262.866 7.04-32.295 14.482-64.516 22.681-101.129z"/></g></svg>