<svg xmlns="http://www.w3.org/2000/svg" viewBox="-0.01 415.521 1920.016 248.952" enable-background="new -0.01 415.521 1920.016 248.952"><g fill="#fff"><path d="M1644.729 576.995c7.272-5.542 13.868-11.003 20.924-15.787 4.118-2.784 13.39-.514 15.238 3.911 1.478 3.541 2.46 8.588 1.054 11.85-6.776 15.859-18.869 24.871-36.621 24.97-17.301.09-30.908-6.848-38.324-22.753-4.794-10.318-7.876-21.437-11.642-32.206-3.83-10.984-8.308-15.436-18.599-13.237-20.716 4.415-43.073-3.821-62.645 8.398-7.191 19.428-1.811 39.703-3.983 59.455-.46 4.136-1.072 8.867-3.397 12.021-2.217 3.028-6.632 5.875-10.282 6.146-8.66.631-18.04-6.551-19.554-13.706-.883-4.172-1.91-8.461-1.829-12.67.892-44.461 1.955-88.912 3.064-133.373.108-4.28.55-8.588 1.208-12.832 2.018-12.832 9.984-20.924 22.447-22.347 7.11-.829 14.31-1.108 21.473-1.18 25.808-.243 51.706-1.64 77.414.018 18.419 1.18 36.882 5.389 54.661 10.561 7.434 2.145 14.454 9.29 19.365 15.896 9.101 12.246 7.831 29.412-3.388 39.297-11.741 10.327-25.123 18.815-37.991 27.826-6.65 4.668-9.435 10.912-7.569 18.464 2.748 11.102 5.875 22.194 9.921 32.872 1.306 3.459 5.992 5.676 9.055 8.406zm-131.12-72.179c42.541 5.506 79.478-2.884 114.945-19.833 3.803-1.811 7.038-4.875 10.336-7.587 7.29-6.001 6.29-17.932-1.946-21.194-6.605-2.604-13.463-6.128-20.302-6.335-30.088-.937-60.203-.982-90.291-.829-3.821.018-7.623 3.082-12.471 5.172-2.19 15.544-4.236 30.908-.271 50.606zM508.27 535.283c14.165 6.533 27.033 4.731 39.793 3.911 15.76-1.018 31.503-2.46 47.29-3.082 5.569-.207 11.633.496 16.688 2.622 3.397 1.424 7.155 5.893 7.56 9.38.378 3.253-2.595 8.38-5.605 10.228-4.686 2.884-10.543 4.749-16.049 5.19-24.285 1.973-48.651 3.199-72.954 4.947-2.667.189-5.208 1.955-8.461 3.235-8.11 11.949.775 24.303-1.775 35.197 4.343 2.92 6.605 5.758 8.867 5.758 31.548 0 63.096-.532 94.634-.577 8.479-.018 17.031.721 25.42 1.937 2.055.297 4.037 3.604 5.344 5.947 2.703 4.803-.559 8.849-3.803 11.021-4.596 3.064-10.21 6.146-15.508 6.389-41.586 1.829-83.199 4.857-124.84 1.289-16.436-1.406-25.979-10.768-27.033-27.718-2.478-40.072-4.56-80.181-6.371-120.298-.387-8.515.757-17.157 1.757-25.691.865-7.353 7.551-13.445 14.31-13.832 2.866-.162 5.767-.297 8.615-.09 40.261 2.992 80.226-.946 120.262-4.524 8.245-.739 16.977.757 25.051 2.866 2.848.739 6.091 6.443 6.073 9.858-.018 3.325-3.379 8.786-6.281 9.588-10.948 2.974-22.23 5.262-33.53 6.335-29.971 2.829-60.023 4.875-90.039 7.335-5.686.46-11.264 5.857-11.12 10.984.407 14.176 1.137 28.359 1.705 41.795zM1224.335 521.73c.955-25.465 1.568-49.912 2.938-74.323.721-12.976 8.867-21.771 22.122-21.996 41.64-.703 83.28-.406 124.921-.261 2.604.018 5.19 2.091 7.795 3.199 4.803 2.073 8.66 9.858 6.109 14.292-1.955 3.397-5.208 6.848-8.714 8.344-3.677 1.586-8.344 1-12.571 1.162-30.142 1.18-60.284 2.235-90.417 3.523-6.939.297-13.643 6.794-14.238 13.76-.865 10.011-1.532 20.068-1.694 30.115-.189 12.372 5.082 17.391 18.815 17.743 20.113.496 40.271.126 60.365 1.072 5.172.243 10.93 3.235 14.94 6.686 2.415 2.064 2.766 7.497 2.496 11.318-.162 2.271-3.082 5.947-5.118 6.209-12.778 1.694-25.645 2.784-38.486 3.713-7.173.514-14.391.595-21.582.46-31.764-.595-33.233 7.497-27.826 36.855 1.144 6.227 5.281 10.21 11.561 10.966 28.682 3.433 57.383 4.208 85.921-1.198 8.858-1.676 17.04-.829 25.132 2.866 4.262 1.955 10.408 10.489 8.66 13.679-1.991 3.586-5.082 8.57-8.38 9.155-26.808 4.803-53.436 12.075-81.118 9.119-18.581-1.991-37.207-3.803-55.724-6.335-12.165-1.667-20.239-10.705-21.194-23.6-1.874-25.818-3.199-51.67-4.713-76.523zM1044.79 534.102c18.851 24.573 32.404 48.047 55.139 62.041 10.192-1.64 12.147-9.029 15.878-14.976 2.181-3.487 5.28-7.759 8.777-8.696 5.109-1.388 11.435-1.37 16.274.532 2.848 1.126 5.461 7.056 5.416 10.786-.46 33.035-32.224 52.327-60.455 35.621-13.291-7.867-24.348-19.779-35.558-30.746-7.128-6.966-12.381-15.823-19.058-23.321-3.731-4.19-8.389-7.74-13.165-10.714-1.847-1.144-5.614-.667-7.722.496-2.253 1.235-5.037 4.118-5.055 6.299-.054 8.534 1.09 17.076 1.424 25.609.333 8.552.532 17.139.189 25.682-.225 5.857-11.381 10.858-17.247 8.038-6.704-3.217-12.634-7.885-13.985-15.31-3.064-16.932-6.92-33.99-7.29-51.075-.784-35.819.216-71.683 1.045-107.538.243-10.822 10.669-16.968 21.807-13.219 3.604 1.216 8.47 4.659 9.074 7.795 1.856 9.732 2.226 19.797 2.649 29.764.559 12.814.387 25.664 1.171 38.459.099 1.532 4.695 4.451 6.308 3.929 5.371-1.694 11.12-3.749 15.292-7.317 21.771-18.653 43.208-37.693 64.528-56.869 6.38-5.758 11.48-12.976 18.121-18.356 5.704-4.632 12.859-5.47 20.329-2.902 7.353 2.532 12.327 10.804 8.732 16.544-3.785 6.019-7.795 11.985-12.39 17.409-22.395 26.322-48.59 48.588-80.228 72.035zM213.743 557.171c-2.748-29.34 5.452-66.258 8.227-103.555 1.009-13.697 9.777-22.347 21.924-22.528 44.56-.613 89.228-3.217 133.121 8.497 13.427 3.568 23.438 10.246 30.746 21.717 8.506 13.354 8.389 27.61-1.271 40.198-12.498 16.319-27.511 29.818-47.903 35.026-20.852 5.335-41.974 9.642-63.078 13.886-7.002 1.406-14.346 1.18-21.518 1.811-22.924 2.055-25.24 4.361-24.789 25.447.243 11.507 1.099 23.023 1.198 34.548.045 5.704-.55 11.507-1.676 17.112-1.235 6.091-5.596 10.948-11.669 10.471-5.181-.388-11.453-2.902-14.778-6.65-3.442-3.911-5.028-10.345-5.461-15.841-1.388-17.229-1.839-34.53-3.073-60.139zm43.839-97.464c-4.244 19.96-4.803 37.027-4.415 54.175.126 5.371 5.785 10.561 11.489 10.543 27.385-.09 54.103-4.632 80.136-13.057 12.616-4.082 22.42-12.246 30.466-22.726 5.299-6.884 2.866-18.211-4.983-21.996-2.568-1.253-5.064-3.028-7.795-3.523-33.702-6.183-67.457-11.968-104.898-3.416zM73.891 416.706c43.154-.144 69.115 25.276 69.926 62.023.054 2.604-1.388 5.668-3.1 7.722-1.658 1.991-4.433 3.839-6.902 4.1-2.496.261-6.686-.703-7.605-2.46-4.596-8.804-7.957-18.247-12.525-27.069-5.091-9.822-13.904-14.237-24.862-13.958-13.201.342-25.619 3.136-35.747 12.534-14.076 13.058-13.535 34.162 2.054 44.651 13.075 8.804 26.979 16.346 40.55 24.411 6.182 3.659 12.688 6.812 18.617 10.822 14.643 9.876 25.375 23.077 32.836 39.144 11.759 25.339 7.524 48.642-15.058 65.186-29.728 21.807-69.34 28.439-105.988 9.696-17.545-8.975-25.186-26.853-26.087-46.758-.351-7.975 8.227-16.193 16.788-16.508 6.848-.243 13.967 5.037 15.76 12.147.685 2.748.045 5.794.658 8.57 3.523 16.013 10.02 22.456 25.168 24.501 17.986 2.415 34.233-2.884 48.615-13.219 14.355-10.318 16.95-32.368 5.109-45.993-6.47-7.443-14.454-13.922-22.717-19.374-14.364-9.525-29.484-17.878-44.262-26.772-4.902-2.956-10.101-5.578-14.499-9.182-33.584-27.637-27.231-77.982 12.597-95.608 11.606-5.137 24.672-6.966 30.674-8.606zM766.87 570.741c-11.336 16.77-18.995 33.548-25.564 51.003-3.965 10.507-14.084 13.742-24.456 8.479-5.497-2.784-8.804-7.497-8.074-13.796.487-4.19 1.829-8.38 3.424-12.318 16.671-41.235 33.332-82.469 50.318-123.569 4.92-11.913 10.525-23.582 16.382-35.08 5.965-11.687 16.598-14.94 28.926-14.535 7.732.261 14.075 3.271 17.824 10.011 4.154 7.497 8.11 15.202 11.21 23.176 12.534 32.242 28.808 62.483 46.605 92.12 10.273 17.121 18.356 35.603 26.601 53.841 1.28 2.811-.928 8.47-3.289 11.354-3.776 4.614-9.624 6.037-15.571 4.01-8.75-2.992-14.463-9.453-17.509-17.806-4.938-13.553-10.011-26.862-22.537-37.928-27.214-1.638-55.572.462-84.29 1.038zm13.535-30.872c34.017 3.731 34.017 3.731 52.535-7.2-7.524-15.193-14.976-30.584-22.852-45.758-1.009-1.937-4.172-2.766-8.02-5.136-11.841 16.544-17.5 35.161-21.663 58.094zM1856.805 415.543c35.215-.937 64.006 27.511 62.528 62.429-.216 5.335-2.217 11.453-9.263 12.724-6.389 1.162-11.237-2.064-14.733-6.722-2.505-3.361-3.794-7.659-5.443-11.633-2.199-5.299-3.199-11.489-6.596-15.805-3.226-4.082-8.705-8.398-13.544-8.867-21.6-2.073-39.207 6.479-52.904 23.195-3.929 4.785-2.46 16.842 3.064 19.275 15.733 6.921 31.782 13.147 47.66 19.761 9.236 3.857 18.5 7.695 27.493 12.093 3.794 1.865 7.11 4.911 10.282 7.813 21.861 20.068 19.041 55.301-6.939 69.169-33.314 17.815-68.016 22.42-103.312 4.226-16.968-8.732-25.168-23.086-27.033-41.397-.613-6.055 2.442-10.984 8.254-13.778 5.271-2.568 12.579-1.307 15.481 3.469 3.685 6.073 6.551 12.616 10.038 18.833 5.398 9.606 14.156 14.066 24.744 15.103 17.743 1.721 34.125-3.469 49.651-11.228 9.227-4.614 10.228-18.04 3.235-26.15-5.875-6.83-13.165-10.399-21.573-13.363-14.877-5.226-29.367-11.633-43.83-17.95-12.228-5.335-21.068-14.958-29.106-25.204-8.479-10.804-8.02-30.115.459-40.289 16.663-19.979 46.778-35.046 71.387-35.704z"/></g></svg>