<svg xmlns="http://www.w3.org/2000/svg" viewBox="-0.003 282.257 1920.024 515.485" enable-background="new -0.003 282.257 1920.024 515.485"><g fill="#fff"><path d="M1160.899 659.586c-2.724 12.814-5.462 23.29-7.108 33.936-2.69 17.476-.861 34.546 6.492 50.863 2.812 6.248 9.135 9.019 16.128 6.383 19.34-7.271 37.324-16.704 54.042-29.206 23.622-17.659 43.186-39.364 63.793-60.045 8.403-8.443 16.277-17.415 24.456-26.082 9.65-10.219 18.547-20.77 25.798-33.096 11.052-18.777 25.953-34.593 44.439-46.608 4.52-2.941 9.229-5.624 14.054-8.037 20.682-10.341 41.126-12.95 61.089 1.972 1.457 1.084 3.883.861 5.875 1.254 7.169-3.205 6.146-10.91 9.053-16.467 2.263-4.317 8.511-5.99 14.23-3.829 5.74 2.155 10.564 7.61 9.541 11.791-2.541 10.483-5.028 21.027-8.491 31.219-8.023 23.575-16.65 46.94-24.944 70.427-5.787 16.372-10.788 32.953-10.198 50.586.102 3.117 1.084 6.424 2.528 9.189.793 1.525 3.395 2.941 5.177 2.927 3.151-.027 6.587-.59 9.385-1.965 16.724-8.22 31.219-19.516 43.464-33.509 9.256-10.585 17.991-21.63 27.282-32.872 7.135-41.736 24.802-80.341 37.48-120.545 2.006-6.356 9.08-9.277 15.87-7.102 4.459 1.423 8.03 4.466 8.071 9.053.054 6.39-.278 13.112-2.175 19.136-4.547 14.44-10.307 28.488-15.159 42.833-2.358 6.959-7.955 13.139-5.414 22.613 2.46-1.606 4.92-2.67 6.661-4.418 22.152-22.226 43.796-44.982 66.476-66.652 9.29-8.877 20.546-15.796 31.334-22.972 6.363-4.228 15.274-2.155 20.736 3.551 10.327 10.802 14.698 23.738 13.695 38.551-.278 4.1-3.544 8.138.386 13.031 2.487-1.179 5.814-1.83 7.745-3.829 9.019-9.365 17.307-19.435 26.502-28.603 11.479-11.438 22.823-23.141 38.347-29.545 13.404-5.523 25.242-2.487 34.58 9.013 11.832 14.583 15.098 30.948 10.239 48.756-2.561 9.365-6.065 18.54-9.914 27.471-8.132 18.899-17.036 37.46-25.1 56.379-5.516 12.929-10.991 25.994-14.922 39.452-3.11 10.68-1.769 21.454 7.339 29.179 9.988-.108 17.28-4.547 24.016-10.286 21.461-18.276 41.946-37.561 60.343-58.981 4.886-5.685 10.049-11.134 14.441-15.972 11.303-1.592 17.598 3.056 21.461 11.533-.61 2.426-.549 4.899-1.721 6.431-17.727 23.372-37.704 44.751-59.883 63.867-10.578 9.121-22.599 16.656-34.397 24.225-8.647 5.543-18.899 5.685-28.366 3.368-10.686-2.616-19.59-8.531-24.408-19.523-8.26-18.825-9.412-37.873-1.511-56.772 8.762-20.966 18.635-41.464 27.898-62.227 5.279-11.852 10.436-23.778 15.416-35.759 3.375-8.132 4.96-16.711 3.368-25.432-.495-2.704-2.548-6.255-4.811-7.21-2.528-1.064-7.02-.732-9.08.942-8.349 6.803-16.48 13.98-23.988 21.711-13.573 13.973-26.767 28.318-39.892 42.725-8.741 9.602-17.375 19.34-25.533 29.437-17.246 21.366-30.128 44.907-34.6 72.453-.691 4.242-2.202 8.369-3.585 12.475-4.147 12.347-10.388 13.715-26.163 4.804 0-5.584-1.511-12.387.244-18.208 9.975-33.143 20.058-66.273 31.476-98.935 5.36-15.321 10.781-30.541 14.393-46.357.413-1.802-.854-3.978-1.335-5.984-1.911-.142-4.628-1.179-5.604-.285-17.646 15.965-35.481 31.768-52.381 48.498-9.162 9.074-16.697 19.814-24.883 29.863-7.522 9.236-14.745 18.723-22.437 27.81-13.431 15.904-24.951 32.662-27.756 54.048-.407 3.104-2.331 6.024-3.652 8.985-2.772 6.207-10.273 9.202-16.229 5.672-5.401-3.205-10.124-7.542-15.87-11.94-3.26 1.626-7.237 3.307-10.903 5.509-5.557 3.348-10.971 6.959-16.331 10.632-28.481 19.55-54.502-1.037-63.196-22.335-1.206-2.961-1.125-6.417-2.128-9.48-.603-1.843-2.141-3.388-3.646-5.631-2.683 1.43-5.929 2.372-8.104 4.425-11.784 11.174-23.236 22.708-34.973 33.922-5.469 5.225-10.903 10.686-17.185 14.786-4.296 2.805-9.988 4.703-15.098 4.811-17.293.346-33.74-12.997-37.975-29.735-2.101-8.254-1.389-17.32-7.501-25.35-2.582 1.416-5.807 2.216-7.501 4.276-17.341 21.122-38.646 37.751-59.984 54.495-16.575 13.017-36.016 19.767-55.268 26.767-13.471 4.906-34.532-4.581-42.108-18.018-10.856-19.258-15.85-40.191-15.308-62.309.834-34.376 11.357-66.151 28.196-95.628 16.731-29.281 42.637-48.498 73.564-61.041 8.626-3.497 17.036-1.965 24.442 3.957 19.909 15.945 22.484 34.153 6.316 53.147-15.579 18.283-33.977 33.401-55.919 43.721-13.665 6.462-27.421 12.662-43.223 19.92zm184.235 57.85c2.399-.772 5.895-.955 8.037-2.744 20.6-17.253 40.895-34.898 57.755-55.986 5.387-6.736 11.079-12.834 17.517-18.655 11.154-10.097 19.584-22.579 25.777-36.586 4.242-9.609 4.222-18.486-.068-27.919-4.791-10.524-12.469-14.061-23.65-10.002-17.49 6.363-32.344 16.589-45.171 30.114-22.104 23.331-33.38 52.266-42.766 82.096-2.562 8.125-3.849 16.792-4.5 25.296-.291 3.883 2.311 8.044 3.829 11.981.326.839 1.675 1.28 3.24 2.405zm-165.519-97.39c15.369-1.681 24.869-8.796 33.936-15.958 10.944-8.66 21.637-17.822 29.152-29.952 1.558-2.521.522-7.806-1.924-8.518-1.931-.549-4.398-1.559-5.922-.854-14.82 6.925-27.803 16.568-38.849 28.549-6.493 7.034-13.838 13.783-16.393 26.733zM599.091 644.258c-12.787 17.015-18.947 36.315-22.003 56.86-1.823 12.197 1.186 23.697 5.984 34.675 2.765 6.349 8.586 10.022 15.457 10.198 5.279.142 10.917-.542 15.857-2.331 21.759-7.888 40.807-19.875 55.044-38.605 3.273-4.31 6.553-8.62 9.955-12.828 3.53-4.371 8.098-7.935 13.729-7.522 8.125.603 14.21 4.71 15.708 13.492-17.144 32.337-45.646 56.542-75.617 67.201-35.434 12.604-67.615-5.543-77.786-33.265-1.443-3.91-3.219-7.698-4.445-10.632-6.173-2.148-9.799.325-13.031 3.192-12.936 11.499-25.567 23.358-38.652 34.688-12.489 10.815-26.855 17.815-43.274 21.041-24.334 4.784-43.924-11.737-41.166-36.037 1.335-11.777 3.849-23.318 8.552-34.526 11.73-27.912 22.701-56.142 33.658-84.366 4.669-12.048 8.735-24.347 12.733-36.64 1.342-4.14 1.05-8.531-3.002-13.288-3.307.983-7.664 1.382-11.025 3.429-18.635 11.317-34.62 25.879-49.806 41.417-8.301 8.504-16.487 17.198-25.452 24.978-15.972 13.858-26.95 30.914-33.922 50.592-6.864 19.367-13.024 38.984-19.679 58.426-2.107 6.119-4.669 12.096-7.318 18.012-1.985 4.438-8.708 6.465-14.095 4.615-6.797-2.338-11.371-9.229-9.392-14.942 10.964-31.7 21.291-63.65 33.319-94.944 19.828-51.527 37.704-103.644 54.014-156.378 9.582-30.975 21.257-61.312 32.032-91.921 1.443-4.073 2.954-8.152 4.723-12.089 3.388-7.535 11.54-8.179 18.621-1.342 1.47 1.416 2.08 3.72 3.415 6.241-4.364 22.965-14.596 44.609-21.65 67.255-10.93 35.108-22.409 70.054-33.496 105.108-1.288 4.039-2.345 8.409 1.152 12.448 9.866-2.392 15.68-10.808 23.256-16.548 12.95-9.819 25.594-20.099 40.394-27.011 6.763-3.165 14.068-5.638 21.4-7.047 9.297-1.796 20.207 6.39 21.698 15.518 2.65 16.182 3.259 32.201-3.076 47.943-6.458 16.046-12.258 32.364-18.405 48.539-10.002 26.279-20.241 52.476-29.918 78.877-1.775 4.818-1.694 10.429-1.721 15.674-.007 1.26 2.833 3.137 4.662 3.625 1.891.501 4.527.291 6.173-.705 9.223-5.604 18.825-10.822 27.221-17.524 18.608-14.867 36.545-30.568 51.548-49.278 3.375-4.208 6.641-8.721 10.802-12.042 12.333-9.832 18.872-23.182 25.269-37.121 6.742-14.705 15.206-28.623 22.877-42.894 9.446-17.551 23.71-30.859 39.1-42.82 7.556-5.875 16.48-10.381 25.378-14.054 11.499-4.737 23.385-3.334 34.742 1.613 18.838 8.199 25.357 23.961 16.209 42.447-15.945 32.181-42.21 51.351-77.467 57.816-9.463 1.716-19.194 1.858-29.284 2.78zm79.826-79.019c-7.379-4.954-14.59-3.158-21.081.969-15.62 9.9-30.148 26.8-41.62 47.272.549.8.949 2.074 1.674 2.318 1.918.623 4.249 1.606 5.929 1.037 24.171-8.199 43.511-22.362 54.997-45.781.778-1.587.101-3.877.101-5.815zM1162.661 321.371c11.466-9.731 14.962-23.934 27.078-29.531 7.651-.061 13.37 2.033 16.385 10.524-1.85 6.065-4.025 13.119-6.248 20.37 11.201 7.942 21.549 1.484 31.578-.42 10.727-2.033 20.654-6.98 28.603-14.65 7.766-7.488 14.786-15.762 22.165-23.731 4.025-2.338 8.179-2.135 12.218.02 5.401 2.873 8.037 8.958 5.963 13.343-8.186 17.28-20.824 30.067-38.042 38.503-15.857 7.772-32.669 11.459-50.138 12.333-8.606.434-17.266.081-26.889.081-3.856 5.225-8.64 9.853-11.147 15.491-5.712 12.841-10.314 26.157-15.335 39.303-8.897 23.256-17.205 46.764-26.794 69.736-15.044 36.016-27.248 72.961-38.246 110.353-13.485 45.822-30.351 90.302-52.11 132.884-11.96 23.385-25.764 45.219-48.593 59.7-5.482 3.476-11.12 6.702-16.805 9.826-44.392 24.408-84.901-3.517-101.307-35.041-8.877-17.056-10.151-35.257-6.641-53.791 3.253-17.178 9.561-33.414 18.594-48.315 9.358-15.45 23.785-24.91 40.8-30.378 11.188-3.598 20.383 1.138 29.145 15.077-2.263 1.816-4.418 5.021-6.953 5.353-22.884 3.002-36.66 16.534-45.381 36.992-6.844 16.04-13.153 31.978-12.143 49.949 1.064 18.947 10.822 32.581 25.764 42.86 7.529 5.191 16.358 5.36 25.032 2.866 22.552-6.492 41.498-18.54 55.349-37.69 5.706-7.867 10.944-16.202 15.382-24.842 15.823-30.88 29.66-62.641 40.225-95.736 7.576-23.724 14.481-47.678 22.518-71.247 8.043-23.568 16.981-46.818 25.777-70.122 10.693-28.352 21.556-56.644 32.54-84.881 3.924-10.083 8.531-19.909 12.638-29.924 1.559-3.802 2.582-7.813 3.944-12.008-3.856-1.863-6.593-3.923-9.616-4.54-34.017-6.932-68.272-13.275-103.102-10.381-41.946 3.49-80.266 16.771-112.095 45.964-14.373 13.173-22.091 29.186-24.856 47.97-4.14 28.122 15.714 44.968 37.521 47.997 19.34 2.683 38.91 1.355 56.894-8.694 11.317-6.336 23.168-11.723 34.851-17.395 6.167-2.995 12.475-3.002 18.859-.346 3.903 1.62 9.026 7 7.928 9.331-1.301 2.744-2.968 6.065-5.414 7.4-15.206 8.301-30.534 16.433-46.154 23.914-5.712 2.731-12.258 4.195-18.581 5.096-8.552 1.22-17.286 1.138-25.899 1.965-24.117 2.331-44.155-5.875-62.817-21.034-17.774-14.447-24.564-32.77-23.351-54.326 1.193-21.115 8.938-39.493 24.734-54.861 40.468-39.384 89.441-55.6 144.723-54.902 35.806.454 71.294 4.764 106.335 12.34 3.131.669 6.39.737 11.114 1.245zM352.215 333.189c3.923 3.253 5.34 5.347 7.176 5.801 26.401 6.573 53.161 10.307 80.422 8.796 30.311-1.694 57.403-10.422 76.735-35.888 2.548-3.361 6.207-5.916 9.514-8.647 2.331-1.924 9.941-.84 11.764 2.277 1.43 2.419 2.453 6.329 1.498 8.701-5.875 14.468-15.762 25.56-29.335 33.584-31.266 18.479-65.304 22.199-100.419 18.283-19.326-2.148-38.368-6.654-57.613-9.636-5.136-.793-10.537.129-15.62.257-10.869 13.742-18.269 28.108-23.595 43.464-10.3 29.653-20.593 59.32-30.073 89.238-12.421 39.194-23.575 78.802-36.24 117.922-5.977 18.493-13.566 36.545-21.488 54.319-18.777 42.176-45.618 78.823-80.713 108.652-28.867 24.517-61.888 34.986-99.619 21.481-28.312-10.131-45.673-35.013-44.561-64.579.542-14.325 3.524-27.946 11.886-39.913 3.246-4.635 7.759-7.691 13.539-7.725 7.651-.041 15.511.014 18.723 9.216-5.618 10.307-12.252 20.214-16.643 31.036-6.776 16.683-2.683 32.235 9.927 44.717 9.602 9.487 21.488 14.379 35.515 11.574 17.259-3.449 33.76-9.29 46.933-21.034 13.702-12.225 27.397-24.923 38.652-39.323 22.05-28.23 40.082-58.907 52.7-92.87 11.716-31.503 21.589-63.528 31.537-95.567 13.166-42.379 26.15-84.826 40.096-126.935 4.046-12.218 11.154-23.412 16.812-35.095 4.113-8.498.224-14.285-9.86-14.705-3.246-.129-6.573-.623-9.744-.136-22.62 3.442-45.408 2.982-68.116 2.29-43.592-1.335-83.227 12.448-121.52 30.954-21.115 10.205-36.592 27.329-46.818 48.153-10.964 22.348-10.32 44.71 22.904 56.434 23.148 8.159 46.615 8.802 69.126-3.673 7.501-4.167 15.43-7.576 22.511-11.012 9.378 5.326 9.378 5.326 13.282 14.962-13.478 12.258-28.562 20.729-47.272 25.147-29.802 7.041-55.634-1.47-80.923-15.05-5.631-3.029-10.903-7.149-15.498-11.635-15.206-14.84-20.973-31.964-13.539-53.133 8.525-24.32 22.152-44.629 43.409-59.164 8.87-6.058 18.798-10.652 28.522-15.342 45.808-22.084 94.151-31.768 144.899-28.047 9.765.712 19.286.562 29.023.115 15.077-.705 30.256.732 45.395 1.199 4.276.135 8.552.02 13.858.02 6.749-8.125 13.546-16.453 20.519-24.632 2.934-3.442 6.878-4.974 11.466-5.042 4.371-.061 5.57.691 12.191 9.372-3.458 6.365-7.009 12.897-11.325 20.819z"/></g></svg>