<svg xmlns="http://www.w3.org/2000/svg" viewBox="0 0 1920 1080" enable-background="new 0 0 1920 1080"><g fill="#fff"><path d="M1043.147 583.748c17.471-6.109 33.231-12.785 49.632-17.129 36.409-9.64 73.448 15.717 78.498 53.762 1.059 7.96-.278 17.643-4.098 24.554-7.35 13.31-15.888 26.523-26.362 37.468-36.804 38.495-76.348 73.694-124.311 90.684-7.393 9.661-4.847 15.834-1.819 22.083 3.745 7.682 6.73 15.77 11.031 23.099 15.877 27.079 28.481 31.968 59.475 26.362 19.012-3.445 36.569-9.543 50.531-23.024 25.806-24.929 51.804-49.75 76.112-76.091 8.976-9.715 14.615-23.131 19.665-35.713 12.828-31.99 31.112-60.888 49.429-89.721 19.087-30.064 47.15-48.573 80.766-59.732 19.226-6.387 37.222-3.359 54.96 3.927 15.257 6.28 31.915 26.951 24.469 50.649-7.393 23.516-19.258 44.583-38.559 59.368-34.408 26.341-71.052 48.381-118.181 36.023-21.708 23.655-25.72 51.922-25.25 81.301.107 6.548 3.22 13.299 5.97 19.504 10.945 24.565 33.659 35.756 58.876 27.839 12.924-4.055 25.923-9.415 37.222-16.744 21.494-13.93 42.871-28.438 62.321-45.021 28.588-24.362 55.463-50.756 85.324-78.37 29.647-73.502 52.243-152.064 71.18-230.113-5.168-8.57-11.78-9.683-18.627-9.65-29.187.139-58.052-2.964-86.683-8.345-4.847-.909-9.469-3.263-14.069-5.232-5.649-2.429-6.847-12.849-2.782-17.418 6.066-6.837 13.695-10.645 22.414-10.72 13.641-.118 27.325.963 40.977 1.669 23.848 1.252 47.717 3.081 73.63-1.22 14.947-22.286 22.061-48.509 29.155-74.636 5.852-21.558 13.395-42.314 25.367-61.273 4.162-6.569 15.064-9.126 22.917-5.574 5.842 2.653 11.876 11.202 10.677 15.984-2.493 9.929-5.071 19.868-8.185 29.615-8.773 27.453-17.054 55.014-22.778 81.975 6.815 7.147 13.577 6.355 20.424 6.462 22.179.342 44.369.781 66.515 2.065 8.816.503 16.016 5.863 20.906 13.309 1.626 2.493 2.632 6.462 1.872 9.169-.802 2.846-3.648 6.13-6.398 7.2-4.633 1.808-9.961 3.028-14.871 2.718-32.781-2.044-64.654 5.21-96.879 8.891-3.156.353-6.056 2.846-9.094 4.344-7.5 5.542-8.923 14.112-11.394 22.275-23.377 76.872-47.696 153.476-69.95 230.68-10.827 37.564-21.73 75.62-18.937 114.618 6.74 9.961 14.925 9.265 23.174 5.499 21.943-10.003 42.646-22.211 58.801-40.378 27.25-30.663 54.511-61.369 80.456-93.145 29.198-35.756 56.876-72.742 85.324-109.119 20.242-25.859 45.481-46.466 71.865-65.445 10.891-7.832 24.03-12.849 36.697-17.76 8.42-3.263 16.755.235 23.976 5.521 5.382 3.937 7.265 13.898 3.456 18.284-2.215 2.557-3.927 5.767-6.59 7.682-48.049 34.536-60.545 84.725-60.609 139.75-.021 20.435 3.702 40.838 5.082 61.305 1.509 22.19 2.257 44.336-1.947 66.483-8.27 43.62-35.799 70.26-79.151 75.128-4.975.556-10.282-.064-15.214-1.134-35.627-7.703-63.038-25.592-75.62-61.69-1.658-4.782-4.076-9.34-6.569-13.759-.695-1.241-2.91-1.626-4.365-2.365-7.8-.417-11.812 5.264-16.573 9.886-25.966 25.282-54.714 46.391-89.24 58.652-32.364 11.501-65.114-2.15-74.54-40.934-3.531-14.551-2.996-30.107-4.269-44.732-9.105-1.862-14.39 2.504-19.675 6.858-19.761 16.295-39.115 33.124-59.422 48.723-12.154 9.329-25.282 17.685-38.837 24.854-44.989 23.773-104.818 14.294-138.038-30.096-5.884-7.853-6.954-19.761-19.879-23.645-3.381 1.808-8.302 3.424-11.897 6.558-9.019 7.864-17.578 16.273-26.062 24.725-24.201 24.126-54.147 34.461-87.432 37.864-33.456 3.413-60.856-6.056-79.493-35.157-7.361-11.459-13.93-23.452-20.189-35.553-5.414-10.453-9.886-21.387-15.449-33.605-5.499 4.601-11.223 7.018-12.657 10.988-8.688 24.073-16.562 48.434-24.319 72.817-2.589 8.121-3.745 16.68-6.056 24.886-3.413 12.068-12.347 18.702-21.986 16.936-12.71-2.322-22.436-14.016-20.146-25.324 3.723-18.37 8.195-36.59 12.197-54.907.674-3.124.588-6.43 1.059-12.068-4.825 1.477-9.576 1.68-12.603 4.066-17.45 13.737-34.365 28.138-51.687 42.047-20.264 16.273-43.62 27.197-67.906 35.478-52.671 17.964-94.643-5.36-109.45-59.636-1.337-4.9-2.653-9.811-4.205-14.647-1.273-3.98-9.672-5.521-13.192-2.236-13.705 12.785-26.983 26.063-41.009 38.495-11.469 10.175-23.345 20.028-35.841 28.898-16.177 11.469-34.943 13.213-54.094 10.966-21.387-2.504-38.12-19.033-39.886-40.528-1.83-22.297.128-44.604 6.976-65.938 21.462-66.836 47.161-131.993 78.841-194.721.76-1.509 1.466-3.606 2.76-4.205 4.301-2.001 9.49-5.563 13.181-4.494 3.787 1.081 9.297 7.457 8.73 10.538-3.381 18.349-6.879 36.911-12.967 54.49-16.22 46.861-34.215 93.102-50.52 139.931-5.563 16.006-8.495 32.963-11.929 49.632-1.006 4.836.31 10.185.749 15.278.481 5.681 9.811 12.047 15.364 10.143 6.366-2.193 13.534-3.755 18.531-7.821 17.204-14.016 34.183-28.416 50.21-43.759 23.441-22.425 46.284-45.481 68.805-68.837 15.428-16.006 28.78-33.413 38.987-53.687 10.699-21.28 24.158-41.255 37.414-61.134 17.043-25.549 41.972-38.634 71.619-45.749 22.425-5.392 51.868 7.971 57.838 37.232 4.215 20.649 1.755 40.881-6.665 60.203-7.543 17.257-16.316 33.755-31.155 45.321-8.688 1.487-14.187-2.728-16.926-9.212-1.808-4.29-2.375-10.314-.813-14.593 5.242-14.39 12.593-28.042 17.343-42.571 3.113-9.533 3.338-20.05 4.461-30.171.674-6.184-8.121-12.646-14.005-11.245-17.332 4.141-31.648 13.138-41.961 27.475-10.956 15.257-22.553 30.438-30.877 47.14-14.486 29.026-27.122 59.005-39.618 88.972-8.056 19.301-10.153 39.618-5.521 60.395 3.499 15.738 18.723 26.202 34.707 22.586 8.249-1.872 16.487-4.536 24.201-8.014 34.643-15.62 65.007-37.478 92.546-63.594 24.747-23.474 46.851-49.975 77.107-67.286 14.283-8.174 19.814-22.81 25.164-37.51 24.554-67.521 46.005-136.058 63.926-205.559 18.37-71.266 43.052-140.434 65.467-210.363 2.493-7.789 8.046-15 13.524-21.302 4.697-5.403 11.844-5.852 18.937-3.702 5.21 1.594 12.892 11.405 11.726 15.439-4.301 14.775-8.442 29.625-13.352 44.197-23.976 71.308-46.166 143.141-63.252 216.472-3.873 16.605-8.42 33.081-11.576 49.814-.694 3.726 3.105 8.348 4.945 12.852zm677.564 157.114c0 10.314-.417 22.05.118 33.723.535 11.812 1.519 23.645 3.253 35.317 1.295 8.741 6.837 15.289 13.919 20.574 27.956 20.831 65.36 6.965 69.971-27.603 3.359-25.153 3.242-50.884 3.103-76.337-.15-27.207-2.022-54.404-3.499-81.579-.139-2.611-2.75-5.082-4.237-7.66-24.993 20.702-42.122 42.132-82.628 103.565zm-708.826-86.822c-22.339 50.745-25.463 63.605-19.429 83.099 9.458-3.541 19.515-5.842 28.074-10.774 34.065-19.622 64.215-44.486 90.759-73.363 7.842-8.527 13.502-19.515 18.381-30.182 3.755-8.217 1.434-16.573-7.703-22.125-47.162-3.541-76.648 29.989-110.082 53.345zm290.091 16.894c5.703 7.2 12.443 7.457 19.183 5.713 20.285-5.232 37.061-17.3 52.863-30.085 11.994-9.715 19.782-23.409 23.666-38.677.738-2.942.578-8.046-1.198-9.297-3.755-2.653-9.565-5.756-13.256-4.59-39.693 12.582-67.617 37.767-81.258 76.936zM505.482 171.625c12.582-11.683 24.608-23.677 37.714-34.333 2.632-2.129 10.175-.492 14.026 1.808 3.702 2.225 5.767 7.425 8.046 11.598.61 1.102-.588 3.22-1.006 4.857-5.745 22.104-5.617 21.045 15.834 22.821 31.166 2.568 61.54-3.135 91.604-8.559 24.982-4.515 49.418-13.277 70.955-28.406 12.539-8.816 26.127-16.252 39.704-23.473 11.127-5.927 19.568-1.551 26.138 10.924-5.242 5.596-10.303 12.379-16.669 17.568-40.795 33.263-87.507 53.441-139.717 59.55-30.535 3.573-61.337 4.708-92.032 6.976-10.121.749-20.242 1.605-30.043 2.397-12.828 15.92-20.103 32.931-26.244 50.799-21.655 63.06-41.704 126.526-55.816 191.8-16.316 75.46-43.395 147.56-71.587 219.136-17.536 44.497-37.029 88.245-56.341 132.025-16.776 38.035-43.085 69.639-70.26 100.549-14.946 16.99-33.381 29.625-53.131 39.789-44.829 23.078-89.261 18.884-132.175-5.777-7.2-4.141-13.705-10.271-19.066-16.701-33.263-39.971-41.041-80.285-22.35-129.222 11.758-30.77 32.503-56.073 58.159-76.904 6.912-5.617 15.867-6.911 24.394-4.964 8.688 1.979 15.043 7.511 16.68 17.268-.802 7.393-6.088 11.715-12.079 15.16-13.673 7.842-23.934 19.269-33.295 31.573-19.504 25.656-27.09 54.8-24.896 86.779 1.541 22.286 13.031 40.014 30.578 50.991 20.574 12.86 44.55 17.3 69.083 10.292 26.919-7.682 49.943-21.922 69.393-41.951 28.898-29.754 52.168-63.562 68.751-101.447 21.259-48.53 40.827-97.788 61.433-146.597 35.392-83.826 55.881-172.178 78.509-259.813 12.849-49.771 31.348-97.457 49.162-145.463 2.942-7.949 6.783-15.578 1.455-26.352-19.633-6.141-41.351-9.961-63.488-11.426-20.467-1.359-41.009-1.712-61.498-2.932-18.723-1.113-37.51-2.044-56.084-4.397-27.432-3.488-53.891-2.268-81.226 4.13-33.744 7.896-65.371 20.275-95.83 35.702-44.882 22.746-75.631 57.56-85.838 107.289 4.686 20.553 18.017 34.365 30.909 47.749 6.772 7.029 16.829 12.657 26.373 14.979 43.448 10.635 87.154 17.921 131.372 2.675 7.778-2.675 16.69-2.375 25.121-2.696 6.163-.235 14.144 6.098 15.321 11.437 1.209 5.521-3.113 14.593-9.19 16.401-16.295 4.857-32.6 11.726-49.258 13.01-37.66 2.889-75.267-.428-111.836-10.752-36.109-10.207-63.701-31.733-83.527-63.766-12.657-20.435-15.16-41.512-7.061-63.798 14.54-40.025 40.806-70.87 76.037-94.076 24.447-16.091 51.868-25.977 79.397-35.349 47.707-16.23 96.28-22.329 146.394-13.384 13.395 2.397 27.229 3.68 40.816 3.317 44.657-1.177 88.791 2.311 132.624 10.956 8.122 1.602 16.842.233 25.561.233z"/></g><path fill="#fff" enable-background="new" d="M667.058 401.224c.118 11.202-11.822 20.927-24.522 19.964-8.292-.631-16.626-9.458-15.706-16.669 1.648-12.924 12.24-24.618 21.943-24.244 9.073.354 18.156 10.785 18.285 20.949z"/></svg>