<svg xmlns="http://www.w3.org/2000/svg" viewBox="41.005 1002.743 1397.55 1080" enable-background="new 41.005 1002.743 1397.55 1080"><path fill="#fff" d="M664.101 1384.238c-16.511 17.153-36.832 36.212-53.344 53.683.317 2.541.635 4.765 1.27 6.988 6.668 26.047 15.876 50.823 17.464 77.506 1.905 30.177-5.715 57.812-26.037 81-11.748 13.341-27.307 20.965-44.136 21.282-26.672.635-49.534-17.153-55.567-40.977-4.763-18.742-2.858-37.164 1.27-55.27 6.35-27.953 18.733-53.047 37.468-74.965 6.985-7.941 13.654-15.882 20.956-23.823l-12.066-43.518c-6.986 5.4-12.701 11.118-17.781 17.153-17.146 19.694-34.292 39.705-51.756 59.4-6.668 7.624-13.336 14.929-20.321 22.236 0 7.306 2.858 16.835 5.08 23.506 6.033 20.647 7.938 38.435 9.526 59.4.635 6.671.952 13.341.952 20.012.635 39.388-6.668 76.87-28.894 110.541-20.639 31.764-62.234 42.565-92.081 30.176-10.478-4.447-19.051-10.8-25.084-20.329-14.923-23.506-17.781-49.235-11.431-75.6 7.938-33.67 24.766-62.894 46.675-89.259 14.288-17.153 29.212-33.988 45.088-49.87 11.113-11.118 11.748-7.624 7.303-26.365-2.858-12.071-6.35-27.317-9.208-39.071-2.223 3.494-3.176 4.765-3.81 6.353-1.588 3.494-3.493 6.988-5.08 10.164-18.416 40.024-40.643 77.823-65.727 114.036-14.606 20.647-23.497 32.718-41.278 53.047l-30.482 33.67c-20.004 19.059-29.847 32.718-58.741 54-18.099 13.341-33.658 24.141-53.979 25.729-30.799 2.541-58.424-9.53-77.158-33.035-18.416-23.823-26.354-51.459-29.847-81-3.493-28.588-1.905-36.529 0-65.118.953-10.482 3.493-30.176 6.985-51.459 3.493-19.694 12.383-44.153 18.733-63.211 15.559-41.929 31.435-73.694 53.661-112.13l22.226-36.847c4.762-7.624 10.161-15.247 15.559-22.236 9.208-12.071 19.369-23.506 28.259-35.894 10.478-13.024 20.956-23.506 32.07-34.624 10.478-10.482 15.876-15.882 27.307-25.094 13.654-10.8 32.704-22.87 49.851-25.729 24.449-4.13 45.723 4.447 61.917 24.776 10.478 13.976 13.018 22.553 14.606 40.024 1.27 14.929-2.223 33.988-6.033 48.282-5.716 21.282-10.796 37.8-20.639 57.494-8.89 17.471-19.051 34.306-31.435 49.553-2.54 3.494-5.716 6.671-8.89 9.529-7.621 6.67-19.051 6.035-26.037-1.271-1.588-1.588-3.175-4.13-2.857-6.988.317-4.13.952-7.941 2.54-11.753 2.54-6.671 5.398-13.341 8.573-19.694 12.066-25.094 22.226-50.823 30.482-77.189 4.445-14.294 7.938-28.906 3.81-43.835-4.445-16.2-17.146-25.412-33.34-20.647-12.701 3.812-26.989 13.659-36.515 22.553-13.336 13.024-22.861 23.189-35.563 39.706-2.223 2.541-4.445 5.083-6.033 7.941-30.482 44.153-57.789 90.211-82.873 137.223-8.89 16.518-15.241 29.859-22.861 47.965-2.54 6.671-8.573 20.012-13.336 35.259-9.526 30.812-11.748 52.729-11.748 85.447 0 29.859 2.54 64.164 11.113 86.4 6.985 24.141 36.515 39.388 60.012 32.4 13.336-4.13 26.037-9.847 36.832-18.423 24.449-19.376 47.946-39.388 66.997-64.482 16.194-21.282 32.704-42.247 46.993-64.8 27.942-42.882 54.296-86.717 80.333-130.552 3.175-5.4 6.033-10.8 8.573-16.518 12.066-23.823 27.942-45.742 40.96-68.929 4.445-7.624 10.478-14.929 17.781-19.694 10.478-6.988 22.861-.953 30.799 4.765 2.858 2.223 5.08 6.988 4.445 10.482-.635 3.812-1.588 6.035-3.493 9.212-4.128 7.624-8.573 14.612-13.336 21.918-5.08 7.941-11.113 15.565-15.876 23.823-12.066 20.647-13.971 42.247-6.985 64.8 1.588 5.083 3.493 9.847 5.716 15.882 3.493-3.177 6.668-5.4 9.208-7.941 15.241-15.247 28.577-32.083 41.913-48.917 10.478-13.024 20.956-26.047 32.387-38.435 13.018-13.659 22.861-29.223 32.387-45.424 5.398-9.529 10.795-19.059 16.194-28.906.953-1.588 1.905-3.494 2.857-4.764 9.526-13.659 25.719-15.247 38.42.635 1.588 1.906 1.905 5.4 1.588 8.258 0 6.353-5.716 13.341-9.208 18.423-4.445 6.671-6.668 10.8-11.431 19.376-7.303 13.976-12.066 22.87-17.781 34.941-3.493 7.941-1.588 17.471.953 26.047 1.588 5.4 3.493 12.388 6.35 19.694 6.985-6.671 13.336-13.659 18.733-18.742 13.018-12.706 26.037-25.412 39.373-37.8 20.004-18.423 35.563-39.706 47.946-63.847 5.081-10.164 10.161-18.423 15.559-28.906 9.526-16.518 17.464-24.777 28.894-33.353 19.369-14.294 41.278-8.894 55.567 1.588 3.493 2.541 6.668 5.4 8.891 8.894 6.033 9.529 7.621 20.647 7.303 31.764-.953 24.777-6.35 43.2-16.511 65.753-6.985 15.565-19.687 15.565-31.117 5.4-2.858-2.541-3.81-5.718-3.176-8.894.953-4.447 2.54-9.212 4.445-13.341 4.445-9.529 7.303-19.694 8.573-30.177.953-6.353 0-12.388-3.176-18.105-2.857-5.4-14.923-8.577-20.321-6.035-4.128 1.588-8.255 5.083-11.113 7.941-8.891 9.212-15.876 29.223-20.004 40.977-10.161 26.683-13.336 44.153-21.274 74.647-4.445 15.882-5.716 32.083-5.08 48.282.953 16.835 17.464 28.588 33.975 25.412 8.573-1.588 16.194-5.083 23.179-10.482 17.146-13.024 33.022-27.318 46.675-44.471 8.573-10.801 31.117-37.164 31.117-37.164s-.317-1.27-.635-5.718c-.953-22.553 5.081-41.294 11.748-61.941 3.493-10.8 7.938-23.823 12.701-34.306 17.464-33.67 35.88-47.965 52.391-58.13 7.938-5.083 17.146-6.353 26.037-6.353 4.445 0 9.843.953 13.654 3.494 6.033 4.13 12.066 6.671 19.687 7.306 8.573.953 15.876 5.4 21.909 12.705 10.795 13.659 15.876 26.683 14.288 44.153-.317 2.223 0 4.447 0 8.258 4.763-3.177 8.573-5.083 11.431-7.941 17.464-16.2 36.832-30.494 52.391-48.6 4.763-5.4 10.161-10.164 15.559-14.929 2.858-2.541 6.033-4.765 9.526-6.671 12.066-6.035 25.402.635 26.672 13.976.953 5.083-4.445 16.836-6.668 23.506 5.715-5.083 17.146-14.612 20.957-18.105 11.431-11.118 24.449-20.012 38.42-27.636 6.35-3.494 13.336-5.083 20.639-5.083 10.796 0 17.781 5.717 20.639 16.2 2.54 9.529.953 19.059-1.905 28.27-2.222 7.624-5.08 15.248-7.938 22.87l-19.051 50.506c-1.27 3.494-8.256 27.953-9.843 34.306-1.905 10.164-2.857 12.071-4.445 22.235-.953 5.083-2.858 11.435.635 14.612 3.176 2.541 7.621.953 11.113-1.27 3.176-2.223 6.35-4.447 8.891-6.988 9.208-8.894 18.416-18.105 27.625-27.317 5.081-5.083 13.018-13.341 13.018-13.341s9.843-42.882 20.004-77.188c6.985-23.189 13.019-39.706 23.497-63.212 5.081-11.753 23.814-47.012 30.165-58.129 20.321-36.211 41.913-67.341 71.125-98.471 6.668-6.988 13.971-14.612 23.179-17.788 3.493-1.271 9.208-1.906 13.018-2.224 12.066 0 19.369 7.941 21.909 17.788 2.223 8.577.317 18.741-1.27 27.317-5.398 27.317-9.526 44.788-19.369 70.518-11.113 29.224-39.69 74.965-61.599 98.153-17.781 18.742-20.956 23.506-39.691 40.977-3.493 3.177-6.985 6.671-10.796 10.165 8.573 5.083 16.194 8.894 22.544 14.612 6.033 5.718 12.383 12.705 16.511 20.965 10.478-5.718 20.639-12.071 28.894-20.329 6.033-6.035 11.113-13.341 16.511-19.694 4.762-5.4 9.526-10.8 14.923-15.565 5.08-4.447 10.478-3.811 15.559.317 10.161 7.624 8.255 19.059 3.81 28.906-2.858 6.353-6.35 12.706-10.796 18.423-8.255 10.801-17.781 19.376-29.212 27.317-10.478 6.988-19.369 13.024-30.799 18.105-4.128 2.223-6.668 3.177-6.668 3.177s-2.54 22.87-2.858 30.812c-2.857 45.105-18.416 91.164-38.737 131.188-9.843 19.059-16.511 32.718-29.53 50.189-3.493 4.447-7.303 8.894-11.431 12.705-16.194 15.882-40.96 7.306-48.263-11.435-3.493-9.212-6.35-20.012-6.985-29.859-1.27-18.423-1.588-34.941-.953-53.682.317-12.388 2.223-24.777 3.493-37.164 2.222-20.965 5.715-44.788 8.255-67.024-2.858 2.541-5.081 5.083-8.573 8.894-6.033 6.035-8.891 8.577-16.511 14.929-6.668 5.083-12.383 8.258-19.369 11.118-13.336 5.718-30.482 1.588-37.785-15.882-3.493-8.894-5.081-18.423-3.81-28.27 4.445-29.859 12.383-58.765 24.132-86.718 3.493-7.941 6.668-15.882 9.526-23.823 1.27-3.177 2.223-6.353 2.54-9.529.953-7.306-2.54-10.164-9.208-7.624-3.176 1.271-6.033 2.859-8.573 4.765-16.511 10.8-49.534 38.118-49.534 38.118s-3.176 8.259-4.445 11.118c-13.019 28.27-21.274 52.412-31.117 82.589-3.81 11.753-7.938 23.506-12.701 34.941-5.081 12.071-15.241 15.882-26.989 10.482-6.35-2.859-10.796-5.718-9.208-13.024 2.857-12.388 6.35-23.188 11.749-36.847 12.383-30.176 22.226-57.176 32.07-85.447.952-2.859 3.493-11.118 4.445-15.565-6.033 5.4-13.018 11.753-16.828 15.882-15.559 17.153-33.022 31.764-54.931 40.659-3.81 1.588-6.033 4.13-7.621 7.941-2.858 7.624-5.715 15.247-8.891 22.553-9.208 23.506-23.179 43.835-40.008 62.259-10.478 11.118-23.179 19.694-38.103 24.776-16.828 5.718-31.752 2.859-45.088-9.529-6.668-6.353-11.431-13.024-15.559-23.506-2.857 2.541-5.716 5.083-7.621 6.67-22.226 22.87-45.088 45.423-69.538 66.388-5.081 4.447-10.795 7.941-16.511 11.435-21.592 13.659-50.803 7.306-69.22-10.165-9.208-8.894-12.383-24.776-13.971-36.847-1.905-14.294-.953-24.777 1.27-39.388 1.588-7.941 2.54-17.471 3.81-25.412l-2.537 6.676zm-231.791 133.095c-4.445 4.764-7.938 8.577-9.843 11.118-6.033 7.306-12.066 14.929-18.416 21.6-11.113 12.071-20.004 25.412-28.894 38.753-17.464 26.683-21.592 55.589-14.288 86.083l.635 2.859c5.08 17.788 18.099 23.506 35.88 17.153 12.066-4.13 21.592-12.706 27.942-23.506 9.526-15.882 16.511-40.659 16.828-59.083 1.27-21.6 0-24.776-1.905-52.729-.636-4.131-4.764-31.449-7.939-42.248zm516.608-196.942c-20.639-11.435-30.165-27-29.212-48.282.317-7.941.953-14.612 2.858-23.506-3.493 2.541-6.35 5.4-8.573 7.624l-10.161 11.435c-21.592 25.412-31.435 53.365-33.658 85.764-.953 10.165.635 20.965 2.54 31.13 3.175 15.248 13.018 20.329 27.625 15.882 5.081-1.588 9.526-4.13 13.654-7.624 25.402-18.106 43.818-68.294 43.818-68.294l-8.891-4.129zm304.503 84.177l-5.08 38.118c-3.493 26.365-4.763 47.012-2.223 73.694.317 1.906.317 11.118 4.445 11.753 4.763.953 6.985-5.718 8.573-8.577 5.398-10.164 10.161-19.694 14.606-29.859 5.081-11.753 9.208-24.141 13.971-35.894 8.573-20.647 14.923-42.247 19.051-64.164 2.54-13.024 6.033-25.412 6.668-41.929-27.942-7.941-45.406-21.282-45.406-21.282s-12.064 58.128-14.605 78.14zm-672.829 62.894c-1.27.635-8.573 8.894-9.526 9.847-22.544 22.87-33.975 49.553-36.832 81.318-.635 7.624.953 14.612 4.128 21.6 3.81 7.624 15.559 11.435 21.909 9.847 8.255-2.541 14.288-6.671 19.051-14.294 7.621-11.753 13.654-27.317 14.288-41.612 2.541-35.259-13.018-66.706-13.018-66.706zm710.932-235.058s18.416-14.294 18.734-14.612c19.687-17.788 32.387-35.259 47.311-57.176 16.194-27.636 35.245-60.988 45.406-91.482.953-2.541 6.668-17.471-.635-21.282-7.938-3.494-17.464 12.071-19.369 14.612-3.176 4.13-14.288 19.694-17.146 23.823-7.938 12.388-18.416 27.317-25.402 40.024-14.606 27-13.654 23.823-27.307 51.141-8.255 16.835-11.431 24.459-16.511 36.211-6.033 15.881-5.081 18.741-5.081 18.741zm-319.11 52.093c3.175-6.671 3.493-14.929 2.54-21.918-.317-2.223-.952-4.764-2.222-6.67-2.54-5.083-12.383-5.083-16.511-.953-5.081 5.4-5.398 11.753-2.857 18.742 2.539 6.352 10.16 12.07 19.05 10.799z"/><path fill="#fff" d="M1154.672 1443.956c6.033-.635 10.161-.635 13.971.317 6.668 1.588 10.796 10.8 10.478 17.788 0 4.13-3.493 8.577-7.303 10.164-7.303 3.494-14.288 6.353-22.544 8.894-31.752 8.258-61.282 14.294-93.034 21.918-19.369 4.764-38.737 10.164-58.107 15.882-36.832 10.8-73.348 21.6-109.863 32.718-19.369 5.718-38.103 12.388-57.154 18.741-5.716 1.906-9.526 3.812-27.307 8.894-20.004 6.353-37.15 13.341-57.789 20.965-36.515 16.518-73.348 32.4-109.227 50.506-32.07 16.2-63.187 33.671-93.352 53.047-6.033 3.812-12.701 6.988-19.051 9.847-5.081 2.223-10.161 1.906-14.923-1.588-2.54-1.906-4.445-6.353-2.858-8.577 2.54-3.494 6.033-5.718 9.208-8.258 10.161-7.941 20.639-15.247 31.117-22.87 19.369-14.294 40.325-25.412 60.964-37.482 14.923-8.577 29.847-17.153 45.088-25.094 8.255-4.447 17.146-8.576 25.719-12.705 25.402-12.071 50.803-24.459 76.523-35.577 34.61-15.248 70.172-26.683 106.37-37.8 18.099-5.718 35.245-12.071 53.026-17.788 28.894-9.212 57.472-17.153 86.366-23.506 12.701-2.859 24.132-6.988 36.515-9.847l81.921-20.329c6.985-1.588 13.971-3.811 20.956-5.083 5.4-2.224 10.479-2.859 14.29-3.177z"/><path d="M529.729 1868.036c-5.733 7.168-11.861 14.054-17.122 21.556-12.731 18.148-25 36.623-37.594 54.869-2.705 3.924-5.872 7.541-9.031 11.118-5.488 6.212-11.971 10.993-19.767 14.139-5.509 2.23-11.048 3.178-16.924 3.25-9.587.124-15-4.114-17.609-15.015-.918-3.838-.851-8.351.226-12.138 2.538-8.933 6.848-17.01 13.924-23.446 6.519-5.931 14.228-7.887 22.668-7.364 2.21.13 4.415 1.517 6.446 2.642.632.353.69 1.74 1.249 3.322-2.221.288-4.121.89-5.949.72-10.244-.942-17.979 3.492-23.552 11.542-3.261 4.709-6.397 9.915-7.895 15.362-4.372 15.879 3.414 19.542 15.539 17.193 11.499-2.23 20.825-8.521 27.904-17.71 6.026-7.822 11.479-16.088 17.066-24.243 16.384-23.909 31.83-48.474 50.354-70.879 9.192-11.118 19.345-21.104 31.258-29.266 4.835-3.316 6.26-3.237 11.755 1.38-2.221 2.093-4.465 4.068-6.554 6.2-2.848 2.904-6.008 5.631-8.289 8.946-13.261 19.28-23.628 39.867-27.727 63.208-.994 5.663-2.497 11.229-3.851 17.219 3.509.078 4.452-2.342 5.715-4.042 17.69-23.825 35.611-47.453 55.948-69.133 2.335-2.492 4.852-4.866 6.834-7.612 5.577-7.73 14.067-11.753 21.413-17.206 1.911-1.419 4.795-.601 6.287 1.485 1.289 1.812 1.544 3.734.023 5.637-4.462 5.585-8.956 11.137-13.338 16.781-5.298 6.828-8.853 14.565-11.339 22.785-4.247 14.041-9.088 27.86-14.65 41.437-3.357 8.188-6.926 16.304-9.853 24.649-2.251 6.409-3.797 13.093-5.323 19.731-.407 1.773.404 3.832.725 6.285 5.831-.563 10.109-2.865 13.759-6.638 3.316-3.427 6.857-6.651 10.039-10.196 1.541-1.714 2.886-3.82 3.636-5.99 3.429-9.928 9.672-17.998 16.818-25.362 2.778-2.858 6.413-5.088 10.016-6.88 2.299-1.144 5.289-1.458 7.912-1.282 6.746.451 11.107 6.795 8.877 13.158-1.093 3.113-2.937 6.317-5.31 8.567-6.552 6.206-14.082 10.784-23.565 10.882-1.017.013-2.037.066-3.05.163-.319.026-.619.255-1.81.772-3.029 5.069-4.395 11.242-4.057 17.821.186 3.616 2.339 5.52 5.943 5.696 4.589.236 8.699-1.269 12.676-3.395 10.317-5.507 19.267-12.838 27.898-20.633 4.18-3.767 6.646-8.345 8.18-13.76 4.083-14.433 8.451-28.762 14.229-42.666 6.807-16.382 13.809-32.64 23.265-47.702 2.531-4.028 5.599-7.724 8.511-11.504 2.193-2.851 5.431-4.101 8.737-4.997 4.872-1.315 9.716 1.334 11.339 6.252 1.527 4.61 1.543 8.92-.581 13.786-14.416 33.046-33.169 63.443-55.051 91.969-2.868 3.734-4.324 7.443-4.184 12.145.175 5.866.472 11.622 3.859 16.651 1.233 1.831 3.376 2.851 5.359 1.641 4.04-2.459 8.33-4.833 11.622-8.135 6.978-7.004 13.344-14.616 20.043-21.902 2.389-2.603 3.522-5.696 4.685-8.953 8.615-24.074 17.355-48.107 26.156-72.115 2.932-7.992 6.093-15.905 9.263-23.812 2.075-5.179 3.697-5.369 9.356-.935-6.593 17.638-13.439 35.394-19.862 53.306-6.297 17.559-13.27 34.903-19.115 54.837 2.63-2.61 3.729-3.767 4.895-4.853 4.995-4.637 9.713-9.647 15.114-13.747 3.996-3.041 8.809-5.062 13.41-7.22 6.125-2.871 10.581-.026 13.189 5.703.963 2.113 1.587 4.375 2.533 7.044 3.821-.425 6.499-2.669 9.435-4.094 3.059-1.484 5.922-3.362 8.891-5.036 3.841-2.164 7.554-4.649 11.591-6.356 4.782-2.027 9.849-3.159 14.715.765 1.284-.719 2.419-1.386 3.582-2.001 6.606-3.493 10.29-2.923 15.356 2.321 2.69 2.786 4.504 6.062 4.861 9.915.274 2.943.055 5.938.055 9.254 5.034-.464 7.867-3.656 10.934-6.089 4.266-3.381 8.093-7.318 12.182-10.928 1.513-1.341 3.118-2.674 4.903-3.578 1.906-.968 4.033-.745 5.775.667 1.769 1.425 2.455 3.401 1.445 5.468-2.991 6.115-5.868 12.315-9.31 18.168-4.007 6.827-6.73 14.145-9.466 21.49-1.079 2.897-1.739 5.893-.042 9.051 4.717.34 7.344-3.009 10.025-5.984 5.933-6.599 11.722-13.321 17.523-20.031 7.603-8.789 14.333-18.181 19.452-28.671.147-.301.359-.576.546-.857 1.33-2.034 3.379-2.688 5.253-1.609 2.03 1.171 2.745 2.989 2.066 5.193-.602 1.942-1.487 3.799-2.187 5.722-3.854 10.562-7.731 21.123-11.499 31.719-1.01 2.838-1.994 5.775-.833 9.104 1.02-.236 2.252-.138 2.824-.706 13.601-13.596 24.518-29.148 33.722-46.217-2.053-2.42-4.089-4.663-5.946-7.05-2.651-3.401-3.455-7.41-2.925-11.576 1.252-9.797 6.456-17.193 14.715-22.275 7.214-4.441 14.915-.562 15.47 7.959.258 3.924-.817 8.097-2.037 11.916-1.543 4.839-3.843 9.437-5.704 13.864.909 3.263 3.851 2.937 5.743 4.127 5.044 3.159 6.646 6.311 4.975 11.994-1.049 3.571-2.743 6.971-4.393 10.333-3.606 7.344-7.43 14.577-11.015 21.935-.873 1.778-1.177 3.839-1.687 5.585 1.615 1.929 3.269 1.798 4.72.654 3.743-2.943 7.747-5.689 10.976-9.136 11.924-12.72 23.341-25.852 30.118-42.28.631-1.53 1.448-3.355 2.729-4.14 1.19-.726 3.275-.654 4.664-.124.925.347 1.814 2.106 1.824 3.244.009 1.635-.654 3.329-1.275 4.905-2.125 5.396-4.403 10.725-6.518 16.121-.585 1.497-.797 3.132-1.586 6.35 6.158-4.578 10.675-8.449 14.899-12.681 4.099-4.107 8.145-8.266 12.303-12.315 2.2-2.139 4.439-4.291 6.939-6.037 2.628-1.837 5.635-2.42 8.658-.595 3.164 1.909 3.608 5.042 2.821 8.083-1.014 3.924-2.559 7.743-4.145 11.497-3.576 8.469-7.357 16.847-10.963 25.296-1.35 3.172-2.062 6.481-.807 10.53 1.592-.7 3.24-1.067 4.436-2.008 6.7-5.271 13.434-10.522 19.84-16.133 2.206-1.929 3.798-4.748 5.174-7.41 2.504-4.846 4.521-9.934 6.956-14.819 3.089-6.18 7.184-11.635 12.976-15.552 4.436-2.995 9.283-4.212 14.542-2.198 4.426 1.694 6.142 3.982 5.596 8.554-1.327 11.105-7.361 18.92-17.543 23.295-4.331 1.864-9.005 2.923-14.003 4.499-2.334 6.756-4.851 13.682-2.563 21.693 1.575-.13 2.988.052 4.164-.399 6.116-2.302 11.627-5.624 16.654-9.842 3.651-3.068 7.482-5.945 11.447-8.593 1.219-.818 3.367-1.177 4.668-.674 1.275.497 2.02 2.368 2.935 3.552-6.325 7.037-21.125 18.148-27.921 21.078-.935.405-1.88.811-2.85 1.118-10.937 3.44-15.674.785-18.632-10.379-.173-.654-.458-1.275-.908-2.511-1.729.968-3.488 1.727-4.984 2.838-4.373 3.237-8.469 6.893-13.035 9.829-2.134 1.366-5.158 2.191-7.672 1.969-6.201-.537-8.789-4.009-8.741-10.32.062-8.077 3.135-15.29 6.416-22.425 2.563-5.573 5.302-11.065 7.926-16.611.095-.197-.157-.563-.304-1.027-2.788-.215-3.834 2.262-5.422 3.747-10.96 10.248-21.965 20.47-30.716 32.784-3.357 4.722-6.515 9.587-9.764 14.381-1.076 1.589-2.566 2.217-4.396 1.655-2.108-.654-3.631-1.916-3.481-4.368.082-1.36.232-2.727.533-4.048.533-2.329 1.265-4.604 1.785-6.933.193-.863.033-1.805.033-3.669-4.759 4.565-8.884 8.554-13.042 12.511-3.543 3.374-7.75 5.637-12.509 6.592-7.181 1.446-12.97-4.263-11.359-11.464.961-4.277 2.622-8.469 4.491-12.452 2.745-5.866 6.014-11.477 8.949-17.259 1.383-2.727 2.572-5.559 3.723-8.397.686-1.688.562-3.388-1.095-4.539-2.059-1.433-5.115-1.223-6.426.732-2.854 4.245-5.665 8.534-8.142 13.007-7.191 12.955-16.922 23.943-26.944 34.661-2.229 2.381-5.42 4.153-8.492 5.409-6.364 2.596-11.862-1.556-11.453-8.365.101-1.674.758-3.309.98-4.983.258-1.949.314-3.924.556-7.22-2.193 1.786-3.566 2.661-4.629 3.813-3.932 4.27-7.763 8.626-11.626 12.955-3.01 3.375-6.557 5.932-10.891 7.357-7.197 2.367-13.352-1.328-13.696-8.94-.189-4.323.781-8.783 1.794-13.047.778-3.283 2.367-6.389 3.739-9.509 1.216-2.773 2.631-5.454 3.974-8.214-.791-.274-1.52-.778-1.834-.589-6.129 3.669-12.071 7.58-19.213 9.345-2.393.589-4.557 2.819-6.432 4.689-6.034 6.016-11.829 12.275-17.834 18.325-3.889 3.917-8.466 6.84-13.732 8.659-8.479 2.93-16.193-3.191-16.761-10.104-.219-2.681-.517-5.487.033-8.063 1.556-7.325 3.514-14.571 5.354-21.83.382-1.524.918-3.009 1.775-5.762-7.074 2.433-12.433 5.173-16.814 9.385-1.566 1.505-2.147 4.127-2.938 6.324-3.149 8.756-7.083 17.121-13.998 23.511-3.174 2.93-7.276 4.866-10.986 7.201-.562.359-1.271.51-1.932.667-3.972.928-10.313-.89-12.032-3.911-1.995-3.498-1.84-7.579.266-10.764 2.589-3.911 5.724-7.691 9.343-10.653 7.106-5.807 14.712-11.007 22.008-16.382 1.433-7.226 1.433-7.226-1.182-12.674-8.17 2.27-14.655 7.429-20.146 13.414-8.752 9.535-16.827 19.705-24.999 29.763-1.669 2.054-2.201 5.023-3.829 7.129-.819 1.06-3.138 1.825-4.378 1.445-1.236-.386-2.803-2.406-2.764-3.662.101-3.309.997-6.599 1.755-10.915-1.777 1.413-2.955 2.289-4.058 3.244-4.109 3.552-7.883 7.593-12.348 10.615-10.943 7.409-20.249 3.832-24.322-8.966-.929-2.91-1.677-5.879-2.631-9.26-3.827 1.118-6.271 4.015-9.257 6.023-6.494 4.368-12.853 8.986-19.62 12.884-3.443 1.988-7.572 3.1-11.532 3.799-7.765 1.374-14.045-1.38-18.426-8.103-.737-1.131-1.546-2.21-2.577-3.682-2.463 2.054-4.792 3.878-6.983 5.853-3.154 2.845-7.081 3.969-10.948 5.33-6.016 2.119-14.3-2.897-14.63-10.228-.365-8.044 1.407-15.689 4.073-23.04 4.996-13.773 10.811-27.245 15.888-40.992 4.111-11.131 7.637-22.471 11.455-33.811-2.654-1.236-3.571.523-4.449 1.543-7.106 8.28-14.345 16.461-21.086 25.035-10.752 13.669-20.921 27.794-31.769 41.378-9.63 12.066-18.674 24.335-23.062 39.416-.513 1.766-1.727 2.917-3.742 2.76-2.069-.163-3.969-1.949-3.88-4.009.083-2.008.348-4.074.974-5.977 2.023-6.147 4.223-12.236 6.402-18.331 5.761-16.114 8.332-33.039 12.607-49.527 1.536-5.925 3.341-11.785 5.112-17.645.682-2.256 2.032-4.395.731-6.828.554.014 1.094.014 1.633.007l-.373-1.131c-.331.464-.673.929-1.013 1.392zm251.422 91.461c4.579 1.36 7.733-.798 10.614-2.976 8.364-6.343 15.781-13.688 22.541-22.229-3.194-3.701-7.966-6.069-8.789-11.065-.749-4.539-.863-9.175-1.301-14.296-1.608.261-3.608-.007-4.654.87-2.556 2.145-5.253 4.48-6.854 7.325-6.204 10.993-10.649 22.687-11.872 35.374-.222 2.262.19 4.59.315 6.997zm-67.451-135.284c-5.692 2.597-8.632 7.338-11.213 12.001-11.533 20.842-21.835 42.274-29.536 64.869-.737 2.165-1.074 4.46-2.013 8.488 2.172-2.204 3.211-2.956 3.859-3.963 6.993-10.862 14.469-21.458 20.727-32.732 6.913-12.451 12.707-25.532 18.958-38.349 1.542-3.166 2.32-6.37-.782-10.314zm224.237 45.622c-7.269 4.127-10.493 9.489-12.388 15.65-.762 2.472-.585 5.33-.379 7.972.157 2.008 1.174 3.82 4.249 3.911 4.53-7.946 9.433-15.885 8.518-27.533zm-125.506 49.931c.196 1.413.209 2.446.493 3.395.749 2.452 2.537 4.074 4.972 4.414 2.442.34 3.523-1.832 4.184-3.656.896-2.472 1.794-5.133 1.772-7.697-.023-3.257-.14-6.945-3.825-8.679-1.954-.922-4.573 1.896-6.256 6.768-.653 1.879-.961 3.873-1.34 5.455zm-201.866 10.033c7.154-.183 11.082-2.42 14.801-5.297 3.007-2.334 5.115-5.304 6.336-8.855.263-.765-.009-2.119-.562-2.642-.549-.517-1.83-.589-2.672-.379-1.273.32-2.538.909-3.645 1.628-5.446 3.538-9.025 8.75-14.258 15.545zm439.81-9.685c6.805-.576 10.816-3.859 14.023-8.175 2.474-3.329 5.436-6.776 3.236-12.262-8.868 4.146-13.526 11.025-17.259 20.437zm-321.265 39.756c9.265-1.962 17.252-10.294 18.394-19.188-14.573 8.397-17.697 11.66-18.394 19.188zm-8.574 69.655c-.332 1.828-.936 5.549-1.693 9.241-2.151 10.487-6.807 20.005-11.553 29.478-4.078 8.129-11.659 10.588-19.819 10.84-4.629.154-8.838-2.384-10.345-7.423-.969-3.244-2.262-6.628-2.141-9.908.645-17.089 2.451-33.997 10.947-49.366 2.749-4.97 5.668-9.836 10.359-13.325 7.172-5.346 15.026-3.737 18.773 4.375 3.508 7.594 5.4 15.7 5.472 26.088zm-15.977-26.519c-4.519 1.773-6.426 5.189-8.278 8.427-9.109 15.911-11.893 33.38-12.238 51.41-.077 3.976 1.435 7.256 4.167 10.131 5.911-.395 9.249-3.603 11.772-8.149 6.326-11.382 10.963-23.462 12.158-36.417.765-8.273-1.139-16.52-5.276-23.982-.306-.553-1.218-.776-2.305-1.42zm199.835 78.55c-1.674.454-3.076 1.056-4.521 1.177-1.017.088-2.095-.458-3.779-.87-.245-12.419 1.294-24.737 2.255-37.46-8.953-2.897-17.886-.951-26.898-3.708.8-2.321 1.043-4.607 2.239-6.167 3.691-4.813 7.838-9.27 11.63-14.002 4.975-6.21 9.774-12.55 14.65-18.832 1.399-1.798 2.677-3.695 4.23-5.343 1.598-1.71 3.792-3.162 5.946-1.54 1.242.928 2.223 3.11 2.174 4.695-.098 3.375-1.124 6.717-1.451 10.101-.723 7.452-3.383 14.734-2.376 22.886 3.671.18 6.975.173 10.227.598 1.396.173 3.119.912 3.87 1.981.549.769.029 3.489-.5 3.652-4.308 1.243-8.737 2.086-13.898 3.221-1.261 13.141-2.523 26.27-3.798 39.611zm-5.102-64.227c-5.55 6.703-9.93 10.66-12.653 16.395 4.174 1.786 7.619 1.527 11.509 0 1.389-4.546 1.039-9.166 1.144-16.395zm-322.871 53.656c5.219.392 8.598.559 11.957.935 3.007.347 6 .86 8.979 1.399 2.115.386 3.437 1.896 3.472 3.905.039 2.223-1.727 3.338-3.772 3.329-7.95-.039-15.897-.193-23.839-.363-1.512-.026-3.035-.18-4.528-.428-5.089-.85-6.459-3.803-3.581-7.992 6.222-9.051 12.572-18.014 18.816-27.046 3.662-5.3 7.42-10.546 10.78-16.032 2.975-4.856 5.429-10.092 5.32-15.954-.029-1.573-1.188-3.822-2.486-4.499-1.356-.697-3.897-.464-5.217.422-2.13 1.426-3.983 3.512-5.428 5.673-3.368 5.026-6.41 10.265-9.615 15.398-1.128 1.812-3.061 2.871-4.752 1.706-1.276-.873-2.491-3.116-2.299-4.571.337-2.531 1.479-5.098 2.821-7.325 1.945-3.233 4.411-6.141 6.571-9.254 3.208-4.624 7.704-7.024 13.09-8.309 9.528-2.27 16.987 3.829 15.354 13.573-.918 5.484-3.117 10.964-5.758 15.892-3.38 6.321-7.781 12.092-11.743 18.102-4.347 6.593-8.697 13.179-14.142 21.439zm216.179-57.171c-1.961 2.214-3.811 4.532-5.926 6.573-1.023.991-2.478 1.75-3.86 2.04-.883.187-2.269-.408-2.909-1.125-.64-.71-.67-1.995-.859-3.061-.059-.311.147-.769.376-1.037 5.436-6.305 10.819-12.658 16.382-18.845 1.628-1.812 3.981-2.05 6.322-1.232 2.576.912 3.311 3.031 3.138 5.431-.32 4.542-.807 9.071-1.33 13.583-.958 8.276-2.144 16.533-2.958 24.822-1.105 11.324-1.952 22.664-2.916 34.001-.062.752-.127 1.517-.307 2.253-.572 2.367-3.795 4.447-6.132 3.8-2.164-.595-2.808-2.436-2.719-4.434.154-3.407.434-6.811.755-10.209 1.641-17.311 3.308-34.621 4.965-51.926l-2.022-.634zm183.887 27.209c-3.354-.108-6.168-3.237-5.984-6.654.265-4.98 4.259-9.08 8.613-8.874 3.72.187 7.286 4.268 7.544 8.639.228 3.844-4.534 7.075-10.173 6.889zm-451.855 0c-3.354-.108-6.168-3.237-5.985-6.654.265-4.98 4.259-9.08 8.613-8.874 3.72.187 7.285 4.268 7.544 8.639.229 3.844-4.533 7.075-10.172 6.889z" fill="#fff"/></svg>