<svg xmlns="http://www.w3.org/2000/svg" viewBox="0 0 200.779 79.316" enable-background="new 0 0 200.779 79.316"><path d="M35.46 15.194c-1.713 2.141-3.543 4.197-5.115 6.438-3.804 5.42-7.469 10.938-11.232 16.387-.808 1.172-1.754 2.252-2.698 3.32-1.64 1.855-3.577 3.283-5.906 4.223-1.646.666-3.301.949-5.057.971-2.864.037-4.482-1.229-5.261-4.484-.274-1.146-.254-2.494.067-3.625.758-2.668 2.046-5.08 4.16-7.002 1.948-1.771 4.251-2.355 6.772-2.199.66.039 1.319.453 1.926.789.189.106.206.52.373.992-.663.086-1.231.266-1.777.215-3.06-.281-5.372 1.043-7.037 3.447-.974 1.406-1.911 2.961-2.359 4.588-1.306 4.742 1.02 5.836 4.643 5.135 3.436-.666 6.222-2.545 8.337-5.289 1.8-2.336 3.43-4.805 5.099-7.24 4.895-7.141 9.51-14.477 15.044-21.168 2.746-3.32 5.78-6.303 9.339-8.74 1.444-.99 1.87-.967 3.512.412-.664.625-1.334 1.215-1.958 1.852-.851.867-1.795 1.682-2.476 2.672-3.962 5.758-7.059 11.906-8.284 18.877-.297 1.691-.746 3.354-1.15 5.143 1.048.023 1.33-.699 1.707-1.207 5.285-7.115 10.639-14.172 16.715-20.646.698-.744 1.45-1.453 2.042-2.273 1.666-2.309 4.203-3.51 6.397-5.139.571-.424 1.433-.18 1.878.443.385.541.461 1.115.007 1.684-1.333 1.668-2.676 3.326-3.985 5.012-1.583 2.039-2.645 4.35-3.388 6.805-1.269 4.193-2.715 8.32-4.377 12.375-1.003 2.445-2.069 4.869-2.944 7.361-.672 1.914-1.134 3.91-1.59 5.893-.122.529.121 1.145.217 1.877 1.742-.168 3.02-.855 4.111-1.983.991-1.023 2.049-1.986 3-3.045.46-.512.862-1.141 1.086-1.789 1.024-2.965 2.89-5.375 5.024-7.574.83-.854 1.916-1.519 2.993-2.055.687-.342 1.58-.436 2.364-.383 2.016.135 3.318 2.029 2.652 3.93-.327.93-.877 1.887-1.586 2.559-1.958 1.854-4.207 3.221-7.041 3.25-.304.004-.608.02-.911.049-.095.008-.185.076-.541.23-.905 1.514-1.313 3.357-1.212 5.322.056 1.08.699 1.648 1.775 1.701 1.371.07 2.599-.379 3.787-1.014 3.083-1.645 5.756-3.834 8.335-6.162 1.249-1.125 1.986-2.492 2.444-4.109 1.22-4.311 2.525-8.59 4.251-12.742 2.034-4.893 4.126-9.748 6.951-14.246.756-1.203 1.673-2.307 2.543-3.436.655-.852 1.623-1.225 2.61-1.492 1.456-.393 2.903.398 3.388 1.867.456 1.377.461 2.664-.174 4.117-4.307 9.869-9.91 18.947-16.447 27.467-.857 1.115-1.292 2.223-1.25 3.627.052 1.752.141 3.471 1.153 4.973.368.547 1.009.851 1.601.49 1.207-.734 2.489-1.443 3.472-2.43 2.085-2.092 3.987-4.365 5.988-6.541.714-.777 1.052-1.701 1.4-2.674 2.574-7.19 5.185-14.367 7.814-21.537.876-2.387 1.82-4.75 2.768-7.111.62-1.547 1.104-1.603 2.795-.279-1.97 5.268-4.015 10.57-5.934 15.92-1.881 5.244-3.965 10.424-5.711 16.377.786-.779 1.114-1.125 1.462-1.449 1.492-1.385 2.902-2.881 4.516-4.105 1.194-.908 2.632-1.512 4.006-2.156 1.83-.858 3.161-.008 3.94 1.703.288.631.474 1.307.757 2.104 1.142-.127 1.942-.797 2.819-1.223.914-.443 1.77-1.004 2.656-1.504 1.147-.646 2.257-1.389 3.463-1.898 1.429-.605 2.942-.943 4.396.229.384-.215.723-.414 1.07-.598 1.974-1.043 3.074-.873 4.588.693.804.832 1.346 1.811 1.452 2.961.082.879.017 1.773.017 2.764 1.504-.139 2.351-1.092 3.267-1.818 1.274-1.01 2.418-2.186 3.64-3.264.452-.4.932-.799 1.465-1.068.569-.289 1.205-.223 1.726.199.528.426.733 1.016.432 1.633-.894 1.826-1.753 3.678-2.781 5.426-1.197 2.039-2.011 4.225-2.828 6.418-.322.865-.52 1.76-.013 2.703 1.409.102 2.194-.898 2.995-1.787 1.773-1.971 3.502-3.978 5.235-5.982 2.272-2.625 4.282-5.43 5.812-8.562l.163-.256c.397-.608 1.01-.803 1.569-.481.607.35.82.893.617 1.551-.18.58-.444 1.135-.653 1.709-1.151 3.154-2.31 6.309-3.436 9.473-.302.848-.596 1.725-.249 2.719.305-.07.673-.041.844-.211 4.063-4.061 7.325-8.705 10.075-13.803-.613-.723-1.222-1.393-1.776-2.105-.792-1.016-1.032-2.213-.874-3.457.374-2.926 1.929-5.135 4.396-6.652 2.155-1.326 4.456-.168 4.622 2.377.077 1.172-.244 2.418-.608 3.559-.461 1.445-1.148 2.818-1.704 4.141.271.975 1.15.877 1.716 1.232 1.507.943 1.985 1.885 1.486 3.582-.313 1.066-.819 2.082-1.312 3.086-1.077 2.193-2.22 4.354-3.291 6.551-.261.531-.352 1.146-.504 1.668.482.576.977.537 1.41.195 1.118-.879 2.314-1.699 3.279-2.729 3.563-3.799 6.974-7.721 8.998-12.627.188-.457.433-1.002.815-1.236.355-.217.979-.195 1.393-.037.276.104.542.629.545.969.003.488-.195.994-.381 1.465-.635 1.611-1.315 3.203-1.947 4.814-.175.447-.238.936-.474 1.896 1.84-1.367 3.189-2.523 4.451-3.787 1.225-1.227 2.434-2.469 3.676-3.678.657-.639 1.326-1.281 2.073-1.803.785-.549 1.684-.723 2.587-.178.945.57 1.078 1.506.843 2.414-.303 1.172-.765 2.312-1.238 3.434-1.068 2.529-2.198 5.031-3.275 7.555-.403.947-.616 1.936-.241 3.145.476-.209.968-.318 1.325-.6 2.002-1.574 4.014-3.142 5.928-4.818.659-.576 1.135-1.418 1.546-2.213.748-1.447 1.351-2.967 2.078-4.426.923-1.846 2.146-3.475 3.877-4.644 1.325-.895 2.773-1.258 4.345-.656 1.322.506 1.835 1.189 1.672 2.555-.396 3.316-2.199 5.65-5.241 6.957-1.294.557-2.69.873-4.184 1.344-.697 2.018-1.449 4.086-.766 6.479.471-.039.893.016 1.244-.119 1.827-.688 3.474-1.68 4.976-2.939 1.091-.916 2.235-1.775 3.42-2.566.364-.244 1.006-.351 1.395-.201.381.148.603.707.877 1.061-1.89 2.102-6.312 5.42-8.342 6.295-.279.121-.562.242-.852.334-3.268 1.027-4.683.234-5.566-3.1-.052-.195-.137-.381-.271-.75-.517.289-1.042.516-1.489.848-1.307.967-2.53 2.059-3.895 2.936-.638.408-1.541.654-2.292.588-1.853-.16-2.626-1.197-2.611-3.082.018-2.412.936-4.567 1.917-6.697.766-1.664 1.584-3.305 2.368-4.961.028-.059-.047-.168-.091-.307-.833-.064-1.145.676-1.62 1.119-3.274 3.06-6.562 6.113-9.177 9.791-1.003 1.41-1.946 2.863-2.917 4.295-.321.475-.767.662-1.314.494-.63-.195-1.085-.572-1.04-1.305.024-.406.069-.814.159-1.209.159-.695.378-1.375.533-2.07.058-.258.01-.539.01-1.096-1.422 1.363-2.654 2.555-3.896 3.736-1.059 1.008-2.316 1.684-3.737 1.969-2.146.432-3.875-1.273-3.394-3.424.287-1.277.783-2.529 1.342-3.719.82-1.752 1.797-3.428 2.674-5.154.413-.814.769-1.66 1.112-2.508.205-.504.168-1.012-.327-1.355-.615-.428-1.528-.365-1.92.219-.853 1.268-1.692 2.549-2.433 3.885-2.148 3.869-5.056 7.15-8.05 10.352-.666.711-1.619 1.24-2.537 1.615-1.901.775-3.544-.465-3.422-2.498.03-.5.227-.988.293-1.488.077-.582.094-1.172.166-2.156-.655.533-1.065.795-1.383 1.139-1.175 1.275-2.319 2.576-3.474 3.869-.899 1.008-1.959 1.771-3.254 2.197-2.15.707-3.989-.396-4.092-2.67-.057-1.291.233-2.623.536-3.896.232-.981.707-1.908 1.117-2.84.363-.828.786-1.629 1.188-2.453-.236-.082-.454-.232-.548-.176-1.831 1.096-3.607 2.264-5.74 2.791-.715.176-1.361.842-1.922 1.4-1.803 1.797-3.534 3.666-5.328 5.473-1.162 1.17-2.529 2.043-4.103 2.586-2.533.875-4.838-.953-5.008-3.018-.065-.801-.154-1.639.01-2.408.465-2.188 1.05-4.351 1.6-6.519.114-.455.274-.898.53-1.721-2.113.727-3.715 1.545-5.023 2.803-.468.449-.642 1.233-.878 1.889-.941 2.615-2.116 5.113-4.182 7.021-.948.875-2.174 1.453-3.282 2.15-.168.107-.38.152-.577.199-1.187.277-3.081-.266-3.595-1.168-.596-1.045-.55-2.264.08-3.215.774-1.168 1.71-2.297 2.792-3.182 2.123-1.734 4.396-3.287 6.575-4.893.428-2.158.428-2.158-.353-3.785-2.441.678-4.378 2.219-6.019 4.006-2.615 2.848-5.027 5.885-7.469 8.889-.498.613-.658 1.5-1.144 2.129-.245.316-.938.545-1.308.432-.369-.115-.838-.719-.826-1.094.03-.988.298-1.971.524-3.26-.531.422-.883.684-1.212.969-1.228 1.061-2.355 2.268-3.689 3.17-3.27 2.213-6.05 1.145-7.267-2.678-.277-.869-.501-1.756-.786-2.766-1.144.334-1.874 1.199-2.766 1.799-1.94 1.305-3.84 2.684-5.862 3.848-1.029.594-2.262.926-3.445 1.135-2.32.41-4.196-.412-5.505-2.42-.22-.338-.462-.66-.77-1.1-.736.613-1.432 1.158-2.086 1.748-.942.85-2.116 1.185-3.271 1.592-1.797.633-4.272-.865-4.371-3.055-.109-2.402.42-4.686 1.217-6.881 1.493-4.113 3.23-8.137 4.747-12.242 1.228-3.324 2.282-6.711 3.422-10.098-.793-.369-1.067.156-1.329.461-2.123 2.473-4.286 4.916-6.3 7.477-3.212 4.082-6.25 8.301-9.492 12.357-2.877 3.604-5.579 7.268-6.89 11.772-.153.527-.516.871-1.118.824-.618-.049-1.186-.582-1.159-1.197.025-.6.104-1.217.291-1.785.604-1.836 1.262-3.654 1.913-5.475 1.721-4.812 2.489-9.867 3.767-14.791.459-1.769.998-3.519 1.527-5.269.204-.674.607-1.313.218-2.039l.488.002-.111-.338-.304.404zm75.116 27.314c1.368.406 2.311-.238 3.171-.889 2.499-1.895 4.715-4.088 6.734-6.639-.954-1.105-2.38-1.812-2.626-3.305-.224-1.355-.258-2.74-.389-4.27-.48.078-1.078-.002-1.391.26-.764.641-1.569 1.338-2.048 2.188-1.854 3.283-3.182 6.775-3.547 10.564-.064.677.059 1.373.096 2.091zm-20.152-40.402c-1.701.775-2.579 2.191-3.35 3.584-3.446 6.225-6.523 12.625-8.824 19.373-.22.646-.321 1.332-.602 2.535.649-.658.959-.883 1.153-1.184 2.089-3.244 4.323-6.408 6.192-9.775 2.065-3.719 3.796-7.625 5.664-11.453.461-.945.694-1.902-.233-3.08zm66.995 13.625c-2.172 1.233-3.135 2.834-3.701 4.674-.228.738-.175 1.592-.113 2.381.047.6.351 1.141 1.27 1.168 1.352-2.373 2.817-4.744 2.544-8.223zm-37.497 14.912c.059.422.062.73.147 1.014.224.732.758 1.217 1.485 1.318.729.101 1.053-.547 1.25-1.092.268-.738.536-1.533.529-2.299-.007-.973-.042-2.074-1.143-2.592-.584-.275-1.366.566-1.869 2.021-.194.562-.286 1.157-.399 1.63zm-60.311 2.996c2.137-.055 3.311-.723 4.422-1.582.898-.697 1.528-1.584 1.893-2.645.079-.229-.003-.633-.168-.789-.164-.154-.547-.176-.798-.113-.38.096-.758.271-1.089.486-1.628 1.057-2.697 2.614-4.26 4.643zm131.4-2.892c2.033-.172 3.232-1.152 4.189-2.441.739-.994 1.624-2.024.967-3.662-2.649 1.237-4.04 3.292-5.156 6.103zm-95.983 11.873c2.768-.586 5.154-3.074 5.496-5.731-4.354 2.508-5.288 3.483-5.496 5.731zm-2.562 20.802c-.099.546-.28 1.657-.506 2.76-.643 3.132-2.034 5.975-3.452 8.804-1.218 2.428-3.483 3.162-5.921 3.237-1.383.046-2.641-.712-3.091-2.217-.29-.969-.676-1.979-.64-2.959.193-5.104.732-10.153 3.271-14.743.821-1.484 1.693-2.938 3.095-3.979 2.143-1.597 4.489-1.116 5.609 1.307 1.049 2.267 1.614 4.688 1.635 7.79zm-4.773-7.92c-1.35.529-1.92 1.55-2.473 2.517-2.722 4.752-3.553 9.969-3.656 15.353-.023 1.188.429 2.167 1.245 3.025 1.766-.118 2.763-1.076 3.517-2.434 1.89-3.399 3.275-7.007 3.632-10.876.229-2.471-.34-4.934-1.576-7.162-.092-.164-.364-.23-.689-.423zm59.704 23.459c-.5.136-.919.315-1.351.352-.304.026-.626-.137-1.129-.26-.073-3.709.387-7.388.674-11.188-2.675-.865-5.344-.284-8.036-1.107.239-.693.311-1.376.669-1.842 1.103-1.438 2.342-2.769 3.475-4.182 1.486-1.854 2.92-3.748 4.377-5.624.418-.537.8-1.104 1.264-1.596.478-.511 1.133-.944 1.776-.46.371.277.664.929.649 1.402-.029 1.008-.336 2.006-.434 3.017-.216 2.226-1.011 4.4-.71 6.835 1.097.054 2.084.052 3.056.179.417.052.932.272 1.156.592.164.229.009 1.042-.149 1.091-1.287.371-2.61.623-4.152.962-.377 3.924-.754 7.845-1.135 11.829zm-1.524-19.181c-1.658 2.002-2.967 3.184-3.78 4.896 1.247.533 2.276.456 3.439 0 .414-1.357.309-2.737.341-4.896zm-96.464 16.024c1.559.117 2.569.167 3.572.279.899.104 1.793.257 2.683.418.632.115 1.027.566 1.037 1.166.012.664-.516.997-1.127.994-2.375-.012-4.75-.058-7.122-.108-.452-.008-.907-.053-1.353-.128-1.521-.254-1.93-1.136-1.07-2.387 1.859-2.703 3.756-5.38 5.622-8.077 1.094-1.583 2.217-3.149 3.221-4.788.889-1.45 1.622-3.014 1.589-4.765-.009-.47-.355-1.142-.743-1.344-.405-.208-1.164-.139-1.559.126-.636.426-1.19 1.049-1.622 1.694-1.006 1.501-1.915 3.066-2.873 4.599-.337.541-.915.857-1.42.51-.381-.261-.744-.931-.687-1.365.101-.756.442-1.523.843-2.188.581-.966 1.318-1.834 1.963-2.764.958-1.381 2.302-2.098 3.911-2.481 2.847-.678 5.075 1.144 4.587 4.054-.274 1.638-.931 3.274-1.72 4.746-1.01 1.888-2.325 3.611-3.508 5.406-1.297 1.97-2.597 3.936-4.224 6.403zm64.588-17.074c-.586.661-1.139 1.354-1.771 1.963-.306.296-.74.522-1.153.609-.264.056-.678-.122-.869-.336-.191-.212-.2-.596-.257-.914-.018-.093.044-.229.112-.309 1.624-1.883 3.232-3.78 4.895-5.628.486-.541 1.189-.612 1.889-.368.77.272.989.905.938 1.622-.096 1.356-.241 2.709-.397 4.057-.286 2.472-.641 4.938-.884 7.413-.33 3.382-.583 6.769-.871 10.154-.019.225-.038.453-.092.673-.171.707-1.134 1.328-1.832 1.135-.646-.178-.839-.728-.812-1.324.046-1.018.13-2.034.226-3.049.49-5.17.988-10.34 1.483-15.508l-.605-.19zm54.939 8.126c-1.002-.032-1.843-.967-1.788-1.987.079-1.487 1.272-2.712 2.573-2.65 1.111.056 2.177 1.275 2.254 2.58.069 1.148-1.354 2.113-3.039 2.057zm-134.999 0c-1.002-.032-1.843-.967-1.788-1.987.079-1.487 1.273-2.712 2.573-2.65 1.111.056 2.177 1.275 2.254 2.58.068 1.148-1.355 2.113-3.039 2.057z" fill-rule="evenodd" clip-rule="evenodd" fill="#fff"/></svg>