<svg xmlns="http://www.w3.org/2000/svg" width="565.525" height="84.109"><g><g fill="#fff"><path d="M61.688 33.689c-2.625-2.516-5.305-4.393-8.039-5.633-2.734-1.239-5.615-1.859-8.641-1.859-4.703 0-8.486 1.449-11.348 4.348-2.862 2.898-4.293 6.754-4.293 11.566 0 4.703 1.367 8.458 4.102 11.265 2.734 2.808 6.398 4.211 10.992 4.211 2.771 0 5.587-.592 8.449-1.777s5.988-3.071 9.379-5.66l-.93 30.133c-3.136 1.276-6.271 2.233-9.406 2.871-3.136.638-6.271.957-9.406.957-3.901 0-7.656-.438-11.266-1.312s-6.873-2.114-9.789-3.719c-7.073-4.083-12.423-9.242-16.051-15.477-3.628-6.235-5.441-13.399-5.441-21.493 0-5.979 1.03-11.521 3.09-16.625 2.06-5.104 5.059-9.606 8.996-13.508 3.974-3.937 8.577-6.917 13.809-8.941 5.231-2.023 10.892-3.035 16.98-3.035 3.245 0 6.444.337 9.598 1.012 3.153.675 6.225 1.687 9.215 3.035v29.641zM64.369 75.141l9.188-22.422c4.12 2.881 7.793 4.986 11.02 6.316 3.227 1.331 6.243 1.996 9.051 1.996 1.969 0 3.518-.373 4.648-1.121 1.13-.747 1.695-1.759 1.695-3.035 0-2.224-2.826-3.919-8.477-5.086-1.823-.4-3.245-.711-4.266-.93-5.979-1.458-10.555-4.047-13.727-7.765-3.172-3.719-4.758-8.349-4.758-13.891 0-8.604 3.081-15.604 9.242-21 6.161-5.396 14.237-8.094 24.227-8.094 4.594 0 9.114.602 13.562 1.805 4.448 1.203 8.932 3.026 13.453 5.469l-8.75 20.945c-2.771-2.042-5.551-3.6-8.34-4.676-2.789-1.075-5.496-1.613-8.121-1.613-2.005 0-3.555.337-4.648 1.012-1.094.675-1.641 1.613-1.641 2.816 0 2.261 3.992 4.248 11.977 5.961 1.276.292 2.26.511 2.953.656 5.505 1.24 9.844 3.773 13.016 7.602s4.758 8.458 4.758 13.89c0 8.859-3.199 16.097-9.598 21.711-6.398 5.615-14.72 8.422-24.965 8.422-5.25 0-10.5-.747-15.75-2.242-5.249-1.493-10.499-3.736-15.749-6.726zM129.289 75.141l9.188-22.422c4.12 2.881 7.793 4.986 11.02 6.316 3.227 1.331 6.243 1.996 9.051 1.996 1.969 0 3.518-.373 4.648-1.121 1.13-.747 1.695-1.759 1.695-3.035 0-2.224-2.826-3.919-8.477-5.086-1.823-.4-3.245-.711-4.266-.93-5.979-1.458-10.555-4.047-13.727-7.765-3.172-3.719-4.758-8.349-4.758-13.891 0-8.604 3.081-15.604 9.242-21 6.161-5.396 14.237-8.094 24.227-8.094 4.594 0 9.114.602 13.562 1.805 4.448 1.203 8.932 3.026 13.453 5.469l-8.75 20.945c-2.771-2.042-5.551-3.6-8.34-4.676-2.789-1.075-5.496-1.613-8.121-1.613-2.005 0-3.555.337-4.648 1.012-1.094.675-1.641 1.613-1.641 2.816 0 2.261 3.992 4.248 11.977 5.961 1.276.292 2.26.511 2.953.656 5.505 1.24 9.844 3.773 13.016 7.602s4.758 8.458 4.758 13.89c0 8.859-3.199 16.097-9.598 21.711-6.398 5.615-14.72 8.422-24.965 8.422-5.25 0-10.5-.747-15.75-2.242-5.249-1.493-10.499-3.736-15.749-6.726zM258.667 33.689c-2.625-2.516-5.305-4.393-8.039-5.633-2.734-1.239-5.615-1.859-8.641-1.859-4.703 0-8.486 1.449-11.348 4.348-2.862 2.898-4.293 6.754-4.293 11.566 0 4.703 1.367 8.458 4.102 11.265 2.734 2.808 6.398 4.211 10.992 4.211 2.771 0 5.587-.592 8.449-1.777s5.988-3.071 9.379-5.66l-.93 30.133c-3.136 1.276-6.271 2.233-9.406 2.871-3.136.638-6.271.957-9.406.957-3.901 0-7.656-.438-11.266-1.312s-6.873-2.114-9.789-3.719c-7.073-4.083-12.423-9.242-16.051-15.477-3.628-6.234-5.441-13.398-5.441-21.492 0-5.979 1.03-11.521 3.09-16.625 2.06-5.104 5.059-9.606 8.996-13.508 3.974-3.938 8.577-6.918 13.809-8.941 5.231-2.023 10.892-3.035 16.98-3.035 3.245 0 6.444.337 9.598 1.012 3.153.675 6.225 1.687 9.215 3.035v29.64zM348.999 42.11c0 5.87-1.039 11.33-3.117 16.378-2.078 5.05-5.123 9.562-9.133 13.535-4.011 3.901-8.632 6.891-13.863 8.969-5.232 2.078-10.801 3.117-16.707 3.117-5.979 0-11.576-1.039-16.789-3.117-5.214-2.078-9.844-5.104-13.891-9.078-3.974-3.864-6.982-8.312-9.023-13.344-2.042-5.031-3.062-10.518-3.062-16.46s1.021-11.448 3.062-16.516c2.042-5.067 5.049-9.534 9.023-13.398 4.01-3.938 8.622-6.936 13.836-8.996 5.213-2.06 10.828-3.09 16.844-3.09s11.63 1.03 16.844 3.09c5.213 2.06 9.844 5.059 13.891 8.996 3.938 3.901 6.936 8.386 8.996 13.453 2.058 5.068 3.089 10.555 3.089 16.461zm-42.821 15.094c4.047 0 7.301-1.376 9.762-4.129 2.461-2.752 3.691-6.407 3.691-10.964 0-4.594-1.23-8.285-3.691-11.074s-5.715-4.184-9.762-4.184-7.31 1.404-9.789 4.211c-2.479 2.808-3.719 6.49-3.719 11.047s1.239 8.212 3.719 10.964c2.479 2.753 5.742 4.129 9.789 4.129zM353.245 81.977v-80.062h28.219l24.883 41.891c-.328-1.859-.556-3.919-.684-6.18-.128-2.26-.191-5.213-.191-8.859v-26.852h27.727v80.062h-28.439l-24.609-41.562c.292 1.787.51 3.71.656 5.769.146 2.061.219 4.366.219 6.918v28.875h-27.781zM439.061 81.977v-80.062h53.539v21.711h-24.719v9.297h22.367v20.507h-22.367v28.547h-28.82z"/></g><g fill="#FF8400"><path d="M494.011 81.978l12.744-35.742h14.307l12.5 35.742h-13.818l-1.147-4.492h-9.692l-1.099 4.492h-13.795zm17.041-12.988h5.347l-1.099-4.053c-.537-2.051-.903-3.63-1.099-4.736s-.317-2.148-.366-3.125h-.22c-.049.977-.171 2.019-.366 3.125s-.562 2.686-1.099 4.736l-1.098 4.053zM532.689 65.621v-19.385h12.842v19.482c0 2.263.269 3.82.806 4.675s1.457 1.282 2.759 1.282c1.286 0 2.206-.439 2.758-1.318.554-.879.83-2.425.83-4.639v-19.482h12.842v19.385c0 2.539-.166 4.631-.5 6.274s-.867 3.02-1.6 4.126c-1.432 2.229-3.385 3.938-5.859 5.127-2.474 1.188-5.297 1.782-8.471 1.782-3.19 0-6.022-.595-8.496-1.782-2.474-1.188-4.427-2.897-5.859-5.127-.716-1.091-1.237-2.449-1.562-4.077-.327-1.628-.49-3.735-.49-6.323z"/></g></g></svg>