<?xml version="1.0" encoding="utf-8"?>
<!-- Generator: Adobe Illustrator 17.1.0, SVG Export Plug-In . SVG Version: 6.00 Build 0)  -->
<!DOCTYPE svg PUBLIC "-//W3C//DTD SVG 1.1//EN" "http://www.w3.org/Graphics/SVG/1.1/DTD/svg11.dtd">
<svg version="1.1" id="Layer_1" xmlns="http://www.w3.org/2000/svg" xmlns:xlink="http://www.w3.org/1999/xlink" x="0px" y="0px"
	 viewBox="0 0 297.733 155.895" enable-background="new 0 0 297.733 155.895" xml:space="preserve">
<path fill-rule="evenodd" clip-rule="evenodd" fill="#FFFFFF" d="M132.695,81.31c-3.502,3.695-7.838,7.705-11.39,11.459
	c0.084,0.538,0.12,1.037,0.242,1.514c1.42,5.534,3.39,10.817,3.732,16.523c0.387,6.44-1.225,12.309-5.553,17.284
	c-2.493,2.866-5.795,4.454-9.385,4.536c-5.709,0.13-10.583-3.678-11.864-8.756c-1.004-3.981-0.623-7.935,0.272-11.815
	c1.369-5.938,3.993-11.313,7.985-15.971c1.453-1.695,2.93-3.369,4.448-5.111c-0.838-3.029-1.67-6.033-2.576-9.305
	c-1.518,1.151-2.702,2.359-3.818,3.651c-3.667,4.239-7.337,8.477-11.024,12.698c-1.406,1.609-2.863,3.173-4.312,4.773
	c0.027,1.585,0.63,3.604,1.103,5.04c1.29,4.431,1.715,8.196,2.053,12.669c0.107,1.421,0.166,2.85,0.188,4.275
	c0.13,8.428-1.448,16.435-6.132,23.594c-4.413,6.742-13.238,9.109-19.64,6.471c-2.241-0.924-4.042-2.301-5.343-4.361
	c-3.175-5.031-3.8-10.485-2.464-16.148c1.691-7.176,5.27-13.421,9.965-19.054c3.067-3.682,6.246-7.252,9.632-10.656
	c2.372-2.386,2.493-1.604,1.538-5.609c-0.606-2.546-1.387-5.832-1.984-8.306c-0.484,0.766-0.653,1.042-0.82,1.36
	c-0.378,0.722-0.717,1.464-1.054,2.206c-3.89,8.562-8.649,16.636-14.038,24.32c-3.099,4.418-4.999,6.975-8.782,11.323l-6.464,7.167
	c-4.257,4.091-6.342,6.999-12.53,11.54c-3.866,2.863-7.183,5.154-11.477,5.518c-6.564,0.557-12.46-1.997-16.422-7.067
	c-3.947-5.052-5.605-10.979-6.345-17.266c-0.722-6.132-0.431-7.816,0.022-13.906c0.165-2.221,0.722-6.452,1.503-11.007
	c0.723-4.215,2.652-9.39,3.979-13.455c3.352-8.934,6.693-15.723,11.412-23.962c1.649-2.572,3.117-5.262,4.743-7.85
	c1.028-1.638,2.138-3.231,3.314-4.766c1.982-2.588,4.142-5.045,6.049-7.686c2.259-2.773,4.432-5.043,6.813-7.41
	c2.24-2.226,3.367-3.393,5.85-5.368c2.914-2.317,6.997-4.853,10.642-5.483c5.178-0.897,9.721,0.968,13.198,5.26
	c2.25,2.969,2.786,4.806,3.086,8.529c0.256,3.19-0.459,7.264-1.286,10.32c-1.223,4.524-2.289,8.087-4.399,12.295
	c-1.874,3.737-4.057,7.298-6.68,10.566c-0.572,0.714-1.191,1.409-1.881,2.006c-1.632,1.41-4.062,1.297-5.526-0.261
	c-0.318-0.338-0.673-0.847-0.642-1.503c0.043-0.898,0.224-1.683,0.524-2.523c0.513-1.436,1.152-2.832,1.818-4.205
	c2.583-5.328,4.71-10.838,6.493-16.476c0.957-3.028,1.69-6.176,0.837-9.374c-0.917-3.436-3.678-5.445-7.094-4.375
	c-2.675,0.837-5.789,2.927-7.781,4.844c-2.862,2.753-4.875,4.938-7.602,8.448c-0.493,0.509-0.908,1.101-1.312,1.686
	C30.01,63.55,24.202,73.378,18.825,83.447c-1.871,3.505-3.269,6.387-4.853,10.259c-0.578,1.413-1.833,4.291-2.875,7.541
	c-2,6.542-2.493,11.241-2.5,18.25c-0.006,6.351,0.552,13.708,2.355,18.434c1.51,5.15,7.8,8.432,12.83,6.91
	c2.859-0.865,5.536-2.09,7.877-3.939c5.203-4.112,10.257-8.42,14.261-13.746c3.421-4.552,6.941-9.03,10.049-13.825
	c5.933-9.154,11.573-18.482,17.097-27.884c0.67-1.14,1.253-2.333,1.846-3.517c2.56-5.113,5.917-9.753,8.713-14.725
	c0.937-1.666,2.235-3.163,3.765-4.167c2.251-1.478,4.869-0.217,6.562,1c0.633,0.455,1.104,1.509,0.958,2.25
	c-0.156,0.791-0.365,1.263-0.747,1.959c-0.878,1.604-1.858,3.154-2.849,4.693c-1.103,1.711-2.355,3.33-3.381,5.084
	c-2.558,4.375-2.999,9.021-1.476,13.847c0.333,1.055,0.742,2.086,1.205,3.376c0.772-0.672,1.39-1.154,1.944-1.701
	c3.278-3.226,6.067-6.873,8.969-10.425c2.256-2.762,4.481-5.561,6.909-8.167c2.738-2.94,4.895-6.253,6.887-9.698
	c1.173-2.029,2.287-4.093,3.432-6.138c0.199-0.356,0.405-0.711,0.639-1.044c2.036-2.893,5.492-3.272,8.152,0.139
	c0.33,0.423,0.383,1.15,0.37,1.732c-0.031,1.365-1.236,2.825-1.97,3.946c-0.948,1.448-1.403,2.291-2.469,4.156
	c-1.536,2.992-2.61,4.879-3.781,7.469c-0.759,1.679-0.376,3.749,0.205,5.549c0.374,1.155,0.734,2.623,1.358,4.201
	c1.523-1.438,2.849-2.888,4.008-4.002c2.791-2.683,5.515-5.438,8.372-8.049c4.271-3.901,7.579-8.491,10.222-13.605
	c1.123-2.172,2.145-3.954,3.326-6.176c2.057-3.527,3.711-5.26,6.195-7.079c4.127-3.021,8.826-1.918,11.855,0.363
	c0.715,0.538,1.426,1.178,1.896,1.923c1.273,2.016,1.65,4.377,1.562,6.812c-0.193,5.265-1.373,9.218-3.498,14.038
	c-1.455,3.297-4.209,3.34-6.64,1.129c-0.596-0.543-0.844-1.202-0.676-1.914c0.234-0.982,0.553-1.963,0.98-2.875
	c0.965-2.054,1.547-4.201,1.842-6.439c0.18-1.354-0.031-2.649-0.654-3.857c-0.584-1.134-3.166-1.866-4.322-1.265
	c-0.854,0.312-1.748,1.065-2.375,1.708c-1.902,1.952-3.373,6.257-4.303,8.723c-2.156,5.721-2.852,9.392-4.51,15.907
	c-0.922,3.408-1.238,6.86-1.062,10.312c0.182,3.595,3.689,6.107,7.205,5.414c1.848-0.364,3.453-1.107,4.949-2.251
	c3.66-2.797,7.068-5.839,9.92-9.478c1.824-2.327,6.613-7.904,6.613-7.904s-0.072-0.294-0.107-1.192
	c-0.188-4.789,1.072-8.795,2.535-13.245c0.764-2.32,1.667-5.083,2.733-7.342c3.726-7.199,7.648-10.213,11.184-12.417
	c1.701-1.059,3.637-1.342,5.572-1.358c0.977-0.008,2.113,0.219,2.9,0.75c1.307,0.881,2.588,1.402,4.184,1.545
	c1.865,0.168,3.418,1.14,4.635,2.676c2.322,2.935,3.362,5.672,3.021,9.405c-0.041,0.47-0.006,0.948-0.006,1.779
	c1.006-0.685,1.824-1.102,2.469-1.706c3.711-3.471,7.824-6.509,11.148-10.404c0.988-1.157,2.168-2.157,3.311-3.171
	c0.605-0.537,1.283-1.02,1.994-1.405c2.553-1.275,5.385,0.106,5.709,2.959c0.172,1.047-0.969,3.594-1.406,5
	c1.203-1.047,3.648-3.095,4.43-3.851c2.434-2.356,5.188-4.267,8.16-5.875c1.385-0.749,2.873-1.049,4.418-1.049
	c2.309-0.001,3.803,1.232,4.4,3.458c0.553,2.064,0.164,4.061-0.412,6.021c-0.486,1.66-1.119,3.278-1.729,4.899
	c-1.754,4.67-2.321,6.073-4.065,10.747c-0.281,0.756-1.736,5.961-2.09,7.308c-0.428,2.137-0.597,2.612-0.972,4.718
	c-0.193,1.091-0.625,2.438,0.135,3.152c0.662,0.535,1.65,0.166,2.346-0.288c0.678-0.443,1.336-0.941,1.918-1.504
	c1.979-1.914,3.932-3.855,5.871-5.809c1.1-1.106,2.767-2.843,2.767-2.843s2.109-9.182,4.291-16.458
	c1.472-4.91,2.8-8.482,4.988-13.462c1.105-2.516,5.087-10.017,6.429-12.413c4.343-7.753,8.964-14.391,15.147-21.016
	c1.401-1.501,2.956-3.15,4.937-3.817c0.768-0.258,1.979-0.421,2.777-0.498c2.556,0,4.112,1.678,4.679,3.815
	c0.48,1.811,0.082,3.994-0.274,5.811c-1.135,5.796-2.054,9.535-4.14,15.08c-2.336,6.214-8.447,16.017-13.125,20.956
	c-3.791,4.002-4.478,4.989-8.478,8.76c-0.734,0.693-1.463,1.392-2.279,2.17c1.794,1.052,3.432,1.894,4.807,3.149
	c1.324,1.21,2.627,2.746,3.502,4.481c2.221-1.203,4.425-2.566,6.191-4.329c1.293-1.29,2.346-2.816,3.557-4.192
	c1.006-1.144,2.014-2.306,3.158-3.302c1.094-0.952,2.199-0.79,3.334,0.057c2.144,1.603,1.768,4.044,0.795,6.199
	c-0.625,1.385-1.379,2.749-2.295,3.954c-1.732,2.277-3.821,4.154-6.223,5.803c-2.205,1.514-4.143,2.764-6.594,3.854
	c-0.896,0.496-1.393,0.69-1.393,0.69s-0.516,4.884-0.629,6.609c-0.637,9.607-3.89,19.471-8.259,28.009
	c-2.09,4.084-3.545,7.013-6.305,10.703c-0.725,0.971-1.564,1.871-2.432,2.721c-3.479,3.404-8.744,1.545-10.279-2.47
	c-0.754-1.974-1.336-4.266-1.471-6.364c-0.254-3.959-0.312-7.491-0.205-11.459c0.072-2.641,0.48-5.273,0.777-7.905
	c0.502-4.447,1.199-9.551,1.756-14.297c-0.604,0.554-1.071,1.09-1.828,1.87c-1.271,1.312-1.869,1.836-3.512,3.185
	c-1.405,1.065-2.631,1.755-4.146,2.405c-2.875,1.234-6.484,0.358-8.025-3.396c-0.783-1.902-1.088-3.925-0.791-5.997
	c0.914-6.388,2.639-12.551,5.131-18.502c0.709-1.691,1.4-3.39,2.055-5.103c0.252-0.66,0.449-1.359,0.543-2.058
	c0.209-1.556-0.561-2.183-1.947-1.601c-0.65,0.274-1.271,0.642-1.863,1.032c-3.502,2.308-10.553,8.132-10.553,8.132
	s-0.664,1.741-0.953,2.375c-2.766,6.063-4.54,11.21-6.615,17.601c-0.816,2.513-1.678,5.026-2.693,7.468
	c-1.08,2.6-3.221,3.37-5.728,2.271c-1.371-0.602-2.285-1.244-1.932-2.761c0.623-2.668,1.386-4.961,2.523-7.828
	c2.673-6.448,4.714-12.171,6.852-18.218c0.227-0.638,0.756-2.389,0.938-3.329c-1.281,1.156-2.773,2.523-3.588,3.413
	c-3.34,3.642-7.043,6.79-11.697,8.646c-0.826,0.33-1.295,0.919-1.598,1.72c-0.611,1.619-1.248,3.227-1.877,4.839
	c-1.947,5.008-4.91,9.38-8.564,13.269c-2.25,2.396-4.959,4.21-8.109,5.291c-3.607,1.238-6.787,0.631-9.598-2.021
	c-1.416-1.335-2.447-2.796-3.281-5c-0.639,0.565-1.238,1.049-1.625,1.446c-4.764,4.89-9.621,9.684-14.789,14.147
	c-1.074,0.927-2.283,1.712-3.49,2.467c-4.625,2.891-10.822,1.585-14.752-2.186c-1.951-1.873-2.618-5.3-2.969-7.844
	c-0.419-3.042-0.227-5.254,0.281-8.406c0.357-1.682,0.517-3.723,0.812-5.438L132.695,81.31z M83.327,109.79
	c-0.908,0.99-1.668,1.838-2.121,2.367c-1.323,1.544-2.572,3.157-3.961,4.639c-2.38,2.539-4.302,5.405-6.195,8.298
	c-3.717,5.681-4.585,11.841-3.047,18.396c0.046,0.197,0.091,0.396,0.148,0.591c1.113,3.794,3.832,4.999,7.619,3.654
	c2.543-0.902,4.58-2.68,5.957-5.024c1.994-3.395,3.547-8.659,3.609-12.597c0.293-4.624-0.031-5.27-0.438-11.25
	C84.831,117.866,84.024,112.081,83.327,109.79z M193.38,67.724c-4.366-2.434-6.451-5.733-6.22-10.33
	c0.086-1.699,0.229-3.125,0.583-5.021c-0.711,0.528-1.359,1.177-1.82,1.661c-0.701,0.734-1.47,1.677-2.138,2.443
	c-4.594,5.42-6.667,11.42-7.188,18.289c-0.168,2.2,0.109,4.488,0.541,6.666c0.645,3.261,2.75,4.347,5.893,3.384
	c1.088-0.332,1.998-0.911,2.889-1.63c5.449-3.875,9.324-14.583,9.324-14.583L193.38,67.724z M258.306,85.67
	c-0.357,2.722-0.707,5.444-1.082,8.164c-0.777,5.649-1.017,10.024-0.48,15.726c0.041,0.423,0.062,2.396,0.932,2.533
	c0.985,0.217,1.479-1.242,1.797-1.824c1.172-2.136,2.146-4.178,3.126-6.403c1.104-2.508,1.947-5.13,2.983-7.669
	c1.812-4.441,3.201-9.012,4.096-13.716c0.525-2.771,1.299-5.396,1.4-8.941c-5.938-1.708-9.709-4.521-9.709-4.521
	S258.86,81.436,258.306,85.67z M114.889,99.123c-0.267,0.137-1.836,1.876-2.042,2.083c-4.832,4.876-7.257,10.546-7.87,17.375
	c-0.149,1.658,0.203,3.125,0.875,4.625c0.844,1.609,3.338,2.421,4.698,2.078c1.768-0.539,3.053-1.427,4.093-3.047
	c1.614-2.517,2.936-5.826,3.038-8.863C118.223,105.831,114.889,99.123,114.889,99.123z M266.431,48.956c0,0,3.949-3.042,4-3.083
	c4.166-3.771,6.885-7.542,10.104-12.167c3.445-5.917,7.5-13.021,9.646-19.5c0.164-0.545,1.417-3.751-0.125-4.542
	c-1.688-0.75-3.751,2.597-4.125,3.125c-0.644,0.91-3.039,4.195-3.625,5.125c-1.682,2.67-3.918,5.807-5.416,8.583
	c-3.096,5.737-2.917,5.065-5.792,10.917c-1.75,3.562-2.447,5.229-3.542,7.75C266.243,48.331,266.431,48.956,266.431,48.956z
	 M198.41,60.081c0.656-1.393,0.758-3.158,0.555-4.69c-0.066-0.491-0.221-0.996-0.451-1.435c-0.578-1.106-2.673-1.119-3.511-0.208
	c-1.086,1.181-1.172,2.521-0.621,3.965C194.929,59.145,196.513,60.343,198.41,60.081z"/>
<path fill-rule="evenodd" clip-rule="evenodd" fill="#FFFFFF" d="M237.253,93.934c1.271-0.149,2.176-0.133,2.959,0.069
	c1.432,0.37,2.295,2.283,2.244,3.777c-0.031,0.882-0.777,1.828-1.548,2.209c-1.545,0.761-3.051,1.354-4.774,1.889
	c-6.75,1.781-13.072,3.056-19.795,4.688c-4.152,1.007-8.262,2.189-12.363,3.383c-7.82,2.276-15.631,4.578-23.422,6.949
	c-4.088,1.243-8.123,2.656-12.182,3.992c-1.245,0.409-2.023,0.844-5.807,1.885c-4.269,1.376-7.916,2.838-12.336,4.46
	c-7.803,3.498-15.654,6.914-23.287,10.755c-6.814,3.429-13.497,7.148-19.899,11.335c-1.268,0.83-2.675,1.461-4.062,2.088
	c-1.086,0.492-2.186,0.383-3.183-0.346c-0.537-0.391-0.97-1.339-0.6-1.861c0.521-0.736,1.25-1.239,1.953-1.786
	c2.168-1.686,4.419-3.263,6.625-4.901c4.102-3.044,8.596-5.45,13.005-7.993c3.175-1.831,6.371-3.629,9.591-5.379
	c1.785-0.97,3.628-1.836,5.466-2.702c5.43-2.562,10.824-5.203,16.316-7.621c7.361-3.241,14.96-5.699,22.697-8.062
	c3.879-1.223,7.512-2.562,11.287-3.783c6.13-1.984,12.217-3.659,18.379-5.012c2.68-0.587,5.135-1.461,7.797-2.131
	c5.818-1.465,11.65-2.868,17.475-4.305c1.482-0.365,2.949-0.798,4.439-1.124C235.315,94.17,236.433,94.059,237.253,93.934z"/>
</svg>
