<svg xmlns="http://www.w3.org/2000/svg" viewBox="302.5 1002.7 1397 730.8" enable-background="new 302.5 1002.7 1397 730.8"><path fill="#fff" d="M925.3 1384.2c-16.5 17.2-36.8 36.2-53.3 53.7.3 2.5.6 4.8 1.3 7 6.7 26 15.9 50.8 17.5 77.5 1.9 30.2-5.7 57.8-26 81-11.7 13.3-27.3 21-44.1 21.3-26.7.6-49.5-17.2-55.6-41-4.8-18.7-2.9-37.2 1.3-55.3 6.4-28 18.7-53 37.5-75 7-7.9 13.7-15.9 21-23.8l-12.1-43.5c-7 5.4-12.7 11.1-17.8 17.2-17.1 19.7-34.3 39.7-51.8 59.4-6.7 7.6-13.3 14.9-20.3 22.2 0 7.3 2.9 16.8 5.1 23.5 6 20.6 7.9 38.4 9.5 59.4.6 6.7 1 13.3 1 20 .6 39.4-6.7 76.9-28.9 110.5-20.6 31.8-62.2 42.6-92.1 30.2-10.5-4.4-19.1-10.8-25.1-20.3-14.9-23.5-17.8-49.2-11.4-75.6 7.9-33.7 24.8-62.9 46.7-89.3 14.3-17.2 29.2-34 45.1-49.9 11.1-11.1 11.7-7.6 7.3-26.4-2.9-12.1-6.4-27.3-9.2-39.1-2.2 3.5-3.2 4.8-3.8 6.4-1.6 3.5-3.5 7-5.1 10.2-18.4 40-40.6 77.8-65.7 114-14.6 20.6-23.5 32.7-41.3 53l-30.5 33.7c-20 19.1-29.8 32.7-58.7 54-18.1 13.3-33.7 24.1-54 25.7-30.8 2.5-58.4-9.5-77.2-33-18.4-23.8-26.4-51.5-29.8-81-3.5-28.6-1.9-36.5 0-65.1 1-10.5 3.5-30.2 7-51.5 3.5-19.7 12.4-44.2 18.7-63.2 15.6-41.9 31.4-73.7 53.7-112.1l22.2-36.8c4.8-7.6 10.2-15.2 15.6-22.2 9.2-12.1 19.4-23.5 28.3-35.9 10.5-13 21-23.5 32.1-34.6 10.5-10.5 15.9-15.9 27.3-25.1 13.7-10.8 32.7-22.9 49.9-25.7 24.4-4.1 45.7 4.4 61.9 24.8 10.5 14 13 22.6 14.6 40 1.3 14.9-2.2 34-6 48.3-5.7 21.3-10.8 37.8-20.6 57.5-8.9 17.5-19.1 34.3-31.4 49.6-2.5 3.5-5.7 6.7-8.9 9.5-7.6 6.7-19.1 6-26-1.3-1.6-1.6-3.2-4.1-2.9-7 .3-4.1 1-7.9 2.5-11.8 2.5-6.7 5.4-13.3 8.6-19.7 12.1-25.1 22.2-50.8 30.5-77.2 4.4-14.3 7.9-28.9 3.8-43.8-4.4-16.2-17.1-25.4-33.3-20.6-12.7 3.8-27 13.7-36.5 22.6-13.3 13-22.9 23.2-35.6 39.7-2.2 2.5-4.4 5.1-6 7.9-30.5 44.2-57.8 90.2-82.9 137.2-8.9 16.5-15.2 29.9-22.9 48-2.5 6.7-8.6 20-13.3 35.3-9.5 30.8-11.7 52.7-11.7 85.4 0 29.9 2.5 64.2 11.1 86.4 7 24.1 36.5 39.4 60 32.4 13.3-4.1 26-9.8 36.8-18.4 24.4-19.4 47.9-39.4 67-64.5 16.2-21.3 32.7-42.2 47-64.8 27.9-42.9 54.3-86.7 80.3-130.6 3.2-5.4 6-10.8 8.6-16.5 12.1-23.8 27.9-45.7 41-68.9 4.4-7.6 10.5-14.9 17.8-19.7 10.5-7 22.9-1 30.8 4.8 2.9 2.2 5.1 7 4.4 10.5-.6 3.8-1.6 6-3.5 9.2-4.1 7.6-8.6 14.6-13.3 21.9-5.1 7.9-11.1 15.6-15.9 23.8-12.1 20.6-14 42.2-7 64.8 1.6 5.1 3.5 9.8 5.7 15.9 3.5-3.2 6.7-5.4 9.2-7.9 15.2-15.2 28.6-32.1 41.9-48.9 10.5-13 21-26 32.4-38.4 13-13.7 22.9-29.2 32.4-45.4 5.4-9.5 10.8-19.1 16.2-28.9 1-1.6 1.9-3.5 2.9-4.8 9.5-13.7 25.7-15.2 38.4.6 1.6 1.9 1.9 5.4 1.6 8.3 0 6.4-5.7 13.3-9.2 18.4-4.4 6.7-6.7 10.8-11.4 19.4-7.3 14-12.1 22.9-17.8 34.9-3.5 7.9-1.6 17.5 1 26 1.6 5.4 3.5 12.4 6.3 19.7 7-6.7 13.3-13.7 18.7-18.7 13-12.7 26-25.4 39.4-37.8 20-18.4 35.6-39.7 47.9-63.8 5.1-10.2 10.2-18.4 15.6-28.9 9.5-16.5 17.5-24.8 28.9-33.4 19.4-14.3 41.3-8.9 55.6 1.6 3.5 2.5 6.7 5.4 8.9 8.9 6 9.5 7.6 20.6 7.3 31.8-1 24.8-6.3 43.2-16.5 65.8-7 15.6-19.7 15.6-31.1 5.4-2.9-2.5-3.8-5.7-3.2-8.9 1-4.4 2.5-9.2 4.4-13.3 4.4-9.5 7.3-19.7 8.6-30.2 1-6.4 0-12.4-3.2-18.1-2.9-5.4-14.9-8.6-20.3-6-4.1 1.6-8.3 5.1-11.1 7.9-8.9 9.2-15.9 29.2-20 41-10.2 26.7-13.3 44.2-21.3 74.6-4.4 15.9-5.7 32.1-5.1 48.3 1 16.8 17.5 28.6 34 25.4 8.6-1.6 16.2-5.1 23.2-10.5 17.1-13 33-27.3 46.7-44.5 8.6-10.8 31.1-37.2 31.1-37.2s-.3-1.3-.6-5.7c-1-22.6 5.1-41.3 11.7-61.9 3.5-10.8 7.9-23.8 12.7-34.3 17.5-33.7 35.9-48 52.4-58.1 7.9-5.1 17.1-6.4 26-6.4 4.4 0 9.8 1 13.7 3.5 6 4.1 12.1 6.7 19.7 7.3 8.6 1 15.9 5.4 21.9 12.7 10.8 13.7 15.9 26.7 14.3 44.2-.3 2.2 0 4.4 0 8.3 4.8-3.2 8.6-5.1 11.4-7.9 17.5-16.2 36.8-30.5 52.4-48.6 4.8-5.4 10.2-10.2 15.6-14.9 2.9-2.5 6-4.8 9.5-6.7 12.1-6 25.4.6 26.7 14 1 5.1-4.4 16.8-6.7 23.5 5.7-5.1 17.1-14.6 21-18.1 11.4-11.1 24.4-20 38.4-27.6 6.3-3.5 13.3-5.1 20.6-5.1 10.8 0 17.8 5.7 20.6 16.2 2.5 9.5 1 19.1-1.9 28.3-2.2 7.6-5.1 15.2-7.9 22.9l-19.1 50.5c-1.3 3.5-8.3 28-9.8 34.3-1.9 10.2-2.9 12.1-4.4 22.2-1 5.1-2.9 11.4.6 14.6 3.2 2.5 7.6 1 11.1-1.3 3.2-2.2 6.3-4.4 8.9-7 9.2-8.9 18.4-18.1 27.6-27.3 5.1-5.1 13-13.3 13-13.3s9.8-42.9 20-77.2c7-23.2 13-39.7 23.5-63.2 5.1-11.8 23.8-47 30.2-58.1 20.3-36.2 41.9-67.3 71.1-98.5 6.7-7 14-14.6 23.2-17.8 3.5-1.3 9.2-1.9 13-2.2 12.1 0 19.4 7.9 21.9 17.8 2.2 8.6.3 18.7-1.3 27.3-5.4 27.3-9.5 44.8-19.4 70.5-11.1 29.2-39.7 75-61.6 98.2-17.8 18.7-21 23.5-39.7 41-3.5 3.2-7 6.7-10.8 10.2 8.6 5.1 16.2 8.9 22.5 14.6 6 5.7 12.4 12.7 16.5 21 10.5-5.7 20.6-12.1 28.9-20.3 6-6 11.1-13.3 16.5-19.7 4.8-5.4 9.5-10.8 14.9-15.6 5.1-4.4 10.5-3.8 15.6.3 10.2 7.6 8.3 19.1 3.8 28.9-2.9 6.4-6.3 12.7-10.8 18.4-8.3 10.8-17.8 19.4-29.2 27.3-10.5 7-19.4 13-30.8 18.1-4.1 2.2-6.7 3.2-6.7 3.2s-2.5 22.9-2.9 30.8c-2.9 45.1-18.4 91.2-38.7 131.2-9.8 19.1-16.5 32.7-29.5 50.2-3.5 4.4-7.3 8.9-11.4 12.7-16.2 15.9-41 7.3-48.3-11.4-3.5-9.2-6.3-20-7-29.9-1.3-18.4-1.6-34.9-1-53.7.3-12.4 2.2-24.8 3.5-37.2 2.2-21 5.7-44.8 8.3-67-2.9 2.5-5.1 5.1-8.6 8.9-6 6-8.9 8.6-16.5 14.9-6.7 5.1-12.4 8.3-19.4 11.1-13.3 5.7-30.5 1.6-37.8-15.9-3.5-8.9-5.1-18.4-3.8-28.3 4.4-29.9 12.4-58.8 24.1-86.7 3.5-7.9 6.7-15.9 9.5-23.8 1.3-3.2 2.2-6.4 2.5-9.5 1-7.3-2.5-10.2-9.2-7.6-3.2 1.3-6 2.9-8.6 4.8-16.5 10.8-49.5 38.1-49.5 38.1s-3.2 8.3-4.4 11.1c-13 28.3-21.3 52.4-31.1 82.6-3.8 11.8-7.9 23.5-12.7 34.9-5.1 12.1-15.2 15.9-27 10.5-6.3-2.9-10.8-5.7-9.2-13 2.9-12.4 6.3-23.2 11.7-36.8 12.4-30.2 22.2-57.2 32.1-85.4 1-2.9 3.5-11.1 4.4-15.6-6 5.4-13 11.8-16.8 15.9-15.6 17.2-33 31.8-54.9 40.7-3.8 1.6-6 4.1-7.6 7.9-2.9 7.6-5.7 15.2-8.9 22.6-9.2 23.5-23.2 43.8-40 62.3-10.5 11.1-23.2 19.7-38.1 24.8-16.8 5.7-31.8 2.9-45.1-9.5-6.7-6.4-11.4-13-15.6-23.5-2.9 2.5-5.7 5.1-7.6 6.7-22.2 22.9-45.1 45.4-69.5 66.4-5.1 4.4-10.8 7.9-16.5 11.4-21.6 13.7-50.8 7.3-69.2-10.2-9.2-8.9-12.4-24.8-14-36.8-1.9-14.3-1-24.8 1.3-39.4 1.6-7.9 2.5-17.5 3.8-25.4l-2.9 6zm-231.8 133.1c-4.4 4.8-7.9 8.6-9.8 11.1-6 7.3-12.1 14.9-18.4 21.6-11.1 12.1-20 25.4-28.9 38.8-17.5 26.7-21.6 55.6-14.3 86.1l.6 2.9c5.1 17.8 18.1 23.5 35.9 17.2 12.1-4.1 21.6-12.7 27.9-23.5 9.5-15.9 16.5-40.7 16.8-59.1 1.3-21.6 0-24.8-1.9-52.7-.6-4.2-4.7-31.6-7.9-42.4zm516.6-196.9c-20.6-11.4-30.2-27-29.2-48.3.3-7.9 1-14.6 2.9-23.5-3.5 2.5-6.3 5.4-8.6 7.6l-10.2 11.4c-21.6 25.4-31.4 53.4-33.7 85.8-1 10.2.6 21 2.5 31.1 3.2 15.2 13 20.3 27.6 15.9 5.1-1.6 9.5-4.1 13.7-7.6 25.4-18.1 43.8-68.3 43.8-68.3l-8.8-4.1zm304.5 84.2l-5.1 38.1c-3.5 26.4-4.8 47-2.2 73.7.3 1.9.3 11.1 4.4 11.8 4.8 1 7-5.7 8.6-8.6 5.4-10.2 10.2-19.7 14.6-29.9 5.1-11.8 9.2-24.1 14-35.9 8.6-20.6 14.9-42.2 19.1-64.2 2.5-13 6-25.4 6.7-41.9-27.9-7.9-45.4-21.3-45.4-21.3s-12.1 58.2-14.7 78.2zm-672.8 62.9c-1.3.6-8.6 8.9-9.5 9.8-22.5 22.9-34 49.6-36.8 81.3-.6 7.6 1 14.6 4.1 21.6 3.8 7.6 15.6 11.4 21.9 9.8 8.3-2.5 14.3-6.7 19.1-14.3 7.6-11.8 13.7-27.3 14.3-41.6 2.5-35.2-13.1-66.6-13.1-66.6zm710.9-235.1s18.4-14.3 18.7-14.6c19.7-17.8 32.4-35.3 47.3-57.2 16.2-27.6 35.2-61 45.4-91.5 1-2.5 6.7-17.5-.6-21.3-7.9-3.5-17.5 12.1-19.4 14.6-3.2 4.1-14.3 19.7-17.1 23.8-7.9 12.4-18.4 27.3-25.4 40-14.6 27-13.7 23.8-27.3 51.1-8.3 16.8-11.4 24.5-16.5 36.2-6 16-5.1 18.9-5.1 18.9zm-319.1 52.1c3.2-6.7 3.5-14.9 2.5-21.9-.3-2.2-1-4.8-2.2-6.7-2.5-5.1-12.4-5.1-16.5-1-5.1 5.4-5.4 11.8-2.9 18.7 2.6 6.5 10.2 12.2 19.1 10.9zm182.3 159.5c6-.6 10.2-.6 14 .3 6.7 1.6 10.8 10.8 10.5 17.8 0 4.1-3.5 8.6-7.3 10.2-7.3 3.5-14.3 6.4-22.5 8.9-31.8 8.3-61.3 14.3-93 21.9-19.4 4.8-38.7 10.2-58.1 15.9-36.8 10.8-73.3 21.6-109.9 32.7-19.4 5.7-38.1 12.4-57.2 18.7-5.7 1.9-9.5 3.8-27.3 8.9-20 6.4-37.2 13.3-57.8 21-36.5 16.5-73.3 32.4-109.2 50.5-32.1 16.2-63.2 33.7-93.4 53-6 3.8-12.7 7-19.1 9.8-5.1 2.2-10.2 1.9-14.9-1.6-2.5-1.9-4.4-6.4-2.9-8.6 2.5-3.5 6-5.7 9.2-8.3 10.2-7.9 20.6-15.2 31.1-22.9 19.4-14.3 40.3-25.4 61-37.5 14.9-8.6 29.8-17.2 45.1-25.1 8.3-4.4 17.1-8.6 25.7-12.7 25.4-12.1 50.8-24.5 76.5-35.6 34.6-15.2 70.2-26.7 106.4-37.8 18.1-5.7 35.2-12.1 53-17.8 28.9-9.2 57.5-17.2 86.4-23.5 12.7-2.9 24.1-7 36.5-9.8l81.9-20.3c7-1.6 14-3.8 21-5.1 5.4-2.1 10.5-2.7 14.3-3z"/></svg>