<svg xmlns="http://www.w3.org/2000/svg" viewBox="-220 965 440 230" enable-background="new -220 965 440 230"><path fill="#fff" d="M-23.9 1085c-5.2 5.4-11.6 11.4-16.8 16.9.1.8.2 1.5.4 2.2 2.1 8.2 5 16 5.5 24.4.6 9.5-1.8 18.2-8.2 25.5-3.7 4.2-8.6 6.6-13.9 6.7-8.4.2-15.6-5.4-17.5-12.9-1.5-5.9-.9-11.7.4-17.4 2-8.8 5.9-16.7 11.8-23.6 2.2-2.5 4.3-5 6.6-7.5l-3.8-13.7c-2.2 1.7-4 3.5-5.6 5.4-5.4 6.2-10.8 12.5-16.3 18.7-2.1 2.4-4.2 4.7-6.4 7 0 2.3.9 5.3 1.6 7.4 1.9 6.5 2.5 12.1 3 18.7.2 2.1.3 4.2.3 6.3.2 12.4-2.1 24.2-9.1 34.8-6.5 10-19.6 13.4-29 9.5-3.3-1.4-6-3.4-7.9-6.4-4.7-7.4-5.6-15.5-3.6-23.8 2.5-10.6 7.8-19.8 14.7-28.1 4.5-5.4 9.2-10.7 14.2-15.7 3.5-3.5 3.7-2.4 2.3-8.3-.9-3.8-2-8.6-2.9-12.3-.7 1.1-1 1.5-1.2 2-.5 1.1-1.1 2.2-1.6 3.2-5.8 12.6-12.8 24.5-20.7 35.9-4.6 6.5-7.4 10.3-13 16.7l-9.6 10.6c-6.3 6-9.4 10.3-18.5 17-5.7 4.2-10.6 7.6-17 8.1-9.7.8-18.4-3-24.3-10.4-5.8-7.5-8.3-16.2-9.4-25.5-1.1-9-.6-11.5 0-20.5.3-3.3 1.1-9.5 2.2-16.2 1.1-6.2 3.9-13.9 5.9-19.9 4.9-13.2 9.9-23.2 16.9-35.3l7-11.6c1.5-2.4 3.2-4.8 4.9-7 2.9-3.8 6.1-7.4 8.9-11.3 3.3-4.1 6.6-7.4 10.1-10.9 3.3-3.3 5-5 8.6-7.9 4.3-3.4 10.3-7.2 15.7-8.1 7.7-1.3 14.4 1.4 19.5 7.8 3.3 4.4 4.1 7.1 4.6 12.6.4 4.7-.7 10.7-1.9 15.2-1.8 6.7-3.4 11.9-6.5 18.1-2.8 5.5-6 10.8-9.9 15.6-.8 1.1-1.8 2.1-2.8 3-2.4 2.1-6 1.9-8.2-.4-.5-.5-1-1.3-.9-2.2.1-1.3.3-2.5.8-3.7.8-2.1 1.7-4.2 2.7-6.2 3.8-7.9 7-16 9.6-24.3 1.4-4.5 2.5-9.1 1.2-13.8-1.4-5.1-5.4-8-10.5-6.5-4 1.2-8.5 4.3-11.5 7.1-4.2 4.1-7.2 7.3-11.2 12.5-.7.8-1.4 1.6-1.9 2.5-9.6 13.9-18.2 28.4-26.1 43.2-2.8 5.2-4.8 9.4-7.2 15.1-.8 2.1-2.7 6.3-4.2 11.1-3 9.7-3.7 16.6-3.7 26.9 0 9.4.8 20.2 3.5 27.2 2.2 7.6 11.5 12.4 18.9 10.2 4.2-1.3 8.2-3.1 11.6-5.8 7.7-6.1 15.1-12.4 21.1-20.3 5.1-6.7 10.3-13.3 14.8-20.4 8.8-13.5 17.1-27.3 25.3-41.1 1-1.7 1.9-3.4 2.7-5.2 3.8-7.5 8.8-14.4 12.9-21.7 1.4-2.4 3.3-4.7 5.6-6.2 3.3-2.2 7.2-.3 9.7 1.5.9.7 1.6 2.2 1.4 3.3-.2 1.2-.5 1.9-1.1 2.9-1.3 2.4-2.7 4.6-4.2 6.9-1.6 2.5-3.5 4.9-5 7.5-3.8 6.5-4.4 13.3-2.2 20.4.5 1.6 1.1 3.1 1.8 5 1.1-1 2.1-1.7 2.9-2.5 4.8-4.8 9-10.1 13.2-15.4 3.3-4.1 6.6-8.2 10.2-12.1 4.1-4.3 7.2-9.2 10.2-14.3 1.7-3 3.4-6 5.1-9.1.3-.5.6-1.1.9-1.5 3-4.3 8.1-4.8 12.1.2.5.6.6 1.7.5 2.6 0 2-1.8 4.2-2.9 5.8-1.4 2.1-2.1 3.4-3.6 6.1-2.3 4.4-3.8 7.2-5.6 11-1.1 2.5-.5 5.5.3 8.2.5 1.7 1.1 3.9 2 6.2 2.2-2.1 4.2-4.3 5.9-5.9 4.1-4 8.2-8 12.4-11.9 6.3-5.8 11.2-12.5 15.1-20.1 1.6-3.2 3.2-5.8 4.9-9.1 3-5.2 5.5-7.8 9.1-10.5 6.1-4.5 13-2.8 17.5.5 1.1.8 2.1 1.7 2.8 2.8 1.9 3 2.4 6.5 2.3 10-.3 7.8-2 13.6-5.2 20.7-2.2 4.9-6.2 4.9-9.8 1.7-.9-.8-1.2-1.8-1-2.8.3-1.4.8-2.9 1.4-4.2 1.4-3 2.3-6.2 2.7-9.5.3-2 0-3.9-1-5.7-.9-1.7-4.7-2.7-6.4-1.9-1.3.5-2.6 1.6-3.5 2.5-2.8 2.9-5 9.2-6.3 12.9-3.2 8.4-4.2 13.9-6.7 23.5-1.4 5-1.8 10.1-1.6 15.2.3 5.3 5.5 9 10.7 8 2.7-.5 5.1-1.6 7.3-3.3 5.4-4.1 10.4-8.6 14.7-14 2.7-3.4 9.8-11.7 9.8-11.7s-.1-.4-.2-1.8c-.3-7.1 1.6-13 3.7-19.5 1.1-3.4 2.5-7.5 4-10.8 5.5-10.6 11.3-15.1 16.5-18.3 2.5-1.6 5.4-2 8.2-2 1.4 0 3.1.3 4.3 1.1 1.9 1.3 3.8 2.1 6.2 2.3 2.7.3 5 1.7 6.9 4 3.4 4.3 5 8.4 4.5 13.9-.1.7 0 1.4 0 2.6 1.5-1 2.7-1.6 3.6-2.5 5.5-5.1 11.6-9.6 16.5-15.3 1.5-1.7 3.2-3.2 4.9-4.7.9-.8 1.9-1.5 3-2.1 3.8-1.9 8 .2 8.4 4.4.3 1.6-1.4 5.3-2.1 7.4 1.8-1.6 5.4-4.6 6.6-5.7 3.6-3.5 7.7-6.3 12.1-8.7 2-1.1 4.2-1.6 6.5-1.6 3.4 0 5.6 1.8 6.5 5.1.8 3 .3 6-.6 8.9-.7 2.4-1.6 4.8-2.5 7.2l-6 15.9c-.4 1.1-2.6 8.8-3.1 10.8-.6 3.2-.9 3.8-1.4 7-.3 1.6-.9 3.6.2 4.6 1 .8 2.4.3 3.5-.4 1-.7 2-1.4 2.8-2.2 2.9-2.8 5.8-5.7 8.7-8.6 1.6-1.6 4.1-4.2 4.1-4.2s3.1-13.5 6.3-24.3c2.2-7.3 4.1-12.5 7.4-19.9 1.6-3.7 7.5-14.8 9.5-18.3 6.4-11.4 13.2-21.2 22.4-31 2.1-2.2 4.4-4.6 7.3-5.6 1.1-.4 2.9-.6 4.1-.7 3.8 0 6.1 2.5 6.9 5.6.7 2.7.1 5.9-.4 8.6-1.7 8.6-3 14.1-6.1 22.2-3.5 9.2-12.5 23.6-19.4 30.9-5.6 5.9-6.6 7.4-12.5 12.9-1.1 1-2.2 2.1-3.4 3.2 2.7 1.6 5.1 2.8 7.1 4.6 1.9 1.8 3.9 4 5.2 6.6 3.3-1.8 6.5-3.8 9.1-6.4 1.9-1.9 3.5-4.2 5.2-6.2 1.5-1.7 3-3.4 4.7-4.9 1.6-1.4 3.3-1.2 4.9.1 3.2 2.4 2.6 6 1.2 9.1-.9 2-2 4-3.4 5.8-2.6 3.4-5.6 6.1-9.2 8.6-3.3 2.2-6.1 4.1-9.7 5.7-1.3.7-2.1 1-2.1 1s-.8 7.2-.9 9.7c-.9 14.2-5.8 28.7-12.2 41.3-3.1 6-5.2 10.3-9.3 15.8-1.1 1.4-2.3 2.8-3.6 4-5.1 5-12.9 2.3-15.2-3.6-1.1-2.9-2-6.3-2.2-9.4-.4-5.8-.5-11-.3-16.9.1-3.9.7-7.8 1.1-11.7.7-6.6 1.8-14.1 2.6-21.1-.9.8-1.6 1.6-2.7 2.8-1.9 1.9-2.8 2.7-5.2 4.7-2.1 1.6-3.9 2.6-6.1 3.5-4.2 1.8-9.6.5-11.9-5-1.1-2.8-1.6-5.8-1.2-8.9 1.4-9.4 3.9-18.5 7.6-27.3 1.1-2.5 2.1-5 3-7.5.4-1 .7-2 .8-3 .3-2.3-.8-3.2-2.9-2.4-1 .4-1.9.9-2.7 1.5-5.2 3.4-15.6 12-15.6 12s-1 2.6-1.4 3.5c-4.1 8.9-6.7 16.5-9.8 26-1.2 3.7-2.5 7.4-4 11-1.6 3.8-4.8 5-8.5 3.3-2-.9-3.4-1.8-2.9-4.1.9-3.9 2-7.3 3.7-11.6 3.9-9.5 7-18 10.1-26.9.3-.9 1.1-3.5 1.4-4.9-1.9 1.7-4.1 3.7-5.3 5-4.9 5.4-10.4 10-17.3 12.8-1.2.5-1.9 1.3-2.4 2.5-.9 2.4-1.8 4.8-2.8 7.1-2.9 7.4-7.3 13.8-12.6 19.6-3.3 3.5-7.3 6.2-12 7.8-5.3 1.8-10 .9-14.2-3-2.1-2-3.6-4.1-4.9-7.4-.9.8-1.8 1.6-2.4 2.1-7 7.2-14.2 14.3-21.9 20.9-1.6 1.4-3.4 2.5-5.2 3.6-6.8 4.3-16 2.3-21.8-3.2-2.9-2.8-3.9-7.8-4.4-11.6-.6-4.5-.3-7.8.4-12.4.5-2.5.8-5.5 1.2-8l-.8 2.1zm-73 41.9c-1.4 1.5-2.5 2.7-3.1 3.5-1.9 2.3-3.8 4.7-5.8 6.8-3.5 3.8-6.3 8-9.1 12.2-5.5 8.4-6.8 17.5-4.5 27.1l.2.9c1.6 5.6 5.7 7.4 11.3 5.4 3.8-1.3 6.8-4 8.8-7.4 3-5 5.2-12.8 5.3-18.6.4-6.8 0-7.8-.6-16.6-.2-1.3-1.5-9.9-2.5-13.3zm162.7-62c-6.5-3.6-9.5-8.5-9.2-15.2.1-2.5.3-4.6.9-7.4-1.1.8-2 1.7-2.7 2.4l-3.2 3.6c-6.8 8-9.9 16.8-10.6 27-.3 3.2.2 6.6.8 9.8 1 4.8 4.1 6.4 8.7 5 1.6-.5 3-1.3 4.3-2.4 8-5.7 13.8-21.5 13.8-21.5l-2.8-1.3zm95.9 26.5l-1.6 12c-1.1 8.3-1.5 14.8-.7 23.2.1.6.1 3.5 1.4 3.7 1.5.3 2.2-1.8 2.7-2.7 1.7-3.2 3.2-6.2 4.6-9.4 1.6-3.7 2.9-7.6 4.4-11.3 2.7-6.5 4.7-13.3 6-20.2.8-4.1 1.9-8 2.1-13.2-8.8-2.5-14.3-6.7-14.3-6.7s-3.8 18.3-4.6 24.6zm-211.9 19.8c-.4.2-2.7 2.8-3 3.1-7.1 7.2-10.7 15.6-11.6 25.6-.2 2.4.3 4.6 1.3 6.8 1.2 2.4 4.9 3.6 6.9 3.1 2.6-.8 4.5-2.1 6-4.5 2.4-3.7 4.3-8.6 4.5-13.1.8-11.1-4.1-21-4.1-21zm223.9-74s5.8-4.5 5.9-4.6c6.2-5.6 10.2-11.1 14.9-18 5.1-8.7 11.1-19.2 14.3-28.8.3-.8 2.1-5.5-.2-6.7-2.5-1.1-5.5 3.8-6.1 4.6-1 1.3-4.5 6.2-5.4 7.5-2.5 3.9-5.8 8.6-8 12.6-4.6 8.5-4.3 7.5-8.6 16.1-2.6 5.3-3.6 7.7-5.2 11.4-1.9 5-1.6 5.9-1.6 5.9zm-100.5 16.4c1-2.1 1.1-4.7.8-6.9-.1-.7-.3-1.5-.7-2.1-.8-1.6-3.9-1.6-5.2-.3-1.6 1.7-1.7 3.7-.9 5.9.8 2 3.2 3.8 6 3.4z"/><path fill="#fff" d="M130.6 1103.8c1.9-.2 3.2-.2 4.4.1 2.1.5 3.4 3.4 3.3 5.6 0 1.3-1.1 2.7-2.3 3.2-2.3 1.1-4.5 2-7.1 2.8-10 2.6-19.3 4.5-29.3 6.9-6.1 1.5-12.2 3.2-18.3 5-11.6 3.4-23.1 6.8-34.6 10.3-6.1 1.8-12 3.9-18 5.9-1.8.6-3 1.2-8.6 2.8-6.3 2-11.7 4.2-18.2 6.6-11.5 5.2-23.1 10.2-34.4 15.9-10.1 5.1-19.9 10.6-29.4 16.7-1.9 1.2-4 2.2-6 3.1-1.6.7-3.2.6-4.7-.5-.8-.6-1.4-2-.9-2.7.8-1.1 1.9-1.8 2.9-2.6 3.2-2.5 6.5-4.8 9.8-7.2 6.1-4.5 12.7-8 19.2-11.8 4.7-2.7 9.4-5.4 14.2-7.9 2.6-1.4 5.4-2.7 8.1-4 8-3.8 16-7.7 24.1-11.2 10.9-4.8 22.1-8.4 33.5-11.9 5.7-1.8 11.1-3.8 16.7-5.6 9.1-2.9 18.1-5.4 27.2-7.4 4-.9 7.6-2.2 11.5-3.1l25.8-6.4c2.2-.5 4.4-1.2 6.6-1.6 1.7-.7 3.3-.9 4.5-1z"/></svg>