<svg xmlns="http://www.w3.org/2000/svg" width="565" height="84" viewBox="-0.737 0.555 565 84" enable-background="new -0.737 0.555 565 84"><path fill="#fff" d="M60.893 34.198c-2.623-2.513-5.3-4.387-8.032-5.626-2.731-1.237-5.61-1.857-8.633-1.857-4.699 0-8.478 1.447-11.337 4.342-2.859 2.894-4.289 6.745-4.289 11.551 0 4.697 1.366 8.447 4.098 11.25 2.731 2.804 6.392 4.205 10.982 4.205 2.768 0 5.582-.591 8.441-1.775 2.859-1.183 5.982-3.067 9.37-5.653l-.929 30.094c-3.133 1.274-6.265 2.23-9.397 2.867-3.133.637-6.265.956-9.397.956-3.897 0-7.649-.437-11.256-1.31s-6.867-2.111-9.78-3.714c-7.066-4.076-12.411-9.228-16.036-15.455s-5.436-13.381-5.436-21.465c0-5.971 1.029-11.506 3.087-16.603s5.054-9.593 8.988-13.49c3.97-3.932 8.569-6.908 13.796-8.929 5.226-2.02 10.882-3.031 16.964-3.031 3.242 0 6.438.337 9.589 1.011 3.15.674 6.219 1.685 9.206 3.031l.001 29.601zm2.679 41.398l9.179-22.393c4.116 2.877 7.786 4.979 11.01 6.308 3.224 1.329 6.237 1.993 9.043 1.993 1.967 0 3.515-.373 4.644-1.12 1.129-.746 1.693-1.757 1.693-3.031 0-2.221-2.823-3.914-8.469-5.079-1.821-.399-3.242-.71-4.262-.929-5.973-1.456-10.545-4.042-13.714-7.755-3.169-3.714-4.754-8.338-4.754-13.873 0-8.593 3.078-15.584 9.233-20.973 6.155-5.389 14.224-8.083 24.204-8.083 4.59 0 9.106.601 13.549 1.803s8.924 3.022 13.44 5.462l-8.742 20.918c-2.768-2.039-5.546-3.595-8.332-4.67-2.786-1.074-5.491-1.611-8.113-1.611-2.003 0-3.552.337-4.644 1.011-1.093.674-1.639 1.611-1.639 2.812 0 2.258 3.988 4.242 11.966 5.953 1.275.292 2.258.51 2.95.655 5.5 1.238 9.835 3.768 13.004 7.592 3.169 3.824 4.754 8.447 4.754 13.872 0 8.847-3.196 16.076-9.589 21.683-6.392 5.608-14.706 8.411-24.942 8.411-5.245 0-10.49-.746-15.735-2.239-5.244-1.491-10.489-3.731-15.734-6.717zm64.859 0l9.179-22.393c4.116 2.877 7.786 4.979 11.01 6.308 3.224 1.329 6.237 1.993 9.043 1.993 1.967 0 3.515-.373 4.644-1.12 1.129-.746 1.693-1.757 1.693-3.031 0-2.221-2.823-3.914-8.469-5.079-1.821-.399-3.242-.71-4.262-.929-5.973-1.456-10.545-4.042-13.714-7.755-3.169-3.714-4.754-8.338-4.754-13.873 0-8.593 3.078-15.584 9.233-20.973s14.224-8.083 24.204-8.083c4.59 0 9.106.601 13.549 1.803s8.924 3.022 13.44 5.462l-8.742 20.918c-2.768-2.039-5.546-3.595-8.332-4.67-2.786-1.074-5.491-1.611-8.113-1.611-2.003 0-3.552.337-4.644 1.011-1.093.674-1.639 1.611-1.639 2.812 0 2.258 3.988 4.242 11.966 5.953 1.275.292 2.258.51 2.95.655 5.5 1.238 9.835 3.768 13.004 7.592 3.169 3.824 4.754 8.447 4.754 13.872 0 8.847-3.196 16.076-9.589 21.683-6.392 5.608-14.706 8.411-24.942 8.411-5.245 0-10.49-.746-15.735-2.239-5.243-1.491-10.489-3.731-15.734-6.717zm129.258-41.398c-2.623-2.513-5.3-4.387-8.032-5.626-2.731-1.237-5.61-1.857-8.633-1.857-4.699 0-8.478 1.447-11.337 4.342-2.859 2.894-4.289 6.745-4.289 11.551 0 4.697 1.366 8.447 4.098 11.25 2.731 2.804 6.392 4.205 10.982 4.205 2.768 0 5.582-.591 8.441-1.775 2.859-1.183 5.982-3.067 9.37-5.653l-.929 30.094c-3.133 1.274-6.265 2.23-9.397 2.867-3.133.637-6.265.956-9.397.956-3.897 0-7.649-.437-11.256-1.31s-6.867-2.111-9.78-3.714c-7.066-4.078-12.411-9.23-16.036-15.457-3.625-6.226-5.436-13.38-5.436-21.464 0-5.971 1.029-11.506 3.087-16.603 2.058-5.097 5.054-9.593 8.988-13.49 3.97-3.933 8.569-6.909 13.796-8.929 5.226-2.02 10.882-3.031 16.964-3.031 3.242 0 6.438.337 9.589 1.011 3.15.674 6.219 1.685 9.206 3.031v29.602zm90.248 8.41c0 5.862-1.038 11.315-3.114 16.357-2.076 5.043-5.118 9.549-9.125 13.517-4.007 3.896-8.624 6.882-13.85 8.957-5.227 2.075-10.791 3.113-16.691 3.113-5.973 0-11.565-1.038-16.773-3.113-5.209-2.075-9.835-5.097-13.878-9.066-3.97-3.859-6.975-8.301-9.015-13.327-2.04-5.024-3.059-10.504-3.059-16.438s1.02-11.433 3.059-16.494c2.04-5.06 5.044-9.522 9.015-13.38 4.006-3.933 8.614-6.927 13.823-8.984 5.208-2.057 10.818-3.086 16.828-3.086s11.619 1.029 16.828 3.086c5.208 2.057 9.835 5.052 13.878 8.984 3.934 3.896 6.93 8.375 8.988 13.435 2.056 5.061 3.086 10.541 3.086 16.439zm-42.781 15.075c4.043 0 7.294-1.374 9.753-4.124 2.459-2.748 3.688-6.399 3.688-10.95 0-4.588-1.229-8.274-3.688-11.06s-5.71-4.179-9.753-4.179-7.303 1.402-9.78 4.205c-2.477 2.804-3.716 6.482-3.716 11.033s1.238 8.201 3.716 10.95c2.477 2.75 5.736 4.125 9.78 4.125zm47.023 24.74v-79.957h28.193l24.86 41.836c-.328-1.857-.555-3.914-.683-6.172-.128-2.257-.191-5.206-.191-8.847v-26.817h27.701v79.957h-28.413l-24.586-41.507c.292 1.785.51 3.705.655 5.761.146 2.058.219 4.36.219 6.909v28.837h-27.755zm85.736 0v-79.957h53.489v21.683h-24.696v9.285h22.346v20.48h-22.346v28.51c0-.001-28.793-.001-28.793-.001z"/><path fill="#FF8400" d="M492.814 82.424l12.732-35.695h14.294l12.488 35.695h-13.805l-1.146-4.486h-9.683l-1.098 4.486h-13.782zm17.025-12.971h5.342l-1.098-4.048c-.536-2.048-.902-3.625-1.098-4.73s-.317-2.145-.366-3.121h-.22c-.049.976-.171 2.016-.366 3.121-.195 1.105-.562 2.682-1.098 4.73l-1.096 4.048zm21.617-3.364v-19.36h12.83v19.457c0 2.26.269 3.815.805 4.669.537.854 1.456 1.28 2.756 1.28 1.285 0 2.204-.438 2.755-1.316.554-.878.829-2.422.829-4.633v-19.457h12.83v19.36c0 2.536-.166 4.625-.5 6.266s-.866 3.016-1.599 4.121c-1.431 2.226-3.382 3.933-5.854 5.12-2.472 1.186-5.292 1.78-8.463 1.78-3.187 0-6.016-.594-8.488-1.78-2.472-1.186-4.423-2.893-5.854-5.12-.715-1.09-1.236-2.446-1.561-4.072-.323-1.626-.486-3.731-.486-6.315z"/></svg>