<?xml version="1.0" encoding="utf-8"?>
<!-- Generator: Adobe Illustrator 17.1.0, SVG Export Plug-In . SVG Version: 6.00 Build 0)  -->
<!DOCTYPE svg PUBLIC "-//W3C//DTD SVG 1.1//EN" "http://www.w3.org/Graphics/SVG/1.1/DTD/svg11.dtd">
<svg version="1.1" id="Layer_1" xmlns="http://www.w3.org/2000/svg" xmlns:xlink="http://www.w3.org/1999/xlink" x="0px" y="0px"
	 viewBox="-220 965 440 230" enable-background="new -220 965 440 230" xml:space="preserve">
<path fill="#FFFFFF" d="M-23.9,1085c-5.2,5.4-11.6,11.4-16.8,16.9c0.1,0.8,0.2,1.5,0.4,2.2c2.1,8.2,5,16,5.5,24.4
	c0.6,9.5-1.8,18.2-8.2,25.5c-3.7,4.2-8.6,6.6-13.9,6.7c-8.4,0.2-15.6-5.4-17.5-12.9c-1.5-5.9-0.9-11.7,0.4-17.4
	c2-8.8,5.9-16.7,11.8-23.6c2.2-2.5,4.3-5,6.6-7.5l-3.8-13.7c-2.2,1.7-4,3.5-5.6,5.4c-5.4,6.2-10.8,12.5-16.3,18.7
	c-2.1,2.4-4.2,4.7-6.4,7c0,2.3,0.9,5.3,1.6,7.4c1.9,6.5,2.5,12.1,3,18.7c0.2,2.1,0.3,4.2,0.3,6.3c0.2,12.4-2.1,24.2-9.1,34.8
	c-6.5,10-19.6,13.4-29,9.5c-3.3-1.4-6-3.4-7.9-6.4c-4.7-7.4-5.6-15.5-3.6-23.8c2.5-10.6,7.8-19.8,14.7-28.1
	c4.5-5.4,9.2-10.7,14.2-15.7c3.5-3.5,3.7-2.4,2.3-8.3c-0.9-3.8-2-8.6-2.9-12.3c-0.7,1.1-1,1.5-1.2,2c-0.5,1.1-1.1,2.2-1.6,3.2
	c-5.8,12.6-12.8,24.5-20.7,35.9c-4.6,6.5-7.4,10.3-13,16.7l-9.6,10.6c-6.3,6-9.4,10.3-18.5,17c-5.7,4.2-10.6,7.6-17,8.1
	c-9.7,0.8-18.4-3-24.3-10.4c-5.8-7.5-8.3-16.2-9.4-25.5c-1.1-9-0.6-11.5,0-20.5c0.3-3.3,1.1-9.5,2.2-16.2c1.1-6.2,3.9-13.9,5.9-19.9
	c4.9-13.2,9.9-23.2,16.9-35.3c2.4-3.8,4.6-7.8,7-11.6c1.5-2.4,3.2-4.8,4.9-7c2.9-3.8,6.1-7.4,8.9-11.3c3.3-4.1,6.6-7.4,10.1-10.9
	c3.3-3.3,5-5,8.6-7.9c4.3-3.4,10.3-7.2,15.7-8.1c7.7-1.3,14.4,1.4,19.5,7.8c3.3,4.4,4.1,7.1,4.6,12.6c0.4,4.7-0.7,10.7-1.9,15.2
	c-1.8,6.7-3.4,11.9-6.5,18.1c-2.8,5.5-6,10.8-9.9,15.6c-0.8,1.1-1.8,2.1-2.8,3c-2.4,2.1-6,1.9-8.2-0.4c-0.5-0.5-1-1.3-0.9-2.2
	c0.1-1.3,0.3-2.5,0.8-3.7c0.8-2.1,1.7-4.2,2.7-6.2c3.8-7.9,7-16,9.6-24.3c1.4-4.5,2.5-9.1,1.2-13.8c-1.4-5.1-5.4-8-10.5-6.5
	c-4,1.2-8.5,4.3-11.5,7.1c-4.2,4.1-7.2,7.3-11.2,12.5c-0.7,0.8-1.4,1.6-1.9,2.5c-9.6,13.9-18.2,28.4-26.1,43.2
	c-2.8,5.2-4.8,9.4-7.2,15.1c-0.8,2.1-2.7,6.3-4.2,11.1c-3,9.7-3.7,16.6-3.7,26.9c0,9.4,0.8,20.2,3.5,27.2
	c2.2,7.6,11.5,12.4,18.9,10.2c4.2-1.3,8.2-3.1,11.6-5.8c7.7-6.1,15.1-12.4,21.1-20.3c5.1-6.7,10.3-13.3,14.8-20.4
	c8.8-13.5,17.1-27.3,25.3-41.1c1-1.7,1.9-3.4,2.7-5.2c3.8-7.5,8.8-14.4,12.9-21.7c1.4-2.4,3.3-4.7,5.6-6.2c3.3-2.2,7.2-0.3,9.7,1.5
	c0.9,0.7,1.6,2.2,1.4,3.3c-0.2,1.2-0.5,1.9-1.1,2.9c-1.3,2.4-2.7,4.6-4.2,6.9c-1.6,2.5-3.5,4.9-5,7.5c-3.8,6.5-4.4,13.3-2.2,20.4
	c0.5,1.6,1.1,3.1,1.8,5c1.1-1,2.1-1.7,2.9-2.5c4.8-4.8,9-10.1,13.2-15.4c3.3-4.1,6.6-8.2,10.2-12.1c4.1-4.3,7.2-9.2,10.2-14.3
	c1.7-3,3.4-6,5.1-9.1c0.3-0.5,0.6-1.1,0.9-1.5c3-4.3,8.1-4.8,12.1,0.2c0.5,0.6,0.6,1.7,0.5,2.6c0,2-1.8,4.2-2.9,5.8
	c-1.4,2.1-2.1,3.4-3.6,6.1c-2.3,4.4-3.8,7.2-5.6,11c-1.1,2.5-0.5,5.5,0.3,8.2c0.5,1.7,1.1,3.9,2,6.2c2.2-2.1,4.2-4.3,5.9-5.9
	c4.1-4,8.2-8,12.4-11.9c6.3-5.8,11.2-12.5,15.1-20.1c1.6-3.2,3.2-5.8,4.9-9.1c3-5.2,5.5-7.8,9.1-10.5c6.1-4.5,13-2.8,17.5,0.5
	c1.1,0.8,2.1,1.7,2.8,2.8c1.9,3,2.4,6.5,2.3,10c-0.3,7.8-2,13.6-5.2,20.7c-2.2,4.9-6.2,4.9-9.8,1.7c-0.9-0.8-1.2-1.8-1-2.8
	c0.3-1.4,0.8-2.9,1.4-4.2c1.4-3,2.3-6.2,2.7-9.5c0.3-2,0-3.9-1-5.7c-0.9-1.7-4.7-2.7-6.4-1.9c-1.3,0.5-2.6,1.6-3.5,2.5
	c-2.8,2.9-5,9.2-6.3,12.9c-3.2,8.4-4.2,13.9-6.7,23.5c-1.4,5-1.8,10.1-1.6,15.2c0.3,5.3,5.5,9,10.7,8c2.7-0.5,5.1-1.6,7.3-3.3
	c5.4-4.1,10.4-8.6,14.7-14c2.7-3.4,9.8-11.7,9.8-11.7s-0.1-0.4-0.2-1.8c-0.3-7.1,1.6-13,3.7-19.5c1.1-3.4,2.5-7.5,4-10.8
	c5.5-10.6,11.3-15.1,16.5-18.3c2.5-1.6,5.4-2,8.2-2c1.4,0,3.1,0.3,4.3,1.1c1.9,1.3,3.8,2.1,6.2,2.3c2.7,0.3,5,1.7,6.9,4
	c3.4,4.3,5,8.4,4.5,13.9c-0.1,0.7,0,1.4,0,2.6c1.5-1,2.7-1.6,3.6-2.5c5.5-5.1,11.6-9.6,16.5-15.3c1.5-1.7,3.2-3.2,4.9-4.7
	c0.9-0.8,1.9-1.5,3-2.1c3.8-1.9,8,0.2,8.4,4.4c0.3,1.6-1.4,5.3-2.1,7.4c1.8-1.6,5.4-4.6,6.6-5.7c3.6-3.5,7.7-6.3,12.1-8.7
	c2-1.1,4.2-1.6,6.5-1.6c3.4,0,5.6,1.8,6.5,5.1c0.8,3,0.3,6-0.6,8.9c-0.7,2.4-1.6,4.8-2.5,7.2c-2.6,6.9-3.4,9-6,15.9
	c-0.4,1.1-2.6,8.8-3.1,10.8c-0.6,3.2-0.9,3.8-1.4,7c-0.3,1.6-0.9,3.6,0.2,4.6c1,0.8,2.4,0.3,3.5-0.4c1-0.7,2-1.4,2.8-2.2
	c2.9-2.8,5.8-5.7,8.7-8.6c1.6-1.6,4.1-4.2,4.1-4.2s3.1-13.5,6.3-24.3c2.2-7.3,4.1-12.5,7.4-19.9c1.6-3.7,7.5-14.8,9.5-18.3
	c6.4-11.4,13.2-21.2,22.4-31c2.1-2.2,4.4-4.6,7.3-5.6c1.1-0.4,2.9-0.6,4.1-0.7c3.8,0,6.1,2.5,6.9,5.6c0.7,2.7,0.1,5.9-0.4,8.6
	c-1.7,8.6-3,14.1-6.1,22.2c-3.5,9.2-12.5,23.6-19.4,30.9c-5.6,5.9-6.6,7.4-12.5,12.9c-1.1,1-2.2,2.1-3.4,3.2
	c2.7,1.6,5.1,2.8,7.1,4.6c1.9,1.8,3.9,4,5.2,6.6c3.3-1.8,6.5-3.8,9.1-6.4c1.9-1.9,3.5-4.2,5.2-6.2c1.5-1.7,3-3.4,4.7-4.9
	c1.6-1.4,3.3-1.2,4.9,0.1c3.2,2.4,2.6,6,1.2,9.1c-0.9,2-2,4-3.4,5.8c-2.6,3.4-5.6,6.1-9.2,8.6c-3.3,2.2-6.1,4.1-9.7,5.7
	c-1.3,0.7-2.1,1-2.1,1s-0.8,7.2-0.9,9.7c-0.9,14.2-5.8,28.7-12.2,41.3c-3.1,6-5.2,10.3-9.3,15.8c-1.1,1.4-2.3,2.8-3.6,4
	c-5.1,5-12.9,2.3-15.2-3.6c-1.1-2.9-2-6.3-2.2-9.4c-0.4-5.8-0.5-11-0.3-16.9c0.1-3.9,0.7-7.8,1.1-11.7c0.7-6.6,1.8-14.1,2.6-21.1
	c-0.9,0.8-1.6,1.6-2.7,2.8c-1.9,1.9-2.8,2.7-5.2,4.7c-2.1,1.6-3.9,2.6-6.1,3.5c-4.2,1.8-9.6,0.5-11.9-5c-1.1-2.8-1.6-5.8-1.2-8.9
	c1.4-9.4,3.9-18.5,7.6-27.3c1.1-2.5,2.1-5,3-7.5c0.4-1,0.7-2,0.8-3c0.3-2.3-0.8-3.2-2.9-2.4c-1,0.4-1.9,0.9-2.7,1.5
	c-5.2,3.4-15.6,12-15.6,12s-1,2.6-1.4,3.5c-4.1,8.9-6.7,16.5-9.8,26c-1.2,3.7-2.5,7.4-4,11c-1.6,3.8-4.8,5-8.5,3.3
	c-2-0.9-3.4-1.8-2.9-4.1c0.9-3.9,2-7.3,3.7-11.6c3.9-9.5,7-18,10.1-26.9c0.3-0.9,1.1-3.5,1.4-4.9c-1.9,1.7-4.1,3.7-5.3,5
	c-4.9,5.4-10.4,10-17.3,12.8c-1.2,0.5-1.9,1.3-2.4,2.5c-0.9,2.4-1.8,4.8-2.8,7.1c-2.9,7.4-7.3,13.8-12.6,19.6
	c-3.3,3.5-7.3,6.2-12,7.8c-5.3,1.8-10,0.9-14.2-3c-2.1-2-3.6-4.1-4.9-7.4c-0.9,0.8-1.8,1.6-2.4,2.1c-7,7.2-14.2,14.3-21.9,20.9
	c-1.6,1.4-3.4,2.5-5.2,3.6c-6.8,4.3-16,2.3-21.8-3.2c-2.9-2.8-3.9-7.8-4.4-11.6c-0.6-4.5-0.3-7.8,0.4-12.4c0.5-2.5,0.8-5.5,1.2-8
	L-23.9,1085L-23.9,1085z M-96.9,1126.9c-1.4,1.5-2.5,2.7-3.1,3.5c-1.9,2.3-3.8,4.7-5.8,6.8c-3.5,3.8-6.3,8-9.1,12.2
	c-5.5,8.4-6.8,17.5-4.5,27.1l0.2,0.9c1.6,5.6,5.7,7.4,11.3,5.4c3.8-1.3,6.8-4,8.8-7.4c3-5,5.2-12.8,5.3-18.6c0.4-6.8,0-7.8-0.6-16.6
	C-94.6,1138.9-95.9,1130.3-96.9,1126.9L-96.9,1126.9z M65.8,1064.9c-6.5-3.6-9.5-8.5-9.2-15.2c0.1-2.5,0.3-4.6,0.9-7.4
	c-1.1,0.8-2,1.7-2.7,2.4c-1,1.1-2.2,2.5-3.2,3.6c-6.8,8-9.9,16.8-10.6,27c-0.3,3.2,0.2,6.6,0.8,9.8c1,4.8,4.1,6.4,8.7,5
	c1.6-0.5,3-1.3,4.3-2.4c8-5.7,13.8-21.5,13.8-21.5L65.8,1064.9z M161.7,1091.4c-0.5,4-1.1,8-1.6,12c-1.1,8.3-1.5,14.8-0.7,23.2
	c0.1,0.6,0.1,3.5,1.4,3.7c1.5,0.3,2.2-1.8,2.7-2.7c1.7-3.2,3.2-6.2,4.6-9.4c1.6-3.7,2.9-7.6,4.4-11.3c2.7-6.5,4.7-13.3,6-20.2
	c0.8-4.1,1.9-8,2.1-13.2c-8.8-2.5-14.3-6.7-14.3-6.7S162.5,1085.1,161.7,1091.4z M-50.2,1111.2c-0.4,0.2-2.7,2.8-3,3.1
	c-7.1,7.2-10.7,15.6-11.6,25.6c-0.2,2.4,0.3,4.6,1.3,6.8c1.2,2.4,4.9,3.6,6.9,3.1c2.6-0.8,4.5-2.1,6-4.5c2.4-3.7,4.3-8.6,4.5-13.1
	C-45.3,1121.1-50.2,1111.2-50.2,1111.2L-50.2,1111.2z M173.7,1037.2c0,0,5.8-4.5,5.9-4.6c6.2-5.6,10.2-11.1,14.9-18
	c5.1-8.7,11.1-19.2,14.3-28.8c0.3-0.8,2.1-5.5-0.2-6.7c-2.5-1.1-5.5,3.8-6.1,4.6c-1,1.3-4.5,6.2-5.4,7.5c-2.5,3.9-5.8,8.6-8,12.6
	c-4.6,8.5-4.3,7.5-8.6,16.1c-2.6,5.3-3.6,7.7-5.2,11.4C173.4,1036.3,173.7,1037.2,173.7,1037.2L173.7,1037.2z M73.2,1053.6
	c1-2.1,1.1-4.7,0.8-6.9c-0.1-0.7-0.3-1.5-0.7-2.1c-0.8-1.6-3.9-1.6-5.2-0.3c-1.6,1.7-1.7,3.7-0.9,5.9
	C68,1052.2,70.4,1054,73.2,1053.6L73.2,1053.6z"/>
<path fill="#FFFFFF" d="M130.6,1103.8c1.9-0.2,3.2-0.2,4.4,0.1c2.1,0.5,3.4,3.4,3.3,5.6c0,1.3-1.1,2.7-2.3,3.2
	c-2.3,1.1-4.5,2-7.1,2.8c-10,2.6-19.3,4.5-29.3,6.9c-6.1,1.5-12.2,3.2-18.3,5c-11.6,3.4-23.1,6.8-34.6,10.3c-6.1,1.8-12,3.9-18,5.9
	c-1.8,0.6-3,1.2-8.6,2.8c-6.3,2-11.7,4.2-18.2,6.6c-11.5,5.2-23.1,10.2-34.4,15.9c-10.1,5.1-19.9,10.6-29.4,16.7
	c-1.9,1.2-4,2.2-6,3.1c-1.6,0.7-3.2,0.6-4.7-0.5c-0.8-0.6-1.4-2-0.9-2.7c0.8-1.1,1.9-1.8,2.9-2.6c3.2-2.5,6.5-4.8,9.8-7.2
	c6.1-4.5,12.7-8,19.2-11.8c4.7-2.7,9.4-5.4,14.2-7.9c2.6-1.4,5.4-2.7,8.1-4c8-3.8,16-7.7,24.1-11.2c10.9-4.8,22.1-8.4,33.5-11.9
	c5.7-1.8,11.1-3.8,16.7-5.6c9.1-2.9,18.1-5.4,27.2-7.4c4-0.9,7.6-2.2,11.5-3.1c8.6-2.2,17.2-4.2,25.8-6.4c2.2-0.5,4.4-1.2,6.6-1.6
	C127.8,1104.1,129.4,1103.9,130.6,1103.8L130.6,1103.8z"/>
</svg>
