<svg xmlns="http://www.w3.org/2000/svg" viewBox="0 0 211 107" enable-background="new 0 0 211 107"><path opacity=".2" fill="#fff" d="M184.09 59.145c0-6.625-5.051-10.271-10.988-11.06-.481-.064-.963-.109-1.444-.159-.209-.344-.413-.69-.61-1.041-.18-2.267-1.239-4.48-3.495-6.285l-.429-.34c-3.841-5.397-9.225-10.059-15.772-11.346-3.82-.751-6.591-.75-9.537-1.119-3.568-.447-7.128-.722-10.716-.728-3.534-.542-7.157-.429-10.864.635-1.453.416-2.689 1.049-3.725 1.833-3.5-.642-7.335.334-9.782 3.022-1.966 2.16-3.046 4.206-4.158 6.891-2.308 5.576 2.448 12.158 7.675 13.604 2.427.672 4.639.505 6.577-.264 3.306.423 6.491-.23 9.603-1.947.34 1.025 1.191 1.844 2.539 1.918 1.575 2.916 2.988 5.698 5.322 8.374 7.606 8.72 19.602 8.248 30.577 8.529 2.025.396 4.11.59 6.24.543l.096-.007c.628.022 1.26.029 1.902.007.856-.029 1.69-.16 2.494-.363.237 1.266 1.177 2.375 2.834 2.375 1.539 0 2.459-.958 2.772-2.11 2.334-.574 2.734-3.704 1.21-5.171 1.054-1.664 1.679-3.63 1.679-5.791z"/><path d="M183.058 70.486c11.44 5.621 13.556 7.845 15.167 15.831-.576 3.014-2.355 5.404-4.979 7.157-1.455.971-2.962 1.947-4.579 2.57-5.562 2.139-11.312 3.366-17.315 3.036-.794-.043-1.599-.172-2.381-.092-4.763.482-9.552.496-14.314.789-7.624.47-15.204 1.675-22.797 2.621-5.543.69-11.059 1.478-16.681 1.416-5.258-.057-10.522.304-15.783.481-.638.021-1.284.114-1.913.048-9.42-.986-18.808.275-28.207.468-7.959.165-15.898 1.152-23.857 1.505-8.917.397-17.846 1.233-26.773.153-2.213-.268-4.41-.684-6.559-1.024-1.151-.717-2.213-1.431-3.323-2.06-4.132-2.344-6.443-6.039-7.995-10.425-1.398-3.951-.806-7.736 1.118-11.148 2.032-3.603 4.284-7.11 7.389-10.016 2.14-2.003 4.373-3.729 7.02-4.913 4.685-2.095 9.548-3.602 14.642-4.302 3.398-.467 6.68.343 9.937 1.084 4.704 1.07 9.111 2.93 13.165 5.597.525.346 1.077.652 1.427.862 1.934.218 3.407-.344 4.716-1.338 1.272-.968 2.55-1.945 3.708-3.044 5.838-5.547 12.346-10.121 19.506-13.768 1.138-.58 2.359-1.052 3.386-1.792 3.471-2.497 7.362-3.777 11.532-4.373.623-.089 1.224-.33 1.721-.468.305-.347.6-.55.711-.827 2.25-5.617 6.312-9.555 11.377-12.603 1.775-1.068 3.403-2.405 5.23-3.366 4.976-2.617 10.383-2.818 15.844-2.579 4.206.184 8.109 1.599 12.025 2.957 3.771 1.309 7.552 2.595 11.295 3.987 1.481.551 3.07 1.112 4.261 2.097 5.301 4.38 10.682 8.697 15.633 13.459 4.301 4.138 6.199 9.653 6.626 15.606.145 2.073.02 4.166.02 6.414zm-170.383 32.936c6.544 1.546 12.927 1.713 19.312 1.458 9.242-.369 18.477-.92 27.716-1.384 1.753-.088 3.511-.093 5.262-.213 5.568-.379 11.131-1.027 16.704-1.147 11.485-.246 22.977-.121 34.463-.35 4.771-.095 9.546-.573 14.294-1.11 7.913-.894 15.805-1.979 23.708-2.977.473-.06.966-.121 1.433-.059 4.319.572 8.585-.165 12.867-.485.953-.072 1.934-.214 2.863-.074 5.56.84 10.747-.893 15.95-2.35 2.8-.784 5.225-2.421 7.232-4.556 2.036-2.166 2.667-4.574 1.353-7.491-1.439-3.194-3.442-5.85-6.53-7.423-2.111-1.075-4.395-2.039-6.707-2.438-6.278-1.082-12.611-1.859-18.928-2.707-1.578-.212-3.181-.241-4.773-.341-4.615-.291-9.23-.578-13.846-.862-3.49-.215-6.476-1.576-8.985-4.007-.916-.889-1.851-1.769-2.674-2.742-2.069-2.447-4.12-4.913-6.102-7.431-1.737-2.207-3.903-3.785-6.497-4.76-6.67-2.505-13.547-3.665-20.651-2.809-4.306.519-8.386 1.741-12.129 4.144-3.085 1.981-6.421 3.564-9.634 5.344-.974.541-1.995 1.046-2.854 1.742-3.601 2.916-7.145 5.902-10.717 8.854-1.233 1.018-2.434 2.089-3.747 2.992-1.883 1.294-3.935 2.135-6.391 1.629-.342-.202-.785-.401-1.157-.691-3.338-2.604-7.156-4.235-11.179-5.329-3.53-.96-7.138-2.032-10.822-1.579-4.915.604-9.695 1.909-14.241 3.951-2.351 1.056-4.327 2.614-6.264 4.343-3.179 2.838-5.441 6.331-7.436 9.968-2.004 3.653-2.427 7.542-.417 11.532 1.632 3.238 3.567 6.068 6.898 7.724.855.428 1.633 1.011 2.626 1.634zm168.446-32.883c.771-8.822-.995-16.166-7.269-21.938-3.882-3.57-7.914-6.972-11.886-10.442-2.076-1.815-4.451-3.058-7.07-3.921-3.33-1.097-6.613-2.343-9.924-3.505-5.625-1.974-11.356-3.21-17.365-2.481-.631.077-1.275.056-1.913.064-3.798.05-7.172 1.403-10.28 3.476-2.128 1.418-4.154 2.987-6.261 4.435-2.439 1.675-4.178 3.945-5.533 6.522-.327.621-.288 1.435-.472 2.474 4.811-.179 9.18.49 13.475 1.597 1.846.476 3.68 1.073 5.436 1.814 3.489 1.472 5.978 4.117 8.232 7.126 3.16 4.216 6.331 8.489 10.871 10.813 5.723 1.05 11.117 1.366 16.553 1.428 3.491.039 6.983.552 10.465.94 4.112.459 8.212 1.01 12.941 1.598zm7.839-51.598l1.631 1.006c.058.525.218.893.108 1.14-2.257 5.125-5.934 9.008-10.57 12.005-1.332.861-2.728 1.663-4.189 2.261-.945.387-2.06.355-3.499.57.276-1.02.253-1.756.606-2.112 4.589-4.634 9.221-9.225 13.878-13.791.432-.423 1.106-.598 2.035-1.079zm.091 1.32c-4.886 3.822-8.271 7.572-12.034 12.076 1.27-.336 1.884-.374 2.365-.647 2.526-1.435 4.767-3.245 6.52-5.582 1.102-1.468 2.602-2.739 3.149-5.847zm20.805 23.655l1.144 1.543c-.14.509-.126.91-.318 1.099-3.983 3.919-8.827 6.155-14.237 7.211-1.553.303-3.146.527-4.722.538-1.02.007-2.045-.438-3.46-.775.632-.844.881-1.536 1.34-1.736 5.967-2.593 11.959-5.132 17.965-7.636.558-.233 1.248-.144 2.288-.244zm-.402 1.259c-5.945 1.729-10.469 3.95-15.622 6.731 1.303.161 1.888.355 2.435.28 2.874-.391 5.622-1.237 8.111-2.754 1.564-.952 3.425-1.574 5.076-4.257zm-43.905-39.361c1.066 4.451-.766 7.926-2.405 11.297-1.67 3.437-4.439 5.993-8.351 8.355.869-6.692 3.603-11.803 6.716-16.757.832-1.323 1.643-2.732 4.04-2.895zm-1.964 3.377c-2.564 2.817-4.152 6.066-5.432 9.472-.17.452.056 1.054.14 2.094 3.84-3.345 5.146-7.218 5.292-11.566zm-31.719 12.728c-.987-7.007-.102-12.75 1.399-18.433.355-1.346.666-2.821 2.409-3.486 2.163 1.398 1.99 3.785 2.06 5.864.194 5.705-1.294 10.898-5.868 16.055zm3.682-18.256c-1.883 2.734-2.029 5.891-2.387 8.992-.12 1.036-.297 2.097.674 3.234 3.011-3.925 2.312-8.073 1.713-12.226zm-32.506 4.62c2.047-.385 3.355.571 4.366 1.826 3.138 3.894 5.468 8.208 6.229 13.245.04.261-.229.569-.487 1.156-.496-.192-1.149-.251-1.491-.61-2.194-2.305-4.416-4.595-6.43-7.055-1.188-1.452-2.116-3.155-2.959-4.847-.595-1.199-.431-2.492.772-3.715zm.516 2.061c.204.86.252 1.801.644 2.563.997 1.937 3.536 4.352 6.464 6.293-1.619-3.786-2.83-7.279-7.108-8.856zm36.751 47.808c.685 1.892 1.254 3.7 3.373 4.158 1.785.626 3.572-1.073 5.83.077-1.757 1.412-3.331 1.902-5.057 1.749-.907-.08-1.876-.339-2.66-.792-1.964-1.136-2.397-2.498-1.486-5.192zm23.789 5.867c-2.122-.297-3.692-.466-3.911-2.75 1.006-1.545 2.342-2.318 4.42-1.797 1.462 1.641.705 3.012-.509 4.547zm-28.087-18.96c.301 2.134-.682 3.219-2.394 3.995l-1.834-.719v-2.92c1.426-1.445 2.655-1.755 4.228-.356z" opacity=".6" fill-rule="evenodd" clip-rule="evenodd"/></svg>