<?xml version="1.0" encoding="utf-8"?>
<!-- Generator: Adobe Illustrator 17.1.0, SVG Export Plug-In . SVG Version: 6.00 Build 0)  -->
<!DOCTYPE svg PUBLIC "-//W3C//DTD SVG 1.1//EN" "http://www.w3.org/Graphics/SVG/1.1/DTD/svg11.dtd">
<svg version="1.1" id="Layer_1" xmlns="http://www.w3.org/2000/svg" xmlns:xlink="http://www.w3.org/1999/xlink" x="0px" y="0px"
	 viewBox="0 0 211 107" enable-background="new 0 0 211 107" xml:space="preserve">
<path opacity="0.2" fill="#FFFFFF" d="M184.09,59.145c0-6.625-5.051-10.271-10.988-11.06c-0.481-0.064-0.963-0.109-1.444-0.159
	c-0.209-0.344-0.413-0.69-0.61-1.041c-0.18-2.267-1.239-4.48-3.495-6.285c-0.144-0.115-0.286-0.226-0.429-0.34
	c-3.841-5.397-9.225-10.059-15.772-11.346c-3.82-0.751-6.591-0.75-9.537-1.119c-3.568-0.447-7.128-0.722-10.716-0.728
	c-3.534-0.542-7.157-0.429-10.864,0.635c-1.453,0.416-2.689,1.049-3.725,1.833c-3.5-0.642-7.335,0.334-9.782,3.022
	c-1.966,2.16-3.046,4.206-4.158,6.891c-2.308,5.576,2.448,12.158,7.675,13.604c2.427,0.672,4.639,0.505,6.577-0.264
	c3.306,0.423,6.491-0.23,9.603-1.947c0.34,1.025,1.191,1.844,2.539,1.918c1.575,2.916,2.988,5.698,5.322,8.374
	c7.606,8.72,19.602,8.248,30.577,8.529c2.025,0.396,4.11,0.59,6.24,0.543c0.033-0.001,0.062-0.006,0.096-0.007
	c0.628,0.022,1.26,0.029,1.902,0.007c0.856-0.029,1.69-0.16,2.494-0.363c0.237,1.266,1.177,2.375,2.834,2.375
	c1.539,0,2.459-0.958,2.772-2.11c2.334-0.574,2.734-3.704,1.21-5.171C183.465,63.272,184.09,61.306,184.09,59.145z"/>
<g opacity="0.6">
	<path fill-rule="evenodd" clip-rule="evenodd" d="M183.058,70.486c11.44,5.621,13.556,7.845,15.167,15.831
		c-0.576,3.014-2.355,5.404-4.979,7.157c-1.455,0.971-2.962,1.947-4.579,2.57c-5.562,2.139-11.312,3.366-17.315,3.036
		c-0.794-0.043-1.599-0.172-2.381-0.092c-4.763,0.482-9.552,0.496-14.314,0.789c-7.624,0.47-15.204,1.675-22.797,2.621
		c-5.543,0.69-11.059,1.478-16.681,1.416c-5.258-0.057-10.522,0.304-15.783,0.481c-0.638,0.021-1.284,0.114-1.913,0.048
		c-9.42-0.986-18.808,0.275-28.207,0.468c-7.959,0.165-15.898,1.152-23.857,1.505c-8.917,0.397-17.846,1.233-26.773,0.153
		c-2.213-0.268-4.41-0.684-6.559-1.024c-1.151-0.717-2.213-1.431-3.323-2.06c-4.132-2.344-6.443-6.039-7.995-10.425
		c-1.398-3.951-0.806-7.736,1.118-11.148c2.032-3.603,4.284-7.11,7.389-10.016c2.14-2.003,4.373-3.729,7.02-4.913
		c4.685-2.095,9.548-3.602,14.642-4.302c3.398-0.467,6.68,0.343,9.937,1.084c4.704,1.07,9.111,2.93,13.165,5.597
		c0.525,0.346,1.077,0.652,1.427,0.862c1.934,0.218,3.407-0.344,4.716-1.338c1.272-0.968,2.55-1.945,3.708-3.044
		c5.838-5.547,12.346-10.121,19.506-13.768c1.138-0.58,2.359-1.052,3.386-1.792c3.471-2.497,7.362-3.777,11.532-4.373
		c0.623-0.089,1.224-0.33,1.721-0.468c0.305-0.347,0.6-0.55,0.711-0.827c2.25-5.617,6.312-9.555,11.377-12.603
		c1.775-1.068,3.403-2.405,5.23-3.366c4.976-2.617,10.383-2.818,15.844-2.579c4.206,0.184,8.109,1.599,12.025,2.957
		c3.771,1.309,7.552,2.595,11.295,3.987c1.481,0.551,3.07,1.112,4.261,2.097c5.301,4.38,10.682,8.697,15.633,13.459
		c4.301,4.138,6.199,9.653,6.626,15.606C183.183,66.145,183.058,68.238,183.058,70.486z M12.675,103.422
		c6.544,1.546,12.927,1.713,19.312,1.458c9.242-0.369,18.477-0.92,27.716-1.384c1.753-0.088,3.511-0.093,5.262-0.213
		c5.568-0.379,11.131-1.027,16.704-1.147c11.485-0.246,22.977-0.121,34.463-0.35c4.771-0.095,9.546-0.573,14.294-1.11
		c7.913-0.894,15.805-1.979,23.708-2.977c0.473-0.06,0.966-0.121,1.433-0.059c4.319,0.572,8.585-0.165,12.867-0.485
		c0.953-0.072,1.934-0.214,2.863-0.074c5.56,0.84,10.747-0.893,15.95-2.35c2.8-0.784,5.225-2.421,7.232-4.556
		c2.036-2.166,2.667-4.574,1.353-7.491c-1.439-3.194-3.442-5.85-6.53-7.423c-2.111-1.075-4.395-2.039-6.707-2.438
		c-6.278-1.082-12.611-1.859-18.928-2.707c-1.578-0.212-3.181-0.241-4.773-0.341c-4.615-0.291-9.23-0.578-13.846-0.862
		c-3.49-0.215-6.476-1.576-8.985-4.007c-0.916-0.889-1.851-1.769-2.674-2.742c-2.069-2.447-4.12-4.913-6.102-7.431
		c-1.737-2.207-3.903-3.785-6.497-4.76c-6.67-2.505-13.547-3.665-20.651-2.809c-4.306,0.519-8.386,1.741-12.129,4.144
		c-3.085,1.981-6.421,3.564-9.634,5.344c-0.974,0.541-1.995,1.046-2.854,1.742c-3.601,2.916-7.145,5.902-10.717,8.854
		c-1.233,1.018-2.434,2.089-3.747,2.992c-1.883,1.294-3.935,2.135-6.391,1.629c-0.342-0.202-0.785-0.401-1.157-0.691
		c-3.338-2.604-7.156-4.235-11.179-5.329c-3.53-0.96-7.138-2.032-10.822-1.579c-4.915,0.604-9.695,1.909-14.241,3.951
		c-2.351,1.056-4.327,2.614-6.264,4.343c-3.179,2.838-5.441,6.331-7.436,9.968c-2.004,3.653-2.427,7.542-0.417,11.532
		c1.632,3.238,3.567,6.068,6.898,7.724C10.904,102.216,11.682,102.799,12.675,103.422z M181.121,70.539
		c0.771-8.822-0.995-16.166-7.269-21.938c-3.882-3.57-7.914-6.972-11.886-10.442c-2.076-1.815-4.451-3.058-7.07-3.921
		c-3.33-1.097-6.613-2.343-9.924-3.505c-5.625-1.974-11.356-3.21-17.365-2.481c-0.631,0.077-1.275,0.056-1.913,0.064
		c-3.798,0.05-7.172,1.403-10.28,3.476c-2.128,1.418-4.154,2.987-6.261,4.435c-2.439,1.675-4.178,3.945-5.533,6.522
		c-0.327,0.621-0.288,1.435-0.472,2.474c4.811-0.179,9.18,0.49,13.475,1.597c1.846,0.476,3.68,1.073,5.436,1.814
		c3.489,1.472,5.978,4.117,8.232,7.126c3.16,4.216,6.331,8.489,10.871,10.813c5.723,1.05,11.117,1.366,16.553,1.428
		c3.491,0.039,6.983,0.552,10.465,0.94C172.292,69.4,176.392,69.951,181.121,70.539z"/>
	<path fill-rule="evenodd" clip-rule="evenodd" d="M188.96,18.941c0.72,0.444,1.231,0.759,1.631,1.006
		c0.058,0.525,0.218,0.893,0.108,1.14c-2.257,5.125-5.934,9.008-10.57,12.005c-1.332,0.861-2.728,1.663-4.189,2.261
		c-0.945,0.387-2.06,0.355-3.499,0.57c0.276-1.02,0.253-1.756,0.606-2.112c4.589-4.634,9.221-9.225,13.878-13.791
		C187.357,19.597,188.031,19.422,188.96,18.941z M189.051,20.261c-4.886,3.822-8.271,7.572-12.034,12.076
		c1.27-0.336,1.884-0.374,2.365-0.647c2.526-1.435,4.767-3.245,6.52-5.582C187.004,24.64,188.504,23.369,189.051,20.261z"/>
	<path fill-rule="evenodd" clip-rule="evenodd" d="M209.856,43.916c0.505,0.68,0.864,1.164,1.144,1.543
		c-0.14,0.509-0.126,0.91-0.318,1.099c-3.983,3.919-8.827,6.155-14.237,7.211c-1.553,0.303-3.146,0.527-4.722,0.538
		c-1.02,0.007-2.045-0.438-3.46-0.775c0.632-0.844,0.881-1.536,1.34-1.736c5.967-2.593,11.959-5.132,17.965-7.636
		C208.126,43.927,208.816,44.016,209.856,43.916z M209.454,45.175c-5.945,1.729-10.469,3.95-15.622,6.731
		c1.303,0.161,1.888,0.355,2.435,0.28c2.874-0.391,5.622-1.237,8.111-2.754C205.942,48.48,207.803,47.858,209.454,45.175z"/>
	<path fill-rule="evenodd" clip-rule="evenodd" d="M165.549,5.814c1.066,4.451-0.766,7.926-2.405,11.297
		c-1.67,3.437-4.439,5.993-8.351,8.355c0.869-6.692,3.603-11.803,6.716-16.757C162.341,7.386,163.152,5.977,165.549,5.814z
		 M163.585,9.191c-2.564,2.817-4.152,6.066-5.432,9.472c-0.17,0.452,0.056,1.054,0.14,2.094
		C162.133,17.412,163.439,13.539,163.585,9.191z"/>
	<path fill-rule="evenodd" clip-rule="evenodd" d="M131.866,21.919c-0.987-7.007-0.102-12.75,1.399-18.433
		c0.355-1.346,0.666-2.821,2.409-3.486c2.163,1.398,1.99,3.785,2.06,5.864C137.928,11.569,136.44,16.762,131.866,21.919z
		 M135.548,3.663c-1.883,2.734-2.029,5.891-2.387,8.992c-0.12,1.036-0.297,2.097,0.674,3.234
		C136.846,11.964,136.147,7.816,135.548,3.663z"/>
	<path fill-rule="evenodd" clip-rule="evenodd" d="M103.042,8.283c2.047-0.385,3.355,0.571,4.366,1.826
		c3.138,3.894,5.468,8.208,6.229,13.245c0.04,0.261-0.229,0.569-0.487,1.156c-0.496-0.192-1.149-0.251-1.491-0.61
		c-2.194-2.305-4.416-4.595-6.43-7.055c-1.188-1.452-2.116-3.155-2.959-4.847C101.675,10.799,101.839,9.506,103.042,8.283z
		 M103.558,10.344c0.204,0.86,0.252,1.801,0.644,2.563c0.997,1.937,3.536,4.352,6.464,6.293
		C109.047,15.414,107.836,11.921,103.558,10.344z"/>
	<path fill-rule="evenodd" clip-rule="evenodd" d="M140.309,58.152c0.685,1.892,1.254,3.7,3.373,4.158
		c1.785,0.626,3.572-1.073,5.83,0.077c-1.757,1.412-3.331,1.902-5.057,1.749c-0.907-0.08-1.876-0.339-2.66-0.792
		C139.831,62.208,139.398,60.846,140.309,58.152z"/>
	<path fill-rule="evenodd" clip-rule="evenodd" d="M164.098,64.019c-2.122-0.297-3.692-0.466-3.911-2.75
		c1.006-1.545,2.342-2.318,4.42-1.797C166.069,61.113,165.312,62.484,164.098,64.019z"/>
	<path fill-rule="evenodd" clip-rule="evenodd" d="M136.011,45.059c0.301,2.134-0.682,3.219-2.394,3.995
		c-0.51-0.2-1.084-0.425-1.834-0.719c0-1.09,0-2.131,0-2.92C133.209,43.97,134.438,43.66,136.011,45.059z"/>
</g>
</svg>
