<svg xmlns="http://www.w3.org/2000/svg" viewBox="0 0 492 236" enable-background="new 0 0 492 236"><path opacity=".2" fill="#fff" d="M455.109 52.424c-.636-1.414-1.023-2.972-1.35-4.548 1.627-7.951-.348-16.403-3.194-23.894-1.159-3.05-2.615-6.267-4.508-9.1-.05-.405-.106-.809-.149-1.215-.344-3.226-3.112-4.821-5.654-4.767-1.759-1.138-3.748-1.932-6.019-2.221-11.16-1.419-13.076 11.199-11.798 19.058.821 5.045 2.665 10.073 4.642 14.758 1.206 2.858 2.934 5.876 2.961 9.027.027 3.236-.37 6.202.275 9.422 2.102 10.499 17.009 10.137 23.23 4.489 3.528-3.204 3.363-7.015 1.564-11.009zm-111.535 7.964c-.668-10.077 1.696-19.755-1.44-29.682-1.966-6.225-10.155-10.888-16.166-6.56-4.213 3.033-8.705 2.937-14.559 3.12-7.414.232-15.005.248-22.164 2.426-2.757.839-4.739 2.38-6.033 4.267l-.788-.275c-3.387-1.301-7.081-.171-9.803 2.099-6.171-.284-11.702 1.172-17.255 3.064-1.089.053-2.174.091-3.245.089-12.668-.024-25.95.182-37.204 5.78-2.276.118-4.54.334-6.781.729-3.557.627-4.272 3.924-3.102 6.505-2.437 3.392-2.38 8.241-.402 11.83 3.403 6.174 2.229 15.24 2.243 23.072.018 10.084 1.636 20.519 7.762 28.819 2.811 3.81 7.449 6.771 12.428 5.045 27.425-9.512 57.147-8.206 84.32-18.229 3.055 1.171 6.11 2.319 9.495 2.562 6.643.476 11.575-2.961 17.57-4.956 4.642-1.545 8.134-5.512 8.079-10.585-.106-9.841-2.308-19.359-2.955-29.12zm-113.96 34.958c.886.422 1.823.748 2.805.973-.813.193-1.624.396-2.434.604-.139-.522-.263-1.048-.371-1.577zm-21.915 47.693c-7.629 5.56-14.874 12.069-23.721 15.673-2.073.844-4.431 1.506-6.858 1.872 7.895-11.565 10.231-28.878-4.663-33.909-16.375-5.532-24.212 14.756-20.104 27.363 1.701 5.22 5.051 8.764 9.343 10.972-2.899 1.592-6.086 2.779-9.39 3.698-10.237 2.847-21.556.489-32.036 1.378-4.554.386-9.052 1.403-13.13 3.497-3.827 1.966-5.471 6.231-9.491 8.042-4.11 1.851-.547 7.87 3.535 6.031 5.062-2.28 7.297-7.535 12.609-9.304 6.567-2.186 13.965-1.648 20.779-1.513 12.23.243 22.926-1.226 33.618-7.49.837-.491 1.662-1.059 2.468-1.693l.115.017c11.788 1.455 22.709-5.33 31.721-12.019 2.929-2.174 5.791-4.435 8.739-6.584 3.607-2.628.119-8.693-3.534-6.031zm-47.054 12.175c-6.154-8.888-.727-27.251 12.245-20.848 7.808 3.854 1.727 15.941-1.193 21.091-1.026 1.809-2.246 3.397-3.62 4.799-2.949-.792-5.582-2.37-7.432-5.042zm294.044-64.011c-.264-.119-.529-.22-.793-.324 1.439-6.79 2.236-13.357 3.059-17.075.971-4.39-5.78-6.255-6.753-1.857-.657 2.966-1.396 10.464-2.937 17.79-9.87.415-18.143 10.027-17.197 20.394.155 1.702.991 2.748 2.571 3.368 10.791 4.236 16.324-4.813 19.526-15.667 1.665.832 3.219 2.237 4.499 4.335 3.494 5.726 2.665 13.251-2.904 17.177-5.753 4.055-13.505 3.419-19.887 1.584-7.934-2.282-15.03-7.211-21.97-11.511-6.27-3.884-12.851-7.093-19.402-10.461-5.652-2.906-12.214-2.818-18.343-1.716-6.417 1.153-11.396 6.248-17.554 8.192-4.289 1.355-2.456 8.099 1.862 6.736 3.8-1.2 7.179-2.977 10.563-5.053 4.512-2.769 8.57-3.547 13.857-3.565 3.872-.014 6.952 1.907 10.252 3.651 4.651 2.459 9.338 4.662 13.848 7.398 14.624 8.873 33.215 21.292 50.308 10.777 12.424-7.644 10.504-28.258-2.605-34.173zm-17.545 16c.68-4.82 4.103-8.574 8.107-9.844-1.834 5.456-4.401 9.615-8.107 9.844z"/><path d="M211.488 141.816c-.989-1.882-1.782-3.614-2.771-5.227-1.881-3.069-3.202-6.253-2.675-9.406-1.142-2.258-2.2-4.009-2.944-5.884-2.479-6.253-3.903-12.798-5.212-19.373-1.805-9.071-3.789-18.109-5.472-27.202-1.043-5.637-1.496-11.383-2.532-17.022-1.166-6.34-.984-12.703-.916-19.077.04-3.8 1.79-6.364 5.026-8.609 3.189-2.211 6.583-3.032 10.173-3.725 6.903-1.332 13.786-2.78 20.712-3.978 6.296-1.09 12.641-1.901 18.961-2.855 4.418-.667 8.831-1.363 13.246-2.052 1.106-.173 2.209-.522 3.314-.525 6.301-.016 12.291-1.908 18.422-2.936.472-.079.952-.196 1.425-.186 6.272.136 12.376-1.222 18.542-2.039 2.691-.356 5.398-.694 8.107-.789 7.194-.254 14.255-1.574 21.362-2.51 2.533-.334 5.036-.889 7.562-1.282 3.141-.489 6.054.026 8.627 2.202 1.881 2.239 2.283 5.19 2.873 7.933 1.07 4.974 1.723 10.044 2.401 15.094.955 7.107 1.945 14.215 2.269 21.388.144 3.187.152 6.38.3 9.567.207 4.457.593 8.907.713 13.365.193 7.174 1.722 14.254 1.466 21.448-.055 1.546-.464 3.079-.746 4.844l1.99 2.473c.514-.231.999-.341 1.345-.621 4.891-3.972 10.372-6.186 16.788-5.856 2.231.114 4.496.15 6.712-.088 6.972-.749 13.237 1.644 19.479 4.164 1.019.411 1.943 1.105 2.838 1.766 4.112 3.039 8.298 5.99 12.265 9.209 3.761 3.053 7.915 5.373 12.256 7.425.719.34 1.47.675 2.243.83 6.115 1.223 12.222 2.543 18.512 2.426 4.205-.078 6.571-.783 10.558-3.072 2.543-2.792 3.636-6.207 3.111-10.044-.474-3.465-.965-6.955-1.855-10.327-.741-2.808-2.421-5.136-5.693-6.198-.241 1.084-.483 1.987-.64 2.903-.948 5.508-4.143 9.631-8.331 13.024-3.047 2.468-6.721 2.878-10.473 2.133-2.122-.422-3.815-1.702-4.817-3.651-.649-1.263-1.067-2.644-1.455-3.634.209-7.107 4.719-10.93 9.602-14.424.984-.704 2.355-.969 3.592-1.203 2.501-.472 5.032-.784 7.468-1.149 1.605-4.606 1.183-11.115-1.069-15.594-5.362 1.477-10.876 1.261-15.897.652-1.914-.956-2.466-2.325-2.974-3.653-1.424-3.721-2.972-7.414-4.09-11.228-2.642-9.019-5.8-17.882-8.008-27.036-1.478-6.126-1.723-12.316-1.604-18.532.089-4.619 2.476-7.317 7.001-8.509 2.626-.691 5.279-1.279 7.917-1.923 3.723-.908 7.44-1.844 11.169-2.727 1.077-.254 2.188-.367 3.105-.516 3.263 1.209 4.473 3.814 5.278 6.609 1.368 4.746 2.609 9.529 3.842 14.312.955 3.704 1.844 7.426 2.717 11.15 2.001 8.534 3.593 17.14 4.381 25.876.318 3.53.256 7.031-2.085 10.689l-4.949 2.973c.708 6 2.542 11.87 1.361 18.044 1.261.69 2.411 1.23 3.466 1.915 2.606 1.693 4.702 3.84 5.598 6.914 1.43 4.908 2.724 9.827 2.205 15.036-.277 2.773-1.088 5.31-2.765 7.533-2.661 3.527-6.024 6.118-10.255 7.551-14.522 4.92-27.69 2.279-39.716-6.976-4.81-3.702-9.521-7.566-14.571-10.916-7.053-4.679-14.814-7.694-23.477-6.903-3.943.361-7.838 1.425-11.703 2.375-1.876.461-3.452 1.63-4.609 3.597.339 2.302 1.807 4.233 3.193 6.114 1.414 1.92 3.059 3.697 4.765 5.372 6.884 6.761 12.8 14.229 17.245 22.822.877 1.696 2.078 3.227 2.941 4.928 1.44 2.839 2.814 5.71 3.272 8.934.177 1.243.71 2.442 1.124 3.647 1.383 4.028.619 6.665-2.918 9.127-3.712 2.583-7.912 4.198-12.236 5.378-6.013 1.642-12.135 2.76-18.361 3.359-7.63.733-15.268 1.473-22.857 2.538-10.117 1.419-20.15 3.487-30.29 4.658-10.307 1.19-20.617 2.49-31.029 2.773-5.575.152-11.12 1.181-16.694 1.641-3.657.302-7.349.492-11.009.347-2.191-.087-4.405-.758-6.511-1.457-2.156-.716-3.936-2.107-5.182-4.075l-.266-.399c-5.543-10.218-12.634-19.578-16.846-30.547-.977-2.542-2.081-5.203-4.331-7.093-3.075 2.319-5.904 4.672-8.95 6.701-5.443 3.627-10.935 7.159-17.067 9.641-4.843 1.96-9.729 3.06-14.945 2.647-.792-.063-1.593-.009-2.627-.009-.801.751-1.743 1.598-2.645 2.486-3.276 3.226-7.211 5.09-11.66 6.257-7.384 1.937-14.857 1.883-22.382 1.744-4.152-.076-8.323.018-12.461.343-3.523.276-6.896 1.414-10.039 3.047-2.956 1.537-5.833 3.227-9.452 5.244l-6.034 1.355c-6.689 3.907-12.449 7.331-18.266 10.654-7.766 4.436-15.426 9.095-23.416 13.092-6.363 3.183-11.544 7.99-17.775 11.369-.728 5.933-4.948 8.728-9.702 10.994-1.583.755-3.232 1.4-4.901 1.947-6.11 2.001-14.813-.847-18.529-6.014-1.646-2.288-2.2-5.027-2.483-7.671-.673-6.292.665-12.103 5.591-16.557 3.746-3.387 8.113-5.023 13.238-4.101 1.101.198 2.2.402 3.527.645l2.064 2.31c.313-.021.653.03.936-.074 4.031-1.479 8.054-2.978 12.079-4.473l.447-.175c8.983-2.829 17.963-5.667 26.951-8.479 3.965-1.241 8.014-2.248 11.899-3.696 3.619-1.349 7.328-2.202 11.078-2.992 2.81-.592 5.593-1.303 8.398-1.919 2.779-.61 4.719-2.649 6.893-4.195 1.3-.924 2.589-1.771 3.996-2.52 6.396-3.404 13.299-4.328 20.415-4.363 4.319-.021 8.644-.031 12.954-.26 4.146-.22 8.307-.523 12.406-1.15 3.621-.554 7.122-1.696 9.742-4.361.028-1.529-1.214-1.544-1.95-1.899-8.332-4.014-12.51-14.088-9.128-23.664 1.233-3.492 3.043-6.622 6.126-8.959 4.307-3.265 8.846-5.085 14.285-3.303.601.197 1.244.267 1.597.339 4.858 2.556 6.903 6.863 8.455 11.46.395 1.169.302 2.52.336 3.79.05 1.893.013 3.788.013 6.523-.722 3.238-2.405 6.979-4.816 10.163.48 1.338 1.395 1.209 2.098 1.051 1.399-.315 2.783-.748 4.119-1.269 8.535-3.327 16.528-7.61 23.614-13.47.739-.61 1.495-1.209 2.159-1.895.55-.568.971-1.254 1.806-2.364zm-7.128 9.709c1.265.472 1.937-.562 2.828-1.082 1.552-.906 2.449-2.718 4.351-3.113l-.013-.256-.065.295c-3.3-.164-5.196 1.978-7.012 4.251-2.363.616-4.384 1.752-5.807 3.799-.757.141-1.655.068-2.248.458-2.958 1.948-6.356 2.992-9.424 4.646-4.491 2.42-9.178 2.565-13.983 2.147-2.213-.192-4.409-.747-6.572-1.298-8.677-2.21-13.051-8.672-11.83-17.449.197-1.416.508-2.835.943-4.197.897-2.803 2.478-5.199 4.911-6.902 2.615-1.83 5.232-3.772 8.707-3.202 3.529 1.298 5.005 2.549 6.094 4.461 2.074 3.644 3.443 7.542 3.488 11.801.031 2.964-.784 5.628-2.64 8.011-1.369 1.757-2.549 3.661-3.771 5.526-.128.196.026.577.066 1.072l1.68.311c3.669-3.535 5.595-7.877 6.914-12.516.339-1.192.513-2.559.288-3.756-.469-2.494-1.12-4.973-1.936-7.377-2.062-6.078-6.353-8.949-12.817-8.472-.477.036-.953.091-1.342.129-5.666 1.963-9.768 5.408-11.857 11.092-1.022 2.783-1.129 5.622-.985 8.482.276 5.497 2.825 10.002 7.549 12.585 7.193 3.935 14.928 5.626 23.098 2.966 5.201-1.694 10.027-4.16 14.605-7.114.463-.299.697-.949 1.038-1.436 2.632-.223 4.563-1.486 5.742-3.862zm-200.997 75.115l.234-1.559c-.69.503-.485.993-.151 1.471l1.187 1.637c.22 1.273.943 1.92 2.358 1.832l.38-1.48-2.831-.249c1.056-2.028 3.191-.692 4.958-1.646l1.8-3.246h-3.616c-1.642 1.233-2.991 2.248-4.319 3.24zm212.733-82.913l-.669 1.919c.828 1.744 1.641 3.618 2.611 5.408.342.631 1.069 1.055 1.621 1.574.777 2.409 1.346 4.911 2.367 7.213 3.699 8.336 9.12 15.704 13.573 23.619 2.186 3.885 5.718 5.546 9.828 5.935 3.794.359 7.628.557 11.468.007 5.369-.769 10.754-1.643 16.159-1.895 6.542-.305 13.05-.849 19.574-1.351 11.964-.919 23.698-3.368 35.579-4.798 3.009-.363 5.966-1.154 8.975-1.514 7.125-.854 14.256-1.693 21.404-2.298 6.238-.528 12.357-1.641 18.359-3.309 2.906-.807 5.734-2.022 8.441-3.363 1.676-.83 3.114-2.184 4.553-3.425.731-.629 1.083-1.544.141-2.662-1.978 3.518-5.368 5.001-8.919 6.056-4.28 1.273-8.602 2.481-12.981 3.329-7.672 1.487-15.307 3.232-23.175 3.561-8.137.34-16.246 1.017-24.319 2.184-12.017 1.737-24.047 3.39-36.144 4.527-6.834.642-13.637 1.605-20.459 2.383-4.441.507-8.88 1.145-13.338 1.359-5.67.273-10.295-1.817-13.311-6.882-.813-1.365-1.849-2.596-2.721-3.928-1.742-2.662-3.575-5.277-5.127-8.048-2.337-4.172-4.408-8.491-6.713-12.682-.824-1.497-1.999-2.801-3.015-4.193-.291-3.324-1.973-6.03-3.857-8.647.204-1.725-.946-2.996-1.559-4.425-1.878-4.373-3.873-8.696-5.956-13.333-.339.994-.932 1.868-.852 2.675.154 1.556.417 3.213 1.118 4.583 1.801 3.52 3.864 6.907 5.814 10.332.611.032 1.074.056 1.53.089zm238.696-18.335c-6.667 1.602-13.31 1.061-19.942-.234-2.188-.427-4.529-.519-6.522-1.395-4.217-1.853-8.411-3.8-12.095-6.697-4.636-3.646-9.311-7.264-14.172-10.6-5.639-3.87-11.995-5.882-18.883-5.939-3.508-.029-7.026.294-10.525.14-4.533-.201-8.448 1.43-12.214 3.587-1.18.676-2.124 1.763-3.14 2.632l.842 1.225c1.113-.823 2.147-1.785 3.353-2.427 1.396-.743 2.922-1.264 4.43-1.766 1.205-.401 2.453-.747 3.709-.909 3.314-.43 6.663-1.174 9.962-1.021 7.145.33 13.807 2.692 19.768 6.568 4.669 3.036 9.132 6.433 13.429 9.981 7.479 6.176 15.82 10.103 25.583 10.752 5.519.366 10.779-.824 15.872-2.839.27-.106.317-.772.489-1.144l.225.052-.169.034zm-163.921 43.081c5.492-1.786 10.755-2.9 16.253-2.991 2.523-.042 5.043-.687 7.548-1.146 2.67-.489 5.341-.997 7.972-1.651 2.611-.649 5.174-1.491 7.954-2.307 1.633 4.105 2.777 8.126 2.546 12.172-2.429 2.816-5.191 3.801-8.375 3.867-1.118.023-2.244.047-3.35.196-1.104.149-2.187.455-3.279.69-1.239.268-2.483.517-3.718.806-.865.202-1.717.456-2.575.687 1.667.26 3.246.106 4.819-.094 7.92-1.004 15.79-2.36 23.821-2.435 8.826-.083 17.488-1.722 26.091-3.522 4.994-1.045 9.944-2.372 14.829-3.852 4.474-1.356 7.397-4.319 7.957-9.236-.397-4.003-2.012-7.624-4.044-11.091-.888-1.514-1.932-2.952-2.684-4.53-3.759-7.891-9.25-14.487-15.319-20.663-3.36-3.42-6.453-7.003-8.855-11.223-1.719-3.019-4.074-5.678-6.2-8.574-5.275.726-10.325 1.222-15.3 2.476-4.017 1.013-8.128 1.742-12.239 2.286-6.016.796-12.071 1.299-18.106 1.958-2.542.277-5.067.784-7.613.919-5.603.295-11.104 1.064-16.549 2.462-3.861.992-7.822 1.592-11.74 2.357-2.815.55-5.644 1.033-8.446 1.64-2.655.575-5.26 1.415-7.931 1.882-3.17.554-6.199 1.459-9.198 2.609-4.498 1.726-9.132 2.871-14.025 2.71-1.421-.047-2.869.164-4.276.416-3.145.561-6.264 1.276-9.412 1.824-1.944.339-3.922.488-6.154.754.501 1.254.818 2.143 1.205 3.001 2.292 5.088 4.492 10.223 6.935 15.238 2.23 4.579 4.744 9.02 7.103 13.537 1.771 3.392 3.257 6.959 5.296 10.18 2.805 4.432 5.938 8.665 9.072 12.878 2.072 2.786 5.22 3.622 8.5 3.664 2.709.034 5.455-.116 8.131-.531 11.22-1.739 22.527-2.686 33.802-3.933 4.817-.533 9.705-.669 14.351-2.547l-10.214.536c-1.87-2.376-3.951-4.988-5.982-7.637-.263-.343-.27-.881-.449-1.519l1.848-2.263zm-79.018-43.052c2.416.601 4.45.316 6.487-.207 4.502-1.155 9.083-1.804 13.725-1.99 4.687-.187 9.122-1.438 13.508-2.985 2.255-.795 4.551-1.499 6.869-2.086 3.56-.902 7.151-1.683 10.736-2.487 2.022-.453 4.053-.875 6.088-1.266 5.016-.963 10.033-1.92 15.056-2.841 3.763-.69 7.516-1.503 11.31-1.94 8.556-.987 17.119-2.02 25.709-2.578 8.991-.584 17.493-3.719 26.414-4.541.469-.043.915-.297 1.385-.377 1.699-.287 2.946-1.123 3.695-3.11-.528-6.988-1.105-14.282-1.621-21.58-.325-4.607-.599-9.218-.82-13.831-.312-6.523-.548-13.049-.833-19.573-.028-.634-.183-1.262-.263-1.895-.579-4.583-1.217-9.16-1.715-13.753-.587-5.413-1.818-10.678-3.445-15.855-.277-.881-.922-1.648-1.318-2.331-3.349-1.421-3.977-1.629-6.148-1.333-5.219.712-10.466 1.307-15.63 2.316-5.051.987-10.121 1.344-15.234 1.561-2.379.101-4.755.418-7.117.747-5.688.795-11.327 1.982-17.109 1.994-1.112.002-2.238.136-3.334.337-5.954 1.088-11.789 2.879-17.916 2.948-.789.009-1.598.178-2.36.401-4.481 1.309-9.136 1.469-13.715 2.123-3.319.474-6.671.757-9.965 1.36-10.674 1.957-21.306 4.157-32.003 5.972-3.651.619-6.237 2.173-7.947 5.448 0 1.04-.179 2.179.034 3.239.597 2.966 1.288 5.917 2.066 8.842 1.191 4.474 2.05 8.982 2.432 13.614.905 10.953 1.805 21.913 3.647 32.761.879 5.177 1.873 10.341 3.016 15.466.83 3.724 1.982 7.378 3.009 11.057.639 2.294 1.186 4.642 3.307 6.373zm245.912-57.856c1.741-2.033 2.139-4.492 2.089-7.114-.116-6.085-1.142-12.075-2.38-17.984-2.155-10.282-4.706-20.482-7.158-30.701-.481-2.004-1.241-3.943-1.909-5.9-.763-2.234-2.16-3.855-4.071-4.428l-23.652 5.931c-2.819 1.522-3.937 3.959-3.961 7.1-.043 5.59.359 11.128 1.699 16.566.951 3.858 1.87 7.735 3.073 11.518 2.7 8.497 5.554 16.946 8.379 25.403.602 1.803 1.176 3.672 2.982 4.647 9.725 1.102 16.069-.183 24.909-5.038zm-413.114 146.678c9.802-5.5 19.397-10.9 29.008-16.269 3.206-1.79 6.521-3.395 9.669-5.278 3.512-2.1 7.01-4.262 10.362-7.286-.848-.222-1.279-.479-1.646-.407-3.448.675-6.945 1.198-10.313 2.165-7.057 2.026-14.034 4.334-21.065 6.453-6.413 1.932-12.578 4.612-19.118 6.174-1.592.38-3.461.653-4.521 2.495l7.624 11.953zm124.772-54.306c1.811-2.556 3.507-4.868 5.107-7.244.708-1.051 1.527-2.167 1.777-3.362 1.218-5.809-.089-11.117-3.925-15.643-1.936-2.284-4.837-2.761-7.439-1.553-3.92 1.821-6.958 4.485-8.107 8.868-.78 2.978-.962 5.982-.487 9.013.279 1.777 1.183 3.234 2.388 4.59 2.793 3.142 6.271 4.843 10.686 5.331zm126.897 17.693c2.725 0 4.982.229 7.178-.041 7.913-.973 15.816-2.048 23.699-3.24 1.86-.282 3.751-1.008 4.465-3.427-.359-1.82-.697-3.859-1.184-5.861-.207-.85-.726-1.625-1.085-2.392-5.588 1.255-10.862 2.472-16.154 3.609-1.868.402-3.775.809-5.673.857-4.994.126-9.843.956-14.573 2.512-.696.229-1.317.685-2.047 1.076.973 3.179 3.35 4.858 5.374 6.907zm-105.159-141.676c-.157.89-.432 1.777-.451 2.67-.133 6.206-.257 12.385.934 18.562 1.145 5.934 1.51 12.016 2.633 17.955 2.099 11.106 4.396 22.176 6.819 33.217 1.156 5.266 2.759 10.439 4.943 15.405l2.195 1.02c-.234-1.126-.339-1.859-.541-2.564-1.665-5.81-3.758-11.533-4.94-17.438-2.562-12.803-4.34-25.758-5.195-38.782-.671-10.25-2.971-20.103-6.397-30.045zm239.067 69.109c.26.821.489 1.584.744 2.338.997 2.95 3.071 4.245 6.181 4.285 2.88.037 5.365-.896 7.526-2.644 3.424-2.77 6.046-6.15 7.13-10.509.215-.862.109-1.804.151-2.709-1.608 3.184-2.474 6.654-5.272 9.045-2.645 2.26-4.987 5.051-9.16 5.195l-2.794-1.037c-2.345-2.887-2.12-5.711-.142-8.453.92-1.276 1.978-2.565 3.249-3.459 4.02-2.826 8.567-4.248 13.499-4.2 4.858.047 7.918 2.011 9.392 6.678 1.869 5.921 3.449 11.965 2.084 18.3-.045.21.256.496.44.826 1.895-1.66 1.469-4.145 2.537-6.363-.745-3.745-1.222-7.737-2.364-11.529-1.932-6.416-6.148-9.346-12.243-9.612-1.753-.077-3.523-.015-5.274.125-7.81.622-13.581 5.573-15.684 13.723zm-263.776 60.39c-2.616 1.575-4.839 3.134-7.249 4.313-3.467 1.696-7.239 2.518-11.085 2.699-7.489.353-14.991.861-22.478.73-6.612-.116-12.589 1.724-18.468 4.309-.654.287-1.151.929-1.905 1.559l1.51 1.415c4.033-2.332 8.14-4.166 12.616-4.615 4.59-.461 9.234-.609 13.85-.554 7.667.093 15.304.26 22.808-1.764 4.57-1.233 8.47-3.362 11.34-7.202l-.939-.89zm271.641-57.033c3.704-1.533 7.491-4.531 9.305-7.469 1.055-1.708 1.856-3.555 1.6-5.968-4.627.479-8.6 1.775-11.7 4.916-1.547 1.568-2.751 3.515-2.416 5.944.063.455.292.886.439 1.313.434.278.809.577 1.232.774.423.197.893.29 1.54.49zm-398.419 109.465c-1.735-5.972-4.771-10.569-10.249-13.531l-2.79 1.238c4.248 4.316 7.233 9.119 9.198 14.874l3.841-2.581zm-13.946 12.057c-.045-.596.05-1.246-.155-1.781-3.287-8.548-8.414-15.867-15.04-22.164-.448-.425-.965-.869-1.542-.3 3.034 3.843 5.983 7.737 9.102 11.489 3.184 3.832 4.315 8.743 7.635 12.756zm424.98-157.444c.488 5.969.922 11.288 1.359 16.642 1.793-.296 1.849-1.511 1.908-2.588.255-4.628-.325-9.182-1.242-13.9l-2.025-.154zm-427.766 158.942l-2.233-5.846c-2.378 1.675-5.486 2.177-6.151 5.491 1.942.678 3.526.081 5.018-.676l3.366 1.031zm18.585-15.527l.574-.201c-.147-.867-.081-1.849-.477-2.582-1.947-3.603-3.96-7.18-6.945-10.077l-1.729.46c1.688 2.08 3.38 3.927 4.789 5.968 1.411 2.042 2.538 4.279 3.788 6.432zm-33.569 3.108c-3.896-.04-3.957-.097-5.138 1.134-.446.465-.54 1.265-.926 2.246 2.963.2 5.124-.057 6.064-3.38zm18.603-10.399c-1.16-1.432-2.15-2.376-4.094-2.12l-1.684 3.381 4.516.222 1.262-1.483zm-2.817 5.912c2.639.88 4.607-.312 6.967-1.033l-1.336-1.815-3.81.37-1.821 2.478zm-15.927-4.904l-3.3-.399c-1.035 1.354-2.005 2.541-1.203 4.471 2.269-.262 3.333-1.655 4.503-4.072zm2.057 7.793l1.656-2.615c-2.121-.084-3.772-.419-5.323.339-.497.738-1 1.366-.232 2.276h3.899zm4.187 5.805c-1.407.846-2.126 1.712-2.075 3.383l4.249-.443 1.363-2.472-3.537-.468zm1.657-15.938c1.562 2.628 1.568 2.633 2.913 2.51.442-.726 1.008-1.598 1.494-2.513.088-.167-.153-.508-.244-.767-2.107-.106-2.107-.106-4.163.77zm13.997 18.177l3.994-3.778h-3.908l-2.104 2.937 2.018.841zm-19.604-6.599l-1.032 2.501h4.052l1.301-2.501h-4.321zm18.743-2.672l-1.938 3.243 2.755.278c.606-1.08 2.178-1.335 1.992-3.07l-2.809-.451zm-20.43 14.818l3.824.192 1.702-2.698c-2.343-.604-4.145-.467-5.526 2.506zm7.496-26.028l1.138-2.653c-1.95.394-3.301.647-4.638.959-.191.044-.315.378-.684.853l4.184.841zm10.793 11.593c-1.77.05-2.947-.442-3.909 1.077l1.508 1.94 2.401-3.017zm-19.129-3.655h4.532l-2.187-2.877-2.345 2.877zm8.906 5.701l-1.578 2.698c1.32.505 2.23 1.297 3.268-.369l-1.69-2.329zm6.753-6.825l-3.549.166c.075 1.302.26 2.19 1.814 2.258l1.735-2.424zm-21.013 2.98l-.214 2.573c1.525-.854 1.525-.854 1.819-2.298l-1.605-.275zm17.664-11.832c-1.075.539-2.018.922-.76 2.185l2.906-.599-2.146-1.586zm2.863 29.227c-1.691-.018-2.85-.099-3.554 1.322 1.388.656 2.283.149 3.554-1.322zm-10.325-15.562l.575.606 1.887-.723-1.366-1.363-1.096 1.48zm.95 16.416l-.152.763h2.369l.03-.522-2.247-.241zm14.708-6.199c-.607.523-.461 1.026.067 1.494.034.03.33-.117.335-.193.024-.398.006-.801-.033-1.198-.004-.044-.232-.066-.369-.103zm-.193-5.207l-2.279.145.498 1.358 1.781-1.503zm5.268 3.172l-.322-.118c-.142.343-.287.685-.41 1.035l.352.154.38-1.071zm-26.492-17.364l-.053.301.384-.105-.331-.196zm26.323 11.948c-.096.029-.24.031-.278.095-.065.111-.064.26-.091.392l.504-.116-.135-.371zm458.126-218.132c.491.522.888.752.878.962-.406 8.096-.85 16.19-1.258 23.721-1.959 3.265-4.271 5.143-7.141 6.349-1.083.455-2.175.453-3.262-.468-.721-2.565.914-4.166 2.749-5.415 1.668-1.135 3.617-1.86 5.876-2.982.152-1.152.527-2.704.528-4.255.003-3.774.787-7.523.602-11.593l-11.846.949c-.84 1.078-.856 2.846-1.138 4.555-.804 4.875-1.698 9.731-4.558 13.973-1.84 1.851-4.053 2.372-6.777 1.727l-1.283-1.387c-.75-2.839 2.49-5.225 8.492-6.477.718-2.961 1.394-6.053 2.228-9.101.821-3 .4-6.309 2.219-9.395 4.831 1.581 9.473 1.165 13.691-1.163zm-5.409 4.467c-1.954-.023-3.938-.861-6.7 0h6.7zm4.089-1.11l-.736-.261-.056.34.792-.079zm-87.827 129.902c-2.321 1.054-4.054.305-5.526-1.001-2.372-2.103-4.737-4.239-6.883-6.566-3.116-3.379-6.033-6.938-9.295-10.723l.22-3.038c1.057.463 1.811.7 2.468 1.097 3.395 2.05 6.745 4.173 10.15 6.207 2.754 1.645 5.298 3.476 7.156 6.17 1.605 2.324 2.524 4.742 1.71 7.854zm-15.535-15.343c1.663 3.76 7.239 9.757 11.252 13.065.571.47 1.332.709 2.431 1.274.067-1.29.345-2.223.115-3.006-.74-2.514-2.35-4.571-4.399-6.087-2.03-1.502-4.366-2.596-6.586-3.838-.914-.511-1.874-.941-2.813-1.408zm4.691-44.327c.052 1.935-.829 3.562-2.381 4.796-1.493 1.187-3.002 2.428-4.689 3.286-5.695 2.894-11.588 5.34-17.741 7.112-1.53.441-3.095.86-4.955-.072.388-.495.639-1.15 1.081-1.324 3.006-1.19 5.475-3.25 8.219-4.85 5.501-3.205 11.184-6.098 16.814-9.079 1.118-.592 2.335-1.179 3.652.131zm-18.712 10.594c.613.006 1.312.208 1.826-.015 3.194-1.383 6.408-2.743 9.487-4.354 1.765-.923 3.531-2.047 4.816-4.417-1.043.175-1.69.13-2.17.389-4.457 2.404-8.892 4.847-13.304 7.332-.307.173-.376.769-.555 1.168l-.826.129.427.474.299-.706zm38.249-68.452l-1.497 3.134-3.672.701c-.137.395-.38.721-.314.96.899 3.205 1.6 6.493 2.838 9.565 1.276 3.165 1.391 6.121.007 9.197-.322.717-.512 1.493-.75 2.202-1.408 1.656-3.069 2.786-4.946 3.469-1.793-.64-2.247-1.931-2.22-3.443.03-1.695.757-3.125 2.212-3.996 1.337-.801 2.806-1.386 4.389-2.148-1.412-5.976-2.826-11.959-4.227-17.945-.028-.121.094-.29.174-.42.082-.134.197-.249.35-.436l3.969.855c1.059-.485 1.982-.91 3.687-1.695zm-244.709 52.428c2.655.243 4.365 1.732 5.918 3.316 2.571 2.621 4.891 5.459 6.561 8.771.788 1.565 1.574 3.136 2.468 4.642 1.69 2.848 3.456 5.651 5.186 8.465-.684.802-1.59.67-2.086.073-3.39-4.075-7.914-6.891-11.655-10.571-2.874-2.828-5.269-5.997-6.938-9.669-.733-1.612-1.318-3.302.546-5.027zm.316 1.951c2.108 6.713 7.291 12.829 12.364 14.705-1.5-4.431-3.932-8.053-6.852-11.354-1.328-1.5-2.802-2.957-5.512-3.351zm20.09 41.99c-.209.687-.215.935-.305.971-3.667 1.444-7.164 3.302-11.109 4.052-4.673.888-9.298 2.019-13.951 3.014-1.651.353-3.16.222-3.994-1.461.122-1.928 1.427-2.883 2.658-3.872 3.335-2.678 7.263-4.028 11.427-4.338 5.078-.379 10.12.233 15.274 1.634zm-27.182 6.376c1.616.696 3.12.047 4.606-.282 3.7-.82 7.411-1.615 11.065-2.611 1.847-.503 3.964-.611 5.433-2.357-8.02-2.716-17.468-.357-21.104 5.25zm203.728-50.963c.917-3.265 2.612-6.038 7.077-11.817 1.386-1.794 2.97-3.292 5.319-4.205l1.439.573c.126.5.33.836.257 1.095-1.41 5.049-4.423 9.111-8.151 12.653-1.594 1.514-3.478 2.77-5.941 1.701zm11.178-13.213c-3.535 2.711-5.236 6.427-7.476 9.707-.152.223.026.669.064 1.196 4.713-3.934 7.111-7.384 7.412-10.903zm-192.753 7.055c1.471-.195 2.235.886 2.897 1.936 2.069 3.287 2.907 6.916 2.971 11.204-4.171-2.501-5.497-6.365-6.789-10.223-.359-1.071-.389-2.199.921-2.917zm1.019 2.121c-.269 2.65.889 4.215 2.839 6.646-.77-2.881-.827-4.867-2.839-6.646zm211.356-1.236c-.775-.456-1.672-.741-2.197-1.345-.989-1.139-1.105-2.508-.159-4.179l1.695-.398c.425.427.742.606.838.865.901 2.425.862 2.434-.177 5.057zm-226.982 33.629l2.674.946c.686 1.886.559 3.304-1.175 4.233-2.735-1.483-2.735-1.483-1.499-5.179zm230.606-9.225v4.152c1.911.394 1.695-1.508 2.637-2.656.697 2.776-.332 4.003-2.128 4.844-2.899-2.071-2.964-2.492-.509-6.34zm-22.237 62.008c-1.974 1.281-4.153 1.862-6.381 2.035-4.948.383-9.787 1.33-14.585 2.517-2.157.533-4.247 1.356-6.416 1.822-7.332 1.579-14.689 2.867-22.232 3.215-4.106.189-8.146 1.534-12.248 2.147-3.94.589-7.921.906-11.883 1.342-6.508.715-13.024 1.368-19.523 2.159-9.193 1.119-18.375 2.333-27.559 3.521-1.736.225-3.47.479-5.192.794-1.631.298-3.171.191-4.116-.354-1.877-2.247-3.484-3.994-4.879-5.895-1.127-1.537-2.01-3.254-2.978-4.904-3.227-5.5-6.346-11.067-9.715-16.479-1.245-1.999-3.081-3.628-4.622-5.447-1.105-1.304-2.697-2.389-2.142-4.671.456-.217.992-.627 1.58-.727 7.548-1.298 15.115-2.486 22.654-3.832 8.174-1.46 16.297-3.178 24.619-3.71 2.848-.182 5.659-.946 8.485-1.452.787-.141 1.564-.394 2.356-.445 7.356-.479 14.496-2.448 21.764-3.291 8.913-1.034 17.564-3.449 26.461-4.359 5.905-.604 11.582-2.091 17.355-3.88 3.68 3.861 7.515 7.448 10.66 11.673 2.486 3.34 5.373 6.272 8.388 9.156 4.273 4.087 7.908 8.766 10.38 14.217.67 1.47 1.219 2.995-.231 4.848zm-125.378 10.143l3.069.603c2.285 1.495 2.348 3.743 2.409 6.196 2.141-.473 4.281.453 5.889-1.239l-1.764-4.881c2.35-1.415 4.776-1.853 7.164-2.052 2.469 1.42 4.099 3.232 4.618 5.996 3.794.188 7.353-.379 10.84-1.517l-.151.103 10.704-1.491-2.525-2.2v-3.62l1.8 3.124c1.981.091 4.021.254 6.057.218.415-.007.817-.764 1.6-1.551l-1.337-1.435h-5.807l2.51-1.957c-.659-1.731-1.359-3.317-1.862-4.963-.536-1.757-.552-3.472 1.41-4.584 1.838-.204 3.724-.472 5.621-.582.496-.028 1.022.435 1.533.673l-6.696 1.599c-.95 3.124.021 5.329 2.144 6.932h2.621c-.115.605-.543 1.51-.297 1.765 1.659 1.714 1.281 3.697.652 5.9 1.304 0 2.259.047 3.208-.014.884-.056 1.76-.228 2.825-.374-.578-2.229-2.471-3.887-1.226-6.284 1.921-.687 3.98-1.422 6.143-2.194-2.793-2.569-3.435-5.465-2.502-8.731 3.674-1.314 3.674-1.314 6.013-.771l-5.147 1.999c-.193 1.978.465 3.558 1.207 5.116 2.241 1.104 4.295 1.305 6.482-.656l-2.062-5.13c2.861 1.46 3.121 3.539 3.382 5.973-.964.568-1.88 1.117-2.806 1.647-.397.228-.817.417-1.036.527l1.561 4.273c-.743 1.112-1.339 2.003-1.939 2.889l-.26.037.172-.14c.628.066 1.294.303 1.879.174 5.773-1.277 11.587-2.147 17.517-2.225.846-.011 1.684-.55 2.58-.863-.623-2.566-1.726-4.861.065-7.217l3.109-1.624c-3.011-2.344-4.401-5.192-3.639-8.952 2.544-1.456 5.082-2.171 7.789-2.316 1.453 1.953 2.913 3.668 3.23 5.958.101.728-.209 1.512-.326 2.237l-3.802 1.947c1.389 2.274 2.672 4.448 2.791 7.013l-1.557 2.103c2.483-1.263 5.127-.264 6.939-2.208l-1.774-6.416c4.152-2.856 4.263-2.901 8.665-3.44.502 1.195 1.207 2.441 1.538 3.781.32 1.296.254 2.686.38 4.325l5.377-1.108c-1.505-2.491-3.057-4.573-2.627-7.38 1.789-1.432 3.595-2.663 6.238-3.006.455.644.953 1.351 1.448 2.057l-2.777-.782-3.608 2.699c.223 1.887.57 3.357 2.254 4.206 1.649.267 3.01-.284 4.217-1.791l-.256-4.497c1.669 1.337 1.905 3.138 1.738 5.25l-3.264 3.03c1.041 0 1.53.103 1.954-.019 1.362-.395 2.7-.874 3.858-1.258 1.079-2.353-.017-4.124-1.076-5.602-2.778-3.876-5.72-7.645-8.782-11.302-2.244-2.68-4.843-5.062-7.171-7.677-2.967-3.332-5.788-6.794-8.744-10.136-.816-.923-1.886-1.622-2.749-2.347-5.819 1.444-11.305 2.905-17.029 3.646-9.799 1.267-19.498 3.302-29.239 5.022-4.084.721-8.14 1.818-12.254 2.106-6.383.447-12.526 2.384-19.148 2.429l.942 3.712c-5.201 2.305-7.205 2.76-10.907 2.445l-1.03-2.216 7.871-2.594c-4.868-.354-9.485.714-14.136 1.479-4.724.777-9.476 1.499-14.118 2.639-4.568 1.122-9.359 1.042-13.807 2.464-.037 1.783 1.288 2.344 2.081 3.286 1.74 2.064 3.573 4.071 5.104 6.282 1.806 2.61 3.331 5.413 4.981 8.129 1.076 1.771 2.425 3.433 3.182 5.33 1.625 4.07 4.727 7.121 7.006 10.73.613.97 1.644 1.308 2.804.576-2.176-2.952-2.167-2.958-1.603-5.588l3.83-1.826-.161.131zm88.709-15.266c2.481.131 4.835.326 6.669-1.944-.299-2.152-1.085-3.915-3.182-4.888-1.777.364-3.515.614-4.858 1.924-.43 1.897.401 3.38 1.371 4.908zm-2.069 5.429c-.052 2.372.111 3.981 2.03 4.797 1.543-.683 2.994-1.299 4.416-1.977.236-.113.343-.493.668-.993l-1.159-3.155c-2.305-.416-3.81.964-5.955 1.328zm13.839-2.886l1.615 3.893c2.107-.526 4.223-.294 5.682-1.96.342-1.602-.022-2.878-1.152-4.106-2.001.227-3.858.944-6.145 2.173zm-43.75 10.699c3.249.763 5.466-.068 7.877-1.717l-1.9-2.616-6.393 1.428.416 2.905zm-43.425 7.78c1.834-1.216 4.214-.655 5.752-2.56-.585-1.496-1.506-2.613-3.314-2.94-1.453.243-2.908.603-4.309 1.428l1.871 4.072zm-14.991-.605c1.551.604 2.955.735 4.346.107.416-.188.762-.529 1.064-.745-.188-.733-.208-1.246-.447-1.62-.238-.373-.697-.605-.987-.841-1.598-.339-2.955.072-4.245.743-.225.117-.306.508-.52.893l.789 1.463zm87.312-142.087l3.26 1.454c1.659 1.999 2.805 4.246 2.981 6.884.362 5.418 1.282 10.744 2.395 16.055.455 2.17.661 4.425.689 6.644.059 4.81.899 9.491 1.752 14.203 1.391 7.689 2.508 15.432 1.628 23.288-.228 2.037-.344 4.117-.999 5.704-1.578 1.549-3.334 1.117-4.825 1.6-4.893 1.585-9.929 2.269-15.043 2.717-2.672.234-5.285 1.149-7.925 1.757-7.484 1.722-15.122 2.323-22.725 3.239-8.396 1.011-16.751 2.38-25.11 3.683-4.885.762-9.73 1.773-14.614 2.538-5.226.819-10.237 2.427-15.284 3.905-4.896 1.434-9.665 3.301-14.877 3.509-1.88.075-3.725.851-5.6 1.238-1.247.257-2.514.462-3.782.554-.766.056-1.551-.147-2.587-.262.175-1.053.471-1.92.418-2.765-.058-.936-.405-1.861-.678-2.776-2.146-7.188-3.804-14.462-4.634-21.941-.526-4.743-1.422-9.456-2.365-14.14-1.957-9.711-3.289-19.481-3.298-29.403-.002-2.208.065-4.411.471-6.8.928-.062 1.7-.098 2.469-.169 2.535-.232 5.131-.206 7.593-.765 10.142-2.303 20.462-3.401 30.743-4.769 1.108-.148 2.218-.287 3.318-.481 6.92-1.216 13.842-2.417 20.753-3.68 6.126-1.119 12.22-2.418 18.36-3.449 11.17-1.875 22.364-3.618 33.549-5.402 4.566-.728 9.136-1.42 13.967-2.17zm-.348 1.541c-3.306.738-6.249 1.479-9.228 2.027-1.881.346-3.832.3-5.724.605-10.252 1.654-20.503 3.321-30.74 5.066-6.928 1.182-13.828 2.521-20.748 3.752-6.765 1.203-13.523 2.459-20.313 3.507-8.217 1.269-16.465 2.342-24.699 3.502-1.582.223-3.222.265-4.731.728-3.399 1.044-6.856 1.509-10.388 1.691-.882.046-1.74.532-2.635.824-.122 1.316-.359 2.428-.301 3.525.175 3.337.354 6.68.732 9.998.668 5.858 1.206 11.752 2.31 17.532 1.378 7.209 2.559 14.437 3.595 21.699 1.013 7.099 2.836 14.007 5.33 20.66 2.475.865 4.531-.465 6.696-.765 5.869-.813 11.535-2.477 17.223-4.13 4.886-1.42 9.688-3.244 14.82-3.828 3.803-.433 7.621-.96 11.346-1.821 10.308-2.384 20.808-3.389 31.279-4.617 7.769-.912 15.576-1.538 23.148-3.705 1.832-.524 3.745-1.036 5.629-1.067 5.993-.098 11.571-2.166 17.676-3.21.337-2.248.784-4.419.967-6.612.643-7.701-.466-15.275-1.708-22.849-.67-4.083-1.074-8.209-1.555-12.321-.315-2.693-.323-5.442-.876-8.081-1.082-5.164-1.947-10.344-2.185-15.612-.083-1.843-.611-3.43-1.977-4.906l-2.943-1.592zm-65.164-1.467c.575.26 1.486.52 2.197 1.047.433.321.561 1.051.768 1.48-.243 1.878-1.102 3.07-2.993 3.857l-2.85-.872c-.049-.773-.189-1.39-.106-1.975.23-1.623.805-3.038 2.984-3.537zm-1.099 4.591c1.839-.038 2.62-.715 2.468-2.57l-2.468-.237v2.807zm174.705-22.972c3.117 2.847 3.932 6.42 4.972 9.922 3.231 10.88 4.747 22.086 6.542 33.246.478 2.977 1.419 5.877 2.026 8.837.578 2.815 1.164 5.683-1.565 8.754-2.68 1.187-5.993 2.744-9.377 4.123-2.263.922-4.714.988-7.086.568-4.221-.748-7.308-2.828-8.581-7.26-1.672-5.819-3.639-11.545-4.227-17.629-.214-2.208-.736-4.396-1.236-6.565-1.608-6.978-3.295-13.938-4.902-20.917-.578-2.507-.966-5.041 1.123-7.546 7-3.019 14.958-3.192 22.311-5.533zm-22.026 7.296c-1.058 2.875-.304 5.255.277 7.487 1.806 6.937 2.684 14.1 5.128 20.88.267.739.38 1.551.443 2.34.5 6.241 2.194 12.192 4.05 18.148 1.317 4.227 3.513 7.077 8.079 7.687l.365.057c6.17.329 10.626-2.655 15.199-4.839 1.626-2.405 1.314-4.828.592-7.101-1.896-5.967-2.589-12.148-3.565-18.28-.827-5.195-1.374-10.436-2.793-15.526-.941-3.376-1.794-6.777-2.723-10.158-.636-2.312-1.472-4.524-3.658-6.213-6.99 2.11-14.384 2.716-21.394 5.518zm-89.37 134.698c-.431 2.116-1.999 3.24-3.398 4.173l.601 5.099-8.881 1.202c-1.683-1.187-1.832-2.473-1.291-4.047 1.656-.743 3.351-1.503 5.354-2.4-1.651-2.909-3.445-5.602-2.952-9.109 1.781-1.973 4.274-2.317 7.081-2.691 1.115 2.643 3.948 4.458 3.486 7.773zm-9.552-4.131c1.102 2.694.831 5.926 4.428 6.978 2.287-.384 3.789-1.514 3.923-4.247l-3.337-4.484c-1.052.18-2.152.314-3.22.579-.431.106-.79.5-1.794 1.174zm-1.838 10.997c.06.71.022.899.098 1.014.151.231.365.423.658.746 1.883-.215 3.909-.109 6.033-1.15l-1.064-1.867-5.725 1.257zm2.702-27.087c1.739 2.146 3.943 3.684 3.885 6.886l-1.5 2.627-5.229 2.12c-3.32-2.543-3.612-5.858-3.728-9.263 2.117-1.422 3.898-2.708 6.572-2.37zm1.522 8.176c1.581-3.378-.71-4.784-2.244-6.804l-3.841 1.379c-.477 2.857.459 4.892 1.887 7.004l4.198-1.579zm25.401-13.132c2.114 1.358 3.157 3.412 3.98 5.926-2.494 2.212-4.744 4.655-8.389 3.837-3.041-3.815-3.15-4.124-3.056-8.526 1.922-1.793 4.392-2.143 7.039-2.357l.577 1.28c-2.194.559-4.706.294-6.451 2.361.398 2.24.829 4.341 2.922 5.673 2.261.008 3.841-1.221 5.609-2.644-.482-1.036-.965-1.98-1.362-2.96-.341-.843-.583-1.725-.869-2.59zm-113.769 17.636h6.057c1.901 1.901 2.288 4.149 2.267 6.58-1.92 1.541-3.873 2.471-6.024 2.756-2.794-1.499-2.763-1.534-4.515-4.254-.399-1.878.474-3.317 2.215-5.082zm6.489 5.66c-.019-1.75-.015-3.464-1.913-4.7l-4.173.839-1.244 3.628 2.114 2.135c2.623.03 3.959-.697 5.216-1.902zm18.789-.283c-1.698-2.477-3.398-4.58-2.441-7.922l6.902-2.444c3.562 1.807 2.903 5.106 3.878 7.733-2.583 2.126-5.21 2.444-8.339 2.633zm.394-1.505c2.54-.34 4.472-.648 6.302-2.009-.353-1.31-.629-2.52-1.02-3.692-.135-.407-.553-.72-1.09-1.38-1.936.664-4.088.906-5.876 2.707l1.684 4.374zm18.408.628c-4.81-.702-5.749-1.775-6.745-7.773 1.863-1.995 4.326-2.219 7.104-2.265 1.067 2.449 3.579 4.109 3.391 6.877-.886 1.877-2.297 2.58-3.75 3.161zm-3.169-2.303c2.42.955 4.079.685 5.341-1.747l-2.251-4.223c-2.219-.235-3.704.345-5.036 1.939l1.946 4.031zm55.033-6.324c-1.693-2.408-2.682-4.679-3.144-7.503l1.866-2.818 5.077-.749c.416 3.119 4.432 4.917 3.071 8.944-2.158.686-4.184 1.902-6.87 2.126zm.849-1.652c1.81-.88 3.692-.67 4.743-2.471-.432-.914-.807-1.761-1.228-2.586-.415-.814-.876-1.605-1.368-2.498-1.458.018-2.864-.146-4.111 1.144-.798 2.282.729 4.003 1.964 6.411zm-76.559 12.769l-5.065 1.403c-2.347-.765-3.247-2.662-4.093-4.5-.598-1.298-.817-2.743.568-4.545l5.018-1.761c3.887 4.432 4.141 5.077 3.572 9.403zm-3.802-7.291c-1.782-.173-3.159.343-4.067 1.827.693 2.665.693 2.665 2.629 4.881 1.995-.171 1.995-.171 3.914-1.36.086-2.179-.978-3.861-2.476-5.348zm49.357-7.112c1.099-.645 1.993-1.299 2.986-1.72 1.294-.548 2.668-.91 4.23-1.425.736 1.107 1.439 2.121 2.095 3.164.58.922 1.107 1.878 1.597 2.714-.283 3.718-2.96 4.721-5.8 5.727l-2.641-.529c-1.952-2.215-2.759-4.654-2.467-7.931zm1.057 1.076l1.85 5.208c3.952.526 4.274.363 6.442-3.107-.723-1.654-1.419-3.402-3.398-4.655-1.475.771-2.994 1.563-4.894 2.554zm-14.136-8.786c3.948-.29 7.517-2.384 11.727-2.419l.899 2.025c-.596 1.6-6.586 3.495-10.999 3.659-1.242-1.401-1.242-1.401-1.627-3.265zm3.362 1.08l.339.205.071-.288-.41.083zm-10.636 37.939h-6.627c-1.068-1.415-2.048-2.611-2.115-4.434 3.407-.632 6.362-2.945 10.044-2.38 2.229 1.564 2.203 1.582 2.688 4.002-.646 2.017-2.881 1.756-4.132 2.911l.142-.099zm-6.105-2.3c2.816.232 5.626 1.043 8.12-.439.372-1.704-.516-2.258-1.869-2.714-2.145.51-4.826.174-6.251 3.153zm22.655-25.655c.271 2.92.246 5.1-2.509 6.764h-5.669c-2.316-2.309-2.856-5.09-2.594-8.478l7.263-2.292c1.311 1.496 2.435 2.778 3.509 4.006zm-4.113-2.301l-5.253 1.711c-.141 2.426.471 4.287 1.872 5.984 1.994.513 3.79.222 5.396-.915 1.715-2.877.544-4.865-2.015-6.78zm-19.902 13.98c1.345 2.6 1.27 5.09.649 7.605-.219.891-.599 1.127-2.977 2.464l-3.36-.875c-2.458-1.939-3.363-4.314-2.766-7.467 1.513-1.242 3.484-1.817 5.723-2.58l2.731.853zm-6.764 2.704c.29 4.799 1.149 5.612 5.464 5.363 1.488-2.305 1.208-4.642.065-7.091-2.207-.463-3.793.489-5.529 1.728zm5.653-20.03l-.765-3.232 11.112-2.58c1.647 1.131 1.891 2.369 1.129 4.092-3.42 1.504-7.074 2.246-11.476 1.72zm9.687-3.491c-2.784.065-5.539.261-7.863 2.198 2.634-.699 5.525-.166 7.863-2.198zm50.23-10.472l1.655 3.086c-3.211 3.191-7.175 2.427-10.731 2.956-.494-.572-.867-.891-1.082-1.293-.122-.229.015-.594.055-1.175l10.103-3.574zm-1.117 3.09l-.035-.556-1.457.114.032.516 1.46-.074zm-69.357 37.132c-1.593 3.009-4.57 2.284-6.829 3.298-3.02-2.083-3.833-4.896-3.326-8.123 1.605-1.695 3.603-1.646 5.265-2.172 3.382 2.192 3.382 2.192 4.89 6.997zm-3.803-5.216c-2.077-.024-3.629.038-4.718 1.574-.088 1.924.394 3.645 1.751 5.029 1.894.123 3.582.036 4.916-1.367.447-2.148-.943-3.526-1.949-5.236zm91.729-16.017c1.819-2.222 4.531-2.011 7.171-2.636 2.155 2.287 2.68 4.802 1.048 8.018l-5.581 1.691c-3.534-1.905-3.651-2.239-2.638-7.073zm2.401 5.45l4.611-1.299c1.194-1.813.929-3.233-.232-4.815l-4.349.47c-2.032 2.999-2.032 2.999-.03 5.644zm-34.764-20.245l.863 2.765c-3.832 1.32-7.343 2.57-11.49 2.162l-.765-2.737c4.111.056 7.2-2.982 11.392-2.19zm-68.49 40.134c-3.886.267-3.886.267-7.043-.995-1.062-1.778-2.393-3.606-1.052-5.952 2.662-1.385 2.662-1.385 5.892-1.163 2.443 2.278 2.256 5.26 2.031 8.247l.172-.137zm-6.666-2.417c1.982 1.148 3.449 1.404 5.057.369.318-1.785-.395-3.281-1.165-4.733-1.719-.343-2.992-.003-4.234 1.202l.342 3.162zm38.425-9.485c-.579 1.751-.374 3.556.982 5.277 1.573.641 3.219 1.119 4.878.057 2.016-1.849.132-3.901.291-5.891 1.945 1.602 2.035 1.906 1.604 5.974-.157.111-.665.504-1.208.841-.536.333-1.107.611-1.941 1.063l-4.774-.859c-1.463-2.735-1.894-5.267-.879-8.082 1.948-.871 3.949-.903 6.084-1.231-.951 2.499-3.405 1.026-5.037 2.851zm-27.828-15.882c-3.999 1.554-7.354 2.705-11.325 2.492l-.835-2.56c2.943-.614 5.551-1.197 8.176-1.689 1.284-.24 1.371-.135 3.984 1.757zm-15.896.313l-.422 2.615c-2.571 1.125-5.038 2.454-8.186 2.103l-.954-2.223c2.986-1.52 5.943-2.203 9.562-2.495zm108.452-16.444c-3.759 2.308-3.759 2.308-7.599 2.661l-.963-1.707 6.605-3.426 1.957 2.472zm-46.988 37.566l3.721-3.987-1.779-4.807c1.795 1.166 2.565 3.073 3.651 4.702-2.976 3.288-2.976 3.288-5.593 4.092zm-19.456-65.65c-2.112-2.757-1.247-5.785-2.054-8.397-.837-2.71-1.002-5.631-1.414-8.466-.411-2.827-.764-5.662-1.278-9.518-.738 1.69-1.29 2.431-1.362 3.215-.249 2.698-.376 5.411-.46 8.121-.067 2.176-.346 4.287-1.26 7.091-2.875-5.558-2.61-11.414-5.425-16.37-1.149.797-.654 1.797-.702 2.593-.057.943.102 1.904.216 2.851.647 5.378 1.315 10.755 1.956 16.134.068.575.009 1.165.009 1.829-.458-.121-.729-.129-.751-.208-1.466-5.035-1.999-10.24-2.412-15.421-.359-4.509-.795-9.061-.664-14.07 2.371 2.198 3.214 3.501 4.44 7.123.857 2.533 1.533 5.127 2.509 8.44 1.944-6.526 1.113-12.656 2.402-18.495 1.554.2 1.716 1.416 1.906 2.457.628 3.451 1.16 6.92 1.725 10.383.796 4.87 1.516 9.753 2.418 14.603.353 1.89.773 3.716.201 6.105zm-54.457 8.069c-1.723 2.682-4.046 4.135-7.389 4.428-.265-.591-.782-1.246-.836-1.938-.91-11.56-1.763-23.125-2.621-34.69-.011-.15.074-.306.17-.674 1.964-.971 4.076-1.136 6.125-.494 2.492 1.945 3.091 4.63 3.521 7.282 1.408 8.668 1.279 17.403 1.03 26.086zm-6.213-32.209l-3.088.682c.977 11.294 1.933 22.343 2.889 33.402 3.731-.61 5.205-2.256 5.111-5.547-.069-2.379-.01-4.765-.171-7.138-.355-5.229-.809-10.451-1.231-15.676-.19-2.347-1.113-4.276-3.51-5.723zm83.557 13.904c.857 3.833.857 3.833-2.245 5.854-1.638-.191-2.464-1.386-2.894-2.775-.795-2.576-1.4-5.209-2.114-7.811-.209-.761-.479-1.512-.805-2.23-.103-.228-.475-.334-.894-.606-.673 4.408 1.712 8.63.475 13.976-.578-1.611-.955-2.28-1.048-2.986-.622-4.726-1.477-9.448-1.687-14.197-.233-5.253-.833-10.449-1.417-15.657-.086-.764-.012-1.547-.012-2.397 1.727-.791 3.388-1.118 5.119-.633 6.122 5.245 6.015 10.274-.527 18.292 3.334 4.36 2.527 10.244 5.25 15.353.735-.48 1.533-.74 1.864-1.283.466-.763.584-1.736.935-2.9zm-10.937-27.377c.449 4.63.858 8.851 1.277 13.071.013.126.124.265.227.354.116.101.275.153.57.307 3.2-1.87 3.615-5.181 4.229-8.149-.484-2.662-1.385-4.776-3.779-6.258l-2.524.675zm32.884 19.24c1.333 2.45.563 5.823 3.82 7.655.364-.815.827-1.358.793-1.868-.096-1.414-.261-2.852-.646-4.211-1.429-5.052-3.083-10.045-4.399-15.125-.755-2.913-1.132-5.939-1.468-8.938-.23-2.048-.074-4.13 1.667-5.504 1.561-.022 2.268.87 2.727 1.893 1.171 2.609 2.039 5.298 1.582 8.803-2.317-2.621-.993-6.34-3.99-8.53-.179.84-.455 1.396-.38 1.898.563 3.77.951 7.589 1.868 11.277 1.228 4.937 2.92 9.758 4.33 14.653.348 1.207.54 2.514.49 3.762-.036.885-.441 1.863-.966 2.596-.708.991-1.848 1.155-3.271.718-2.582-2.09-2.633-5.378-3.387-8.506l1.23-.573zm-70.495-16.686c1.123 1.152 2.026 1.816 2.583 2.698 1.82 2.88 2.603 6.192 2.987 9.475.661 5.666.877 11.383 1.304 17.077.209 2.782-.311 5.365-2.045 7.9l-2.349.45c-2.488-6.075-3.451-12.353-4.168-18.596-.65-5.656-.923-11.408.07-17.095.088-.51.753-.919 1.618-1.909zm-.204 2.253c-1.745 7.579.614 26.337 4.106 32.947 1.851-2.18 1.908-4.628 1.644-7.188-.31-3.004-.52-6.019-.809-9.025-.274-2.847-.425-5.72-.947-8.523-.402-2.164-1.22-4.267-2.013-6.336-.229-.6-1.012-.988-1.981-1.875zm26.034-3.263c1.523-1.589 2.9-2.175 4.608-1.605 5.033 5.671 4.313 12.386-1.791 16.645-.057 5.753 1.433 11.445 1.229 17.821-.734-.815-1.231-1.107-1.285-1.465-1.559-10.374-2.962-20.764-2.761-31.396zm2.28-.092c-.913 4.275-.245 8.025.012 11.767.013.184.446.339.861.634 3.123-1.983 3.23-5.08 2.86-8.255-.218-1.873-.81-3.671-3.733-4.146zm30.933-3.649l1.944-3.284c1.988-.985 3.141-.286 3.932 1.107.912 1.606 1.05 5.773.395 8.159-1.223-.433-.836-1.519-.95-2.372-.126-.945-.055-1.926-.265-2.847-.204-.894-.655-1.733-1.117-2.899-.695.506-1.296.754-1.603 1.202-.99 1.439-.814 3.039-.327 4.598 1.328 4.249 2.67 8.495 4.056 12.726.793 2.422 1.685 4.811 2.526 7.217.8 2.291 1.221 4.61.548 6.994-1.048 1.41-2.35 2.144-4.016 1.915-1.727-.813-2.459-2.198-2.619-3.854-.138-1.435-1.068-2.929.025-4.758 1.859 2.101.762 5.007 2.735 6.55 1.438.542 2.115-.208 2.754-1.905-.362-1.382-.752-3.238-1.339-5.03-1.339-4.086-2.678-8.177-4.201-12.197-1.309-3.46-2.145-6.992-2.478-11.322zm-66.961 42.723c2.099-1.492 1.292-3.792 1.726-5.834l1.158-.689c.671 2.751.086 5.153-1.217 7.578l-1.545.855c-.521-.16-1.006-.228-1.408-.446-1.519-.824-2.241-2.234-2.588-3.837-1.208-5.593-2.76-11.133-2.626-16.938.099-4.283-.172-8.578.178-13.07l3.009-1.646c.651.316 1.044.376 1.197.6 2.425 3.555 3.086 7.351 1.881 12.351-.417-2.511-.744-4.331-1.016-6.159-.257-1.734-.381-3.507-2.169-4.85l-1.615 1.244c-.788 9.341.469 18.289 2.548 27.155.352 1.5.567 3.173 2.487 3.686zm-17.377-30.059l5.807-.996.545 1.008c-.443 1.177-1.578.736-2.406.996-.897.282-1.815.497-2.911.792-1.097 6.288.579 12.371.446 18.33 1.94 1.41 3.6-.148 5.275.103l.63 1.056c-1.391 1.055-3.312.832-4.723 1.75-.683 3.945-.504 5.689 1.121 10.349.848-.073 1.762-.12 2.665-.24.734-.097 1.363-.918 2.495-.119-.299.425-.502.986-.9 1.228-1.532.932-3.206 1.389-5.411 1.033-.37-.963-1.029-2.069-1.21-3.248-1.547-10.074-2.269-20.21-1.971-30.407.014-.449.29-.89.548-1.635zm73.347-11.322c3.821-2.165 3.821-2.165 7.508-1.965-1.177 2.203-3.91 1.206-5.35 2.827-.511 3.012.68 14.232 2.058 18.734l3.915-1.384c.655.596.686 1.153-.001 1.562-1.226.73-2.495 1.388-3.885 2.151-.334 2.552.51 4.922 1.118 7.525.738 0 1.332-.046 1.914.016.409.044.803.236 1.67.509l-3.412 2.26c-.531-.434-1.067-.653-1.197-1.017-.53-1.484-1.143-2.984-1.351-4.528-.763-5.658-1.364-11.337-2.054-17.006-.172-1.414-.523-2.809-.652-4.226-.168-1.869-.199-3.751-.281-5.458zm33.541-12.579c.263 9.953.565 19.648.156 29.358-1.427-.032-1.63-.795-1.626-1.618.011-3.019.113-6.037.09-9.055-.037-4.925-.184-9.848-.196-14.773-.003-1.317-.43-2.906 1.576-3.912zm1.049 38.416l-1.744-.805 1.096-2.378 1.722.802-1.074 2.381zm105.965-9.98c-3.073-2.907-2.057-5.326-.743-7.668 3.117-1.766 3.117-1.766 6.299-1.684.237.204.569.362.693.62.404.844.733 1.725 1.053 2.503-.433 2.513-.907 4.828-3.711 6.425l-3.591-.196zm5.307-7.043c-1.523-.917-2.773-.686-3.891-.022-.644.382-1.192 1.038-1.592 1.688-.576.934-.278 2.34.775 3.359l2.644.336c1.967-1.435 2.652-3.06 2.064-5.361zm-.716-10.639l1.54-1.481c1.243 1.404 1.424 2.53.378 3.903-1.418-.161-2.008-.849-1.918-2.422zm-10.999 2.998l2.15 1.782-1.569 1.165c-1.596-.679-1.48-1.553-.581-2.947z" opacity=".6" fill-rule="evenodd" clip-rule="evenodd"/></svg>