<?xml version="1.0" encoding="utf-8"?>
<!-- Generator: Adobe Illustrator 17.1.0, SVG Export Plug-In . SVG Version: 6.00 Build 0)  -->
<!DOCTYPE svg PUBLIC "-//W3C//DTD SVG 1.1//EN" "http://www.w3.org/Graphics/SVG/1.1/DTD/svg11.dtd">
<svg version="1.1" id="Layer_1" xmlns="http://www.w3.org/2000/svg" xmlns:xlink="http://www.w3.org/1999/xlink" x="0px" y="0px"
	 viewBox="0 0 492 236" enable-background="new 0 0 492 236" xml:space="preserve">
<path opacity="0.2" fill="#FFFFFF" d="M455.109,52.424c-0.636-1.414-1.023-2.972-1.35-4.548c1.627-7.951-0.348-16.403-3.194-23.894
	c-1.159-3.05-2.615-6.267-4.508-9.1c-0.05-0.405-0.106-0.809-0.149-1.215c-0.344-3.226-3.112-4.821-5.654-4.767
	c-1.759-1.138-3.748-1.932-6.019-2.221c-11.16-1.419-13.076,11.199-11.798,19.058c0.821,5.045,2.665,10.073,4.642,14.758
	c1.206,2.858,2.934,5.876,2.961,9.027c0.027,3.236-0.37,6.202,0.275,9.422c2.102,10.499,17.009,10.137,23.23,4.489
	C457.073,60.229,456.908,56.418,455.109,52.424z"/>
<path opacity="0.2" fill="#FFFFFF" d="M343.574,60.388c-0.668-10.077,1.696-19.755-1.44-29.682
	c-1.966-6.225-10.155-10.888-16.166-6.56c-4.213,3.033-8.705,2.937-14.559,3.12c-7.414,0.232-15.005,0.248-22.164,2.426
	c-2.757,0.839-4.739,2.38-6.033,4.267c-0.263-0.095-0.524-0.174-0.788-0.275c-3.387-1.301-7.081-0.171-9.803,2.099
	c-6.171-0.284-11.702,1.172-17.255,3.064c-1.089,0.053-2.174,0.091-3.245,0.089c-12.668-0.024-25.95,0.182-37.204,5.78
	c-2.276,0.118-4.54,0.334-6.781,0.729c-3.557,0.627-4.272,3.924-3.102,6.505c-2.437,3.392-2.38,8.241-0.402,11.83
	c3.403,6.174,2.229,15.24,2.243,23.072c0.018,10.084,1.636,20.519,7.762,28.819c2.811,3.81,7.449,6.771,12.428,5.045
	c27.425-9.512,57.147-8.206,84.32-18.229c3.055,1.171,6.11,2.319,9.495,2.562c6.643,0.476,11.575-2.961,17.57-4.956
	c4.642-1.545,8.134-5.512,8.079-10.585C346.423,79.667,344.221,70.149,343.574,60.388z M229.614,95.346
	c0.886,0.422,1.823,0.748,2.805,0.973c-0.813,0.193-1.624,0.396-2.434,0.604C229.846,96.401,229.722,95.875,229.614,95.346z"/>
<path opacity="0.2" fill="#FFFFFF" d="M207.699,143.039c-7.629,5.56-14.874,12.069-23.721,15.673
	c-2.073,0.844-4.431,1.506-6.858,1.872c7.895-11.565,10.231-28.878-4.663-33.909c-16.375-5.532-24.212,14.756-20.104,27.363
	c1.701,5.22,5.051,8.764,9.343,10.972c-2.899,1.592-6.086,2.779-9.39,3.698c-10.237,2.847-21.556,0.489-32.036,1.378
	c-4.554,0.386-9.052,1.403-13.13,3.497c-3.827,1.966-5.471,6.231-9.491,8.042c-4.11,1.851-0.547,7.87,3.535,6.031
	c5.062-2.28,7.297-7.535,12.609-9.304c6.567-2.186,13.965-1.648,20.779-1.513c12.23,0.243,22.926-1.226,33.618-7.49
	c0.837-0.491,1.662-1.059,2.468-1.693c0.039,0.005,0.077,0.012,0.115,0.017c11.788,1.455,22.709-5.33,31.721-12.019
	c2.929-2.174,5.791-4.435,8.739-6.584C214.84,146.442,211.352,140.377,207.699,143.039z M160.645,155.214
	c-6.154-8.888-0.727-27.251,12.245-20.848c7.808,3.854,1.727,15.941-1.193,21.091c-1.026,1.809-2.246,3.397-3.62,4.799
	C165.128,159.464,162.495,157.886,160.645,155.214z"/>
<path opacity="0.2" fill="#FFFFFF" d="M454.689,91.203c-0.264-0.119-0.529-0.22-0.793-0.324c1.439-6.79,2.236-13.357,3.059-17.075
	c0.971-4.39-5.78-6.255-6.753-1.857c-0.657,2.966-1.396,10.464-2.937,17.79c-9.87,0.415-18.143,10.027-17.197,20.394
	c0.155,1.702,0.991,2.748,2.571,3.368c10.791,4.236,16.324-4.813,19.526-15.667c1.665,0.832,3.219,2.237,4.499,4.335
	c3.494,5.726,2.665,13.251-2.904,17.177c-5.753,4.055-13.505,3.419-19.887,1.584c-7.934-2.282-15.03-7.211-21.97-11.511
	c-6.27-3.884-12.851-7.093-19.402-10.461c-5.652-2.906-12.214-2.818-18.343-1.716c-6.417,1.153-11.396,6.248-17.554,8.192
	c-4.289,1.355-2.456,8.099,1.862,6.736c3.8-1.2,7.179-2.977,10.563-5.053c4.512-2.769,8.57-3.547,13.857-3.565
	c3.872-0.014,6.952,1.907,10.252,3.651c4.651,2.459,9.338,4.662,13.848,7.398c14.624,8.873,33.215,21.292,50.308,10.777
	C469.718,117.732,467.798,97.118,454.689,91.203z M437.144,107.203c0.68-4.82,4.103-8.574,8.107-9.844
	C443.417,102.815,440.85,106.974,437.144,107.203z"/>
<g opacity="0.6">
	<path fill-rule="evenodd" clip-rule="evenodd" d="M211.488,141.816c-0.989-1.882-1.782-3.614-2.771-5.227
		c-1.881-3.069-3.202-6.253-2.675-9.406c-1.142-2.258-2.2-4.009-2.944-5.884c-2.479-6.253-3.903-12.798-5.212-19.373
		c-1.805-9.071-3.789-18.109-5.472-27.202c-1.043-5.637-1.496-11.383-2.532-17.022c-1.166-6.34-0.984-12.703-0.916-19.077
		c0.04-3.8,1.79-6.364,5.026-8.609c3.189-2.211,6.583-3.032,10.173-3.725c6.903-1.332,13.786-2.78,20.712-3.978
		c6.296-1.09,12.641-1.901,18.961-2.855c4.418-0.667,8.831-1.363,13.246-2.052c1.106-0.173,2.209-0.522,3.314-0.525
		c6.301-0.016,12.291-1.908,18.422-2.936c0.472-0.079,0.952-0.196,1.425-0.186c6.272,0.136,12.376-1.222,18.542-2.039
		c2.691-0.356,5.398-0.694,8.107-0.789c7.194-0.254,14.255-1.574,21.362-2.51c2.533-0.334,5.036-0.889,7.562-1.282
		c3.141-0.489,6.054,0.026,8.627,2.202c1.881,2.239,2.283,5.19,2.873,7.933c1.07,4.974,1.723,10.044,2.401,15.094
		c0.955,7.107,1.945,14.215,2.269,21.388c0.144,3.187,0.152,6.38,0.3,9.567c0.207,4.457,0.593,8.907,0.713,13.365
		c0.193,7.174,1.722,14.254,1.466,21.448c-0.055,1.546-0.464,3.079-0.746,4.844c0.57,0.709,1.262,1.568,1.99,2.473
		c0.514-0.231,0.999-0.341,1.345-0.621c4.891-3.972,10.372-6.186,16.788-5.856c2.231,0.114,4.496,0.15,6.712-0.088
		c6.972-0.749,13.237,1.644,19.479,4.164c1.019,0.411,1.943,1.105,2.838,1.766c4.112,3.039,8.298,5.99,12.265,9.209
		c3.761,3.053,7.915,5.373,12.256,7.425c0.719,0.34,1.47,0.675,2.243,0.83c6.115,1.223,12.222,2.543,18.512,2.426
		c4.205-0.078,6.571-0.783,10.558-3.072c2.543-2.792,3.636-6.207,3.111-10.044c-0.474-3.465-0.965-6.955-1.855-10.327
		c-0.741-2.808-2.421-5.136-5.693-6.198c-0.241,1.084-0.483,1.987-0.64,2.903c-0.948,5.508-4.143,9.631-8.331,13.024
		c-3.047,2.468-6.721,2.878-10.473,2.133c-2.122-0.422-3.815-1.702-4.817-3.651c-0.649-1.263-1.067-2.644-1.455-3.634
		c0.209-7.107,4.719-10.93,9.602-14.424c0.984-0.704,2.355-0.969,3.592-1.203c2.501-0.472,5.032-0.784,7.468-1.149
		c1.605-4.606,1.183-11.115-1.069-15.594c-5.362,1.477-10.876,1.261-15.897,0.652c-1.914-0.956-2.466-2.325-2.974-3.653
		c-1.424-3.721-2.972-7.414-4.09-11.228c-2.642-9.019-5.8-17.882-8.008-27.036c-1.478-6.126-1.723-12.316-1.604-18.532
		c0.089-4.619,2.476-7.317,7.001-8.509c2.626-0.691,5.279-1.279,7.917-1.923c3.723-0.908,7.44-1.844,11.169-2.727
		c1.077-0.254,2.188-0.367,3.105-0.516c3.263,1.209,4.473,3.814,5.278,6.609c1.368,4.746,2.609,9.529,3.842,14.312
		c0.955,3.704,1.844,7.426,2.717,11.15c2.001,8.534,3.593,17.14,4.381,25.876c0.318,3.53,0.256,7.031-2.085,10.689
		c-1.284,0.771-3.033,1.822-4.949,2.973c0.708,6,2.542,11.87,1.361,18.044c1.261,0.69,2.411,1.23,3.466,1.915
		c2.606,1.693,4.702,3.84,5.598,6.914c1.43,4.908,2.724,9.827,2.205,15.036c-0.277,2.773-1.088,5.31-2.765,7.533
		c-2.661,3.527-6.024,6.118-10.255,7.551c-14.522,4.92-27.69,2.279-39.716-6.976c-4.81-3.702-9.521-7.566-14.571-10.916
		c-7.053-4.679-14.814-7.694-23.477-6.903c-3.943,0.361-7.838,1.425-11.703,2.375c-1.876,0.461-3.452,1.63-4.609,3.597
		c0.339,2.302,1.807,4.233,3.193,6.114c1.414,1.92,3.059,3.697,4.765,5.372c6.884,6.761,12.8,14.229,17.245,22.822
		c0.877,1.696,2.078,3.227,2.941,4.928c1.44,2.839,2.814,5.71,3.272,8.934c0.177,1.243,0.71,2.442,1.124,3.647
		c1.383,4.028,0.619,6.665-2.918,9.127c-3.712,2.583-7.912,4.198-12.236,5.378c-6.013,1.642-12.135,2.76-18.361,3.359
		c-7.63,0.733-15.268,1.473-22.857,2.538c-10.117,1.419-20.15,3.487-30.29,4.658c-10.307,1.19-20.617,2.49-31.029,2.773
		c-5.575,0.152-11.12,1.181-16.694,1.641c-3.657,0.302-7.349,0.492-11.009,0.347c-2.191-0.087-4.405-0.758-6.511-1.457
		c-2.156-0.716-3.936-2.107-5.182-4.075c-0.086-0.135-0.19-0.259-0.266-0.399c-5.543-10.218-12.634-19.578-16.846-30.547
		c-0.977-2.542-2.081-5.203-4.331-7.093c-3.075,2.319-5.904,4.672-8.95,6.701c-5.443,3.627-10.935,7.159-17.067,9.641
		c-4.843,1.96-9.729,3.06-14.945,2.647c-0.792-0.063-1.593-0.009-2.627-0.009c-0.801,0.751-1.743,1.598-2.645,2.486
		c-3.276,3.226-7.211,5.09-11.66,6.257c-7.384,1.937-14.857,1.883-22.382,1.744c-4.152-0.076-8.323,0.018-12.461,0.343
		c-3.523,0.276-6.896,1.414-10.039,3.047c-2.956,1.537-5.833,3.227-9.452,5.244c-1.833,0.411-4.473,1.004-6.034,1.355
		c-6.689,3.907-12.449,7.331-18.266,10.654c-7.766,4.436-15.426,9.095-23.416,13.092c-6.363,3.183-11.544,7.99-17.775,11.369
		c-0.728,5.933-4.948,8.728-9.702,10.994c-1.583,0.755-3.232,1.4-4.901,1.947c-6.11,2.001-14.813-0.847-18.529-6.014
		c-1.646-2.288-2.2-5.027-2.483-7.671c-0.673-6.292,0.665-12.103,5.591-16.557c3.746-3.387,8.113-5.023,13.238-4.101
		c1.101,0.198,2.2,0.402,3.527,0.645c0.62,0.694,1.342,1.502,2.064,2.31c0.313-0.021,0.653,0.03,0.936-0.074
		c4.031-1.479,8.054-2.978,12.079-4.473c0.15-0.056,0.295-0.127,0.447-0.175c8.983-2.829,17.963-5.667,26.951-8.479
		c3.965-1.241,8.014-2.248,11.899-3.696c3.619-1.349,7.328-2.202,11.078-2.992c2.81-0.592,5.593-1.303,8.398-1.919
		c2.779-0.61,4.719-2.649,6.893-4.195c1.3-0.924,2.589-1.771,3.996-2.52c6.396-3.404,13.299-4.328,20.415-4.363
		c4.319-0.021,8.644-0.031,12.954-0.26c4.146-0.22,8.307-0.523,12.406-1.15c3.621-0.554,7.122-1.696,9.742-4.361
		c0.028-1.529-1.214-1.544-1.95-1.899c-8.332-4.014-12.51-14.088-9.128-23.664c1.233-3.492,3.043-6.622,6.126-8.959
		c4.307-3.265,8.846-5.085,14.285-3.303c0.601,0.197,1.244,0.267,1.597,0.339c4.858,2.556,6.903,6.863,8.455,11.46
		c0.395,1.169,0.302,2.52,0.336,3.79c0.05,1.893,0.013,3.788,0.013,6.523c-0.722,3.238-2.405,6.979-4.816,10.163
		c0.48,1.338,1.395,1.209,2.098,1.051c1.399-0.315,2.783-0.748,4.119-1.269c8.535-3.327,16.528-7.61,23.614-13.47
		c0.739-0.61,1.495-1.209,2.159-1.895C210.232,143.612,210.653,142.926,211.488,141.816z M204.36,151.525
		c1.265,0.472,1.937-0.562,2.828-1.082c1.552-0.906,2.449-2.718,4.351-3.113c-0.017-0.345-0.033-0.69-0.013-0.256
		c0.087-0.392,0.011-0.049-0.065,0.295c-3.3-0.164-5.196,1.978-7.012,4.251c-2.363,0.616-4.384,1.752-5.807,3.799
		c-0.757,0.141-1.655,0.068-2.248,0.458c-2.958,1.948-6.356,2.992-9.424,4.646c-4.491,2.42-9.178,2.565-13.983,2.147
		c-2.213-0.192-4.409-0.747-6.572-1.298c-8.677-2.21-13.051-8.672-11.83-17.449c0.197-1.416,0.508-2.835,0.943-4.197
		c0.897-2.803,2.478-5.199,4.911-6.902c2.615-1.83,5.232-3.772,8.707-3.202c3.529,1.298,5.005,2.549,6.094,4.461
		c2.074,3.644,3.443,7.542,3.488,11.801c0.031,2.964-0.784,5.628-2.64,8.011c-1.369,1.757-2.549,3.661-3.771,5.526
		c-0.128,0.196,0.026,0.577,0.066,1.072c0.537,0.099,1.124,0.208,1.68,0.311c3.669-3.535,5.595-7.877,6.914-12.516
		c0.339-1.192,0.513-2.559,0.288-3.756c-0.469-2.494-1.12-4.973-1.936-7.377c-2.062-6.078-6.353-8.949-12.817-8.472
		c-0.477,0.036-0.953,0.091-1.342,0.129c-5.666,1.963-9.768,5.408-11.857,11.092c-1.022,2.783-1.129,5.622-0.985,8.482
		c0.276,5.497,2.825,10.002,7.549,12.585c7.193,3.935,14.928,5.626,23.098,2.966c5.201-1.694,10.027-4.16,14.605-7.114
		c0.463-0.299,0.697-0.949,1.038-1.436C201.25,155.164,203.181,153.901,204.36,151.525z M3.363,226.64
		c0.078-0.52,0.155-1.04,0.234-1.559c-0.69,0.503-0.485,0.993-0.151,1.471c0.395,0.546,0.79,1.092,1.187,1.637
		c0.22,1.273,0.943,1.92,2.358,1.832c0.106-0.413,0.214-0.836,0.38-1.48c-1.013-0.089-1.922-0.169-2.831-0.249
		c1.056-2.028,3.191-0.692,4.958-1.646c0.439-0.792,1.021-1.842,1.8-3.246c-1.602,0-2.799,0-3.616,0
		C6.04,224.633,4.691,225.648,3.363,226.64z M216.096,143.727c-0.206,0.591-0.412,1.183-0.669,1.919
		c0.828,1.744,1.641,3.618,2.611,5.408c0.342,0.631,1.069,1.055,1.621,1.574c0.777,2.409,1.346,4.911,2.367,7.213
		c3.699,8.336,9.12,15.704,13.573,23.619c2.186,3.885,5.718,5.546,9.828,5.935c3.794,0.359,7.628,0.557,11.468,0.007
		c5.369-0.769,10.754-1.643,16.159-1.895c6.542-0.305,13.05-0.849,19.574-1.351c11.964-0.919,23.698-3.368,35.579-4.798
		c3.009-0.363,5.966-1.154,8.975-1.514c7.125-0.854,14.256-1.693,21.404-2.298c6.238-0.528,12.357-1.641,18.359-3.309
		c2.906-0.807,5.734-2.022,8.441-3.363c1.676-0.83,3.114-2.184,4.553-3.425c0.731-0.629,1.083-1.544,0.141-2.662
		c-1.978,3.518-5.368,5.001-8.919,6.056c-4.28,1.273-8.602,2.481-12.981,3.329c-7.672,1.487-15.307,3.232-23.175,3.561
		c-8.137,0.34-16.246,1.017-24.319,2.184c-12.017,1.737-24.047,3.39-36.144,4.527c-6.834,0.642-13.637,1.605-20.459,2.383
		c-4.441,0.507-8.88,1.145-13.338,1.359c-5.67,0.273-10.295-1.817-13.311-6.882c-0.813-1.365-1.849-2.596-2.721-3.928
		c-1.742-2.662-3.575-5.277-5.127-8.048c-2.337-4.172-4.408-8.491-6.713-12.682c-0.824-1.497-1.999-2.801-3.015-4.193
		c-0.291-3.324-1.973-6.03-3.857-8.647c0.204-1.725-0.946-2.996-1.559-4.425c-1.878-4.373-3.873-8.696-5.956-13.333
		c-0.339,0.994-0.932,1.868-0.852,2.675c0.154,1.556,0.417,3.213,1.118,4.583c1.801,3.52,3.864,6.907,5.814,10.332
		C215.177,143.67,215.64,143.694,216.096,143.727z M454.792,125.392c-6.667,1.602-13.31,1.061-19.942-0.234
		c-2.188-0.427-4.529-0.519-6.522-1.395c-4.217-1.853-8.411-3.8-12.095-6.697c-4.636-3.646-9.311-7.264-14.172-10.6
		c-5.639-3.87-11.995-5.882-18.883-5.939c-3.508-0.029-7.026,0.294-10.525,0.14c-4.533-0.201-8.448,1.43-12.214,3.587
		c-1.18,0.676-2.124,1.763-3.14,2.632c0.372,0.541,0.539,0.785,0.842,1.225c1.113-0.823,2.147-1.785,3.353-2.427
		c1.396-0.743,2.922-1.264,4.43-1.766c1.205-0.401,2.453-0.747,3.709-0.909c3.314-0.43,6.663-1.174,9.962-1.021
		c7.145,0.33,13.807,2.692,19.768,6.568c4.669,3.036,9.132,6.433,13.429,9.981c7.479,6.176,15.82,10.103,25.583,10.752
		c5.519,0.366,10.779-0.824,15.872-2.839c0.27-0.106,0.317-0.772,0.489-1.144c0.298,0.068,0.595,0.135,0.225,0.052
		C455.392,125.265,455.092,125.329,454.792,125.392z M290.871,168.473c5.492-1.786,10.755-2.9,16.253-2.991
		c2.523-0.042,5.043-0.687,7.548-1.146c2.67-0.489,5.341-0.997,7.972-1.651c2.611-0.649,5.174-1.491,7.954-2.307
		c1.633,4.105,2.777,8.126,2.546,12.172c-2.429,2.816-5.191,3.801-8.375,3.867c-1.118,0.023-2.244,0.047-3.35,0.196
		c-1.104,0.149-2.187,0.455-3.279,0.69c-1.239,0.268-2.483,0.517-3.718,0.806c-0.865,0.202-1.717,0.456-2.575,0.687
		c1.667,0.26,3.246,0.106,4.819-0.094c7.92-1.004,15.79-2.36,23.821-2.435c8.826-0.083,17.488-1.722,26.091-3.522
		c4.994-1.045,9.944-2.372,14.829-3.852c4.474-1.356,7.397-4.319,7.957-9.236c-0.397-4.003-2.012-7.624-4.044-11.091
		c-0.888-1.514-1.932-2.952-2.684-4.53c-3.759-7.891-9.25-14.487-15.319-20.663c-3.36-3.42-6.453-7.003-8.855-11.223
		c-1.719-3.019-4.074-5.678-6.2-8.574c-5.275,0.726-10.325,1.222-15.3,2.476c-4.017,1.013-8.128,1.742-12.239,2.286
		c-6.016,0.796-12.071,1.299-18.106,1.958c-2.542,0.277-5.067,0.784-7.613,0.919c-5.603,0.295-11.104,1.064-16.549,2.462
		c-3.861,0.992-7.822,1.592-11.74,2.357c-2.815,0.55-5.644,1.033-8.446,1.64c-2.655,0.575-5.26,1.415-7.931,1.882
		c-3.17,0.554-6.199,1.459-9.198,2.609c-4.498,1.726-9.132,2.871-14.025,2.71c-1.421-0.047-2.869,0.164-4.276,0.416
		c-3.145,0.561-6.264,1.276-9.412,1.824c-1.944,0.339-3.922,0.488-6.154,0.754c0.501,1.254,0.818,2.143,1.205,3.001
		c2.292,5.088,4.492,10.223,6.935,15.238c2.23,4.579,4.744,9.02,7.103,13.537c1.771,3.392,3.257,6.959,5.296,10.18
		c2.805,4.432,5.938,8.665,9.072,12.878c2.072,2.786,5.22,3.622,8.5,3.664c2.709,0.034,5.455-0.116,8.131-0.531
		c11.22-1.739,22.527-2.686,33.802-3.933c4.817-0.533,9.705-0.669,14.351-2.547c-3.298,0.173-6.596,0.346-10.214,0.536
		c-1.87-2.376-3.951-4.988-5.982-7.637c-0.263-0.343-0.27-0.881-0.449-1.519C289.677,169.934,290.365,169.092,290.871,168.473z
		 M211.853,125.421c2.416,0.601,4.45,0.316,6.487-0.207c4.502-1.155,9.083-1.804,13.725-1.99c4.687-0.187,9.122-1.438,13.508-2.985
		c2.255-0.795,4.551-1.499,6.869-2.086c3.56-0.902,7.151-1.683,10.736-2.487c2.022-0.453,4.053-0.875,6.088-1.266
		c5.016-0.963,10.033-1.92,15.056-2.841c3.763-0.69,7.516-1.503,11.31-1.94c8.556-0.987,17.119-2.02,25.709-2.578
		c8.991-0.584,17.493-3.719,26.414-4.541c0.469-0.043,0.915-0.297,1.385-0.377c1.699-0.287,2.946-1.123,3.695-3.11
		c-0.528-6.988-1.105-14.282-1.621-21.58c-0.325-4.607-0.599-9.218-0.82-13.831c-0.312-6.523-0.548-13.049-0.833-19.573
		c-0.028-0.634-0.183-1.262-0.263-1.895c-0.579-4.583-1.217-9.16-1.715-13.753c-0.587-5.413-1.818-10.678-3.445-15.855
		c-0.277-0.881-0.922-1.648-1.318-2.331c-3.349-1.421-3.977-1.629-6.148-1.333c-5.219,0.712-10.466,1.307-15.63,2.316
		c-5.051,0.987-10.121,1.344-15.234,1.561c-2.379,0.101-4.755,0.418-7.117,0.747c-5.688,0.795-11.327,1.982-17.109,1.994
		c-1.112,0.002-2.238,0.136-3.334,0.337c-5.954,1.088-11.789,2.879-17.916,2.948c-0.789,0.009-1.598,0.178-2.36,0.401
		c-4.481,1.309-9.136,1.469-13.715,2.123c-3.319,0.474-6.671,0.757-9.965,1.36c-10.674,1.957-21.306,4.157-32.003,5.972
		c-3.651,0.619-6.237,2.173-7.947,5.448c0,1.04-0.179,2.179,0.034,3.239c0.597,2.966,1.288,5.917,2.066,8.842
		c1.191,4.474,2.05,8.982,2.432,13.614c0.905,10.953,1.805,21.913,3.647,32.761c0.879,5.177,1.873,10.341,3.016,15.466
		c0.83,3.724,1.982,7.378,3.009,11.057C209.185,121.342,209.732,123.69,211.853,125.421z M457.765,67.565
		c1.741-2.033,2.139-4.492,2.089-7.114c-0.116-6.085-1.142-12.075-2.38-17.984c-2.155-10.282-4.706-20.482-7.158-30.701
		c-0.481-2.004-1.241-3.943-1.909-5.9c-0.763-2.234-2.16-3.855-4.071-4.428c-8.164,2.047-15.904,3.988-23.652,5.931
		c-2.819,1.522-3.937,3.959-3.961,7.1c-0.043,5.59,0.359,11.128,1.699,16.566c0.951,3.858,1.87,7.735,3.073,11.518
		c2.7,8.497,5.554,16.946,8.379,25.403c0.602,1.803,1.176,3.672,2.982,4.647C442.581,73.705,448.925,72.42,457.765,67.565z
		 M44.651,214.243c9.802-5.5,19.397-10.9,29.008-16.269c3.206-1.79,6.521-3.395,9.669-5.278c3.512-2.1,7.01-4.262,10.362-7.286
		c-0.848-0.222-1.279-0.479-1.646-0.407c-3.448,0.675-6.945,1.198-10.313,2.165c-7.057,2.026-14.034,4.334-21.065,6.453
		c-6.413,1.932-12.578,4.612-19.118,6.174c-1.592,0.38-3.461,0.653-4.521,2.495C39.495,206.159,41.964,210.031,44.651,214.243z
		 M169.423,159.937c1.811-2.556,3.507-4.868,5.107-7.244c0.708-1.051,1.527-2.167,1.777-3.362
		c1.218-5.809-0.089-11.117-3.925-15.643c-1.936-2.284-4.837-2.761-7.439-1.553c-3.92,1.821-6.958,4.485-8.107,8.868
		c-0.78,2.978-0.962,5.982-0.487,9.013c0.279,1.777,1.183,3.234,2.388,4.59C161.53,157.748,165.008,159.449,169.423,159.937z
		 M296.32,177.63c2.725,0,4.982,0.229,7.178-0.041c7.913-0.973,15.816-2.048,23.699-3.24c1.86-0.282,3.751-1.008,4.465-3.427
		c-0.359-1.82-0.697-3.859-1.184-5.861c-0.207-0.85-0.726-1.625-1.085-2.392c-5.588,1.255-10.862,2.472-16.154,3.609
		c-1.868,0.402-3.775,0.809-5.673,0.857c-4.994,0.126-9.843,0.956-14.573,2.512c-0.696,0.229-1.317,0.685-2.047,1.076
		C291.919,173.902,294.296,175.581,296.32,177.63z M191.161,35.954c-0.157,0.89-0.432,1.777-0.451,2.67
		c-0.133,6.206-0.257,12.385,0.934,18.562c1.145,5.934,1.51,12.016,2.633,17.955c2.099,11.106,4.396,22.176,6.819,33.217
		c1.156,5.266,2.759,10.439,4.943,15.405c0.642,0.298,1.19,0.553,2.195,1.02c-0.234-1.126-0.339-1.859-0.541-2.564
		c-1.665-5.81-3.758-11.533-4.94-17.438c-2.562-12.803-4.34-25.758-5.195-38.782C196.887,55.749,194.587,45.896,191.161,35.954z
		 M430.228,105.063c0.26,0.821,0.489,1.584,0.744,2.338c0.997,2.95,3.071,4.245,6.181,4.285c2.88,0.037,5.365-0.896,7.526-2.644
		c3.424-2.77,6.046-6.15,7.13-10.509c0.215-0.862,0.109-1.804,0.151-2.709c-1.608,3.184-2.474,6.654-5.272,9.045
		c-2.645,2.26-4.987,5.051-9.16,5.195c-0.796-0.296-1.831-0.68-2.794-1.037c-2.345-2.887-2.12-5.711-0.142-8.453
		c0.92-1.276,1.978-2.565,3.249-3.459c4.02-2.826,8.567-4.248,13.499-4.2c4.858,0.047,7.918,2.011,9.392,6.678
		c1.869,5.921,3.449,11.965,2.084,18.3c-0.045,0.21,0.256,0.496,0.44,0.826c1.895-1.66,1.469-4.145,2.537-6.363
		c-0.745-3.745-1.222-7.737-2.364-11.529c-1.932-6.416-6.148-9.346-12.243-9.612c-1.753-0.077-3.523-0.015-5.274,0.125
		C438.102,91.962,432.331,96.913,430.228,105.063z M166.452,165.453c-2.616,1.575-4.839,3.134-7.249,4.313
		c-3.467,1.696-7.239,2.518-11.085,2.699c-7.489,0.353-14.991,0.861-22.478,0.73c-6.612-0.116-12.589,1.724-18.468,4.309
		c-0.654,0.287-1.151,0.929-1.905,1.559c0.645,0.604,1.075,1.006,1.51,1.415c4.033-2.332,8.14-4.166,12.616-4.615
		c4.59-0.461,9.234-0.609,13.85-0.554c7.667,0.093,15.304,0.26,22.808-1.764c4.57-1.233,8.47-3.362,11.34-7.202
		C166.99,165.962,166.778,165.762,166.452,165.453z M438.093,108.42c3.704-1.533,7.491-4.531,9.305-7.469
		c1.055-1.708,1.856-3.555,1.6-5.968c-4.627,0.479-8.6,1.775-11.7,4.916c-1.547,1.568-2.751,3.515-2.416,5.944
		c0.063,0.455,0.292,0.886,0.439,1.313c0.434,0.278,0.809,0.577,1.232,0.774C436.976,108.127,437.446,108.22,438.093,108.42z
		 M39.674,217.885c-1.735-5.972-4.771-10.569-10.249-13.531c-0.914,0.406-1.747,0.775-2.79,1.238
		c4.248,4.316,7.233,9.119,9.198,14.874C37.244,219.518,38.394,218.745,39.674,217.885z M25.728,229.942
		c-0.045-0.596,0.05-1.246-0.155-1.781c-3.287-8.548-8.414-15.867-15.04-22.164c-0.448-0.425-0.965-0.869-1.542-0.3
		c3.034,3.843,5.983,7.737,9.102,11.489C21.277,221.018,22.408,225.929,25.728,229.942z M450.708,72.498
		c0.488,5.969,0.922,11.288,1.359,16.642c1.793-0.296,1.849-1.511,1.908-2.588c0.255-4.628-0.325-9.182-1.242-13.9
		C452.056,72.601,451.511,72.559,450.708,72.498z M22.942,231.44c-0.991-2.595-1.592-4.168-2.233-5.846
		c-2.378,1.675-5.486,2.177-6.151,5.491c1.942,0.678,3.526,0.081,5.018-0.676C20.362,230.65,21.086,230.872,22.942,231.44z
		 M41.527,215.913c0.191-0.067,0.383-0.134,0.574-0.201c-0.147-0.867-0.081-1.849-0.477-2.582c-1.947-3.603-3.96-7.18-6.945-10.077
		c-0.604,0.16-1.034,0.275-1.729,0.46c1.688,2.08,3.38,3.927,4.789,5.968C39.15,211.523,40.277,213.76,41.527,215.913z
		 M7.958,219.021c-3.896-0.04-3.957-0.097-5.138,1.134c-0.446,0.465-0.54,1.265-0.926,2.246
		C4.857,222.601,7.018,222.344,7.958,219.021z M26.561,208.622c-1.16-1.432-2.15-2.376-4.094-2.12
		c-0.465,0.934-0.986,1.98-1.684,3.381c1.86,0.091,3.251,0.159,4.516,0.222C25.768,209.554,26.073,209.196,26.561,208.622z
		 M23.744,214.534c2.639,0.88,4.607-0.312,6.967-1.033c-0.556-0.755-0.913-1.239-1.336-1.815c-1.294,0.126-2.528,0.246-3.81,0.37
		C24.971,212.864,24.431,213.599,23.744,214.534z M7.817,209.63c-1.482-0.179-2.376-0.287-3.3-0.399
		c-1.035,1.354-2.005,2.541-1.203,4.471C5.583,213.44,6.647,212.047,7.817,209.63z M9.874,217.423
		c0.597-0.943,0.993-1.567,1.656-2.615c-2.121-0.084-3.772-0.419-5.323,0.339c-0.497,0.738-1,1.366-0.232,2.276
		C7.099,217.423,8.323,217.423,9.874,217.423z M14.061,223.228c-1.407,0.846-2.126,1.712-2.075,3.383
		c1.546-0.161,2.889-0.301,4.249-0.443c0.455-0.825,0.819-1.485,1.363-2.472C16.12,223.5,14.954,223.346,14.061,223.228z
		 M15.718,207.29c1.562,2.628,1.568,2.633,2.913,2.51c0.442-0.726,1.008-1.598,1.494-2.513c0.088-0.167-0.153-0.508-0.244-0.767
		C17.774,206.414,17.774,206.414,15.718,207.29z M29.715,225.467c1.28-1.211,2.388-2.258,3.994-3.778c-1.685,0-2.673,0-3.908,0
		c-0.64,0.893-1.33,1.856-2.104,2.937C28.425,224.929,28.842,225.103,29.715,225.467z M10.111,218.868
		c-0.408,0.99-0.669,1.623-1.032,2.501c1.622,0,2.826,0,4.052,0c0.434-0.834,0.786-1.511,1.301-2.501
		C12.929,218.868,11.729,218.868,10.111,218.868z M28.854,216.196c-0.706,1.183-1.244,2.083-1.938,3.243
		c1.118,0.113,1.873,0.189,2.755,0.278c0.606-1.08,2.178-1.335,1.992-3.07C30.777,216.505,30.011,216.382,28.854,216.196z
		 M8.424,231.014c1.706,0.086,2.762,0.138,3.824,0.192c0.599-0.95,1.096-1.737,1.702-2.698
		C11.607,227.904,9.805,228.041,8.424,231.014z M15.92,204.986c0.41-0.956,0.661-1.541,1.138-2.653
		c-1.95,0.394-3.301,0.647-4.638,0.959c-0.191,0.044-0.315,0.378-0.684,0.853C13.078,204.415,14.247,204.65,15.92,204.986z
		 M26.713,216.579c-1.77,0.05-2.947-0.442-3.909,1.077c0.421,0.542,0.857,1.103,1.508,1.94
		C25.099,218.607,25.712,217.836,26.713,216.579z M7.584,212.924c1.974,0,2.971,0,4.532,0c-0.889-1.169-1.463-1.924-2.187-2.877
		C9.193,210.951,8.65,211.617,7.584,212.924z M16.49,218.625c-0.582,0.995-1.011,1.728-1.578,2.698
		c1.32,0.505,2.23,1.297,3.268-0.369C17.727,220.328,17.211,219.618,16.49,218.625z M23.243,211.8
		c-1.58,0.074-2.562,0.12-3.549,0.166c0.075,1.302,0.26,2.19,1.814,2.258C21.91,213.662,22.404,212.972,23.243,211.8z M2.23,214.78
		c-0.081,0.969-0.139,1.674-0.214,2.573c1.525-0.854,1.525-0.854,1.819-2.298C3.535,215.003,3.234,214.952,2.23,214.78z
		 M19.894,202.948c-1.075,0.539-2.018,0.922-0.76,2.185c0.662-0.136,1.434-0.296,2.906-0.599
		C20.897,203.689,20.348,203.283,19.894,202.948z M22.757,232.175c-1.691-0.018-2.85-0.099-3.554,1.322
		C20.591,234.153,21.486,233.646,22.757,232.175z M12.432,216.613c0.192,0.202,0.383,0.404,0.575,0.606
		c0.528-0.202,1.056-0.404,1.887-0.723c-0.546-0.545-0.891-0.889-1.366-1.363C13.06,215.764,12.746,216.188,12.432,216.613z
		 M13.382,233.029c-0.051,0.254-0.102,0.509-0.152,0.763c0.789,0,1.579,0,2.369,0c0.01-0.174,0.021-0.348,0.03-0.522
		C14.88,233.19,14.131,233.109,13.382,233.029z M28.09,226.83c-0.607,0.523-0.461,1.026,0.067,1.494
		c0.034,0.03,0.33-0.117,0.335-0.193c0.024-0.398,0.006-0.801-0.033-1.198C28.455,226.889,28.227,226.867,28.09,226.83z
		 M27.897,221.623c-1.156,0.073-1.677,0.106-2.279,0.145c0.201,0.549,0.305,0.832,0.498,1.358
		C26.593,222.723,27.001,222.379,27.897,221.623z M33.165,224.795c-0.107-0.039-0.215-0.078-0.322-0.118
		c-0.142,0.343-0.287,0.685-0.41,1.035c-0.003,0.009,0.23,0.101,0.352,0.154C32.911,225.509,33.038,225.152,33.165,224.795z
		 M6.673,207.431l-0.053,0.301l0.384-0.105L6.673,207.431z M32.996,219.379c-0.096,0.029-0.24,0.031-0.278,0.095
		c-0.065,0.111-0.064,0.26-0.091,0.392c0.168-0.039,0.336-0.078,0.504-0.116C33.086,219.626,33.041,219.502,32.996,219.379z"/>
	<path fill-rule="evenodd" clip-rule="evenodd" d="M491.122,1.247c0.491,0.522,0.888,0.752,0.878,0.962
		c-0.406,8.096-0.85,16.19-1.258,23.721c-1.959,3.265-4.271,5.143-7.141,6.349c-1.083,0.455-2.175,0.453-3.262-0.468
		c-0.721-2.565,0.914-4.166,2.749-5.415c1.668-1.135,3.617-1.86,5.876-2.982c0.152-1.152,0.527-2.704,0.528-4.255
		c0.003-3.774,0.787-7.523,0.602-11.593c-3.992,0.32-7.706,0.617-11.846,0.949c-0.84,1.078-0.856,2.846-1.138,4.555
		c-0.804,4.875-1.698,9.731-4.558,13.973c-1.84,1.851-4.053,2.372-6.777,1.727c-0.416-0.45-0.944-1.02-1.283-1.387
		c-0.75-2.839,2.49-5.225,8.492-6.477c0.718-2.961,1.394-6.053,2.228-9.101c0.821-3,0.4-6.309,2.219-9.395
		C482.262,3.991,486.904,3.575,491.122,1.247z M485.713,5.714c-1.954-0.023-3.938-0.861-6.7,0
		C481.8,5.714,483.757,5.714,485.713,5.714z M489.802,4.604c-0.245-0.087-0.491-0.173-0.736-0.261
		c-0.018,0.114-0.038,0.227-0.056,0.34C489.274,4.657,489.538,4.632,489.802,4.604z"/>
	<path fill-rule="evenodd" clip-rule="evenodd" d="M401.975,134.506c-2.321,1.054-4.054,0.305-5.526-1.001
		c-2.372-2.103-4.737-4.239-6.883-6.566c-3.116-3.379-6.033-6.938-9.295-10.723c0.051-0.695,0.124-1.71,0.22-3.038
		c1.057,0.463,1.811,0.7,2.468,1.097c3.395,2.05,6.745,4.173,10.15,6.207c2.754,1.645,5.298,3.476,7.156,6.17
		C401.87,128.976,402.789,131.394,401.975,134.506z M386.44,119.163c1.663,3.76,7.239,9.757,11.252,13.065
		c0.571,0.47,1.332,0.709,2.431,1.274c0.067-1.29,0.345-2.223,0.115-3.006c-0.74-2.514-2.35-4.571-4.399-6.087
		c-2.03-1.502-4.366-2.596-6.586-3.838C388.339,120.06,387.379,119.63,386.44,119.163z"/>
	<path fill-rule="evenodd" clip-rule="evenodd" d="M391.131,74.836c0.052,1.935-0.829,3.562-2.381,4.796
		c-1.493,1.187-3.002,2.428-4.689,3.286c-5.695,2.894-11.588,5.34-17.741,7.112c-1.53,0.441-3.095,0.86-4.955-0.072
		c0.388-0.495,0.639-1.15,1.081-1.324c3.006-1.19,5.475-3.25,8.219-4.85c5.501-3.205,11.184-6.098,16.814-9.079
		C388.597,74.113,389.814,73.526,391.131,74.836z M372.419,85.43c0.613,0.006,1.312,0.208,1.826-0.015
		c3.194-1.383,6.408-2.743,9.487-4.354c1.765-0.923,3.531-2.047,4.816-4.417c-1.043,0.175-1.69,0.13-2.17,0.389
		c-4.457,2.404-8.892,4.847-13.304,7.332c-0.307,0.173-0.376,0.769-0.555,1.168c-0.276,0.042-0.551,0.086-0.826,0.129
		c0.143,0.158,0.285,0.316,0.427,0.474C372.22,85.901,372.32,85.666,372.419,85.43z"/>
	<path fill-rule="evenodd" clip-rule="evenodd" d="M410.668,16.978c-0.725,1.519-1.091,2.284-1.497,3.134
		c-1.309,0.25-2.52,0.481-3.672,0.701c-0.137,0.395-0.38,0.721-0.314,0.96c0.899,3.205,1.6,6.493,2.838,9.565
		c1.276,3.165,1.391,6.121,0.007,9.197c-0.322,0.717-0.512,1.493-0.75,2.202c-1.408,1.656-3.069,2.786-4.946,3.469
		c-1.793-0.64-2.247-1.931-2.22-3.443c0.03-1.695,0.757-3.125,2.212-3.996c1.337-0.801,2.806-1.386,4.389-2.148
		c-1.412-5.976-2.826-11.959-4.227-17.945c-0.028-0.121,0.094-0.29,0.174-0.42c0.082-0.134,0.197-0.249,0.35-0.436
		c1.326,0.286,2.691,0.58,3.969,0.855C408.04,18.188,408.963,17.763,410.668,16.978z"/>
	<path fill-rule="evenodd" clip-rule="evenodd" d="M165.959,69.406c2.655,0.243,4.365,1.732,5.918,3.316
		c2.571,2.621,4.891,5.459,6.561,8.771c0.788,1.565,1.574,3.136,2.468,4.642c1.69,2.848,3.456,5.651,5.186,8.465
		c-0.684,0.802-1.59,0.67-2.086,0.073c-3.39-4.075-7.914-6.891-11.655-10.571c-2.874-2.828-5.269-5.997-6.938-9.669
		C164.68,72.821,164.095,71.131,165.959,69.406z M166.275,71.357c2.108,6.713,7.291,12.829,12.364,14.705
		c-1.5-4.431-3.932-8.053-6.852-11.354C170.459,73.208,168.985,71.751,166.275,71.357z"/>
	<path fill-rule="evenodd" clip-rule="evenodd" d="M186.365,113.347c-0.209,0.687-0.215,0.935-0.305,0.971
		c-3.667,1.444-7.164,3.302-11.109,4.052c-4.673,0.888-9.298,2.019-13.951,3.014c-1.651,0.353-3.16,0.222-3.994-1.461
		c0.122-1.928,1.427-2.883,2.658-3.872c3.335-2.678,7.263-4.028,11.427-4.338C176.169,111.334,181.211,111.946,186.365,113.347z
		 M159.183,119.723c1.616,0.696,3.12,0.047,4.606-0.282c3.7-0.82,7.411-1.615,11.065-2.611c1.847-0.503,3.964-0.611,5.433-2.357
		C172.267,111.757,162.819,114.116,159.183,119.723z"/>
	<path fill-rule="evenodd" clip-rule="evenodd" d="M362.911,68.76c0.917-3.265,2.612-6.038,7.077-11.817
		c1.386-1.794,2.97-3.292,5.319-4.205c0.442,0.176,0.996,0.397,1.439,0.573c0.126,0.5,0.33,0.836,0.257,1.095
		c-1.41,5.049-4.423,9.111-8.151,12.653C367.258,68.573,365.374,69.829,362.911,68.76z M374.089,55.547
		c-3.535,2.711-5.236,6.427-7.476,9.707c-0.152,0.223,0.026,0.669,0.064,1.196C371.39,62.516,373.788,59.066,374.089,55.547z"/>
	<path fill-rule="evenodd" clip-rule="evenodd" d="M181.336,62.602c1.471-0.195,2.235,0.886,2.897,1.936
		c2.069,3.287,2.907,6.916,2.971,11.204c-4.171-2.501-5.497-6.365-6.789-10.223C180.056,64.448,180.026,63.32,181.336,62.602z
		 M182.355,64.723c-0.269,2.65,0.889,4.215,2.839,6.646C184.424,68.488,184.367,66.502,182.355,64.723z"/>
	<path fill-rule="evenodd" clip-rule="evenodd" d="M393.711,63.487c-0.775-0.456-1.672-0.741-2.197-1.345
		c-0.989-1.139-1.105-2.508-0.159-4.179c0.473-0.111,1.158-0.272,1.695-0.398c0.425,0.427,0.742,0.606,0.838,0.865
		C394.789,60.855,394.75,60.864,393.711,63.487z"/>
	<path fill-rule="evenodd" clip-rule="evenodd" d="M166.729,97.116c1.117,0.395,1.949,0.689,2.674,0.946
		c0.686,1.886,0.559,3.304-1.175,4.233C165.493,100.812,165.493,100.812,166.729,97.116z"/>
	<path fill-rule="evenodd" clip-rule="evenodd" d="M397.335,87.891c0,2.041,0,3.072,0,4.152c1.911,0.394,1.695-1.508,2.637-2.656
		c0.697,2.776-0.332,4.003-2.128,4.844C394.945,92.16,394.88,91.739,397.335,87.891z"/>
	<path fill-rule="evenodd" clip-rule="evenodd" d="M375.098,149.899c-1.974,1.281-4.153,1.862-6.381,2.035
		c-4.948,0.383-9.787,1.33-14.585,2.517c-2.157,0.533-4.247,1.356-6.416,1.822c-7.332,1.579-14.689,2.867-22.232,3.215
		c-4.106,0.189-8.146,1.534-12.248,2.147c-3.94,0.589-7.921,0.906-11.883,1.342c-6.508,0.715-13.024,1.368-19.523,2.159
		c-9.193,1.119-18.375,2.333-27.559,3.521c-1.736,0.225-3.47,0.479-5.192,0.794c-1.631,0.298-3.171,0.191-4.116-0.354
		c-1.877-2.247-3.484-3.994-4.879-5.895c-1.127-1.537-2.01-3.254-2.978-4.904c-3.227-5.5-6.346-11.067-9.715-16.479
		c-1.245-1.999-3.081-3.628-4.622-5.447c-1.105-1.304-2.697-2.389-2.142-4.671c0.456-0.217,0.992-0.627,1.58-0.727
		c7.548-1.298,15.115-2.486,22.654-3.832c8.174-1.46,16.297-3.178,24.619-3.71c2.848-0.182,5.659-0.946,8.485-1.452
		c0.787-0.141,1.564-0.394,2.356-0.445c7.356-0.479,14.496-2.448,21.764-3.291c8.913-1.034,17.564-3.449,26.461-4.359
		c5.905-0.604,11.582-2.091,17.355-3.88c3.68,3.861,7.515,7.448,10.66,11.673c2.486,3.34,5.373,6.272,8.388,9.156
		c4.273,4.087,7.908,8.766,10.38,14.217C375.999,146.521,376.548,148.046,375.098,149.899z M249.72,160.042
		c1.086,0.213,2.173,0.427,3.069,0.603c2.285,1.495,2.348,3.743,2.409,6.196c2.141-0.473,4.281,0.453,5.889-1.239
		c-0.605-1.673-1.138-3.149-1.764-4.881c2.35-1.415,4.776-1.853,7.164-2.052c2.469,1.42,4.099,3.232,4.618,5.996
		c3.794,0.188,7.353-0.379,10.84-1.517l-0.151,0.103c3.445-0.48,6.89-0.96,10.704-1.491c-1.035-0.902-1.835-1.599-2.525-2.2
		c0-1.066,0-1.939,0-3.62c0.839,1.457,1.263,2.192,1.8,3.124c1.981,0.091,4.021,0.254,6.057,0.218
		c0.415-0.007,0.817-0.764,1.6-1.551c-0.676-0.726-1.192-1.279-1.337-1.435c-2.353,0-3.876,0-5.807,0
		c1.05-0.819,1.745-1.36,2.51-1.957c-0.659-1.731-1.359-3.317-1.862-4.963c-0.536-1.757-0.552-3.472,1.41-4.584
		c1.838-0.204,3.724-0.472,5.621-0.582c0.496-0.028,1.022,0.435,1.533,0.673c-2.245,0.536-4.49,1.072-6.696,1.599
		c-0.95,3.124,0.021,5.329,2.144,6.932c1.068,0,1.845,0,2.621,0c-0.115,0.605-0.543,1.51-0.297,1.765
		c1.659,1.714,1.281,3.697,0.652,5.9c1.304,0,2.259,0.047,3.208-0.014c0.884-0.056,1.76-0.228,2.825-0.374
		c-0.578-2.229-2.471-3.887-1.226-6.284c1.921-0.687,3.98-1.422,6.143-2.194c-2.793-2.569-3.435-5.465-2.502-8.731
		c3.674-1.314,3.674-1.314,6.013-0.771c-1.898,0.737-3.475,1.35-5.147,1.999c-0.193,1.978,0.465,3.558,1.207,5.116
		c2.241,1.104,4.295,1.305,6.482-0.656c-0.615-1.53-1.228-3.054-2.062-5.13c2.861,1.46,3.121,3.539,3.382,5.973
		c-0.964,0.568-1.88,1.117-2.806,1.647c-0.397,0.228-0.817,0.417-1.036,0.527c0.664,1.816,1.142,3.126,1.561,4.273
		c-0.743,1.112-1.339,2.003-1.939,2.889c-0.321,0.045-0.641,0.091-0.26,0.037c-0.303,0.248-0.066,0.054,0.172-0.14
		c0.628,0.066,1.294,0.303,1.879,0.174c5.773-1.277,11.587-2.147,17.517-2.225c0.846-0.011,1.684-0.55,2.58-0.863
		c-0.623-2.566-1.726-4.861,0.065-7.217c1.012-0.529,2.128-1.112,3.109-1.624c-3.011-2.344-4.401-5.192-3.639-8.952
		c2.544-1.456,5.082-2.171,7.789-2.316c1.453,1.953,2.913,3.668,3.23,5.958c0.101,0.728-0.209,1.512-0.326,2.237
		c-1.378,0.706-2.591,1.327-3.802,1.947c1.389,2.274,2.672,4.448,2.791,7.013c-0.463,0.625-0.833,1.126-1.557,2.103
		c2.483-1.263,5.127-0.264,6.939-2.208c-0.624-2.256-1.209-4.371-1.774-6.416c4.152-2.856,4.263-2.901,8.665-3.44
		c0.502,1.195,1.207,2.441,1.538,3.781c0.32,1.296,0.254,2.686,0.38,4.325c1.912-0.394,3.558-0.733,5.377-1.108
		c-1.505-2.491-3.057-4.573-2.627-7.38c1.789-1.432,3.595-2.663,6.238-3.006c0.455,0.644,0.953,1.351,1.448,2.057
		c-0.871-0.245-1.742-0.49-2.777-0.782c-1.185,0.886-2.412,1.804-3.608,2.699c0.223,1.887,0.57,3.357,2.254,4.206
		c1.649,0.267,3.01-0.284,4.217-1.791c-0.08-1.412-0.168-2.954-0.256-4.497c1.669,1.337,1.905,3.138,1.738,5.25
		c-0.942,0.875-1.916,1.779-3.264,3.03c1.041,0,1.53,0.103,1.954-0.019c1.362-0.395,2.7-0.874,3.858-1.258
		c1.079-2.353-0.017-4.124-1.076-5.602c-2.778-3.876-5.72-7.645-8.782-11.302c-2.244-2.68-4.843-5.062-7.171-7.677
		c-2.967-3.332-5.788-6.794-8.744-10.136c-0.816-0.923-1.886-1.622-2.749-2.347c-5.819,1.444-11.305,2.905-17.029,3.646
		c-9.799,1.267-19.498,3.302-29.239,5.022c-4.084,0.721-8.14,1.818-12.254,2.106c-6.383,0.447-12.526,2.384-19.148,2.429
		c0.363,1.432,0.658,2.593,0.942,3.712c-5.201,2.305-7.205,2.76-10.907,2.445c-0.3-0.647-0.657-1.414-1.03-2.216
		c2.844-0.937,5.357-1.765,7.871-2.594c-4.868-0.354-9.485,0.714-14.136,1.479c-4.724,0.777-9.476,1.499-14.118,2.639
		c-4.568,1.122-9.359,1.042-13.807,2.464c-0.037,1.783,1.288,2.344,2.081,3.286c1.74,2.064,3.573,4.071,5.104,6.282
		c1.806,2.61,3.331,5.413,4.981,8.129c1.076,1.771,2.425,3.433,3.182,5.33c1.625,4.07,4.727,7.121,7.006,10.73
		c0.613,0.97,1.644,1.308,2.804,0.576c-2.176-2.952-2.167-2.958-1.603-5.588c1.276-0.609,2.553-1.217,3.83-1.826L249.72,160.042z
		 M338.429,144.776c2.481,0.131,4.835,0.326,6.669-1.944c-0.299-2.152-1.085-3.915-3.182-4.888
		c-1.777,0.364-3.515,0.614-4.858,1.924C336.628,141.765,337.459,143.248,338.429,144.776z M336.36,150.205
		c-0.052,2.372,0.111,3.981,2.03,4.797c1.543-0.683,2.994-1.299,4.416-1.977c0.236-0.113,0.343-0.493,0.668-0.993
		c-0.356-0.968-0.77-2.099-1.159-3.155C340.01,148.461,338.505,149.841,336.36,150.205z M350.199,147.319
		c0.613,1.477,1.076,2.593,1.615,3.893c2.107-0.526,4.223-0.294,5.682-1.96c0.342-1.602-0.022-2.878-1.152-4.106
		C354.343,145.373,352.486,146.09,350.199,147.319z M306.449,158.018c3.249,0.763,5.466-0.068,7.877-1.717
		c-0.756-1.04-1.338-1.842-1.9-2.616c-2.239,0.5-4.207,0.94-6.393,1.428C306.183,156.164,306.306,157.015,306.449,158.018z
		 M263.024,165.798c1.834-1.216,4.214-0.655,5.752-2.56c-0.585-1.496-1.506-2.613-3.314-2.94c-1.453,0.243-2.908,0.603-4.309,1.428
		C261.811,163.157,262.327,164.282,263.024,165.798z M248.033,165.193c1.551,0.604,2.955,0.735,4.346,0.107
		c0.416-0.188,0.762-0.529,1.064-0.745c-0.188-0.733-0.208-1.246-0.447-1.62c-0.238-0.373-0.697-0.605-0.987-0.841
		c-1.598-0.339-2.955,0.072-4.245,0.743c-0.225,0.117-0.306,0.508-0.52,0.893C247.504,164.209,247.798,164.755,248.033,165.193z"/>
	<path fill-rule="evenodd" clip-rule="evenodd" d="M335.345,23.106c0.916,0.409,2.075,0.925,3.26,1.454
		c1.659,1.999,2.805,4.246,2.981,6.884c0.362,5.418,1.282,10.744,2.395,16.055c0.455,2.17,0.661,4.425,0.689,6.644
		c0.059,4.81,0.899,9.491,1.752,14.203c1.391,7.689,2.508,15.432,1.628,23.288c-0.228,2.037-0.344,4.117-0.999,5.704
		c-1.578,1.549-3.334,1.117-4.825,1.6c-4.893,1.585-9.929,2.269-15.043,2.717c-2.672,0.234-5.285,1.149-7.925,1.757
		c-7.484,1.722-15.122,2.323-22.725,3.239c-8.396,1.011-16.751,2.38-25.11,3.683c-4.885,0.762-9.73,1.773-14.614,2.538
		c-5.226,0.819-10.237,2.427-15.284,3.905c-4.896,1.434-9.665,3.301-14.877,3.509c-1.88,0.075-3.725,0.851-5.6,1.238
		c-1.247,0.257-2.514,0.462-3.782,0.554c-0.766,0.056-1.551-0.147-2.587-0.262c0.175-1.053,0.471-1.92,0.418-2.765
		c-0.058-0.936-0.405-1.861-0.678-2.776c-2.146-7.188-3.804-14.462-4.634-21.941c-0.526-4.743-1.422-9.456-2.365-14.14
		c-1.957-9.711-3.289-19.481-3.298-29.403c-0.002-2.208,0.065-4.411,0.471-6.8c0.928-0.062,1.7-0.098,2.469-0.169
		c2.535-0.232,5.131-0.206,7.593-0.765c10.142-2.303,20.462-3.401,30.743-4.769c1.108-0.148,2.218-0.287,3.318-0.481
		c6.92-1.216,13.842-2.417,20.753-3.68c6.126-1.119,12.22-2.418,18.36-3.449c11.17-1.875,22.364-3.618,33.549-5.402
		C325.944,24.548,330.514,23.856,335.345,23.106z M334.997,24.647c-3.306,0.738-6.249,1.479-9.228,2.027
		c-1.881,0.346-3.832,0.3-5.724,0.605c-10.252,1.654-20.503,3.321-30.74,5.066c-6.928,1.182-13.828,2.521-20.748,3.752
		c-6.765,1.203-13.523,2.459-20.313,3.507c-8.217,1.269-16.465,2.342-24.699,3.502c-1.582,0.223-3.222,0.265-4.731,0.728
		c-3.399,1.044-6.856,1.509-10.388,1.691c-0.882,0.046-1.74,0.532-2.635,0.824c-0.122,1.316-0.359,2.428-0.301,3.525
		c0.175,3.337,0.354,6.68,0.732,9.998c0.668,5.858,1.206,11.752,2.31,17.532c1.378,7.209,2.559,14.437,3.595,21.699
		c1.013,7.099,2.836,14.007,5.33,20.66c2.475,0.865,4.531-0.465,6.696-0.765c5.869-0.813,11.535-2.477,17.223-4.13
		c4.886-1.42,9.688-3.244,14.82-3.828c3.803-0.433,7.621-0.96,11.346-1.821c10.308-2.384,20.808-3.389,31.279-4.617
		c7.769-0.912,15.576-1.538,23.148-3.705c1.832-0.524,3.745-1.036,5.629-1.067c5.993-0.098,11.571-2.166,17.676-3.21
		c0.337-2.248,0.784-4.419,0.967-6.612c0.643-7.701-0.466-15.275-1.708-22.849c-0.67-4.083-1.074-8.209-1.555-12.321
		c-0.315-2.693-0.323-5.442-0.876-8.081c-1.082-5.164-1.947-10.344-2.185-15.612c-0.083-1.843-0.611-3.43-1.977-4.906
		C337.103,25.786,336.124,25.256,334.997,24.647z"/>
	<path fill-rule="evenodd" clip-rule="evenodd" d="M269.833,23.18c0.575,0.26,1.486,0.52,2.197,1.047
		c0.433,0.321,0.561,1.051,0.768,1.48c-0.243,1.878-1.102,3.07-2.993,3.857c-0.764-0.233-1.756-0.537-2.85-0.872
		c-0.049-0.773-0.189-1.39-0.106-1.975C267.079,25.094,267.654,23.679,269.833,23.18z M268.734,27.771
		c1.839-0.038,2.62-0.715,2.468-2.57c-0.725-0.07-1.445-0.139-2.468-0.237C268.734,26.079,268.734,26.888,268.734,27.771z"/>
	<path fill-rule="evenodd" clip-rule="evenodd" d="M443.439,4.799c3.117,2.847,3.932,6.42,4.972,9.922
		c3.231,10.88,4.747,22.086,6.542,33.246c0.478,2.977,1.419,5.877,2.026,8.837c0.578,2.815,1.164,5.683-1.565,8.754
		c-2.68,1.187-5.993,2.744-9.377,4.123c-2.263,0.922-4.714,0.988-7.086,0.568c-4.221-0.748-7.308-2.828-8.581-7.26
		c-1.672-5.819-3.639-11.545-4.227-17.629c-0.214-2.208-0.736-4.396-1.236-6.565c-1.608-6.978-3.295-13.938-4.902-20.917
		c-0.578-2.507-0.966-5.041,1.123-7.546C428.128,7.313,436.086,7.14,443.439,4.799z M421.413,12.095
		c-1.058,2.875-0.304,5.255,0.277,7.487c1.806,6.937,2.684,14.1,5.128,20.88c0.267,0.739,0.38,1.551,0.443,2.34
		c0.5,6.241,2.194,12.192,4.05,18.148c1.317,4.227,3.513,7.077,8.079,7.687c0.317,0.042,0.632,0.099,0.365,0.057
		c6.17,0.329,10.626-2.655,15.199-4.839c1.626-2.405,1.314-4.828,0.592-7.101c-1.896-5.967-2.589-12.148-3.565-18.28
		c-0.827-5.195-1.374-10.436-2.793-15.526c-0.941-3.376-1.794-6.777-2.723-10.158c-0.636-2.312-1.472-4.524-3.658-6.213
		C435.817,8.687,428.423,9.293,421.413,12.095z"/>
	<path fill-rule="evenodd" clip-rule="evenodd" d="M332.043,146.793c-0.431,2.116-1.999,3.24-3.398,4.173
		c0.212,1.801,0.392,3.323,0.601,5.099c-3.265,0.442-6.194,0.838-8.881,1.202c-1.683-1.187-1.832-2.473-1.291-4.047
		c1.656-0.743,3.351-1.503,5.354-2.4c-1.651-2.909-3.445-5.602-2.952-9.109c1.781-1.973,4.274-2.317,7.081-2.691
		C329.672,141.663,332.505,143.478,332.043,146.793z M322.491,142.662c1.102,2.694,0.831,5.926,4.428,6.978
		c2.287-0.384,3.789-1.514,3.923-4.247c-1.027-1.38-2.136-2.87-3.337-4.484c-1.052,0.18-2.152,0.314-3.22,0.579
		C323.854,141.594,323.495,141.988,322.491,142.662z M320.653,153.659c0.06,0.71,0.022,0.899,0.098,1.014
		c0.151,0.231,0.365,0.423,0.658,0.746c1.883-0.215,3.909-0.109,6.033-1.15c-0.384-0.673-0.649-1.139-1.064-1.867
		C324.506,152.813,322.723,153.205,320.653,153.659z"/>
	<path fill-rule="evenodd" clip-rule="evenodd" d="M323.355,126.572c1.739,2.146,3.943,3.684,3.885,6.886
		c-0.389,0.681-0.926,1.622-1.5,2.627c-1.757,0.712-3.49,1.415-5.229,2.12c-3.32-2.543-3.612-5.858-3.728-9.263
		C318.9,127.52,320.681,126.234,323.355,126.572z M324.877,134.748c1.581-3.378-0.71-4.784-2.244-6.804
		c-1.362,0.489-2.648,0.951-3.841,1.379c-0.477,2.857,0.459,4.892,1.887,7.004C322.229,135.744,323.532,135.255,324.877,134.748z"/>
	<path fill-rule="evenodd" clip-rule="evenodd" d="M350.278,121.616c2.114,1.358,3.157,3.412,3.98,5.926
		c-2.494,2.212-4.744,4.655-8.389,3.837c-3.041-3.815-3.15-4.124-3.056-8.526c1.922-1.793,4.392-2.143,7.039-2.357
		c0.219,0.486,0.397,0.881,0.577,1.28c-2.194,0.559-4.706,0.294-6.451,2.361c0.398,2.24,0.829,4.341,2.922,5.673
		c2.261,0.008,3.841-1.221,5.609-2.644c-0.482-1.036-0.965-1.98-1.362-2.96C350.806,123.363,350.564,122.481,350.278,121.616z"/>
	<path fill-rule="evenodd" clip-rule="evenodd" d="M236.509,139.252c2.002,0,4.041,0,6.057,0c1.901,1.901,2.288,4.149,2.267,6.58
		c-1.92,1.541-3.873,2.471-6.024,2.756c-2.794-1.499-2.763-1.534-4.515-4.254C233.895,142.456,234.768,141.017,236.509,139.252z
		 M242.998,144.912c-0.019-1.75-0.015-3.464-1.913-4.7c-1.275,0.256-2.652,0.533-4.173,0.839c-0.374,1.092-0.713,2.08-1.244,3.628
		c0.842,0.85,1.71,1.726,2.114,2.135C240.405,146.844,241.741,146.117,242.998,144.912z"/>
	<path fill-rule="evenodd" clip-rule="evenodd" d="M261.787,144.629c-1.698-2.477-3.398-4.58-2.441-7.922
		c2.239-0.793,4.604-1.63,6.902-2.444c3.562,1.807,2.903,5.106,3.878,7.733C267.543,144.122,264.916,144.44,261.787,144.629z
		 M262.181,143.124c2.54-0.34,4.472-0.648,6.302-2.009c-0.353-1.31-0.629-2.52-1.02-3.692c-0.135-0.407-0.553-0.72-1.09-1.38
		c-1.936,0.664-4.088,0.906-5.876,2.707C261.015,140.094,261.51,141.379,262.181,143.124z"/>
	<path fill-rule="evenodd" clip-rule="evenodd" d="M280.589,143.752c-4.81-0.702-5.749-1.775-6.745-7.773
		c1.863-1.995,4.326-2.219,7.104-2.265c1.067,2.449,3.579,4.109,3.391,6.877C283.453,142.468,282.042,143.171,280.589,143.752z
		 M277.42,141.449c2.42,0.955,4.079,0.685,5.341-1.747c-0.714-1.338-1.508-2.83-2.251-4.223c-2.219-0.235-3.704,0.345-5.036,1.939
		C276.201,138.921,276.869,140.308,277.42,141.449z"/>
	<path fill-rule="evenodd" clip-rule="evenodd" d="M332.453,135.125c-1.693-2.408-2.682-4.679-3.144-7.503
		c0.575-0.868,1.243-1.877,1.866-2.818c1.798-0.266,3.351-0.494,5.077-0.749c0.416,3.119,4.432,4.917,3.071,8.944
		C337.165,133.685,335.139,134.901,332.453,135.125z M333.302,133.473c1.81-0.88,3.692-0.67,4.743-2.471
		c-0.432-0.914-0.807-1.761-1.228-2.586c-0.415-0.814-0.876-1.605-1.368-2.498c-1.458,0.018-2.864-0.146-4.111,1.144
		C330.54,129.344,332.067,131.065,333.302,133.473z"/>
	<path fill-rule="evenodd" clip-rule="evenodd" d="M256.743,146.242c-1.851,0.513-3.5,0.97-5.065,1.403
		c-2.347-0.765-3.247-2.662-4.093-4.5c-0.598-1.298-0.817-2.743,0.568-4.545c1.382-0.485,3.266-1.146,5.018-1.761
		C257.058,141.271,257.312,141.916,256.743,146.242z M252.941,138.951c-1.782-0.173-3.159,0.343-4.067,1.827
		c0.693,2.665,0.693,2.665,2.629,4.881c1.995-0.171,1.995-0.171,3.914-1.36C255.503,142.12,254.439,140.438,252.941,138.951z"/>
	<path fill-rule="evenodd" clip-rule="evenodd" d="M302.298,131.839c1.099-0.645,1.993-1.299,2.986-1.72
		c1.294-0.548,2.668-0.91,4.23-1.425c0.736,1.107,1.439,2.121,2.095,3.164c0.58,0.922,1.107,1.878,1.597,2.714
		c-0.283,3.718-2.96,4.721-5.8,5.727c-0.844-0.169-1.761-0.353-2.641-0.529C302.813,137.555,302.006,135.116,302.298,131.839z
		 M303.355,132.915c0.768,2.161,1.34,3.771,1.85,5.208c3.952,0.526,4.274,0.363,6.442-3.107c-0.723-1.654-1.419-3.402-3.398-4.655
		C306.774,131.132,305.255,131.924,303.355,132.915z"/>
	<path fill-rule="evenodd" clip-rule="evenodd" d="M289.219,124.129c3.948-0.29,7.517-2.384,11.727-2.419
		c0.35,0.789,0.657,1.478,0.899,2.025c-0.596,1.6-6.586,3.495-10.999,3.659C289.604,125.993,289.604,125.993,289.219,124.129z
		 M292.581,125.209l0.339,0.205l0.071-0.288L292.581,125.209z"/>
	<path fill-rule="evenodd" clip-rule="evenodd" d="M281.945,163.148c-2.208,0-4.415,0-6.627,0c-1.068-1.415-2.048-2.611-2.115-4.434
		c3.407-0.632,6.362-2.945,10.044-2.38c2.229,1.564,2.203,1.582,2.688,4.002c-0.646,2.017-2.881,1.756-4.132,2.911
		C281.794,163.25,281.945,163.148,281.945,163.148z M275.84,160.848c2.816,0.232,5.626,1.043,8.12-0.439
		c0.372-1.704-0.516-2.258-1.869-2.714C279.946,158.205,277.265,157.869,275.84,160.848z"/>
	<path fill-rule="evenodd" clip-rule="evenodd" d="M298.495,135.193c0.271,2.92,0.246,5.1-2.509,6.764c-1.551,0-3.572,0-5.669,0
		c-2.316-2.309-2.856-5.09-2.594-8.478c2.455-0.775,4.816-1.52,7.263-2.292C296.297,132.683,297.421,133.965,298.495,135.193z
		 M294.382,132.892c-1.659,0.541-3.426,1.116-5.253,1.711c-0.141,2.426,0.471,4.287,1.872,5.984c1.994,0.513,3.79,0.222,5.396-0.915
		C298.112,136.795,296.941,134.807,294.382,132.892z"/>
	<path fill-rule="evenodd" clip-rule="evenodd" d="M274.48,146.872c1.345,2.6,1.27,5.09,0.649,7.605
		c-0.219,0.891-0.599,1.127-2.977,2.464c-1.05-0.273-2.268-0.591-3.36-0.875c-2.458-1.939-3.363-4.314-2.766-7.467
		c1.513-1.242,3.484-1.817,5.723-2.58C272.529,146.262,273.546,146.58,274.48,146.872z M267.716,149.576
		c0.29,4.799,1.149,5.612,5.464,5.363c1.488-2.305,1.208-4.642,0.065-7.091C271.038,147.385,269.452,148.337,267.716,149.576z"/>
	<path fill-rule="evenodd" clip-rule="evenodd" d="M273.369,129.546c-0.284-1.199-0.493-2.085-0.765-3.232
		c3.874-0.899,7.55-1.753,11.112-2.58c1.647,1.131,1.891,2.369,1.129,4.092C281.425,129.33,277.771,130.072,273.369,129.546z
		 M283.056,126.055c-2.784,0.065-5.539,0.261-7.863,2.198C277.827,127.554,280.718,128.087,283.056,126.055z"/>
	<path fill-rule="evenodd" clip-rule="evenodd" d="M333.286,115.583c0.727,1.356,1.153,2.151,1.655,3.086
		c-3.211,3.191-7.175,2.427-10.731,2.956c-0.494-0.572-0.867-0.891-1.082-1.293c-0.122-0.229,0.015-0.594,0.055-1.175
		C326.334,118.042,329.588,116.892,333.286,115.583z M332.169,118.673c-0.012-0.186-0.023-0.371-0.035-0.556
		c-0.486,0.038-0.972,0.076-1.457,0.114c0.011,0.172,0.021,0.344,0.032,0.516C331.195,118.723,331.682,118.698,332.169,118.673z"/>
	<path fill-rule="evenodd" clip-rule="evenodd" d="M262.812,155.805c-1.593,3.009-4.57,2.284-6.829,3.298
		c-3.02-2.083-3.833-4.896-3.326-8.123c1.605-1.695,3.603-1.646,5.265-2.172C261.304,151,261.304,151,262.812,155.805z
		 M259.009,150.589c-2.077-0.024-3.629,0.038-4.718,1.574c-0.088,1.924,0.394,3.645,1.751,5.029
		c1.894,0.123,3.582,0.036,4.916-1.367C261.405,153.677,260.015,152.299,259.009,150.589z"/>
	<path fill-rule="evenodd" clip-rule="evenodd" d="M350.738,134.572c1.819-2.222,4.531-2.011,7.171-2.636
		c2.155,2.287,2.68,4.802,1.048,8.018c-1.806,0.547-3.765,1.141-5.581,1.691C349.842,139.74,349.725,139.406,350.738,134.572z
		 M353.139,140.022c1.571-0.442,3.211-0.905,4.611-1.299c1.194-1.813,0.929-3.233-0.232-4.815c-1.52,0.164-3.061,0.331-4.349,0.47
		C351.137,137.377,351.137,137.377,353.139,140.022z"/>
	<path fill-rule="evenodd" clip-rule="evenodd" d="M318.375,119.777c0.258,0.827,0.512,1.637,0.863,2.765
		c-3.832,1.32-7.343,2.57-11.49,2.162c-0.219-0.784-0.444-1.587-0.765-2.737C311.094,122.023,314.183,118.985,318.375,119.777z"/>
	<path fill-rule="evenodd" clip-rule="evenodd" d="M249.885,159.911c-3.886,0.267-3.886,0.267-7.043-0.995
		c-1.062-1.778-2.393-3.606-1.052-5.952c2.662-1.385,2.662-1.385,5.892-1.163c2.443,2.278,2.256,5.26,2.031,8.247
		C249.72,160.042,249.885,159.911,249.885,159.911z M243.219,157.494c1.982,1.148,3.449,1.404,5.057,0.369
		c0.318-1.785-0.395-3.281-1.165-4.733c-1.719-0.343-2.992-0.003-4.234,1.202C242.985,155.322,243.099,156.376,243.219,157.494z"/>
	<path fill-rule="evenodd" clip-rule="evenodd" d="M281.644,148.009c-0.579,1.751-0.374,3.556,0.982,5.277
		c1.573,0.641,3.219,1.119,4.878,0.057c2.016-1.849,0.132-3.901,0.291-5.891c1.945,1.602,2.035,1.906,1.604,5.974
		c-0.157,0.111-0.665,0.504-1.208,0.841c-0.536,0.333-1.107,0.611-1.941,1.063c-1.492-0.268-3.173-0.571-4.774-0.859
		c-1.463-2.735-1.894-5.267-0.879-8.082c1.948-0.871,3.949-0.903,6.084-1.231C285.73,147.657,283.276,146.184,281.644,148.009z"/>
	<path fill-rule="evenodd" clip-rule="evenodd" d="M253.816,132.127c-3.999,1.554-7.354,2.705-11.325,2.492
		c-0.272-0.835-0.533-1.636-0.835-2.56c2.943-0.614,5.551-1.197,8.176-1.689C251.116,130.13,251.203,130.235,253.816,132.127z"/>
	<path fill-rule="evenodd" clip-rule="evenodd" d="M237.92,132.44c-0.2,1.242-0.299,1.851-0.422,2.615
		c-2.571,1.125-5.038,2.454-8.186,2.103c-0.298-0.693-0.586-1.366-0.954-2.223C231.344,133.415,234.301,132.732,237.92,132.44z"/>
	<path fill-rule="evenodd" clip-rule="evenodd" d="M346.372,115.996c-3.759,2.308-3.759,2.308-7.599,2.661
		c-0.256-0.454-0.547-0.97-0.963-1.707c2.241-1.162,4.327-2.244,6.605-3.426C345.095,114.383,345.635,115.065,346.372,115.996z"/>
	<path fill-rule="evenodd" clip-rule="evenodd" d="M299.384,153.562c1.236-1.324,2.472-2.648,3.721-3.987
		c-0.624-1.686-1.202-3.247-1.779-4.807c1.795,1.166,2.565,3.073,3.651,4.702C302.001,152.758,302.001,152.758,299.384,153.562z"/>
	<path fill-rule="evenodd" clip-rule="evenodd" d="M279.928,87.912c-2.112-2.757-1.247-5.785-2.054-8.397
		c-0.837-2.71-1.002-5.631-1.414-8.466c-0.411-2.827-0.764-5.662-1.278-9.518c-0.738,1.69-1.29,2.431-1.362,3.215
		c-0.249,2.698-0.376,5.411-0.46,8.121c-0.067,2.176-0.346,4.287-1.26,7.091c-2.875-5.558-2.61-11.414-5.425-16.37
		c-1.149,0.797-0.654,1.797-0.702,2.593c-0.057,0.943,0.102,1.904,0.216,2.851c0.647,5.378,1.315,10.755,1.956,16.134
		c0.068,0.575,0.009,1.165,0.009,1.829c-0.458-0.121-0.729-0.129-0.751-0.208c-1.466-5.035-1.999-10.24-2.412-15.421
		c-0.359-4.509-0.795-9.061-0.664-14.07c2.371,2.198,3.214,3.501,4.44,7.123c0.857,2.533,1.533,5.127,2.509,8.44
		c1.944-6.526,1.113-12.656,2.402-18.495c1.554,0.2,1.716,1.416,1.906,2.457c0.628,3.451,1.16,6.92,1.725,10.383
		c0.796,4.87,1.516,9.753,2.418,14.603C280.08,83.697,280.5,85.523,279.928,87.912z"/>
	<path fill-rule="evenodd" clip-rule="evenodd" d="M225.471,95.981c-1.723,2.682-4.046,4.135-7.389,4.428
		c-0.265-0.591-0.782-1.246-0.836-1.938c-0.91-11.56-1.763-23.125-2.621-34.69c-0.011-0.15,0.074-0.306,0.17-0.674
		c1.964-0.971,4.076-1.136,6.125-0.494c2.492,1.945,3.091,4.63,3.521,7.282C225.849,78.563,225.72,87.298,225.471,95.981z
		 M219.258,63.772c-0.787,0.174-1.797,0.397-3.088,0.682c0.977,11.294,1.933,22.343,2.889,33.402
		c3.731-0.61,5.205-2.256,5.111-5.547c-0.069-2.379-0.01-4.765-0.171-7.138c-0.355-5.229-0.809-10.451-1.231-15.676
		C222.578,67.148,221.655,65.219,219.258,63.772z"/>
	<path fill-rule="evenodd" clip-rule="evenodd" d="M302.815,77.676c0.857,3.833,0.857,3.833-2.245,5.854
		c-1.638-0.191-2.464-1.386-2.894-2.775c-0.795-2.576-1.4-5.209-2.114-7.811c-0.209-0.761-0.479-1.512-0.805-2.23
		c-0.103-0.228-0.475-0.334-0.894-0.606c-0.673,4.408,1.712,8.63,0.475,13.976c-0.578-1.611-0.955-2.28-1.048-2.986
		c-0.622-4.726-1.477-9.448-1.687-14.197c-0.233-5.253-0.833-10.449-1.417-15.657c-0.086-0.764-0.012-1.547-0.012-2.397
		c1.727-0.791,3.388-1.118,5.119-0.633c6.122,5.245,6.015,10.274-0.527,18.292c3.334,4.36,2.527,10.244,5.25,15.353
		c0.735-0.48,1.533-0.74,1.864-1.283C302.346,79.813,302.464,78.84,302.815,77.676z M291.878,50.299
		c0.449,4.63,0.858,8.851,1.277,13.071c0.013,0.126,0.124,0.265,0.227,0.354c0.116,0.101,0.275,0.153,0.57,0.307
		c3.2-1.87,3.615-5.181,4.229-8.149c-0.484-2.662-1.385-4.776-3.779-6.258C293.785,49.788,293.055,49.984,291.878,50.299z"/>
	<path fill-rule="evenodd" clip-rule="evenodd" d="M324.762,69.539c1.333,2.45,0.563,5.823,3.82,7.655
		c0.364-0.815,0.827-1.358,0.793-1.868c-0.096-1.414-0.261-2.852-0.646-4.211c-1.429-5.052-3.083-10.045-4.399-15.125
		c-0.755-2.913-1.132-5.939-1.468-8.938c-0.23-2.048-0.074-4.13,1.667-5.504c1.561-0.022,2.268,0.87,2.727,1.893
		c1.171,2.609,2.039,5.298,1.582,8.803c-2.317-2.621-0.993-6.34-3.99-8.53c-0.179,0.84-0.455,1.396-0.38,1.898
		c0.563,3.77,0.951,7.589,1.868,11.277c1.228,4.937,2.92,9.758,4.33,14.653c0.348,1.207,0.54,2.514,0.49,3.762
		c-0.036,0.885-0.441,1.863-0.966,2.596c-0.708,0.991-1.848,1.155-3.271,0.718c-2.582-2.09-2.633-5.378-3.387-8.506
		C324.021,69.884,324.395,69.71,324.762,69.539z"/>
	<path fill-rule="evenodd" clip-rule="evenodd" d="M254.267,52.853c1.123,1.152,2.026,1.816,2.583,2.698
		c1.82,2.88,2.603,6.192,2.987,9.475c0.661,5.666,0.877,11.383,1.304,17.077c0.209,2.782-0.311,5.365-2.045,7.9
		c-0.578,0.111-1.309,0.25-2.349,0.45c-2.488-6.075-3.451-12.353-4.168-18.596c-0.65-5.656-0.923-11.408,0.07-17.095
		C252.737,54.252,253.402,53.843,254.267,52.853z M254.063,55.106c-1.745,7.579,0.614,26.337,4.106,32.947
		c1.851-2.18,1.908-4.628,1.644-7.188c-0.31-3.004-0.52-6.019-0.809-9.025c-0.274-2.847-0.425-5.72-0.947-8.523
		c-0.402-2.164-1.22-4.267-2.013-6.336C255.815,56.381,255.032,55.993,254.063,55.106z"/>
	<path fill-rule="evenodd" clip-rule="evenodd" d="M280.097,51.843c1.523-1.589,2.9-2.175,4.608-1.605
		c5.033,5.671,4.313,12.386-1.791,16.645c-0.057,5.753,1.433,11.445,1.229,17.821c-0.734-0.815-1.231-1.107-1.285-1.465
		C281.299,72.865,279.896,62.475,280.097,51.843z M282.377,51.751c-0.913,4.275-0.245,8.025,0.012,11.767
		c0.013,0.184,0.446,0.339,0.861,0.634c3.123-1.983,3.23-5.08,2.86-8.255C285.892,54.024,285.3,52.226,282.377,51.751z"/>
	<path fill-rule="evenodd" clip-rule="evenodd" d="M313.31,48.102c0.672-1.134,1.389-2.347,1.944-3.284
		c1.988-0.985,3.141-0.286,3.932,1.107c0.912,1.606,1.05,5.773,0.395,8.159c-1.223-0.433-0.836-1.519-0.95-2.372
		c-0.126-0.945-0.055-1.926-0.265-2.847c-0.204-0.894-0.655-1.733-1.117-2.899c-0.695,0.506-1.296,0.754-1.603,1.202
		c-0.99,1.439-0.814,3.039-0.327,4.598c1.328,4.249,2.67,8.495,4.056,12.726c0.793,2.422,1.685,4.811,2.526,7.217
		c0.8,2.291,1.221,4.61,0.548,6.994c-1.048,1.41-2.35,2.144-4.016,1.915c-1.727-0.813-2.459-2.198-2.619-3.854
		c-0.138-1.435-1.068-2.929,0.025-4.758c1.859,2.101,0.762,5.007,2.735,6.55c1.438,0.542,2.115-0.208,2.754-1.905
		c-0.362-1.382-0.752-3.238-1.339-5.03c-1.339-4.086-2.678-8.177-4.201-12.197C314.479,55.964,313.643,52.432,313.31,48.102z"/>
	<path fill-rule="evenodd" clip-rule="evenodd" d="M246.349,90.825c2.099-1.492,1.292-3.792,1.726-5.834
		c0.307-0.183,0.677-0.403,1.158-0.689c0.671,2.751,0.086,5.153-1.217,7.578c-0.453,0.251-1.003,0.555-1.545,0.855
		c-0.521-0.16-1.006-0.228-1.408-0.446c-1.519-0.824-2.241-2.234-2.588-3.837c-1.208-5.593-2.76-11.133-2.626-16.938
		c0.099-4.283-0.172-8.578,0.178-13.07c1.123-0.614,2.169-1.187,3.009-1.646c0.651,0.316,1.044,0.376,1.197,0.6
		c2.425,3.555,3.086,7.351,1.881,12.351c-0.417-2.511-0.744-4.331-1.016-6.159c-0.257-1.734-0.381-3.507-2.169-4.85
		c-0.556,0.428-1.143,0.881-1.615,1.244c-0.788,9.341,0.469,18.289,2.548,27.155C244.214,88.639,244.429,90.312,246.349,90.825z"/>
	<path fill-rule="evenodd" clip-rule="evenodd" d="M228.972,60.766c1.889-0.324,3.884-0.666,5.807-0.996
		c0.254,0.47,0.395,0.731,0.545,1.008c-0.443,1.177-1.578,0.736-2.406,0.996c-0.897,0.282-1.815,0.497-2.911,0.792
		c-1.097,6.288,0.579,12.371,0.446,18.33c1.94,1.41,3.6-0.148,5.275,0.103c0.158,0.265,0.312,0.522,0.63,1.056
		c-1.391,1.055-3.312,0.832-4.723,1.75c-0.683,3.945-0.504,5.689,1.121,10.349c0.848-0.073,1.762-0.12,2.665-0.24
		c0.734-0.097,1.363-0.918,2.495-0.119c-0.299,0.425-0.502,0.986-0.9,1.228c-1.532,0.932-3.206,1.389-5.411,1.033
		c-0.37-0.963-1.029-2.069-1.21-3.248c-1.547-10.074-2.269-20.21-1.971-30.407C228.438,61.952,228.714,61.511,228.972,60.766z"/>
	<path fill-rule="evenodd" clip-rule="evenodd" d="M302.319,49.444c3.821-2.165,3.821-2.165,7.508-1.965
		c-1.177,2.203-3.91,1.206-5.35,2.827c-0.511,3.012,0.68,14.232,2.058,18.734c1.322-0.467,2.637-0.932,3.915-1.384
		c0.655,0.596,0.686,1.153-0.001,1.562c-1.226,0.73-2.495,1.388-3.885,2.151c-0.334,2.552,0.51,4.922,1.118,7.525
		c0.738,0,1.332-0.046,1.914,0.016c0.409,0.044,0.803,0.236,1.67,0.509c-1.364,0.904-2.377,1.574-3.412,2.26
		c-0.531-0.434-1.067-0.653-1.197-1.017c-0.53-1.484-1.143-2.984-1.351-4.528c-0.763-5.658-1.364-11.337-2.054-17.006
		c-0.172-1.414-0.523-2.809-0.652-4.226C302.432,53.033,302.401,51.151,302.319,49.444z"/>
	<path fill-rule="evenodd" clip-rule="evenodd" d="M335.86,36.865c0.263,9.953,0.565,19.648,0.156,29.358
		c-1.427-0.032-1.63-0.795-1.626-1.618c0.011-3.019,0.113-6.037,0.09-9.055c-0.037-4.925-0.184-9.848-0.196-14.773
		C334.281,39.46,333.854,37.871,335.86,36.865z"/>
	<path fill-rule="evenodd" clip-rule="evenodd" d="M336.909,75.281c-0.667-0.307-1.061-0.49-1.744-0.805
		c0.372-0.806,0.715-1.551,1.096-2.378c0.666,0.31,1.053,0.49,1.722,0.802C337.614,73.72,337.278,74.464,336.909,75.281z"/>
	<path fill-rule="evenodd" clip-rule="evenodd" d="M442.874,65.301c-3.073-2.907-2.057-5.326-0.743-7.668
		c3.117-1.766,3.117-1.766,6.299-1.684c0.237,0.204,0.569,0.362,0.693,0.62c0.404,0.844,0.733,1.725,1.053,2.503
		c-0.433,2.513-0.907,4.828-3.711,6.425C445.512,65.445,444.129,65.37,442.874,65.301z M448.181,58.258
		c-1.523-0.917-2.773-0.686-3.891-0.022c-0.644,0.382-1.192,1.038-1.592,1.688c-0.576,0.934-0.278,2.34,0.775,3.359
		c0.729,0.093,1.778,0.226,2.644,0.336C448.084,62.184,448.769,60.559,448.181,58.258z"/>
	<path fill-rule="evenodd" clip-rule="evenodd" d="M447.465,47.619c0.362-0.348,0.869-0.835,1.54-1.481
		c1.243,1.404,1.424,2.53,0.378,3.903C447.965,49.88,447.375,49.192,447.465,47.619z"/>
	<path fill-rule="evenodd" clip-rule="evenodd" d="M436.466,50.617c0.734,0.608,1.331,1.103,2.15,1.782
		c-0.749,0.556-1.201,0.892-1.569,1.165C435.451,52.885,435.567,52.011,436.466,50.617z"/>
</g>
</svg>
