<?xml version="1.0" encoding="utf-8"?>
<!-- Generator: Adobe Illustrator 17.1.0, SVG Export Plug-In . SVG Version: 6.00 Build 0)  -->
<!DOCTYPE svg PUBLIC "-//W3C//DTD SVG 1.1//EN" "http://www.w3.org/Graphics/SVG/1.1/DTD/svg11.dtd">
<svg version="1.1" xmlns="http://www.w3.org/2000/svg" xmlns:xlink="http://www.w3.org/1999/xlink" x="0px" y="0px"
	 viewBox="0 0 126.14 378.044" enable-background="new 0 0 126.14 378.044" xml:space="preserve">
<g id="Layer_3">
	<g>
		<path opacity="0.2" fill="#FFFFFF" d="M54.661,361.333c-5.797,0-5.797,8.991,0,8.991S60.458,361.333,54.661,361.333z"/>
		<path opacity="0.2" fill="#FFFFFF" d="M59.322,211.487c-5.797,0-5.797,8.991,0,8.991S65.119,211.487,59.322,211.487z"/>
		<path opacity="0.2" fill="#FFFFFF" d="M81.567,168.811c-1.989-1.166-5.08-0.591-6.15,1.613c-0.512,1.055-0.874,2.148-1.287,3.232
			c-0.016,0.032-0.029,0.066-0.045,0.098c-1.07,2.205-0.62,4.843,1.613,6.151c1.99,1.166,5.08,0.59,6.15-1.613
			c0.512-1.057,0.876-2.152,1.289-3.238c0.015-0.03,0.027-0.062,0.042-0.093C84.249,172.757,83.801,170.119,81.567,168.811z"/>
		<path opacity="0.2" fill="#FFFFFF" d="M72.957,128.215c-2.324-4.496-8.137-2.342-9.095,1.556
			c-2.014-3.338-8.369-2.584-8.369,2.297v9.323c0,5.798,8.99,5.798,8.99,0v-7.828c4.128,8.164,4.491,16.108,4.495,25.143
			c0.002,6.442,9.991,6.443,9.988,0C78.961,147.718,78.074,138.114,72.957,128.215z"/>
		<path opacity="0.2" fill="#FFFFFF" d="M109.929,53.649c-8.069-0.845-16.994,0.116-20.316,8.628
			c-0.825,2.114,0.891,5.163,3.139,5.53c5.241,0.857,9.724-0.195,13.696-3.82c0.551-0.503,0.924-1.047,1.15-1.603
			c0.924,0.092,1.742,0.195,2.33,0.257C115.693,63.242,115.635,54.246,109.929,53.649z"/>
		<path opacity="0.2" fill="#FFFFFF" d="M33.025,61.61c-0.67-2.434-3.144-3.692-5.529-3.139c-2.235,0.517-4.507,0.504-6.796,0.505
			c-2.45,0.001-4.495,2.044-4.495,4.495c0,2.45,2.045,4.496,4.495,4.495c3.092-0.002,6.159-0.127,9.186-0.827
			C32.273,66.588,33.655,63.898,33.025,61.61z"/>
		<path opacity="0.2" fill="#FFFFFF" d="M76.124,199.336c-4.183-11.821-2.347-25.983-9.204-36.991
			c-1.785-2.865-4.471-4.257-7.834-3.693c-3.329,0.558-4.986,4.48-6.053,7.181c-2.168,5.494-0.822,10.915,2.424,15.599
			c1.916,2.765,3.261,5.37,4.205,8.632c1.008,3.479,0.063,7.707-0.008,11.267c-0.101,5.082,6.083,6.146,8.769,3.218
			C71.906,206.889,77.863,204.253,76.124,199.336z"/>
		<path opacity="0.2" fill="#FFFFFF" d="M81.277,220.731c0.52-2.892,0.94-5.797,1.018-8.745c0.17-6.445-9.819-6.429-9.988,0
			c-0.052,1.982-0.274,3.958-0.575,5.927c-1.54,0.522-2.703,1.777-3.242,3.401c-0.453,1.366-0.748,2.758-1.006,4.163
			c-0.655,0.1-1.338,0.366-2.026,0.844c-5.173,3.591-7.119,6.627-4.455,12.828c0.637,1.482,2.752,2.58,4.312,2.474
			c1.632-0.111,3-0.417,4.16-0.882c0.3,1.69,0.784,3.378,1.516,5.068c1.082,2.499,4.7,3.044,6.833,1.792
			C86.119,242.735,87.924,227.352,81.277,220.731z"/>
		<path opacity="0.2" fill="#FFFFFF" d="M88.936,254.535c-3.143-6.798-12.85-4.598-16.34,0.476c-2.809-2.223-5.463-4.865-8.413-6.44
			c-7.952-4.246-15.015,7.828-7.058,12.076c1.903,1.017,3.59,2.289,5.231,3.625c-3.981,4.206-5.236,9.946-2.489,15.355
			c3.009,5.922,11.231,6.813,16.261,3.25c3.731-2.644,5.506-6.111,6.443-10.017c2.951-0.317,5.175-2.22,6.134-5.069
			C90.217,263.297,90.995,258.987,88.936,254.535z"/>
		<path opacity="0.2" fill="#FFFFFF" d="M90.036,288.712c-0.541-3.779-5.282-5.797-8.601-4.884
			c-4.018,1.105-5.423,4.832-4.883,8.603c-0.148-1.038,0.016,1.678,0.011,1.455c0.017,0.861-0.059,1.723-0.131,2.58
			c-0.097,1.148-0.732,3.394-1.212,4.9c-1.157,3.632,1.321,7.622,4.883,8.602c3.785,1.041,7.445-1.256,8.601-4.884
			C90.421,299.696,90.834,294.29,90.036,288.712z"/>
		<path opacity="0.2" fill="#FFFFFF" d="M60.654,331.53c-3.811,0-6.992,3.181-6.992,6.993v10.656c0,3.812,3.18,6.993,6.992,6.993
			c3.811,0,6.992-3.181,6.992-6.993v-10.656C67.646,334.711,64.465,331.53,60.654,331.53z"/>
		<path opacity="0.2" fill="#FFFFFF" d="M90.702,351.315c-1.107-3.644-4.854-5.915-8.601-4.884
			c-1.982,0.545-3.592,1.993-4.459,3.791c-1.574-0.302-3.212-0.077-4.536,0.91c-1.439,1.073-2.68,2.086-3.789,3.485
			c-0.65,0.819-1.278,1.654-1.896,2.498c-0.034,0.046-0.057,0.078-0.085,0.118c-0.064,0.061-0.161,0.161-0.306,0.319
			c-4.859,5.266-0.057,13.157,6.803,11.688c3.974-0.851,7.837-1.286,11.515-3.17C90.838,363.259,92.389,356.874,90.702,351.315z"/>
		<path opacity="0.2" fill="#FFFFFF" d="M93.301,319.787c-1.616-2.411-3.865-4.172-6.701-4.926c-2.78-0.738-5.749-0.457-8.494,0.269
			c-2.495,0.66-4.307,2.702-4.907,5.085c-2.269,1.667-3.289,4.625-2.64,7.514c1.416,6.298,4.841,13.914,12.366,14.023
			c5.849,0.086,9.836-5.089,11.476-10.14C95.604,327.907,95.53,323.113,93.301,319.787z"/>
		<path opacity="0.2" fill="#FFFFFF" d="M67.956,303.599c-1.107-4.159-3.767-7.249-3.64-11.694c0.257-9.024-13.728-9-13.984,0
			c-0.123,4.317,0.985,8.022,2.662,11.939c1.229,2.868,2.37,4.758,0.955,7.841c-3.732,8.136,8.317,15.248,12.075,7.059
			C68.313,313.755,69.397,309.009,67.956,303.599z"/>
		<path opacity="0.2" fill="#FFFFFF" d="M54.328,8.861c-0.703-8.929-14.692-8.998-13.984,0c0.578,7.352,0.578,14.626,0,21.977
			c-0.708,8.998,13.281,8.929,13.984,0C54.906,23.486,54.906,16.212,54.328,8.861z"/>
		<path opacity="0.2" fill="#FFFFFF" d="M84.709,27.647c-1.328-7.557-2.203-15.173-3.995-22.644
			C78.61-3.764,65.126-0.044,67.229,8.722c1.792,7.471,2.668,15.086,3.995,22.644C72.783,40.237,86.258,36.465,84.709,27.647z"/>
	</g>
</g>
<g id="Layer_4">
	<g>
		<path fill-rule="evenodd" clip-rule="evenodd" d="M80.675,155.023c-0.394,2.006-0.788,4.012-1.233,6.275
			c-0.585,1.335-1.77,2.292-3.973,2.697c-1.232-0.382-2.89-0.896-4.108-1.272c-3.282-2.264-4.341-5.09-4.44-8.51
			c-0.091-3.187-0.395-6.376-0.755-9.547c-0.396-3.496-0.837-6.968-0.293-10.496c0.142-0.92-0.084-1.9-0.166-2.851
			c-0.215-2.494,0.368-4.738,2.18-6.936c1.711-0.575,3.639-1.222,5.684-1.91c0.38,0.654,0.791,1.157,0.98,1.734
			c0.247,0.752,0.355,1.557,0.459,2.347c0.418,3.164,0.576,6.385,1.281,9.482c0.664,2.917,1.894,5.704,3.055,9.069
			c0.56-2.124,0.369-3.76,0.169-5.409c-0.98-8.079-1.941-16.159-2.919-24.238c-0.015-0.124-0.162-0.232-0.458-0.635
			c-0.739,0.444-1.55,0.848-2.268,1.376c-2.602,1.917-5.491,3.251-8.548,4.224c-3.046,0.97-5.968,1.007-8.526-1.346
			c-0.435-0.4-1.067-0.584-1.732-0.935c-0.955,1.75-1.196,3.496-1.288,5.204c-0.299,5.568-0.843,11.107-0.388,16.729
			c0.424,5.232,0.12,10.526,0.054,15.792c-0.084,6.697-0.324,13.393-0.356,20.09c-0.016,3.506,0.346,7.013,0.396,10.522
			c0.039,2.71-0.035,5.432-0.245,8.135c-0.794,10.194-1.372,20.386-1.3,30.623c0.09,12.94,0.2,25.889-0.21,38.819
			c-0.36,11.319-1.066,22.635-2.119,33.929c-0.784,8.411-1.726,16.817-1.699,25.307c0.023,7.333-0.617,14.667-0.802,22.004
			c-0.173,6.871-0.822,13.69-1.664,20.503c-0.307,2.485-0.335,5.005-0.493,7.55c-0.474-0.161-0.758-0.258-1.339-0.455
			c-0.046-1.448-0.254-3.023-0.114-4.568c0.358-3.972,0.879-7.93,1.311-11.897c0.138-1.268,0.242-2.543,0.289-3.818
			c0.429-11.803,0.695-23.615,1.308-35.41c0.447-8.606,1.401-17.184,2.023-25.783c0.611-8.441,1.351-16.884,1.563-25.338
			c0.312-12.45,0.281-24.91,0.252-37.366c-0.02-8.789-0.148-17.598,0.814-26.325c1.091-9.901,0.459-19.778,0.481-29.668
			c0.019-8.455,0.206-16.909,0.297-25.365c0.027-2.553,0.072-5.112-0.052-7.66c-0.404-8.326-0.225-16.596,2.021-24.294
			c-0.337-2.396-0.618-4.396-0.9-6.395c-3.484-12.556-6.521-25.315-12.128-37.214c-1.09-0.763-2.107-1.476-3.372-2.361
			c-2.797,2.877-5.748,5.214-9.585,6.212c-3.831,0.997-7.591,0.743-11.446-0.059c-2.858-1.354-5.363-3.179-7.51-5.673
			c-1.413-1.642-3.435-2.776-5.244-4.054C2.596,65.14,1.453,64.59,0,63.752c0.702-0.566,1.074-1.063,1.558-1.224
			c3.549-1.175,6.583-3.089,9.278-5.709c1.936-1.882,4.13-3.526,6.339-5.092c4.461-3.162,11.919-2.857,16.73,0.562
			c0.738,0.525,1.432,1.11,2.479,1.927c0.383-3.122,0.637-5.729,1.611-8.315c1.645-4.372,4.783-6.588,8.898-7.943
			c1.644-0.542,3.293-1.074,5.066-1.652c0-3.27,0.225-6.304-0.055-9.29c-0.392-4.182-0.053-8.288,0.468-12.416
			c0.396-3.136,0.291-3.492-1.523-7.553c-2.606-1.059-5.379-0.938-7.979-0.262c-1.559,1.363-1.686,2.973-1.643,4.574
			c0.213,7.968-0.006,15.987,2.663,23.688c0.214,0.616-0.008,1.381-0.033,2.252c-0.569-0.34-0.997-0.441-1.065-0.657
			c-1.679-5.333-2.94-10.738-2.744-16.39c0.033-0.951-0.033-1.914-0.155-2.859c-0.579-4.495-0.716-8.936,2.115-13.86
			c0.083-0.068,0.938-0.772,1.983-1.63c1.582-0.082,3.304-0.172,4.908-0.255c4.071,3.889,5.639,8.337,5.031,13.599
			c-0.183,1.586-0.169,3.204-0.461,4.767c-0.357,1.915-0.357,3.76-0.017,5.688c0.302,1.715,0.189,3.501,0.28,5.254
			c0.081,1.566,0.192,3.131,0.301,4.9c5.808,0.938,11.272,0.467,17.06-0.625c0.166-3.004,0.106-5.98-0.502-8.952
			c-1.355-6.611-1.551-13.307-1.424-20.023c0.009-0.473,0.138-0.943,0.266-1.765c0.836-0.784,1.863-1.747,3.048-2.858
			c1.393,0.097,2.781,0.194,3.888,0.271c2.329,2.319,3.095,4.881,3.305,7.646c0.109,1.431,0.016,2.878,0.117,4.31
			c0.223,3.176,0.443,6.356,0.793,9.521c0.35,3.169,0.416,6.302-0.221,10.075c-0.453-1.055-0.77-1.468-0.796-1.9
			c-0.393-6.519-0.736-13.041-1.114-19.562c-0.177-3.056-0.6-4.503-1.919-6.824c-1.657,0.206-3.371,0.418-5.332,0.661
			c-1.176,9.764,0.724,19.318,1.741,28.933c3.136,1.443,6.034-1.048,9.739,0.007c0.563,0.392,1.73,1.206,2.9,2.022
			c1.679,2.768,3.133,5.65,3.499,8.853c0.354,3.095,0.278,6.238,0.394,9.429c0.563-0.166,0.98-0.162,1.075-0.335
			c2.5-4.57,7.065-6.276,11.429-8.221c2.284-1.018,4.758-0.717,7.092-0.312c5.37,0.932,9.746,3.699,13.377,7.748
			c1.024,1.141,2.333,2.027,3.69,3.182c-0.119,0.575-0.274,1.33-0.389,1.888c-0.406,0.388-0.599,0.696-0.872,0.816
			c-4.3,1.888-7.786,4.906-11.332,7.896c-5.586,4.711-12.251,6.56-19.617,6.983c-1.673-1.112-3.368-2.238-5.259-3.495
			c-1.463,3.791-1.355,7.556-1.109,11.319c0.405,6.176-0.478,12.089-3.666,17.482c-1.689,2.856-2.522,6.287-5.445,8.133
			c-0.157,0.658-0.393,1.129-0.356,1.576c0.813,9.83,1.589,19.662,3.187,29.411c0.463,2.827,0.404,5.738,0.851,8.568
			c0.67,4.247,1.423,8.492,2.41,12.674c2.359,10,2.938,20.189,3.661,30.383c0.622,8.757,1.589,17.489,2.404,26.232
			c0.43,4.609,0.94,9.211,1.276,13.826c0.776,10.67,1.524,21.341,2.178,32.019c0.732,11.951,1.326,23.91,2.019,35.864
			c0.545,9.401,1.182,18.798,1.706,28.202c0.16,2.868,0.017,5.751,0.12,8.624c0.326,9.094,0.645,18.19,1.089,27.28
			c0.194,3.983,0.718,7.949,1.018,11.928c0.081,1.074-0.109,2.168-0.177,3.299c-0.524-0.138-0.814-0.214-1.194-0.314
			c-0.123-0.397-0.355-0.834-0.383-1.285c-0.615-9.72-1.292-19.43-1.569-29.173c-0.413-14.521-0.813-29.057-1.841-43.542
			c-0.859-12.111-1.203-24.237-1.918-36.347c-0.536-9.082-1.453-18.141-2.162-27.214c-0.448-5.73-0.746-11.47-1.249-17.193
			c-0.727-8.271-1.613-16.527-2.366-24.795c-0.636-6.995-1.179-13.997-1.766-20.997C84.759,169.695,83.267,162.368,80.675,155.023z
			 M73.156,110.158c4.862-2.477,7.139-6.413,9.347-10.559c2.858-5.365,4.104-10.969,3.933-17.005
			c-0.099-3.493,0.14-6.995,0.189-10.493c0.013-0.891-0.119-1.784-0.179-2.612c-1.847-0.269-3.39-0.494-4.622-0.673
			c-1.931-1.922-1.869-4.014-1.88-5.418c0.991-4.882,4.3-6.757,7.89-8.237c0.686-6.221,0.081-11.965-2.95-17.138
			c-1.836-1.954-4.044-2.113-6.32-1.883c-3.015,0.305-6.012,0.832-9.031,1.018c-4.135,0.255-8.284,0.34-12.427,0.382
			c-4.228,0.042-8.172,1.204-12.027,2.778c-2.142,0.874-3.649,2.374-4.802,4.431c-2.447,4.366-2.855,8.658-0.277,13.061
			c1.958-0.153,3.825-0.299,5.773-0.452c1.508,1.858,2.899,3.573,4.146,5.111c-0.814,2.062-1.546,3.937-2.292,5.807
			c-0.893,2.238-3.474,2.536-4.769,3.792c2.279,6.332,4.55,12.283,6.552,18.325c1.603,4.836,2.91,9.772,4.286,14.681
			c0.708,2.527,1.604,4.858,4.378,5.992c0.696,0.046,1.498,0.193,2.284,0.134C64.643,110.879,68.926,110.507,73.156,110.158z
			 M14.582,63.613c5.125-5.735,8.859-6.396,17.58-3.277c0.355-0.513,0.694-1.004,0.993-1.436c1.501,1.095,2.618,1.91,3.911,2.855
			c0.577-1.062,1.009-1.857,1.351-2.488c-1.218-1.391-2.351-2.511-3.275-3.783c-1.387-1.907-3.278-3.014-5.437-3.701
			c-4.759-1.514-8.961-0.647-12.989,2.474c-4.09,3.169-7.439,7.312-12.218,9.26c2.567,2.507,4.976,5.033,7.575,7.345
			c2.285,2.031,4.887,3.486,8.099,3.715c6.842,0.49,12.488-1.659,16.741-6.994c-0.008-1.477-0.55-2.291-1.937-2.3
			c-2.218,1.305-4.367,2.681-6.617,3.863c-2.236,1.175-4.662,1.303-6.905,0.117C18.794,67.858,16.485,65.949,14.582,63.613z
			 M77.814,161.567c0.249-1.458,0.625-3.147,0.812-4.858c0.584-5.361-0.907-10.45-2.51-15.426
			c-1.182-3.671-2.043-7.342-2.424-11.158c-0.142-1.417-0.383-2.828-0.675-4.222c-0.085-0.406-0.502-0.741-0.968-1.386
			c-1.285,0.408-2.582,0.82-4.09,1.3c-0.239,1.609-0.554,2.988-0.633,4.381c-0.471,8.302,0.805,16.522,1.309,24.775
			c0.3,4.916,2.251,6.512,7.597,7.488C76.631,162.237,77.046,162.003,77.814,161.567z M115.882,56.243
			c-4.839,8.898-14.148,12.88-23.41,9.893c-0.918,0.703-1.914,1.466-2.914,2.233c0.731,2.283,2.482,3.333,4.773,4.524
			c6.04,0.08,11.806-1.876,17.003-5.539c2.076-1.463,3.876-3.313,5.905-4.852c2.01-1.525,4.149-2.88,6.231-4.309
			c-1.949-3.735-4.984-6.247-8.454-8.221c-4.026-2.291-8.411-3.103-12.869-1.662c-2.39,0.773-4.599,2.177-6.789,3.467
			c-0.838,0.494-1.395,1.462-2.77,2.971c2.487-0.701,3.97-1.159,5.475-1.537c2.814-0.706,5.666-1.053,8.491-0.16
			C109.553,53.999,112.509,55.082,115.882,56.243z M113.177,57.501c-4.233-2.334-8.366-4.021-13.201-3.067
			c-2.988,0.589-5.892,1.217-7.873,4.228c0.454,0.615,0.871,1.18,1.379,1.868c1.501-1.048,2.782-1.942,4.174-2.915
			c0.109,0.533,0.4,1.059,0.251,1.384c-0.736,1.621-1.721,3.014-3.603,3.542c-0.522,0.146-0.929,0.705-1.462,1.134
			c1.306,2.469,3.52,2.36,5.472,2.246C104.494,65.559,109.488,62.935,113.177,57.501z M16.953,63.768
			c1.575,1.278,2.879,2.411,4.263,3.438c1.19,0.883,2.579,1.215,4.058,0.952c3.335-0.592,6.183-2.024,8.4-4.688
			C28.333,59.102,22.002,58.516,16.953,63.768z M60.979,119.605c1.363-0.277,2.633-0.441,3.847-0.799
			c3.696-1.088,7.207-2.556,9.89-5.478c0.472-0.514,1.285-0.988,0.535-2.16c-1.452,0.262-2.99,0.539-4.354,0.784
			c-3.591,3.894-6.264,4.356-10.759,0.911c-1.766-0.431-3.401-0.831-5.29-1.293C54.84,115.832,56.92,118.229,60.979,119.605z
			 M91.373,60.986c-1.105-1.823-2.21-2.861-3.713-3.399c-3.087,0.583-3.196,0.513-4.193,1.857c-0.464,0.625-0.454,1.602-0.734,2.719
			C85.79,62.168,88.458,62.675,91.373,60.986z M47.592,62.39c-0.79-1.26-1.198-2.28-1.928-2.949c-0.503-0.461-1.52-0.729-2.185-0.57
			c-1.337,0.32-2.704,0.821-3.832,1.583c-0.628,0.424-0.799,1.523-1.319,2.619C41.439,63.228,44.181,64.208,47.592,62.39z
			 M38.635,67.972c0.763,1.23,1.76,2.06,3.149,1.939c1.071-0.093,2.214-0.343,3.142-0.856c1.307-0.721,1.977-2.026,2.033-3.551
			c0.008-0.226-0.319-0.464-0.553-0.782c-0.563,0.174-1.159,0.356-1.594,0.49c-0.961,0.959-0.214,2.904-2.377,2.944
			c-0.52-0.964-1.094-2.027-1.694-3.14c-0.73,0.061-1.33,0.109-2.105,0.174C38.635,66.228,38.635,67.137,38.635,67.972z
			 M87.508,67.929c1.17-0.892,2.232-1.582,3.14-2.437c0.632-0.594,0.67-1.379-0.099-1.94c-1.951-0.315-2.049,1.693-3.036,2.35
			c-1.853,0.594-2.725-0.515-3.655-1.662c-0.213-0.263-0.868-0.169-1.307-0.237c-0.51,1.651-0.51,1.651,0.446,3.478
			C84.304,67.61,85.706,67.75,87.508,67.929z M49.259,4.585c-2.673-2.079-2.958-2.053-5.036,0
			C45.732,4.585,47.091,4.585,49.259,4.585z M63.887,112.49c0.376,0.554,0.603,0.888,0.936,1.378
			c0.819-0.423,1.533-0.791,3.183-1.643C65.995,112.354,65.07,112.414,63.887,112.49z M74.399,3.408
			c-0.023-0.105-0.014-0.266-0.077-0.302c-0.107-0.063-0.26-0.048-0.393-0.065c0.031,0.162,0.062,0.324,0.093,0.486
			C74.147,3.487,74.273,3.447,74.399,3.408z"/>
		<path fill-rule="evenodd" clip-rule="evenodd" d="M58.737,157.461c2.071-0.833,3.659-0.379,5.234,0.614
			c1.698,1.071,2.925,2.439,3.372,4.432c0.626,2.789,1.242,5.581,1.883,8.368c0.891,3.879,2.118,7.584,3.863,11.232
			c2.627,5.487,3.764,11.47,3.655,17.63c-0.047,2.642-1.07,4.627-3.487,5.776c-1.577,0.75-3.135,1.624-4.8,2.086
			c-3.91,1.084-7.512-0.608-8.892-4.434c-0.96-2.663-1.807-5.563-1.785-8.349c0.07-8.487-1.288-16.833-1.969-25.244
			C55.449,165.101,56.915,161.178,58.737,157.461z M74.707,202.097c0.092-0.925,0.276-1.867,0.265-2.807
			c-0.071-6.141-1.352-12.039-3.959-17.592c-1.366-2.908-2.481-5.861-3.117-9.007c-0.569-2.808-1.227-5.597-1.797-8.405
			c-0.465-2.29-1.37-4.233-3.861-5.316c-0.763,0.13-1.676,0.286-2.364,0.403c-3.14,5.088-2.485,10.37-1.872,15.6
			c0.632,5.386,1.229,10.756,1.331,16.193c0.059,3.166,0.607,6.332,1.085,9.477c0.319,2.106,1.254,3.949,3.29,5.154
			C68.215,207.382,71.606,205.384,74.707,202.097z"/>
		<path fill-rule="evenodd" clip-rule="evenodd" d="M68.708,253.965c4.657,0.209,9.508-0.589,14.222,1.371
			c0.99,0.684,1.694,1.721,1.723,3.096c0.129,6.258,0.053,12.486-3.485,18.033c-0.682,1.071-1.253,2.342-2.214,3.081
			c-2.891,2.222-5.8,4.498-8.98,6.247c-3.716,2.044-7.479,0.503-8.932-3.512c-0.801-2.214-1.143-4.648-1.342-7.011
			c-0.254-3.017-0.347-6.077-0.154-9.096c0.21-3.278-0.359-6.348-1.483-9.372c-0.84-2.259-1.42-4.573-1.393-7.003
			c0.025-2.21,0.775-4.031,2.721-5.173C63.467,246.471,64.482,247.491,68.708,253.965z M82.671,257.336
			c-1.178-1.325-2.841-1.42-4.395-1.523c-2.531-0.168-5.077-0.098-7.617-0.121c-1.079-0.01-2.158-0.001-3.282-0.001
			c-2.006-3.524-3.146-7.619-7.718-9.006c-0.354,0.802-0.929,1.604-1.046,2.468c-0.282,2.082,0.14,4.108,0.9,6.076
			c1.45,3.755,1.997,7.586,1.811,11.673c-0.194,4.264,0.293,8.571,0.656,12.844c0.181,2.124,1.066,4.008,3.829,5.196
			c0.981-0.096,2.53-0.247,3.364-0.328c2.73-1.828,4.887-3.176,6.93-4.68c1.134-0.836,2.345-1.77,3.06-2.94
			c3.617-5.923,4.399-12.451,3.721-19.233C82.869,257.612,82.745,257.477,82.671,257.336z"/>
		<path fill-rule="evenodd" clip-rule="evenodd" d="M62.308,230.54c0.448-0.891,0.646-1.525,1.03-2.012
			c3.176-4.025,5.456-8.593,8.013-13c2.107-3.63,5.199-6.359,8.877-8.581c2.323,2.263,2.898,5.08,3.144,7.925
			c0.467,5.397,0.787,10.807,1.081,16.217c0.121,2.225,0.13,4.469-0.004,6.693c-0.199,3.297-1.296,6.226-4.074,8.329
			c-2.345,0.795-4.755,0.414-7.091,0.076c-1.348-0.195-2.899-0.773-3.835-1.704C65.521,240.576,63.151,235.817,62.308,230.54z
			 M79.832,209.334c-3.392,1.761-5.544,4.156-7.083,6.926c-2.619,4.715-5.031,9.54-8.699,13.761
			c0.777,5.893,3.38,10.558,7.593,14.344c2.404,0.327,4.593,0.624,6.457,0.877c3.093-0.851,4.04-3.095,4.334-5.501
			c0.345-2.824,0.424-5.713,0.286-8.558c-0.262-5.394-0.78-10.775-1.155-16.164C81.432,213.104,80.995,211.315,79.832,209.334z"/>
		<path fill-rule="evenodd" clip-rule="evenodd" d="M74.895,315.533c2.329-0.348,4.671-0.698,7.461-1.116
			c0.389-0.23,1.199-0.709,2.044-1.209c1.139,0.1,2.285,0.044,3.341,0.326c2.691,0.717,4.525,2.929,4.403,5.546
			c-0.237,5.063-0.657,10.119-0.949,14.403c-2.001,4.943-6.363,5.549-9.696,7.659c-2.469,0.313-4.99,0.632-7.781,0.985
			c-3.094-0.893-5.005-3.098-4.764-6.555c0.435-6.218,1.536-12.327,4.387-17.977C73.621,317.042,74.095,316.583,74.895,315.533z
			 M90.332,318.255c-1.006-1.952-2.21-2.93-3.829-3.37c-0.268-0.073-0.594,0.062-0.892,0.102c-0.365,0.49-0.731,0.979-1.142,1.532
			c-2.857-0.009-5.741-0.751-8.272,0.267c-1.838,1.398-2.492,3.164-3.165,4.985c-1.508,4.085-1.839,8.396-2.578,12.624
			c-0.447,2.553,0.318,4.729,3.026,6.155c2.017-0.108,4.232-0.226,6.615-0.355c2.639-2.361,7.002-2.167,8.902-5.763
			C90.767,328.937,89.329,323.301,90.332,318.255z"/>
		<path fill-rule="evenodd" clip-rule="evenodd" d="M65.055,363.647c0.285-0.831,0.45-1.981,1.021-2.873
			c3.683-5.752,8.355-10.418,14.863-12.934c2.582-0.998,3.066-0.996,7.196-0.455c1.002,3.215,2.03,6.516,2.996,9.614
			c-1.433,3.549-1.665,7.214-4.606,9.822c-5.095,0.776-10.162,2.264-15.488,1.251C68.411,367.573,66.088,366.794,65.055,363.647z
			 M66.668,364.18c1.134,0.837,1.914,1.676,2.875,2.07c2.563,1.05,5.275,1.161,8.002,0.75c1.888-0.285,3.782-0.552,5.649-0.942
			c1.069-0.223,2.09-0.675,3.294-1.079c0.93-2.562,1.847-5.089,2.825-7.783c-0.354-1.313-0.718-2.684-1.093-4.051
			c-0.415-1.509-0.839-3.015-1.346-4.832c-4.011-0.113-7.608,1.389-10.485,3.774C72.545,355.27,68.212,358.289,66.668,364.18z"/>
		<path fill-rule="evenodd" clip-rule="evenodd" d="M52.659,335.693c0.746-1.036,1.185-1.696,1.679-2.311
			c0.294-0.365,0.677-0.658,1.076-1.035c1.926-0.531,3.875-1.259,6.057-0.379c0.194,0.575,0.518,1.153,0.571,1.755
			c0.254,2.898,1.346,5.513,2.492,8.14c0.755,1.731,1.37,3.542,1.84,5.37c0.816,3.174,0.239,5.978-2.927,8.2
			c-2.209,0-4.71,0-7.122,0c-3.1-2.426-4.402-5.403-4.08-9.227C52.537,342.747,52.531,339.262,52.659,335.693z M55.268,334.35
			c-2.171,5.476-0.884,10.763-1.408,15.949c0.981,1.372,1.886,2.639,2.683,3.754c2.685,0.66,4.996,0.86,7.077-0.659
			c1.79-3.201,1.874-3.223,1.186-5.795c-0.531-1.983-1.31-3.9-1.975-5.848c-0.664-1.944-1.338-3.885-1.978-5.836
			c-0.289-0.883-0.506-1.789-0.808-2.869c-0.938,0.137-1.712,0.176-2.442,0.375C56.86,333.627,56.16,333.988,55.268,334.35z"/>
		<path fill-rule="evenodd" clip-rule="evenodd" d="M79.289,309.277c-0.638-0.972-1.497-2.281-2.138-3.257
			c-1.449-6.656-0.691-12.706,1.714-18.579c0.542-1.325,0.602-1.3,3.126-2.847c3.475,1.93,5.831,4.818,6.232,8.853
			c0.327,3.296,0.268,6.651,0.095,9.966c-0.112,2.152-1.411,3.841-3.233,5.045C83.445,309.541,81.745,310.342,79.289,309.277z
			 M81.26,308.353c3.487-0.629,4.958-2.709,5.512-5.897c0.645-3.714,0.226-7.31-0.753-10.843c-0.641-2.313-2.12-4.121-4.221-5.147
			c-0.571,0.388-0.951,0.504-1.062,0.744c-1.811,3.938-2.892,8.068-2.806,12.417c0.034,1.735,0.393,3.474,0.725,5.188
			C78.934,306.254,79.617,307.5,81.26,308.353z"/>
		<path fill-rule="evenodd" clip-rule="evenodd" d="M60.583,325.061c-0.266,0.362-0.533,0.724-0.808,1.098
			c-0.55-0.081-1.086-0.022-1.463-0.239c-1.815-1.046-2.604-2.826-2.81-4.763c-0.42-3.953-0.867-7.924-0.911-11.892
			c-0.086-7.798,0.697-15.606-0.428-23.39c-0.129-0.898-0.206-1.947,1.004-2.418c0.197,0.146,0.566,0.279,0.592,0.46
			c0.663,4.73,0.975,9.456,0.806,14.259c-0.24,6.828-1.126,13.671-0.006,20.51c0.336,2.053,0.538,4.12,2.238,5.826
			c0.468,0.124,1.068,0.282,1.668,0.44L60.583,325.061z"/>
		<path fill-rule="evenodd" clip-rule="evenodd" d="M60.464,324.952c0.533-2.917,2.194-5.26,3.966-7.502
			c2.311-2.924,3.754-6.267,5.074-9.568c0.222-3.297-1.503-5.948-2.253-8.851c-0.752-2.91-2.644-5.103-4.416-7.311
			c-1.857-2.313-4.132-4.291-6.508-6.701c0.874-0.042,1.439-0.251,1.707-0.055c6.862,5.013,11.013,11.813,12.935,20.014
			c0.364,1.554,0.36,3.172-0.413,4.68c-1.018,1.986-1.903,4.052-3.054,5.956c-1.809,2.994-3.775,5.895-5.728,8.8
			c-0.224,0.333-0.787,0.438-1.193,0.649C60.583,325.061,60.464,324.952,60.464,324.952z"/>
		<path fill-rule="evenodd" clip-rule="evenodd" d="M59.303,128.691c0.365,0.185,0.888,0.272,1.072,0.57
			c3.497,5.638,4.004,11.623,1.871,17.844c-0.475,1.387-1.255,2.643-3.579,2.187c-0.768-1.143-1.721-2.565-2.775-4.134
			c-0.272-3.874-0.706-7.834-0.762-11.799c-0.029-2.024,0.558-4.072,1.001-6.08c0.158-0.716,0.578-1.482,1.769-1.582
			c0,0.418,0.103,0.822-0.025,1.132c-0.179,0.429-0.718,0.76-0.779,1.18c-0.943,6.501-1.396,12.973,1.686,19.119
			c0.126,0.251,0.471,0.392,0.714,0.584c2.122-2.124,2.297-3.57,2.139-9.044C61.538,135.211,60.496,132.161,59.303,128.691z"/>
		<path fill-rule="evenodd" clip-rule="evenodd" d="M78.669,182.264c2.223-3.611,2.223-3.611,0.795-9.89
			c-0.697-0.947-1.535-2.088-2.467-3.353c0.48-0.111,0.889-0.286,1.291-0.271c0.28,0.01,0.58,0.243,0.821,0.438
			c2.35,1.898,2.569,4.618,2.73,7.323c0.153,2.565,0.169,5.129-2.615,6.858c-0.607-0.139-1.347-0.307-2.132-0.487
			c-1.973-3.52-3.665-6.954-1.838-11.4c1.577,1.298,0.444,2.602,0.67,3.683c0.226,1.08,0.389,2.19,0.778,3.212
			C77.134,179.511,77.792,180.561,78.669,182.264z"/>
		<path fill-rule="evenodd" clip-rule="evenodd" d="M52.884,371.713c-2.16-0.705-2.927-1.844-3.385-3.346
			c0.043-1.868,1.535-2.969,2.389-4.411c1.985-0.775,3.764-1.926,6.204-1.193c0.612,1.099,1.292,2.325,1.978,3.558
			C59.536,370.895,55.793,370.796,52.884,371.713z M57.346,364.576c-2.454-0.511-4.117,0.192-5.328,1.902
			c-0.427,0.603-0.613,1.376-0.927,2.112c0.523,0.651,0.913,1.137,1.399,1.741c2.505-0.75,5.06-0.673,5.74-3.787
			C57.965,365.955,57.706,365.379,57.346,364.576z"/>
		<path fill-rule="evenodd" clip-rule="evenodd" d="M62.238,213.502c0.172,2.322,1.212,4.664-0.597,6.728
			c-3.02,0.194-3.02,0.194-5.06-2.496c0.452-2.658,0.923-5.428,1.452-8.541c0.619,0.263,1.411,0.361,1.788,0.808
			C60.728,211.076,61.439,212.315,62.238,213.502z M60.203,212.52c-1.761,1.987-1.898,3.504-2.305,5.062
			c0.787,0.601,1.476,1.128,2.319,1.772C61.809,217.125,60.528,215.292,60.203,212.52z"/>
		<path fill-rule="evenodd" clip-rule="evenodd" d="M59.155,78.385c-1.08,3.896-0.9,7.837-0.499,11.95
			c0.802,0.084,1.536,0.161,2.272,0.238c1.362,4.949,0.511,7.721-2.792,9.051c-1.295-0.845-1.128-2.148-1.054-3.419
			c0.11-1.89,0.573-3.837,0.27-5.657c-0.645-3.872,0.065-7.59,0.515-11.305c0.503-0.327,0.901-0.585,1.298-0.846
			C59.164,78.395,59.155,78.385,59.155,78.385z M60.349,94.119c-1.651,0.26-1.651,0.26-1.099,2.778
			C59.677,95.817,59.992,95.023,60.349,94.119z"/>
		<path fill-rule="evenodd" clip-rule="evenodd" d="M71.603,79.957c0.289,0.062,0.578,0.124,1.031,0.221
			c0.308,1.469,0.63,3.008,0.988,4.717c-0.19,1.419-0.4,2.989-0.623,4.655c1.02,2.627,1.882,5.38,0.913,8.266
			c-0.218,0.65-0.944,1.129-1.551,1.817c-0.809-0.588-1.429-1.039-2.084-1.515c-0.726-3.514-1.68-6.954,1.948-9.792
			c-0.176-2.784-0.356-5.625-0.535-8.467L71.603,79.957z M71.385,92.402c-0.062,1.622-1.022,3.394,0.876,4.769
			C72.863,94.464,72.863,94.464,71.385,92.402z"/>
		<path fill-rule="evenodd" clip-rule="evenodd" d="M60.004,66.608c-0.173,0.92-0.451,1.835-0.501,2.762
			c-0.161,3-0.238,6.004-0.347,9.011c0,0,0.008,0.014,0.009,0.016c-1.089-3.54-0.28-7.08,0.06-10.613
			c0.037-0.389,0.546-0.733,0.836-1.096L60.004,66.608z"/>
		<path fill-rule="evenodd" clip-rule="evenodd" d="M71.689,79.859c-0.198-1.37-0.356-2.747-0.608-4.106
			c-0.135-0.729-0.431-1.428-0.654-2.14l-0.009,0.006c0.415,0.179,0.829,0.357,1.355,0.582c0.237,1.895,0.662,3.812-0.156,5.74
			C71.603,79.957,71.689,79.859,71.689,79.859z"/>
		<path fill-rule="evenodd" clip-rule="evenodd" d="M60.061,66.687c-0.148-1.864-0.295-3.729-0.443-5.594
			c0.897,1.806,0.779,3.635,0.37,5.491C60.004,66.608,60.061,66.687,60.061,66.687z"/>
		<path fill-rule="evenodd" clip-rule="evenodd" d="M70.427,73.613c0.01-2.019,0.142-4.056-0.843-5.935l-0.048,0.067
			c0.41,0.234,0.819,0.469,1.529,0.875c-0.207,1.6-0.427,3.297-0.647,4.997C70.418,73.619,70.427,73.613,70.427,73.613z"/>
		<path fill-rule="evenodd" clip-rule="evenodd" d="M68.664,59.503c0.151,1.412,0.192,1.796,0.233,2.181
			c-0.078,0.004-0.156,0.009-0.233,0.014C68.664,61.313,68.664,60.928,68.664,59.503z"/>
		<path fill-rule="evenodd" clip-rule="evenodd" d="M69.584,67.677c-0.038-0.705-0.076-1.412-0.136-2.537
			c0.849,1.106,0.357,1.835,0.106,2.579C69.537,67.745,69.584,67.677,69.584,67.677z"/>
	</g>
</g>
</svg>
