<svg xmlns="http://www.w3.org/2000/svg" viewBox="0 0 142.58 518.331" enable-background="new 0 0 142.58 518.331"><g fill="#fff"><path opacity=".2" d="M49.955 90.046c-9.662 0-9.662 14.985 0 14.985s9.662-14.985 0-14.985z"/><path opacity=".2" d="M41.275 44.808c-1.128-1.511-2.24-2.772-3.959-3.659-1.263-.652-2.623-1.157-4.014-1.449-3.993-.838-8.083 1.115-9.215 5.233-.91 3.309.75 7.298 3.899 8.767.137.789.401 1.565.852 2.334.981 1.674 2.604 2.928 4.477 3.443 3.68 1.013 8.469-1.215 9.215-5.233.576-3.105.757-6.743-1.255-9.436z"/><path opacity=".2" d="M126.431 38.939c-1.059-3.851-5.311-6.429-9.215-5.233-7.646 2.342-12.652 8.459-12.824 16.548-.087 4.084 3.474 7.492 7.491 7.492 4.149 0 7.404-3.411 7.491-7.492l.012-.278c.026-.208.063-.461.108-.634l.02-.085.184-.291.149-.161.044-.048.389-.232c.208-.088.687-.3.918-.371 3.902-1.194 6.34-5.193 5.233-9.215z"/><path opacity=".2" d="M53.951 128.007c-9.662 0-9.662 14.985 0 14.985 9.661 0 9.661-14.985 0-14.985z"/><path opacity=".2" d="M45.294 110.692c-9.662 0-9.662 14.985 0 14.985 9.661 0 9.661-14.985 0-14.985z"/><path opacity=".2" d="M60.609 151.983c-9.662 0-9.662 14.985 0 14.985 9.662-.001 9.662-14.985 0-14.985z"/><path opacity=".2" d="M43.962 157.31c-9.662 0-9.662 14.985 0 14.985s9.662-14.985 0-14.985z"/><path opacity=".2" d="M61.275 174.293c-5.797 0-5.797 8.991 0 8.991s5.797-8.991 0-8.991z"/><path opacity=".2" d="M47.329 182.543c-8.857-5.323-16.886 8.501-8.066 13.802 3.161 1.899 2.294 5.497.463 9.044-4.721 9.143 9.07 17.228 13.799 8.068 5.609-10.861 5.191-24.069-6.196-30.914z"/><path opacity=".2" d="M68.531 222.713c-6.667-5.793-13.482-.962-16.245 5.799-1.825 4.467-2.259 10.092-2.331 14.877-.028 1.878.483 3.409 1.332 4.602-.526.896-1.054 1.789-1.573 2.686-3.66 6.324 2.183 12.191 7.741 11.931.381.057.767.095 1.156.095 1.778 0 3.382-.596 4.765-1.615l.466-.243c.894-.457 1.689-1.134 2.416-1.815 2.294-2.149 2.833-5.516 1.83-8.354 4.891-9.259 8.932-20.587.443-27.963z"/><path opacity=".2" d="M39.301 224.741c-6.021 0-8.518 5.453-7.504 9.99-1.014 4.536 1.483 9.99 7.504 9.99 6.021 0 8.518-5.453 7.504-9.99 1.014-4.536-1.483-9.99-7.504-9.99z"/><path opacity=".2" d="M56.855 303.29c-4.347-9.992-6.301-20.435-6.9-31.264-.566-10.248-16.55-10.304-15.981 0 .765 13.855 3.544 26.603 9.082 39.332 1.739 3.997 7.514 4.87 10.933 2.867 4.084-2.393 4.604-6.94 2.866-10.935z"/><path opacity=".2" d="M72.31 287.884c-.551-3.824-1.004-6.921-1.047-11.195-.044-4.356-3.602-7.992-7.991-7.992-4.323 0-8.035 3.635-7.991 7.992.052 5.192.879 10.315 1.617 15.444.622 4.32 6.034 6.626 9.83 5.581 4.591-1.262 6.203-5.522 5.582-9.83z"/><path opacity=".2" d="M71.645 353.15c-1.794-10.944-1.247-22.154-2.379-33.173-.445-4.331-3.298-7.992-7.991-7.992-4.018 0-8.436 3.65-7.991 7.992 1.281 12.474.915 25.016 2.949 37.423.706 4.304 5.972 6.643 9.83 5.581 4.529-1.246 6.285-5.535 5.582-9.831z"/><path opacity=".2" d="M48.946 327.646c-2.71-3.419-8.487-2.814-11.3 0-2.741 2.741-2.801 6.291-1.246 9.361-2.923 1.748-4.331 5.949-3.472 9.071 1.262 4.587 5.522 6.207 9.83 5.581 4.967-.72 9.412-4.687 10.408-9.66 1.09-5.441-.89-10.151-4.22-14.353z"/><path opacity=".2" d="M69.266 400.561c-6.377 0-8.803 6.118-7.288 10.784-2.027-.405-4.099-.616-6.144-.539 3.917-8.054 6.102-17.751 5.31-26.898 1.168 2.294 3.427 4 6.79 4 10.306 0 10.306-15.984 0-15.984-4.566 0-7.105 3.138-7.625 6.634-1.138-4.983-3.292-9.656-6.702-13.618-6.734-7.825-17.986 3.533-11.3 11.303 2.014 2.34 2.988 5.418 3.246 8.767-3.338.644-6.252 3.159-6.252 7.559v17.316c0 3.159 1.738 5.536 4.078 6.819-2.062 2.571-3.25 5.754-3.411 9.178-.241 5.138 2.857 9.751 7.014 12.454 4.767 3.1 11.203 2.703 16.417 1.232 2.603-.734 4.953-2.888 5.581-5.581.505-2.169.532-3.901.047-6.076l-.398-.943c.412-.956.64-2.004.636-3.097-.008-2.293-.289-4.59-.951-6.787-.063-.21-.149-.416-.229-.622.379.049.768.083 1.18.083 10.307-.001 10.307-15.984.001-15.984z"/><path opacity=".2" d="M76.166 448.474c-2.048-4.767-9.294-4.999-12.55-1.617-3.03 3.148-5.438 6.645-6.716 10.853-.46 1.514-.386 3.074.083 4.504-.394.494-.727 1.056-1 1.677.006-.728-.091-1.462-.32-2.185-1.378-4.334-2.021-8.83-2.663-13.32-.618-4.32-6.037-6.625-9.83-5.581-4.592 1.263-6.197 5.522-5.581 9.831.643 4.49 1.286 8.985 2.663 13.32 1.319 4.148 5.506 6.771 9.83 5.581 2.347-.646 4.275-2.435 5.239-4.629-.04 3.514 2.193 7.333 5.827 7.959 7.782 1.34 14.544-1.127 17.333-8.947 2.011-5.64-.078-12.238-2.315-17.446z"/><path opacity=".2" d="M73.881 482.545c-2.005-1.836-4.843-2.825-7.405-1.78-8.759 3.571-18.273 10.33-21.562 19.567-1.371 3.849 1.514 9.085 5.581 9.831 6.003 1.101 11.186-.333 16.202-3.732 4.137-2.805 7.525-6.666 11.929-9.06 7.923-4.309 2.74-15.413-4.745-14.826z"/><path opacity=".2" d="M51.953 473.986c-5.797 0-5.797 8.991 0 8.991s5.797-8.991 0-8.991z"/><path opacity=".2" d="M77.34 5.771c-2.25-8.728-15.737-5.023-13.484 3.718 1.212 4.704 2.858 9.207 2.414 14.124-.343 3.803 3.44 6.993 6.992 6.993 4.071 0 6.649-3.198 6.992-6.993.552-6.116-1.408-11.997-2.914-17.842z"/><path opacity=".2" d="M60.942 33.603c-.53-4.396-1.719-8.107-3.522-12.142-1.302-2.913-3.379-5.935-3.803-9.168-.494-3.779-2.805-6.993-6.991-6.993-3.435 0-7.488 3.203-6.992 6.993.555 4.232 1.742 7.79 3.522 11.667 1.414 3.082 3.388 6.206 3.803 9.643.456 3.783 2.835 6.993 6.992 6.993 3.465 0 7.449-3.199 6.991-6.993z"/></g><path d="M66.503 1.825c.456-1.184 1.41-1.645 2.841-1.825.37.181.956.411 1.477.743.393.251.7.635.875.8 1.834 9.243 4.571 17.994 7.542 26.867 1.439-.262 2.676-.46 3.9-.717 2.674-.562 5.048.06 7.223 1.675 4.493 3.336 9.033 6.615 11.767 11.721.126.236.47.355.73.541 1.431-.914 1.164-2.557 1.539-3.87 1.32-4.629 3.801-8.417 7.71-11.218 1.288-.924 2.63-1.896 4.1-2.416 4.355-1.54 8.741-3.08 13.465-3.021 3.043.037 6.003-.345 9.041-2.685 0 1.737.117 2.506-.019 3.227-.946 5.015-1.912 10.028-2.936 15.027-1.109 5.41-3.705 9.816-8.69 12.574-.835.461-1.64 1.013-2.363 1.634-3.813 3.282-8.107 5.649-12.959 7.01-.733.205-1.409.607-2.263.985.465.496.717.995 1.102 1.139 8.557 3.18 15.292 9.093 22.195 14.754.617.505 1.146 1.132 1.797 1.583 3.881 2.692 5.591 6.876 7.523 10.898.648 1.347.648 2.783-.036 4.433l-3.091 2.536-2.857 4.677c-3.313 2.794-6.902 3.666-10.882 3.764-4.8.117-9.536-.035-14.255-1.009-3.874-.8-7.409-2.041-9.469-6.145-.915.651-1.52 1.067-2.11 1.502-4.364 3.218-8.564 6.697-13.152 9.554-2.35 1.463-5.351 2.002-8.132 2.622-4.045.902-7.467 2.685-10.246 5.985 0 5.189-.211 10.449.051 15.686.358 7.172 1.119 14.324 1.628 21.491.485 6.844.866 13.695 1.299 20.541.08 1.274.299 2.549.271 3.819-.227 9.912.584 19.782 1.014 29.67.453 10.38 1.084 20.737 2.203 31.061.515 4.758 1.407 9.474 1.991 14.226.622 5.068 1.066 10.158 1.619 15.235.554 5.079 1.313 10.141 1.678 15.233.41 5.731.641 11.486.665 17.232.049 11.822-.332 23.649-.083 35.464.242 11.489 1.045 22.966 1.612 34.448.441 8.931.87 17.863 1.352 26.792.517 9.564.76 19.157 1.736 28.675.851 8.286.873 16.581 1.303 24.869.19 3.655-.12 7.336-.123 11.005-.013 16.288-.006 32.576.022 48.864.004 2.228.203 4.454.245 6.683.013.673-.36 1.185-1.26 1.176-.142-.394-.407-.804-.424-1.223-.472-11.97-.986-23.939-.535-35.925.09-2.392-.058-4.792-.052-7.188.006-2.713-.095-5.44.124-8.138.62-7.656.613-15.315.188-22.97-.38-6.85-1.072-13.683-1.45-20.534-.8-14.51-1.45-29.028-2.235-43.538-.311-5.739-.911-11.464-1.208-17.204-.247-4.782-.195-9.58-.362-14.369-.289-8.296-.822-16.589-.917-24.889-.081-7.018.501-14.044.442-21.063-.056-6.537-.39-13.086-.93-19.603-.658-7.953-1.626-15.881-2.525-23.814-.503-4.438-1.206-8.852-1.701-13.291-.778-6.98-1.58-13.96-2.148-20.959-.697-8.589-1.259-17.191-1.697-25.799-.259-5.102-.027-10.229-.259-15.334-.404-8.926-.972-17.846-1.516-26.766-.35-5.739-.86-11.469-1.149-17.211-.393-7.812-.514-15.639-.998-23.444-.316-5.089-1.199-10.14-1.584-15.227-.337-4.451-.31-8.926-.487-13.391-.101-2.546-.326-5.088-.421-7.637-.032-.862.165-1.736.272-2.734.546.317.929.411.965.579.331 1.555.728 3.113.858 4.69.145 1.746.282 3.559-.019 5.263-.855 4.834.471 9.542.587 14.313.01.422.32.837.504 1.291 2.879-.46 5.668-1.017 8.485-1.324 3.673-.402 6.575-2.277 9.371-4.454 2.518-1.961 5.049-3.903 7.577-5.85 3.15-2.425 6.303-4.847 9.258-7.53l5.727-2.613c3.269.795 6.193 2.104 7.771 5.786l-2.494 1.951c-3.392-.142-4.333-2.644-5.48-5.128-1.626.039-3.089.513-4.643 1.191-3.253 3.925-7.714 6.481-11.826 9.48-1.287.938-2.655 1.806-3.782 2.913-3.306 3.247-7.202 5.193-11.78 5.829-1.423.198-2.861.375-4.248.73-1.202.308-2.342.857-3.534 1.309-.637 2.983.538 5.52.833 8.558 1.122-.598 1.914-1.008 2.695-1.439 2.8-1.549 5.603-2.957 8.894-3.341 3.195-.375 6.154-1.624 8.812-3.52 4.029-2.872 8.189-5.573 11.519-9.315.405-.455.985-.753 1.756-1.327.778.87 1.587 1.579 2.15 2.447 1.191 1.834 2.78 3.158 4.867 3.646 6.691 1.564 13.404 2.844 20.337 1.505 2.451-.474 4.548-1.489 6.274-3.21.447-.445.455-1.331.798-2.45-7.749 1.185-15.065 1.254-22.199-.774-4.062-1.154-8.402-1.705-12.603-4.65 1.12-.199 1.67-.472 2.096-.342 1.977.606 3.944 1.26 5.868 2.015 4.95 1.944 10.182 2.55 15.768 3.368 3.564-.425 7.527-.807 11.457-1.405 2.253-.343 4.342-1.188 5.194-3.893-1.789-4.692-4.04-9.164-8.307-12.411-4.573-3.481-8.885-7.315-13.55-10.661-2.564-1.839-5.525-3.231-8.474-4.404-5.367-2.135-10.282-5.113-15.324-7.838-6.454-3.489-12.648-7.466-19.146-10.864-4.226-2.211-8.747-3.896-13.237-5.541-1.578-.578-3.458-.334-4.973-.447-3.331 1.549-5.072 4.302-6.737 6.985-1.763 2.84-3.026 5.914-3.493 9.338-.408 2.985-1.033 6.021-2.12 8.817-2.83 7.273-3.427 14.935-4.062 22.539-.586 7.014-1.571 13.952-2.616 20.896-.88 5.848-1.612 11.695-1.583 17.638.014 3.014-.306 6.082-.91 9.037-2.185 10.689-3.053 21.466-2.917 32.365.09 7.18-.104 14.366-.28 21.546-.047 1.903-.339 3.834-.785 5.687-1.32 5.478-1.667 11.045-1.735 16.642-.103 8.467-.216 16.936-.199 25.403.014 6.55.266 13.098.326 19.648.043 4.629.043 9.264-.117 13.89-.377 10.868-.121 21.711.656 32.56.89 12.425 1.32 24.875 1.419 37.335.019 2.39.228 4.782.441 7.166 1.31 14.647 2.234 29.324 1.569 44.021-.396 8.772-1.06 17.537-.829 26.316.381 14.521.946 29.038 1.481 43.554.417 11.329 1.05 22.652 1.314 33.984.185 7.974-.501 15.967.575 23.925.095.701.178 1.645-1.193 1.808-.148-.328-.43-.693-.472-1.084-.858-8.108-1.014-16.224-.497-24.371.202-3.171-.123-6.379-.271-9.567-.443-9.571-.915-19.141-1.379-28.712-.92-18.989-1.339-37.988-.9-56.997.177-7.662 1.132-15.304.723-22.98-.457-8.607-.925-17.217-1.562-25.812-.65-8.764-1.134-17.523-.972-26.32.071-3.825-.193-7.665-.463-11.487-.845-11.949-1.785-23.892-1.568-35.886.078-4.312.372-8.624.335-12.934-.083-9.584-.338-19.167-.468-28.751-.043-3.194.098-6.389.115-9.583.006-1.114.181-2.351-.225-3.321-1.663-3.959-1.61-8.132-1.64-12.257-.06-8.172-.58-16.272-2.419-24.263-.355-1.542-.403-3.165-.511-4.755-.238-3.503-.353-7.016-.652-10.514-.248-2.903-.128-5.732.833-8.506.311-.898.757-1.846.715-2.751-.32-6.853.91-13.73-.396-20.736l1.562-4.794c-.409-3.05-2.747-5.608-1.748-9.341l1.877-4.779c-2.7-7.268-2.428-14.995-1.378-22.502l3.029-3.73c-.096-1.223-.014-2.533-.332-3.736-.676-2.564-.423-5.044.089-7.583.472-2.342.835-4.719 1.051-7.097.277-3.042 1.466-5.49 3.931-7.344 1.13-.849 2.142-1.855 3.205-2.79.851.736.135 1.278-.196 1.66-.935 1.079-1.969 2.078-3.009 3.061-1.457 1.377-2.238 3.125-2.59 5.022-.61 3.288-1.137 6.596-1.551 9.914-.174 1.393-.015 2.837.074 4.252.119 1.89.318 3.774.47 5.523l-2.924 3.46c-1.406 7.609-.365 15.413 1.672 22.864-.931 2.11-1.701 3.857-2.569 5.828l2.673 7.607-1.767 4.604c.126 1.386.171 2.99.437 4.555.408 2.392.374 4.734.035 7.144-.263 1.872-.124 3.822.021 5.724.173 2.266.03 4.404-.849 6.566-.584 1.437-.906 3.11-.843 4.657.241 5.901.561 11.804 1.105 17.684.292 3.162 1.185 6.264 1.645 9.416.386 2.649.537 5.331.864 8.733.547-1.105.929-1.59 1.03-2.129.475-2.509.81-5.045 1.311-7.548.883-4.413 1.07-8.863 1.044-13.35-.046-7.823-.063-15.649.087-23.471.067-3.506.463-7.017.894-10.504.509-4.118 1.137-8.225 1.864-12.31.59-3.314.953-6.617 1.001-9.993.116-8.159 1.224-16.221 2.706-24.238.377-2.039.647-4.101.866-6.164.725-6.821 1.3-13.66 2.155-20.462.315-2.504 1.252-4.932 1.901-7.394.274-1.042.536-2.086.874-3.405-.743 0-1.203-.102-1.598.015-5.893 1.751-11.681 1.137-17.396-.781-1.813-.609-3.592-1.339-5.335-2.127-2.078-.937-3.9-2.295-4.99-4.326-1.883-3.509-3.879-6.993-5.353-10.677-2.152-5.376-4.533-10.549-8.407-14.94-.685-.765-1.014-1.855-1.492-2.77.506-.341.808-.704 1.005-.654 3.547.89 6.937.24 10.328-.851 2.739-.88 5.552-1.278 8.459-1.429 3.762-.196 7.278.561 10.827 1.585 5.965 1.725 9.895 5.576 12.216 11.233.415 1.013.94 1.978 1.506 3.157l6.808-1.924c.947-1.617.227-3.012-.201-4.299-1.311-3.94-2.774-7.856-5.236-11.243-2.388-3.286-3.991-6.856-4.756-11.067 1.775-2.533 4.037-4.15 7.16-3.35 5.689 8.552 9.752 17.547 13.76 26.57.384.865.783 1.723 1.291 2.84 2.705-.725 5.118-1.701 7.409-3.308-2.623-9.159-5.829-17.995-8.139-27.054 1.311-1.553 2.328-2.956 4.221-3.278l.001 1.98c1.468.111 2.581-.092 3.228-1.822h-3.384zm-62.749 25.191c3.55 4.65 5.842 9.332 7.612 14.321.955 2.694 2.283 5.266 3.584 7.82 1.872 3.676 4.486 6.573 8.693 7.648.765.195 1.466.626 2.218.89 4.116 1.438 8.371 1.928 12.703 1.694 1.156-.062 2.469-.066 3.269-1.399-1.954-.638-3.827-1.071-5.547-1.846-4.148-1.867-7.694-4.511-9.943-8.601-1.21-2.199-1.746-4.437-.098-6.89 1.721-.106 3.401.379 5.057.9 1.805.568 3.698 1.023 5.327 1.932 1.498.836 2.671 2.243 4.036 3.336 1.419 1.136 1.685 3.365 3.891 4.267 0-2.416.415-4.562-.087-6.468-1.01-3.832-2.213-7.68-3.912-11.246-1.593-3.343-4.355-5.851-7.879-7.369-5.433-2.339-11.114-2.965-16.871-2.014-3.896.644-7.691 1.905-12.053 3.025zm132.943-4.895c-2.423.314-4.151.804-5.843.702-4.096-.248-7.943.893-11.703 2.09-5.879 1.874-10.273 5.592-12.554 11.575-1.797 4.715-2.105 9.636-2.341 14.568-.043.892.643 1.818 1.047 2.87 1.334-3.288 2.375-6.303 3.763-9.149 1.349-2.767 3.642-4.827 6.067-6.684 2.43-1.861 4.312-4.552 7.896-5.449-.261 3.038-.49 5.734-1.325 8.265-.791 2.398-1.858 4.754-3.151 6.923-1.331 2.232-3.08 4.214-4.985 6.759 2.822-.123 4.515-1.297 6.185-2.462 2.744-1.914 5.471-3.854 8.166-5.836 2.794-2.055 4.789-4.793 5.576-8.132 1.202-5.097 2.071-10.274 3.202-16.04zm-33.739 33.259c.386-4.837-1.107-9.221-2.084-13.425-3.774-6.336-9.067-10.405-15.331-13.206-2.161.568-4.041.947-5.835 1.571-1.34.466-2.547 1.299-3.854 1.877-1.442.638-2.918 1.205-4.401 1.742-1.912.692-3.952 1.12-5.501 2.768 1.317 1.433 3.024 1.867 4.612 2.516 2.503 1.024 5.125 1.833 7.484 3.122 6.424 3.51 12.743 7.213 19.09 10.864 1.791 1.031 3.608 1.942 5.82 2.171zm-59.085-43.883c-.531 2.705.804 4.23 1.852 5.763 3.544 5.185 6.081 10.789 7.521 16.905.247 1.051.78 2.034 1.179 3.043l6.605-1.993c-.247-.846-.382-1.606-.686-2.292-1.867-4.213-3.77-8.411-5.664-12.612-1.442-3.198-3.331-6.121-5.295-8.813l-5.512-.001zm26.11-6.729l-5.494 1.6c1.663 7.131 4.161 13.808 6.26 20.596.491 1.586.774 3.436 2.405 4.579 1.566-.322 2.972-.918 3.946-2.139-.343-3.15-5.553-21.271-7.117-24.636zm-42.968 38.035c-.108.49-.204.663-.167.799 1.685 6.167 8.653 11.727 15.075 11.987.364.016.746-.404 1.09-.604-2.228-7.695-7.13-11.454-15.998-12.182zm81.107 14.175c4.352-4.162 7.852-7.98 10.311-12.657.591-1.125 1.185-2.271 1.573-3.473.418-1.297.922-2.673.078-4.05-8.161 4.504-12.82 12.024-11.962 20.18zm-55.032-18.179l-1.011-1.311c-2.572.041-4.946.542-6.837 2.767.292 1.426.614 2.813.852 4.212.248 1.463.415 2.94.715 5.126 2.291-3.936 4.177-7.178 6.281-10.794zm-5.636-31.912c-1.927.641-3.598.393-4.248 2.423 1.612.384 3.049 1.007 4.628-.247l-.38-2.176zm64.871 77.935c-1.553-1.907-1.553-1.907-3.329-2.204 1.048 2.729 1.04 2.749 3.329 2.204zm-76.554 181.027l.222-1.865c3.486-3.193 7.253-1.601 10.772-1.047 4.309 3.254 4.864 7.854 5.171 12.523.157 2.387.047 4.795.249 7.176.188 2.217.587 4.419.972 6.613.714 4.071 1.829 8.104 2.145 12.202.382 4.96-1.194 9.459-5.209 12.742-2.857 2.335-5.925 3.088-9.524.382l-2.521-5.789c.258-7.483.063-14.448-1.419-21.362-1.478-6.896-1.578-13.914-1.207-20.936.015-.273.315-.532.485-.802.253 4.445.46 8.898.769 13.344.144 2.063.337 4.145.765 6.165 1.521 7.198 2.319 14.451 2.076 21.813-.088 2.663.898 4.973 2.61 7.247l3.134 1.027c6.381-2.157 8.319-6.951 8.767-12.351-1.136-6.324-2.339-12.259-3.22-18.242-.438-2.98-.206-6.053-.422-9.074-.31-4.322-.755-8.633-4.883-11.835-2.38.383-4.989-1.382-7.66.095-.696.666-1.384 1.321-2.072 1.974zm7 99.737c2.47-1.132 5.2-2.4 8.501-2.399 4.412 2.36 5.589 6.638 5.862 11.142.22 3.633.03 7.34-.449 10.953-.661 4.99.081 9.827.819 14.698.119.783.36 1.55.463 2.336.347 2.645-.628 4.735-2.928 6.039-2.48 1.406-5.063 2.631-7.206 3.732-2.208.228-3.532-.602-5.001-1.897-1.84-3.82-2.777-8.083-2.526-12.632.157-2.853.129-5.717.233-8.574.058-1.588-.045-3.248.387-4.741.828-2.863.632-5.615.083-8.479-.355-1.854-.3-3.803-.273-5.706.025-1.622.491-3.145 2.035-4.472zm.491.958c-1.395 3.603-1.675 5.545-1.01 8.527.563 2.526.905 5.067.308 7.569-1.503 6.295-.641 12.674-.778 19.008-.068 3.185 1.092 6.204 3.489 8.846 1.058-.085 2.357.187 3.16-.323 2.505-1.589 5.805-1.953 7.841-5.178-.087-1.487.054-3.423-.352-5.236-1.346-6.004-1.035-12.008-.453-18.044.213-2.212.507-4.459.333-6.656-.317-3.998-1.406-7.762-4.866-10.723l-7.672 2.21zm13.148-157.906c-.536 2.156-.984 4.339-1.63 6.462-1.127 3.701-3.038 5.126-6.986 5.289-1.902.079-3.811.014-5.212.014-3.324-1.26-4.536-3.626-5.417-6.324-.147-5.04.049-10.056 1.26-15.082.692-2.867.371-5.994.381-9.004.005-1.564-.26-3.129-.402-4.672 2.56-2.719 5.897-3.179 9.253-4.076 3.931 3.223 7.507 6.779 10.453 10.912 1.11 1.556 1.696 3.487 1.478 5.43-.438 3.916-1.145 7.785-3.337 11.206.006-.77-.109-1.577.062-2.32.355-1.546.929-3.042 1.291-4.587 1.082-4.605.723-8.846-3.11-12.24-1.066-.944-1.946-2.098-2.91-3.158-1.394-1.532-2.906-2.901-4.88-3.682-2.498.665-4.975 1.199-6.751 3.032 0 .847-.145 1.521.023 2.104 1.099 3.808.756 7.701-.22 11.335-1.144 4.255-1.025 8.497-1.188 12.771-.104 2.732.769 5 2.559 6.117 3.611 1.739 6.57.71 9.385.45 2.684-2.365 2.726-2.354 3.55-5.573.432-1.68.601-3.448 2.348-4.404zm-4.175 28.165c-.016.473.108 1.007-.067 1.411-2.507 5.768-2.259 11.82-1.75 17.86.171 2.031.853 4.036 1.441 6.011.414 1.388 1.139 2.642 2.894 3.284 3.714-1.065 6.824-3.491 10.226-6.084.191-1.255.541-2.643.589-4.04.166-4.925-.353-9.892 1.013-14.735-.396-5.719 1.012-11.446-.079-17.164-.056-.294.092-.626.144-.94l-.101.087c1.829.745 1.846 2.498 1.943 3.989.143 2.217-.073 4.457-.138 6.688-.045 1.582-.099 3.164-.137 4.746-.023.956.179 1.969-.066 2.86-1.119 4.073-.88 8.212-.89 12.357-.004 2.055-.427 4.11-.644 6.019-2.2 3.199-5.521 4.557-8.493 6.348-1.356.818-2.87 1.442-4.718.902-1.491-.833-2.424-2.283-3.007-3.978-.414-1.205-.839-2.421-1.076-3.668-1.027-5.388-.809-10.798.1-16.166.361-2.133.822-4.379 2.91-5.708l-.094-.079zm-3.717 259.804c-.28.563-.689 1.098-.816 1.695-.43 2.012-.759 4.045-1.092 5.876.756 2.411 1.788 4.275 3.922 5.449 3.234 1.781 6.389 1.69 9.556-.059 2.231-1.231 4.44-2.501 6.657-3.759.277-.157.584-.296.802-.517 3.22-3.268 6.429-6.55 9.07-9.245 1.841-5.047-1.235-8.456-1.613-12.654-1.168-.036-2.265-.274-3.268-.065-4.236.882-8.325 2.261-11.93 4.697-1.557 1.053-2.78 2.587-4.225 3.82-.553.471-1.303.711-1.963 1.057 1.709-3.216 4.341-5.412 7.527-7.099 4.694-2.486 9.587-4.16 14.931-4.441.965 3.197 1.972 6.174 2.752 9.21.991 3.856-.816 6.808-3.453 9.368-1.708 1.658-3.486 3.242-5.24 4.851-.588.539-1.131 1.168-1.808 1.559-2.891 1.673-5.766 3.392-8.759 4.866-3.217 1.584-6.497 1.28-9.635-.399-3.383-1.809-4.953-4.998-4.267-8.788.281-1.556.779-3.072 1.238-4.834l1.614-.588zm-5.788-59.191c-2.074-.714-2.518-2.366-2.108-4.209.588-2.645.844-5.309 1.129-7.99.142-1.337.773-2.812 1.635-3.849 3.495-4.208 7.761-7.034 13.56-6.614 1.425.104 2.853.179 4.183.261 3.862 1.671 5.979 4.747 7.398 8.418 1.026 2.655 2.01 5.325 3.067 8.131l-2.118 5.383c-1.653.457-3.148 1.044-4.695 1.266-6.311.903-12.663.956-19.016.589-1.213-.069-2.578-.141-3.206-1.561 3.954.16 7.928.644 11.857.4 4.55-.283 9.233-.022 13.516-1.841 1.953-1.585 2.105-3.593 1.451-5.681-.615-1.966-1.469-3.856-2.201-5.786-1.275-3.365-3.337-6.087-6.635-8.204-1.867 0-3.939-.135-5.986.026-5.242.414-8.595 3.686-11.223 7.854-.476.754-.548 1.809-.654 2.742-.268 2.342-.448 4.695-.73 7.761.133.493.455 1.698.776 2.904zm38.057-371.877l-2.005 1.35c-.714 4.759-3.462 7.785-8.601 8.392-3.102-1.428-4.307-4.051-4.56-7.344l-4.596-1.165c-1.073-1.865-2.239-3.558-1.196-5.689 1.32-.137 1.319.907 1.786 1.434.419.473.738 1.062 1.226 1.442.616.478 1.329.866 2.053 1.159.567.23 1.217.256 1.63.334l3.85-4.624c3.159-1.03 5.313-.068 7.05 2.162.48.617.905 1.311 1.496 1.797.447.37 1.12.467 1.867.752zm-10.808 7.668c3.996-.833 4.701-1.177 5.973-3.137.508-.783.975-1.688-.091-2.769l-4.051 2.997c-.627-.537-1.05-.991-1.558-1.311-.597-.377-1.267-.636-2.062-1.022-1.254 2.608.499 3.707 1.789 5.242zm1.836-11.142c-1.224 1.059-2.801 1.802-2.834 4.171 2.072-.141 3.924-.193 5.75-.433.639-.084 1.218-.634 1.892-1.011-.995-2.012-2.375-2.786-4.808-2.727zm-8.987 410.622c-.275-.13-.685-.183-.805-.398-2.881-5.147-4.507-10.489-2.751-16.445.761-2.577 1.261-5.233 1.876-7.841 3.636-2.943 7.898-2.074 12.199-2.507 2.976 3.646 5.193 7.652 5.422 12.404.087 1.8-.689 3.737-1.429 5.459-1.063 2.475-2.492 4.789-3.692 7.208-1.296 2.614-3.581 4.014-6.139 4.993-.98.376-2.249.521-2.756-.962l-.084.09c2.578.105 4.472-1.358 6.681-2.887 1.612-3.195 3.355-6.58 5.033-9.997 1.028-2.094 1.147-4.34.399-6.511-1.029-2.989-2.067-6.014-4.443-8.387-3.534-.274-6.935-.032-10.15 1.818-.46 2.076-.718 4.151-1.389 6.083-1.848 5.322-.849 10.316 1.323 15.263.364.829.423 1.793.622 2.694l.083-.077zm-3.907-111.174l4.139 1.678c2.19-.514 4.862-.262 6.835-2.296.123-.277.356-.563.364-.854.15-6.203.644-12.364 1.776-18.479.451-2.433-.228-4.79-1.651-6.794-2.279-3.211-3.165-6.888-3.952-10.633-.293-1.393-.801-2.739-1.132-4.125-.398-1.667-.712-3.354-1.062-5.032l-.096.09 1.437 1.057c.971 3.706 1.938 7.7 3.085 11.642.484 1.661 1.288 3.242 2.058 4.804.771 1.564 1.683 3.059 2.526 4.573 0 2.109.159 4.184-.03 6.226-.569 6.132-1.275 12.252-1.913 18.242-2.641 2.511-5.709 2.996-9.105 2.826-1.375-.581-2.867-1.142-3.201-2.999l-.078.074zm-11.849-9.081c-4.089-1.561-4.919-4.848-6.438-7.503-1.583-2.768-.934-5.909-1.12-8.907-.206-3.319 1.352-6.176 2.35-9.045l-.43-2.467c.405.122.834.116.956.307 1.107 1.736 2.451 3.396 3.174 5.288 2.242 5.873 3.331 11.98 2.671 18.291-.128 1.204-.668 2.365-1.163 4.036zm-4.519-23.39c-.445 1.489-1.084 2.949-1.302 4.471-.777 5.429-1.021 10.805 3.128 15.232.472.504 1.113.85 1.715 1.298 1.56-2.83 1.084-5.543.698-8.191-.636-4.365-1.279-8.753-4.239-12.81zm.505 121.027c3.239-2.467 6.213-2.53 9.532-2.433-.146.603-.207.97-.326 1.316-.101.291-.27.559-.563 1.143 2.687 6.01 1.924 12.219-.634 18.291-.716 1.699-1.541 3.574-4.204 4.009-.583-.581-1.676-1.193-1.992-2.083-.688-1.935-1.381-4.017-1.343-6.026.062-3.267-.715-6.296-1.728-9.592l1.258-4.625zm-.02 3.871c.61 2.83 1.182 5.126 1.583 7.451.429 2.489.643 5.014 1.058 7.505.154.922.577 1.831 2.483 1.697 3.883-6.764 5.258-13.897 1.525-21.837l-4.744 1.103c-.512.662-.904.995-1.071 1.419-.347.88-.574 1.807-.834 2.662zm29.405-37.78c1.865-1.596 2.421-3.422 2.885-5.242.506-1.988-.196-3.741-1.377-5.355-1.491-2.038-2.932-4.111-4.664-6.549 3.013 1.302 5 3.703 7.819 9.194-.235 3.675-.691 7.505-4.746 9.605-3.529-2.378-6.446-6.465-9.681-13.504 0-.726-.029-1.837.011-2.946.023-.629.16-1.255.23-1.773 2.837-3.424 2.837-3.424 6.128-3.491-1.22.748-2.084 1.232-2.897 1.789-.787.539-1.523 1.152-1.591 1.205-.972 2.454-.871 4.073-.149 5.514 2.054 4.104 4.064 8.264 8.032 11.553zm-13.445-54.72c-1.988-.426-2.686-2.139-3.401-3.67-1.836-3.931-3.061-8.075-3.015-12.444.055-5.252.241-10.509.557-15.752.219-3.626 1.181-7.13 2.339-11.346.919 2.296.657 3.862.211 5.291-1.599 5.116-1.623 10.368-1.604 15.636l.003 6.221c.024 5.215 1.146 10.1 4.254 14.415.339.469.393 1.142.579 1.722l.077-.073zm4.702-63.209l3.664-2.709c2.201-4.256 1.579-8.698 1.833-12.926.208-3.461-.712-6.975-2.748-9.977-2.648-2.706-5.69-.766-8.951-.635 2.48-2.308 5.269-1.774 7.756-2.272 2.469 1.482 3.735 3.676 4.421 6.175.887 3.232 1.503 6.51.956 9.919-.276 1.726-.169 3.51-.363 5.253-.376 3.373-1.829 6.088-5.04 7.588-.569.266-1.226.421-1.428-.51l-.1.094zm-16.2-140.007c3.273.12 4.015 2.766 4.701 5.112.645 2.207-.645 3.922-2.438 5.22-2.265 1.641-4.691 2.56-7.801 1.762-2.105-3.03.155-6.268-.208-9.143 1.008-2.058 2.38-3.25 4.352-3.826l1.554.993c-2.107-.218-3.284 1.105-4.074 2.716-1.296 2.637-1.347 5.406-.473 8.518 3.69-.452 6.647-1.46 7.746-4.986-.062-2.91-1.897-4.533-3.359-6.366zm20.826 228.839c-5.379-2.576-6.733-6.026-4.521-11.445 1.948-1.353 4.191-2.231 7.337-2.354-2.192 2.396-5.502 1.487-7.179 4.451-.545 1.648.244 3.564 1.266 5.379.713 1.265 1.691 2.333 3.615 2.312 2.843-2.061 4.231-4.77 3.011-8.452.983-.586 1.242.217 1.374.73 1.055 4.104-.285 6.717-4.903 9.379zm-12.416-291.2c-.114-1.626-1.212-2.826-.81-4.72 2.091 1.726 2.011 3.737 2.204 5.511-1.315 2.591-2.974 4.352-5.696 5.114l-3.736-2.599-1.192-2.966c1.611-2.119 2.456-4.95 6.475-4.839-1.982 1.699-4.389 2.272-4.842 4.961-.185 2.186 1.724 2.883 3.356 3.831 2.267-.505 3.6-1.906 4.241-4.293zm-16.422 149.323l-.618 1.175c-2.241-1.054-2.786-3.114-3.865-5.065.119-1.107.236-2.358.391-3.605.255-2.036.654-4.061.773-6.104.166-2.868.944-5.466 2.97-7.707-.463 2.691-.913 5.383-1.392 8.071-.472 2.65-.972 5.294-1.469 7.997.331 2.241 1.09 4.253 3.335 5.357l-.125-.119zm11.082 231.402h6.016c.71 1.973-.2 3.31-1.251 4.427-1.677 1.783-3.867 2.554-6.423 2.689-1.396-2.87.385-4.822 1.658-7.116zm-.537 5.542c2.543-.721 4.483-1.415 5.115-4.085-1.674-.806-3.056-.797-4.67.588l-.445 3.497zm13.767-183.993c-2.972-1.309-4.571-3.947-5.302-6.769-.875-3.384-2.125-6.587-3.358-9.821-.793-2.08-.775-2.087-.485-4.583.95 2.386 1.993 5.005 3.033 7.625.35.882.871 1.74 1.005 2.655.526 3.581 2.275 6.522 4.486 9.277.346.431.355 1.134.52 1.711l.101-.095zm-17.414-183.921c-.996.773-1.532 1.221-2.102 1.62-.523.367-1.084.681-1.147.721-.381 2.496-.099 4.158.746 5.654 3.759.339 5.618-1.578 5.571-7.396 1.317 1.929 1.443 3.708.3 5.821-1.396 2.583-3.604 3.425-6.398 2.86-1.958-2.686-1.958-2.686-1.397-7.09.908-1.32 1.967-2.407 4.427-2.19zm-4.636 129.346c.366-1.84.616-3.713 1.129-5.51.571-2.003 1.035-3.978.662-6.252-.309-1.593-1.989-3.006-1.477-5.332 1.932 1.959 2.563 4.221 3.204 6.593-.696 3.61-1.033 7.386-3.616 10.405l.098.096zm21.174-66.492l1.734 1.009.122 2.719c-1.845 1.821-3.579 3.339-6.192 1.911-.044-3.432-.044-3.432 1.43-6.692l2.145-.532.935 1.736-2.864.063c-.099 1.537-.209 2.756-.227 3.976-.003.191.406.388.873.805l2.896-2.232-.852-2.763zm-12.634-43.862l-1.651 6.585c1.943 3.318 5.084 1.562 8.257 1.233-1.168 2.037-2.794 1.848-4.209 1.947-1.963.138-3.801-.223-5.154-2.251-.316-2.822.942-5.239 2.861-7.42l-.104-.094zm8.933 30.028l-.096 1.465-1.409.092c-2.238-1.969-.963-4.095-.379-6.482l3.022-1.729c.548.689.374.896-1.654 2.312-1.007 1.368-1.039 2.909-.739 4.739l1.261-.391-.006-.006zm-3.116 62.993c-.305-1.339.56-2.084 1.473-2.729 1.809-1.278 3.665-2.492 5.494-3.726.796.621.329 1.159-.141 1.5-2.282 1.658-4.604 3.258-6.912 4.88l.086.075zm-.086-.074c-.008 3.535-1.322 6.71-2.764 9.839-.162.352-.674.542-1.023.809l.095.08c-.021-.46-.179-.965-.044-1.373.88-2.645 1.796-5.279 2.771-7.889.195-.521.694-.929 1.052-1.39l-.087-.076zm-5.628-92.852c.007-.304-.109-.701.04-.898 1.54-2.033 2.96-2.805 6.616-3.512l-6.76 4.315.104.095zm9.458-.666c.156 4.662.156 4.662-1.79 7.421l1.79-7.421zm4.387 182.342l-6.774 2.194c1.024-2.301 2.696-2.771 6.659-2.087l.115-.107zm-11.939 179.246c-.551 2.07-2.175 2.452-3.988 2.538.83-1.629 2.691-1.641 3.988-2.538zm6.929-330.982c.707-.145 1.409-.336 2.124-.423.7-.086 1.413-.069 2.121-.098l.001-.011-2.218 1.2-2.032-.675.004.007zm5.525 311.356c-1.379.105-1.946-.607-1.926-1.912l-.081.079c1.317-.036 1.911.652 1.923 1.923l.084-.09zm-25.14-229.294c.644-.665.829-1.893 2.137-1.743l-.098-.097c-.319 1.691-.319 1.691-2.157 1.728l.118.112zm23.859-82.583l-.754-2.05.543-.156.213 2.194-.002.012zm3.173 59.684c-.974-.127-.967-.562-.227-1.393l.127 1.479.1-.086z" fill-rule="evenodd" clip-rule="evenodd"/></svg>