<?xml version="1.0" encoding="utf-8"?>
<!-- Generator: Adobe Illustrator 17.1.0, SVG Export Plug-In . SVG Version: 6.00 Build 0)  -->
<!DOCTYPE svg PUBLIC "-//W3C//DTD SVG 1.1//EN" "http://www.w3.org/Graphics/SVG/1.1/DTD/svg11.dtd">
<svg version="1.1" id="Layer_1" xmlns="http://www.w3.org/2000/svg" xmlns:xlink="http://www.w3.org/1999/xlink" x="0px" y="0px"
	 viewBox="811.502 -0.009 297 1080" enable-background="new 811.502 -0.009 297 1080" xml:space="preserve">
<g>
	<path opacity="0.2" fill="#FFFFFF" enable-background="new    " d="M915.559,187.615c-20.126,0-20.126,31.223,0,31.223
		S935.685,187.615,915.559,187.615z"/>
	<path opacity="0.2" fill="#FFFFFF" enable-background="new    " d="M897.478,93.355c-2.35-3.148-4.666-5.776-8.247-7.624
		c-2.631-1.359-5.464-2.411-8.361-3.019c-8.317-1.746-16.837,2.323-19.195,10.904c-1.896,6.895,1.562,15.206,8.122,18.267
		c0.285,1.644,0.835,3.261,1.775,4.863c2.043,3.488,5.424,6.101,9.326,7.174c7.666,2.111,17.641-2.532,19.195-10.904
		C901.292,106.546,901.669,98.966,897.478,93.355z"/>
	<path opacity="0.2" fill="#FFFFFF" enable-background="new    " d="M1074.86,81.126c-2.206-8.024-11.063-13.396-19.195-10.904
		c-15.927,4.88-26.354,17.626-26.713,34.48c-0.181,8.51,7.236,15.611,15.604,15.611c8.642,0,15.423-7.107,15.604-15.611l0.025-0.579
		c0.054-0.433,0.131-0.961,0.225-1.321l0.042-0.177l0.383-0.606l0.31-0.335l0.092-0.1l0.81-0.483
		c0.433-0.183,1.431-0.625,1.912-0.773C1072.087,97.839,1077.166,89.506,1074.86,81.126L1074.86,81.126z"/>
	<path opacity="0.2" fill="#FFFFFF" enable-background="new    " d="M923.883,266.712c-20.126,0-20.126,31.223,0,31.223
		C944.007,297.935,944.007,266.712,923.883,266.712z"/>
	<path opacity="0.2" fill="#FFFFFF" enable-background="new    " d="M905.85,230.634c-20.126,0-20.126,31.223,0,31.223
		C925.974,261.857,925.974,230.634,905.85,230.634z"/>
	<path opacity="0.2" fill="#FFFFFF" enable-background="new    " d="M937.751,316.67c-20.126,0-20.126,31.223,0,31.223
		C957.877,347.891,957.877,316.67,937.751,316.67z"/>
	<path opacity="0.2" fill="#FFFFFF" enable-background="new    " d="M903.075,327.769c-20.126,0-20.126,31.223,0,31.223
		C923.201,358.993,923.201,327.769,903.075,327.769z"/>
	<path opacity="0.2" fill="#FFFFFF" enable-background="new    " d="M939.139,363.156c-12.075,0-12.075,18.734,0,18.734
		S951.214,363.156,939.139,363.156z"/>
	<path opacity="0.2" fill="#FFFFFF" enable-background="new    " d="M910.089,380.346c-18.449-11.091-35.174,17.713-16.802,28.758
		c6.584,3.957,4.778,11.454,0.964,18.845c-9.834,19.051,18.893,35.897,28.744,16.811
		C934.679,422.129,933.808,394.608,910.089,380.346z"/>
	<path opacity="0.2" fill="#FFFFFF" enable-background="new    " d="M954.253,464.046c-13.888-12.071-28.083-2.004-33.839,12.083
		c-3.802,9.308-4.706,21.028-4.855,30.998c-0.058,3.913,1.006,7.103,2.775,9.589c-1.096,1.867-2.195,3.728-3.277,5.597
		c-7.624,13.177,4.547,25.402,16.125,24.86c0.794,0.119,1.598,0.198,2.408,0.198c3.704,0,7.045-1.242,9.926-3.365l0.971-0.506
		c1.862-0.952,3.518-2.363,5.033-3.782c4.778-4.478,5.901-11.493,3.812-17.407C963.518,503.018,971.936,479.415,954.253,464.046z"/>
	<path opacity="0.2" fill="#FFFFFF" enable-background="new    " d="M893.366,468.272c-12.542,0-17.743,11.362-15.631,20.816
		c-2.112,9.451,3.089,20.816,15.631,20.816c12.542,0,17.743-11.362,15.631-20.816C911.109,479.636,905.908,468.272,893.366,468.272z
		"/>
	<path opacity="0.2" fill="#FFFFFF" enable-background="new    " d="M929.932,631.94c-9.055-20.82-13.125-42.579-14.373-65.143
		c-1.179-21.353-34.474-21.47-33.289,0c1.594,28.869,7.382,55.431,18.918,81.954c3.622,8.328,15.652,10.147,22.774,5.974
		C932.469,649.738,933.552,640.264,929.932,631.94z"/>
	<path opacity="0.2" fill="#FFFFFF" enable-background="new    " d="M962.125,599.839c-1.148-7.968-2.091-14.421-2.181-23.326
		c-0.092-9.076-7.503-16.653-16.645-16.653c-9.005,0-16.737,7.574-16.645,16.653c0.108,10.818,1.831,21.493,3.368,32.18
		c1.296,9.001,12.569,13.806,20.476,11.629C960.06,617.692,963.418,608.816,962.125,599.839z"/>
	<path opacity="0.2" fill="#FFFFFF" enable-background="new    " d="M960.739,735.831c-3.737-22.803-2.598-46.161-4.956-69.121
		c-0.927-9.024-6.87-16.653-16.645-16.653c-8.37,0-17.572,7.605-16.645,16.653c2.668,25.991,1.906,52.125,6.143,77.976
		c1.471,8.968,12.44,13.842,20.476,11.629C958.546,753.719,962.204,744.782,960.739,735.831z"/>
	<path opacity="0.2" fill="#FFFFFF" enable-background="new    " d="M913.457,682.689c-5.645-7.124-17.679-5.863-23.538,0
		c-5.71,5.711-5.835,13.108-2.595,19.505c-6.089,3.642-9.022,12.396-7.232,18.901c2.629,9.558,11.502,12.933,20.476,11.629
		c10.346-1.5,19.605-9.766,21.68-20.128C924.518,701.259,920.393,691.445,913.457,682.689z"/>
	<path opacity="0.2" fill="#FFFFFF" enable-background="new    " d="M955.784,834.618c-13.283,0-18.337,12.748-15.181,22.47
		c-4.222-0.844-8.538-1.284-12.798-1.123c8.159-16.782,12.711-36.987,11.061-56.046c2.433,4.78,7.138,8.335,14.144,8.335
		c21.468,0,21.468-33.305,0-33.305c-9.511,0-14.8,6.538-15.883,13.823c-2.37-10.383-6.857-20.12-13.96-28.375
		c-14.027-16.305-37.465,7.362-23.538,23.552c4.195,4.876,6.224,11.289,6.761,18.267c-6.953,1.342-13.023,6.582-13.023,15.75v36.08
		c0,6.582,3.62,11.535,8.495,14.208c-4.295,5.357-6.77,11.989-7.105,19.124c-0.502,10.706,5.951,20.318,14.61,25.95
		c9.93,6.459,23.336,5.632,34.197,2.567c5.422-1.529,10.317-6.018,11.625-11.629c1.052-4.519,1.108-8.128,0.098-12.66l-0.829-1.965
		c0.858-1.992,1.333-4.176,1.325-6.453c-0.017-4.778-0.602-9.564-1.981-14.142c-0.131-0.438-0.31-0.867-0.477-1.296
		c0.789,0.102,1.6,0.173,2.458,0.173C977.252,867.921,977.252,834.618,955.784,834.618L955.784,834.618z"/>
	<path opacity="0.2" fill="#FFFFFF" enable-background="new    " d="M970.157,934.452c-4.266-9.933-19.36-10.416-26.142-3.369
		c-6.312,6.559-11.327,13.846-13.99,22.614c-0.958,3.155-0.804,6.405,0.173,9.385c-0.821,1.029-1.514,2.2-2.083,3.494
		c0.013-1.517-0.19-3.046-0.667-4.553c-2.87-9.031-4.21-18.399-5.547-27.754c-1.287-9.001-12.575-13.804-20.476-11.629
		c-9.565,2.632-12.908,11.506-11.625,20.484c1.339,9.356,2.679,18.722,5.547,27.754c2.747,8.643,11.469,14.108,20.476,11.629
		c4.889-1.346,8.905-5.074,10.913-9.645c-0.083,7.322,4.568,15.279,12.138,16.584c16.21,2.792,30.295-2.348,36.105-18.642
		C979.168,959.052,974.816,945.304,970.157,934.452z"/>
	<path opacity="0.2" fill="#FFFFFF" enable-background="new    " d="M965.397,1005.444c-4.176-3.826-10.088-5.886-15.425-3.709
		c-18.245,7.441-38.063,21.524-44.914,40.771c-2.856,8.02,3.154,18.93,11.625,20.484c12.504,2.294,23.301-0.694,33.749-7.776
		c8.617-5.845,15.675-13.89,24.848-18.878C991.785,1027.358,980.988,1004.221,965.397,1005.444z"/>
	<path opacity="0.2" fill="#FFFFFF" enable-background="new    " d="M919.721,987.61c-12.075,0-12.075,18.734,0,18.734
		S931.796,987.61,919.721,987.61z"/>
	<path opacity="0.2" fill="#FFFFFF" enable-background="new    " d="M972.602,12.015c-4.687-18.186-32.78-10.466-28.087,7.747
		c2.525,9.801,5.953,19.184,5.028,29.429c-0.714,7.924,7.166,14.571,14.564,14.571c8.48,0,13.85-6.664,14.564-14.571
		C979.822,36.448,975.739,24.194,972.602,12.015L972.602,12.015z"/>
	<path opacity="0.2" fill="#FFFFFF" enable-background="new    " d="M938.445,70.007c-1.104-9.16-3.581-16.892-7.336-25.3
		c-2.712-6.07-7.039-12.366-7.922-19.103c-1.029-7.874-5.843-14.571-14.562-14.571c-7.155,0-15.598,6.674-14.564,14.571
		c1.156,8.818,3.629,16.232,7.336,24.31c2.945,6.422,7.057,12.931,7.922,20.093c0.95,7.882,5.905,14.571,14.564,14.571
		C931.1,84.578,939.399,77.913,938.445,70.007z"/>
</g>
<path opacity="0.6" d="M950.029,3.793c0.95-2.467,2.937-3.428,5.918-3.803c0.771,0.377,1.991,0.856,3.077,1.548
	c0.819,0.523,1.458,1.323,1.823,1.667c3.82,19.259,9.521,37.493,15.71,55.981c2.997-0.546,5.574-0.958,8.124-1.494
	c5.57-1.171,10.515,0.125,15.046,3.49c9.359,6.951,18.816,13.783,24.511,24.422c0.262,0.492,0.979,0.74,1.521,1.127
	c2.981-1.904,2.425-5.328,3.206-8.064c2.75-9.645,7.918-17.538,16.06-23.374c2.683-1.925,5.478-3.951,8.54-5.034
	c9.072-3.209,18.208-6.418,28.048-6.295c6.339,0.077,12.504-0.719,18.833-5.595c0,3.619,0.244,5.222-0.04,6.724
	c-1.971,10.449-3.983,20.895-6.116,31.311c-2.31,11.273-7.718,20.453-18.101,26.2c-1.739,0.961-3.416,2.111-4.922,3.405
	c-7.943,6.839-16.887,11.771-26.994,14.606c-1.527,0.427-2.935,1.265-4.714,2.052c0.969,1.033,1.494,2.073,2.296,2.373
	c17.824,6.626,31.854,18.947,46.233,30.742c1.285,1.052,2.387,2.359,3.743,3.298c8.084,5.609,11.646,14.327,15.671,22.708
	c1.35,2.807,1.35,5.799-0.075,9.237l-6.439,5.284l-5.951,9.745c-6.901,5.822-14.377,7.639-22.667,7.843
	c-9.998,0.244-19.864-0.073-29.693-2.102c-8.07-1.667-15.433-4.253-19.724-12.804c-1.906,1.356-3.166,2.223-4.395,3.13
	c-9.09,6.705-17.839,13.954-27.396,19.907c-4.895,3.048-11.146,4.171-16.939,5.463c-8.426,1.879-15.554,5.595-21.343,12.471
	c0,10.812-0.44,21.772,0.106,32.684c0.746,14.944,2.331,29.846,3.391,44.78c1.01,14.26,1.804,28.536,2.706,42.8
	c0.167,2.655,0.623,5.311,0.564,7.957c-0.473,20.653,1.216,41.219,2.112,61.822c0.944,21.628,2.258,43.209,4.589,64.72
	c1.073,9.914,2.931,19.74,4.147,29.642c1.296,10.56,2.221,21.166,3.372,31.744c1.154,10.583,2.735,21.13,3.495,31.74
	c0.854,11.941,1.335,23.933,1.385,35.905c0.102,24.633-0.692,49.276-0.173,73.894c0.504,23.939,2.177,47.853,3.358,71.777
	c0.919,18.609,1.812,37.22,2.816,55.825c1.077,19.928,1.583,39.917,3.616,59.749c1.773,17.265,1.818,34.549,2.714,51.818
	c0.396,7.616-0.25,15.286-0.256,22.931c-0.027,33.938-0.013,67.877,0.046,101.815c0.008,4.642,0.423,9.281,0.51,13.925
	c0.027,1.402-0.75,2.469-2.625,2.45c-0.296-0.821-0.848-1.675-0.883-2.548c-0.983-24.941-2.054-49.88-1.114-74.855
	c0.188-4.984-0.121-9.985-0.108-14.977c0.012-5.653-0.198-11.335,0.258-16.957c1.291-15.952,1.277-31.911,0.392-47.861
	c-0.792-14.273-2.233-28.511-3.02-42.786c-1.666-30.234-3.02-60.484-4.656-90.718c-0.648-11.958-1.898-23.887-2.516-35.847
	c-0.515-9.964-0.406-19.961-0.754-29.94c-0.602-17.286-1.712-34.566-1.91-51.86c-0.169-14.623,1.044-29.263,0.921-43.888
	c-0.117-13.621-0.812-27.267-1.937-40.846c-1.371-16.571-3.387-33.09-5.26-49.62c-1.048-9.247-2.512-18.444-3.543-27.694
	c-1.621-14.544-3.291-29.088-4.474-43.671c-1.452-17.896-2.622-35.82-3.535-53.756c-0.539-10.631-0.056-21.314-0.539-31.951
	c-0.842-18.599-2.025-37.185-3.158-55.771c-0.729-11.958-1.791-23.897-2.393-35.862c-0.819-16.277-1.071-32.586-2.079-48.849
	c-0.658-10.604-2.497-21.128-3.299-31.728c-0.702-9.274-0.646-18.599-1.014-27.902c-0.21-5.305-0.679-10.602-0.877-15.913
	c-0.067-1.796,0.344-3.617,0.567-5.697c1.137,0.661,1.935,0.856,2.01,1.206c0.69,3.24,1.516,6.486,1.787,9.772
	c0.302,3.638,0.587,7.416-0.04,10.966c-1.781,10.072,0.981,19.882,1.223,29.823c0.021,0.879,0.667,1.744,1.05,2.69
	c5.997-0.958,11.807-2.119,17.674-2.759c7.651-0.838,13.696-4.744,19.52-9.281c5.245-4.086,10.517-8.132,15.783-12.189
	c6.562-5.053,13.129-10.099,19.285-15.69l11.929-5.445c6.809,1.656,12.9,4.384,16.187,12.056l-5.195,4.065
	c-7.066-0.296-9.026-5.509-11.415-10.685c-3.387,0.081-6.434,1.069-9.671,2.482c-6.776,8.178-16.068,13.504-24.634,19.753
	c-2.681,1.954-5.53,3.763-7.878,6.07c-6.886,6.766-15.002,10.82-24.538,12.146c-2.964,0.413-5.96,0.781-8.849,1.521
	c-2.504,0.642-4.878,1.786-7.361,2.727c-1.327,6.216,1.121,11.502,1.735,17.832c2.337-1.246,3.987-2.1,5.614-2.998
	c5.832-3.228,11.671-6.161,18.526-6.961c6.655-0.781,12.819-3.384,18.356-7.334c8.392-5.984,17.058-11.612,23.994-19.409
	c0.844-0.948,2.052-1.569,3.658-2.765c1.621,1.813,3.306,3.29,4.478,5.099c2.481,3.821,5.791,6.58,10.138,7.597
	c13.938,3.259,27.921,5.926,42.362,3.136c5.106-0.988,9.474-3.103,13.069-6.689c0.931-0.927,0.948-2.773,1.662-5.105
	c-16.141,2.469-31.381,2.613-46.241-1.613c-8.461-2.405-17.501-3.553-26.252-9.689c2.333-0.415,3.479-0.983,4.366-0.713
	c4.118,1.263,8.215,2.625,12.223,4.199c10.311,4.051,21.209,5.313,32.845,7.018c7.424-0.886,15.679-1.682,23.865-2.928
	c4.693-0.715,9.045-2.475,10.819-8.112c-3.726-9.776-8.415-19.095-17.304-25.86c-9.526-7.253-18.508-15.242-28.225-22.214
	c-5.341-3.832-11.509-6.732-17.651-9.176c-11.18-4.449-21.418-10.654-31.92-16.332c-13.444-7.27-26.346-15.557-39.881-22.637
	c-8.803-4.607-18.22-8.118-27.573-11.545c-3.287-1.204-7.203-0.696-10.359-0.931c-6.939,3.228-10.565,8.964-14.033,14.554
	c-3.672,5.918-6.303,12.323-7.276,19.457c-0.85,6.22-2.152,12.546-4.416,18.372c-5.895,15.154-7.138,31.119-8.461,46.963
	c-1.221,14.615-3.272,29.071-5.449,43.54c-1.833,12.185-3.358,24.368-3.297,36.751c0.029,6.28-0.637,12.673-1.896,18.83
	c-4.551,22.272-6.359,44.728-6.076,67.437c0.187,14.961-0.217,29.934-0.583,44.894c-0.098,3.965-0.706,7.989-1.635,11.85
	c-2.75,11.414-3.472,23.014-3.614,34.676c-0.215,17.642-0.45,35.289-0.415,52.931c0.029,13.648,0.554,27.292,0.679,40.939
	c0.09,9.645,0.09,19.303-0.244,28.942c-0.785,22.645-0.252,45.238,1.366,67.844c1.854,25.889,2.75,51.831,2.956,77.793
	c0.04,4.98,0.475,9.964,0.919,14.931c2.729,30.519,4.653,61.101,3.268,91.724c-0.825,18.278-2.208,36.541-1.727,54.833
	c0.794,30.257,1.971,60.505,3.085,90.751c0.869,23.606,2.187,47.199,2.737,70.811c0.385,16.615-1.044,33.27,1.198,49.851
	c0.198,1.461,0.371,3.428-2.485,3.767c-0.308-0.683-0.896-1.444-0.983-2.259c-1.787-16.894-2.112-33.805-1.035-50.781
	c0.421-6.607-0.256-13.292-0.564-19.934c-0.923-19.943-1.906-39.883-2.872-59.826c-1.916-39.566-2.789-79.154-1.875-118.762
	c0.369-15.965,2.358-31.888,1.506-47.882c-0.952-17.934-1.927-35.874-3.254-53.783c-1.354-18.261-2.362-36.512-2.025-54.842
	c0.148-7.97-0.402-15.971-0.964-23.935c-1.76-24.898-3.718-49.782-3.266-74.774c0.162-8.985,0.775-17.969,0.698-26.95
	c-0.173-19.97-0.704-39.937-0.975-59.907c-0.09-6.655,0.204-13.312,0.24-19.968c0.012-2.321,0.377-4.899-0.469-6.92
	c-3.464-8.249-3.354-16.944-3.416-25.539c-0.125-17.028-1.208-33.905-5.039-50.556c-0.74-3.213-0.839-6.595-1.064-9.908
	c-0.496-7.299-0.735-14.619-1.358-21.908c-0.517-6.049-0.267-11.943,1.735-17.723c0.648-1.871,1.577-3.846,1.489-5.732
	c-0.667-14.279,1.896-28.608-0.825-43.207l3.254-9.989c-0.852-6.355-5.722-11.685-3.641-19.463l3.91-9.958
	c-5.624-15.144-5.058-31.244-2.87-46.886l6.31-7.772c-0.2-2.548-0.029-5.278-0.692-7.785c-1.408-5.342-0.881-10.51,0.185-15.8
	c0.983-4.88,1.739-9.833,2.189-14.788c0.577-6.338,3.054-11.439,8.188-15.302c2.354-1.769,4.462-3.865,6.676-5.813
	c1.773,1.534,0.281,2.663-0.408,3.459c-1.948,2.248-4.102,4.33-6.268,6.378c-3.035,2.869-4.662,6.511-5.395,10.464
	c-1.271,6.851-2.368,13.744-3.231,20.657c-0.362,2.903-0.031,5.911,0.154,8.86c0.248,3.938,0.662,7.864,0.979,11.508l-6.091,7.209
	c-2.929,15.854-0.76,32.115,3.483,47.641c-1.939,4.396-3.543,8.037-5.351,12.143l5.568,15.85l-3.681,9.593
	c0.262,2.888,0.356,6.23,0.91,9.491c0.85,4.984,0.779,9.864,0.073,14.886c-0.548,3.901-0.258,7.964,0.044,11.927
	c0.36,4.722,0.062,9.176-1.768,13.681c-1.216,2.994-1.887,6.48-1.756,9.704c0.502,12.296,1.169,24.595,2.302,36.847
	c0.608,6.588,2.468,13.052,3.427,19.62c0.804,5.52,1.119,11.108,1.8,18.197c1.139-2.302,1.935-3.313,2.146-4.436
	c0.989-5.228,1.687-10.512,2.731-15.727c1.839-9.195,2.229-18.467,2.175-27.817c-0.096-16.3-0.131-32.607,0.181-48.905
	c0.14-7.305,0.964-14.621,1.862-21.887c1.06-8.58,2.368-17.138,3.883-25.65c1.229-6.905,1.985-13.788,2.085-20.822
	c0.242-17,2.55-33.799,5.637-50.503c0.785-4.249,1.348-8.545,1.804-12.844c1.51-14.213,2.708-28.463,4.489-42.636
	c0.656-5.217,2.608-10.277,3.96-15.406c0.571-2.171,1.117-4.346,1.821-7.095c-1.548,0-2.506-0.213-3.329,0.031
	c-12.275,3.648-24.332,2.369-36.236-1.627c-3.776-1.269-7.482-2.79-11.113-4.432c-4.328-1.952-8.124-4.782-10.394-9.014
	c-3.922-7.312-8.08-14.571-11.15-22.247c-4.483-11.202-9.442-21.98-17.512-31.13c-1.427-1.594-2.112-3.865-3.108-5.772
	c1.054-0.711,1.683-1.467,2.093-1.363c7.388,1.854,14.45,0.5,21.513-1.773c5.705-1.834,11.565-2.663,17.62-2.978
	c7.836-0.408,15.16,1.169,22.553,3.303c12.425,3.594,20.611,11.618,25.446,23.406c0.864,2.111,1.958,4.121,3.137,6.578l14.181-4.009
	c1.973-3.369,0.473-6.276-0.419-8.958c-2.731-8.21-5.778-16.369-10.907-23.426c-4.974-6.847-8.313-14.285-9.907-23.06
	c3.697-5.278,8.409-8.647,14.914-6.98c11.85,17.819,20.314,36.562,28.662,55.363c0.8,1.802,1.631,3.59,2.689,5.918
	c5.635-1.511,10.661-3.544,15.433-6.893c-5.464-19.084-12.142-37.495-16.954-56.371c2.731-3.236,4.849-6.159,8.792-6.83l0.002,4.126
	c3.058,0.231,5.376-0.192,6.724-3.796L950.029,3.793L950.029,3.793z M819.321,56.282c7.395,9.689,12.169,19.445,15.856,29.84
	c1.989,5.613,4.755,10.972,7.466,16.294c3.899,7.659,9.344,13.696,18.108,15.936c1.594,0.406,3.054,1.304,4.62,1.854
	c8.574,2.996,17.437,4.017,26.461,3.53c2.408-0.129,5.143-0.138,6.809-2.915c-4.07-1.329-7.972-2.232-11.555-3.846
	c-8.64-3.89-16.027-9.399-20.711-17.921c-2.52-4.582-3.637-9.245-0.204-14.356c3.585-0.221,7.084,0.79,10.534,1.875
	c3.76,1.184,7.703,2.132,11.096,4.026c3.12,1.742,5.564,4.674,8.407,6.951c2.956,2.367,3.51,7.011,8.105,8.891
	c0-5.034,0.864-9.506-0.181-13.477c-2.104-7.985-4.61-16.002-8.149-23.433c-3.318-6.966-9.072-12.191-16.412-15.354
	c-11.317-4.874-23.151-6.178-35.143-4.196C836.312,51.321,828.407,53.949,819.321,56.282z M1096.244,46.083
	c-5.047,0.654-8.647,1.675-12.171,1.463c-8.532-0.517-16.545,1.861-24.378,4.355c-12.246,3.905-21.399,11.652-26.15,24.118
	c-3.743,9.824-4.385,20.078-4.876,30.355c-0.09,1.859,1.339,3.788,2.181,5.98c2.779-6.851,4.947-13.133,7.838-19.063
	c2.81-5.765,7.586-10.058,12.638-13.927c5.062-3.878,8.982-9.485,16.448-11.354c-0.544,6.33-1.021,11.948-2.76,17.221
	c-1.648,4.997-3.87,9.906-6.564,14.425c-2.772,4.651-6.416,8.78-10.384,14.083c5.878-0.256,9.405-2.702,12.883-5.13
	c5.716-3.988,11.396-8.03,17.01-12.16c5.82-4.282,9.976-9.987,11.615-16.944C1092.078,68.884,1093.888,58.097,1096.244,46.083
	L1096.244,46.083z M1025.965,115.383c0.804-10.079-2.306-19.213-4.341-27.973c-7.861-13.202-18.887-21.68-31.935-27.517
	c-4.501,1.184-8.417,1.973-12.154,3.273c-2.791,0.971-5.305,2.707-8.028,3.911c-3.004,1.329-6.078,2.511-9.167,3.63
	c-3.983,1.442-8.232,2.334-11.459,5.768c2.743,2.986,6.299,3.89,9.607,5.242c5.214,2.134,10.675,3.819,15.589,6.505
	c13.381,7.314,26.544,15.029,39.765,22.637C1017.572,113.008,1021.357,114.906,1025.965,115.383L1025.965,115.383z M902.89,23.946
	c-1.106,5.636,1.675,8.814,3.858,12.008c7.382,10.804,12.667,22.48,15.666,35.224c0.515,2.19,1.625,4.238,2.456,6.341l13.758-4.153
	c-0.515-1.763-0.796-3.346-1.429-4.776c-3.889-8.778-7.853-17.526-11.798-26.279c-3.004-6.664-6.939-12.754-11.03-18.363
	C914.371,23.948,902.89,23.946,902.89,23.946z M957.277,9.925l-11.444,3.334c3.464,14.858,8.667,28.771,13.04,42.915
	c1.023,3.305,1.612,7.159,5.01,9.541c3.262-0.671,6.191-1.913,8.22-4.457C971.388,54.695,960.535,16.937,957.277,9.925z
	 M867.774,89.177c-0.225,1.021-0.425,1.381-0.348,1.665c3.51,12.85,18.024,24.435,31.401,24.977
	c0.758,0.033,1.554-0.842,2.271-1.259C896.457,98.526,886.247,90.694,867.774,89.177z M1036.722,118.713
	c9.065-8.672,16.356-16.628,21.478-26.373c1.231-2.344,2.468-4.732,3.277-7.237c0.871-2.702,1.921-5.57,0.162-8.439
	C1044.639,86.049,1034.934,101.718,1036.722,118.713z M922.089,80.834l-2.106-2.732c-5.358,0.085-10.303,1.129-14.242,5.765
	c0.608,2.971,1.279,5.861,1.775,8.776c0.517,3.048,0.864,6.126,1.489,10.681C913.778,95.124,917.706,88.368,922.089,80.834z
	 M910.349,14.341c-4.014,1.336-7.495,0.819-8.849,5.049c3.358,0.8,6.351,2.098,9.64-0.515
	C911.141,18.875,910.349,14.341,910.349,14.341z M1045.477,176.73c-3.235-3.973-3.235-3.973-6.934-4.592
	C1040.725,177.824,1040.708,177.865,1045.477,176.73z M886.013,553.926l0.462-3.886c7.261-6.653,15.108-3.336,22.438-2.182
	c8.976,6.78,10.132,16.365,10.771,26.094c0.327,4.974,0.098,9.991,0.519,14.952c0.392,4.619,1.223,9.208,2.025,13.779
	c1.487,8.483,3.81,16.886,4.468,25.425c0.796,10.335-2.487,19.709-10.85,26.55c-5.951,4.865-12.342,6.434-19.839,0.796
	l-5.251-12.062c0.537-15.592,0.131-30.105-2.956-44.511c-3.079-14.369-3.287-28.992-2.514-43.623
	c0.031-0.569,0.656-1.109,1.01-1.671c0.527,9.262,0.958,18.54,1.602,27.804c0.3,4.299,0.702,8.637,1.594,12.846
	c3.168,14.998,4.831,30.111,4.324,45.451c-0.183,5.549,1.871,10.362,5.437,15.1l6.528,2.14
	c13.292-4.494,17.329-14.483,18.262-25.735c-2.366-13.177-4.872-25.543-6.707-38.01c-0.912-6.209-0.429-12.612-0.879-18.907
	c-0.646-9.005-1.573-17.988-10.171-24.66c-4.958,0.798-10.392-2.88-15.956,0.198C888.879,551.201,887.446,552.565,886.013,553.926z
	 M900.594,761.743c5.145-2.359,10.832-5.001,17.708-4.999c9.19,4.917,11.642,13.831,12.211,23.216
	c0.458,7.57,0.062,15.294-0.935,22.822c-1.377,10.397,0.169,20.476,1.706,30.625c0.248,1.631,0.75,3.23,0.964,4.867
	c0.723,5.511-1.308,9.866-6.099,12.583c-5.166,2.93-10.546,5.482-15.01,7.776c-4.599,0.475-7.357-1.254-10.417-3.953
	c-3.833-7.96-5.785-16.842-5.262-26.321c0.327-5.945,0.269-11.912,0.485-17.865c0.121-3.309-0.094-6.768,0.806-9.879
	c1.725-5.966,1.316-11.7,0.173-17.667c-0.739-3.863-0.625-7.924-0.569-11.889C896.407,767.681,897.378,764.508,900.594,761.743z
	 M901.617,763.739c-2.906,7.507-3.489,11.554-2.104,17.767c1.173,5.263,1.885,10.558,0.642,15.771
	c-3.131,13.117-1.335,26.408-1.621,39.606c-0.142,6.636,2.275,12.927,7.268,18.432c2.204-0.177,4.91,0.39,6.582-0.673
	c5.218-3.311,12.092-4.069,16.333-10.789c-0.181-3.098,0.112-7.132-0.733-10.91c-2.804-12.51-2.156-25.02-0.944-37.597
	c0.444-4.609,1.056-9.291,0.694-13.869c-0.66-8.33-2.929-16.173-10.136-22.343C917.598,759.134,901.617,763.739,901.617,763.739z
	 M929.005,434.719c-1.117,4.492-2.05,9.041-3.395,13.465c-2.348,7.712-6.328,10.681-14.552,11.02
	c-3.962,0.165-7.938,0.029-10.857,0.029c-6.924-2.625-9.449-7.555-11.284-13.177c-0.306-10.502,0.102-20.953,2.625-31.426
	c1.441-5.974,0.773-12.489,0.794-18.761c0.01-3.259-0.542-6.52-0.837-9.735c5.333-5.665,12.284-6.624,19.274-8.493
	c8.188,6.716,15.637,14.125,21.774,22.737c2.312,3.242,3.533,7.266,3.079,11.314c-0.912,8.16-2.385,16.221-6.951,23.349
	c0.013-1.604-0.227-3.286,0.129-4.834c0.74-3.221,1.935-6.338,2.689-9.558c2.254-9.595,1.506-18.432-6.478-25.504
	c-2.22-1.967-4.054-4.372-6.062-6.58c-2.904-3.192-6.053-6.045-10.165-7.672c-5.203,1.386-10.363,2.498-14.062,6.318
	c0,1.765-0.302,3.169,0.048,4.384c2.289,7.935,1.575,16.046-0.458,23.618c-2.383,8.866-2.135,17.705-2.475,26.61
	c-0.217,5.693,1.602,10.418,5.33,12.746c7.522,3.623,13.685,1.479,19.549,0.938c5.591-4.928,5.678-4.905,7.395-11.612
	C925.014,440.394,925.366,436.71,929.005,434.719L929.005,434.719z M920.308,493.404c-0.033,0.986,0.225,2.098-0.14,2.94
	c-5.222,12.018-4.706,24.629-3.645,37.214c0.356,4.232,1.777,8.41,3.002,12.525c0.862,2.892,2.373,5.505,6.028,6.843
	c7.736-2.219,14.214-7.274,21.301-12.677c0.398-2.615,1.127-5.507,1.227-8.418c0.346-10.262-0.735-20.611,2.11-30.703
	c-0.825-11.916,2.108-23.849-0.165-35.764c-0.117-0.613,0.192-1.304,0.3-1.959l-0.21,0.181c3.81,1.552,3.845,5.205,4.047,8.312
	c0.298,4.619-0.152,9.287-0.287,13.935c-0.094,3.296-0.206,6.593-0.285,9.889c-0.048,1.992,0.373,4.103-0.137,5.959
	c-2.331,8.487-1.833,17.111-1.854,25.748c-0.008,4.282-0.889,8.564-1.341,12.542c-4.583,6.666-11.5,9.495-17.691,13.227
	c-2.825,1.704-5.978,3.005-9.828,1.879c-3.106-1.736-5.049-4.757-6.264-8.289c-0.862-2.511-1.748-5.044-2.241-7.643
	c-2.139-11.227-1.685-22.499,0.208-33.684c0.752-4.444,1.712-9.124,6.062-11.893L920.308,493.404L920.308,493.404z
	 M912.565,1034.744c-0.583,1.173-1.435,2.288-1.7,3.532c-0.896,4.192-1.581,8.428-2.275,12.244c1.575,5.024,3.724,8.908,8.17,11.354
	c6.736,3.711,13.308,3.521,19.905-0.123c4.647-2.565,9.249-5.211,13.867-7.832c0.577-0.327,1.216-0.617,1.671-1.077
	c6.707-6.809,13.392-13.648,18.893-19.263c3.835-10.516-2.573-17.619-3.36-26.366c-2.433-0.075-4.718-0.571-6.807-0.135
	c-8.824,1.838-17.341,4.711-24.85,9.787c-3.243,2.194-5.791,5.39-8.801,7.96c-1.152,0.981-2.714,1.481-4.089,2.202
	c3.56-6.701,9.042-11.277,15.679-14.792c9.778-5.18,19.97-8.668,31.102-9.253c2.01,6.661,4.108,12.864,5.732,19.19
	c2.064,8.035-1.7,14.185-7.193,19.52c-3.558,3.455-7.261,6.755-10.915,10.108c-1.225,1.123-2.356,2.434-3.766,3.248
	c-6.022,3.486-12.011,7.068-18.245,10.139c-6.701,3.301-13.533,2.667-20.07-0.831c-7.047-3.769-10.317-10.414-8.888-18.311
	c0.585-3.242,1.623-6.401,2.579-10.072L912.565,1034.744L912.565,1034.744z M900.509,911.411c-4.32-1.488-5.245-4.93-4.391-8.77
	c1.225-5.511,1.758-11.062,2.352-16.648c0.296-2.786,1.61-5.859,3.406-8.02c7.28-8.768,16.166-14.656,28.246-13.781
	c2.968,0.217,5.943,0.373,8.713,0.544c8.045,3.482,12.454,9.891,15.41,17.54c2.137,5.532,4.187,11.095,6.389,16.942l-4.412,11.216
	c-3.443,0.952-6.557,2.175-9.78,2.638c-13.146,1.882-26.377,1.992-39.611,1.227c-2.527-0.144-5.37-0.294-6.678-3.253
	c8.236,0.333,16.514,1.342,24.698,0.833c9.478-0.59,19.232-0.046,28.154-3.836c4.068-3.303,4.385-7.487,3.022-11.837
	c-1.281-4.096-3.06-8.034-4.585-12.056c-2.656-7.011-6.951-12.683-13.821-17.094c-3.889,0-8.205-0.281-12.469,0.054
	c-10.919,0.863-17.904,7.68-23.378,16.365c-0.992,1.571-1.142,3.769-1.362,5.713c-0.558,4.88-0.933,9.783-1.521,16.171
	C899.17,906.387,899.84,908.898,900.509,911.411L900.509,911.411z M979.782,136.551l-4.176,2.813
	c-1.487,9.916-7.211,16.221-17.916,17.486c-6.461-2.975-8.972-8.441-9.499-15.302l-9.574-2.427
	c-2.235-3.886-4.664-7.414-2.491-11.854c2.75-0.285,2.747,1.89,3.72,2.988c0.873,0.986,1.537,2.213,2.554,3.005
	c1.283,0.996,2.768,1.804,4.276,2.415c1.181,0.479,2.535,0.533,3.395,0.696l8.02-9.635c6.58-2.146,11.067-0.142,14.685,4.505
	c1,1.286,1.885,2.732,3.116,3.744C976.825,135.755,978.226,135.957,979.782,136.551L979.782,136.551z M957.269,152.528
	c8.324-1.736,9.792-2.452,12.442-6.536c1.058-1.632,2.031-3.517-0.19-5.77l-8.438,6.245c-1.306-1.119-2.187-2.065-3.245-2.732
	c-1.244-0.786-2.639-1.325-4.295-2.13C950.93,147.04,954.582,149.33,957.269,152.528z M961.094,129.312
	c-2.55,2.207-5.835,3.755-5.903,8.691c4.316-0.294,8.174-0.402,11.977-0.902c1.331-0.175,2.537-1.321,3.941-2.107
	C969.036,130.802,966.161,129.189,961.094,129.312z M942.373,984.903c-0.573-0.271-1.427-0.381-1.677-0.829
	c-6.001-10.725-9.388-21.855-5.73-34.266c1.585-5.37,2.627-10.904,3.908-16.338c7.574-6.132,16.452-4.321,25.411-5.224
	c6.199,7.597,10.817,15.944,11.294,25.846c0.181,3.751-1.435,7.787-2.977,11.375c-2.214,5.157-5.191,9.979-7.69,15.019
	c-2.7,5.447-7.459,8.364-12.788,10.404c-2.041,0.783-4.685,1.086-5.741-2.004l-0.175,0.188c5.37,0.219,9.315-2.83,13.917-6.016
	c3.358-6.657,6.989-13.71,10.484-20.83c2.141-4.363,2.389-9.043,0.831-13.567c-2.143-6.228-4.306-12.531-9.255-17.476
	c-7.361-0.571-14.446-0.067-21.143,3.788c-0.958,4.326-1.496,8.649-2.893,12.675c-3.849,11.089-1.768,21.495,2.756,31.803
	c0.758,1.727,0.881,3.736,1.296,5.613L942.373,984.903L942.373,984.903z M934.235,753.256l8.622,3.496
	c4.562-1.071,10.128-0.546,14.237-4.784c0.256-0.577,0.742-1.173,0.758-1.779c0.312-12.925,1.341-25.762,3.699-38.504
	c0.939-5.07-0.475-9.981-3.439-14.156c-4.747-6.691-6.593-14.352-8.232-22.155c-0.61-2.903-1.668-5.707-2.358-8.595
	c-0.829-3.473-1.483-6.989-2.212-10.485l-0.2,0.188l2.993,2.202c2.023,7.722,4.037,16.044,6.426,24.258
	c1.008,3.461,2.683,6.755,4.287,10.01c1.606,3.259,3.506,6.374,5.262,9.529c0,4.394,0.331,8.718-0.062,12.973
	c-1.185,12.777-2.656,25.529-3.985,38.01c-5.501,5.232-11.892,6.243-18.966,5.888c-2.864-1.211-5.972-2.38-6.668-6.249
	L934.235,753.256L934.235,753.256z M909.553,734.334c-8.517-3.253-10.246-10.102-13.41-15.634
	c-3.297-5.768-1.946-12.312-2.333-18.559c-0.429-6.916,2.816-12.869,4.895-18.847l-0.896-5.14c0.844,0.254,1.737,0.242,1.991,0.64
	c2.306,3.617,5.105,7.076,6.612,11.018c4.67,12.237,6.939,24.962,5.564,38.112C911.709,728.433,910.585,730.853,909.553,734.334
	L909.553,734.334z M900.14,685.598c-0.927,3.103-2.258,6.145-2.712,9.316c-1.619,11.312-2.127,22.514,6.516,31.738
	c0.983,1.05,2.318,1.771,3.572,2.705c3.25-5.897,2.258-11.55,1.454-17.067C907.645,703.194,906.306,694.051,900.14,685.598z
	 M901.192,937.776c6.747-5.14,12.942-5.272,19.855-5.07c-0.304,1.256-0.431,2.021-0.679,2.742c-0.21,0.606-0.562,1.165-1.173,2.382
	c5.597,12.523,4.008,25.46-1.321,38.112c-1.491,3.54-3.21,7.447-8.757,8.353c-1.214-1.211-3.491-2.486-4.149-4.34
	c-1.433-4.032-2.877-8.37-2.797-12.556c0.129-6.807-1.489-13.119-3.599-19.986L901.192,937.776L901.192,937.776z M901.151,945.841
	c1.271,5.897,2.462,10.681,3.297,15.525c0.894,5.186,1.339,10.447,2.204,15.638c0.321,1.921,1.202,3.815,5.172,3.536
	c8.088-14.094,10.953-28.956,3.177-45.501l-9.882,2.298c-1.066,1.379-1.883,2.073-2.231,2.957
	C902.165,942.128,901.692,944.06,901.151,945.841L901.151,945.841z M962.402,867.121c3.885-3.326,5.043-7.13,6.01-10.922
	c1.054-4.142-0.408-7.795-2.868-11.158c-3.106-4.246-6.107-8.566-9.715-13.646c6.276,2.713,10.415,7.716,16.287,19.157
	c-0.49,7.657-1.439,15.638-9.886,20.013c-7.351-4.955-13.427-13.471-20.166-28.138c0-1.513-0.06-3.828,0.023-6.138
	c0.048-1.311,0.333-2.615,0.479-3.694c5.91-7.134,5.91-7.134,12.765-7.274c-2.541,1.559-4.341,2.567-6.035,3.728
	c-1.639,1.123-3.172,2.4-3.314,2.511c-2.025,5.113-1.814,8.487-0.31,11.489C949.949,851.6,954.136,860.268,962.402,867.121
	L962.402,867.121z M934.396,753.104c-4.141-0.888-5.595-4.457-7.084-7.647c-3.824-8.191-6.376-16.825-6.28-25.929
	c0.115-10.943,0.502-21.897,1.16-32.822c0.456-7.555,2.46-14.856,4.872-23.641c1.914,4.784,1.369,8.047,0.44,11.025
	c-3.331,10.66-3.381,21.603-3.341,32.58l0.006,12.962c0.05,10.866,2.387,21.045,8.861,30.036c0.706,0.977,0.819,2.38,1.206,3.588
	L934.396,753.104L934.396,753.104z M944.19,621.399l7.632-5.645c4.585-8.868,3.289-18.124,3.818-26.933
	c0.433-7.211-1.483-14.533-5.724-20.789c-5.516-5.638-11.852-1.596-18.645-1.323c5.166-4.809,10.975-3.696,16.156-4.734
	c5.143,3.088,7.78,7.659,9.209,12.867c1.848,6.734,3.131,13.565,1.991,20.668c-0.575,3.596-0.352,7.314-0.756,10.945
	c-0.783,7.028-3.81,12.685-10.498,15.811c-1.185,0.554-2.554,0.877-2.975-1.063L944.19,621.399L944.19,621.399z M910.445,329.674
	c6.818,0.25,8.363,5.763,9.792,10.652c1.344,4.599-1.344,8.172-5.078,10.877c-4.718,3.419-9.771,5.334-16.25,3.671
	c-4.385-6.313,0.323-13.06-0.433-19.051c2.1-4.288,4.958-6.772,9.065-7.972l3.237,2.069c-4.389-0.454-6.841,2.302-8.486,5.659
	c-2.7,5.495-2.806,11.264-0.985,17.749c7.686-0.942,13.846-3.042,16.135-10.389C917.313,336.875,913.49,333.493,910.445,329.674
	L910.445,329.674z M953.826,806.493c-11.205-5.367-14.025-12.556-9.417-23.847c4.058-2.819,8.73-4.649,15.283-4.905
	c-4.566,4.992-11.461,3.098-14.954,9.274c-1.135,3.434,0.508,7.426,2.637,11.208c1.485,2.636,3.522,4.861,7.53,4.817
	c5.922-4.294,8.813-9.939,6.272-17.611c2.048-1.221,2.587,0.452,2.862,1.521C966.237,795.502,963.445,800.947,953.826,806.493z
	 M927.963,199.735c-0.237-3.388-2.525-5.888-1.687-9.835c4.356,3.596,4.189,7.787,4.591,11.483
	c-2.739,5.399-6.195,9.068-11.865,10.656l-7.782-5.415l-2.483-6.18c3.356-4.415,5.116-10.314,13.487-10.083
	c-4.129,3.54-9.142,4.734-10.086,10.337c-0.385,4.555,3.591,6.007,6.991,7.982C923.851,207.628,926.628,204.709,927.963,199.735z
	 M893.756,510.872l-1.287,2.448c-4.668-2.196-5.803-6.488-8.051-10.554c0.248-2.307,0.492-4.913,0.814-7.512
	c0.531-4.242,1.362-8.462,1.61-12.719c0.346-5.976,1.966-11.389,6.187-16.059c-0.964,5.607-1.902,11.216-2.9,16.817
	c-0.983,5.522-2.025,11.031-3.06,16.663c0.69,4.669,2.271,8.862,6.947,11.162L893.756,510.872L893.756,510.872z M916.84,993.032
	h12.531c1.479,4.111-0.417,6.897-2.606,9.224c-3.493,3.715-8.055,5.322-13.379,5.603
	C910.478,1001.879,914.188,997.812,916.84,993.032z M915.721,1004.579c5.297-1.502,9.338-2.948,10.655-8.512
	c-3.487-1.679-6.366-1.661-9.728,1.225L915.721,1004.579L915.721,1004.579z M944.398,621.203
	c-6.191-2.727-9.521-8.224-11.044-14.104c-1.823-7.051-4.426-13.725-6.995-20.464c-1.652-4.334-1.614-4.349-1.01-9.549
	c1.979,4.972,4.151,10.429,6.318,15.888c0.729,1.838,1.814,3.625,2.093,5.532c1.096,7.462,4.739,13.59,9.344,19.33
	c0.721,0.898,0.74,2.363,1.083,3.565L944.398,621.203L944.398,621.203z M908.124,237.976c-2.075,1.611-3.191,2.544-4.379,3.376
	c-1.089,0.765-2.258,1.419-2.389,1.502c-0.794,5.201-0.206,8.664,1.554,11.781c7.83,0.706,11.702-3.288,11.604-15.411
	c2.743,4.019,3.006,7.726,0.625,12.129c-2.908,5.382-7.507,7.137-13.327,5.959c-4.079-5.597-4.079-5.597-2.91-14.773
	C900.794,239.789,903,237.524,908.124,237.976z M898.468,507.488c0.762-3.834,1.283-7.737,2.352-11.481
	c1.189-4.174,2.156-8.289,1.379-13.027c-0.644-3.319-4.143-6.263-3.077-11.11c4.024,4.082,5.339,8.795,6.674,13.737
	c-1.45,7.522-2.152,15.39-7.532,21.68C898.263,507.288,898.468,507.488,898.468,507.488z M942.573,368.942l3.612,2.102l0.254,5.665
	c-3.843,3.794-7.455,6.957-12.898,3.982c-0.092-7.151-0.092-7.151,2.979-13.944l4.468-1.108l1.948,3.617l-5.966,0.131
	c-0.206,3.203-0.435,5.743-0.473,8.285c-0.006,0.398,0.846,0.808,1.818,1.677l6.032-4.651L942.573,368.942L942.573,368.942z
	 M916.257,277.549l-3.439,13.721c4.047,6.914,10.59,3.255,17.199,2.569c-2.433,4.244-5.82,3.851-8.767,4.057
	c-4.089,0.288-7.918-0.465-10.736-4.69c-0.658-5.88,1.962-10.916,5.96-15.461L916.257,277.549L916.257,277.549z M934.864,340.117
	l-0.2,3.053l-2.935,0.192c-4.662-4.103-2.006-8.533-0.789-13.506l6.295-3.603c1.141,1.436,0.779,1.867-3.445,4.817
	c-2.098,2.85-2.164,6.061-1.539,9.874l2.627-0.815L934.864,340.117L934.864,340.117z M928.373,471.372
	c-0.635-2.79,1.166-4.342,3.068-5.686c3.768-2.663,7.634-5.192,11.444-7.764c1.658,1.294,0.685,2.415-0.294,3.125
	c-4.753,3.455-9.59,6.789-14.398,10.168L928.373,471.372z M928.194,471.218c-0.017,7.366-2.754,13.981-5.758,20.501
	c-0.337,0.733-1.404,1.129-2.131,1.686l0.198,0.167c-0.044-0.958-0.373-2.011-0.092-2.861c1.833-5.511,3.741-11,5.772-16.438
	c0.406-1.086,1.446-1.936,2.191-2.896L928.194,471.218z M916.471,277.747c0.015-0.633-0.227-1.461,0.083-1.871
	c3.208-4.236,6.166-5.845,13.781-7.318l-14.081,8.991L916.471,277.747L916.471,277.747z M936.172,276.359
	c0.325,9.714,0.325,9.714-3.729,15.463L936.172,276.359z M945.31,656.296l-14.11,4.572c2.133-4.794,5.616-5.774,13.871-4.349
	L945.31,656.296L945.31,656.296z M920.441,1029.781c-1.148,4.313-4.531,5.109-8.307,5.288
	C913.863,1031.675,917.74,1031.65,920.441,1029.781z M934.875,340.131c1.473-0.302,2.935-0.7,4.424-0.881
	c1.458-0.179,2.943-0.144,4.418-0.204l0.002-0.023l-4.62,2.5l-4.233-1.406L934.875,340.131L934.875,340.131z M946.383,988.887
	c-2.872,0.219-4.054-1.265-4.012-3.984l-0.169,0.165c2.743-0.075,3.981,1.359,4.006,4.007L946.383,988.887L946.383,988.887z
	 M894.016,511.12c1.341-1.386,1.727-3.944,4.451-3.632l-0.204-0.202c-0.664,3.523-0.664,3.523-4.493,3.601L894.016,511.12z
	 M943.715,339.046l-1.571-4.271l1.131-0.325l0.444,4.572L943.715,339.046L943.715,339.046z M950.324,463.406
	c-2.029-0.265-2.014-1.171-0.473-2.903l0.265,3.082L950.324,463.406z"/>
</svg>
