<svg xmlns="http://www.w3.org/2000/svg" viewBox="779.997 0 360 1080.003" enable-background="new 779.997 0 360 1080.003"><path opacity=".2" enable-background="new" d="M936.001 1032.26c-16.545 0-16.545 25.686 0 25.686s16.544-25.686 0-25.686zm13.302-428.082c-16.545 0-16.545 25.686 0 25.686s16.545-25.686 0-25.686zm63.488-121.917c-5.677-3.331-14.498-1.688-17.552 4.608-1.461 3.014-2.494 6.136-3.673 9.233l-.128.28c-3.054 6.299-1.769 13.836 4.604 17.572 5.68 3.331 14.498 1.685 17.552-4.608 1.461-3.02 2.5-6.148 3.679-9.25l.12-.266c3.052-6.296 1.774-13.832-4.602-17.569zm-24.573-115.975c-6.633-12.844-23.223-6.691-25.957 4.445-5.748-9.536-23.885-7.382-23.885 6.562v26.634c0 16.564 25.658 16.564 25.658 0v-22.363c11.781 23.323 12.817 46.018 12.829 71.829.006 18.404 28.514 18.406 28.506 0-.016-31.391-2.547-58.828-17.151-87.107zm105.518-213.021c-23.029-2.414-48.501.331-57.982 24.649-2.354 6.039 2.543 14.75 8.959 15.798 14.958 2.448 27.752-.557 39.089-10.913 1.573-1.437 2.637-2.991 3.282-4.579 2.637.263 4.972.557 6.65.734 16.453 1.716 16.287-23.983.002-25.689zm-219.485 22.743c-1.912-6.953-8.973-10.547-15.78-8.968-6.379 1.477-12.863 1.44-19.396 1.443-6.992.003-12.829 5.839-12.829 12.841 0 6.999 5.836 12.844 12.829 12.841 8.825-.006 17.578-.363 26.217-2.363 6.813-1.573 10.757-9.258 8.959-15.794zm123.005 393.457c-11.938-33.77-6.698-74.229-26.268-105.676-5.094-8.185-12.76-12.161-22.358-10.55-9.501 1.594-14.23 12.798-17.275 20.515-6.188 15.695-2.346 31.182 6.918 44.563 5.468 7.899 9.307 15.341 12.001 24.66 2.877 9.939.18 22.017-.023 32.188-.288 14.518 17.361 17.558 25.027 9.193 9.94 6.685 26.941-.846 21.978-14.893zm14.707 61.122c1.484-8.262 2.683-16.561 2.905-24.983.485-18.412-28.024-18.366-28.506 0-.148 5.662-.782 11.307-1.641 16.932-4.395 1.491-7.714 5.077-9.253 9.716-1.293 3.902-2.135 7.879-2.871 11.893-1.869.286-3.819 1.046-5.782 2.411-14.764 10.259-20.318 18.932-12.715 36.647 1.818 4.234 7.854 7.371 12.307 7.068 4.658-.317 8.562-1.191 11.873-2.52.856 4.828 2.238 9.65 4.327 14.478 3.088 7.139 13.414 8.696 19.502 5.119 23.673-13.9 28.825-57.846 9.854-76.761zm21.859 96.571c-8.97-19.421-36.674-13.136-46.635 1.36-8.017-6.351-15.591-13.898-24.011-18.398-22.695-12.13-42.853 22.363-20.144 34.499 5.431 2.905 10.246 6.539 14.929 10.356-11.362 12.016-14.944 28.414-7.104 43.866 8.588 16.918 32.053 19.463 46.409 9.285 10.648-7.553 15.714-17.458 18.388-28.617 8.422-.906 14.77-6.342 17.507-14.481 4.317-12.838 6.537-25.151.661-37.87zm3.139 97.637c-1.544-10.796-15.075-16.561-24.547-13.953-11.467 3.157-15.477 13.804-13.936 24.577-.422-2.965.046 4.794.031 4.157.049 2.46-.168 4.922-.374 7.371-.277 3.28-2.089 9.696-3.459 13.998-3.302 10.376 3.77 21.775 13.936 24.574 10.802 2.974 21.248-3.588 24.547-13.953 4.901-15.392 6.08-30.835 3.802-46.771zm-83.856 122.323c-10.877 0-19.955 9.087-19.955 19.978v30.442c0 10.89 9.076 19.978 19.955 19.978 10.877 0 19.955-9.088 19.955-19.978v-30.442c0-10.89-9.079-19.978-19.955-19.978zm85.757 56.522c-3.159-10.41-13.853-16.898-24.547-13.953-5.657 1.557-10.252 5.694-12.726 10.83-4.492-.863-9.167-.22-12.946 2.6-4.107 3.065-7.649 5.959-10.814 9.956-1.855 2.34-3.647 4.725-5.411 7.136l-.243.337-.873.911c-13.868 15.044-.163 37.587 19.416 33.39 11.342-2.431 22.367-3.674 32.864-9.056 15.668-8.029 20.095-26.27 15.28-42.151zm7.418-90.069c-4.612-6.888-11.031-11.919-19.125-14.073-7.934-2.108-16.408-1.306-24.242.769-7.121 1.885-12.292 7.719-14.005 14.527-6.476 4.762-9.387 13.213-7.535 21.466 4.041 17.992 13.816 39.75 35.293 40.061 16.693.246 28.072-14.538 32.753-28.968 3.434-10.585 3.222-24.28-3.139-33.782zm-72.335-46.246c-3.159-11.881-10.751-20.709-10.389-33.408.733-25.78-39.18-25.711-39.911 0-.351 12.333 2.811 22.917 7.597 34.107 3.508 8.193 6.764 13.593 2.726 22.4-10.651 23.243 23.737 43.561 34.462 20.166 6.534-14.252 9.627-27.81 5.515-43.265zm-38.895-842.011c-2.006-25.508-41.931-25.706-39.911 0 1.65 21.003 1.65 41.784 0 62.784-2.021 25.706 37.904 25.508 39.911 0 1.65-21.003 1.65-41.783 0-62.784zm86.708 53.668c-3.79-21.589-6.287-43.346-11.402-64.69-6.005-25.046-44.488-14.418-38.486 10.624 5.114 21.343 7.615 43.098 11.402 64.69 4.449 25.343 42.907 14.568 38.486-10.624z" fill="#fff"/><path opacity=".6" d="M1010.245 442.871l-3.519 17.926c-1.67 3.814-5.052 6.548-11.339 7.705l-11.724-3.634c-9.367-6.468-12.389-14.541-12.672-24.311-.26-9.105-1.127-18.215-2.155-27.274-1.13-9.987-2.389-19.906-.836-29.985.405-2.628-.24-5.428-.474-8.145-.614-7.125 1.05-13.536 6.222-19.815l16.222-5.457c1.085 1.868 2.258 3.305 2.797 4.954.705 2.148 1.013 4.448 1.31 6.705 1.193 9.039 1.644 18.241 3.656 27.088 1.895 8.333 5.406 16.295 8.719 25.908 1.598-6.068 1.053-10.742.482-15.452-2.797-23.08-5.54-46.163-8.331-69.243-.043-.354-.462-.663-1.307-1.814-2.109 1.268-4.424 2.423-6.473 3.931-7.426 5.477-15.671 9.287-24.396 12.067-8.693 2.771-17.033 2.877-24.333-3.845-1.242-1.143-3.045-1.668-4.943-2.671-2.726 4.999-3.413 9.987-3.676 14.867-.853 15.907-2.406 31.731-1.107 47.792 1.21 14.947.343 30.071.154 45.115-.24 19.132-.925 38.261-1.016 57.393-.046 10.016.987 20.035 1.13 30.059.111 7.742-.1 15.518-.699 23.24-2.266 29.122-3.916 58.239-3.71 87.484.257 36.967.571 73.96-.599 110.898-1.027 32.336-3.042 64.664-6.048 96.929-2.238 24.029-4.926 48.043-4.849 72.297.066 20.949-1.761 41.901-2.289 62.861-.494 19.629-2.346 39.11-4.749 58.573-.876 7.099-.956 14.298-1.407 21.569l-3.822-1.3c-.131-4.137-.725-8.636-.325-13.05 1.022-11.347 2.509-22.655 3.742-33.988.394-3.622.691-7.265.825-10.907 1.224-33.719 1.984-67.464 3.733-101.16 1.276-24.586 3.998-49.091 5.774-73.657 1.744-24.114 3.856-48.234 4.461-72.386.89-35.567.802-71.163.719-106.748-.057-25.109-.422-50.274 2.323-75.206 3.114-28.285 1.31-56.502 1.373-84.756.054-24.154.588-48.306.848-72.463.077-7.293.206-14.604-.148-21.883-1.153-23.786-.642-47.412 5.768-69.403l-2.569-18.269c-9.943-35.87-18.611-72.32-34.614-106.313l-9.624-6.745c-7.983 8.219-16.405 14.895-27.356 17.747-10.934 2.848-21.665 2.123-32.667-.169-8.157-3.868-15.306-9.082-21.434-16.207-4.033-4.691-9.804-7.93-14.966-11.581-2.92-2.051-6.182-3.622-10.329-6.016 2.004-1.617 3.065-3.037 4.447-3.497 10.129-3.357 18.788-8.825 26.48-16.31 5.525-5.377 11.787-10.073 18.092-14.547 12.732-9.033 34.017-8.162 47.748 1.606 2.106 1.5 4.087 3.171 7.075 5.505 1.093-8.919 1.818-16.367 4.598-23.754 4.695-12.49 13.651-18.821 25.395-22.692 4.692-1.548 9.398-3.068 14.458-4.719 0-9.342.642-18.009-.157-26.54-1.119-11.947-.151-23.677 1.336-35.47 1.13-8.959.831-9.976-4.347-21.577-7.438-3.025-15.352-2.68-22.772-.748-4.449 3.894-4.812 8.493-4.689 13.067.608 22.763-.017 45.672 7.6 67.672.611 1.76-.023 3.945-.094 6.434-1.624-.971-2.845-1.26-3.04-1.877-4.792-15.235-8.391-30.676-7.831-46.823.094-2.717-.094-5.468-.442-8.168-1.652-12.841-2.043-25.528 6.036-39.595l5.66-4.657 14.008-.728c11.619 11.11 16.094 23.817 14.359 38.85-.522 4.531-.482 9.153-1.316 13.618-1.019 5.471-1.019 10.742-.049 16.25.862 4.899.539 10.002.799 15.01.231 4.474.548 8.945.859 13.998 16.576 2.68 32.17 1.334 48.69-1.786.474-8.582.303-17.084-1.433-25.574-3.867-18.886-4.427-38.016-4.064-57.202.026-1.351.394-2.694.759-5.042l8.699-8.165 11.096.774c6.647 6.625 8.833 13.944 9.433 21.843.311 4.088.046 8.222.334 12.313.636 9.073 1.264 18.158 2.263 27.2.999 9.053 1.187 18.004-.631 28.782-1.293-3.014-2.198-4.194-2.272-5.428-1.122-18.624-2.101-37.256-3.179-55.885-.505-8.73-1.712-12.864-5.477-19.495l-15.218 1.888c-3.356 27.894 2.066 55.188 4.969 82.656 8.95 4.122 17.221-2.994 27.795.02l8.277 5.776c4.792 7.908 8.942 16.141 9.986 25.291 1.01 8.842.793 17.821 1.125 26.937 1.607-.474 2.797-.463 3.068-.957 7.135-13.056 20.164-17.929 32.619-23.486 6.519-2.908 13.579-2.048 20.241-.891 15.326 2.663 27.815 10.567 38.178 22.135 2.923 3.26 6.658 5.791 10.531 9.09l-1.11 5.394c-1.159 1.108-1.71 1.988-2.489 2.331-12.272 5.394-22.221 14.016-32.342 22.557-15.943 13.458-34.964 18.741-55.987 19.949l-15.009-9.985c-4.175 10.83-3.867 21.586-3.165 32.336 1.156 17.644-1.364 34.536-10.463 49.943-4.82 8.159-7.198 17.961-15.54 23.234-.448 1.88-1.122 3.225-1.016 4.502 2.32 28.082 4.535 56.171 9.096 84.022 1.321 8.076 1.153 16.392 2.429 24.477 1.912 12.133 4.061 24.26 6.878 36.207 6.733 28.568 8.385 57.676 10.449 86.798 1.775 25.017 4.535 49.963 6.861 74.94 1.227 13.167 2.683 26.314 3.642 39.498 2.215 30.482 4.349 60.967 6.216 91.472 2.089 34.142 3.784 68.306 5.762 102.457 1.555 26.857 3.373 53.702 4.869 80.568.457 8.193.048 16.43.342 24.637.93 25.98 1.841 51.965 3.108 77.934.554 11.379 2.049 22.709 2.905 34.076.231 3.068-.311 6.194-.505 9.425l-3.408-.897c-.351-1.134-1.013-2.383-1.093-3.671-1.755-27.768-3.687-55.508-4.478-83.342-1.179-41.484-2.32-83.01-5.254-124.391-2.452-34.599-3.433-69.241-5.474-103.837-1.53-25.946-4.147-51.825-6.17-77.745-1.279-16.37-2.129-32.768-3.565-49.117-2.075-23.629-4.604-47.215-6.753-70.835-1.815-19.983-3.365-39.987-5.04-59.984-1.795-21.395-6.053-42.327-13.451-63.31zm-21.459-128.171c13.876-7.076 20.375-18.321 26.677-30.165 8.157-15.327 11.713-31.336 11.225-48.58-.283-9.979.4-19.983.539-29.977.037-2.545-.34-5.097-.511-7.462l-13.191-1.923c-5.511-5.491-5.334-11.467-5.366-15.478 2.828-13.947 12.272-19.303 22.518-23.532 1.958-17.772.231-34.182-8.419-48.96-5.24-5.582-11.542-6.036-18.037-5.379-8.605.871-17.158 2.377-25.775 2.908-11.801.728-23.643.971-35.467 1.091-12.067.12-23.323 3.44-34.325 7.936-6.113 2.497-10.414 6.782-13.705 12.659-6.984 12.473-8.148 24.734-.791 37.313l16.476-1.291 11.833 14.601c-2.323 5.891-4.412 11.247-6.541 16.59-2.549 6.394-9.915 7.245-13.611 10.833 6.504 18.089 12.986 35.09 18.7 52.351 4.575 13.816 8.305 27.917 12.232 41.941 2.021 7.219 4.578 13.878 12.495 17.118 1.986.131 4.275.551 6.519.383 12.228-.917 24.452-1.979 36.525-2.977zm-167.172-132.97c14.627-16.384 25.284-18.272 50.174-9.362l2.834-4.102 11.162 8.156 3.856-7.108c-3.476-3.974-6.71-7.173-9.347-10.807-3.958-5.448-9.355-8.61-15.517-10.573-13.582-4.325-25.575-1.848-37.071 7.068-11.673 9.053-21.231 20.889-34.87 26.454 7.326 7.162 14.202 14.378 21.619 20.983 6.521 5.802 13.948 9.959 23.115 10.613 19.527 1.4 35.641-4.739 47.779-19.981-.023-4.219-1.57-6.545-5.528-6.571-6.33 3.728-12.464 7.659-18.885 11.036-6.382 3.357-13.305 3.722-19.707.334-7.592-4.013-14.182-9.466-19.614-16.14zm180.466 279.836c.711-4.165 1.784-8.99 2.317-13.878 1.667-15.315-2.589-29.854-7.164-44.069-3.373-10.487-5.831-20.975-6.918-31.876-.405-4.048-1.093-8.079-1.926-12.061-.243-1.16-1.433-2.117-2.763-3.96l-11.673 3.714c-.682 4.597-1.581 8.536-1.807 12.516-1.344 23.717 2.297 47.2 3.736 70.777.856 14.044 6.424 18.604 21.682 21.392l4.516-2.555zm108.646-300.89c-13.811 25.42-40.379 36.796-66.813 28.262l-8.317 6.379c2.086 6.522 7.084 9.522 13.622 12.924 17.238.229 33.694-5.359 48.527-15.824 5.925-4.18 11.062-9.465 16.853-13.861 5.737-4.357 11.841-8.228 17.783-12.31-5.562-10.67-14.224-17.846-24.128-23.486-11.49-6.545-24.005-8.865-36.728-4.748-6.821 2.208-13.126 6.219-19.376 9.905-2.392 1.411-3.981 4.177-7.906 8.488 7.098-2.003 11.33-3.311 15.626-4.391 8.031-2.017 16.171-3.008 24.234-.457 8.56 2.708 16.997 5.802 26.623 9.119zm-7.72 3.593c-12.081-6.668-23.877-11.487-37.676-8.762-8.528 1.683-16.816 3.477-22.47 12.079l3.936 5.337 11.913-8.328c.311 1.523 1.142 3.025.716 3.954-2.101 4.631-4.912 8.61-10.283 10.119-1.49.417-2.651 2.014-4.172 3.24 3.727 7.053 10.046 6.742 15.617 6.416 17.638-1.034 31.891-8.531 42.419-24.055zm-274.625 17.904c4.495 3.651 8.217 6.888 12.167 9.822 3.396 2.523 7.361 3.471 11.582 2.72 9.518-1.691 17.646-5.782 23.974-13.393-15.244-12.479-33.313-14.153-47.723.851zm125.651 159.516c3.89-.791 7.515-1.26 10.979-2.283 10.548-3.108 20.569-7.302 28.226-15.65 1.347-1.468 3.667-2.823 1.527-6.171l-12.426 2.24c-10.249 11.124-17.878 12.444-30.706 2.603l-15.098-3.694c-.023 12.176 5.914 19.024 17.498 22.955zm86.745-167.464c-3.154-5.208-6.307-8.173-10.597-9.71-8.81 1.666-9.121 1.466-11.967 5.305-1.324 1.786-1.296 4.577-2.095 7.768 8.725.014 16.34 1.463 24.659-3.363zm-124.951 4.011c-2.255-3.6-3.419-6.514-5.503-8.425-1.436-1.317-4.338-2.083-6.236-1.628-3.816.914-7.717 2.345-10.937 4.522-1.792 1.211-2.28 4.351-3.764 7.482 8.879.443 16.705 3.243 26.44-1.951zm-25.564 15.947c2.178 3.514 5.023 5.885 8.987 5.539 3.057-.266 6.319-.98 8.967-2.445 3.73-2.06 5.642-5.788 5.802-10.145.023-.646-.91-1.326-1.578-2.234l-4.549 1.4c-2.743 2.74-.611 8.296-6.784 8.41l-4.835-8.97-6.008.497-.002 7.948zm139.484-.123c3.339-2.548 6.37-4.519 8.962-6.962 1.804-1.697 1.912-3.94-.283-5.542-5.568-.9-5.848 4.837-8.665 6.714-5.288 1.697-7.777-1.471-10.431-4.748-.608-.751-2.477-.483-3.73-.677-1.456 4.717-1.456 4.717 1.273 9.936l12.874 1.279zm-109.163-180.962c-7.629-5.939-8.442-5.865-14.373 0h14.373zm41.749 308.265l2.671 3.937 9.084-4.694-11.755.757zm30.001-311.627c-.066-.3-.04-.76-.22-.863-.305-.18-.742-.137-1.122-.186l.265 1.388 1.077-.339zm-44.699 440.1c5.911-2.38 10.443-1.083 14.938 1.754 4.846 3.06 8.348 6.968 9.624 12.661 1.787 7.968 3.545 15.944 5.374 23.906 2.543 11.082 6.045 21.666 11.025 32.088 7.497 15.675 10.743 32.768 10.431 50.366-.134 7.548-3.054 13.219-9.952 16.501-4.501 2.143-8.947 4.639-13.699 5.959-11.159 3.097-21.439-1.737-25.378-12.667-2.74-7.608-5.157-15.892-5.094-23.852.2-24.246-3.676-48.089-5.62-72.117-1.033-12.773 3.151-23.98 8.351-34.599zm45.578 127.517c.263-2.643.788-5.334.756-8.019-.203-17.544-3.859-34.393-11.299-50.257-3.899-8.308-7.081-16.744-8.896-25.731-1.624-8.022-3.502-15.99-5.129-24.011-1.327-6.542-3.91-12.093-11.019-15.187l-6.747 1.151c-8.962 14.535-7.092 29.625-5.343 44.566 1.804 15.387 3.508 30.728 3.799 46.26.168 9.045 1.732 18.089 3.097 27.074.91 6.016 3.579 11.282 9.39 14.724 12.863 4.528 22.541-1.18 31.391-10.57zm-17.121 148.177c13.291.597 27.136-1.683 40.59 3.917 2.826 1.954 4.835 4.917 4.917 8.845.368 17.878.151 35.67-9.946 51.517-1.946 3.06-3.576 6.691-6.319 8.802-8.251 6.348-16.553 12.85-25.629 17.846-10.606 5.839-21.345 1.437-25.492-10.033-2.286-6.325-3.262-13.279-3.83-20.029-.725-8.619-.99-17.361-.44-25.986.599-9.365-1.025-18.135-4.232-26.774-2.397-6.454-4.053-13.064-3.976-20.006.071-6.314 2.212-11.516 7.766-14.778 11.633 5.27 14.53 8.184 26.591 26.679zm39.851 9.63c-3.362-3.785-8.108-4.057-12.543-4.351-7.224-.48-14.49-.28-21.739-.346-3.08-.029-6.159-.003-9.367-.003-5.725-10.067-8.979-21.766-22.027-25.728-1.01 2.291-2.651 4.582-2.985 7.051-.805 5.948.4 11.736 2.569 17.358 4.138 10.727 5.699 21.672 5.169 33.348-.554 12.181.836 24.486 1.872 36.693.517 6.068 3.042 11.45 10.928 14.844l9.601-.937c7.792-5.222 13.948-9.073 19.778-13.37 3.237-2.388 6.693-5.057 8.733-8.399 10.323-16.921 12.555-35.57 10.62-54.945-.044-.426-.398-.812-.609-1.215zm-58.117-76.551c1.279-2.545 1.844-4.357 2.94-5.748 9.064-11.499 15.572-24.549 22.869-37.139 6.013-10.37 14.838-18.166 25.335-24.514 6.63 6.465 8.271 14.513 8.973 22.64 1.333 15.418 2.246 30.874 3.085 46.329.345 6.356.371 12.767-.011 19.121-.568 9.419-3.699 17.786-11.627 23.794-6.693 2.271-13.571 1.183-20.238.217-3.847-.557-8.274-2.208-10.945-4.868-11.211-11.161-17.975-24.757-20.381-39.832zm50.014-60.582c-9.681 5.031-15.823 11.873-20.215 19.786-7.475 13.47-14.359 27.254-24.827 39.313 2.218 16.835 9.647 30.162 21.671 40.978l18.428 2.505c8.827-2.431 11.53-8.842 12.369-15.715.985-8.068 1.21-16.321.816-24.449-.748-15.41-2.226-30.782-3.296-46.177-.379-5.47-1.627-10.581-4.946-16.241zm-14.09 303.391c6.647-.994 13.331-1.994 21.294-3.188l5.834-3.454c3.251.286 6.521.126 9.535.931 7.68 2.048 12.914 8.368 12.566 15.844-.677 14.464-1.875 28.908-2.708 41.147-5.711 14.121-18.16 15.852-27.673 21.88l-22.207 2.814c-8.83-2.551-14.284-8.85-13.597-18.726 1.242-17.764 4.384-35.216 12.521-51.357.799-1.58 2.152-2.892 4.435-5.891zm44.057 7.776c-2.871-5.576-6.307-8.37-10.928-9.627-.765-.209-1.695.177-2.546.291l-3.259 4.377c-8.154-.026-16.385-2.146-23.608.763-5.246 3.994-7.112 9.039-9.033 14.241-4.304 11.67-5.249 23.986-7.358 36.064-1.276 7.294.908 13.51 8.636 17.584 5.757-.309 12.078-.646 18.879-1.014 7.532-6.745 19.984-6.191 25.406-16.464 5.053-15.699.949-31.8 3.811-46.215zm-72.141 129.676c.813-2.374 1.284-5.659 2.914-8.208 10.511-16.432 23.845-29.762 42.419-36.95 7.369-2.851 8.75-2.845 20.538-1.3l8.551 27.465c-4.09 10.139-4.752 20.609-13.146 28.06-14.541 2.217-29.003 6.468-44.203 3.574-7.495-1.425-14.125-3.65-17.073-12.641zm4.604 1.523c3.236 2.391 5.463 4.788 8.205 5.914 7.315 3 15.055 3.317 22.838 2.143 5.388-.814 10.794-1.577 16.122-2.691 3.051-.637 5.965-1.928 9.401-3.083l8.062-22.235c-1.01-3.751-2.049-7.668-3.119-11.573-1.184-4.311-2.395-8.613-3.842-13.804-11.447-.323-21.713 3.968-29.924 10.782-10.97 9.093-23.337 17.718-27.743 34.547zm-39.982-81.382c2.129-2.96 3.382-4.845 4.792-6.602.839-1.043 1.932-1.88 3.071-2.957 5.497-1.517 11.059-3.597 17.287-1.083.554 1.643 1.478 3.294 1.63 5.014.725 8.279 3.841 15.75 7.112 23.254 2.155 4.945 3.91 10.119 5.251 15.341 2.329 9.068.682 17.078-8.354 23.426h-20.326c-8.847-6.931-12.563-15.435-11.644-26.36.833-9.881.816-19.837 1.181-30.033zm7.446-3.837c-6.196 15.644-2.523 30.748-4.018 45.563l7.657 10.724c7.663 1.885 14.259 2.457 20.198-1.883 5.109-9.145 5.348-9.207 3.385-16.555-1.515-5.665-3.739-11.142-5.637-16.707-1.895-5.554-3.819-11.099-5.645-16.672-.825-2.523-1.444-5.111-2.306-8.196-2.677.391-4.886.503-6.97 1.071-2.12.59-4.118 1.621-6.664 2.655zm68.556-71.628l-6.102-9.305c-4.135-19.015-1.972-36.299 4.892-53.077 1.547-3.785 1.718-3.714 8.922-8.133 9.918 5.514 16.642 13.764 17.786 25.291.933 9.416.765 19.001.271 28.471-.32 6.148-4.027 10.973-9.227 14.413-4.68 3.094-9.532 5.382-16.542 2.34zm5.626-2.64c9.952-1.797 14.15-7.739 15.731-16.847 1.841-10.61.645-20.883-2.149-30.976-1.829-6.608-6.05-11.773-12.047-14.704-1.63 1.108-2.714 1.44-3.031 2.125-5.169 11.25-8.254 23.049-8.008 35.473.097 4.957 1.122 9.925 2.069 14.821.796 4.111 2.745 7.671 7.435 10.108zm-59.013 47.731l-2.306 3.137c-1.57-.231-3.099-.063-4.175-.683-5.18-2.988-7.432-8.073-8.02-13.607-1.199-11.293-2.474-22.637-2.6-33.973-.245-22.277 1.989-44.583-1.221-66.821-.368-2.565-.588-5.562 2.865-6.908.562.417 1.615.797 1.69 1.314 1.892 13.513 2.783 27.014 2.3 40.735-.685 19.506-3.214 39.055-.017 58.593.959 5.865 1.535 11.77 6.387 16.644l4.76 1.257.337.312zm-.34-.311c1.521-8.333 6.262-15.027 11.319-21.432 6.596-8.353 10.714-17.904 14.481-27.334.634-9.419-4.29-16.992-6.43-25.286-2.146-8.313-7.546-14.578-12.603-20.886-5.3-6.608-11.793-12.258-18.574-19.143 2.494-.12 4.107-.717 4.872-.157 19.584 14.321 31.431 33.747 36.917 57.176 1.039 4.439 1.027 9.062-1.179 13.37-2.905 5.674-5.431 11.576-8.716 17.015-5.163 8.553-10.774 16.841-16.348 25.14-.639.951-2.246 1.251-3.405 1.854l-.334-.317zm-3.313-560.68c1.042.529 2.534.777 3.06 1.628 9.98 16.107 11.427 33.205 5.34 50.977-1.356 3.962-3.582 7.551-10.215 6.248l-7.92-11.81c-.776-11.067-2.015-22.38-2.175-33.707-.083-5.782 1.593-11.633 2.857-17.369.451-2.045 1.65-4.234 5.049-4.519 0 1.194.294 2.348-.071 3.234-.511 1.226-2.049 2.171-2.223 3.371-2.691 18.572-3.984 37.061 4.812 54.619.36.717 1.344 1.12 2.038 1.668 6.056-6.068 6.556-10.199 6.105-25.837-.278-9.877-3.252-18.59-6.657-28.503zm55.271 153.047c6.344-10.316 6.344-10.316 2.269-28.254l-7.041-9.579c1.37-.317 2.537-.817 3.685-.774.799.029 1.655.694 2.343 1.251 6.707 5.422 7.332 13.193 7.792 20.92.437 7.328.482 14.653-7.463 19.592l-6.085-1.391c-5.631-10.056-10.46-19.866-5.246-32.568 4.501 3.708 1.267 7.433 1.912 10.522.645 3.085 1.11 6.256 2.22 9.176 1.233 3.241 3.111 6.24 5.614 11.105zm-73.591 541.22c-6.165-2.014-8.354-5.268-9.661-9.559.123-5.337 4.381-8.482 6.818-12.601 5.665-2.214 10.742-5.502 17.706-3.408l5.645 10.165c-1.523 13.067-12.206 12.784-20.508 15.403zm12.735-20.389c-7.004-1.46-11.75.548-15.206 5.434-1.219 1.723-1.75 3.931-2.646 6.034l3.993 4.974c7.149-2.143 14.441-1.923 16.382-10.819l-2.523-5.623zm13.961-431.589c.491 6.634 3.459 13.324-1.704 19.221-8.619.554-8.619.554-14.441-7.131l4.144-24.4c1.767.751 4.027 1.031 5.103 2.308 2.589 3.071 4.618 6.611 6.898 10.002zm-5.807-2.806c-5.026 5.676-5.417 10.01-6.579 14.461l6.618 5.062c4.544-6.367.888-11.604-.039-19.523zm-2.991-383.198c-3.082 11.13-2.569 22.389-1.424 34.139l6.484.68c3.887 14.138 1.458 22.057-7.968 25.857-3.696-2.414-3.219-6.136-3.008-9.767.314-5.399 1.635-10.962.771-16.161-1.841-11.062.186-21.683 1.47-32.296l3.705-2.417-.03-.035zm3.407 44.949c-4.712.743-4.712.743-3.137 7.936l3.137-7.936zm32.119-40.458l2.943.631 2.82 13.476-1.778 13.298c2.911 7.505 5.371 15.37 2.606 23.614-.622 1.857-2.694 3.225-4.427 5.191l-5.948-4.328c-2.072-10.039-4.795-19.866 5.56-27.974l-1.527-24.189-.249.281zm-.622 35.553c-.177 4.634-2.917 9.696 2.5 13.624 1.718-7.733 1.718-7.733-2.5-13.624zm-32.481-73.689c-.494 2.628-1.287 5.242-1.43 7.891-.459 8.57-.679 17.152-.99 25.743l.026.046c-3.108-10.113-.799-20.226.171-30.319.106-1.111 1.558-2.094 2.386-3.131l-.163-.23zm33.349 37.856c-.565-3.914-1.016-7.848-1.735-11.73-.385-2.083-1.23-4.08-1.867-6.114l-.026.017 3.867 1.663c.676 5.414 1.889 10.89-.445 16.398l.206-.234zm-33.187-37.63l-1.264-15.981c2.56 5.159 2.223 10.385 1.056 15.687l.208.294zm29.585 19.786c.029-5.768.405-11.587-2.406-16.955l-.137.191 4.364 2.5-1.847 14.275.026-.011zm-5.032-40.309l.665 6.231-.665.04v-6.271zm2.626 23.351l-.388-7.248c2.423 3.16 1.019 5.242.302 7.368l.086-.12z"/></svg>