<?xml version="1.0" encoding="utf-8"?>
<!-- Generator: Adobe Illustrator 17.1.0, SVG Export Plug-In . SVG Version: 6.00 Build 0)  -->
<!DOCTYPE svg PUBLIC "-//W3C//DTD SVG 1.1//EN" "http://www.w3.org/Graphics/SVG/1.1/DTD/svg11.dtd">
<svg version="1.1" id="Layer_1" xmlns="http://www.w3.org/2000/svg" xmlns:xlink="http://www.w3.org/1999/xlink" x="0px" y="0px"
	 viewBox="779.997 0 360 1080.003" enable-background="new 779.997 0 360 1080.003" xml:space="preserve">
<g>
	<path opacity="0.2" fill="#FFFFFF" enable-background="new    " d="M936.001,1032.26c-16.545,0-16.545,25.686,0,25.686
		S952.545,1032.26,936.001,1032.26z"/>
	<path opacity="0.2" fill="#FFFFFF" enable-background="new    " d="M949.303,604.178c-16.545,0-16.545,25.686,0,25.686
		S965.848,604.178,949.303,604.178z"/>
	<path opacity="0.2" fill="#FFFFFF" enable-background="new    " d="M1012.791,482.261c-5.677-3.331-14.498-1.688-17.552,4.608
		c-1.461,3.014-2.494,6.136-3.673,9.233l-0.128,0.28c-3.054,6.299-1.769,13.836,4.604,17.572c5.68,3.331,14.498,1.685,17.552-4.608
		c1.461-3.02,2.5-6.148,3.679-9.25l0.12-0.266C1020.445,493.534,1019.167,485.998,1012.791,482.261z"/>
	<path opacity="0.2" fill="#FFFFFF" enable-background="new    " d="M988.218,366.286c-6.633-12.844-23.223-6.691-25.957,4.445
		c-5.748-9.536-23.885-7.382-23.885,6.562v26.634c0,16.564,25.658,16.564,25.658,0v-22.363
		c11.781,23.323,12.817,46.018,12.829,71.829c0.006,18.404,28.514,18.406,28.506,0
		C1005.353,422.002,1002.822,394.565,988.218,366.286z"/>
	<path opacity="0.2" fill="#FFFFFF" enable-background="new    " d="M1093.736,153.265c-23.029-2.414-48.501,0.331-57.982,24.649
		c-2.354,6.039,2.543,14.75,8.959,15.798c14.958,2.448,27.752-0.557,39.089-10.913c1.573-1.437,2.637-2.991,3.282-4.579
		c2.637,0.263,4.972,0.557,6.65,0.734C1110.187,180.67,1110.021,154.971,1093.736,153.265z"/>
	<path opacity="0.2" fill="#FFFFFF" enable-background="new    " d="M874.251,176.008c-1.912-6.953-8.973-10.547-15.78-8.968
		c-6.379,1.477-12.863,1.44-19.396,1.443c-6.992,0.003-12.829,5.839-12.829,12.841c0,6.999,5.836,12.844,12.829,12.841
		c8.825-0.006,17.578-0.363,26.217-2.363C872.105,190.229,876.049,182.544,874.251,176.008z"/>
	<path opacity="0.2" fill="#FFFFFF" enable-background="new    " d="M997.256,569.465c-11.938-33.77-6.698-74.229-26.268-105.676
		c-5.094-8.185-12.76-12.161-22.358-10.55c-9.501,1.594-14.23,12.798-17.275,20.515c-6.188,15.695-2.346,31.182,6.918,44.563
		c5.468,7.899,9.307,15.341,12.001,24.66c2.877,9.939,0.18,22.017-0.023,32.188c-0.288,14.518,17.361,17.558,25.027,9.193
		C985.218,591.043,1002.219,583.512,997.256,569.465L997.256,569.465z"/>
	<path opacity="0.2" fill="#FFFFFF" enable-background="new    " d="M1011.963,630.587c1.484-8.262,2.683-16.561,2.905-24.983
		c0.485-18.412-28.024-18.366-28.506,0c-0.148,5.662-0.782,11.307-1.641,16.932c-4.395,1.491-7.714,5.077-9.253,9.716
		c-1.293,3.902-2.135,7.879-2.871,11.893c-1.869,0.286-3.819,1.046-5.782,2.411c-14.764,10.259-20.318,18.932-12.715,36.647
		c1.818,4.234,7.854,7.371,12.307,7.068c4.658-0.317,8.562-1.191,11.873-2.52c0.856,4.828,2.238,9.65,4.327,14.478
		c3.088,7.139,13.414,8.696,19.502,5.119C1025.782,693.448,1030.934,649.502,1011.963,630.587L1011.963,630.587z"/>
	<path opacity="0.2" fill="#FFFFFF" enable-background="new    " d="M1033.822,727.158c-8.97-19.421-36.674-13.136-46.635,1.36
		c-8.017-6.351-15.591-13.898-24.011-18.398c-22.695-12.13-42.853,22.363-20.144,34.499c5.431,2.905,10.246,6.539,14.929,10.356
		c-11.362,12.016-14.944,28.414-7.104,43.866c8.588,16.918,32.053,19.463,46.409,9.285c10.648-7.553,15.714-17.458,18.388-28.617
		c8.422-0.906,14.77-6.342,17.507-14.481C1037.478,752.19,1039.698,739.877,1033.822,727.158L1033.822,727.158z"/>
	<path opacity="0.2" fill="#FFFFFF" enable-background="new    " d="M1036.961,824.795c-1.544-10.796-15.075-16.561-24.547-13.953
		c-11.467,3.157-15.477,13.804-13.936,24.577c-0.422-2.965,0.046,4.794,0.031,4.157c0.049,2.46-0.168,4.922-0.374,7.371
		c-0.277,3.28-2.089,9.696-3.459,13.998c-3.302,10.376,3.77,21.775,13.936,24.574c10.802,2.974,21.248-3.588,24.547-13.953
		C1038.06,856.174,1039.239,840.731,1036.961,824.795L1036.961,824.795z"/>
	<path opacity="0.2" fill="#FFFFFF" enable-background="new    " d="M953.105,947.118c-10.877,0-19.955,9.087-19.955,19.978v30.442
		c0,10.89,9.076,19.978,19.955,19.978c10.877,0,19.955-9.088,19.955-19.978v-30.442C973.06,956.206,963.981,947.118,953.105,947.118
		L953.105,947.118z"/>
	<path opacity="0.2" fill="#FFFFFF" enable-background="new    " d="M1038.862,1003.64c-3.159-10.41-13.853-16.898-24.547-13.953
		c-5.657,1.557-10.252,5.694-12.726,10.83c-4.492-0.863-9.167-0.22-12.946,2.6c-4.107,3.065-7.649,5.959-10.814,9.956
		c-1.855,2.34-3.647,4.725-5.411,7.136l-0.243,0.337l-0.873,0.911c-13.868,15.044-0.163,37.587,19.416,33.39
		c11.342-2.431,22.367-3.674,32.864-9.056C1039.25,1037.762,1043.677,1019.521,1038.862,1003.64L1038.862,1003.64z"/>
	<path opacity="0.2" fill="#FFFFFF" enable-background="new    " d="M1046.28,913.571c-4.612-6.888-11.031-11.919-19.125-14.073
		c-7.934-2.108-16.408-1.306-24.242,0.769c-7.121,1.885-12.292,7.719-14.005,14.527c-6.476,4.762-9.387,13.213-7.535,21.466
		c4.041,17.992,13.816,39.75,35.293,40.061c16.693,0.246,28.072-14.538,32.753-28.968
		C1052.853,936.768,1052.641,923.073,1046.28,913.571z"/>
	<path opacity="0.2" fill="#FFFFFF" enable-background="new    " d="M973.945,867.325c-3.159-11.881-10.751-20.709-10.389-33.408
		c0.733-25.78-39.18-25.711-39.911,0c-0.351,12.333,2.811,22.917,7.597,34.107c3.508,8.193,6.764,13.593,2.726,22.4
		c-10.651,23.243,23.737,43.561,34.462,20.166C974.964,896.338,978.057,882.78,973.945,867.325z"/>
	<path opacity="0.2" fill="#FFFFFF" enable-background="new    " d="M935.05,25.314c-2.006-25.508-41.931-25.706-39.911,0
		c1.65,21.003,1.65,41.784,0,62.784c-2.021,25.706,37.904,25.508,39.911,0C936.7,67.095,936.7,46.315,935.05,25.314z"/>
	<path opacity="0.2" fill="#FFFFFF" enable-background="new    " d="M1021.758,78.982c-3.79-21.589-6.287-43.346-11.402-64.69
		c-6.005-25.046-44.488-14.418-38.486,10.624c5.114,21.343,7.615,43.098,11.402,64.69
		C987.721,114.949,1026.179,104.174,1021.758,78.982z"/>
</g>
<path opacity="0.6" d="M1010.245,442.871l-3.519,17.926c-1.67,3.814-5.052,6.548-11.339,7.705l-11.724-3.634
	c-9.367-6.468-12.389-14.541-12.672-24.311c-0.26-9.105-1.127-18.215-2.155-27.274c-1.13-9.987-2.389-19.906-0.836-29.985
	c0.405-2.628-0.24-5.428-0.474-8.145c-0.614-7.125,1.05-13.536,6.222-19.815l16.222-5.457c1.085,1.868,2.258,3.305,2.797,4.954
	c0.705,2.148,1.013,4.448,1.31,6.705c1.193,9.039,1.644,18.241,3.656,27.088c1.895,8.333,5.406,16.295,8.719,25.908
	c1.598-6.068,1.053-10.742,0.482-15.452c-2.797-23.08-5.54-46.163-8.331-69.243c-0.043-0.354-0.462-0.663-1.307-1.814
	c-2.109,1.268-4.424,2.423-6.473,3.931c-7.426,5.477-15.671,9.287-24.396,12.067c-8.693,2.771-17.033,2.877-24.333-3.845
	c-1.242-1.143-3.045-1.668-4.943-2.671c-2.726,4.999-3.413,9.987-3.676,14.867c-0.853,15.907-2.406,31.731-1.107,47.792
	c1.21,14.947,0.343,30.071,0.154,45.115c-0.24,19.132-0.925,38.261-1.016,57.393c-0.046,10.016,0.987,20.035,1.13,30.059
	c0.111,7.742-0.1,15.518-0.699,23.24c-2.266,29.122-3.916,58.239-3.71,87.484c0.257,36.967,0.571,73.96-0.599,110.898
	c-1.027,32.336-3.042,64.664-6.048,96.929c-2.238,24.029-4.926,48.043-4.849,72.297c0.066,20.949-1.761,41.901-2.289,62.861
	c-0.494,19.629-2.346,39.11-4.749,58.573c-0.876,7.099-0.956,14.298-1.407,21.569l-3.822-1.3c-0.131-4.137-0.725-8.636-0.325-13.05
	c1.022-11.347,2.509-22.655,3.742-33.988c0.394-3.622,0.691-7.265,0.825-10.907c1.224-33.719,1.984-67.464,3.733-101.16
	c1.276-24.586,3.998-49.091,5.774-73.657c1.744-24.114,3.856-48.234,4.461-72.386c0.89-35.567,0.802-71.163,0.719-106.748
	c-0.057-25.109-0.422-50.274,2.323-75.206c3.114-28.285,1.31-56.502,1.373-84.756c0.054-24.154,0.588-48.306,0.848-72.463
	c0.077-7.293,0.206-14.604-0.148-21.883c-1.153-23.786-0.642-47.412,5.768-69.403l-2.569-18.269
	c-9.943-35.87-18.611-72.32-34.614-106.313l-9.624-6.745c-7.983,8.219-16.405,14.895-27.356,17.747
	c-10.934,2.848-21.665,2.123-32.667-0.169c-8.157-3.868-15.306-9.082-21.434-16.207c-4.033-4.691-9.804-7.93-14.966-11.581
	c-2.92-2.051-6.182-3.622-10.329-6.016c2.004-1.617,3.065-3.037,4.447-3.497c10.129-3.357,18.788-8.825,26.48-16.31
	c5.525-5.377,11.787-10.073,18.092-14.547c12.732-9.033,34.017-8.162,47.748,1.606c2.106,1.5,4.087,3.171,7.075,5.505
	c1.093-8.919,1.818-16.367,4.598-23.754c4.695-12.49,13.651-18.821,25.395-22.692c4.692-1.548,9.398-3.068,14.458-4.719
	c0-9.342,0.642-18.009-0.157-26.54c-1.119-11.947-0.151-23.677,1.336-35.47c1.13-8.959,0.831-9.976-4.347-21.577
	c-7.438-3.025-15.352-2.68-22.772-0.748c-4.449,3.894-4.812,8.493-4.689,13.067c0.608,22.763-0.017,45.672,7.6,67.672
	c0.611,1.76-0.023,3.945-0.094,6.434c-1.624-0.971-2.845-1.26-3.04-1.877c-4.792-15.235-8.391-30.676-7.831-46.823
	c0.094-2.717-0.094-5.468-0.442-8.168c-1.652-12.841-2.043-25.528,6.036-39.595l5.66-4.657l14.008-0.728
	c11.619,11.11,16.094,23.817,14.359,38.85c-0.522,4.531-0.482,9.153-1.316,13.618c-1.019,5.471-1.019,10.742-0.049,16.25
	c0.862,4.899,0.539,10.002,0.799,15.01c0.231,4.474,0.548,8.945,0.859,13.998c16.576,2.68,32.17,1.334,48.69-1.786
	c0.474-8.582,0.303-17.084-1.433-25.574c-3.867-18.886-4.427-38.016-4.064-57.202c0.026-1.351,0.394-2.694,0.759-5.042l8.699-8.165
	l11.096,0.774c6.647,6.625,8.833,13.944,9.433,21.843c0.311,4.088,0.046,8.222,0.334,12.313c0.636,9.073,1.264,18.158,2.263,27.2
	c0.999,9.053,1.187,18.004-0.631,28.782c-1.293-3.014-2.198-4.194-2.272-5.428c-1.122-18.624-2.101-37.256-3.179-55.885
	c-0.505-8.73-1.712-12.864-5.477-19.495l-15.218,1.888c-3.356,27.894,2.066,55.188,4.969,82.656
	c8.95,4.122,17.221-2.994,27.795,0.02l8.277,5.776c4.792,7.908,8.942,16.141,9.986,25.291c1.01,8.842,0.793,17.821,1.125,26.937
	c1.607-0.474,2.797-0.463,3.068-0.957c7.135-13.056,20.164-17.929,32.619-23.486c6.519-2.908,13.579-2.048,20.241-0.891
	c15.326,2.663,27.815,10.567,38.178,22.135c2.923,3.26,6.658,5.791,10.531,9.09l-1.11,5.394c-1.159,1.108-1.71,1.988-2.489,2.331
	c-12.272,5.394-22.221,14.016-32.342,22.557c-15.943,13.458-34.964,18.741-55.987,19.949l-15.009-9.985
	c-4.175,10.83-3.867,21.586-3.165,32.336c1.156,17.644-1.364,34.536-10.463,49.943c-4.82,8.159-7.198,17.961-15.54,23.234
	c-0.448,1.88-1.122,3.225-1.016,4.502c2.32,28.082,4.535,56.171,9.096,84.022c1.321,8.076,1.153,16.392,2.429,24.477
	c1.912,12.133,4.061,24.26,6.878,36.207c6.733,28.568,8.385,57.676,10.449,86.798c1.775,25.017,4.535,49.963,6.861,74.94
	c1.227,13.167,2.683,26.314,3.642,39.498c2.215,30.482,4.349,60.967,6.216,91.472c2.089,34.142,3.784,68.306,5.762,102.457
	c1.555,26.857,3.373,53.702,4.869,80.568c0.457,8.193,0.048,16.43,0.342,24.637c0.93,25.98,1.841,51.965,3.108,77.934
	c0.554,11.379,2.049,22.709,2.905,34.076c0.231,3.068-0.311,6.194-0.505,9.425l-3.408-0.897c-0.351-1.134-1.013-2.383-1.093-3.671
	c-1.755-27.768-3.687-55.508-4.478-83.342c-1.179-41.484-2.32-83.01-5.254-124.391c-2.452-34.599-3.433-69.241-5.474-103.837
	c-1.53-25.946-4.147-51.825-6.17-77.745c-1.279-16.37-2.129-32.768-3.565-49.117c-2.075-23.629-4.604-47.215-6.753-70.835
	c-1.815-19.983-3.365-39.987-5.04-59.984C1021.901,484.786,1017.643,463.854,1010.245,442.871L1010.245,442.871z M988.786,314.7
	c13.876-7.076,20.375-18.321,26.677-30.165c8.157-15.327,11.713-31.336,11.225-48.58c-0.283-9.979,0.4-19.983,0.539-29.977
	c0.037-2.545-0.34-5.097-0.511-7.462l-13.191-1.923c-5.511-5.491-5.334-11.467-5.366-15.478
	c2.828-13.947,12.272-19.303,22.518-23.532c1.958-17.772,0.231-34.182-8.419-48.96c-5.24-5.582-11.542-6.036-18.037-5.379
	c-8.605,0.871-17.158,2.377-25.775,2.908c-11.801,0.728-23.643,0.971-35.467,1.091c-12.067,0.12-23.323,3.44-34.325,7.936
	c-6.113,2.497-10.414,6.782-13.705,12.659c-6.984,12.473-8.148,24.734-0.791,37.313l16.476-1.291l11.833,14.601
	c-2.323,5.891-4.412,11.247-6.541,16.59c-2.549,6.394-9.915,7.245-13.611,10.833c6.504,18.089,12.986,35.09,18.7,52.351
	c4.575,13.816,8.305,27.917,12.232,41.941c2.021,7.219,4.578,13.878,12.495,17.118c1.986,0.131,4.275,0.551,6.519,0.383
	C964.489,316.76,976.713,315.698,988.786,314.7L988.786,314.7z M821.614,181.73c14.627-16.384,25.284-18.272,50.174-9.362
	l2.834-4.102l11.162,8.156l3.856-7.108c-3.476-3.974-6.71-7.173-9.347-10.807c-3.958-5.448-9.355-8.61-15.517-10.573
	c-13.582-4.325-25.575-1.848-37.071,7.068c-11.673,9.053-21.231,20.889-34.87,26.454c7.326,7.162,14.202,14.378,21.619,20.983
	c6.521,5.802,13.948,9.959,23.115,10.613c19.527,1.4,35.641-4.739,47.779-19.981c-0.023-4.219-1.57-6.545-5.528-6.571
	c-6.33,3.728-12.464,7.659-18.885,11.036c-6.382,3.357-13.305,3.722-19.707,0.334C833.636,193.857,827.046,188.404,821.614,181.73
	L821.614,181.73z M1002.08,461.566c0.711-4.165,1.784-8.99,2.317-13.878c1.667-15.315-2.589-29.854-7.164-44.069
	c-3.373-10.487-5.831-20.975-6.918-31.876c-0.405-4.048-1.093-8.079-1.926-12.061c-0.243-1.16-1.433-2.117-2.763-3.96l-11.673,3.714
	c-0.682,4.597-1.581,8.536-1.807,12.516c-1.344,23.717,2.297,47.2,3.736,70.777c0.856,14.044,6.424,18.604,21.682,21.392
	L1002.08,461.566L1002.08,461.566z M1110.726,160.676c-13.811,25.42-40.379,36.796-66.813,28.262l-8.317,6.379
	c2.086,6.522,7.084,9.522,13.622,12.924c17.238,0.229,33.694-5.359,48.527-15.824c5.925-4.18,11.062-9.465,16.853-13.861
	c5.737-4.357,11.841-8.228,17.783-12.31c-5.562-10.67-14.224-17.846-24.128-23.486c-11.49-6.545-24.005-8.865-36.728-4.748
	c-6.821,2.208-13.126,6.219-19.376,9.905c-2.392,1.411-3.981,4.177-7.906,8.488c7.098-2.003,11.33-3.311,15.626-4.391
	c8.031-2.017,16.171-3.008,24.234-0.457C1092.663,154.265,1101.1,157.359,1110.726,160.676L1110.726,160.676z M1103.006,164.269
	c-12.081-6.668-23.877-11.487-37.676-8.762c-8.528,1.683-16.816,3.477-22.47,12.079l3.936,5.337l11.913-8.328
	c0.311,1.523,1.142,3.025,0.716,3.954c-2.101,4.631-4.912,8.61-10.283,10.119c-1.49,0.417-2.651,2.014-4.172,3.24
	c3.727,7.053,10.046,6.742,15.617,6.416C1078.225,187.29,1092.478,179.793,1103.006,164.269L1103.006,164.269z M828.381,182.173
	c4.495,3.651,8.217,6.888,12.167,9.822c3.396,2.523,7.361,3.471,11.582,2.72c9.518-1.691,17.646-5.782,23.974-13.393
	C860.86,168.843,842.791,167.169,828.381,182.173L828.381,182.173z M954.032,341.689c3.89-0.791,7.515-1.26,10.979-2.283
	c10.548-3.108,20.569-7.302,28.226-15.65c1.347-1.468,3.667-2.823,1.527-6.171l-12.426,2.24
	c-10.249,11.124-17.878,12.444-30.706,2.603l-15.098-3.694C936.511,330.91,942.448,337.758,954.032,341.689z M1040.777,174.225
	c-3.154-5.208-6.307-8.173-10.597-9.71c-8.81,1.666-9.121,1.466-11.967,5.305c-1.324,1.786-1.296,4.577-2.095,7.768
	C1024.843,177.602,1032.458,179.051,1040.777,174.225L1040.777,174.225z M915.826,178.236c-2.255-3.6-3.419-6.514-5.503-8.425
	c-1.436-1.317-4.338-2.083-6.236-1.628c-3.816,0.914-7.717,2.345-10.937,4.522c-1.792,1.211-2.28,4.351-3.764,7.482
	C898.265,180.63,906.091,183.43,915.826,178.236L915.826,178.236z M890.262,194.183c2.178,3.514,5.023,5.885,8.987,5.539
	c3.057-0.266,6.319-0.98,8.967-2.445c3.73-2.06,5.642-5.788,5.802-10.145c0.023-0.646-0.91-1.326-1.578-2.234l-4.549,1.4
	c-2.743,2.74-0.611,8.296-6.784,8.41l-4.835-8.97l-6.008,0.497L890.262,194.183L890.262,194.183z M1029.746,194.06
	c3.339-2.548,6.37-4.519,8.962-6.962c1.804-1.697,1.912-3.94-0.283-5.542c-5.568-0.9-5.848,4.837-8.665,6.714
	c-5.288,1.697-7.777-1.471-10.431-4.748c-0.608-0.751-2.477-0.483-3.73-0.677c-1.456,4.717-1.456,4.717,1.273,9.936L1029.746,194.06
	z M920.583,13.098c-7.629-5.939-8.442-5.865-14.373,0H920.583z M962.332,321.363l2.671,3.937l9.084-4.694L962.332,321.363
	L962.332,321.363z M992.333,9.736c-0.066-0.3-0.04-0.76-0.22-0.863c-0.305-0.18-0.742-0.137-1.122-0.186l0.265,1.388L992.333,9.736z
	 M947.634,449.836c5.911-2.38,10.443-1.083,14.938,1.754c4.846,3.06,8.348,6.968,9.624,12.661
	c1.787,7.968,3.545,15.944,5.374,23.906c2.543,11.082,6.045,21.666,11.025,32.088c7.497,15.675,10.743,32.768,10.431,50.366
	c-0.134,7.548-3.054,13.219-9.952,16.501c-4.501,2.143-8.947,4.639-13.699,5.959c-11.159,3.097-21.439-1.737-25.378-12.667
	c-2.74-7.608-5.157-15.892-5.094-23.852c0.2-24.246-3.676-48.089-5.62-72.117C938.25,471.662,942.434,460.455,947.634,449.836
	L947.634,449.836z M993.212,577.353c0.263-2.643,0.788-5.334,0.756-8.019c-0.203-17.544-3.859-34.393-11.299-50.257
	c-3.899-8.308-7.081-16.744-8.896-25.731c-1.624-8.022-3.502-15.99-5.129-24.011c-1.327-6.542-3.91-12.093-11.019-15.187
	l-6.747,1.151c-8.962,14.535-7.092,29.625-5.343,44.566c1.804,15.387,3.508,30.728,3.799,46.26
	c0.168,9.045,1.732,18.089,3.097,27.074c0.91,6.016,3.579,11.282,9.39,14.724C974.684,592.451,984.362,586.743,993.212,577.353
	L993.212,577.353z M976.091,725.53c13.291,0.597,27.136-1.683,40.59,3.917c2.826,1.954,4.835,4.917,4.917,8.845
	c0.368,17.878,0.151,35.67-9.946,51.517c-1.946,3.06-3.576,6.691-6.319,8.802c-8.251,6.348-16.553,12.85-25.629,17.846
	c-10.606,5.839-21.345,1.437-25.492-10.033c-2.286-6.325-3.262-13.279-3.83-20.029c-0.725-8.619-0.99-17.361-0.44-25.986
	c0.599-9.365-1.025-18.135-4.232-26.774c-2.397-6.454-4.053-13.064-3.976-20.006c0.071-6.314,2.212-11.516,7.766-14.778
	C961.133,704.121,964.03,707.035,976.091,725.53L976.091,725.53z M1015.942,735.16c-3.362-3.785-8.108-4.057-12.543-4.351
	c-7.224-0.48-14.49-0.28-21.739-0.346c-3.08-0.029-6.159-0.003-9.367-0.003c-5.725-10.067-8.979-21.766-22.027-25.728
	c-1.01,2.291-2.651,4.582-2.985,7.051c-0.805,5.948,0.4,11.736,2.569,17.358c4.138,10.727,5.699,21.672,5.169,33.348
	c-0.554,12.181,0.836,24.486,1.872,36.693c0.517,6.068,3.042,11.45,10.928,14.844l9.601-0.937
	c7.792-5.222,13.948-9.073,19.778-13.37c3.237-2.388,6.693-5.057,8.733-8.399c10.323-16.921,12.555-35.57,10.62-54.945
	C1016.507,735.949,1016.153,735.563,1015.942,735.16L1015.942,735.16z M957.825,658.609c1.279-2.545,1.844-4.357,2.94-5.748
	c9.064-11.499,15.572-24.549,22.869-37.139c6.013-10.37,14.838-18.166,25.335-24.514c6.63,6.465,8.271,14.513,8.973,22.64
	c1.333,15.418,2.246,30.874,3.085,46.329c0.345,6.356,0.371,12.767-0.011,19.121c-0.568,9.419-3.699,17.786-11.627,23.794
	c-6.693,2.271-13.571,1.183-20.238,0.217c-3.847-0.557-8.274-2.208-10.945-4.868C966.995,687.28,960.231,673.684,957.825,658.609
	L957.825,658.609z M1007.839,598.027c-9.681,5.031-15.823,11.873-20.215,19.786c-7.475,13.47-14.359,27.254-24.827,39.313
	c2.218,16.835,9.647,30.162,21.671,40.978l18.428,2.505c8.827-2.431,11.53-8.842,12.369-15.715
	c0.985-8.068,1.21-16.321,0.816-24.449c-0.748-15.41-2.226-30.782-3.296-46.177C1012.406,608.798,1011.158,603.687,1007.839,598.027
	L1007.839,598.027z M993.749,901.418c6.647-0.994,13.331-1.994,21.294-3.188l5.834-3.454c3.251,0.286,6.521,0.126,9.535,0.931
	c7.68,2.048,12.914,8.368,12.566,15.844c-0.677,14.464-1.875,28.908-2.708,41.147c-5.711,14.121-18.16,15.852-27.673,21.88
	l-22.207,2.814c-8.83-2.551-14.284-8.85-13.597-18.726c1.242-17.764,4.384-35.216,12.521-51.357
	C990.113,905.729,991.466,904.417,993.749,901.418L993.749,901.418z M1037.806,909.194c-2.871-5.576-6.307-8.37-10.928-9.627
	c-0.765-0.209-1.695,0.177-2.546,0.291l-3.259,4.377c-8.154-0.026-16.385-2.146-23.608,0.763c-5.246,3.994-7.112,9.039-9.033,14.241
	c-4.304,11.67-5.249,23.986-7.358,36.064c-1.276,7.294,0.908,13.51,8.636,17.584c5.757-0.309,12.078-0.646,18.879-1.014
	c7.532-6.745,19.984-6.191,25.406-16.464C1039.048,939.71,1034.944,923.609,1037.806,909.194L1037.806,909.194z M965.665,1038.87
	c0.813-2.374,1.284-5.659,2.914-8.208c10.511-16.432,23.845-29.762,42.419-36.95c7.369-2.851,8.75-2.845,20.538-1.3l8.551,27.465
	c-4.09,10.139-4.752,20.609-13.146,28.06c-14.541,2.217-29.003,6.468-44.203,3.574
	C975.243,1050.086,968.613,1047.861,965.665,1038.87L965.665,1038.87z M970.269,1040.393c3.236,2.391,5.463,4.788,8.205,5.914
	c7.315,3,15.055,3.317,22.838,2.143c5.388-0.814,10.794-1.577,16.122-2.691c3.051-0.637,5.965-1.928,9.401-3.083l8.062-22.235
	c-1.01-3.751-2.049-7.668-3.119-11.573c-1.184-4.311-2.395-8.613-3.842-13.804c-11.447-0.323-21.713,3.968-29.924,10.782
	C987.042,1014.939,974.675,1023.564,970.269,1040.393L970.269,1040.393z M930.287,959.011c2.129-2.96,3.382-4.845,4.792-6.602
	c0.839-1.043,1.932-1.88,3.071-2.957c5.497-1.517,11.059-3.597,17.287-1.083c0.554,1.643,1.478,3.294,1.63,5.014
	c0.725,8.279,3.841,15.75,7.112,23.254c2.155,4.945,3.91,10.119,5.251,15.341c2.329,9.068,0.682,17.078-8.354,23.426H940.75
	c-8.847-6.931-12.563-15.435-11.644-26.36C929.939,979.163,929.922,969.207,930.287,959.011L930.287,959.011z M937.733,955.174
	c-6.196,15.644-2.523,30.748-4.018,45.563l7.657,10.724c7.663,1.885,14.259,2.457,20.198-1.883
	c5.109-9.145,5.348-9.207,3.385-16.555c-1.515-5.665-3.739-11.142-5.637-16.707c-1.895-5.554-3.819-11.099-5.645-16.672
	c-0.825-2.523-1.444-5.111-2.306-8.196c-2.677,0.391-4.886,0.503-6.97,1.071C942.277,953.109,940.279,954.14,937.733,955.174z
	 M1006.289,883.546l-6.102-9.305c-4.135-19.015-1.972-36.299,4.892-53.077c1.547-3.785,1.718-3.714,8.922-8.133
	c9.918,5.514,16.642,13.764,17.786,25.291c0.933,9.416,0.765,19.001,0.271,28.471c-0.32,6.148-4.027,10.973-9.227,14.413
	C1018.151,884.3,1013.299,886.588,1006.289,883.546L1006.289,883.546z M1011.915,880.906c9.952-1.797,14.15-7.739,15.731-16.847
	c1.841-10.61,0.645-20.883-2.149-30.976c-1.829-6.608-6.05-11.773-12.047-14.704c-1.63,1.108-2.714,1.44-3.031,2.125
	c-5.169,11.25-8.254,23.049-8.008,35.473c0.097,4.957,1.122,9.925,2.069,14.821C1005.276,874.909,1007.225,878.469,1011.915,880.906
	L1011.915,880.906z M952.902,928.637l-2.306,3.137c-1.57-0.231-3.099-0.063-4.175-0.683c-5.18-2.988-7.432-8.073-8.02-13.607
	c-1.199-11.293-2.474-22.637-2.6-33.973c-0.245-22.277,1.989-44.583-1.221-66.821c-0.368-2.565-0.588-5.562,2.865-6.908
	c0.562,0.417,1.615,0.797,1.69,1.314c1.892,13.513,2.783,27.014,2.3,40.735c-0.685,19.506-3.214,39.055-0.017,58.593
	c0.959,5.865,1.535,11.77,6.387,16.644l4.76,1.257L952.902,928.637L952.902,928.637z M952.562,928.326
	c1.521-8.333,6.262-15.027,11.319-21.432c6.596-8.353,10.714-17.904,14.481-27.334c0.634-9.419-4.29-16.992-6.43-25.286
	c-2.146-8.313-7.546-14.578-12.603-20.886c-5.3-6.608-11.793-12.258-18.574-19.143c2.494-0.12,4.107-0.717,4.872-0.157
	c19.584,14.321,31.431,33.747,36.917,57.176c1.039,4.439,1.027,9.062-1.179,13.37c-2.905,5.674-5.431,11.576-8.716,17.015
	c-5.163,8.553-10.774,16.841-16.348,25.14c-0.639,0.951-2.246,1.251-3.405,1.854L952.562,928.326L952.562,928.326z M949.249,367.646
	c1.042,0.529,2.534,0.777,3.06,1.628c9.98,16.107,11.427,33.205,5.34,50.977c-1.356,3.962-3.582,7.551-10.215,6.248l-7.92-11.81
	c-0.776-11.067-2.015-22.38-2.175-33.707c-0.083-5.782,1.593-11.633,2.857-17.369c0.451-2.045,1.65-4.234,5.049-4.519
	c0,1.194,0.294,2.348-0.071,3.234c-0.511,1.226-2.049,2.171-2.223,3.371c-2.691,18.572-3.984,37.061,4.812,54.619
	c0.36,0.717,1.344,1.12,2.038,1.668c6.056-6.068,6.556-10.199,6.105-25.837C955.628,386.272,952.654,377.559,949.249,367.646
	L949.249,367.646z M1004.52,520.693c6.344-10.316,6.344-10.316,2.269-28.254l-7.041-9.579c1.37-0.317,2.537-0.817,3.685-0.774
	c0.799,0.029,1.655,0.694,2.343,1.251c6.707,5.422,7.332,13.193,7.792,20.92c0.437,7.328,0.482,14.653-7.463,19.592l-6.085-1.391
	c-5.631-10.056-10.46-19.866-5.246-32.568c4.501,3.708,1.267,7.433,1.912,10.522c0.645,3.085,1.11,6.256,2.22,9.176
	C1000.139,512.829,1002.017,515.828,1004.52,520.693L1004.52,520.693z M930.929,1061.913c-6.165-2.014-8.354-5.268-9.661-9.559
	c0.123-5.337,4.381-8.482,6.818-12.601c5.665-2.214,10.742-5.502,17.706-3.408l5.645,10.165
	C949.914,1059.577,939.231,1059.294,930.929,1061.913z M943.664,1041.524c-7.004-1.46-11.75,0.548-15.206,5.434
	c-1.219,1.723-1.75,3.931-2.646,6.034l3.993,4.974c7.149-2.143,14.441-1.923,16.382-10.819L943.664,1041.524L943.664,1041.524z
	 M957.625,609.935c0.491,6.634,3.459,13.324-1.704,19.221c-8.619,0.554-8.619,0.554-14.441-7.131l4.144-24.4
	c1.767,0.751,4.027,1.031,5.103,2.308C953.316,603.004,955.345,606.544,957.625,609.935L957.625,609.935z M951.818,607.129
	c-5.026,5.676-5.417,10.01-6.579,14.461l6.618,5.062C956.401,620.285,952.745,615.048,951.818,607.129z M948.827,223.931
	c-3.082,11.13-2.569,22.389-1.424,34.139l6.484,0.68c3.887,14.138,1.458,22.057-7.968,25.857c-3.696-2.414-3.219-6.136-3.008-9.767
	c0.314-5.399,1.635-10.962,0.771-16.161c-1.841-11.062,0.186-21.683,1.47-32.296l3.705-2.417L948.827,223.931z M952.234,268.88
	c-4.712,0.743-4.712,0.743-3.137,7.936L952.234,268.88z M984.353,228.422l2.943,0.631l2.82,13.476l-1.778,13.298
	c2.911,7.505,5.371,15.37,2.606,23.614c-0.622,1.857-2.694,3.225-4.427,5.191l-5.948-4.328c-2.072-10.039-4.795-19.866,5.56-27.974
	l-1.527-24.189L984.353,228.422L984.353,228.422z M983.731,263.975c-0.177,4.634-2.917,9.696,2.5,13.624
	C987.949,269.866,987.949,269.866,983.731,263.975z M951.25,190.286c-0.494,2.628-1.287,5.242-1.43,7.891
	c-0.459,8.57-0.679,17.152-0.99,25.743l0.026,0.046c-3.108-10.113-0.799-20.226,0.171-30.319c0.106-1.111,1.558-2.094,2.386-3.131
	L951.25,190.286z M984.599,228.142c-0.565-3.914-1.016-7.848-1.735-11.73c-0.385-2.083-1.23-4.08-1.867-6.114l-0.026,0.017
	l3.867,1.663c0.676,5.414,1.889,10.89-0.445,16.398L984.599,228.142L984.599,228.142z M951.412,190.512l-1.264-15.981
	c2.56,5.159,2.223,10.385,1.056,15.687L951.412,190.512L951.412,190.512z M980.997,210.298c0.029-5.768,0.405-11.587-2.406-16.955
	l-0.137,0.191l4.364,2.5l-1.847,14.275L980.997,210.298L980.997,210.298z M975.965,169.989l0.665,6.231l-0.665,0.04V169.989z
	 M978.591,193.34l-0.388-7.248c2.423,3.16,1.019,5.242,0.302,7.368L978.591,193.34z"/>
</svg>
