<?xml version="1.0" encoding="utf-8"?>
<!-- Generator: Adobe Illustrator 17.1.0, SVG Export Plug-In . SVG Version: 6.00 Build 0)  -->
<!DOCTYPE svg PUBLIC "-//W3C//DTD SVG 1.1//EN" "http://www.w3.org/Graphics/SVG/1.1/DTD/svg11.dtd">
<svg version="1.1" xmlns="http://www.w3.org/2000/svg" xmlns:xlink="http://www.w3.org/1999/xlink" x="0px" y="0px"
	 viewBox="0 0 142.58 518.331" enable-background="new 0 0 142.58 518.331" xml:space="preserve">
<g id="Layer_3">
	<path opacity="0.2" fill="#FFFFFF" d="M49.955,90.046c-9.662,0-9.662,14.985,0,14.985C59.617,105.031,59.617,90.046,49.955,90.046z
		"/>
	<path opacity="0.2" fill="#FFFFFF" d="M41.275,44.808c-1.128-1.511-2.24-2.772-3.959-3.659c-1.263-0.652-2.623-1.157-4.014-1.449
		c-3.993-0.838-8.083,1.115-9.215,5.233c-0.91,3.309,0.75,7.298,3.899,8.767c0.137,0.789,0.401,1.565,0.852,2.334
		c0.981,1.674,2.604,2.928,4.477,3.443c3.68,1.013,8.469-1.215,9.215-5.233C43.106,51.139,43.287,47.501,41.275,44.808z"/>
	<path opacity="0.2" fill="#FFFFFF" d="M126.431,38.939c-1.059-3.851-5.311-6.429-9.215-5.233
		c-7.646,2.342-12.652,8.459-12.824,16.548c-0.087,4.084,3.474,7.492,7.491,7.492c4.149,0,7.404-3.411,7.491-7.492
		c0-0.094,0.01-0.185,0.012-0.278c0.026-0.208,0.063-0.461,0.108-0.634c0.009-0.034,0.013-0.055,0.02-0.085
		c0.056-0.094,0.121-0.195,0.184-0.291c0.051-0.053,0.097-0.109,0.149-0.161c0.019-0.018,0.028-0.03,0.044-0.048
		c0.127-0.082,0.257-0.159,0.389-0.232c0.208-0.088,0.687-0.3,0.918-0.371C125.1,46.96,127.538,42.961,126.431,38.939z"/>
	<path opacity="0.2" fill="#FFFFFF" d="M53.951,128.007c-9.662,0-9.662,14.985,0,14.985
		C63.612,142.992,63.612,128.007,53.951,128.007z"/>
	<path opacity="0.2" fill="#FFFFFF" d="M45.294,110.692c-9.662,0-9.662,14.985,0,14.985
		C54.955,125.677,54.955,110.692,45.294,110.692z"/>
	<path opacity="0.2" fill="#FFFFFF" d="M60.609,151.983c-9.662,0-9.662,14.985,0,14.985
		C70.271,166.967,70.271,151.983,60.609,151.983z"/>
	<path opacity="0.2" fill="#FFFFFF" d="M43.962,157.31c-9.662,0-9.662,14.985,0,14.985C53.624,172.295,53.624,157.31,43.962,157.31z
		"/>
	<path opacity="0.2" fill="#FFFFFF" d="M61.275,174.293c-5.797,0-5.797,8.991,0,8.991S67.072,174.293,61.275,174.293z"/>
	<path opacity="0.2" fill="#FFFFFF" d="M47.329,182.543c-8.857-5.323-16.886,8.501-8.066,13.802
		c3.161,1.899,2.294,5.497,0.463,9.044c-4.721,9.143,9.07,17.228,13.799,8.068C59.134,202.596,58.716,189.388,47.329,182.543z"/>
	<path opacity="0.2" fill="#FFFFFF" d="M68.531,222.713c-6.667-5.793-13.482-0.962-16.245,5.799
		c-1.825,4.467-2.259,10.092-2.331,14.877c-0.028,1.878,0.483,3.409,1.332,4.602c-0.526,0.896-1.054,1.789-1.573,2.686
		c-3.66,6.324,2.183,12.191,7.741,11.931c0.381,0.057,0.767,0.095,1.156,0.095c1.778,0,3.382-0.596,4.765-1.615
		c0.153-0.084,0.309-0.163,0.466-0.243c0.894-0.457,1.689-1.134,2.416-1.815c2.294-2.149,2.833-5.516,1.83-8.354
		C72.979,241.417,77.02,230.089,68.531,222.713z"/>
	<path opacity="0.2" fill="#FFFFFF" d="M39.301,224.741c-6.021,0-8.518,5.453-7.504,9.99c-1.014,4.536,1.483,9.99,7.504,9.99
		c6.021,0,8.518-5.453,7.504-9.99C47.819,230.195,45.322,224.741,39.301,224.741z"/>
	<path opacity="0.2" fill="#FFFFFF" d="M56.855,303.29c-4.347-9.992-6.301-20.435-6.9-31.264c-0.566-10.248-16.55-10.304-15.981,0
		c0.765,13.855,3.544,26.603,9.082,39.332c1.739,3.997,7.514,4.87,10.933,2.867C58.073,311.832,58.593,307.285,56.855,303.29z"/>
	<path opacity="0.2" fill="#FFFFFF" d="M72.31,287.884c-0.551-3.824-1.004-6.921-1.047-11.195c-0.044-4.356-3.602-7.992-7.991-7.992
		c-4.323,0-8.035,3.635-7.991,7.992c0.052,5.192,0.879,10.315,1.617,15.444c0.622,4.32,6.034,6.626,9.83,5.581
		C71.319,296.452,72.931,292.192,72.31,287.884z"/>
	<path opacity="0.2" fill="#FFFFFF" d="M71.645,353.15c-1.794-10.944-1.247-22.154-2.379-33.173
		c-0.445-4.331-3.298-7.992-7.991-7.992c-4.018,0-8.436,3.65-7.991,7.992c1.281,12.474,0.915,25.016,2.949,37.423
		c0.706,4.304,5.972,6.643,9.83,5.581C70.592,361.735,72.348,357.446,71.645,353.15z"/>
	<path opacity="0.2" fill="#FFFFFF" d="M48.946,327.646c-2.71-3.419-8.487-2.814-11.3,0c-2.741,2.741-2.801,6.291-1.246,9.361
		c-2.923,1.748-4.331,5.949-3.472,9.071c1.262,4.587,5.522,6.207,9.83,5.581c4.967-0.72,9.412-4.687,10.408-9.66
		C54.256,336.558,52.276,331.848,48.946,327.646z"/>
	<path opacity="0.2" fill="#FFFFFF" d="M69.266,400.561c-6.377,0-8.803,6.118-7.288,10.784c-2.027-0.405-4.099-0.616-6.144-0.539
		c3.917-8.054,6.102-17.751,5.31-26.898c1.168,2.294,3.427,4,6.79,4c10.306,0,10.306-15.984,0-15.984
		c-4.566,0-7.105,3.138-7.625,6.634c-1.138-4.983-3.292-9.656-6.702-13.618c-6.734-7.825-17.986,3.533-11.3,11.303
		c2.014,2.34,2.988,5.418,3.246,8.767c-3.338,0.644-6.252,3.159-6.252,7.559v17.316c0,3.159,1.738,5.536,4.078,6.819
		c-2.062,2.571-3.25,5.754-3.411,9.178c-0.241,5.138,2.857,9.751,7.014,12.454c4.767,3.1,11.203,2.703,16.417,1.232
		c2.603-0.734,4.953-2.888,5.581-5.581c0.505-2.169,0.532-3.901,0.047-6.076c-0.133-0.314-0.265-0.628-0.398-0.943
		c0.412-0.956,0.64-2.004,0.636-3.097c-0.008-2.293-0.289-4.59-0.951-6.787c-0.063-0.21-0.149-0.416-0.229-0.622
		c0.379,0.049,0.768,0.083,1.18,0.083C79.572,416.544,79.572,400.561,69.266,400.561z"/>
	<path opacity="0.2" fill="#FFFFFF" d="M76.166,448.474c-2.048-4.767-9.294-4.999-12.55-1.617c-3.03,3.148-5.438,6.645-6.716,10.853
		c-0.46,1.514-0.386,3.074,0.083,4.504c-0.394,0.494-0.727,1.056-1,1.677c0.006-0.728-0.091-1.462-0.32-2.185
		c-1.378-4.334-2.021-8.83-2.663-13.32c-0.618-4.32-6.037-6.625-9.83-5.581c-4.592,1.263-6.197,5.522-5.581,9.831
		c0.643,4.49,1.286,8.985,2.663,13.32c1.319,4.148,5.506,6.771,9.83,5.581c2.347-0.646,4.275-2.435,5.239-4.629
		c-0.04,3.514,2.193,7.333,5.827,7.959c7.782,1.34,14.544-1.127,17.333-8.947C80.492,460.28,78.403,453.682,76.166,448.474z"/>
	<path opacity="0.2" fill="#FFFFFF" d="M73.881,482.545c-2.005-1.836-4.843-2.825-7.405-1.78
		c-8.759,3.571-18.273,10.33-21.562,19.567c-1.371,3.849,1.514,9.085,5.581,9.831c6.003,1.101,11.186-0.333,16.202-3.732
		c4.137-2.805,7.525-6.666,11.929-9.06C86.549,493.062,81.366,481.958,73.881,482.545z"/>
	<path opacity="0.2" fill="#FFFFFF" d="M51.953,473.986c-5.797,0-5.797,8.991,0,8.991S57.75,473.986,51.953,473.986z"/>
	<path opacity="0.2" fill="#FFFFFF" d="M77.34,5.771c-2.25-8.728-15.737-5.023-13.484,3.718c1.212,4.704,2.858,9.207,2.414,14.124
		c-0.343,3.803,3.44,6.993,6.992,6.993c4.071,0,6.649-3.198,6.992-6.993C80.806,17.497,78.846,11.616,77.34,5.771z"/>
	<path opacity="0.2" fill="#FFFFFF" d="M60.942,33.603c-0.53-4.396-1.719-8.107-3.522-12.142c-1.302-2.913-3.379-5.935-3.803-9.168
		C53.123,8.514,50.812,5.3,46.626,5.3c-3.435,0-7.488,3.203-6.992,6.993c0.555,4.232,1.742,7.79,3.522,11.667
		c1.414,3.082,3.388,6.206,3.803,9.643c0.456,3.783,2.835,6.993,6.992,6.993C57.416,40.596,61.4,37.397,60.942,33.603z"/>
</g>
<g id="Layer_4">
	<path fill-rule="evenodd" clip-rule="evenodd" d="M66.503,1.825C66.959,0.641,67.913,0.18,69.344,0
		c0.37,0.181,0.956,0.411,1.477,0.743c0.393,0.251,0.7,0.635,0.875,0.8c1.834,9.243,4.571,17.994,7.542,26.867
		c1.439-0.262,2.676-0.46,3.9-0.717c2.674-0.562,5.048,0.06,7.223,1.675c4.493,3.336,9.033,6.615,11.767,11.721
		c0.126,0.236,0.47,0.355,0.73,0.541c1.431-0.914,1.164-2.557,1.539-3.87c1.32-4.629,3.801-8.417,7.71-11.218
		c1.288-0.924,2.63-1.896,4.1-2.416c4.355-1.54,8.741-3.08,13.465-3.021c3.043,0.037,6.003-0.345,9.041-2.685
		c0,1.737,0.117,2.506-0.019,3.227c-0.946,5.015-1.912,10.028-2.936,15.027c-1.109,5.41-3.705,9.816-8.69,12.574
		c-0.835,0.461-1.64,1.013-2.363,1.634c-3.813,3.282-8.107,5.649-12.959,7.01c-0.733,0.205-1.409,0.607-2.263,0.985
		c0.465,0.496,0.717,0.995,1.102,1.139c8.557,3.18,15.292,9.093,22.195,14.754c0.617,0.505,1.146,1.132,1.797,1.583
		c3.881,2.692,5.591,6.876,7.523,10.898c0.648,1.347,0.648,2.783-0.036,4.433c-0.924,0.758-2.025,1.661-3.091,2.536
		c-1.018,1.666-2.013,3.296-2.857,4.677c-3.313,2.794-6.902,3.666-10.882,3.764c-4.8,0.117-9.536-0.035-14.255-1.009
		c-3.874-0.8-7.409-2.041-9.469-6.145c-0.915,0.651-1.52,1.067-2.11,1.502c-4.364,3.218-8.564,6.697-13.152,9.554
		c-2.35,1.463-5.351,2.002-8.132,2.622c-4.045,0.902-7.467,2.685-10.246,5.985c0,5.189-0.211,10.449,0.051,15.686
		c0.358,7.172,1.119,14.324,1.628,21.491c0.485,6.844,0.866,13.695,1.299,20.541c0.08,1.274,0.299,2.549,0.271,3.819
		c-0.227,9.912,0.584,19.782,1.014,29.67c0.453,10.38,1.084,20.737,2.203,31.061c0.515,4.758,1.407,9.474,1.991,14.226
		c0.622,5.068,1.066,10.158,1.619,15.235c0.554,5.079,1.313,10.141,1.678,15.233c0.41,5.731,0.641,11.486,0.665,17.232
		c0.049,11.822-0.332,23.649-0.083,35.464c0.242,11.489,1.045,22.966,1.612,34.448c0.441,8.931,0.87,17.863,1.352,26.792
		c0.517,9.564,0.76,19.157,1.736,28.675c0.851,8.286,0.873,16.581,1.303,24.869c0.19,3.655-0.12,7.336-0.123,11.005
		c-0.013,16.288-0.006,32.576,0.022,48.864c0.004,2.228,0.203,4.454,0.245,6.683c0.013,0.673-0.36,1.185-1.26,1.176
		c-0.142-0.394-0.407-0.804-0.424-1.223c-0.472-11.97-0.986-23.939-0.535-35.925c0.09-2.392-0.058-4.792-0.052-7.188
		c0.006-2.713-0.095-5.44,0.124-8.138c0.62-7.656,0.613-15.315,0.188-22.97c-0.38-6.85-1.072-13.683-1.45-20.534
		c-0.8-14.51-1.45-29.028-2.235-43.538c-0.311-5.739-0.911-11.464-1.208-17.204c-0.247-4.782-0.195-9.58-0.362-14.369
		c-0.289-8.296-0.822-16.589-0.917-24.889c-0.081-7.018,0.501-14.044,0.442-21.063c-0.056-6.537-0.39-13.086-0.93-19.603
		c-0.658-7.953-1.626-15.881-2.525-23.814c-0.503-4.438-1.206-8.852-1.701-13.291c-0.778-6.98-1.58-13.96-2.148-20.959
		c-0.697-8.589-1.259-17.191-1.697-25.799c-0.259-5.102-0.027-10.229-0.259-15.334c-0.404-8.926-0.972-17.846-1.516-26.766
		c-0.35-5.739-0.86-11.469-1.149-17.211c-0.393-7.812-0.514-15.639-0.998-23.444c-0.316-5.089-1.199-10.14-1.584-15.227
		c-0.337-4.451-0.31-8.926-0.487-13.391c-0.101-2.546-0.326-5.088-0.421-7.637c-0.032-0.862,0.165-1.736,0.272-2.734
		c0.546,0.317,0.929,0.411,0.965,0.579c0.331,1.555,0.728,3.113,0.858,4.69c0.145,1.746,0.282,3.559-0.019,5.263
		c-0.855,4.834,0.471,9.542,0.587,14.313c0.01,0.422,0.32,0.837,0.504,1.291c2.879-0.46,5.668-1.017,8.485-1.324
		c3.673-0.402,6.575-2.277,9.371-4.454c2.518-1.961,5.049-3.903,7.577-5.85c3.15-2.425,6.303-4.847,9.258-7.53
		c1.872-0.854,3.745-1.708,5.727-2.613c3.269,0.795,6.193,2.104,7.771,5.786c-0.938,0.734-1.774,1.387-2.494,1.951
		c-3.392-0.142-4.333-2.644-5.48-5.128c-1.626,0.039-3.089,0.513-4.643,1.191c-3.253,3.925-7.714,6.481-11.826,9.48
		c-1.287,0.938-2.655,1.806-3.782,2.913c-3.306,3.247-7.202,5.193-11.78,5.829c-1.423,0.198-2.861,0.375-4.248,0.73
		c-1.202,0.308-2.342,0.857-3.534,1.309c-0.637,2.983,0.538,5.52,0.833,8.558c1.122-0.598,1.914-1.008,2.695-1.439
		c2.8-1.549,5.603-2.957,8.894-3.341c3.195-0.375,6.154-1.624,8.812-3.52c4.029-2.872,8.189-5.573,11.519-9.315
		c0.405-0.455,0.985-0.753,1.756-1.327c0.778,0.87,1.587,1.579,2.15,2.447c1.191,1.834,2.78,3.158,4.867,3.646
		c6.691,1.564,13.404,2.844,20.337,1.505c2.451-0.474,4.548-1.489,6.274-3.21c0.447-0.445,0.455-1.331,0.798-2.45
		c-7.749,1.185-15.065,1.254-22.199-0.774c-4.062-1.154-8.402-1.705-12.603-4.65c1.12-0.199,1.67-0.472,2.096-0.342
		c1.977,0.606,3.944,1.26,5.868,2.015c4.95,1.944,10.182,2.55,15.768,3.368c3.564-0.425,7.527-0.807,11.457-1.405
		c2.253-0.343,4.342-1.188,5.194-3.893c-1.789-4.692-4.04-9.164-8.307-12.411c-4.573-3.481-8.885-7.315-13.55-10.661
		c-2.564-1.839-5.525-3.231-8.474-4.404c-5.367-2.135-10.282-5.113-15.324-7.838c-6.454-3.489-12.648-7.466-19.146-10.864
		c-4.226-2.211-8.747-3.896-13.237-5.541c-1.578-0.578-3.458-0.334-4.973-0.447c-3.331,1.549-5.072,4.302-6.737,6.985
		c-1.763,2.84-3.026,5.914-3.493,9.338c-0.408,2.985-1.033,6.021-2.12,8.817c-2.83,7.273-3.427,14.935-4.062,22.539
		c-0.586,7.014-1.571,13.952-2.616,20.896c-0.88,5.848-1.612,11.695-1.583,17.638c0.014,3.014-0.306,6.082-0.91,9.037
		c-2.185,10.689-3.053,21.466-2.917,32.365c0.09,7.18-0.104,14.366-0.28,21.546c-0.047,1.903-0.339,3.834-0.785,5.687
		c-1.32,5.478-1.667,11.045-1.735,16.642c-0.103,8.467-0.216,16.936-0.199,25.403c0.014,6.55,0.266,13.098,0.326,19.648
		c0.043,4.629,0.043,9.264-0.117,13.89c-0.377,10.868-0.121,21.711,0.656,32.56c0.89,12.425,1.32,24.875,1.419,37.335
		c0.019,2.39,0.228,4.782,0.441,7.166c1.31,14.647,2.234,29.324,1.569,44.021c-0.396,8.772-1.06,17.537-0.829,26.316
		c0.381,14.521,0.946,29.038,1.481,43.554c0.417,11.329,1.05,22.652,1.314,33.984c0.185,7.974-0.501,15.967,0.575,23.925
		c0.095,0.701,0.178,1.645-1.193,1.808c-0.148-0.328-0.43-0.693-0.472-1.084c-0.858-8.108-1.014-16.224-0.497-24.371
		c0.202-3.171-0.123-6.379-0.271-9.567c-0.443-9.571-0.915-19.141-1.379-28.712c-0.92-18.989-1.339-37.988-0.9-56.997
		c0.177-7.662,1.132-15.304,0.723-22.98c-0.457-8.607-0.925-17.217-1.562-25.812c-0.65-8.764-1.134-17.523-0.972-26.32
		c0.071-3.825-0.193-7.665-0.463-11.487c-0.845-11.949-1.785-23.892-1.568-35.886c0.078-4.312,0.372-8.624,0.335-12.934
		c-0.083-9.584-0.338-19.167-0.468-28.751c-0.043-3.194,0.098-6.389,0.115-9.583c0.006-1.114,0.181-2.351-0.225-3.321
		c-1.663-3.959-1.61-8.132-1.64-12.257c-0.06-8.172-0.58-16.272-2.419-24.263c-0.355-1.542-0.403-3.165-0.511-4.755
		c-0.238-3.503-0.353-7.016-0.652-10.514c-0.248-2.903-0.128-5.732,0.833-8.506c0.311-0.898,0.757-1.846,0.715-2.751
		c-0.32-6.853,0.91-13.73-0.396-20.736c0.498-1.527,1.037-3.184,1.562-4.794c-0.409-3.05-2.747-5.608-1.748-9.341
		c0.446-1.135,1.086-2.764,1.877-4.779c-2.7-7.268-2.428-14.995-1.378-22.502c1.134-1.397,2.031-2.502,3.029-3.73
		c-0.096-1.223-0.014-2.533-0.332-3.736c-0.676-2.564-0.423-5.044,0.089-7.583c0.472-2.342,0.835-4.719,1.051-7.097
		c0.277-3.042,1.466-5.49,3.931-7.344c1.13-0.849,2.142-1.855,3.205-2.79c0.851,0.736,0.135,1.278-0.196,1.66
		c-0.935,1.079-1.969,2.078-3.009,3.061c-1.457,1.377-2.238,3.125-2.59,5.022c-0.61,3.288-1.137,6.596-1.551,9.914
		c-0.174,1.393-0.015,2.837,0.074,4.252c0.119,1.89,0.318,3.774,0.47,5.523c-1.03,1.22-1.847,2.186-2.924,3.46
		c-1.406,7.609-0.365,15.413,1.672,22.864c-0.931,2.11-1.701,3.857-2.569,5.828c0.837,2.382,1.729,4.921,2.673,7.607
		c-0.548,1.428-1.114,2.903-1.767,4.604c0.126,1.386,0.171,2.99,0.437,4.555c0.408,2.392,0.374,4.734,0.035,7.144
		c-0.263,1.872-0.124,3.822,0.021,5.724c0.173,2.266,0.03,4.404-0.849,6.566c-0.584,1.437-0.906,3.11-0.843,4.657
		c0.241,5.901,0.561,11.804,1.105,17.684c0.292,3.162,1.185,6.264,1.645,9.416c0.386,2.649,0.537,5.331,0.864,8.733
		c0.547-1.105,0.929-1.59,1.03-2.129c0.475-2.509,0.81-5.045,1.311-7.548c0.883-4.413,1.07-8.863,1.044-13.35
		c-0.046-7.823-0.063-15.649,0.087-23.471c0.067-3.506,0.463-7.017,0.894-10.504c0.509-4.118,1.137-8.225,1.864-12.31
		c0.59-3.314,0.953-6.617,1.001-9.993c0.116-8.159,1.224-16.221,2.706-24.238c0.377-2.039,0.647-4.101,0.866-6.164
		c0.725-6.821,1.3-13.66,2.155-20.462c0.315-2.504,1.252-4.932,1.901-7.394c0.274-1.042,0.536-2.086,0.874-3.405
		c-0.743,0-1.203-0.102-1.598,0.015c-5.893,1.751-11.681,1.137-17.396-0.781c-1.813-0.609-3.592-1.339-5.335-2.127
		c-2.078-0.937-3.9-2.295-4.99-4.326c-1.883-3.509-3.879-6.993-5.353-10.677c-2.152-5.376-4.533-10.549-8.407-14.94
		C0.807,26.744,0.478,25.654,0,24.739c0.506-0.341,0.808-0.704,1.005-0.654c3.547,0.89,6.937,0.24,10.328-0.851
		c2.739-0.88,5.552-1.278,8.459-1.429c3.762-0.196,7.278,0.561,10.827,1.585c5.965,1.725,9.895,5.576,12.216,11.233
		c0.415,1.013,0.94,1.978,1.506,3.157c2.414-0.683,4.661-1.317,6.808-1.924c0.947-1.617,0.227-3.012-0.201-4.299
		c-1.311-3.94-2.774-7.856-5.236-11.243c-2.388-3.286-3.991-6.856-4.756-11.067c1.775-2.533,4.037-4.15,7.16-3.35
		c5.689,8.552,9.752,17.547,13.76,26.57c0.384,0.865,0.783,1.723,1.291,2.84c2.705-0.725,5.118-1.701,7.409-3.308
		c-2.623-9.159-5.829-17.995-8.139-27.054c1.311-1.553,2.328-2.956,4.221-3.278c0.001,0.665,0.001,1.328,0.001,1.98
		c1.468,0.111,2.581-0.092,3.228-1.822C68.597,1.825,67.55,1.825,66.503,1.825z M3.754,27.016c3.55,4.65,5.842,9.332,7.612,14.321
		c0.955,2.694,2.283,5.266,3.584,7.82c1.872,3.676,4.486,6.573,8.693,7.648c0.765,0.195,1.466,0.626,2.218,0.89
		c4.116,1.438,8.371,1.928,12.703,1.694c1.156-0.062,2.469-0.066,3.269-1.399c-1.954-0.638-3.827-1.071-5.547-1.846
		c-4.148-1.867-7.694-4.511-9.943-8.601c-1.21-2.199-1.746-4.437-0.098-6.89c1.721-0.106,3.401,0.379,5.057,0.9
		c1.805,0.568,3.698,1.023,5.327,1.932c1.498,0.836,2.671,2.243,4.036,3.336c1.419,1.136,1.685,3.365,3.891,4.267
		c0-2.416,0.415-4.562-0.087-6.468c-1.01-3.832-2.213-7.68-3.912-11.246c-1.593-3.343-4.355-5.851-7.879-7.369
		c-5.433-2.339-11.114-2.965-16.871-2.014C11.911,24.635,8.116,25.896,3.754,27.016z M136.697,22.121
		c-2.423,0.314-4.151,0.804-5.843,0.702c-4.096-0.248-7.943,0.893-11.703,2.09c-5.879,1.874-10.273,5.592-12.554,11.575
		c-1.797,4.715-2.105,9.636-2.341,14.568c-0.043,0.892,0.643,1.818,1.047,2.87c1.334-3.288,2.375-6.303,3.763-9.149
		c1.349-2.767,3.642-4.827,6.067-6.684c2.43-1.861,4.312-4.552,7.896-5.449c-0.261,3.038-0.49,5.734-1.325,8.265
		c-0.791,2.398-1.858,4.754-3.151,6.923c-1.331,2.232-3.08,4.214-4.985,6.759c2.822-0.123,4.515-1.297,6.185-2.462
		c2.744-1.914,5.471-3.854,8.166-5.836c2.794-2.055,4.789-4.793,5.576-8.132C134.697,33.064,135.566,27.887,136.697,22.121z
		 M102.958,55.38c0.386-4.837-1.107-9.221-2.084-13.425c-3.774-6.336-9.067-10.405-15.331-13.206
		c-2.161,0.568-4.041,0.947-5.835,1.571c-1.34,0.466-2.547,1.299-3.854,1.877c-1.442,0.638-2.918,1.205-4.401,1.742
		c-1.912,0.692-3.952,1.12-5.501,2.768c1.317,1.433,3.024,1.867,4.612,2.516c2.503,1.024,5.125,1.833,7.484,3.122
		c6.424,3.51,12.743,7.213,19.09,10.864C98.929,54.24,100.746,55.151,102.958,55.38z M43.873,11.497
		c-0.531,2.705,0.804,4.23,1.852,5.763c3.544,5.185,6.081,10.789,7.521,16.905c0.247,1.051,0.78,2.034,1.179,3.043
		c2.265-0.683,4.327-1.305,6.605-1.993c-0.247-0.846-0.382-1.606-0.686-2.292c-1.867-4.213-3.77-8.411-5.664-12.612
		c-1.442-3.198-3.331-6.121-5.295-8.813C47.463,11.497,45.748,11.497,43.873,11.497z M69.983,4.768
		c-1.914,0.558-3.567,1.038-5.494,1.6c1.663,7.131,4.161,13.808,6.26,20.596c0.491,1.586,0.774,3.436,2.405,4.579
		c1.566-0.322,2.972-0.918,3.946-2.139C76.757,26.254,71.547,8.133,69.983,4.768z M27.015,42.803
		c-0.108,0.49-0.204,0.663-0.167,0.799c1.685,6.167,8.653,11.727,15.075,11.987c0.364,0.016,0.746-0.404,1.09-0.604
		C40.785,47.29,35.883,43.531,27.015,42.803z M108.122,56.978c4.352-4.162,7.852-7.98,10.311-12.657
		c0.591-1.125,1.185-2.271,1.573-3.473c0.418-1.297,0.922-2.673,0.078-4.05C111.923,41.302,107.264,48.822,108.122,56.978z
		 M53.09,38.799c-0.371-0.481-0.656-0.851-1.011-1.311c-2.572,0.041-4.946,0.542-6.837,2.767c0.292,1.426,0.614,2.813,0.852,4.212
		c0.248,1.463,0.415,2.94,0.715,5.126C49.1,45.657,50.986,42.415,53.09,38.799z M47.454,6.887c-1.927,0.641-3.598,0.393-4.248,2.423
		c1.612,0.384,3.049,1.007,4.628-0.247C47.747,8.562,47.651,8.016,47.454,6.887z M112.325,84.822
		c-1.553-1.907-1.553-1.907-3.329-2.204C110.044,85.347,110.036,85.367,112.325,84.822z"/>
	<path fill-rule="evenodd" clip-rule="evenodd" d="M35.771,265.849c0.074-0.621,0.148-1.242,0.222-1.865
		c3.486-3.193,7.253-1.601,10.772-1.047c4.309,3.254,4.864,7.854,5.171,12.523c0.157,2.387,0.047,4.795,0.249,7.176
		c0.188,2.217,0.587,4.419,0.972,6.613c0.714,4.071,1.829,8.104,2.145,12.202c0.382,4.96-1.194,9.459-5.209,12.742
		c-2.857,2.335-5.925,3.088-9.524,0.382c-0.793-1.821-1.742-3.999-2.521-5.789c0.258-7.483,0.063-14.448-1.419-21.362
		c-1.478-6.896-1.578-13.914-1.207-20.936c0.015-0.273,0.315-0.532,0.485-0.802c0.253,4.445,0.46,8.898,0.769,13.344
		c0.144,2.063,0.337,4.145,0.765,6.165c1.521,7.198,2.319,14.451,2.076,21.813c-0.088,2.663,0.898,4.973,2.61,7.247
		c1.052,0.344,2.235,0.733,3.134,1.027c6.381-2.157,8.319-6.951,8.767-12.351c-1.136-6.324-2.339-12.259-3.22-18.242
		c-0.438-2.98-0.206-6.053-0.422-9.074c-0.31-4.322-0.755-8.633-4.883-11.835c-2.38,0.383-4.989-1.382-7.66,0.095
		C37.147,264.541,36.459,265.196,35.771,265.849z"/>
	<path fill-rule="evenodd" clip-rule="evenodd" d="M42.771,365.586c2.47-1.132,5.2-2.4,8.501-2.399
		c4.412,2.36,5.589,6.638,5.862,11.142c0.22,3.633,0.03,7.34-0.449,10.953c-0.661,4.99,0.081,9.827,0.819,14.698
		c0.119,0.783,0.36,1.55,0.463,2.336c0.347,2.645-0.628,4.735-2.928,6.039c-2.48,1.406-5.063,2.631-7.206,3.732
		c-2.208,0.228-3.532-0.602-5.001-1.897c-1.84-3.82-2.777-8.083-2.526-12.632c0.157-2.853,0.129-5.717,0.233-8.574
		c0.058-1.588-0.045-3.248,0.387-4.741c0.828-2.863,0.632-5.615,0.083-8.479c-0.355-1.854-0.3-3.803-0.273-5.706
		C40.761,368.436,41.227,366.913,42.771,365.586z M43.262,366.544c-1.395,3.603-1.675,5.545-1.01,8.527
		c0.563,2.526,0.905,5.067,0.308,7.569c-1.503,6.295-0.641,12.674-0.778,19.008c-0.068,3.185,1.092,6.204,3.489,8.846
		c1.058-0.085,2.357,0.187,3.16-0.323c2.505-1.589,5.805-1.953,7.841-5.178c-0.087-1.487,0.054-3.423-0.352-5.236
		c-1.346-6.004-1.035-12.008-0.453-18.044c0.213-2.212,0.507-4.459,0.333-6.656c-0.317-3.998-1.406-7.762-4.866-10.723
		C48.362,365.075,45.805,365.811,43.262,366.544z"/>
	<path fill-rule="evenodd" clip-rule="evenodd" d="M56.41,208.638c-0.536,2.156-0.984,4.339-1.63,6.462
		c-1.127,3.701-3.038,5.126-6.986,5.289c-1.902,0.079-3.811,0.014-5.212,0.014c-3.324-1.26-4.536-3.626-5.417-6.324
		c-0.147-5.04,0.049-10.056,1.26-15.082c0.692-2.867,0.371-5.994,0.381-9.004c0.005-1.564-0.26-3.129-0.402-4.672
		c2.56-2.719,5.897-3.179,9.253-4.076c3.931,3.223,7.507,6.779,10.453,10.912c1.11,1.556,1.696,3.487,1.478,5.43
		c-0.438,3.916-1.145,7.785-3.337,11.206c0.006-0.77-0.109-1.577,0.062-2.32c0.355-1.546,0.929-3.042,1.291-4.587
		c1.082-4.605,0.723-8.846-3.11-12.24c-1.066-0.944-1.946-2.098-2.91-3.158c-1.394-1.532-2.906-2.901-4.88-3.682
		c-2.498,0.665-4.975,1.199-6.751,3.032c0,0.847-0.145,1.521,0.023,2.104c1.099,3.808,0.756,7.701-0.22,11.335
		c-1.144,4.255-1.025,8.497-1.188,12.771c-0.104,2.732,0.769,5,2.559,6.117c3.611,1.739,6.57,0.71,9.385,0.45
		c2.684-2.365,2.726-2.354,3.55-5.573C54.494,211.362,54.663,209.594,56.41,208.638z"/>
	<path fill-rule="evenodd" clip-rule="evenodd" d="M52.235,236.803c-0.016,0.473,0.108,1.007-0.067,1.411
		c-2.507,5.768-2.259,11.82-1.75,17.86c0.171,2.031,0.853,4.036,1.441,6.011c0.414,1.388,1.139,2.642,2.894,3.284
		c3.714-1.065,6.824-3.491,10.226-6.084c0.191-1.255,0.541-2.643,0.589-4.04c0.166-4.925-0.353-9.892,1.013-14.735
		c-0.396-5.719,1.012-11.446-0.079-17.164c-0.056-0.294,0.092-0.626,0.144-0.94l-0.101,0.087c1.829,0.745,1.846,2.498,1.943,3.989
		c0.143,2.217-0.073,4.457-0.138,6.688c-0.045,1.582-0.099,3.164-0.137,4.746c-0.023,0.956,0.179,1.969-0.066,2.86
		c-1.119,4.073-0.88,8.212-0.89,12.357c-0.004,2.055-0.427,4.11-0.644,6.019c-2.2,3.199-5.521,4.557-8.493,6.348
		c-1.356,0.818-2.87,1.442-4.718,0.902c-1.491-0.833-2.424-2.283-3.007-3.978c-0.414-1.205-0.839-2.421-1.076-3.668
		c-1.027-5.388-0.809-10.798,0.1-16.166c0.361-2.133,0.822-4.379,2.91-5.708C52.328,236.882,52.235,236.803,52.235,236.803z"/>
	<path fill-rule="evenodd" clip-rule="evenodd" d="M48.518,496.607c-0.28,0.563-0.689,1.098-0.816,1.695
		c-0.43,2.012-0.759,4.045-1.092,5.876c0.756,2.411,1.788,4.275,3.922,5.449c3.234,1.781,6.389,1.69,9.556-0.059
		c2.231-1.231,4.44-2.501,6.657-3.759c0.277-0.157,0.584-0.296,0.802-0.517c3.22-3.268,6.429-6.55,9.07-9.245
		c1.841-5.047-1.235-8.456-1.613-12.654c-1.168-0.036-2.265-0.274-3.268-0.065c-4.236,0.882-8.325,2.261-11.93,4.697
		c-1.557,1.053-2.78,2.587-4.225,3.82c-0.553,0.471-1.303,0.711-1.963,1.057c1.709-3.216,4.341-5.412,7.527-7.099
		c4.694-2.486,9.587-4.16,14.931-4.441c0.965,3.197,1.972,6.174,2.752,9.21c0.991,3.856-0.816,6.808-3.453,9.368
		c-1.708,1.658-3.486,3.242-5.24,4.851c-0.588,0.539-1.131,1.168-1.808,1.559c-2.891,1.673-5.766,3.392-8.759,4.866
		c-3.217,1.584-6.497,1.28-9.635-0.399c-3.383-1.809-4.953-4.998-4.267-8.788c0.281-1.556,0.779-3.072,1.238-4.834
		C47.382,497.021,47.95,496.814,48.518,496.607z"/>
	<path fill-rule="evenodd" clip-rule="evenodd" d="M42.73,437.416c-2.074-0.714-2.518-2.366-2.108-4.209
		c0.588-2.645,0.844-5.309,1.129-7.99c0.142-1.337,0.773-2.812,1.635-3.849c3.495-4.208,7.761-7.034,13.56-6.614
		c1.425,0.104,2.853,0.179,4.183,0.261c3.862,1.671,5.979,4.747,7.398,8.418c1.026,2.655,2.01,5.325,3.067,8.131
		c-0.705,1.791-1.391,3.535-2.118,5.383c-1.653,0.457-3.148,1.044-4.695,1.266c-6.311,0.903-12.663,0.956-19.016,0.589
		c-1.213-0.069-2.578-0.141-3.206-1.561c3.954,0.16,7.928,0.644,11.857,0.4c4.55-0.283,9.233-0.022,13.516-1.841
		c1.953-1.585,2.105-3.593,1.451-5.681c-0.615-1.966-1.469-3.856-2.201-5.786c-1.275-3.365-3.337-6.087-6.635-8.204
		c-1.867,0-3.939-0.135-5.986,0.026c-5.242,0.414-8.595,3.686-11.223,7.854c-0.476,0.754-0.548,1.809-0.654,2.742
		c-0.268,2.342-0.448,4.695-0.73,7.761C42.087,435.005,42.409,436.21,42.73,437.416z"/>
	<path fill-rule="evenodd" clip-rule="evenodd" d="M80.787,65.539c-0.735,0.495-1.258,0.847-2.005,1.35
		c-0.714,4.759-3.462,7.785-8.601,8.392c-3.102-1.428-4.307-4.051-4.56-7.344c-1.606-0.408-3.114-0.789-4.596-1.165
		c-1.073-1.865-2.239-3.558-1.196-5.689c1.32-0.137,1.319,0.907,1.786,1.434c0.419,0.473,0.738,1.062,1.226,1.442
		c0.616,0.478,1.329,0.866,2.053,1.159c0.567,0.23,1.217,0.256,1.63,0.334c1.437-1.727,2.734-3.284,3.85-4.624
		c3.159-1.03,5.313-0.068,7.05,2.162c0.48,0.617,0.905,1.311,1.496,1.797C79.367,65.157,80.04,65.254,80.787,65.539z M69.979,73.207
		c3.996-0.833,4.701-1.177,5.973-3.137c0.508-0.783,0.975-1.688-0.091-2.769c-1.291,0.956-2.615,1.935-4.051,2.997
		c-0.627-0.537-1.05-0.991-1.558-1.311c-0.597-0.377-1.267-0.636-2.062-1.022C66.936,70.573,68.689,71.672,69.979,73.207z
		 M71.815,62.065c-1.224,1.059-2.801,1.802-2.834,4.171c2.072-0.141,3.924-0.193,5.75-0.433c0.639-0.084,1.218-0.634,1.892-1.011
		C75.628,62.78,74.248,62.006,71.815,62.065z"/>
	<path fill-rule="evenodd" clip-rule="evenodd" d="M62.828,472.687c-0.275-0.13-0.685-0.183-0.805-0.398
		c-2.881-5.147-4.507-10.489-2.751-16.445c0.761-2.577,1.261-5.233,1.876-7.841c3.636-2.943,7.898-2.074,12.199-2.507
		c2.976,3.646,5.193,7.652,5.422,12.404c0.087,1.8-0.689,3.737-1.429,5.459c-1.063,2.475-2.492,4.789-3.692,7.208
		c-1.296,2.614-3.581,4.014-6.139,4.993c-0.98,0.376-2.249,0.521-2.756-0.962l-0.084,0.09c2.578,0.105,4.472-1.358,6.681-2.887
		c1.612-3.195,3.355-6.58,5.033-9.997c1.028-2.094,1.147-4.34,0.399-6.511c-1.029-2.989-2.067-6.014-4.443-8.387
		c-3.534-0.274-6.935-0.032-10.15,1.818c-0.46,2.076-0.718,4.151-1.389,6.083c-1.848,5.322-0.849,10.316,1.323,15.263
		c0.364,0.829,0.423,1.793,0.622,2.694L62.828,472.687z"/>
	<path fill-rule="evenodd" clip-rule="evenodd" d="M58.921,361.513c1.293,0.524,2.586,1.049,4.139,1.678
		c2.19-0.514,4.862-0.262,6.835-2.296c0.123-0.277,0.356-0.563,0.364-0.854c0.15-6.203,0.644-12.364,1.776-18.479
		c0.451-2.433-0.228-4.79-1.651-6.794c-2.279-3.211-3.165-6.888-3.952-10.633c-0.293-1.393-0.801-2.739-1.132-4.125
		c-0.398-1.667-0.712-3.354-1.062-5.032l-0.096,0.09c0.384,0.283,0.767,0.565,1.437,1.057c0.971,3.706,1.938,7.7,3.085,11.642
		c0.484,1.661,1.288,3.242,2.058,4.804c0.771,1.564,1.683,3.059,2.526,4.573c0,2.109,0.159,4.184-0.03,6.226
		c-0.569,6.132-1.275,12.252-1.913,18.242c-2.641,2.511-5.709,2.996-9.105,2.826c-1.375-0.581-2.867-1.142-3.201-2.999
		L58.921,361.513z"/>
	<path fill-rule="evenodd" clip-rule="evenodd" d="M47.072,352.432c-4.089-1.561-4.919-4.848-6.438-7.503
		c-1.583-2.768-0.934-5.909-1.12-8.907c-0.206-3.319,1.352-6.176,2.35-9.045c-0.157-0.899-0.289-1.656-0.43-2.467
		c0.405,0.122,0.834,0.116,0.956,0.307c1.107,1.736,2.451,3.396,3.174,5.288c2.242,5.873,3.331,11.98,2.671,18.291
		C48.107,349.6,47.567,350.761,47.072,352.432z M42.553,329.042c-0.445,1.489-1.084,2.949-1.302,4.471
		c-0.777,5.429-1.021,10.805,3.128,15.232c0.472,0.504,1.113,0.85,1.715,1.298c1.56-2.83,1.084-5.543,0.698-8.191
		C46.156,337.487,45.513,333.099,42.553,329.042z"/>
	<path fill-rule="evenodd" clip-rule="evenodd" d="M43.058,450.069c3.239-2.467,6.213-2.53,9.532-2.433
		c-0.146,0.603-0.207,0.97-0.326,1.316c-0.101,0.291-0.27,0.559-0.563,1.143c2.687,6.01,1.924,12.219-0.634,18.291
		c-0.716,1.699-1.541,3.574-4.204,4.009c-0.583-0.581-1.676-1.193-1.992-2.083c-0.688-1.935-1.381-4.017-1.343-6.026
		c0.062-3.267-0.715-6.296-1.728-9.592C42.203,453.213,42.655,451.551,43.058,450.069z M43.038,453.94
		c0.61,2.83,1.182,5.126,1.583,7.451c0.429,2.489,0.643,5.014,1.058,7.505c0.154,0.922,0.577,1.831,2.483,1.697
		c3.883-6.764,5.258-13.897,1.525-21.837c-1.675,0.389-3.34,0.777-4.744,1.103c-0.512,0.662-0.904,0.995-1.071,1.419
		C43.525,452.158,43.298,453.085,43.038,453.94z"/>
	<path fill-rule="evenodd" clip-rule="evenodd" d="M72.443,416.16c1.865-1.596,2.421-3.422,2.885-5.242
		c0.506-1.988-0.196-3.741-1.377-5.355c-1.491-2.038-2.932-4.111-4.664-6.549c3.013,1.302,5,3.703,7.819,9.194
		c-0.235,3.675-0.691,7.505-4.746,9.605c-3.529-2.378-6.446-6.465-9.681-13.504c0-0.726-0.029-1.837,0.011-2.946
		c0.023-0.629,0.16-1.255,0.23-1.773c2.837-3.424,2.837-3.424,6.128-3.491c-1.22,0.748-2.084,1.232-2.897,1.789
		c-0.787,0.539-1.523,1.152-1.591,1.205c-0.972,2.454-0.871,4.073-0.149,5.514C66.465,408.711,68.475,412.871,72.443,416.16z"/>
	<path fill-rule="evenodd" clip-rule="evenodd" d="M58.998,361.44c-1.988-0.426-2.686-2.139-3.401-3.67
		c-1.836-3.931-3.061-8.075-3.015-12.444c0.055-5.252,0.241-10.509,0.557-15.752c0.219-3.626,1.181-7.13,2.339-11.346
		c0.919,2.296,0.657,3.862,0.211,5.291c-1.599,5.116-1.623,10.368-1.604,15.636c0.008,2.074-0.006,4.148,0.003,6.221
		c0.024,5.215,1.146,10.1,4.254,14.415c0.339,0.469,0.393,1.142,0.579,1.722L58.998,361.44z"/>
	<path fill-rule="evenodd" clip-rule="evenodd" d="M63.7,298.231c1.276-0.943,2.553-1.888,3.664-2.709
		c2.201-4.256,1.579-8.698,1.833-12.926c0.208-3.461-0.712-6.975-2.748-9.977c-2.648-2.706-5.69-0.766-8.951-0.635
		c2.48-2.308,5.269-1.774,7.756-2.272c2.469,1.482,3.735,3.676,4.421,6.175c0.887,3.232,1.503,6.51,0.956,9.919
		c-0.276,1.726-0.169,3.51-0.363,5.253c-0.376,3.373-1.829,6.088-5.04,7.588c-0.569,0.266-1.226,0.421-1.428-0.51L63.7,298.231z"/>
	<path fill-rule="evenodd" clip-rule="evenodd" d="M47.5,158.224c3.273,0.12,4.015,2.766,4.701,5.112
		c0.645,2.207-0.645,3.922-2.438,5.22c-2.265,1.641-4.691,2.56-7.801,1.762c-2.105-3.03,0.155-6.268-0.208-9.143
		c1.008-2.058,2.38-3.25,4.352-3.826c0.514,0.329,1.035,0.662,1.554,0.993c-2.107-0.218-3.284,1.105-4.074,2.716
		c-1.296,2.637-1.347,5.406-0.473,8.518c3.69-0.452,6.647-1.46,7.746-4.986C50.797,161.68,48.962,160.057,47.5,158.224z"/>
	<path fill-rule="evenodd" clip-rule="evenodd" d="M68.326,387.063c-5.379-2.576-6.733-6.026-4.521-11.445
		c1.948-1.353,4.191-2.231,7.337-2.354c-2.192,2.396-5.502,1.487-7.179,4.451c-0.545,1.648,0.244,3.564,1.266,5.379
		c0.713,1.265,1.691,2.333,3.615,2.312c2.843-2.061,4.231-4.77,3.011-8.452c0.983-0.586,1.242,0.217,1.374,0.73
		C74.284,381.788,72.944,384.401,68.326,387.063z"/>
	<path fill-rule="evenodd" clip-rule="evenodd" d="M55.91,95.863c-0.114-1.626-1.212-2.826-0.81-4.72
		c2.091,1.726,2.011,3.737,2.204,5.511c-1.315,2.591-2.974,4.352-5.696,5.114c-1.264-0.878-2.421-1.684-3.736-2.599
		c-0.358-0.892-0.762-1.897-1.192-2.966c1.611-2.119,2.456-4.95,6.475-4.839c-1.982,1.699-4.389,2.272-4.842,4.961
		c-0.185,2.186,1.724,2.883,3.356,3.831C53.936,99.651,55.269,98.25,55.91,95.863z"/>
	<path fill-rule="evenodd" clip-rule="evenodd" d="M39.488,245.186c-0.184,0.348-0.367,0.697-0.618,1.175
		c-2.241-1.054-2.786-3.114-3.865-5.065c0.119-1.107,0.236-2.358,0.391-3.605c0.255-2.036,0.654-4.061,0.773-6.104
		c0.166-2.868,0.944-5.466,2.97-7.707c-0.463,2.691-0.913,5.383-1.392,8.071c-0.472,2.65-0.972,5.294-1.469,7.997
		c0.331,2.241,1.09,4.253,3.335,5.357L39.488,245.186z"/>
	<path fill-rule="evenodd" clip-rule="evenodd" d="M50.57,476.588c2.005,0,4.002,0,6.016,0c0.71,1.973-0.2,3.31-1.251,4.427
		c-1.677,1.783-3.867,2.554-6.423,2.689C47.516,480.834,49.297,478.882,50.57,476.588z M50.033,482.13
		c2.543-0.721,4.483-1.415,5.115-4.085c-1.674-0.806-3.056-0.797-4.67,0.588C50.365,479.518,50.22,480.656,50.033,482.13z"/>
	<path fill-rule="evenodd" clip-rule="evenodd" d="M63.8,298.137c-2.972-1.309-4.571-3.947-5.302-6.769
		c-0.875-3.384-2.125-6.587-3.358-9.821c-0.793-2.08-0.775-2.087-0.485-4.583c0.95,2.386,1.993,5.005,3.033,7.625
		c0.35,0.882,0.871,1.74,1.005,2.655c0.526,3.581,2.275,6.522,4.486,9.277c0.346,0.431,0.355,1.134,0.52,1.711L63.8,298.137z"/>
	<path fill-rule="evenodd" clip-rule="evenodd" d="M46.386,114.216c-0.996,0.773-1.532,1.221-2.102,1.62
		c-0.523,0.367-1.084,0.681-1.147,0.721c-0.381,2.496-0.099,4.158,0.746,5.654c3.759,0.339,5.618-1.578,5.571-7.396
		c1.317,1.929,1.443,3.708,0.3,5.821c-1.396,2.583-3.604,3.425-6.398,2.86c-1.958-2.686-1.958-2.686-1.397-7.09
		C42.867,115.086,43.926,113.999,46.386,114.216z"/>
	<path fill-rule="evenodd" clip-rule="evenodd" d="M41.75,243.562c0.366-1.84,0.616-3.713,1.129-5.51
		c0.571-2.003,1.035-3.978,0.662-6.252c-0.309-1.593-1.989-3.006-1.477-5.332c1.932,1.959,2.563,4.221,3.204,6.593
		c-0.696,3.61-1.033,7.386-3.616,10.405C41.652,243.466,41.75,243.562,41.75,243.562z"/>
	<path fill-rule="evenodd" clip-rule="evenodd" d="M62.924,177.07c0.535,0.311,1.07,0.622,1.734,1.009
		c0.041,0.914,0.082,1.829,0.122,2.719c-1.845,1.821-3.579,3.339-6.192,1.911c-0.044-3.432-0.044-3.432,1.43-6.692
		c0.55-0.136,1.273-0.315,2.145-0.532c0.367,0.682,0.651,1.209,0.935,1.736c-0.85,0.019-1.7,0.037-2.864,0.063
		c-0.099,1.537-0.209,2.756-0.227,3.976c-0.003,0.191,0.406,0.388,0.873,0.805c0.888-0.685,1.824-1.406,2.896-2.232
		C63.451,178.779,63.188,177.925,62.924,177.07z"/>
	<path fill-rule="evenodd" clip-rule="evenodd" d="M50.29,133.208c-0.531,2.118-1.062,4.236-1.651,6.585
		c1.943,3.318,5.084,1.562,8.257,1.233c-1.168,2.037-2.794,1.848-4.209,1.947c-1.963,0.138-3.801-0.223-5.154-2.251
		c-0.316-2.822,0.942-5.239,2.861-7.42L50.29,133.208z"/>
	<path fill-rule="evenodd" clip-rule="evenodd" d="M59.223,163.236c-0.03,0.467-0.061,0.935-0.096,1.465
		c-0.487,0.032-0.946,0.061-1.409,0.092c-2.238-1.969-0.963-4.095-0.379-6.482c0.926-0.529,1.989-1.138,3.022-1.729
		c0.548,0.689,0.374,0.896-1.654,2.312c-1.007,1.368-1.039,2.909-0.739,4.739c0.513-0.159,0.887-0.275,1.261-0.391L59.223,163.236z"
		/>
	<path fill-rule="evenodd" clip-rule="evenodd" d="M56.107,226.229c-0.305-1.339,0.56-2.084,1.473-2.729
		c1.809-1.278,3.665-2.492,5.494-3.726c0.796,0.621,0.329,1.159-0.141,1.5c-2.282,1.658-4.604,3.258-6.912,4.88L56.107,226.229z"/>
	<path fill-rule="evenodd" clip-rule="evenodd" d="M56.021,226.155c-0.008,3.535-1.322,6.71-2.764,9.839
		c-0.162,0.352-0.674,0.542-1.023,0.809c0.001,0.001,0.094,0.08,0.095,0.08c-0.021-0.46-0.179-0.965-0.044-1.373
		c0.88-2.645,1.796-5.279,2.771-7.889c0.195-0.521,0.694-0.929,1.052-1.39C56.107,226.229,56.021,226.155,56.021,226.155z"/>
	<path fill-rule="evenodd" clip-rule="evenodd" d="M50.393,133.303c0.007-0.304-0.109-0.701,0.04-0.898
		c1.54-2.033,2.96-2.805,6.616-3.512c-2.521,1.609-4.641,2.962-6.76,4.315L50.393,133.303z"/>
	<path fill-rule="evenodd" clip-rule="evenodd" d="M59.851,132.637c0.156,4.662,0.156,4.662-1.79,7.421
		C58.682,137.483,59.165,135.48,59.851,132.637z"/>
	<path fill-rule="evenodd" clip-rule="evenodd" d="M64.238,314.979c-2.206,0.714-4.412,1.429-6.774,2.194
		c1.024-2.301,2.696-2.771,6.659-2.087C64.141,315.069,64.238,314.979,64.238,314.979z"/>
	<path fill-rule="evenodd" clip-rule="evenodd" d="M52.299,494.225c-0.551,2.07-2.175,2.452-3.988,2.538
		C49.141,495.134,51.002,495.122,52.299,494.225z"/>
	<path fill-rule="evenodd" clip-rule="evenodd" d="M59.228,163.243c0.707-0.145,1.409-0.336,2.124-0.423
		c0.7-0.086,1.413-0.069,2.121-0.098l0.001-0.011c-0.673,0.364-1.346,0.728-2.218,1.2c-0.58-0.192-1.306-0.434-2.032-0.675
		L59.228,163.243z"/>
	<path fill-rule="evenodd" clip-rule="evenodd" d="M64.753,474.599c-1.379,0.105-1.946-0.607-1.926-1.912
		c0,0-0.082,0.079-0.081,0.079c1.317-0.036,1.911,0.652,1.923,1.923L64.753,474.599z"/>
	<path fill-rule="evenodd" clip-rule="evenodd" d="M39.613,245.305c0.644-0.665,0.829-1.893,2.137-1.743
		c0,0-0.098-0.096-0.098-0.097c-0.319,1.691-0.319,1.691-2.157,1.728C39.488,245.186,39.613,245.305,39.613,245.305z"/>
	<path fill-rule="evenodd" clip-rule="evenodd" d="M63.472,162.722c-0.251-0.684-0.502-1.367-0.754-2.05
		c0.181-0.052,0.362-0.104,0.543-0.156c0.071,0.731,0.142,1.461,0.213,2.194L63.472,162.722z"/>
	<path fill-rule="evenodd" clip-rule="evenodd" d="M66.645,222.406c-0.974-0.127-0.967-0.562-0.227-1.393
		c0.054,0.625,0.091,1.052,0.127,1.479C66.544,222.493,66.645,222.406,66.645,222.406z"/>
</g>
</svg>
