<svg xmlns="http://www.w3.org/2000/svg" viewBox="811.502 -0.009 297 1080" enable-background="new 811.502 -0.009 297 1080"><path opacity=".2" enable-background="new" d="M915.559 187.615c-20.126 0-20.126 31.223 0 31.223s20.126-31.223 0-31.223zm-18.081-94.26c-2.35-3.148-4.666-5.776-8.247-7.624-2.631-1.359-5.464-2.411-8.361-3.019-8.317-1.746-16.837 2.323-19.195 10.904-1.896 6.895 1.562 15.206 8.122 18.267.285 1.644.835 3.261 1.775 4.863 2.043 3.488 5.424 6.101 9.326 7.174 7.666 2.111 17.641-2.532 19.195-10.904 1.199-6.47 1.576-14.05-2.615-19.661zm177.382-12.229c-2.206-8.024-11.063-13.396-19.195-10.904-15.927 4.88-26.354 17.626-26.713 34.48-.181 8.51 7.236 15.611 15.604 15.611 8.642 0 15.423-7.107 15.604-15.611l.025-.579c.054-.433.131-.961.225-1.321l.042-.177.383-.606.31-.335.092-.1.81-.483c.433-.183 1.431-.625 1.912-.773 8.128-2.489 13.207-10.822 10.901-19.202zm-150.977 185.586c-20.126 0-20.126 31.223 0 31.223 20.124 0 20.124-31.223 0-31.223zm-18.033-36.078c-20.126 0-20.126 31.223 0 31.223 20.124 0 20.124-31.223 0-31.223zm31.901 86.036c-20.126 0-20.126 31.223 0 31.223 20.126-.002 20.126-31.223 0-31.223zm-34.676 11.099c-20.126 0-20.126 31.223 0 31.223 20.126.001 20.126-31.223 0-31.223zm36.064 35.387c-12.075 0-12.075 18.734 0 18.734s12.075-18.734 0-18.734zm-29.05 17.19c-18.449-11.091-35.174 17.713-16.802 28.758 6.584 3.957 4.778 11.454.964 18.845-9.834 19.051 18.893 35.897 28.744 16.811 11.684-22.631 10.813-50.152-12.906-64.414zm44.164 83.7c-13.888-12.071-28.083-2.004-33.839 12.083-3.802 9.308-4.706 21.028-4.855 30.998-.058 3.913 1.006 7.103 2.775 9.589-1.096 1.867-2.195 3.728-3.277 5.597-7.624 13.177 4.547 25.402 16.125 24.86.794.119 1.598.198 2.408.198 3.704 0 7.045-1.242 9.926-3.365l.971-.506c1.862-.952 3.518-2.363 5.033-3.782 4.778-4.478 5.901-11.493 3.812-17.407 10.186-19.293 18.604-42.896.921-58.265zm-60.887 4.226c-12.542 0-17.743 11.362-15.631 20.816-2.112 9.451 3.089 20.816 15.631 20.816s17.743-11.362 15.631-20.816c2.112-9.452-3.089-20.816-15.631-20.816zm36.566 163.668c-9.055-20.82-13.125-42.579-14.373-65.143-1.179-21.353-34.474-21.47-33.289 0 1.594 28.869 7.382 55.431 18.918 81.954 3.622 8.328 15.652 10.147 22.774 5.974 8.507-4.987 9.59-14.461 5.97-22.785zm32.193-32.101c-1.148-7.968-2.091-14.421-2.181-23.326-.092-9.076-7.503-16.653-16.645-16.653-9.005 0-16.737 7.574-16.645 16.653.108 10.818 1.831 21.493 3.368 32.18 1.296 9.001 12.569 13.806 20.476 11.629 9.562-2.63 12.92-11.506 11.627-20.483zm-1.386 135.992c-3.737-22.803-2.598-46.161-4.956-69.121-.927-9.024-6.87-16.653-16.645-16.653-8.37 0-17.572 7.605-16.645 16.653 2.668 25.991 1.906 52.125 6.143 77.976 1.471 8.968 12.44 13.842 20.476 11.629 9.434-2.596 13.092-11.533 11.627-20.484zm-47.282-53.142c-5.645-7.124-17.679-5.863-23.538 0-5.71 5.711-5.835 13.108-2.595 19.505-6.089 3.642-9.022 12.396-7.232 18.901 2.629 9.558 11.502 12.933 20.476 11.629 10.346-1.5 19.605-9.766 21.68-20.128 2.27-11.337-1.855-21.151-8.791-29.907zm42.327 151.929c-13.283 0-18.337 12.748-15.181 22.47-4.222-.844-8.538-1.284-12.798-1.123 8.159-16.782 12.711-36.987 11.061-56.046 2.433 4.78 7.138 8.335 14.144 8.335 21.468 0 21.468-33.305 0-33.305-9.511 0-14.8 6.538-15.883 13.823-2.37-10.383-6.857-20.12-13.96-28.375-14.027-16.305-37.465 7.362-23.538 23.552 4.195 4.876 6.224 11.289 6.761 18.267-6.953 1.342-13.023 6.582-13.023 15.75v36.08c0 6.582 3.62 11.535 8.495 14.208-4.295 5.357-6.77 11.989-7.105 19.124-.502 10.706 5.951 20.318 14.61 25.95 9.93 6.459 23.336 5.632 34.197 2.567 5.422-1.529 10.317-6.018 11.625-11.629 1.052-4.519 1.108-8.128.098-12.66l-.829-1.965c.858-1.992 1.333-4.176 1.325-6.453-.017-4.778-.602-9.564-1.981-14.142-.131-.438-.31-.867-.477-1.296.789.102 1.6.173 2.458.173 21.469-.002 21.469-33.305.001-33.305zm14.373 99.834c-4.266-9.933-19.36-10.416-26.142-3.369-6.312 6.559-11.327 13.846-13.99 22.614-.958 3.155-.804 6.405.173 9.385-.821 1.029-1.514 2.2-2.083 3.494.013-1.517-.19-3.046-.667-4.553-2.87-9.031-4.21-18.399-5.547-27.754-1.287-9.001-12.575-13.804-20.476-11.629-9.565 2.632-12.908 11.506-11.625 20.484 1.339 9.356 2.679 18.722 5.547 27.754 2.747 8.643 11.469 14.108 20.476 11.629 4.889-1.346 8.905-5.074 10.913-9.645-.083 7.322 4.568 15.279 12.138 16.584 16.21 2.792 30.295-2.348 36.105-18.642 4.189-11.752-.163-25.5-4.822-36.352zm-4.76 70.992c-4.176-3.826-10.088-5.886-15.425-3.709-18.245 7.441-38.063 21.524-44.914 40.771-2.856 8.02 3.154 18.93 11.625 20.484 12.504 2.294 23.301-.694 33.749-7.776 8.617-5.845 15.675-13.89 24.848-18.878 16.505-8.978 5.708-32.115-9.883-30.892zm-45.676-17.834c-12.075 0-12.075 18.734 0 18.734s12.075-18.734 0-18.734zm52.881-975.595c-4.687-18.186-32.78-10.466-28.087 7.747 2.525 9.801 5.953 19.184 5.028 29.429-.714 7.924 7.166 14.571 14.564 14.571 8.48 0 13.85-6.664 14.564-14.571 1.151-12.743-2.932-24.997-6.069-37.176zm-34.157 57.992c-1.104-9.16-3.581-16.892-7.336-25.3-2.712-6.07-7.039-12.366-7.922-19.103-1.029-7.874-5.843-14.571-14.562-14.571-7.155 0-15.598 6.674-14.564 14.571 1.156 8.818 3.629 16.232 7.336 24.31 2.945 6.422 7.057 12.931 7.922 20.093.95 7.882 5.905 14.571 14.564 14.571 7.217 0 15.516-6.665 14.562-14.571z" fill="#fff"/><path opacity=".6" d="M950.029 3.793c.95-2.467 2.937-3.428 5.918-3.803.771.377 1.991.856 3.077 1.548.819.523 1.458 1.323 1.823 1.667 3.82 19.259 9.521 37.493 15.71 55.981 2.997-.546 5.574-.958 8.124-1.494 5.57-1.171 10.515.125 15.046 3.49 9.359 6.951 18.816 13.783 24.511 24.422.262.492.979.74 1.521 1.127 2.981-1.904 2.425-5.328 3.206-8.064 2.75-9.645 7.918-17.538 16.06-23.374 2.683-1.925 5.478-3.951 8.54-5.034 9.072-3.209 18.208-6.418 28.048-6.295 6.339.077 12.504-.719 18.833-5.595 0 3.619.244 5.222-.04 6.724-1.971 10.449-3.983 20.895-6.116 31.311-2.31 11.273-7.718 20.453-18.101 26.2-1.739.961-3.416 2.111-4.922 3.405-7.943 6.839-16.887 11.771-26.994 14.606-1.527.427-2.935 1.265-4.714 2.052.969 1.033 1.494 2.073 2.296 2.373 17.824 6.626 31.854 18.947 46.233 30.742 1.285 1.052 2.387 2.359 3.743 3.298 8.084 5.609 11.646 14.327 15.671 22.708 1.35 2.807 1.35 5.799-.075 9.237l-6.439 5.284-5.951 9.745c-6.901 5.822-14.377 7.639-22.667 7.843-9.998.244-19.864-.073-29.693-2.102-8.07-1.667-15.433-4.253-19.724-12.804-1.906 1.356-3.166 2.223-4.395 3.13-9.09 6.705-17.839 13.954-27.396 19.907-4.895 3.048-11.146 4.171-16.939 5.463-8.426 1.879-15.554 5.595-21.343 12.471 0 10.812-.44 21.772.106 32.684.746 14.944 2.331 29.846 3.391 44.78 1.01 14.26 1.804 28.536 2.706 42.8.167 2.655.623 5.311.564 7.957-.473 20.653 1.216 41.219 2.112 61.822.944 21.628 2.258 43.209 4.589 64.72 1.073 9.914 2.931 19.74 4.147 29.642 1.296 10.56 2.221 21.166 3.372 31.744 1.154 10.583 2.735 21.13 3.495 31.74.854 11.941 1.335 23.933 1.385 35.905.102 24.633-.692 49.276-.173 73.894.504 23.939 2.177 47.853 3.358 71.777.919 18.609 1.812 37.22 2.816 55.825 1.077 19.928 1.583 39.917 3.616 59.749 1.773 17.265 1.818 34.549 2.714 51.818.396 7.616-.25 15.286-.256 22.931-.027 33.938-.013 67.877.046 101.815.008 4.642.423 9.281.51 13.925.027 1.402-.75 2.469-2.625 2.45-.296-.821-.848-1.675-.883-2.548-.983-24.941-2.054-49.88-1.114-74.855.188-4.984-.121-9.985-.108-14.977.012-5.653-.198-11.335.258-16.957 1.291-15.952 1.277-31.911.392-47.861-.792-14.273-2.233-28.511-3.02-42.786-1.666-30.234-3.02-60.484-4.656-90.718-.648-11.958-1.898-23.887-2.516-35.847-.515-9.964-.406-19.961-.754-29.94-.602-17.286-1.712-34.566-1.91-51.86-.169-14.623 1.044-29.263.921-43.888-.117-13.621-.812-27.267-1.937-40.846-1.371-16.571-3.387-33.09-5.26-49.62-1.048-9.247-2.512-18.444-3.543-27.694-1.621-14.544-3.291-29.088-4.474-43.671-1.452-17.896-2.622-35.82-3.535-53.756-.539-10.631-.056-21.314-.539-31.951-.842-18.599-2.025-37.185-3.158-55.771-.729-11.958-1.791-23.897-2.393-35.862-.819-16.277-1.071-32.586-2.079-48.849-.658-10.604-2.497-21.128-3.299-31.728-.702-9.274-.646-18.599-1.014-27.902-.21-5.305-.679-10.602-.877-15.913-.067-1.796.344-3.617.567-5.697 1.137.661 1.935.856 2.01 1.206.69 3.24 1.516 6.486 1.787 9.772.302 3.638.587 7.416-.04 10.966-1.781 10.072.981 19.882 1.223 29.823.021.879.667 1.744 1.05 2.69 5.997-.958 11.807-2.119 17.674-2.759 7.651-.838 13.696-4.744 19.52-9.281 5.245-4.086 10.517-8.132 15.783-12.189 6.562-5.053 13.129-10.099 19.285-15.69l11.929-5.445c6.809 1.656 12.9 4.384 16.187 12.056l-5.195 4.065c-7.066-.296-9.026-5.509-11.415-10.685-3.387.081-6.434 1.069-9.671 2.482-6.776 8.178-16.068 13.504-24.634 19.753-2.681 1.954-5.53 3.763-7.878 6.07-6.886 6.766-15.002 10.82-24.538 12.146-2.964.413-5.96.781-8.849 1.521-2.504.642-4.878 1.786-7.361 2.727-1.327 6.216 1.121 11.502 1.735 17.832 2.337-1.246 3.987-2.1 5.614-2.998 5.832-3.228 11.671-6.161 18.526-6.961 6.655-.781 12.819-3.384 18.356-7.334 8.392-5.984 17.058-11.612 23.994-19.409.844-.948 2.052-1.569 3.658-2.765 1.621 1.813 3.306 3.29 4.478 5.099 2.481 3.821 5.791 6.58 10.138 7.597 13.938 3.259 27.921 5.926 42.362 3.136 5.106-.988 9.474-3.103 13.069-6.689.931-.927.948-2.773 1.662-5.105-16.141 2.469-31.381 2.613-46.241-1.613-8.461-2.405-17.501-3.553-26.252-9.689 2.333-.415 3.479-.983 4.366-.713 4.118 1.263 8.215 2.625 12.223 4.199 10.311 4.051 21.209 5.313 32.845 7.018 7.424-.886 15.679-1.682 23.865-2.928 4.693-.715 9.045-2.475 10.819-8.112-3.726-9.776-8.415-19.095-17.304-25.86-9.526-7.253-18.508-15.242-28.225-22.214-5.341-3.832-11.509-6.732-17.651-9.176-11.18-4.449-21.418-10.654-31.92-16.332-13.444-7.27-26.346-15.557-39.881-22.637-8.803-4.607-18.22-8.118-27.573-11.545-3.287-1.204-7.203-.696-10.359-.931-6.939 3.228-10.565 8.964-14.033 14.554-3.672 5.918-6.303 12.323-7.276 19.457-.85 6.22-2.152 12.546-4.416 18.372-5.895 15.154-7.138 31.119-8.461 46.963-1.221 14.615-3.272 29.071-5.449 43.54-1.833 12.185-3.358 24.368-3.297 36.751.029 6.28-.637 12.673-1.896 18.83-4.551 22.272-6.359 44.728-6.076 67.437.187 14.961-.217 29.934-.583 44.894-.098 3.965-.706 7.989-1.635 11.85-2.75 11.414-3.472 23.014-3.614 34.676-.215 17.642-.45 35.289-.415 52.931.029 13.648.554 27.292.679 40.939.09 9.645.09 19.303-.244 28.942-.785 22.645-.252 45.238 1.366 67.844 1.854 25.889 2.75 51.831 2.956 77.793.04 4.98.475 9.964.919 14.931 2.729 30.519 4.653 61.101 3.268 91.724-.825 18.278-2.208 36.541-1.727 54.833.794 30.257 1.971 60.505 3.085 90.751.869 23.606 2.187 47.199 2.737 70.811.385 16.615-1.044 33.27 1.198 49.851.198 1.461.371 3.428-2.485 3.767-.308-.683-.896-1.444-.983-2.259-1.787-16.894-2.112-33.805-1.035-50.781.421-6.607-.256-13.292-.564-19.934-.923-19.943-1.906-39.883-2.872-59.826-1.916-39.566-2.789-79.154-1.875-118.762.369-15.965 2.358-31.888 1.506-47.882-.952-17.934-1.927-35.874-3.254-53.783-1.354-18.261-2.362-36.512-2.025-54.842.148-7.97-.402-15.971-.964-23.935-1.76-24.898-3.718-49.782-3.266-74.774.162-8.985.775-17.969.698-26.95-.173-19.97-.704-39.937-.975-59.907-.09-6.655.204-13.312.24-19.968.012-2.321.377-4.899-.469-6.92-3.464-8.249-3.354-16.944-3.416-25.539-.125-17.028-1.208-33.905-5.039-50.556-.74-3.213-.839-6.595-1.064-9.908-.496-7.299-.735-14.619-1.358-21.908-.517-6.049-.267-11.943 1.735-17.723.648-1.871 1.577-3.846 1.489-5.732-.667-14.279 1.896-28.608-.825-43.207l3.254-9.989c-.852-6.355-5.722-11.685-3.641-19.463l3.91-9.958c-5.624-15.144-5.058-31.244-2.87-46.886l6.31-7.772c-.2-2.548-.029-5.278-.692-7.785-1.408-5.342-.881-10.51.185-15.8.983-4.88 1.739-9.833 2.189-14.788.577-6.338 3.054-11.439 8.188-15.302 2.354-1.769 4.462-3.865 6.676-5.813 1.773 1.534.281 2.663-.408 3.459-1.948 2.248-4.102 4.33-6.268 6.378-3.035 2.869-4.662 6.511-5.395 10.464-1.271 6.851-2.368 13.744-3.231 20.657-.362 2.903-.031 5.911.154 8.86.248 3.938.662 7.864.979 11.508l-6.091 7.209c-2.929 15.854-.76 32.115 3.483 47.641-1.939 4.396-3.543 8.037-5.351 12.143l5.568 15.85-3.681 9.593c.262 2.888.356 6.23.91 9.491.85 4.984.779 9.864.073 14.886-.548 3.901-.258 7.964.044 11.927.36 4.722.062 9.176-1.768 13.681-1.216 2.994-1.887 6.48-1.756 9.704.502 12.296 1.169 24.595 2.302 36.847.608 6.588 2.468 13.052 3.427 19.62.804 5.52 1.119 11.108 1.8 18.197 1.139-2.302 1.935-3.313 2.146-4.436.989-5.228 1.687-10.512 2.731-15.727 1.839-9.195 2.229-18.467 2.175-27.817-.096-16.3-.131-32.607.181-48.905.14-7.305.964-14.621 1.862-21.887 1.06-8.58 2.368-17.138 3.883-25.65 1.229-6.905 1.985-13.788 2.085-20.822.242-17 2.55-33.799 5.637-50.503.785-4.249 1.348-8.545 1.804-12.844 1.51-14.213 2.708-28.463 4.489-42.636.656-5.217 2.608-10.277 3.96-15.406.571-2.171 1.117-4.346 1.821-7.095-1.548 0-2.506-.213-3.329.031-12.275 3.648-24.332 2.369-36.236-1.627-3.776-1.269-7.482-2.79-11.113-4.432-4.328-1.952-8.124-4.782-10.394-9.014-3.922-7.312-8.08-14.571-11.15-22.247-4.483-11.202-9.442-21.98-17.512-31.13-1.427-1.594-2.112-3.865-3.108-5.772 1.054-.711 1.683-1.467 2.093-1.363 7.388 1.854 14.45.5 21.513-1.773 5.705-1.834 11.565-2.663 17.62-2.978 7.836-.408 15.16 1.169 22.553 3.303 12.425 3.594 20.611 11.618 25.446 23.406.864 2.111 1.958 4.121 3.137 6.578l14.181-4.009c1.973-3.369.473-6.276-.419-8.958-2.731-8.21-5.778-16.369-10.907-23.426-4.974-6.847-8.313-14.285-9.907-23.06 3.697-5.278 8.409-8.647 14.914-6.98 11.85 17.819 20.314 36.562 28.662 55.363.8 1.802 1.631 3.59 2.689 5.918 5.635-1.511 10.661-3.544 15.433-6.893-5.464-19.084-12.142-37.495-16.954-56.371 2.731-3.236 4.849-6.159 8.792-6.83l.002 4.126c3.058.231 5.376-.192 6.724-3.796l-7.053.01zm-130.708 52.489c7.395 9.689 12.169 19.445 15.856 29.84 1.989 5.613 4.755 10.972 7.466 16.294 3.899 7.659 9.344 13.696 18.108 15.936 1.594.406 3.054 1.304 4.62 1.854 8.574 2.996 17.437 4.017 26.461 3.53 2.408-.129 5.143-.138 6.809-2.915-4.07-1.329-7.972-2.232-11.555-3.846-8.64-3.89-16.027-9.399-20.711-17.921-2.52-4.582-3.637-9.245-.204-14.356 3.585-.221 7.084.79 10.534 1.875 3.76 1.184 7.703 2.132 11.096 4.026 3.12 1.742 5.564 4.674 8.407 6.951 2.956 2.367 3.51 7.011 8.105 8.891 0-5.034.864-9.506-.181-13.477-2.104-7.985-4.61-16.002-8.149-23.433-3.318-6.966-9.072-12.191-16.412-15.354-11.317-4.874-23.151-6.178-35.143-4.196-8.116 1.34-16.021 3.968-25.107 6.301zm276.923-10.199c-5.047.654-8.647 1.675-12.171 1.463-8.532-.517-16.545 1.861-24.378 4.355-12.246 3.905-21.399 11.652-26.15 24.118-3.743 9.824-4.385 20.078-4.876 30.355-.09 1.859 1.339 3.788 2.181 5.98 2.779-6.851 4.947-13.133 7.838-19.063 2.81-5.765 7.586-10.058 12.638-13.927 5.062-3.878 8.982-9.485 16.448-11.354-.544 6.33-1.021 11.948-2.76 17.221-1.648 4.997-3.87 9.906-6.564 14.425-2.772 4.651-6.416 8.78-10.384 14.083 5.878-.256 9.405-2.702 12.883-5.13 5.716-3.988 11.396-8.03 17.01-12.16 5.82-4.282 9.976-9.987 11.615-16.944 2.504-10.621 4.314-21.408 6.67-33.422zm-70.279 69.3c.804-10.079-2.306-19.213-4.341-27.973-7.861-13.202-18.887-21.68-31.935-27.517-4.501 1.184-8.417 1.973-12.154 3.273-2.791.971-5.305 2.707-8.028 3.911-3.004 1.329-6.078 2.511-9.167 3.63-3.983 1.442-8.232 2.334-11.459 5.768 2.743 2.986 6.299 3.89 9.607 5.242 5.214 2.134 10.675 3.819 15.589 6.505 13.381 7.314 26.544 15.029 39.765 22.637 3.73 2.149 7.515 4.047 12.123 4.524zm-123.075-91.437c-1.106 5.636 1.675 8.814 3.858 12.008 7.382 10.804 12.667 22.48 15.666 35.224.515 2.19 1.625 4.238 2.456 6.341l13.758-4.153c-.515-1.763-.796-3.346-1.429-4.776-3.889-8.778-7.853-17.526-11.798-26.279-3.004-6.664-6.939-12.754-11.03-18.363l-11.481-.002zm54.387-14.021l-11.444 3.334c3.464 14.858 8.667 28.771 13.04 42.915 1.023 3.305 1.612 7.159 5.01 9.541 3.262-.671 6.191-1.913 8.22-4.457-.715-6.563-11.568-44.321-14.826-51.333zm-89.503 79.252c-.225 1.021-.425 1.381-.348 1.665 3.51 12.85 18.024 24.435 31.401 24.977.758.033 1.554-.842 2.271-1.259-4.641-16.034-14.851-23.866-33.324-25.383zm168.948 29.536c9.065-8.672 16.356-16.628 21.478-26.373 1.231-2.344 2.468-4.732 3.277-7.237.871-2.702 1.921-5.57.162-8.439-17 9.385-26.705 25.054-24.917 42.049zm-114.633-37.879l-2.106-2.732c-5.358.085-10.303 1.129-14.242 5.765.608 2.971 1.279 5.861 1.775 8.776.517 3.048.864 6.126 1.489 10.681 4.773-8.2 8.701-14.956 13.084-22.49zm-11.74-66.493c-4.014 1.336-7.495.819-8.849 5.049 3.358.8 6.351 2.098 9.64-.515l-.791-4.534zm135.128 162.389c-3.235-3.973-3.235-3.973-6.934-4.592 2.182 5.686 2.165 5.727 6.934 4.592zm-159.464 377.196l.462-3.886c7.261-6.653 15.108-3.336 22.438-2.182 8.976 6.78 10.132 16.365 10.771 26.094.327 4.974.098 9.991.519 14.952.392 4.619 1.223 9.208 2.025 13.779 1.487 8.483 3.81 16.886 4.468 25.425.796 10.335-2.487 19.709-10.85 26.55-5.951 4.865-12.342 6.434-19.839.796l-5.251-12.062c.537-15.592.131-30.105-2.956-44.511-3.079-14.369-3.287-28.992-2.514-43.623.031-.569.656-1.109 1.01-1.671.527 9.262.958 18.54 1.602 27.804.3 4.299.702 8.637 1.594 12.846 3.168 14.998 4.831 30.111 4.324 45.451-.183 5.549 1.871 10.362 5.437 15.1l6.528 2.14c13.292-4.494 17.329-14.483 18.262-25.735-2.366-13.177-4.872-25.543-6.707-38.01-.912-6.209-.429-12.612-.879-18.907-.646-9.005-1.573-17.988-10.171-24.66-4.958.798-10.392-2.88-15.956.198-1.451 1.387-2.884 2.751-4.317 4.112zm14.581 207.817c5.145-2.359 10.832-5.001 17.708-4.999 9.19 4.917 11.642 13.831 12.211 23.216.458 7.57.062 15.294-.935 22.822-1.377 10.397.169 20.476 1.706 30.625.248 1.631.75 3.23.964 4.867.723 5.511-1.308 9.866-6.099 12.583-5.166 2.93-10.546 5.482-15.01 7.776-4.599.475-7.357-1.254-10.417-3.953-3.833-7.96-5.785-16.842-5.262-26.321.327-5.945.269-11.912.485-17.865.121-3.309-.094-6.768.806-9.879 1.725-5.966 1.316-11.7.173-17.667-.739-3.863-.625-7.924-.569-11.889.052-3.378 1.023-6.551 4.239-9.316zm1.023 1.996c-2.906 7.507-3.489 11.554-2.104 17.767 1.173 5.263 1.885 10.558.642 15.771-3.131 13.117-1.335 26.408-1.621 39.606-.142 6.636 2.275 12.927 7.268 18.432 2.204-.177 4.91.39 6.582-.673 5.218-3.311 12.092-4.069 16.333-10.789-.181-3.098.112-7.132-.733-10.91-2.804-12.51-2.156-25.02-.944-37.597.444-4.609 1.056-9.291.694-13.869-.66-8.33-2.929-16.173-10.136-22.343l-15.981 4.605zm27.388-329.02c-1.117 4.492-2.05 9.041-3.395 13.465-2.348 7.712-6.328 10.681-14.552 11.02-3.962.165-7.938.029-10.857.029-6.924-2.625-9.449-7.555-11.284-13.177-.306-10.502.102-20.953 2.625-31.426 1.441-5.974.773-12.489.794-18.761.01-3.259-.542-6.52-.837-9.735 5.333-5.665 12.284-6.624 19.274-8.493 8.188 6.716 15.637 14.125 21.774 22.737 2.312 3.242 3.533 7.266 3.079 11.314-.912 8.16-2.385 16.221-6.951 23.349.013-1.604-.227-3.286.129-4.834.74-3.221 1.935-6.338 2.689-9.558 2.254-9.595 1.506-18.432-6.478-25.504-2.22-1.967-4.054-4.372-6.062-6.58-2.904-3.192-6.053-6.045-10.165-7.672-5.203 1.386-10.363 2.498-14.062 6.318 0 1.765-.302 3.169.048 4.384 2.289 7.935 1.575 16.046-.458 23.618-2.383 8.866-2.135 17.705-2.475 26.61-.217 5.693 1.602 10.418 5.33 12.746 7.522 3.623 13.685 1.479 19.549.938 5.591-4.928 5.678-4.905 7.395-11.612.899-3.501 1.251-7.185 4.89-9.176zm-8.697 58.685c-.033.986.225 2.098-.14 2.94-5.222 12.018-4.706 24.629-3.645 37.214.356 4.232 1.777 8.41 3.002 12.525.862 2.892 2.373 5.505 6.028 6.843 7.736-2.219 14.214-7.274 21.301-12.677.398-2.615 1.127-5.507 1.227-8.418.346-10.262-.735-20.611 2.11-30.703-.825-11.916 2.108-23.849-.165-35.764-.117-.613.192-1.304.3-1.959l-.21.181c3.81 1.552 3.845 5.205 4.047 8.312.298 4.619-.152 9.287-.287 13.935-.094 3.296-.206 6.593-.285 9.889-.048 1.992.373 4.103-.137 5.959-2.331 8.487-1.833 17.111-1.854 25.748-.008 4.282-.889 8.564-1.341 12.542-4.583 6.666-11.5 9.495-17.691 13.227-2.825 1.704-5.978 3.005-9.828 1.879-3.106-1.736-5.049-4.757-6.264-8.289-.862-2.511-1.748-5.044-2.241-7.643-2.139-11.227-1.685-22.499.208-33.684.752-4.444 1.712-9.124 6.062-11.893l-.197-.164zm-7.743 541.34c-.583 1.173-1.435 2.288-1.7 3.532-.896 4.192-1.581 8.428-2.275 12.244 1.575 5.024 3.724 8.908 8.17 11.354 6.736 3.711 13.308 3.521 19.905-.123 4.647-2.565 9.249-5.211 13.867-7.832.577-.327 1.216-.617 1.671-1.077 6.707-6.809 13.392-13.648 18.893-19.263 3.835-10.516-2.573-17.619-3.36-26.366-2.433-.075-4.718-.571-6.807-.135-8.824 1.838-17.341 4.711-24.85 9.787-3.243 2.194-5.791 5.39-8.801 7.96-1.152.981-2.714 1.481-4.089 2.202 3.56-6.701 9.042-11.277 15.679-14.792 9.778-5.18 19.97-8.668 31.102-9.253 2.01 6.661 4.108 12.864 5.732 19.19 2.064 8.035-1.7 14.185-7.193 19.52-3.558 3.455-7.261 6.755-10.915 10.108-1.225 1.123-2.356 2.434-3.766 3.248-6.022 3.486-12.011 7.068-18.245 10.139-6.701 3.301-13.533 2.667-20.07-.831-7.047-3.769-10.317-10.414-8.888-18.311.585-3.242 1.623-6.401 2.579-10.072l3.361-1.229zm-12.056-123.333c-4.32-1.488-5.245-4.93-4.391-8.77 1.225-5.511 1.758-11.062 2.352-16.648.296-2.786 1.61-5.859 3.406-8.02 7.28-8.768 16.166-14.656 28.246-13.781 2.968.217 5.943.373 8.713.544 8.045 3.482 12.454 9.891 15.41 17.54 2.137 5.532 4.187 11.095 6.389 16.942l-4.412 11.216c-3.443.952-6.557 2.175-9.78 2.638-13.146 1.882-26.377 1.992-39.611 1.227-2.527-.144-5.37-.294-6.678-3.253 8.236.333 16.514 1.342 24.698.833 9.478-.59 19.232-.046 28.154-3.836 4.068-3.303 4.385-7.487 3.022-11.837-1.281-4.096-3.06-8.034-4.585-12.056-2.656-7.011-6.951-12.683-13.821-17.094-3.889 0-8.205-.281-12.469.054-10.919.863-17.904 7.68-23.378 16.365-.992 1.571-1.142 3.769-1.362 5.713-.558 4.88-.933 9.783-1.521 16.171.279 1.028.949 3.539 1.618 6.052zm79.273-774.86l-4.176 2.813c-1.487 9.916-7.211 16.221-17.916 17.486-6.461-2.975-8.972-8.441-9.499-15.302l-9.574-2.427c-2.235-3.886-4.664-7.414-2.491-11.854 2.75-.285 2.747 1.89 3.72 2.988.873.986 1.537 2.213 2.554 3.005 1.283.996 2.768 1.804 4.276 2.415 1.181.479 2.535.533 3.395.696l8.02-9.635c6.58-2.146 11.067-.142 14.685 4.505 1 1.286 1.885 2.732 3.116 3.744.933.77 2.334.972 3.89 1.566zm-22.513 15.977c8.324-1.736 9.792-2.452 12.442-6.536 1.058-1.632 2.031-3.517-.19-5.77l-8.438 6.245c-1.306-1.119-2.187-2.065-3.245-2.732-1.244-.786-2.639-1.325-4.295-2.13-2.613 5.435 1.039 7.725 3.726 10.923zm3.825-23.216c-2.55 2.207-5.835 3.755-5.903 8.691 4.316-.294 8.174-.402 11.977-.902 1.331-.175 2.537-1.321 3.941-2.107-2.073-4.192-4.948-5.805-10.015-5.682zm-18.721 855.591c-.573-.271-1.427-.381-1.677-.829-6.001-10.725-9.388-21.855-5.73-34.266 1.585-5.37 2.627-10.904 3.908-16.338 7.574-6.132 16.452-4.321 25.411-5.224 6.199 7.597 10.817 15.944 11.294 25.846.181 3.751-1.435 7.787-2.977 11.375-2.214 5.157-5.191 9.979-7.69 15.019-2.7 5.447-7.459 8.364-12.788 10.404-2.041.783-4.685 1.086-5.741-2.004l-.175.188c5.37.219 9.315-2.83 13.917-6.016 3.358-6.657 6.989-13.71 10.484-20.83 2.141-4.363 2.389-9.043.831-13.567-2.143-6.228-4.306-12.531-9.255-17.476-7.361-.571-14.446-.067-21.143 3.788-.958 4.326-1.496 8.649-2.893 12.675-3.849 11.089-1.768 21.495 2.756 31.803.758 1.727.881 3.736 1.296 5.613l.172-.161zm-8.138-231.647l8.622 3.496c4.562-1.071 10.128-.546 14.237-4.784.256-.577.742-1.173.758-1.779.312-12.925 1.341-25.762 3.699-38.504.939-5.07-.475-9.981-3.439-14.156-4.747-6.691-6.593-14.352-8.232-22.155-.61-2.903-1.668-5.707-2.358-8.595-.829-3.473-1.483-6.989-2.212-10.485l-.2.188 2.993 2.202c2.023 7.722 4.037 16.044 6.426 24.258 1.008 3.461 2.683 6.755 4.287 10.01 1.606 3.259 3.506 6.374 5.262 9.529 0 4.394.331 8.718-.062 12.973-1.185 12.777-2.656 25.529-3.985 38.01-5.501 5.232-11.892 6.243-18.966 5.888-2.864-1.211-5.972-2.38-6.668-6.249l-.162.153zm-24.682-18.922c-8.517-3.253-10.246-10.102-13.41-15.634-3.297-5.768-1.946-12.312-2.333-18.559-.429-6.916 2.816-12.869 4.895-18.847l-.896-5.14c.844.254 1.737.242 1.991.64 2.306 3.617 5.105 7.076 6.612 11.018 4.67 12.237 6.939 24.962 5.564 38.112-.267 2.509-1.391 4.929-2.423 8.41zm-9.413-48.736c-.927 3.103-2.258 6.145-2.712 9.316-1.619 11.312-2.127 22.514 6.516 31.738.983 1.05 2.318 1.771 3.572 2.705 3.25-5.897 2.258-11.55 1.454-17.067-1.325-9.096-2.664-18.239-8.83-26.692zm1.052 252.178c6.747-5.14 12.942-5.272 19.855-5.07-.304 1.256-.431 2.021-.679 2.742-.21.606-.562 1.165-1.173 2.382 5.597 12.523 4.008 25.46-1.321 38.112-1.491 3.54-3.21 7.447-8.757 8.353-1.214-1.211-3.491-2.486-4.149-4.34-1.433-4.032-2.877-8.37-2.797-12.556.129-6.807-1.489-13.119-3.599-19.986l2.62-9.637zm-.041 8.065c1.271 5.897 2.462 10.681 3.297 15.525.894 5.186 1.339 10.447 2.204 15.638.321 1.921 1.202 3.815 5.172 3.536 8.088-14.094 10.953-28.956 3.177-45.501l-9.882 2.298c-1.066 1.379-1.883 2.073-2.231 2.957-.723 1.834-1.196 3.766-1.737 5.547zm61.251-78.72c3.885-3.326 5.043-7.13 6.01-10.922 1.054-4.142-.408-7.795-2.868-11.158-3.106-4.246-6.107-8.566-9.715-13.646 6.276 2.713 10.415 7.716 16.287 19.157-.49 7.657-1.439 15.638-9.886 20.013-7.351-4.955-13.427-13.471-20.166-28.138 0-1.513-.06-3.828.023-6.138.048-1.311.333-2.615.479-3.694 5.91-7.134 5.91-7.134 12.765-7.274-2.541 1.559-4.341 2.567-6.035 3.728-1.639 1.123-3.172 2.4-3.314 2.511-2.025 5.113-1.814 8.487-.31 11.489 4.277 8.551 8.464 17.219 16.73 24.072zm-28.006-114.017c-4.141-.888-5.595-4.457-7.084-7.647-3.824-8.191-6.376-16.825-6.28-25.929.115-10.943.502-21.897 1.16-32.822.456-7.555 2.46-14.856 4.872-23.641 1.914 4.784 1.369 8.047.44 11.025-3.331 10.66-3.381 21.603-3.341 32.58l.006 12.962c.05 10.866 2.387 21.045 8.861 30.036.706.977.819 2.38 1.206 3.588l.16-.152zm9.794-131.705l7.632-5.645c4.585-8.868 3.289-18.124 3.818-26.933.433-7.211-1.483-14.533-5.724-20.789-5.516-5.638-11.852-1.596-18.645-1.323 5.166-4.809 10.975-3.696 16.156-4.734 5.143 3.088 7.78 7.659 9.209 12.867 1.848 6.734 3.131 13.565 1.991 20.668-.575 3.596-.352 7.314-.756 10.945-.783 7.028-3.81 12.685-10.498 15.811-1.185.554-2.554.877-2.975-1.063l-.208.196zm-33.745-291.725c6.818.25 8.363 5.763 9.792 10.652 1.344 4.599-1.344 8.172-5.078 10.877-4.718 3.419-9.771 5.334-16.25 3.671-4.385-6.313.323-13.06-.433-19.051 2.1-4.288 4.958-6.772 9.065-7.972l3.237 2.069c-4.389-.454-6.841 2.302-8.486 5.659-2.7 5.495-2.806 11.264-.985 17.749 7.686-.942 13.846-3.042 16.135-10.389-.129-6.064-3.952-9.446-6.997-13.265zm43.381 476.819c-11.205-5.367-14.025-12.556-9.417-23.847 4.058-2.819 8.73-4.649 15.283-4.905-4.566 4.992-11.461 3.098-14.954 9.274-1.135 3.434.508 7.426 2.637 11.208 1.485 2.636 3.522 4.861 7.53 4.817 5.922-4.294 8.813-9.939 6.272-17.611 2.048-1.221 2.587.452 2.862 1.521 2.198 8.552-.594 13.997-10.213 19.543zm-25.863-606.758c-.237-3.388-2.525-5.888-1.687-9.835 4.356 3.596 4.189 7.787 4.591 11.483-2.739 5.399-6.195 9.068-11.865 10.656l-7.782-5.415-2.483-6.18c3.356-4.415 5.116-10.314 13.487-10.083-4.129 3.54-9.142 4.734-10.086 10.337-.385 4.555 3.591 6.007 6.991 7.982 4.722-1.052 7.499-3.971 8.834-8.945zm-34.207 311.137l-1.287 2.448c-4.668-2.196-5.803-6.488-8.051-10.554.248-2.307.492-4.913.814-7.512.531-4.242 1.362-8.462 1.61-12.719.346-5.976 1.966-11.389 6.187-16.059-.964 5.607-1.902 11.216-2.9 16.817-.983 5.522-2.025 11.031-3.06 16.663.69 4.669 2.271 8.862 6.947 11.162l-.26-.246zm23.084 482.16h12.531c1.479 4.111-.417 6.897-2.606 9.224-3.493 3.715-8.055 5.322-13.379 5.603-2.908-5.98.802-10.047 3.454-14.827zm-1.119 11.547c5.297-1.502 9.338-2.948 10.655-8.512-3.487-1.679-6.366-1.661-9.728 1.225l-.927 7.287zm28.677-383.376c-6.191-2.727-9.521-8.224-11.044-14.104-1.823-7.051-4.426-13.725-6.995-20.464-1.652-4.334-1.614-4.349-1.01-9.549 1.979 4.972 4.151 10.429 6.318 15.888.729 1.838 1.814 3.625 2.093 5.532 1.096 7.462 4.739 13.59 9.344 19.33.721.898.74 2.363 1.083 3.565l.211-.198zm-36.274-383.227c-2.075 1.611-3.191 2.544-4.379 3.376-1.089.765-2.258 1.419-2.389 1.502-.794 5.201-.206 8.664 1.554 11.781 7.83.706 11.702-3.288 11.604-15.411 2.743 4.019 3.006 7.726.625 12.129-2.908 5.382-7.507 7.137-13.327 5.959-4.079-5.597-4.079-5.597-2.91-14.773 1.892-2.75 4.098-5.015 9.222-4.563zm-9.656 269.512c.762-3.834 1.283-7.737 2.352-11.481 1.189-4.174 2.156-8.289 1.379-13.027-.644-3.319-4.143-6.263-3.077-11.11 4.024 4.082 5.339 8.795 6.674 13.737-1.45 7.522-2.152 15.39-7.532 21.68l.204.201zm44.105-138.546l3.612 2.102.254 5.665c-3.843 3.794-7.455 6.957-12.898 3.982-.092-7.151-.092-7.151 2.979-13.944l4.468-1.108 1.948 3.617-5.966.131c-.206 3.203-.435 5.743-.473 8.285-.006.398.846.808 1.818 1.677l6.032-4.651-1.774-5.756zm-26.316-91.393l-3.439 13.721c4.047 6.914 10.59 3.255 17.199 2.569-2.433 4.244-5.82 3.851-8.767 4.057-4.089.288-7.918-.465-10.736-4.69-.658-5.88 1.962-10.916 5.96-15.461l-.217-.196zm18.607 62.568l-.2 3.053-2.935.192c-4.662-4.103-2.006-8.533-.789-13.506l6.295-3.603c1.141 1.436.779 1.867-3.445 4.817-2.098 2.85-2.164 6.061-1.539 9.874l2.627-.815-.014-.012zm-6.491 131.255c-.635-2.79 1.166-4.342 3.068-5.686 3.768-2.663 7.634-5.192 11.444-7.764 1.658 1.294.685 2.415-.294 3.125-4.753 3.455-9.59 6.789-14.398 10.168l.18.157zm-.179-.154c-.017 7.366-2.754 13.981-5.758 20.501-.337.733-1.404 1.129-2.131 1.686l.198.167c-.044-.958-.373-2.011-.092-2.861 1.833-5.511 3.741-11 5.772-16.438.406-1.086 1.446-1.936 2.191-2.896l-.18-.159zm-11.723-193.471c.015-.633-.227-1.461.083-1.871 3.208-4.236 6.166-5.845 13.781-7.318l-14.081 8.991.217.198zm19.701-1.388c.325 9.714.325 9.714-3.729 15.463l3.729-15.463zm9.138 379.937l-14.11 4.572c2.133-4.794 5.616-5.774 13.871-4.349l.239-.223zm-24.869 373.485c-1.148 4.313-4.531 5.109-8.307 5.288 1.729-3.394 5.606-3.419 8.307-5.288zm14.434-689.65c1.473-.302 2.935-.7 4.424-.881 1.458-.179 2.943-.144 4.418-.204l.002-.023-4.62 2.5-4.233-1.406.009.014zm11.508 648.756c-2.872.219-4.054-1.265-4.012-3.984l-.169.165c2.743-.075 3.981 1.359 4.006 4.007l.175-.188zm-52.367-477.767c1.341-1.386 1.727-3.944 4.451-3.632l-.204-.202c-.664 3.523-.664 3.523-4.493 3.601l.246.233zm49.699-172.074l-1.571-4.271 1.131-.325.444 4.572-.004.024zm6.609 124.36c-2.029-.265-2.014-1.171-.473-2.903l.265 3.082.208-.179z"/></svg>