<svg xmlns="http://www.w3.org/2000/svg" viewBox="0 0 126.14 378.044" enable-background="new 0 0 126.14 378.044"><g fill="#fff"><path opacity=".2" d="M54.661 361.333c-5.797 0-5.797 8.991 0 8.991s5.797-8.991 0-8.991z"/><path opacity=".2" d="M59.322 211.487c-5.797 0-5.797 8.991 0 8.991s5.797-8.991 0-8.991z"/><path opacity=".2" d="M81.567 168.811c-1.989-1.166-5.08-.591-6.15 1.613-.512 1.055-.874 2.148-1.287 3.232l-.045.098c-1.07 2.205-.62 4.843 1.613 6.151 1.99 1.166 5.08.59 6.15-1.613.512-1.057.876-2.152 1.289-3.238l.042-.093c1.07-2.204.622-4.842-1.612-6.15z"/><path opacity=".2" d="M72.957 128.215c-2.324-4.496-8.137-2.342-9.095 1.556-2.014-3.338-8.369-2.584-8.369 2.297v9.323c0 5.798 8.99 5.798 8.99 0v-7.828c4.128 8.164 4.491 16.108 4.495 25.143.002 6.442 9.991 6.443 9.988 0-.005-10.988-.892-20.592-6.009-30.491z"/><path opacity=".2" d="M109.929 53.649c-8.069-.845-16.994.116-20.316 8.628-.825 2.114.891 5.163 3.139 5.53 5.241.857 9.724-.195 13.696-3.82.551-.503.924-1.047 1.15-1.603.924.092 1.742.195 2.33.257 5.765.601 5.707-8.395.001-8.992z"/><path opacity=".2" d="M33.025 61.61c-.67-2.434-3.144-3.692-5.529-3.139-2.235.517-4.507.504-6.796.505-2.45.001-4.495 2.044-4.495 4.495 0 2.45 2.045 4.496 4.495 4.495 3.092-.002 6.159-.127 9.186-.827 2.387-.551 3.769-3.241 3.139-5.529z"/><path opacity=".2" d="M76.124 199.336c-4.183-11.821-2.347-25.983-9.204-36.991-1.785-2.865-4.471-4.257-7.834-3.693-3.329.558-4.986 4.48-6.053 7.181-2.168 5.494-.822 10.915 2.424 15.599 1.916 2.765 3.261 5.37 4.205 8.632 1.008 3.479.063 7.707-.008 11.267-.101 5.082 6.083 6.146 8.769 3.218 3.483 2.34 9.44-.296 7.701-5.213z"/><path opacity=".2" d="M81.277 220.731c.52-2.892.94-5.797 1.018-8.745.17-6.445-9.819-6.429-9.988 0-.052 1.982-.274 3.958-.575 5.927-1.54.522-2.703 1.777-3.242 3.401-.453 1.366-.748 2.758-1.006 4.163-.655.1-1.338.366-2.026.844-5.173 3.591-7.119 6.627-4.455 12.828.637 1.482 2.752 2.58 4.312 2.474 1.632-.111 3-.417 4.16-.882.3 1.69.784 3.378 1.516 5.068 1.082 2.499 4.7 3.044 6.833 1.792 8.295-4.866 10.1-20.249 3.453-26.87z"/><path opacity=".2" d="M88.936 254.535c-3.143-6.798-12.85-4.598-16.34.476-2.809-2.223-5.463-4.865-8.413-6.44-7.952-4.246-15.015 7.828-7.058 12.076 1.903 1.017 3.59 2.289 5.231 3.625-3.981 4.206-5.236 9.946-2.489 15.355 3.009 5.922 11.231 6.813 16.261 3.25 3.731-2.644 5.506-6.111 6.443-10.017 2.951-.317 5.175-2.22 6.134-5.069 1.512-4.494 2.29-8.804.231-13.256z"/><path opacity=".2" d="M90.036 288.712c-.541-3.779-5.282-5.797-8.601-4.884-4.018 1.105-5.423 4.832-4.883 8.603-.148-1.038.016 1.678.011 1.455.017.861-.059 1.723-.131 2.58-.097 1.148-.732 3.394-1.212 4.9-1.157 3.632 1.321 7.622 4.883 8.602 3.785 1.041 7.445-1.256 8.601-4.884 1.717-5.388 2.13-10.794 1.332-16.372z"/><path opacity=".2" d="M60.654 331.53c-3.811 0-6.992 3.181-6.992 6.993v10.656c0 3.812 3.18 6.993 6.992 6.993 3.811 0 6.992-3.181 6.992-6.993v-10.656c0-3.812-3.181-6.993-6.992-6.993z"/><path opacity=".2" d="M90.702 351.315c-1.107-3.644-4.854-5.915-8.601-4.884-1.982.545-3.592 1.993-4.459 3.791-1.574-.302-3.212-.077-4.536.91-1.439 1.073-2.68 2.086-3.789 3.485-.65.819-1.278 1.654-1.896 2.498l-.085.118-.306.319c-4.859 5.266-.057 13.157 6.803 11.688 3.974-.851 7.837-1.286 11.515-3.17 5.49-2.811 7.041-9.196 5.354-14.755z"/><path opacity=".2" d="M93.301 319.787c-1.616-2.411-3.865-4.172-6.701-4.926-2.78-.738-5.749-.457-8.494.269-2.495.66-4.307 2.702-4.907 5.085-2.269 1.667-3.289 4.625-2.64 7.514 1.416 6.298 4.841 13.914 12.366 14.023 5.849.086 9.836-5.089 11.476-10.14 1.203-3.705 1.129-8.499-1.1-11.825z"/><path opacity=".2" d="M67.956 303.599c-1.107-4.159-3.767-7.249-3.64-11.694.257-9.024-13.728-9-13.984 0-.123 4.317.985 8.022 2.662 11.939 1.229 2.868 2.37 4.758.955 7.841-3.732 8.136 8.317 15.248 12.075 7.059 2.289-4.989 3.373-9.735 1.932-15.145z"/><path opacity=".2" d="M54.328 8.861c-.703-8.929-14.692-8.998-13.984 0 .578 7.352.578 14.626 0 21.977-.708 8.998 13.281 8.929 13.984 0 .578-7.352.578-14.626 0-21.977z"/><path opacity=".2" d="M84.709 27.647c-1.328-7.557-2.203-15.173-3.995-22.644-2.104-8.767-15.588-5.047-13.485 3.719 1.792 7.471 2.668 15.086 3.995 22.644 1.559 8.871 15.034 5.099 13.485-3.719z"/></g><path d="M80.675 155.023l-1.233 6.275c-.585 1.335-1.77 2.292-3.973 2.697l-4.108-1.272c-3.282-2.264-4.341-5.09-4.44-8.51-.091-3.187-.395-6.376-.755-9.547-.396-3.496-.837-6.968-.293-10.496.142-.92-.084-1.9-.166-2.851-.215-2.494.368-4.738 2.18-6.936l5.684-1.91c.38.654.791 1.157.98 1.734.247.752.355 1.557.459 2.347.418 3.164.576 6.385 1.281 9.482.664 2.917 1.894 5.704 3.055 9.069.56-2.124.369-3.76.169-5.409-.98-8.079-1.941-16.159-2.919-24.238-.015-.124-.162-.232-.458-.635-.739.444-1.55.848-2.268 1.376-2.602 1.917-5.491 3.251-8.548 4.224-3.046.97-5.968 1.007-8.526-1.346-.435-.4-1.067-.584-1.732-.935-.955 1.75-1.196 3.496-1.288 5.204-.299 5.568-.843 11.107-.388 16.729.424 5.232.12 10.526.054 15.792-.084 6.697-.324 13.393-.356 20.09-.016 3.506.346 7.013.396 10.522.039 2.71-.035 5.432-.245 8.135-.794 10.194-1.372 20.386-1.3 30.623.09 12.94.2 25.889-.21 38.819-.36 11.319-1.066 22.635-2.119 33.929-.784 8.411-1.726 16.817-1.699 25.307.023 7.333-.617 14.667-.802 22.004-.173 6.871-.822 13.69-1.664 20.503-.307 2.485-.335 5.005-.493 7.55l-1.339-.455c-.046-1.448-.254-3.023-.114-4.568.358-3.972.879-7.93 1.311-11.897.138-1.268.242-2.543.289-3.818.429-11.803.695-23.615 1.308-35.41.447-8.606 1.401-17.184 2.023-25.783.611-8.441 1.351-16.884 1.563-25.338.312-12.45.281-24.91.252-37.366-.02-8.789-.148-17.598.814-26.325 1.091-9.901.459-19.778.481-29.668.019-8.455.206-16.909.297-25.365.027-2.553.072-5.112-.052-7.66-.404-8.326-.225-16.596 2.021-24.294l-.9-6.395c-3.484-12.556-6.521-25.315-12.128-37.214l-3.372-2.361c-2.797 2.877-5.748 5.214-9.585 6.212-3.831.997-7.591.743-11.446-.059-2.858-1.354-5.363-3.179-7.51-5.673-1.413-1.642-3.435-2.776-5.244-4.054-1.023-.718-2.166-1.268-3.619-2.106.702-.566 1.074-1.063 1.558-1.224 3.549-1.175 6.583-3.089 9.278-5.709 1.936-1.882 4.13-3.526 6.339-5.092 4.461-3.162 11.919-2.857 16.73.562.738.525 1.432 1.11 2.479 1.927.383-3.122.637-5.729 1.611-8.315 1.645-4.372 4.783-6.588 8.898-7.943 1.644-.542 3.293-1.074 5.066-1.652 0-3.27.225-6.304-.055-9.29-.392-4.182-.053-8.288.468-12.416.396-3.136.291-3.492-1.523-7.553-2.606-1.059-5.379-.938-7.979-.262-1.559 1.363-1.686 2.973-1.643 4.574.213 7.968-.006 15.987 2.663 23.688.214.616-.008 1.381-.033 2.252-.569-.34-.997-.441-1.065-.657-1.679-5.333-2.94-10.738-2.744-16.39.033-.951-.033-1.914-.155-2.859-.579-4.495-.716-8.936 2.115-13.86l1.983-1.63 4.908-.255c4.071 3.889 5.639 8.337 5.031 13.599-.183 1.586-.169 3.204-.461 4.767-.357 1.915-.357 3.76-.017 5.688.302 1.715.189 3.501.28 5.254.081 1.566.192 3.131.301 4.9 5.808.938 11.272.467 17.06-.625.166-3.004.106-5.98-.502-8.952-1.355-6.611-1.551-13.307-1.424-20.023.009-.473.138-.943.266-1.765l3.048-2.858 3.888.271c2.329 2.319 3.095 4.881 3.305 7.646.109 1.431.016 2.878.117 4.31.223 3.176.443 6.356.793 9.521.35 3.169.416 6.302-.221 10.075-.453-1.055-.77-1.468-.796-1.9-.393-6.519-.736-13.041-1.114-19.562-.177-3.056-.6-4.503-1.919-6.824l-5.332.661c-1.176 9.764.724 19.318 1.741 28.933 3.136 1.443 6.034-1.048 9.739.007l2.9 2.022c1.679 2.768 3.133 5.65 3.499 8.853.354 3.095.278 6.238.394 9.429.563-.166.98-.162 1.075-.335 2.5-4.57 7.065-6.276 11.429-8.221 2.284-1.018 4.758-.717 7.092-.312 5.37.932 9.746 3.699 13.377 7.748 1.024 1.141 2.333 2.027 3.69 3.182l-.389 1.888c-.406.388-.599.696-.872.816-4.3 1.888-7.786 4.906-11.332 7.896-5.586 4.711-12.251 6.56-19.617 6.983l-5.259-3.495c-1.463 3.791-1.355 7.556-1.109 11.319.405 6.176-.478 12.089-3.666 17.482-1.689 2.856-2.522 6.287-5.445 8.133-.157.658-.393 1.129-.356 1.576.813 9.83 1.589 19.662 3.187 29.411.463 2.827.404 5.738.851 8.568.67 4.247 1.423 8.492 2.41 12.674 2.359 10 2.938 20.189 3.661 30.383.622 8.757 1.589 17.489 2.404 26.232.43 4.609.94 9.211 1.276 13.826.776 10.67 1.524 21.341 2.178 32.019.732 11.951 1.326 23.91 2.019 35.864.545 9.401 1.182 18.798 1.706 28.202.16 2.868.017 5.751.12 8.624.326 9.094.645 18.19 1.089 27.28.194 3.983.718 7.949 1.018 11.928.081 1.074-.109 2.168-.177 3.299l-1.194-.314c-.123-.397-.355-.834-.383-1.285-.615-9.72-1.292-19.43-1.569-29.173-.413-14.521-.813-29.057-1.841-43.542-.859-12.111-1.203-24.237-1.918-36.347-.536-9.082-1.453-18.141-2.162-27.214-.448-5.73-.746-11.47-1.249-17.193-.727-8.271-1.613-16.527-2.366-24.795-.636-6.995-1.179-13.997-1.766-20.997-.628-7.49-2.12-14.817-4.712-22.162zm-7.519-44.865c4.862-2.477 7.139-6.413 9.347-10.559 2.858-5.365 4.104-10.969 3.933-17.005-.099-3.493.14-6.995.189-10.493.013-.891-.119-1.784-.179-2.612l-4.622-.673c-1.931-1.922-1.869-4.014-1.88-5.418.991-4.882 4.3-6.757 7.89-8.237.686-6.221.081-11.965-2.95-17.138-1.836-1.954-4.044-2.113-6.32-1.883-3.015.305-6.012.832-9.031 1.018-4.135.255-8.284.34-12.427.382-4.228.042-8.172 1.204-12.027 2.778-2.142.874-3.649 2.374-4.802 4.431-2.447 4.366-2.855 8.658-.277 13.061l5.773-.452 4.146 5.111c-.814 2.062-1.546 3.937-2.292 5.807-.893 2.238-3.474 2.536-4.769 3.792 2.279 6.332 4.55 12.283 6.552 18.325 1.603 4.836 2.91 9.772 4.286 14.681.708 2.527 1.604 4.858 4.378 5.992.696.046 1.498.193 2.284.134 4.285-.321 8.568-.693 12.798-1.042zm-58.574-46.545c5.125-5.735 8.859-6.396 17.58-3.277l.993-1.436 3.911 2.855 1.351-2.488c-1.218-1.391-2.351-2.511-3.275-3.783-1.387-1.907-3.278-3.014-5.437-3.701-4.759-1.514-8.961-.647-12.989 2.474-4.09 3.169-7.439 7.312-12.218 9.26 2.567 2.507 4.976 5.033 7.575 7.345 2.285 2.031 4.887 3.486 8.099 3.715 6.842.49 12.488-1.659 16.741-6.994-.008-1.477-.55-2.291-1.937-2.3-2.218 1.305-4.367 2.681-6.617 3.863-2.236 1.175-4.662 1.303-6.905.117-2.66-1.405-4.969-3.314-6.872-5.65zm63.232 97.954c.249-1.458.625-3.147.812-4.858.584-5.361-.907-10.45-2.51-15.426-1.182-3.671-2.043-7.342-2.424-11.158-.142-1.417-.383-2.828-.675-4.222-.085-.406-.502-.741-.968-1.386l-4.09 1.3c-.239 1.609-.554 2.988-.633 4.381-.471 8.302.805 16.522 1.309 24.775.3 4.916 2.251 6.512 7.597 7.488l1.582-.894zm38.068-105.324c-4.839 8.898-14.148 12.88-23.41 9.893l-2.914 2.233c.731 2.283 2.482 3.333 4.773 4.524 6.04.08 11.806-1.876 17.003-5.539 2.076-1.463 3.876-3.313 5.905-4.852 2.01-1.525 4.149-2.88 6.231-4.309-1.949-3.735-4.984-6.247-8.454-8.221-4.026-2.291-8.411-3.103-12.869-1.662-2.39.773-4.599 2.177-6.789 3.467-.838.494-1.395 1.462-2.77 2.971 2.487-.701 3.97-1.159 5.475-1.537 2.814-.706 5.666-1.053 8.491-.16 2.999.948 5.955 2.031 9.328 3.192zm-2.705 1.258c-4.233-2.334-8.366-4.021-13.201-3.067-2.988.589-5.892 1.217-7.873 4.228l1.379 1.868 4.174-2.915c.109.533.4 1.059.251 1.384-.736 1.621-1.721 3.014-3.603 3.542-.522.146-.929.705-1.462 1.134 1.306 2.469 3.52 2.36 5.472 2.246 6.18-.362 11.174-2.986 14.863-8.42zm-96.224 6.267c1.575 1.278 2.879 2.411 4.263 3.438 1.19.883 2.579 1.215 4.058.952 3.335-.592 6.183-2.024 8.4-4.688-5.341-4.368-11.672-4.954-16.721.298zm44.026 55.837c1.363-.277 2.633-.441 3.847-.799 3.696-1.088 7.207-2.556 9.89-5.478.472-.514 1.285-.988.535-2.16l-4.354.784c-3.591 3.894-6.264 4.356-10.759.911l-5.29-1.293c-.008 4.262 2.072 6.659 6.131 8.035zm30.394-58.619c-1.105-1.823-2.21-2.861-3.713-3.399-3.087.583-3.196.513-4.193 1.857-.464.625-.454 1.602-.734 2.719 3.057.005 5.725.512 8.64-1.177zm-43.781 1.404c-.79-1.26-1.198-2.28-1.928-2.949-.503-.461-1.52-.729-2.185-.57-1.337.32-2.704.821-3.832 1.583-.628.424-.799 1.523-1.319 2.619 3.111.155 5.853 1.135 9.264-.683zm-8.957 5.582c.763 1.23 1.76 2.06 3.149 1.939 1.071-.093 2.214-.343 3.142-.856 1.307-.721 1.977-2.026 2.033-3.551.008-.226-.319-.464-.553-.782l-1.594.49c-.961.959-.214 2.904-2.377 2.944l-1.694-3.14-2.105.174-.001 2.782zm48.873-.043c1.17-.892 2.232-1.582 3.14-2.437.632-.594.67-1.379-.099-1.94-1.951-.315-2.049 1.693-3.036 2.35-1.853.594-2.725-.515-3.655-1.662-.213-.263-.868-.169-1.307-.237-.51 1.651-.51 1.651.446 3.478l4.511.448zm-38.249-63.344c-2.673-2.079-2.958-2.053-5.036 0h5.036zm14.628 107.905l.936 1.378 3.183-1.643-4.119.265zm10.512-109.082c-.023-.105-.014-.266-.077-.302-.107-.063-.26-.048-.393-.065l.093.486.377-.119zm-15.662 154.053c2.071-.833 3.659-.379 5.234.614 1.698 1.071 2.925 2.439 3.372 4.432.626 2.789 1.242 5.581 1.883 8.368.891 3.879 2.118 7.584 3.863 11.232 2.627 5.487 3.764 11.47 3.655 17.63-.047 2.642-1.07 4.627-3.487 5.776-1.577.75-3.135 1.624-4.8 2.086-3.91 1.084-7.512-.608-8.892-4.434-.96-2.663-1.807-5.563-1.785-8.349.07-8.487-1.288-16.833-1.969-25.244-.362-4.471 1.104-8.394 2.926-12.111zm15.97 44.636c.092-.925.276-1.867.265-2.807-.071-6.141-1.352-12.039-3.959-17.592-1.366-2.908-2.481-5.861-3.117-9.007-.569-2.808-1.227-5.597-1.797-8.405-.465-2.29-1.37-4.233-3.861-5.316l-2.364.403c-3.14 5.088-2.485 10.37-1.872 15.6.632 5.386 1.229 10.756 1.331 16.193.059 3.166.607 6.332 1.085 9.477.319 2.106 1.254 3.949 3.29 5.154 4.507 1.585 7.898-.413 10.999-3.7zm-5.999 51.868c4.657.209 9.508-.589 14.222 1.371.99.684 1.694 1.721 1.723 3.096.129 6.258.053 12.486-3.485 18.033-.682 1.071-1.253 2.342-2.214 3.081-2.891 2.222-5.8 4.498-8.98 6.247-3.716 2.044-7.479.503-8.932-3.512-.801-2.214-1.143-4.648-1.342-7.011-.254-3.017-.347-6.077-.154-9.096.21-3.278-.359-6.348-1.483-9.372-.84-2.259-1.42-4.573-1.393-7.003.025-2.21.775-4.031 2.721-5.173 4.076 1.845 5.091 2.865 9.317 9.339zm13.963 3.371c-1.178-1.325-2.841-1.42-4.395-1.523-2.531-.168-5.077-.098-7.617-.121-1.079-.01-2.158-.001-3.282-.001-2.006-3.524-3.146-7.619-7.718-9.006-.354.802-.929 1.604-1.046 2.468-.282 2.082.14 4.108.9 6.076 1.45 3.755 1.997 7.586 1.811 11.673-.194 4.264.293 8.571.656 12.844.181 2.124 1.066 4.008 3.829 5.196l3.364-.328c2.73-1.828 4.887-3.176 6.93-4.68 1.134-.836 2.345-1.77 3.06-2.94 3.617-5.923 4.399-12.451 3.721-19.233-.015-.149-.139-.284-.213-.425zm-20.363-26.796c.448-.891.646-1.525 1.03-2.012 3.176-4.025 5.456-8.593 8.013-13 2.107-3.63 5.199-6.359 8.877-8.581 2.323 2.263 2.898 5.08 3.144 7.925.467 5.397.787 10.807 1.081 16.217.121 2.225.13 4.469-.004 6.693-.199 3.297-1.296 6.226-4.074 8.329-2.345.795-4.755.414-7.091.076-1.348-.195-2.899-.773-3.835-1.704-3.928-3.907-6.298-8.666-7.141-13.943zm17.524-21.206c-3.392 1.761-5.544 4.156-7.083 6.926-2.619 4.715-5.031 9.54-8.699 13.761.777 5.893 3.38 10.558 7.593 14.344l6.457.877c3.093-.851 4.04-3.095 4.334-5.501.345-2.824.424-5.713.286-8.558-.262-5.394-.78-10.775-1.155-16.164-.133-1.915-.57-3.704-1.733-5.685zm-4.937 106.199c2.329-.348 4.671-.698 7.461-1.116l2.044-1.209c1.139.1 2.285.044 3.341.326 2.691.717 4.525 2.929 4.403 5.546-.237 5.063-.657 10.119-.949 14.403-2.001 4.943-6.363 5.549-9.696 7.659l-7.781.985c-3.094-.893-5.005-3.098-4.764-6.555.435-6.218 1.536-12.327 4.387-17.977.28-.553.754-1.012 1.554-2.062zm15.437 2.722c-1.006-1.952-2.21-2.93-3.829-3.37-.268-.073-.594.062-.892.102l-1.142 1.532c-2.857-.009-5.741-.751-8.272.267-1.838 1.398-2.492 3.164-3.165 4.985-1.508 4.085-1.839 8.396-2.578 12.624-.447 2.553.318 4.729 3.026 6.155 2.017-.108 4.232-.226 6.615-.355 2.639-2.361 7.002-2.167 8.902-5.763 1.77-5.495.332-11.131 1.335-16.177zm-25.277 45.392c.285-.831.45-1.981 1.021-2.873 3.683-5.752 8.355-10.418 14.863-12.934 2.582-.998 3.066-.996 7.196-.455l2.996 9.614c-1.433 3.549-1.665 7.214-4.606 9.822-5.095.776-10.162 2.264-15.488 1.251-2.626-.499-4.949-1.278-5.982-4.425zm1.613.533c1.134.837 1.914 1.676 2.875 2.07 2.563 1.05 5.275 1.161 8.002.75 1.888-.285 3.782-.552 5.649-.942 1.069-.223 2.09-.675 3.294-1.079l2.825-7.783c-.354-1.313-.718-2.684-1.093-4.051-.415-1.509-.839-3.015-1.346-4.832-4.011-.113-7.608 1.389-10.485 3.774-3.844 3.183-8.177 6.202-9.721 12.093zm-14.009-28.487c.746-1.036 1.185-1.696 1.679-2.311.294-.365.677-.658 1.076-1.035 1.926-.531 3.875-1.259 6.057-.379.194.575.518 1.153.571 1.755.254 2.898 1.346 5.513 2.492 8.14.755 1.731 1.37 3.542 1.84 5.37.816 3.174.239 5.978-2.927 8.2h-7.122c-3.1-2.426-4.402-5.403-4.08-9.227.292-3.459.286-6.944.414-10.513zm2.609-1.343c-2.171 5.476-.884 10.763-1.408 15.949l2.683 3.754c2.685.66 4.996.86 7.077-.659 1.79-3.201 1.874-3.223 1.186-5.795-.531-1.983-1.31-3.9-1.975-5.848-.664-1.944-1.338-3.885-1.978-5.836-.289-.883-.506-1.789-.808-2.869-.938.137-1.712.176-2.442.375-.743.206-1.443.567-2.335.929zm24.021-25.073l-2.138-3.257c-1.449-6.656-.691-12.706 1.714-18.579.542-1.325.602-1.3 3.126-2.847 3.475 1.93 5.831 4.818 6.232 8.853.327 3.296.268 6.651.095 9.966-.112 2.152-1.411 3.841-3.233 5.045-1.64 1.083-3.34 1.884-5.796.819zm1.971-.924c3.487-.629 4.958-2.709 5.512-5.897.645-3.714.226-7.31-.753-10.843-.641-2.313-2.12-4.121-4.221-5.147-.571.388-.951.504-1.062.744-1.811 3.938-2.892 8.068-2.806 12.417.034 1.735.393 3.474.725 5.188.279 1.439.962 2.685 2.605 3.538zm-20.677 16.708l-.808 1.098c-.55-.081-1.086-.022-1.463-.239-1.815-1.046-2.604-2.826-2.81-4.763-.42-3.953-.867-7.924-.911-11.892-.086-7.798.697-15.606-.428-23.39-.129-.898-.206-1.947 1.004-2.418.197.146.566.279.592.46.663 4.73.975 9.456.806 14.259-.24 6.828-1.126 13.671-.006 20.51.336 2.053.538 4.12 2.238 5.826l1.668.44.118.109zm-.119-.109c.533-2.917 2.194-5.26 3.966-7.502 2.311-2.924 3.754-6.267 5.074-9.568.222-3.297-1.503-5.948-2.253-8.851-.752-2.91-2.644-5.103-4.416-7.311-1.857-2.313-4.132-4.291-6.508-6.701.874-.042 1.439-.251 1.707-.055 6.862 5.013 11.013 11.813 12.935 20.014.364 1.554.36 3.172-.413 4.68-1.018 1.986-1.903 4.052-3.054 5.956-1.809 2.994-3.775 5.895-5.728 8.8-.224.333-.787.438-1.193.649l-.117-.111zm-1.161-196.261c.365.185.888.272 1.072.57 3.497 5.638 4.004 11.623 1.871 17.844-.475 1.387-1.255 2.643-3.579 2.187l-2.775-4.134c-.272-3.874-.706-7.834-.762-11.799-.029-2.024.558-4.072 1.001-6.08.158-.716.578-1.482 1.769-1.582 0 .418.103.822-.025 1.132-.179.429-.718.76-.779 1.18-.943 6.501-1.396 12.973 1.686 19.119.126.251.471.392.714.584 2.122-2.124 2.297-3.57 2.139-9.044-.097-3.457-1.139-6.507-2.332-9.977zm19.366 53.573c2.223-3.611 2.223-3.611.795-9.89l-2.467-3.353c.48-.111.889-.286 1.291-.271.28.01.58.243.821.438 2.35 1.898 2.569 4.618 2.73 7.323.153 2.565.169 5.129-2.615 6.858l-2.132-.487c-1.973-3.52-3.665-6.954-1.838-11.4 1.577 1.298.444 2.602.67 3.683.226 1.08.389 2.19.778 3.212.432 1.134 1.09 2.184 1.967 3.887zm-25.785 189.449c-2.16-.705-2.927-1.844-3.385-3.346.043-1.868 1.535-2.969 2.389-4.411 1.985-.775 3.764-1.926 6.204-1.193l1.978 3.558c-.534 4.574-4.277 4.475-7.186 5.392zm4.462-7.137c-2.454-.511-4.117.192-5.328 1.902-.427.603-.613 1.376-.927 2.112l1.399 1.741c2.505-.75 5.06-.673 5.74-3.787l-.884-1.968zm4.892-151.074c.172 2.322 1.212 4.664-.597 6.728-3.02.194-3.02.194-5.06-2.496l1.452-8.541c.619.263 1.411.361 1.788.808.907 1.075 1.618 2.314 2.417 3.501zm-2.035-.982c-1.761 1.987-1.898 3.504-2.305 5.062l2.319 1.772c1.592-2.229.311-4.062-.014-6.834zm-1.048-134.135c-1.08 3.896-.9 7.837-.499 11.95l2.272.238c1.362 4.949.511 7.721-2.792 9.051-1.295-.845-1.128-2.148-1.054-3.419.11-1.89.573-3.837.27-5.657-.645-3.872.065-7.59.515-11.305l1.298-.846-.01-.012zm1.194 15.734c-1.651.26-1.651.26-1.099 2.778l1.099-2.778zm11.254-14.162l1.031.221.988 4.717-.623 4.655c1.02 2.627 1.882 5.38.913 8.266-.218.65-.944 1.129-1.551 1.817l-2.084-1.515c-.726-3.514-1.68-6.954 1.948-9.792l-.535-8.467-.087.098zm-.218 12.445c-.062 1.622-1.022 3.394.876 4.769.602-2.707.602-2.707-.876-4.769zm-11.381-25.794c-.173.92-.451 1.835-.501 2.762-.161 3-.238 6.004-.347 9.011l.009.016c-1.089-3.54-.28-7.08.06-10.613.037-.389.546-.733.836-1.096l-.057-.08zm11.685 13.251c-.198-1.37-.356-2.747-.608-4.106-.135-.729-.431-1.428-.654-2.14l-.009.006 1.355.582c.237 1.895.662 3.812-.156 5.74l.072-.082zm-11.628-13.172l-.443-5.594c.897 1.806.779 3.635.37 5.491l.073.103zm10.366 6.926c.01-2.019.142-4.056-.843-5.935l-.048.067 1.529.875-.647 4.997.009-.004zm-1.763-14.11l.233 2.181-.233.014v-2.195zm.92 8.174l-.136-2.537c.849 1.106.357 1.835.106 2.579l.03-.042z" fill-rule="evenodd" clip-rule="evenodd"/></svg>