<svg xmlns="http://www.w3.org/2000/svg" viewBox="0 0 185 240" enable-background="new 0 0 185 240"><path opacity=".2" fill="#fff" d="M53.149 63.263c-3.617-4.287-2.057-12.575 4.69-13.399.612-.371 1.31-.649 2.077-.833 1.241-1.065 2.904-1.742 5.005-1.742 8.609 0 9.993 11.243 4.169 14.882.197.689.311 1.404.311 2.133 0 2.115-.846 4.167-2.332 5.662l-.295.268-.203.233c-1.487 1.495-3.527 2.345-5.63 2.345-2.103 0-4.144-.85-5.63-2.345-1.372-1.38-2.52-3.648-2.332-5.662.052-.578.099-1.076.17-1.542z"/><path opacity=".2" fill="#fff" d="M126.633 54.295c.212-2.198.729-4.05 2.332-5.662 1.487-1.495 3.527-2.345 5.63-2.345 3.788 0 7.872 3.242 7.985 7.254 2.864.552 5.309 2.51 6.163 5.63 1.098 4.015-1.314 8.945-5.561 9.85-4.637.988-9.176-.077-12.546-3.554-2.763-2.851-4.387-7.196-4.003-11.173z"/><path opacity=".2" fill="#fff" d="M128.624 117.85c4.341 0 7.963 3.642 7.963 8.007v1.001c0 4.365-3.622 8.007-7.963 8.007s-7.963-3.642-7.963-8.007v-1.001c0-4.364 3.622-8.007 7.963-8.007z"/><path opacity=".2" fill="#fff" d="M168.459 133.239c-.004-.125-.123-1.009-.162-1.354-.156-.807-.355-1.605-.57-2.397-1.144-4.208 1.374-8.692 5.561-9.85 4.178-1.155 8.652 1.385 9.796 5.592 1.361 5.009 1.785 10.197.498 15.267-1.073 4.227-5.672 6.733-9.796 5.592-4.24-1.173-6.634-5.624-5.561-9.85l.238-1.369c.018-.544.013-1.089-.004-1.631z"/><path opacity=".2" fill="#fff" d="M122.651 177.402c2.677.042 5.347.202 8.025.188l.4-.005c.084-.09.165-.183.236-.291.987-1.501 1.046-3.121.504-4.528-2.83-.666-5.416-3.141-6.993-5.849-2.231-3.83 1.416-8.46 5.62-7.351.808.213 1.565.499 2.297.816.389-1.131.714-2.343.859-3.497.793-6.314 10.756-6.392 9.954 0l-.139.974c.792.168 1.541.493 2.166.993 3.715 2.97 5.057 6.751 4.492 10.824.047.771-.139 1.534-.492 2.234-.199.667-.442 1.339-.733 2.014-.895 2.075-2.533 2.788-4.171 2.591-.557.637-.986 1.379-1.192 2.343-.539 2.521-1.114 4.858-3.39 6.37-2.052 1.363-4.371 1.989-6.782 2.251-3.661 1.055-7.986.645-11.983-.245-5.539-1.235-4.238-9.918 1.322-9.832z"/><path opacity=".2" fill="#fff" d="M57.483 138.562l-.027.306c.029 5.972.4 12.005-.158 17.962-.402 4.294-.987 10.387-4.328 13.542-3.879 3.661-8.775 5.859-13.386 8.501-2.118-1.057-4.638-.823-5.835 2.008-.588 1.39-1.269 2.68-1.991 4.003-1.65 3.026.017 6.001 2.504 7.057.616 1.578 1.66 2.925 3.512 3.809 2.945 1.405 6.006 1.919 9.103 1.951.376.998 1.075 1.897 2.094 2.537 3.836 2.412 7.884 3.981 12.465 3.686 2.613-.169 5.1-2.149 4.977-5.004-.041-.943-.14-1.878-.279-2.806 2.588 1.382 6.617.548 7.566-2.87l.102-.407c6.343-1.97 9.677-9.716 11.103-17.433 7.065-3.05 6.591-12.567 5.935-19.116-.364-3.644-.875-7.269-1.399-10.892.957-5.425 1.018-10.83-1.81-16.061-.221-.409-.505-.758-.823-1.062-.78-3.374-1.934-6.511-3.495-9.094-1.555-2.574-3.921-4.759-6.638-5.824.138-1.117.217-2.277.189-3.513-.147-6.444-10.101-6.458-9.954 0 .354 15.481-23.648 12.408-32.326 7.189-2.866-1.724-6.325-.035-7.311 2.991-2.698 8.285 1.439 12.166 7.658 14.054.36 1.043 1.046 1.984 2.095 2.607 6.692 3.974 14.287 5.817 20.457 1.879zm18.355 26.993c.109-1.523.174-3.05.205-4.577l.17-.026.112.446c-.126 1.861-.219 3.726-.364 5.602l-.018.239-.105-1.684z"/><path opacity=".2" fill="#fff" d="M128.304 208.1c.747-2.731 3.474-4.08 6.122-3.495l.364.086.393.004.268.014.286-.075.23-.049.23-.132.237-.155.199-.195c-.079.051.437-.56.514-.69l.132-.214.088-.279c.026-.076.174-.789.222-.898.037-.533.027-1.069-.008-1.601-.18-2.725 2.4-5.004 4.977-5.004 2.849 0 4.797 2.284 4.977 5.004.265 4.006-1.145 7.939-3.914 10.827-3.092 3.224-7.658 3.931-11.841 3.007-2.65-.585-4.167-3.631-3.476-6.155z"/><path d="M168.828 130.91c.734.782 1.325 1.7 1.976 2.561l-.122-.106c-.088.94-.35 1.903-.228 2.813.253 1.886.71 3.744 1.113 5.756 1.224 1.042 2.684 1.434 4.114 1.234 1.57-1.154 2.922-2.217 4.344-3.175 1.489-1.002 2.696-2.199 3.44-4.1l-2.279-3.106.363-4.758-2.8-1.302-.928-4.79c-1.273-1.519-2.85-1.725-4.437-1.283-2.775.773-4.628 2.688-5.919 5.547l-.001 4.033c-3.318-2.158-6.633-4.316-9.948-6.474-2.616-1.703-5.361-2.725-8.559-1.925-1.377.345-2.812.455-3.718.595l-5.89 3.009 2.25-3.455c-1.515-10.821-3.453-15.196-8.134-18.233l-3.958 2.095c-.76 1.083-1.324 2.063-2.059 2.892-1.047 1.18-2.128 2.418-3.976 2.16l.034.041 5.077-6.021c5.023-1.795 7.354-6.478 9.197-11.439 1.326-3.571 2.059-7.323 2.024-11.175-.034-3.636-.109-7.271-.167-10.907l2.01 3.157 4.914 1.384 10.191-6.617.225-2.941-2.378-3.725c.366-2.549 1.293-4.788 3.341-6.472l-.086-.06c.387 1.191-.154 2.152-.688 3.159-.508.958-.864 1.998-1.259 2.939l2.52 4.409c.329 2.879-1.327 4.168-3.063 5.356-2.095 1.433-4.214 2.834-6.376 4.163-.796.489-1.743.731-2.621 1.085-1.574.508-2.99-1.288-4.785-.356-.235 2.862-.511 5.714-.693 8.573-.3 4.703-1.556 9.106-3.92 13.179-.632 1.088-1.301 2.154-2.172 3.593 3.988 2.508 5.167 6.724 6.538 10.798.608 1.809.882 3.731 1.382 5.581.237.875.652 1.702.935 2.42.638.036.963.129 1.249.058 6.087-1.501 11.635-.645 16.456 3.662 1.041.93 2.074 2.013 3.865 1.886 1.727-2.543 3.47-5.251 6.4-6.82 4.148-.592 4.148-.592 7.184 1.405l1.25 3.924 2.572 1.315c.108 1.99.212 3.895.305 5.578l2.068 4.028c-.475.958-.707 1.99-1.339 2.601-2.144 2.073-4.403 4.029-6.683 5.952-.445.375-1.18.403-1.62.54l-3.78-.843c-1.097 5.566-2.822 10.429-7.861 13.17 1.21 2.784 2.517 5.494 3.575 8.298 1.504 3.984 1.102 8.187 1.128 12.34.027 4.196-1.294 7.824-3.99 10.763-2.599 1.553-5.22 1.937-7.986 1.702-2.692-.229-5.387-.438-8.085-.562-1.882-.087-3.771-.017-5.802-.017-.863 1.633-1.121 3.284-.75 5.048 1.199.665 2.422 1.136 3.367 1.939.657.558.929 1.572 1.373 2.382-1.887-1.357-3.659-2.989-6.565-2.598-1.659 2.166-1.538 5.605-4.236 7.439-2.449 1.665-4.724 3.591-7.41 5.659.17.504.264 1.47.764 2.121.883 1.15 2.157 1.982 3.652 1.913 1.228-.056 2.481-.376 3.649-.788 2.363-.834 4.677-1.81 7.209-2.37l3.214-2.738c-.582 2.122-1.609 3.686-4.049 4.053-2.051.309-3.895 1.281-5.666 2.409-1.648 1.049-3.482 1.555-5.304 1.098-2.894-1-4.526-3.104-5.493-5.211-5.59-.268-10.823-.46-16.049-.793-3.005-.191-5.99-.722-8.995-.903-4.758-.286-9.526-.384-14.287-.612-1.586-.076-3.169-.274-4.746-.477-4.251-.547-8.505-1.074-12.741-1.718-2.034-.31-4.025-.89-6.044-1.308-4.508-.935-8.629-3.285-13.276-3.694-3.189-.281-6.256-1.048-9.274-2.097-.661-.23-1.437-.126-2.231-.181-.153 3.813-.071 7.34-.483 10.81-.696 5.866-1.651 11.702-2.603 17.534-.54 3.315-1.209 6.595-1.102 9.99.026.833-.536 1.686-1.021 3.089l-1.395-2.355c.947-5.664 1.903-11.161 2.776-16.67.624-3.939 1.243-7.884 1.668-11.848.422-3.939.65-7.906-.344-11.854-1.888-.939-4.221-1.109-5.017-3.885.131-1.097.781-2.494.029-4.16-.6-1.33.9-2.848.456-4.53-.38-1.439-.245-3.016-.351-4.744l1.591-.163 3.324-2.359c.116-2.649.245-4.873.302-7.098.096-3.676-.275-7.421.308-11.014.976-6.022 1.492-12.039 1.517-18.122.002-.513-.159-1.352 1.173-1.364.176.791.565 1.658.524 2.504-.169 3.512-.105 7.092-.79 10.512-1.517 7.573-1.244 15.149-.851 22.675h10.744l6.671-5.182c.039-4.597-.09-9.067.162-13.517.252-4.442.887-8.862 1.342-13.178-2.138-2.223-2.416-2.495-4.902-2.758-3.98-.421-7.744-1.521-11.557-2.734-4.827-1.536-9.423-3.793-14.442-4.749-.687-.131-1.267-.824-1.899-1.259 1.202-4.019-.977-8.326 1.7-11.7l-1.034-3.077c1.888-2.579 3.964-.515 5.841-.818l6.403-1.367c1.397-4.426 1.243-8.899 1.185-13.379-.08-6.228-.266-12.467-.002-18.684.39-9.18-.232-18.179-2.972-27.004-1.962-6.316-2.717-12.791-1.93-19.419 1.036-8.73 1.787-17.483 2.296-26.265.172-2.973.381-6.149 2.453-9.65-.183 1.443-.247 2.047-.338 2.647-.501 3.308-1.481 6.622-1.419 9.918.149 7.876-.692 15.639-1.671 23.415-.563 4.467-.572 8.925.534 13.337.777 3.1 1.462 6.222 2.24 9.322 1.795 7.157 2.533 14.321 1.865 21.768-.582 6.496-.2 13.097.055 19.64.081 2.068.254 4.096.081 6.181-.248 2.988-.793 6.005-.202 8.966 6.465 3.705 13.365 4.435 20.394 4.599 1.541.036 2.797-.474 3.875-2.105.405-2.169.857-4.674 1.341-7.173.558-2.882 1.574-5.531 3.891-7.494-.135.621-.128 1.323-.429 1.849-1.702 2.979-2.451 6.203-2.768 9.59-.147 1.569-.594 3.109-.952 4.892l-4.369 2.091c-3.916-.558-7.863-.973-11.745-1.727-2.627-.51-5.153-1.529-7.74-2.265-3.176-.903-6.374-2.404-9.574.087l-2.581 4.502v6.841c1.114 2.531 2.873 3.822 5.078 4.54 6.483 2.11 12.726 5.088 19.701 5.43 1.991.097 3.704.864 4.927 3.197-.115 1.504-.195 3.406-.415 5.292-.668 5.71-1.454 11.409-.805 17.182.257 2.286-.15 4.451-1.489 6.623-2.387 1.737-4.607 4.091-7.644 5.174-3.212-.064-6.397-1.112-9.972.679l-3.538 2.662v13.726c.83.661 1.483 1.536 2.321 1.786 3.797 1.132 7.619 2.213 11.485 3.067 3.257.72 6.503 1.306 9.637 2.592 4.568 1.874 9.343 3.089 14.313 3.394 1.418.086 2.818.435 4.232.613 3.775.475 7.561 1.358 11.329 1.291 7.974-.143 15.855.518 23.74 1.549 5.859.766 11.743 1.132 17.364-1.326 3.756-1.643 6.893-4.1 8.169-8.144.487-1.541.957-2.952 1.874-4.293 1.084-1.588 1.598-3.388.854-5.601-1.663 0-3.231-.076-4.79.019-2.06.125-4.108.436-6.167.573-4.983.331-9.213-1.628-13.167-4.125-.698-3.435 1.731-6.063.977-8.934 3.911-1.921 7.426.435 11.03.234 1.668-1.639 2.571-3.315.903-5.68-3.273-.589-5.94-2.448-8.415-5.303l1.139-5.743c-.347-1.259-1.061-1.974-2.204-2.421-2.37-.925-4.794-1.783-7.014-3.004-4.612-2.536-9.099-5.298-11.09-10.472-.017-3.254.302-6.167 2.621-8.554 1.749.81 3.403 1.411 4.878 2.308 1.337.812 2.592 1.838 3.68 2.967 1.433 1.488 2.71 3.137 3.978 4.776 2.149 2.78 4.232 5.598 5.15 9.106.233.89.822 1.686 1.166 2.366 5.979 2.344 6.947 2.432 10.688 1.026 1.464-1.701 1.527-3.745 1.375-5.792-3.883-5.275-5.046-8.025-2.236-18.072-.747-1.58-1.619-3.089-2.182-4.706-.622-1.787-.458-3.494 1.763-4.566 1.841.35 3.874.44 5.759-.64l-.097-.079-2.785 5.845c-.62 2.61-1.389 6.028-2.247 9.423-1.315 5.202.056 9.451 4.306 12.734-.481 1.804-.859 3.644-1.469 5.403-.747 2.151-2.778 3.407-5.294 3.301-1.419-.06-2.825-.407-4.348-.642-2.097 1.79-1.775 4.172-1.671 6.319 1.475 2.383 4.334 1.624 6.21 3.648 1.701 2.492.806 5.046-.951 7.401-2.879 2.287-5.638-.227-8.638.18-1.516 2.276-1.222 4.966-1.182 7.773 3.299 1.354 6.344 2.771 10.087 2.253 5.683-.787 11.396-.478 17.114.281 3.924.521 7.931.523 11.901.524 1.523 0 3.047-.646 4.123-.895 2.746-2.79 3.828-5.672 3.749-9.053-.071-3.023.05-6.051-.05-9.072-.156-4.718-2.265-8.544-5.56-11.838-1.779 0-3.514-.064-5.244.012-4.637.207-9.214.004-13.597-1.747-2.06-.822-4.179-1.573-5.193-3.858 1.112.561 2.21 1.199 3.367 1.701 2.59 1.123 5.213 2.166 8.237 1.999-1.238-5.24-2.294-10.172.166-14.84 1.843-1.222 3.525-1.335 5.175-.368 1.786 1.047 2.578 2.777 2.741 4.782.077.947.081 1.937-.106 2.862-.501 2.474-1.122 4.924-1.737 7.565 3.634.633 7.272.088 11.015-1.745l3.315-5.303c.207-3.011.605-6.188.593-9.364-.012-3.381-1.208-6.54-2.571-9.608.522.279 1.155.449 1.538.856zm-50.232 20.579c-2.298-3.044-4.564-6.115-6.971-9.07-1.854-2.276-4.286-3.679-7.407-4.139-1.613 2.343-1.798 4.681-.291 7.081 2.039 3.25 7.159 6.766 11.724 7.981-1.374-3.027-4.054-4.83-5.759-7.611 2.516.397 2.469.438 4.949 3.301 1.283 1.481 2.197 3.382 4.928 4.823-.666-1.363-.84-1.925-1.173-2.366zm14.311-21.374c.968-.285.983-.332 1.021-3.011l-1.683-.315c-1.076 1.915-.398 2.707.662 3.326zm-105.684-1.702c.782-1.376.543-2.69.343-4.009-1.675 2.175-1.675 2.175-.343 4.009zm-.055-10.31l1.457 1.561c.657-1.833.13-2.169-1.457-1.561zm.563 13.682c.025.002.07-.218.105-.336l-.951-.227-.086.42c.31.054.619.115.932.143zm39.632-31.493c-3.634-3.641-5.879-7.919-5.889-13.192-.004-1.919.1-3.838.074-5.757-.012-.912-.211-1.822-.328-2.758l-4.793-.621c-2.596-1.826-4.924-3.838-7.577-5.22-2.401-1.251-4.171-2.842-5.293-5.234-.493-3.34-1.094-6.642-2.653-9.662-.695-1.348-.983-2.686-.272-4.63l5.037-3.85.237-3.965c1.224-2.959 4.543-3.024 6.247-5.009-.05-.431-.067-.742-.126-1.043-.062-.313-.208-.612-.244-.926-.407-3.476.625-5.045 3.917-6.066 2.833-.88 5.656-.774 8.432.149 7.516 2.499 13.759 8.799 16.094 16.16.156-.008.336.031.464-.033.279-.141.552-.309.791-.51 3.726-3.131 7.676-5.53 12.867-5.052 2.173.2 4.4-.258 6.603-.275.475-.004.956.605 1.433.932l.11-.122-14.088 1.437c-1.917 1.376-4.487 3.226-7.063 5.067-1.681 1.203-3.389 2.367-5.05 3.596-5.902 4.368-10.566 9.665-12.451 17.007-.237.923-.497 1.868-.531 2.811-.16 4.451-.184 8.908-.371 13.357-.253 6.007 2.784 10.29 7.029 13.98.94.818 1.897 1.616 2.846 2.422l.084-.114-3.439.112c.08-1.55-1.222-2.114-2.097-2.991zm-22.402-33.829c.494 1.76 1.528 3.096 3.09 4.082 2.145 1.353 4.307 2.7 6.317 4.242 2 1.535 4.146 2.151 6.827 1.975 1.231-4.133 1.319-8.544 3.629-12.301 2.176-3.539 4.254-7.12 7.919-9.777-2.455-2.394-4.942-4.3-8.22-4.513-2.987-.194-6.03-.092-8.385 2.574l1.665 3.513-.84 3.84c.244 2.708.457 5.075.682 7.584l2.459 2.337c-.485.182-.867.465-1.223.435-1.414-.118-2.181-1.162-3.068-2.48.041-3.545-.88-7.351.476-11.34l-1.917-4.167c2.556-3.358 5.946-4.092 9.742-4.001 3.924.094 6.614 2.924 10.314 4.509l3.837-2.439c.732-4.207-1.664-6.769-3.832-9.242-2.64-3.011-5.952-5.228-9.643-6.865-3.587-1.591-7.066-1.518-10.758.396l-1.221 1.914 1.621 4.105c-.396.436-.721 1.063-1.227 1.304-1.995.951-4.182 1.56-5.728 3.657l-.545 4.696-5.338 3.829c1.239 4.476 2.291 8.308 3.367 12.133zm-40.402-66.427c-.144.877-.407 1.752-.415 2.63-.072 8.479-.197 16.959-.111 25.437.057 5.593.618 11.182.625 16.772.008 7.177.38 14.369-.758 21.528-.55 3.46-.781 6.996-.848 10.504-.191 9.922-.238 19.846-.304 29.77-.014 2.073.229 4.149.18 6.22-.091 3.831-.427 7.658-.456 11.489-.12 15.833-.766 31.664-.191 47.499.128 3.512.432 7.016.591 10.528.359 7.892-1.184 15.611-2.254 23.362-1.065 7.71-.755 15.318.924 22.891.055.25.386.438.587.653 1.013-.12.714-.906.663-1.407-.197-1.909-.384-3.829-.762-5.708-1.125-5.595-.509-11.144.216-16.711.64-4.914 1.407-9.829 1.683-14.768.285-5.105.298-10.255-.019-15.357-.645-10.386-.503-20.749-.216-31.143.397-14.386.305-28.785.419-43.178.07-8.802.052-17.607.24-26.406.069-3.186.646-6.361.95-9.544.274-2.861.729-5.732.684-8.591-.106-6.712.146-13.427-.643-20.137-.465-3.953-.263-7.994-.231-11.994.06-7.513-.54-15.043.528-22.535.085-.595-.09-1.226-.144-1.84l-.938.036zm146.588 44.592c-1.196-1.69-3.141-.953-4.712-1.386-1.187-.326-2.516-.112-3.513-1.438-.7-2.172 1.889-4.389.176-6.929-.373-.126-1.002-.573-1.53-.475-2.368.441-4.619.099-6.982-.285-6.317-1.026-10.993 1.998-14.512 6.981-1.256 1.778-2.052 3.884-3.174 6.065l-2.08.428.094-.143c3.646 2.701 8 3.956 11.999 5.936.121.06.306-.013.462-.025l-.036-1.09c-2.856-1.262-5.959-2.025-8.388-3.971.396-3.309 1.026-5.246 2.673-7.162 2.299-2.675 4.916-4.969 8.54-6.089 3.797.097 7.635 1.363 11.604 1.045.183-.015.399.396.665.679.028 1.966-1.707 3.831-.514 6.119.99 1.183 2.468 1.593 4.118 1.608 1.739.016 3.478.048 5.218.072l-.108.06zm-36.326 2.96l-4.835-3.86h-7.601l.11-.122c.39.862 1.187.973 1.968.99 1.727.04 3.455.013 4.886.013 2.947 2.36 2.947 2.36 5.565 2.836l-.093.143zm43.004 5.711c-.479-.567-.846-1.369-1.455-1.661-2.569-1.234-4.145-3.089-4.399-6.017-.031-.352-.538-.662-.824-.992l.108-.06v3.677c1.667 3.149 3.936 4.429 6.706 4.967l-.136.086zm-10.516 149.763c.081 1.671.518 3.376-.462 4.948 2.682-1.409 2.778-2.433.462-4.948zm-.933-3.869c-.099 1.481-.347 3.002 1.061 4.088-.07-1.436.288-2.986-1.061-4.088zm11.479-143.07c1.317-1.284 1.316-1.379-.03-2.825l.136-.086-.019 2.971-.087-.06zm-20.016 68.26l1.054-.445c.219-1.47-.281-2.767-1.607-3.555-3.141-1.865-6.378-3.538-9.937-3.881l-7.725 5.177 1.477 3.775c.084 1.037-1.007 2.494-.194 4.146.611 1.244.777 2.709 1.187 4.25l3.186 2.78 4.268 1.073 1.457-1.196c-2.397-1.443-5.37-.694-7.163-3.198l-1.667-5.617.763-2.294-1.366-3.329c.317-.384.543-.874.922-1.08 1.669-.908 3.381-1.735 5.245-2.675 3.392-.078 6.111 1.999 9.112 3.454l1.084 2.694-.096-.079zm-64.939-21.212c1.613 2.318 4.229 3.271 6.574 4.334 3.725 1.689 7.643 3.094 11.615 4.048 4.91 1.179 9.985 1.644 14.939 2.663 3.79.78 7.562.807 11.358.458 2.603-.24 4.866-1.202 6.087-3.777l.034.041c-.595.132-1.352.074-1.757.426-2.603 2.262-5.698 2.729-8.928 2.492-2.68-.196-5.368-.518-8.004-1.035-4.97-.976-10.128-.953-14.933-2.787-2.214-.845-4.342-2.023-6.623-2.564-2.847-.676-5.317-1.974-7.782-3.437-.767-.455-1.769-.511-2.663-.749l.083-.113zm68.59 35.595l-1.578 2.694 1.977 1.844c.552-.397 1.072-.576 1.239-.925.684-1.429.561-2.668-1.638-3.613zm20.597 6.868c1.086-1.661.745-2.71-.501-3.914l-2.449.675 1.01 2.842 1.94.397zm-56.132-43.878l.143-.057-.424-1.074c.442.125.884.258 1.076.316 2.203-2.109 4.157-4.21 6.348-6.024 3.684-3.051 7.849-2.957 12.082-1.31.519.202.857.875 1.192 1.236-.744 6.989-4.413 11.564-10.643 13.236-3.213.862-6.444 1.65-9.849.872-1.198-.274-2.51-.044-4.041-.044l-2.935-1.144c-.921-1.291-1.61-2.341-2.384-3.323-2.371-3.008-3.53-6.307-2.938-10.216.452-2.982.622-6.007.929-9.011.22-2.159 1.064-4.05 2.823-5.328 1.582-1.15 3.374-1.76 5.297-.981 2.354 2.764 2.898 3.466 3.375 6.725.733 5.003 1.85 10.063-.342 15.019l.291 1.108zm4.1 2.638c1.467-.949 2.886-1.985 4.413-2.822.553-.303 1.36-.138 2.679-.231-2.148 2.804-5.239 3.285-7.38 5.532 8.701-.303 13.345-3.939 14.667-11.377-2.627-1.346-5.559-1.55-8.132-.419-4.269 1.876-7.372 5.163-9.114 9.621 1.253.736 2.064.214 2.867-.304zm17.174-51.997l4.693-2.978c2.417 1.477 5.285 2.163 8.128 1.999 4.993 4.059 6.466 8.914 4.41 14.687l-5.184 2.232-3.433-3.639c.682 2.678 1.957 5.013 3.957 6.929l.084-1.646c1.725-1.623 4.752-1.52 6.434-4.434l.892-3.14c-1.047-4.309-1.712-8.802-6.175-11.784-2.767-.711-6.368-.2-8.669-3.287-2.359 1.43-4.471 2.479-5.137 5.061zm-6.024 29.611c1.562-1.185 1.519-2.453.797-3.844-1.237-1.109-2.558-.859-4.18-.337 0 .885-.252 1.851.056 2.576.524 1.231 1.654 1.816 3.327 1.605zm-39.687-4.845l-.184-2.803-3.235-1.255-1.265 2.429c2.012 2.692 2.012 2.692 4.684 1.629zm54.47-12.259c-.871-3.118-2.068-6.03-4.932-7.889 1.114 2.965 2.642 5.668 4.932 7.889zm-4.767-7.708c-.55-2.123-1.899-3.442-3.991-4.014.748 1.924 1.936 3.404 3.991 4.014zm39.461 76.169l2.905-1.321c1.697 1.038 2.946 2.065 2.608 4.395l-3.114.524c.111.258.151.639.327.719 1.485.681 2.976 1.077 4.472-.495.636-2.477-.478-4.414-2.53-5.887-.599-.43-1.487-.691-2.215-.639-.868.062-1.705.543-2.798.929.18.764.309 1.311.452 1.87l-.107-.095z" opacity=".6" fill-rule="evenodd" clip-rule="evenodd"/></svg>