<?xml version="1.0" encoding="utf-8"?>
<!-- Generator: Adobe Illustrator 17.1.0, SVG Export Plug-In . SVG Version: 6.00 Build 0)  -->
<!DOCTYPE svg PUBLIC "-//W3C//DTD SVG 1.1//EN" "http://www.w3.org/Graphics/SVG/1.1/DTD/svg11.dtd">
<svg version="1.1" id="Layer_1" xmlns="http://www.w3.org/2000/svg" xmlns:xlink="http://www.w3.org/1999/xlink" x="0px" y="0px"
	 viewBox="0 0 185 240" enable-background="new 0 0 185 240" xml:space="preserve">
<path opacity="0.2" fill="#FFFFFF" d="M53.149,63.263c-3.617-4.287-2.057-12.575,4.69-13.399c0.612-0.371,1.31-0.649,2.077-0.833
	c1.241-1.065,2.904-1.742,5.005-1.742c8.609,0,9.993,11.243,4.169,14.882c0.197,0.689,0.311,1.404,0.311,2.133
	c0,2.115-0.846,4.167-2.332,5.662c-0.095,0.095-0.196,0.178-0.295,0.268c-0.07,0.076-0.13,0.158-0.203,0.233
	c-1.487,1.495-3.527,2.345-5.63,2.345c-2.103,0-4.144-0.85-5.63-2.345c-1.372-1.38-2.52-3.648-2.332-5.662
	C53.031,64.227,53.078,63.729,53.149,63.263z"/>
<path opacity="0.2" fill="#FFFFFF" d="M126.633,54.295c0.212-2.198,0.729-4.05,2.332-5.662c1.487-1.495,3.527-2.345,5.63-2.345
	c3.788,0,7.872,3.242,7.985,7.254c2.864,0.552,5.309,2.51,6.163,5.63c1.098,4.015-1.314,8.945-5.561,9.85
	c-4.637,0.988-9.176-0.077-12.546-3.554C127.873,62.617,126.249,58.272,126.633,54.295z"/>
<path opacity="0.2" fill="#FFFFFF" d="M128.624,117.85c4.341,0,7.963,3.642,7.963,8.007v1.001c0,4.365-3.622,8.007-7.963,8.007
	s-7.963-3.642-7.963-8.007v-1.001C120.661,121.493,124.283,117.85,128.624,117.85z"/>
<path opacity="0.2" fill="#FFFFFF" d="M168.459,133.239c-0.004-0.125-0.123-1.009-0.162-1.354c-0.156-0.807-0.355-1.605-0.57-2.397
	c-1.144-4.208,1.374-8.692,5.561-9.85c4.178-1.155,8.652,1.385,9.796,5.592c1.361,5.009,1.785,10.197,0.498,15.267
	c-1.073,4.227-5.672,6.733-9.796,5.592c-4.24-1.173-6.634-5.624-5.561-9.85c0.041-0.16,0.18-1.113,0.238-1.369
	C168.481,134.326,168.476,133.781,168.459,133.239z"/>
<path opacity="0.2" fill="#FFFFFF" d="M122.651,177.402c2.677,0.042,5.347,0.202,8.025,0.188c0.126-0.001,0.267-0.003,0.4-0.005
	c0.084-0.09,0.165-0.183,0.236-0.291c0.987-1.501,1.046-3.121,0.504-4.528c-2.83-0.666-5.416-3.141-6.993-5.849
	c-2.231-3.83,1.416-8.46,5.62-7.351c0.808,0.213,1.565,0.499,2.297,0.816c0.389-1.131,0.714-2.343,0.859-3.497
	c0.793-6.314,10.756-6.392,9.954,0c-0.04,0.322-0.093,0.648-0.139,0.974c0.792,0.168,1.541,0.493,2.166,0.993
	c3.715,2.97,5.057,6.751,4.492,10.824c0.047,0.771-0.139,1.534-0.492,2.234c-0.199,0.667-0.442,1.339-0.733,2.014
	c-0.895,2.075-2.533,2.788-4.171,2.591c-0.557,0.637-0.986,1.379-1.192,2.343c-0.539,2.521-1.114,4.858-3.39,6.37
	c-2.052,1.363-4.371,1.989-6.782,2.251c-3.661,1.055-7.986,0.645-11.983-0.245C115.79,185.999,117.091,177.316,122.651,177.402z"/>
<path opacity="0.2" fill="#FFFFFF" d="M57.483,138.562c-0.005,0.106-0.027,0.197-0.027,0.306c0.029,5.972,0.4,12.005-0.158,17.962
	c-0.402,4.294-0.987,10.387-4.328,13.542c-3.879,3.661-8.775,5.859-13.386,8.501c-2.118-1.057-4.638-0.823-5.835,2.008
	c-0.588,1.39-1.269,2.68-1.991,4.003c-1.65,3.026,0.017,6.001,2.504,7.057c0.616,1.578,1.66,2.925,3.512,3.809
	c2.945,1.405,6.006,1.919,9.103,1.951c0.376,0.998,1.075,1.897,2.094,2.537c3.836,2.412,7.884,3.981,12.465,3.686
	c2.613-0.169,5.1-2.149,4.977-5.004c-0.041-0.943-0.14-1.878-0.279-2.806c2.588,1.382,6.617,0.548,7.566-2.87
	c0.037-0.135,0.065-0.272,0.102-0.407c6.343-1.97,9.677-9.716,11.103-17.433c7.065-3.05,6.591-12.567,5.935-19.116
	c-0.364-3.644-0.875-7.269-1.399-10.892c0.957-5.425,1.018-10.83-1.81-16.061c-0.221-0.409-0.505-0.758-0.823-1.062
	c-0.78-3.374-1.934-6.511-3.495-9.094c-1.555-2.574-3.921-4.759-6.638-5.824c0.138-1.117,0.217-2.277,0.189-3.513
	c-0.147-6.444-10.101-6.458-9.954,0c0.354,15.481-23.648,12.408-32.326,7.189c-2.866-1.724-6.325-0.035-7.311,2.991
	c-2.698,8.285,1.439,12.166,7.658,14.054c0.36,1.043,1.046,1.984,2.095,2.607C43.718,140.657,51.313,142.5,57.483,138.562z
	 M75.838,165.555c0.109-1.523,0.174-3.05,0.205-4.577c0.056-0.007,0.113-0.017,0.17-0.026c0.033,0.15,0.083,0.295,0.112,0.446
	c-0.126,1.861-0.219,3.726-0.364,5.602c-0.005,0.072-0.012,0.157-0.018,0.239C75.911,166.677,75.873,166.116,75.838,165.555z"/>
<path opacity="0.2" fill="#FFFFFF" d="M128.304,208.1c0.747-2.731,3.474-4.08,6.122-3.495c0.162,0.036,0.275,0.064,0.364,0.086
	c0.084-0.002,0.209-0.002,0.393,0.004c0.113,0.004,0.197,0.009,0.268,0.014c0.069-0.021,0.156-0.045,0.286-0.075
	c0.095-0.022,0.168-0.037,0.23-0.049c0.057-0.036,0.128-0.077,0.23-0.132c0.104-0.069,0.176-0.116,0.237-0.155
	c0.068-0.064,0.134-0.13,0.199-0.195c-0.079,0.051,0.437-0.56,0.514-0.69c0.054-0.091,0.096-0.158,0.132-0.214
	c0.02-0.071,0.047-0.157,0.088-0.279c0.026-0.076,0.174-0.789,0.222-0.898c0.037-0.533,0.027-1.069-0.008-1.601
	c-0.18-2.725,2.4-5.004,4.977-5.004c2.849,0,4.797,2.284,4.977,5.004c0.265,4.006-1.145,7.939-3.914,10.827
	c-3.092,3.224-7.658,3.931-11.841,3.007C129.13,213.67,127.613,210.624,128.304,208.1z"/>
<g opacity="0.6">
	<path fill-rule="evenodd" clip-rule="evenodd" d="M168.828,130.91c0.734,0.782,1.325,1.7,1.976,2.561l-0.122-0.106
		c-0.088,0.94-0.35,1.903-0.228,2.813c0.253,1.886,0.71,3.744,1.113,5.756c1.224,1.042,2.684,1.434,4.114,1.234
		c1.57-1.154,2.922-2.217,4.344-3.175c1.489-1.002,2.696-2.199,3.44-4.1c-0.711-0.969-1.446-1.969-2.279-3.106
		c0.112-1.471,0.232-3.043,0.363-4.758c-0.905-0.421-1.731-0.805-2.8-1.302c-0.297-1.533-0.624-3.22-0.928-4.79
		c-1.273-1.519-2.85-1.725-4.437-1.283c-2.775,0.773-4.628,2.688-5.919,5.547c0,1.184,0,2.609-0.001,4.033
		c-3.318-2.158-6.633-4.316-9.948-6.474c-2.616-1.703-5.361-2.725-8.559-1.925c-1.377,0.345-2.812,0.455-3.718,0.595
		c-1.932,0.987-3.41,1.742-5.89,3.009c1.183-1.817,1.735-2.664,2.25-3.455c-1.515-10.821-3.453-15.196-8.134-18.233
		c-1.328,0.703-2.719,1.44-3.958,2.095c-0.76,1.083-1.324,2.063-2.059,2.892c-1.047,1.18-2.128,2.418-3.976,2.16l0.034,0.041
		c1.592-1.888,3.184-3.776,5.077-6.021c5.023-1.795,7.354-6.478,9.197-11.439c1.326-3.571,2.059-7.323,2.024-11.175
		c-0.034-3.636-0.109-7.271-0.167-10.907c0.572,0.898,1.144,1.796,2.01,3.157c1.369,0.386,3.158,0.889,4.914,1.384
		c3.505-2.276,6.812-4.423,10.191-6.617c0.081-1.051,0.152-1.982,0.225-2.941c-0.788-1.234-1.55-2.428-2.378-3.725
		c0.366-2.549,1.293-4.788,3.341-6.472l-0.086-0.06c0.387,1.191-0.154,2.152-0.688,3.159c-0.508,0.958-0.864,1.998-1.259,2.939
		c0.973,1.703,1.834,3.209,2.52,4.409c0.329,2.879-1.327,4.168-3.063,5.356c-2.095,1.433-4.214,2.834-6.376,4.163
		c-0.796,0.489-1.743,0.731-2.621,1.085c-1.574,0.508-2.99-1.288-4.785-0.356c-0.235,2.862-0.511,5.714-0.693,8.573
		c-0.3,4.703-1.556,9.106-3.92,13.179c-0.632,1.088-1.301,2.154-2.172,3.593c3.988,2.508,5.167,6.724,6.538,10.798
		c0.608,1.809,0.882,3.731,1.382,5.581c0.237,0.875,0.652,1.702,0.935,2.42c0.638,0.036,0.963,0.129,1.249,0.058
		c6.087-1.501,11.635-0.645,16.456,3.662c1.041,0.93,2.074,2.013,3.865,1.886c1.727-2.543,3.47-5.251,6.4-6.82
		c4.148-0.592,4.148-0.592,7.184,1.405c0.401,1.256,0.832,2.61,1.25,3.924c0.874,0.447,1.695,0.866,2.572,1.315
		c0.108,1.99,0.212,3.895,0.305,5.578c0.75,1.461,1.395,2.718,2.068,4.028c-0.475,0.958-0.707,1.99-1.339,2.601
		c-2.144,2.073-4.403,4.029-6.683,5.952c-0.445,0.375-1.18,0.403-1.62,0.54c-1.377-0.307-2.563-0.571-3.78-0.843
		c-1.097,5.566-2.822,10.429-7.861,13.17c1.21,2.784,2.517,5.494,3.575,8.298c1.504,3.984,1.102,8.187,1.128,12.34
		c0.027,4.196-1.294,7.824-3.99,10.763c-2.599,1.553-5.22,1.937-7.986,1.702c-2.692-0.229-5.387-0.438-8.085-0.562
		c-1.882-0.087-3.771-0.017-5.802-0.017c-0.863,1.633-1.121,3.284-0.75,5.048c1.199,0.665,2.422,1.136,3.367,1.939
		c0.657,0.558,0.929,1.572,1.373,2.382c-1.887-1.357-3.659-2.989-6.565-2.598c-1.659,2.166-1.538,5.605-4.236,7.439
		c-2.449,1.665-4.724,3.591-7.41,5.659c0.17,0.504,0.264,1.47,0.764,2.121c0.883,1.15,2.157,1.982,3.652,1.913
		c1.228-0.056,2.481-0.376,3.649-0.788c2.363-0.834,4.677-1.81,7.209-2.37c1.071-0.912,2.142-1.824,3.214-2.738
		c-0.582,2.122-1.609,3.686-4.049,4.053c-2.051,0.309-3.895,1.281-5.666,2.409c-1.648,1.049-3.482,1.555-5.304,1.098
		c-2.894-1-4.526-3.104-5.493-5.211c-5.59-0.268-10.823-0.46-16.049-0.793c-3.005-0.191-5.99-0.722-8.995-0.903
		c-4.758-0.286-9.526-0.384-14.287-0.612c-1.586-0.076-3.169-0.274-4.746-0.477c-4.251-0.547-8.505-1.074-12.741-1.718
		c-2.034-0.31-4.025-0.89-6.044-1.308c-4.508-0.935-8.629-3.285-13.276-3.694c-3.189-0.281-6.256-1.048-9.274-2.097
		c-0.661-0.23-1.437-0.126-2.231-0.181c-0.153,3.813-0.071,7.34-0.483,10.81c-0.696,5.866-1.651,11.702-2.603,17.534
		c-0.54,3.315-1.209,6.595-1.102,9.99c0.026,0.833-0.536,1.686-1.021,3.089c-0.685-1.156-1.065-1.797-1.395-2.355
		c0.947-5.664,1.903-11.161,2.776-16.67c0.624-3.939,1.243-7.884,1.668-11.848c0.422-3.939,0.65-7.906-0.344-11.854
		c-1.888-0.939-4.221-1.109-5.017-3.885c0.131-1.097,0.781-2.494,0.029-4.16c-0.6-1.33,0.9-2.848,0.456-4.53
		c-0.38-1.439-0.245-3.016-0.351-4.744c0.606-0.062,1.35-0.139,1.591-0.163c1.368-0.971,2.407-1.708,3.324-2.359
		c0.116-2.649,0.245-4.873,0.302-7.098c0.096-3.676-0.275-7.421,0.308-11.014c0.976-6.022,1.492-12.039,1.517-18.122
		c0.002-0.513-0.159-1.352,1.173-1.364c0.176,0.791,0.565,1.658,0.524,2.504c-0.169,3.512-0.105,7.092-0.79,10.512
		c-1.517,7.573-1.244,15.149-0.851,22.675c3.651,0,7.245,0,10.744,0c2.34-1.817,4.459-3.464,6.671-5.182
		c0.039-4.597-0.09-9.067,0.162-13.517c0.252-4.442,0.887-8.862,1.342-13.178c-2.138-2.223-2.416-2.495-4.902-2.758
		c-3.98-0.421-7.744-1.521-11.557-2.734c-4.827-1.536-9.423-3.793-14.442-4.749c-0.687-0.131-1.267-0.824-1.899-1.259
		c1.202-4.019-0.977-8.326,1.7-11.7c-0.401-1.193-0.743-2.211-1.034-3.077c1.888-2.579,3.964-0.515,5.841-0.818
		c2.141-0.457,4.283-0.914,6.403-1.367c1.397-4.426,1.243-8.899,1.185-13.379c-0.08-6.228-0.266-12.467-0.002-18.684
		c0.39-9.18-0.232-18.179-2.972-27.004c-1.962-6.316-2.717-12.791-1.93-19.419c1.036-8.73,1.787-17.483,2.296-26.265
		c0.172-2.973,0.381-6.149,2.453-9.65c-0.183,1.443-0.247,2.047-0.338,2.647c-0.501,3.308-1.481,6.622-1.419,9.918
		c0.149,7.876-0.692,15.639-1.671,23.415c-0.563,4.467-0.572,8.925,0.534,13.337c0.777,3.1,1.462,6.222,2.24,9.322
		c1.795,7.157,2.533,14.321,1.865,21.768c-0.582,6.496-0.2,13.097,0.055,19.64c0.081,2.068,0.254,4.096,0.081,6.181
		c-0.248,2.988-0.793,6.005-0.202,8.966c6.465,3.705,13.365,4.435,20.394,4.599c1.541,0.036,2.797-0.474,3.875-2.105
		c0.405-2.169,0.857-4.674,1.341-7.173c0.558-2.882,1.574-5.531,3.891-7.494c-0.135,0.621-0.128,1.323-0.429,1.849
		c-1.702,2.979-2.451,6.203-2.768,9.59c-0.147,1.569-0.594,3.109-0.952,4.892c-1.449,0.694-2.852,1.365-4.369,2.091
		c-3.916-0.558-7.863-0.973-11.745-1.727c-2.627-0.51-5.153-1.529-7.74-2.265c-3.176-0.903-6.374-2.404-9.574,0.087
		c-0.846,1.474-1.705,2.975-2.581,4.502c0,2.399,0,4.785,0,6.841c1.114,2.531,2.873,3.822,5.078,4.54
		c6.483,2.11,12.726,5.088,19.701,5.43c1.991,0.097,3.704,0.864,4.927,3.197c-0.115,1.504-0.195,3.406-0.415,5.292
		c-0.668,5.71-1.454,11.409-0.805,17.182c0.257,2.286-0.15,4.451-1.489,6.623c-2.387,1.737-4.607,4.091-7.644,5.174
		c-3.212-0.064-6.397-1.112-9.972,0.679c-0.907,0.683-2.277,1.714-3.538,2.662c0,4.785,0,9.243,0,13.726
		c0.83,0.661,1.483,1.536,2.321,1.786c3.797,1.132,7.619,2.213,11.485,3.067c3.257,0.72,6.503,1.306,9.637,2.592
		c4.568,1.874,9.343,3.089,14.313,3.394c1.418,0.086,2.818,0.435,4.232,0.613c3.775,0.475,7.561,1.358,11.329,1.291
		c7.974-0.143,15.855,0.518,23.74,1.549c5.859,0.766,11.743,1.132,17.364-1.326c3.756-1.643,6.893-4.1,8.169-8.144
		c0.487-1.541,0.957-2.952,1.874-4.293c1.084-1.588,1.598-3.388,0.854-5.601c-1.663,0-3.231-0.076-4.79,0.019
		c-2.06,0.125-4.108,0.436-6.167,0.573c-4.983,0.331-9.213-1.628-13.167-4.125c-0.698-3.435,1.731-6.063,0.977-8.934
		c3.911-1.921,7.426,0.435,11.03,0.234c1.668-1.639,2.571-3.315,0.903-5.68c-3.273-0.589-5.94-2.448-8.415-5.303
		c0.364-1.839,0.761-3.836,1.139-5.743c-0.347-1.259-1.061-1.974-2.204-2.421c-2.37-0.925-4.794-1.783-7.014-3.004
		c-4.612-2.536-9.099-5.298-11.09-10.472c-0.017-3.254,0.302-6.167,2.621-8.554c1.749,0.81,3.403,1.411,4.878,2.308
		c1.337,0.812,2.592,1.838,3.68,2.967c1.433,1.488,2.71,3.137,3.978,4.776c2.149,2.78,4.232,5.598,5.15,9.106
		c0.233,0.89,0.822,1.686,1.166,2.366c5.979,2.344,6.947,2.432,10.688,1.026c1.464-1.701,1.527-3.745,1.375-5.792
		c-3.883-5.275-5.046-8.025-2.236-18.072c-0.747-1.58-1.619-3.089-2.182-4.706c-0.622-1.787-0.458-3.494,1.763-4.566
		c1.841,0.35,3.874,0.44,5.759-0.64l-0.097-0.079c-0.814,1.707-1.627,3.415-2.785,5.845c-0.62,2.61-1.389,6.028-2.247,9.423
		c-1.315,5.202,0.056,9.451,4.306,12.734c-0.481,1.804-0.859,3.644-1.469,5.403c-0.747,2.151-2.778,3.407-5.294,3.301
		c-1.419-0.06-2.825-0.407-4.348-0.642c-2.097,1.79-1.775,4.172-1.671,6.319c1.475,2.383,4.334,1.624,6.21,3.648
		c1.701,2.492,0.806,5.046-0.951,7.401c-2.879,2.287-5.638-0.227-8.638,0.18c-1.516,2.276-1.222,4.966-1.182,7.773
		c3.299,1.354,6.344,2.771,10.087,2.253c5.683-0.787,11.396-0.478,17.114,0.281c3.924,0.521,7.931,0.523,11.901,0.524
		c1.523,0,3.047-0.646,4.123-0.895c2.746-2.79,3.828-5.672,3.749-9.053c-0.071-3.023,0.05-6.051-0.05-9.072
		c-0.156-4.718-2.265-8.544-5.56-11.838c-1.779,0-3.514-0.064-5.244,0.012c-4.637,0.207-9.214,0.004-13.597-1.747
		c-2.06-0.822-4.179-1.573-5.193-3.858c1.112,0.561,2.21,1.199,3.367,1.701c2.59,1.123,5.213,2.166,8.237,1.999
		c-1.238-5.24-2.294-10.172,0.166-14.84c1.843-1.222,3.525-1.335,5.175-0.368c1.786,1.047,2.578,2.777,2.741,4.782
		c0.077,0.947,0.081,1.937-0.106,2.862c-0.501,2.474-1.122,4.924-1.737,7.565c3.634,0.633,7.272,0.088,11.015-1.745
		c1.004-1.605,2.098-3.355,3.315-5.303c0.207-3.011,0.605-6.188,0.593-9.364c-0.012-3.381-1.208-6.54-2.571-9.608
		C167.812,130.333,168.445,130.503,168.828,130.91z M118.596,151.489c-2.298-3.044-4.564-6.115-6.971-9.07
		c-1.854-2.276-4.286-3.679-7.407-4.139c-1.613,2.343-1.798,4.681-0.291,7.081c2.039,3.25,7.159,6.766,11.724,7.981
		c-1.374-3.027-4.054-4.83-5.759-7.611c2.516,0.397,2.469,0.438,4.949,3.301c1.283,1.481,2.197,3.382,4.928,4.823
		C119.103,152.492,118.929,151.93,118.596,151.489z M132.907,130.115c0.968-0.285,0.983-0.332,1.021-3.011
		c-0.504-0.094-1.047-0.196-1.683-0.315C131.169,128.704,131.847,129.496,132.907,130.115z M27.223,128.413
		c0.782-1.376,0.543-2.69,0.343-4.009C25.891,126.579,25.891,126.579,27.223,128.413z M27.168,118.103
		c0.495,0.53,0.913,0.978,1.457,1.561C29.282,117.831,28.755,117.495,27.168,118.103z M27.731,131.785
		c0.025,0.002,0.07-0.218,0.105-0.336c-0.317-0.076-0.634-0.152-0.951-0.227c-0.029,0.14-0.057,0.28-0.086,0.42
		C27.109,131.696,27.418,131.757,27.731,131.785z"/>
	<path fill-rule="evenodd" clip-rule="evenodd" d="M67.363,100.292c-3.634-3.641-5.879-7.919-5.889-13.192
		c-0.004-1.919,0.1-3.838,0.074-5.757c-0.012-0.912-0.211-1.822-0.328-2.758c-1.791-0.232-3.344-0.433-4.793-0.621
		c-2.596-1.826-4.924-3.838-7.577-5.22c-2.401-1.251-4.171-2.842-5.293-5.234c-0.493-3.34-1.094-6.642-2.653-9.662
		c-0.695-1.348-0.983-2.686-0.272-4.63c1.405-1.074,3.152-2.41,5.037-3.85c0.081-1.352,0.164-2.747,0.237-3.965
		c1.224-2.959,4.543-3.024,6.247-5.009c-0.05-0.431-0.067-0.742-0.126-1.043c-0.062-0.313-0.208-0.612-0.244-0.926
		c-0.407-3.476,0.625-5.045,3.917-6.066c2.833-0.88,5.656-0.774,8.432,0.149c7.516,2.499,13.759,8.799,16.094,16.16
		c0.156-0.008,0.336,0.031,0.464-0.033c0.279-0.141,0.552-0.309,0.791-0.51c3.726-3.131,7.676-5.53,12.867-5.052
		c2.173,0.2,4.4-0.258,6.603-0.275c0.475-0.004,0.956,0.605,1.433,0.932l0.11-0.122c-4.406,0.449-8.812,0.899-14.088,1.437
		c-1.917,1.376-4.487,3.226-7.063,5.067c-1.681,1.203-3.389,2.367-5.05,3.596c-5.902,4.368-10.566,9.665-12.451,17.007
		c-0.237,0.923-0.497,1.868-0.531,2.811c-0.16,4.451-0.184,8.908-0.371,13.357c-0.253,6.007,2.784,10.29,7.029,13.98
		c0.94,0.818,1.897,1.616,2.846,2.422l0.084-0.114c-1.146,0.037-2.292,0.075-3.439,0.112
		C69.54,101.733,68.238,101.169,67.363,100.292z M44.961,66.463c0.494,1.76,1.528,3.096,3.09,4.082
		c2.145,1.353,4.307,2.7,6.317,4.242c2,1.535,4.146,2.151,6.827,1.975c1.231-4.133,1.319-8.544,3.629-12.301
		c2.176-3.539,4.254-7.12,7.919-9.777c-2.455-2.394-4.942-4.3-8.22-4.513c-2.987-0.194-6.03-0.092-8.385,2.574
		c0.569,1.2,1.101,2.323,1.665,3.513c-0.306,1.398-0.61,2.791-0.84,3.84c0.244,2.708,0.457,5.075,0.682,7.584
		c0.723,0.688,1.522,1.446,2.459,2.337c-0.485,0.182-0.867,0.465-1.223,0.435c-1.414-0.118-2.181-1.162-3.068-2.48
		c0.041-3.545-0.88-7.351,0.476-11.34c-0.567-1.231-1.214-2.639-1.917-4.167c2.556-3.358,5.946-4.092,9.742-4.001
		c3.924,0.094,6.614,2.924,10.314,4.509c1.22-0.776,2.64-1.678,3.837-2.439c0.732-4.207-1.664-6.769-3.832-9.242
		c-2.64-3.011-5.952-5.228-9.643-6.865c-3.587-1.591-7.066-1.518-10.758,0.396c-0.296,0.464-0.715,1.121-1.221,1.914
		c0.521,1.319,1.036,2.623,1.621,4.105c-0.396,0.436-0.721,1.063-1.227,1.304c-1.995,0.951-4.182,1.56-5.728,3.657
		c-0.159,1.372-0.341,2.94-0.545,4.696c-1.715,1.23-3.481,2.497-5.338,3.829C42.833,58.806,43.885,62.638,44.961,66.463z"/>
	<path fill-rule="evenodd" clip-rule="evenodd" d="M4.559,0.036c-0.144,0.877-0.407,1.752-0.415,2.63
		c-0.072,8.479-0.197,16.959-0.111,25.437c0.057,5.593,0.618,11.182,0.625,16.772c0.008,7.177,0.38,14.369-0.758,21.528
		c-0.55,3.46-0.781,6.996-0.848,10.504c-0.191,9.922-0.238,19.846-0.304,29.77c-0.014,2.073,0.229,4.149,0.18,6.22
		c-0.091,3.831-0.427,7.658-0.456,11.489c-0.12,15.833-0.766,31.664-0.191,47.499c0.128,3.512,0.432,7.016,0.591,10.528
		c0.359,7.892-1.184,15.611-2.254,23.362c-1.065,7.71-0.755,15.318,0.924,22.891c0.055,0.25,0.386,0.438,0.587,0.653
		c1.013-0.12,0.714-0.906,0.663-1.407c-0.197-1.909-0.384-3.829-0.762-5.708c-1.125-5.595-0.509-11.144,0.216-16.711
		c0.64-4.914,1.407-9.829,1.683-14.768c0.285-5.105,0.298-10.255-0.019-15.357c-0.645-10.386-0.503-20.749-0.216-31.143
		c0.397-14.386,0.305-28.785,0.419-43.178c0.07-8.802,0.052-17.607,0.24-26.406c0.069-3.186,0.646-6.361,0.95-9.544
		c0.274-2.861,0.729-5.732,0.684-8.591c-0.106-6.712,0.146-13.427-0.643-20.137c-0.465-3.953-0.263-7.994-0.231-11.994
		c0.06-7.513-0.54-15.043,0.528-22.535C5.726,1.245,5.551,0.614,5.497,0C5.184,0.012,4.871,0.024,4.559,0.036z"/>
	<path fill-rule="evenodd" clip-rule="evenodd" d="M151.147,44.628c-1.196-1.69-3.141-0.953-4.712-1.386
		c-1.187-0.326-2.516-0.112-3.513-1.438c-0.7-2.172,1.889-4.389,0.176-6.929c-0.373-0.126-1.002-0.573-1.53-0.475
		c-2.368,0.441-4.619,0.099-6.982-0.285c-6.317-1.026-10.993,1.998-14.512,6.981c-1.256,1.778-2.052,3.884-3.174,6.065
		c-0.563,0.116-1.321,0.272-2.08,0.428l0.094-0.143c3.646,2.701,8,3.956,11.999,5.936c0.121,0.06,0.306-0.013,0.462-0.025
		c-0.012-0.364-0.024-0.727-0.036-1.09c-2.856-1.262-5.959-2.025-8.388-3.971c0.396-3.309,1.026-5.246,2.673-7.162
		c2.299-2.675,4.916-4.969,8.54-6.089c3.797,0.097,7.635,1.363,11.604,1.045c0.183-0.015,0.399,0.396,0.665,0.679
		c0.028,1.966-1.707,3.831-0.514,6.119c0.99,1.183,2.468,1.593,4.118,1.608c1.739,0.016,3.478,0.048,5.218,0.072L151.147,44.628z"/>
	<path fill-rule="evenodd" clip-rule="evenodd" d="M114.821,47.588c-1.523-1.216-3.046-2.432-4.835-3.86c-2.361,0-4.981,0-7.601,0
		l0.11-0.122c0.39,0.862,1.187,0.973,1.968,0.99c1.727,0.04,3.455,0.013,4.886,0.013c2.947,2.36,2.947,2.36,5.565,2.836
		L114.821,47.588z"/>
	<path fill-rule="evenodd" clip-rule="evenodd" d="M157.825,53.299c-0.479-0.567-0.846-1.369-1.455-1.661
		c-2.569-1.234-4.145-3.089-4.399-6.017c-0.031-0.352-0.538-0.662-0.824-0.992l0.108-0.06c0,1.418,0,2.836,0,3.677
		c1.667,3.149,3.936,4.429,6.706,4.967L157.825,53.299z"/>
	<path fill-rule="evenodd" clip-rule="evenodd" d="M147.309,203.062c0.081,1.671,0.518,3.376-0.462,4.948
		C149.529,206.601,149.625,205.577,147.309,203.062z"/>
	<path fill-rule="evenodd" clip-rule="evenodd" d="M146.376,199.193c-0.099,1.481-0.347,3.002,1.061,4.088
		C147.367,201.845,147.725,200.295,146.376,199.193z"/>
	<path fill-rule="evenodd" clip-rule="evenodd" d="M157.855,56.123c1.317-1.284,1.316-1.379-0.03-2.825l0.136-0.086
		c-0.006,0.99-0.013,1.98-0.019,2.971L157.855,56.123z"/>
	<path fill-rule="evenodd" clip-rule="evenodd" d="M137.839,124.383c0.277-0.117,0.555-0.234,1.054-0.445
		c0.219-1.47-0.281-2.767-1.607-3.555c-3.141-1.865-6.378-3.538-9.937-3.881c-2.68,1.796-5.141,3.445-7.725,5.177
		c0.502,1.284,0.897,2.293,1.477,3.775c0.084,1.037-1.007,2.494-0.194,4.146c0.611,1.244,0.777,2.709,1.187,4.25
		c0.962,0.839,2.037,1.778,3.186,2.78c1.321,0.332,2.702,0.679,4.268,1.073c0.388-0.318,0.835-0.685,1.457-1.196
		c-2.397-1.443-5.37-0.694-7.163-3.198c-0.441-1.486-0.967-3.26-1.667-5.617c0.087-0.262,0.384-1.153,0.763-2.294
		c-0.4-0.975-0.874-2.129-1.366-3.329c0.317-0.384,0.543-0.874,0.922-1.08c1.669-0.908,3.381-1.735,5.245-2.675
		c3.392-0.078,6.111,1.999,9.112,3.454c0.375,0.933,0.729,1.813,1.084,2.694C137.936,124.462,137.839,124.383,137.839,124.383z"/>
	<path fill-rule="evenodd" clip-rule="evenodd" d="M72.9,103.171c1.613,2.318,4.229,3.271,6.574,4.334
		c3.725,1.689,7.643,3.094,11.615,4.048c4.91,1.179,9.985,1.644,14.939,2.663c3.79,0.78,7.562,0.807,11.358,0.458
		c2.603-0.24,4.866-1.202,6.087-3.777l0.034,0.041c-0.595,0.132-1.352,0.074-1.757,0.426c-2.603,2.262-5.698,2.729-8.928,2.492
		c-2.68-0.196-5.368-0.518-8.004-1.035c-4.97-0.976-10.128-0.953-14.933-2.787c-2.214-0.845-4.342-2.023-6.623-2.564
		c-2.847-0.676-5.317-1.974-7.782-3.437c-0.767-0.455-1.769-0.511-2.663-0.749L72.9,103.171z"/>
	<path fill-rule="evenodd" clip-rule="evenodd" d="M141.49,138.766c-0.571,0.974-1.013,1.729-1.578,2.694
		c0.716,0.668,1.335,1.245,1.977,1.844c0.552-0.397,1.072-0.576,1.239-0.925C143.812,140.95,143.689,139.711,141.49,138.766z"/>
	<path fill-rule="evenodd" clip-rule="evenodd" d="M162.087,145.634c1.086-1.661,0.745-2.71-0.501-3.914
		c-0.615,0.17-1.387,0.382-2.449,0.675c0.401,1.128,0.694,1.952,1.01,2.842C160.787,145.369,161.36,145.486,162.087,145.634z"/>
	<path fill-rule="evenodd" clip-rule="evenodd" d="M105.955,101.756c0.048-0.019,0.096-0.038,0.143-0.057
		c-0.141-0.355-0.282-0.711-0.424-1.074c0.442,0.125,0.884,0.258,1.076,0.316c2.203-2.109,4.157-4.21,6.348-6.024
		c3.684-3.051,7.849-2.957,12.082-1.31c0.519,0.202,0.857,0.875,1.192,1.236c-0.744,6.989-4.413,11.564-10.643,13.236
		c-3.213,0.862-6.444,1.65-9.849,0.872c-1.198-0.274-2.51-0.044-4.041-0.044c-0.908-0.354-2.073-0.808-2.935-1.144
		c-0.921-1.291-1.61-2.341-2.384-3.323c-2.371-3.008-3.53-6.307-2.938-10.216c0.452-2.982,0.622-6.007,0.929-9.011
		c0.22-2.159,1.064-4.05,2.823-5.328c1.582-1.15,3.374-1.76,5.297-0.981c2.354,2.764,2.898,3.466,3.375,6.725
		c0.733,5.003,1.85,10.063-0.342,15.019C105.761,101.016,105.858,101.386,105.955,101.756z M110.055,104.394
		c1.467-0.949,2.886-1.985,4.413-2.822c0.553-0.303,1.36-0.138,2.679-0.231c-2.148,2.804-5.239,3.285-7.38,5.532
		c8.701-0.303,13.345-3.939,14.667-11.377c-2.627-1.346-5.559-1.55-8.132-0.419c-4.269,1.876-7.372,5.163-9.114,9.621
		C108.441,105.434,109.252,104.912,110.055,104.394z"/>
	<path fill-rule="evenodd" clip-rule="evenodd" d="M127.229,52.397c1.466-0.931,2.933-1.861,4.693-2.978
		c2.417,1.477,5.285,2.163,8.128,1.999c4.993,4.059,6.466,8.914,4.41,14.687c-1.545,0.665-3.278,1.412-5.184,2.232
		c-1.113-1.18-2.273-2.41-3.433-3.639c0.682,2.678,1.957,5.013,3.957,6.929c0.024-0.477,0.048-0.954,0.084-1.646
		c1.725-1.623,4.752-1.52,6.434-4.434c0.182-0.641,0.528-1.859,0.892-3.14c-1.047-4.309-1.712-8.802-6.175-11.784
		c-2.767-0.711-6.368-0.2-8.669-3.287C130.007,48.766,127.895,49.815,127.229,52.397z"/>
	<path fill-rule="evenodd" clip-rule="evenodd" d="M121.205,82.008c1.562-1.185,1.519-2.453,0.797-3.844
		c-1.237-1.109-2.558-0.859-4.18-0.337c0,0.885-0.252,1.851,0.056,2.576C118.402,81.634,119.532,82.219,121.205,82.008z"/>
	<path fill-rule="evenodd" clip-rule="evenodd" d="M81.518,77.163c-0.054-0.826-0.113-1.722-0.184-2.803
		c-1.052-0.408-2.014-0.781-3.235-1.255c-0.501,0.962-0.905,1.738-1.265,2.429C78.846,78.226,78.846,78.226,81.518,77.163z"/>
	<path fill-rule="evenodd" clip-rule="evenodd" d="M135.988,64.904c-0.871-3.118-2.068-6.03-4.932-7.889
		C132.17,59.98,133.698,62.683,135.988,64.904z"/>
	<path fill-rule="evenodd" clip-rule="evenodd" d="M131.221,57.196c-0.55-2.123-1.899-3.442-3.991-4.014
		C127.978,55.106,129.166,56.586,131.221,57.196z"/>
	<path fill-rule="evenodd" clip-rule="evenodd" d="M170.682,133.365c0.967-0.44,1.934-0.88,2.905-1.321
		c1.697,1.038,2.946,2.065,2.608,4.395c-1.079,0.181-2.098,0.353-3.114,0.524c0.111,0.258,0.151,0.639,0.327,0.719
		c1.485,0.681,2.976,1.077,4.472-0.495c0.636-2.477-0.478-4.414-2.53-5.887c-0.599-0.43-1.487-0.691-2.215-0.639
		c-0.868,0.062-1.705,0.543-2.798,0.929c0.18,0.764,0.309,1.311,0.452,1.87C170.804,133.471,170.682,133.365,170.682,133.365z"/>
</g>
</svg>
