<svg xmlns="http://www.w3.org/2000/svg" viewBox="0 0 368.119 191.6" enable-background="new 0 0 368.119 191.6"><path opacity=".2" fill="#fff" d="M152.015 155.12l-.516.044c-1.013-.656-2.209-1.044-3.484-1.044h-.5c-3.543 0-6.5 2.957-6.5 6.5 0 .606.093 1.194.254 1.755-.346 3.479 1.733 7.245 6.246 7.245 1.781 0 3.18-.591 4.204-1.515l.296.015c8.383 0 8.383-13 0-13z"/><g fill-rule="evenodd" clip-rule="evenodd" fill="#fff"><path opacity=".2" d="M183.993 84.606c.431-5.701-1.727-10.767-4.55-16.047-3.746-7.007-8.133-13.342-12.837-19.741-9.474-12.891-16.546-27.292-22.275-42.185-2.977-7.74-15.55-4.382-12.535 3.455l.344.87c-.041.221-.098.429-.124.663-.498 4.494-.148 8.971-.069 13.477.056 3.169.062 5.681-2.058 7.629-.201.185-.384.372-.56.558-3.231-1.558-6.745-2.012-10.394-2.262-3.84-.262-6.649-.945-9.424-2.854 1.712-3.768 3.264-7.505 3.72-11.809.103-.965-.101-1.884-.506-2.716-.704-2.439-2.698-4.451-5.994-4.451-.531 0-1.026.057-1.49.154-.398-.1-.807-.177-1.225-.227-8.649-1.027-16.858-1.469-24.28 3.888-2.434 1.756-3.791 4.575-2.975 7.393-.993.545-1.975 1.093-2.943 1.611l.319.017-.383.018c-.446.237-.889.468-1.328.689.674-.345 1.021-.56 1.178-.684-1.069.039-2.142.057-3.208.118-.525.03-1.037.091-1.552.143-5.173-1.626-9.97-.764-13.69 4.344-.313.43-.619.858-.923 1.284-.537.415-1.071.839-1.588 1.303-1.913 1.715-3.521 3.8-4.88 6.007-2.511 1.891-5.547 3.281-8.278 4.693-5.598 2.894-12.498 5.785-15.425 11.764-1.575 3.217-3.023 5.071-6.013 7.108-1.591 1.084-3.089 2.278-4.396 3.689-.149.161-.339.421-.553.716l-.633.239c-2.985-.366-5.323.399-7.633 2.565-4.188 3.927-3.744 12.484-4.702 17.607-.521 2.782.582 5.02 2.324 6.444.361 2.015.839 4.006 1.466 5.951.292.904 2.017 5.196 2.579 6.533.468 1.38.858 2.791 1.284 4.18 2.354 7.685 5.65 14.765 11.335 19.647-2.889 3.724-1.26 10.733 4.897 10.733 3.604 0 5.652-2.402 6.158-5.142 10.52 2.424 20.401-3.181 26.646-11.369 1.508.487 3.077.841 4.695 1.011 4.658.49 8.551-1.513 11.553-4.556.396-.04.734-.065.953-.066 2.379-.011 4.759.189 7.126.398 1.072.095 7.92.958 4.118.44 2.906.393 5.81.796 8.718 1.163-4.389-.555.534.438 2.625.964l.056.027c1.287.658 2.486 1.489 3.683 2.292l.939.675 1.698 1.345c9.22 7.318 18.236 14.351 29.241 18.751 12.167 4.865 23.708 2.127 33.476-6.118 7.232-6.105 11.532-16.116 14.562-24.803 2.846-8.156 5.875-18.68 3.731-27.526z"/><path opacity=".2" d="M73.686 21.98c.145-.152-.148-.066 0 0z"/><path opacity=".2" d="M73.817 22.013l-.131-.032-.083.073.15-.006.064-.035z"/></g><path d="M261.579 44.912c4.508-1.414 5.675-5.561 8.463-7.807 1.232-4.261 1.635-8.618 4.252-12.503l2.678.846c-1.105 6.097-3.669 11.691-3.442 17.95 3.394-.953 4.8-2.165 7.948-6.61.968-8.23 3.003-16.435 6.002-24.387 1.012-2.682 2.283-5.27 3.5-7.871.757-1.616 1.81-3.014 3.564-3.864 1.858-.566 3.695-.584 5.361 1.061 1.145 2.212.715 4.546-.029 6.859-1.764 5.49-4.01 10.786-6.741 15.86-2.346 4.358-4.832 8.64-7.387 13.188-.073 2.238.187 4.508 2.824 5.91 3.809-1.479 4.56-5.626 7.326-8.329l2.444 1.318c-1.283 4.17-3.754 7.166-6.591 9.582-4.51 1.735-6.788-1.331-9.341-3.718-2.662.911-3.984 3.975-7.153 4.018-2.886-.675-2.886-.675-5.492-2.694l-4.43 3.545c-.589.125-1.208.358-1.833.372-4.885.108-7.61-3.451-6.223-8.162.314-1.065.887-2.052 1.312-3.086.599-1.456 1.169-2.922 1.771-4.435l-1.279-1.385c-.54.087-.938.031-1.14.204-.723.619-1.444 1.261-2.049 1.992-2.898 3.51-6.452 6.176-10.639 8.316-.699 1.101-1.501 2.288-2.229 3.521-2.722 4.609-6.5 6.934-12.152 5.605l-2.364-1.886c-.381.266-.786.393-.86.624-.866 2.735-1.726 5.475-2.505 8.235-1.43 5.062-2.8 10.142-4.222 15.206-.076.272-.411.473-.703.791-1.301.602-2.355.307-3.204-1.394l5.237-19.636c-2.509.058-4.699.34-6.815.061-1.119-.147-2.109-1.272-2.927-1.806-1.575-4.326-.807-8.245.132-12.449-.766-.187-1.468-.463-2.184-.509-1.266-.081-2.54-.022-3.855-.022-2.557 2.704-5.089 5.354-7.588 8.035-2.45 2.628-5.447 4.491-8.713 5.816-4.013 1.63-8.068 2.03-11.964-1.136-.398-.814-.928-1.793-1.355-2.814-.243-.579-.329-1.226-.467-1.846-.861-3.875 4.64-11.564 10.182-11.391 2.151.067 3.963.716 4.846 2.868-1.52 1.628-2.869-.336-4.205.211-6.853 3.011-8.696 6.717-5.885 12.019 1.995.774 4.022.471 5.975-.35 1.613-.678 3.268-1.361 4.706-2.335 3.587-2.426 6.604-5.475 9.296-9.011l-3.635-1.911c.177-1.533 1.162-1.798 2.098-1.873 1.404-.113 2.824-.029 4.485-.029 6.542-9.365 11.873-19.513 17.232-29.914l2.625.992c.129.606.309.94.243 1.217-2.515 10.56-5.073 21.107-7.569 31.671-.661 2.796-1.226 5.621-1.656 8.46-.155 1.021.209 2.123.318 3.036 2.049 1.127 3.415.315 4.545-.901 2.729-2.936 4.951-6.233 6.438-9.969.707-1.776 1.154-3.654 1.792-5.461.311-.88.788-1.7 1.27-2.716l2.965.626-.994 5.757c3.48-2.472 5.713-5.799 9.424-7.022 2.61.145 2.614.141 4.888 1.95l1.099 4.043c3.298-1.303 5.008-4.001 7.164-6.519-2.143-1.743-3.969-3.52-4.478-6.354.349-5.862 3.204-10.352 7.94-12.311 1.749.093 2.995 1.082 3.833 2.509.905 1.544 1.33 3.269.979 5.076-.306 1.567-.668 3.127-1.068 4.675-.359 1.39-.805 2.757-1.295 4.411l3.477 3.126c1.053 1.58.586 3.271-.114 4.925-.622 1.471-1.327 2.908-2.017 4.351-.816 1.698-.754 3.359.158 5.578zm34.554-40.926c-3.372 4.425-7.666 15.731-7.995 21.045 3.932-5.233 5.849-10.947 7.87-16.593.438-1.226 1.238-2.577.125-4.452zm-53.871 28.776c-4.535 2.252-7.186 5.699-9.897 9.287.521.088.868.265 1.101.168 2.779-1.15 5.543-2.342 8.234-3.49.88-1.832 1.151-3.493.562-5.965zm13.19-7.471c.322-.155.729-.213.848-.429 1.48-2.701 2.097-5.653 2.265-8.687.034-.62-.546-1.274-.931-2.103-2.459 2.274-3.748 4.743-4.125 7.696.379 1.351.268 2.941 1.943 3.523zm-41.576 8.782l2.931-12.264c-3.648 4.177-5.368 8.201-7.96 12.264h5.029zm23.769 10.82c-2.051-.26-3.301.551-4.839 2.41 2.309-.184 3.784-.505 4.839-2.41zm89.537.61c1.996-.854 2.807-2.612 3.526-4.394 2.087-5.166 3.616-10.454 3.481-16.434-1.472.248-2.672.586-3.882.623-1.574.048-3.209.078-4.723-.283-2.386-.569-3.735-2.306-4.179-4.722-1.18-6.432 2.535-13.496 8.509-16.182 2.096-.942 2.096-.942 5.695-.542 2.079 1.887 2.826 4.498 2.844 7.236.039 6.368.424 12.742-.556 19.1-.638 4.134-1.783 8.078-3.364 11.923-1.257 3.056-3.046 5.61-6.964 6.856.297-.061-.016.062-.326.059-6.803-.092-9.703-3.182-9.028-9.842.221-2.176.284-4.476 1.864-6.584l2.528.687c.15 2.183-.298 4.044-.706 5.885-.402 1.812-.143 3.477.661 5.131 1.216 1.526 2.79 1.976 4.62 1.483zm7.241-24.717c-.019-4.902.966-9.626-.781-14.258-6.776 1.658-9.777 7.562-7.786 15.089 2.758 1.654 5.382.747 8.567-.831zm31.58.627h-2.066c-1.577-2.351.268-4.91-.935-7.161l-1.636.178-.742 7.285-2.606-.326c-.852-5.75-.399-13.825 1.047-18.472l2.362-.311.106 8.097 1.522.251c.345-.763.913-1.556 1.051-2.418.299-1.881.417-3.794.536-5.699.074-1.19.381-2.185 1.746-2.836l1.329.406c1.038 1.355-.074 13.663-1.714 21.006zm-130.405 45.347c3.16-2.955 3.225-7.2 5.728-10.523.484.848.953 1.317 1.004 1.829.109 1.104.075 2.237-.024 3.348-.352 3.969-.756 7.934-1.161 12.123l-1.033.669c-1.385-2.835.085-5.734-.564-8.703-2.849 1.463-2.321 4.78-4.064 7.156-.545-.686-1.078-1.068-1.197-1.555-.572-2.313-1.033-4.654-1.632-7.447-2.22 3.045-.911 6.385-1.773 9.24l-1.269-.271c-1.013-4.251.287-8.452.751-12.676.093-.848.686-1.641 1.179-2.755 2.923 2.615 2.641 6.249 4.055 9.565zm70.827-2.046c-1.274 2.424.502 5.021-1.263 7.026-.069.079-.307.01-.461.01-1.046-3.892-.741-11.272.729-16.033 3.115 3.324 2.093 8.293 5.073 11.835.77-4.424-.114-8.684.99-12.839.517.261.947.355.97.508.772 5.38-.138 10.752.242 16.296l-2.185.876c-2.355-2.13-2.074-5.462-4.095-7.679zm32.806-13.799c.61 1.634 1.268 2.642 1.331 3.685.346 5.736.559 11.482.77 17.226.013.365-.375.746-.685 1.319-1.858-1.03-.798-3.104-2.019-4.386h-2.546c-.58.85-1.933 2.18-2.457 2.443.151-3.781 3.483-16.322 5.606-20.287zm-.436 15.601c.107-1.93.271-3.475.235-5.016-.013-.556-.505-1.101-1.213-2.526-.205 3.123-1.442 5.066-1.064 7.382l2.042.16zm-75.057 7.562c-1.489-3.332-.599-6.336-.433-9.278.17-2.994.609-5.973.963-9.264 2.178-.818 4.127-.593 5.754 1.328 1.172 2.988-.364 5.242-1.865 7.374l1.912 3.719c-.709 3.564-2.516 5.616-6.331 6.121zm4.63-16.71h-2.475l-.35 5.465c2.695-.996 3.254-2.667 2.825-5.465zm-3.13 13.939c2.84-1.484 2.921-1.702 1.727-4.474h-1.409c-.754 1.473-.836 2.923-.318 4.474zm83.826-51.094l-3.254-1.047c-1.009-4.08 1.229-7.823.07-11.618l-4.079-1.134-.312-1.787c3.928-.694 7.77-1.449 11.642-1.99.756-.105 1.628.622 2.496.986-1.145 2.717-3.98 1.208-5.716 3.043-.879 3.941-.505 8.373-.847 13.547zm-51.95 53.193l-2.05-5.168-1.539 4.081c-.495-.45-.882-.636-.889-.834-.117-3.5.963-12.969 1.764-15.672 1.566-1.086 3.256-.591 5.259-.328l1.409 3.318c-.506 3.481-2.729 5.275-4.372 7.617l1.754 5.68 2.849.146-1.284 1.858-2.901-.698zm-2.167-8.809c4.084-3.023 4.397-3.667 3.775-7.322-.944-.713-1.908-1.095-3.166.035l-.609 7.287zm53.562 5.958c1.979-3.199 1.85-6.48 2.421-9.562.571-3.079.885-6.205 1.301-9.241 1.071-.094 1.487.366 1.434 1.073-.159 2.062-.328 4.129-.641 6.171-.505 3.302-1.084 6.596-1.719 9.876-.354 1.833-1.268 3.265-3.501 3.555-1.984-.937-2.201-2.924-2.298-4.781-.124-2.382.052-4.781.149-7.171.091-2.214.225-4.428.399-6.637.028-.361.362-.699.835-1.558.968 2.444.608 4.483.586 6.477-.022 1.913-.172 3.829-.094 5.738.079 1.926-.577 4.055 1.128 6.06zm-64.663-13.625c1.666 4.502-.223 9.276 1.48 14.378.704-.835 1.28-1.207 1.372-1.675.732-3.738 1.331-7.503 2.071-11.239.161-.818.72-1.559 1.212-2.575 1.094 1.748.537 3.151.291 4.511-.481 2.655-1.082 5.29-1.587 7.941-.393 2.063-.945 3.996-3.089 5.127-1.483-.97-2.557-2.116-2.72-3.79-.413-4.249.188-8.445.97-12.678zm33.014-1.432c1.903-1.526 4.011-1.432 6.168-.795.127.984-.349 1.27-1.057 1.337-1.078.103-2.156.203-3.436.322-.333 2.42-.533 4.588-.02 7.013l3.528.864c-.603 1.924-2.371.91-3.281 1.729-.561.909-.561.959.12 5.347h4.892c-.967.873-1.306 1.41-1.766 1.553-1.527.472-3.101.777-4.682.228-1.086-3.722-1.29-11.339-.466-17.598zm-42.258 18.552c-3.018-3.972-1.825-8.314-1.049-12.441.411-2.184 1.163-4.746 4.26-5.31.332.601.799 1.106.897 1.677.691 3.984.667 7.963-.428 11.884-.529 1.898-1.488 3.484-3.68 4.19zm.994-2.987c2.068-3.335 2.415-7.276 1.029-11.707-2.367 3.623-2.787 8.396-1.029 11.707zm-29.051-13.499c1.704-.675 3.141-.875 4.642.005-.621 1.907-2.306 1.1-3.275 1.76-.177.26-.48.507-.508.782-.213 2.037-.371 4.08-.561 6.282l3.212.819c-.082 1.987-2.27.928-2.922 2.456v1.702l5.559.26c-1.017.814-1.383 1.348-1.818 1.413-1.712.26-3.438.798-5.145.24-1.291-4.261-.946-11.53.816-15.719zm8.989.559l1.415-.385c1.016 4.397-.256 8.884.418 13.261l2.822.794-.551 1.237-3.235.251c-.344-.51-.914-.987-.987-1.532-.189-1.414-.231-2.859-.203-4.289.059-3.022.202-6.041.321-9.337zm20.156-42.714l1.432-1.324 2.353 1.852-1.84 1.389c-1.298-.179-2.146-.461-1.945-1.917zm50.577 59.568c.55-1.542 1.034-3.118 2.677-4.848.391 2.643-.347 4.114-1.865 5.27-.091.068-.466-.237-.812-.422z" opacity=".6" fill-rule="evenodd" clip-rule="evenodd"/><path opacity=".6" fill-rule="evenodd" clip-rule="evenodd" d="M112.531 12.677c-.821 4.725-4.896 7.826-7.244 12.144.412.482.709 1.139 1.2 1.356 6.127 2.717 12.28 5.377 18.436 8.027.571.246 1.21.335 1.958.533 2.54-2.483 4.423-5.459 6.271-8.389.773-1.228.673-3.057.791-4.626.07-.933-.141-1.906-.339-2.837-.825-3.885-.681-7.606 1.495-11.099.583-.938.913-2.033 1.431-3.221l1.908-1.148c.521.139 1.031.163 1.418.395 1.837 1.097 3.22 2.621 3.983 4.638.733 1.938 1.564 3.858 2.075 5.856 1.087 4.252 2.764 8.155 5.854 11.352 2.432 2.516 3.786 5.579 4.045 9.009.331 4.399 2.419 7.839 5.227 11.037 4.11 4.683 8.119 9.456 12.191 14.173 3.811 4.416 6.488 9.438 8.317 14.969.851 2.573 1.984 5.054 3.012 7.567 1.747 4.271 1.723 8.486.962 13.102-1.29 7.835-4.702 14.906-7.011 22.355-1.105 3.567-3.414 6.853-5.606 9.963-1.737 2.464-3.788 4.703-5.33 7.341-1.972 3.375-4.774 5.975-8.23 7.761l-9.515 4.47-3.443-.639c-3.297.18-6.475.354-9.81.535-3.035-1.989-6.17-3.901-9.143-6.038-2.458-1.766-4.594-3.847-6.294-6.472-2.305-3.558-5.583-6.121-10.146-7.643h-5.006c-1.092-1.058-2.471-1.995-3.312-3.283-2.253-3.451-5.21-6.003-8.848-7.85-.706-.358-1.35-.842-1.896-1.188-3.463-.809-6.761-.913-10.135-.336-3.299.564-6.69.622-9.963 1.286-2.79.565-5.484 1.635-8.193 2.562-2.474.848-4.459 2.354-6.104 4.438-3.102 3.93-7.121 6.295-12.21 6.746-4.998.443-9.692 1.959-13.959 4.602-2.013 1.247-4.131 1.604-6.642 1.515-4.954-1.589-6.944-5.351-7.047-10.517-.106-5.352-1.314-10.36-4.381-14.925-3.205-4.771-6.059-9.774-9.104-14.652-2.629-4.208-3.932-8.713-3.204-14.15 1.23-2.968 2.762-6.305 4.001-9.748 1.625-4.518 4.724-7.494 9.025-9.352 1.319-.568 2.673-1.066 4.034-1.526 2.284-.771 4.362-1.817 6.316-3.307 1.473-1.123 3.351-1.885 5.167-2.348 4.089-1.045 6.854-3.491 8.109-7.402 1.274-3.975 3.723-7.01 6.717-9.73.708-.644 1.56-1.187 2.103-1.948 3.837-5.389 9.168-9.332 13.449-14.116 3.688-1.455 6.589.773 9.389 1.701 2.262-.077 3.487-1.427 4.943-2.405.693-1.283 1.446-2.513 2.04-3.815 1.24-2.721 3.251-4.661 5.728-6.275 2.179-1.419 4.299-2.656 7.07-2.399 1.239.114 2.522-.414 3.793-.463 2.069-.08 4.178-.239 6.208.055 3.469.502 6.895 1.306 10.328 2.031 1.262.264 2.494.666 3.121 2.328zm25.003 133.075c-.373-7.169.661-8.829 6.148-10.571 5.085 1.598 5.854 2.78 5.19 7.912-.094.73-.089 1.473-.125 2.134.477.136.66.257.77.209 3.326-1.44 6.65-2.887 9.959-4.367.426-.19.755-.588 1.145-.866 2.382-1.702 4.165-3.94 5.807-6.328 1.716-2.496 3.502-4.944 5.278-7.398 2.732-3.778 4.983-7.796 6.247-12.32.387-1.383.669-2.83 1.287-4.107 2.394-4.938 3.559-10.218 4.81-15.515.891-3.769.641-7.253-.73-10.773-1.276-3.275-2.513-6.565-3.779-9.845-2.094-5.42-5.018-10.297-8.934-14.643-4.276-4.747-8.315-9.708-12.44-14.591-2.109-2.496-3.552-5.296-3.846-8.617-.351-3.961-1.914-7.391-4.635-10.292-2.693-2.873-4.214-6.29-5.147-10.109-.639-2.611-1.771-5.119-2.861-7.595-.57-1.292-1.424-2.54-3.469-2.63-.69 1.255-1.49 2.612-2.198 4.015-1.326 2.629-2.017 5.288-1.164 8.312.511 1.812.536 3.812.471 5.716-.047 1.388-.28 2.954-.986 4.098-1.831 2.966-3.969 5.743-6.052 8.691-1.234-.134-2.387-.062-3.401-.398-6.383-2.122-12.461-4.972-18.468-7.97-1.447-.723-2.737-1.709-2.737-3.567 1.843-4.237 6.343-6.851 7.138-11.76-.565-.247-.975-.533-1.419-.604-6.725-1.069-13.322-3.585-20.307-1.782-.756.195-1.585.108-2.099.137-4.794 1.874-8.167 4.869-10.127 9.354-1.317 3.015-3.631 4.768-6.949 5.573-2.862-.268-5.101-3.301-8.931-2.282-3.38 4.055-8.302 7.217-11.636 12.013-1.076 1.549-2.589 2.815-3.987 4.117-2.729 2.543-4.97 5.364-6.149 8.993-1.375 4.231-4.163 7.128-8.588 8.224-2.374.587-4.394 1.806-6.383 3.185-1.424.986-3.031 1.734-4.621 2.444-1.6.715-3.268 1.287-4.928 1.857-3.904 1.343-6.349 4.136-7.91 7.835-.932 2.209-1.807 4.445-2.829 6.612-2.718 5.756-1.878 11.149 1.441 16.372 3.172 4.991 6.233 10.054 9.432 15.027 2.846 4.426 4.384 9.236 4.276 14.475-.08 3.961 1.221 7.159 4.195 9.677 2.505.673 4.793.586 6.986-.812 4.528-2.888 9.521-4.353 14.844-4.955 4.291-.486 7.979-2.344 10.631-5.853 2.531-3.349 6.051-5.333 9.847-6.526 8.609-2.707 17.485-3.496 26.595-2.791 2.664 1.778 5.537 3.299 7.906 5.391 2.35 2.073 4.19 4.724 6.295 7.168 4.496-.524 8.352.896 11.64 3.647 1.817 1.521 3.274 3.473 4.888 5.235 1.177 1.284 2.285 2.637 3.528 3.854 3.1 3.035 6.893 5.065 11.081 7.59z"/><path opacity=".6" fill-rule="evenodd" clip-rule="evenodd" d="M167.933 147.829c-1.693-.615-3.165-1.15-5.079-1.847.781-.626 1.249-1.26 1.852-1.441 3.208-.957 6.429-1.891 9.685-2.662 5.418-1.285 10.194-3.817 14.299-7.488 5.781-5.173 12.318-9.221 19.287-12.396 6.98-3.182 14.4-5.188 22.188-5.497 12.611-.499 23.579 3.36 32.629 12.233 4.12 4.041 6.343 8.851 6.772 14.833.874 12.198-3.801 22.132-11.437 31.047-3.232 3.773-6.939 7.001-11.211 9.658-5.542 3.448-11.556 5.368-17.887 6.53-13.128 2.41-25.069-.732-35.994-8.013-5.672-3.779-10.027-8.915-13.388-14.84-3.073-5.418-5.998-10.919-9.059-16.344-.774-1.372-1.817-2.593-2.657-3.773zm.948-1.986c1.227 1.855 2.311 3.087 2.944 4.518 2.598 5.861 6.229 11.131 9.369 16.68 5.059 8.936 12.324 15.49 21.88 19.186 8.779 3.396 17.902 4.699 27.243 2.47 6.387-1.524 12.714-3.335 17.929-7.57 2.967-2.409 5.94-4.909 8.435-7.781 7.699-8.864 12.419-18.834 11.053-31.052-.467-4.176-1.862-7.778-4.575-10.814-8.133-9.102-18.561-13.496-30.588-13.474-9.01.018-17.662 2.377-25.736 6.538-6.406 3.301-12.454 7.14-17.87 11.93-3.888 3.438-8.304 5.895-13.348 7.229-2.149.567-4.243 1.34-6.736 2.14z"/><path opacity=".6" fill-rule="evenodd" clip-rule="evenodd" d="M149.889 171.427c-.869-.561-1.939-.994-2.652-1.76-2.767-2.967-4.555-6.525-5.77-10.367-.558-1.768-.441-3.471.956-4.759 2.384-1.419 3.993.487 5.636 1.077 3.195.382 6.241-.371 9.279.526 1.106 3.743-1.402 6.479-2.414 9.525-.8 2.413-2.225 4.588-5.035 5.758zm.1-1.573c3.327-2.693 3.989-6.284 5.404-9.442.429-.958 1.256-1.934.128-3.3h-8.061c-.913-.514-1.466-.832-2.024-1.139-.519-.284-1.043-.559-1.435-.768-1.651 1.141-1.37 2.5-.971 3.66 1.407 4.083 3.144 7.994 6.959 10.989z"/><path d="M212.542 140.752h5.278c2.695 1.811 3.904 4.547 3.95 7.661.056 3.805-.309 7.615-.469 11.424-.096 2.282-.98 4.32-1.844 6.381-1.371 3.27-3.654 5.112-7.523 4.936-.186-.546-.535-1.11-.548-1.682-.188-8.113-.334-16.229-.477-24.343-.027-1.611.096-3.185 1.633-4.377zm.406 1.882c-.893 9.642-.322 21.791 1.22 26.146 1.631-.506 2.764-1.563 3.395-3.09.668-1.616 1.354-3.262 1.714-4.963.867-4.094.765-8.269.593-12.423-.088-2.126-.809-4.061-2.617-5.614-.509-.085-1.129-.267-1.751-.273-.786-.009-1.573.126-2.554.217zm37.768-8.359c.058 1.111.172 2.146.152 3.177-.065 3.51-.059 7.027-.302 10.526-.364 5.251-.797 10.504-1.465 15.722-.191 1.482-1.119 2.979-2.042 4.223-.704.95-1.932 1.513-2.709 2.087-4.555-1.257-5.531-2.347-5.741-6.234-.101-1.849-.278-3.749 1.196-5.854.894 1.558.58 2.789.63 3.934.049 1.113.011 2.23.011 2.958.774 1.739 1.466 2.993 3.553 3.119l2.231-1.785c1.671-2.684 2.722-12.852 2.022-17.656-1.783 1.023-2.872 3.308-5.273 2.813-1.409-.5-1.7-1.852-2.145-3.002-1.308-3.385-.505-6.97-.828-10.453-.046-.492.317-1.022.776-2.376 1.069 3.163.626 5.54.916 7.822.278 2.191.382 4.479 1.896 6.276 1.83-.105 2.517-1.422 3.1-2.735 1.371-3.092 2.197-6.328 2.382-9.726.059-1.06-.108-2.323 1.64-2.836zm-16.498 35.009c-1.845-2.963-1.064-5.382-2.074-7.625-2.548-.276-4.927.403-7.552 1.563l-.866 6.6c-.629-.968-1.189-1.432-1.18-1.884.043-2.221-.01-4.489.429-6.647 1.02-5.013 1.869-10.023 2.199-15.143.18-2.795.482-5.703 2.259-8.091.428.123.912.134.972.299 1.363 3.735 3.092 7.401 3.909 11.259 1.186 5.602 1.726 11.344 2.489 17.032.07.525-.23 1.099-.585 2.637zm-6.727-25.783c-.287 5.697-1.941 11.182-2.212 17.138l6.208-1.436c.581-4.874-.643-10.144-3.996-15.702zm-29.838-3.738c2.162-.348 3.847.066 4.979 1.64.779 1.083 1.881 2.243.778 3.926-1.892-.887-2.009-4-4.995-3.579-2.011 1.522-2.635 4.064-3.007 6.538-.964 6.405-.362 12.78 1.219 19.024.482 1.904 1.075 4.021 3.123 5.081 2.363-2.404 2.852-3.853 3.166-9.431l-3.524-.645v-1.298c1.721-.472 3.438-1.134 5.642-.582.177 4.106-.659 7.934-2.35 11.552-.605 1.295-1.779 2.251-3.732 2.309-.516-.482-1.316-1.025-1.833-1.767-.724-1.037-1.433-2.161-1.805-3.355-2.416-7.765-3.125-15.649-1.142-23.621.538-2.159 1.301-4.301 3.481-5.792zm56.791 14.196c-.308-.86-.615-1.283-.575-1.671.657-6.312.863-12.666 1.729-18.959.01-.074.267-.114.61-.25.163.324.502.676.482 1.007-.347 6.047-.718 12.093-1.153 18.134-.035.49-.577.945-1.093 1.739zm-46.151-12.814c-2.886-.185-1.058-4.091-1.097-6.941 1.237-.348 1.732.082 1.74.59.022 1.373-.463 4.471-.643 6.351zm46.7 22.213c-.961-.606-.764-1.239.054-1.729.587-.352 1.099.542.669 1.244-.135.219-.464.319-.723.485z" opacity=".6" fill-rule="evenodd" clip-rule="evenodd"/></svg>