<svg xmlns="http://www.w3.org/2000/svg" viewBox="760 435 400 208" enable-background="new 760 435 400 208"><path opacity=".2" fill="#fff" enable-background="new" d="M925.18 603.398l-.561.048c-1.101-.712-2.4-1.133-3.786-1.133h-.543c-3.85 0-7.063 3.21-7.063 7.056 0 .658.101 1.296.276 1.905-.376 3.777 1.883 7.865 6.787 7.865 1.935 0 3.455-.642 4.568-1.645l.322.016c9.109.001 9.109-14.112 0-14.112zm34.747-76.55c.468-6.189-1.877-11.689-4.944-17.421-4.07-7.607-8.837-14.484-13.949-21.431-10.294-13.995-17.979-29.628-24.204-45.796-3.235-8.403-16.897-4.757-13.621 3.751l.374.944c-.045.24-.107.466-.135.72-.541 4.879-.161 9.739-.075 14.631.061 3.44.067 6.167-2.236 8.282-.218.201-.417.404-.609.606-3.511-1.691-7.329-2.184-11.294-2.456-4.173-.284-7.225-1.026-10.24-3.098 1.86-4.091 3.547-8.147 4.042-12.82.112-1.048-.11-2.045-.55-2.948-.765-2.648-2.932-4.832-6.513-4.832-.577 0-1.115.062-1.619.167-.432-.109-.877-.192-1.331-.246-9.398-1.115-18.318-1.595-26.383 4.221-2.645 1.906-4.119 4.967-3.233 8.026-1.079.592-2.146 1.187-3.198 1.749l.347.018-.416.02c-.485.257-.966.508-1.443.748.732-.375 1.109-.608 1.28-.743-1.162.042-2.328.062-3.486.128-.57.033-1.127.099-1.686.155-5.621-1.765-10.833-.829-14.876 4.716-.34.467-.673.931-1.003 1.394-.583.451-1.164.911-1.726 1.415-2.079 1.862-3.826 4.125-5.303 6.521-2.728 2.053-6.027 3.562-8.995 5.095-6.083 3.142-13.58 6.28-16.761 12.771-1.711 3.492-3.285 5.505-6.534 7.717-1.729 1.177-3.357 2.473-4.777 4.005-.162.175-.368.457-.601.777l-.688.259c-3.244-.397-5.784.433-8.294 2.785-4.551 4.263-4.068 13.553-5.109 19.114-.566 3.02.632 5.45 2.525 6.996.392 2.188.912 4.349 1.593 6.46.317.981 2.192 5.641 2.802 7.092.509 1.498.932 3.03 1.395 4.538 2.558 8.343 6.139 16.029 12.317 21.329-3.139 4.043-1.369 11.652 5.321 11.652 3.916 0 6.141-2.608 6.691-5.582 11.431 2.632 22.168-3.453 28.954-12.342 1.639.529 3.344.913 5.102 1.098 5.061.532 9.292-1.643 12.554-4.946.43-.043.798-.071 1.036-.072 2.585-.012 5.171.205 7.743.432 1.165.103 8.606 1.04 4.475.478 3.158.427 6.313.864 9.473 1.263-4.769-.603.58.475 2.852 1.047l.061.029c1.398.714 2.701 1.616 4.002 2.488l1.02.733 1.845 1.46c10.018 7.944 19.815 15.58 31.773 20.356 13.221 5.281 25.761 2.309 36.375-6.642 7.858-6.628 12.531-17.496 15.823-26.926 3.096-8.857 6.387-20.282 4.057-29.885zm-119.86-67.987c.158-.165-.161-.072 0 0zm.143.035l-.142-.035-.09.079.163-.007.069-.037z"/><path enable-background="new" d="M1044.233 483.756c4.898-1.535 6.166-6.037 9.196-8.475 1.339-4.626 1.777-9.356 4.62-13.573l2.91.918c-1.201 6.619-3.987 12.692-3.74 19.487 3.688-1.035 5.216-2.35 8.636-7.176 1.052-8.935 3.263-17.842 6.522-26.475 1.1-2.912 2.481-5.721 3.803-8.545.823-1.754 1.967-3.272 3.873-4.195 2.019-.614 4.015-.634 5.825 1.152 1.244 2.401.777 4.935-.032 7.446-1.917 5.96-4.357 11.709-7.325 17.218-2.549 4.731-5.25 9.38-8.027 14.317-.079 2.43.203 4.894 3.068 6.416 4.139-1.606 4.955-6.108 7.96-9.042l2.656 1.431c-1.394 4.527-4.079 7.779-7.162 10.402-4.901 1.884-7.376-1.445-10.15-4.036-2.892.989-4.329 4.315-7.772 4.362-3.136-.733-3.136-.733-5.968-2.925l-4.814 3.848c-.64.136-1.313.389-1.992.404-5.308.117-8.269-3.746-6.762-8.861.341-1.156.964-2.228 1.426-3.35.651-1.581 1.27-3.172 1.924-4.815l-1.39-1.504c-.587.094-1.019.034-1.239.221-.786.672-1.569 1.369-2.226 2.163-3.149 3.81-7.011 6.705-11.56 9.028-.76 1.195-1.631 2.484-2.422 3.822-2.958 5.004-7.063 7.528-13.204 6.085l-2.569-2.047c-.414.289-.854.427-.935.677-.941 2.969-1.875 5.944-2.722 8.94-1.554 5.495-3.043 11.01-4.588 16.508-.083.295-.447.513-.764.859-1.414.654-2.559.333-3.481-1.513l5.691-21.317c-2.726.063-5.106.369-7.405.066-1.216-.16-2.292-1.381-3.181-1.961-1.711-4.696-.877-8.951.143-13.515-.832-.203-1.595-.503-2.373-.553-1.376-.088-2.76-.024-4.189-.024-2.779 2.935-5.53 5.812-8.245 8.723-2.662 2.853-5.919 4.875-9.468 6.314-4.361 1.77-8.767 2.204-13-1.233-.432-.884-1.008-1.947-1.472-3.055-.264-.629-.357-1.331-.507-2.004-.936-4.207 5.042-12.554 11.064-12.366 2.337.073 4.306.777 5.266 3.114-1.652 1.767-3.117-.365-4.569.229-7.446 3.269-9.449 7.292-6.395 13.048 2.168.84 4.37.511 6.492-.38 1.753-.736 3.551-1.478 5.114-2.535 3.898-2.634 7.176-5.944 10.101-9.782l-3.95-2.075c.192-1.664 1.263-1.952 2.28-2.033 1.526-.123 3.069-.031 4.873-.031 7.109-10.167 12.901-21.183 18.724-32.475l2.852 1.077c.14.658.336 1.02.264 1.321-2.733 11.464-5.512 22.914-8.224 34.382-.718 3.035-1.332 6.102-1.799 9.184-.168 1.108.227 2.305.346 3.296 2.226 1.223 3.711.342 4.939-.978 2.965-3.187 5.38-6.767 6.996-10.822.768-1.928 1.254-3.967 1.947-5.928.338-.955.856-1.846 1.38-2.949l3.222.68-1.08 6.25c3.781-2.684 6.208-6.295 10.24-7.623 2.836.157 2.84.153 5.311 2.117l1.194 4.389c3.584-1.415 5.442-4.344 7.784-7.077-2.329-1.892-4.313-3.821-4.866-6.898.379-6.364 3.482-11.238 8.628-13.365 1.901.101 3.254 1.175 4.165 2.724.983 1.676 1.445 3.549 1.064 5.511-.333 1.701-.726 3.395-1.161 5.075-.39 1.509-.875 2.993-1.407 4.789l3.778 3.394c1.144 1.715.637 3.551-.124 5.347-.676 1.597-1.442 3.157-2.192 4.724-.885 1.841-.817 3.644.174 6.053zm37.546-44.43c-3.664 4.804-8.33 17.078-8.688 22.847 4.273-5.681 6.356-11.884 8.552-18.013.476-1.332 1.346-2.798.136-4.834zm-58.536 31.24c-4.928 2.445-7.808 6.187-10.754 10.082.566.096.943.288 1.196.182 3.02-1.248 6.023-2.543 8.947-3.789.956-1.989 1.251-3.792.611-6.475zm14.332-8.111c.35-.168.792-.231.922-.466 1.608-2.932 2.279-6.137 2.461-9.431.037-.673-.593-1.383-1.012-2.283-2.672 2.469-4.073 5.149-4.482 8.355.411 1.467.291 3.193 2.111 3.825zm-45.177 9.534l3.185-13.314c-3.964 4.535-5.833 8.903-8.649 13.314h5.464zm25.828 11.746c-2.229-.282-3.587.598-5.258 2.616 2.509-.199 4.111-.548 5.258-2.616zm97.291.662c2.169-.927 3.05-2.836 3.831-4.77 2.268-5.608 3.929-11.349 3.782-17.841-1.599.269-2.903.636-4.218.676-1.71.052-3.487.085-5.132-.307-2.593-.618-4.058-2.503-4.541-5.126-1.282-6.983 2.755-14.651 9.246-17.567 2.278-1.023 2.278-1.023 6.188-.588 2.259 2.049 3.071 4.883 3.09 7.855.042 6.913.461 13.833-.604 20.735-.693 4.488-1.938 8.77-3.655 12.944-1.366 3.318-3.31 6.09-7.567 7.443.323-.066-.017.067-.354.064-7.392-.1-10.543-3.454-9.81-10.685.24-2.362.309-4.859 2.025-7.148l2.747.746c.163 2.37-.324 4.39-.767 6.389-.437 1.967-.155 3.775.718 5.57 1.322 1.657 3.033 2.146 5.021 1.61zm7.868-26.833c-.021-5.322 1.05-10.45-.849-15.479-7.363 1.8-10.624 8.209-8.46 16.381 2.997 1.796 5.848.811 9.309-.902zm34.315.681h-2.245c-1.714-2.552.291-5.33-1.016-7.774l-1.778.193-.806 7.909-2.832-.354c-.926-6.242-.434-15.009 1.138-20.053l2.567-.338.115 8.79 1.654.272c.375-.828.992-1.689 1.142-2.625.325-2.042.453-4.119.582-6.187.08-1.292.414-2.372 1.897-3.079l1.444.441c1.129 1.472-.08 14.833-1.862 22.805zm-141.698 49.229c3.434-3.208 3.504-7.816 6.224-11.424.526.921 1.036 1.43 1.091 1.986.118 1.199.081 2.429-.026 3.635-.383 4.309-.821 8.613-1.262 13.161l-1.122.726c-1.505-3.078.092-6.225-.613-9.448-3.096 1.588-2.522 5.189-4.416 7.769-.592-.745-1.171-1.159-1.301-1.688-.622-2.511-1.122-5.052-1.773-8.085-2.412 3.306-.99 6.932-1.927 10.031l-1.379-.294c-1.101-4.615.312-9.176.816-13.761.101-.921.745-1.781 1.281-2.991 3.176 2.838 2.87 6.783 4.407 10.383zm76.96-2.221c-1.384 2.632.546 5.451-1.372 7.627-.075.086-.334.011-.501.011-1.137-4.225-.805-12.237.792-17.406 3.385 3.609 2.274 9.003 5.512 12.848.837-4.803-.124-9.427 1.076-13.938.562.283 1.029.385 1.054.551.839 5.841-.15 11.672.263 17.691l-2.374.951c-2.559-2.311-2.254-5.928-4.45-8.335zm35.648-14.98c.663 1.774 1.378 2.868 1.446 4 .376 6.227.607 12.465.837 18.701.014.396-.407.81-.744 1.432-2.019-1.118-.867-3.37-2.194-4.761h-2.766c-.63.923-2.1 2.367-2.67 2.652.163-4.105 3.784-17.72 6.091-22.024zm-.474 16.936c.116-2.095.294-3.772.255-5.445-.014-.604-.549-1.195-1.318-2.742-.223 3.39-1.567 5.5-1.156 8.014l2.219.173zm-81.557 8.21c-1.618-3.617-.651-6.878-.471-10.072.185-3.25.662-6.484 1.046-10.057 2.367-.888 4.484-.644 6.252 1.442 1.274 3.244-.396 5.691-2.026 8.005l2.078 4.037c-.771 3.869-2.734 6.096-6.879 6.645zm5.03-18.141h-2.689l-.38 5.933c2.928-1.081 3.536-2.895 3.069-5.933zm-3.401 15.132c3.086-1.611 3.174-1.848 1.877-4.857h-1.531c-.819 1.599-.908 3.174-.346 4.857zm91.086-55.468l-3.536-1.137c-1.096-4.429 1.335-8.493.076-12.613l-4.432-1.231-.339-1.94c4.268-.753 8.443-1.573 12.65-2.16.821-.114 1.769.675 2.712 1.07-1.244 2.95-4.325 1.311-6.211 3.304-.955 4.279-.548 9.09-.92 14.707zm-56.449 57.747l-2.228-5.61-1.672 4.43c-.538-.489-.958-.69-.966-.905-.127-3.8 1.046-14.079 1.917-17.014 1.702-1.179 3.538-.642 5.714-.356l1.531 3.602c-.55 3.779-2.965 5.727-4.751 8.269l1.906 6.166 3.096.159-1.395 2.017-3.152-.758zm-2.355-9.563c4.438-3.282 4.778-3.981 4.102-7.949-1.026-.774-2.073-1.189-3.44.038l-.662 7.911zm58.201 6.468c2.15-3.473 2.01-7.035 2.631-10.381.62-3.343.962-6.736 1.414-10.032 1.164-.102 1.616.397 1.558 1.165-.173 2.239-.356 4.482-.697 6.699-.549 3.585-1.178 7.161-1.868 10.721-.385 1.99-1.378 3.545-3.804 3.859-2.156-1.017-2.392-3.174-2.497-5.19-.135-2.586.057-5.19.162-7.785.099-2.404.245-4.807.434-7.205.03-.392.393-.759.907-1.691 1.052 2.653.661 4.867.637 7.031-.024 2.077-.187 4.157-.102 6.229.085 2.092-.628 4.403 1.225 6.58zm-70.263-14.791c1.81 4.887-.242 10.07 1.608 15.609.765-.906 1.391-1.31 1.491-1.818.795-4.058 1.446-8.145 2.25-12.201.175-.888.782-1.692 1.317-2.795 1.189 1.898.583 3.421.316 4.897-.523 2.882-1.176 5.743-1.724 8.621-.427 2.24-1.027 4.338-3.357 5.566-1.611-1.053-2.778-2.297-2.956-4.114-.448-4.615.205-9.17 1.055-13.765zm35.873-1.555c2.068-1.657 4.358-1.555 6.702-.863.138 1.068-.379 1.379-1.149 1.451-1.171.112-2.343.22-3.734.35-.362 2.627-.579 4.981-.022 7.613l3.834.938c-.655 2.089-2.576.988-3.565 1.877-.61.987-.61 1.041.13 5.805h5.316c-1.051.948-1.419 1.531-1.919 1.686-1.659.512-3.37.844-5.088.247-1.179-4.04-1.4-12.309-.505-19.104zm-45.918 20.14c-3.279-4.312-1.983-9.026-1.14-13.506.447-2.371 1.264-5.152 4.629-5.765.361.652.868 1.201.975 1.821.751 4.325.725 8.645-.465 12.901-.575 2.061-1.617 3.783-3.999 4.549zm1.081-3.242c2.247-3.621 2.624-7.899 1.118-12.709-2.572 3.932-3.029 9.114-1.118 12.709zm-31.567-14.655c1.852-.733 3.413-.95 5.044.005-.675 2.07-2.506 1.194-3.559 1.911-.192.282-.522.55-.552.849-.231 2.211-.403 4.429-.61 6.82l3.49.889c-.089 2.157-2.467 1.007-3.175 2.666v1.848l6.04.282c-1.105.884-1.503 1.463-1.975 1.534-1.86.282-3.736.866-5.591.26-1.402-4.625-1.027-12.516.888-17.064zm9.767.607l1.538-.418c1.104 4.773-.278 9.645.454 14.396l3.066.862-.599 1.343-3.515.272c-.374-.554-.993-1.071-1.072-1.663-.205-1.535-.251-3.104-.221-4.656.064-3.281.22-6.558.349-10.136zm21.902-46.371l1.556-1.437 2.557 2.011-1.999 1.508c-1.411-.195-2.333-.501-2.114-2.082zm54.957 64.668c.598-1.674 1.124-3.385 2.909-5.263.425 2.869-.377 4.466-2.026 5.721-.1.074-.507-.258-.883-.458zm-232.247-67.634c-.892 5.129-5.32 8.496-7.871 13.184.448.523.77 1.237 1.304 1.472 6.658 2.95 13.343 5.837 20.033 8.714.62.267 1.315.364 2.128.579 2.76-2.696 4.806-5.926 6.814-9.107.84-1.333.731-3.319.859-5.022.076-1.013-.153-2.069-.368-3.08-.896-4.218-.74-8.257 1.625-12.049.633-1.018.992-2.207 1.555-3.497l2.073-1.246c.566.151 1.12.177 1.541.429 1.996 1.191 3.499 2.845 4.328 5.035.797 2.104 1.699 4.188 2.255 6.357 1.181 4.616 3.003 8.853 6.361 12.324 2.643 2.731 4.114 6.057 4.395 9.78.36 4.776 2.628 8.51 5.68 11.982 4.466 5.084 8.822 10.266 13.247 15.386 4.141 4.794 7.05 10.246 9.037 16.25.925 2.793 2.156 5.487 3.273 8.215 1.898 4.637 1.872 9.212 1.045 14.224-1.402 8.506-5.109 16.182-7.618 24.269-1.201 3.872-3.71 7.44-6.091 10.816-1.887 2.675-4.116 5.106-5.792 7.969-2.143 3.664-5.188 6.487-8.943 8.425l-10.339 4.853-3.741-.694-10.66.581c-3.298-2.159-6.704-4.235-9.935-6.555-2.671-1.917-4.992-4.176-6.839-7.026-2.505-3.863-6.067-6.645-11.025-8.297h-5.44c-1.187-1.149-2.685-2.166-3.599-3.564-2.448-3.746-5.661-6.517-9.614-8.522-.767-.389-1.467-.914-2.06-1.29-3.763-.878-7.346-.991-11.013-.365-3.585.612-7.269.675-10.826 1.396-3.032.613-5.959 1.775-8.903 2.781-2.688.921-4.845 2.556-6.633 4.818-3.371 4.266-7.738 6.834-13.267 7.324-5.431.481-10.531 2.127-15.168 4.996-2.187 1.354-4.489 1.741-7.217 1.645-5.383-1.725-7.545-5.809-7.657-11.417-.115-5.81-1.428-11.247-4.76-16.203-3.483-5.179-6.584-10.611-9.892-15.906-2.857-4.568-4.273-9.459-3.481-15.361 1.336-3.222 3.001-6.845 4.347-10.583 1.766-4.905 5.133-8.136 9.807-10.153 1.433-.617 2.904-1.157 4.383-1.657 2.482-.837 4.74-1.973 6.863-3.59 1.601-1.219 3.641-2.046 5.614-2.549 4.443-1.134 7.448-3.79 8.811-8.036 1.384-4.315 4.045-7.61 7.299-10.563.769-.699 1.695-1.289 2.285-2.115 4.169-5.85 9.962-10.131 14.614-15.324 4.007-1.58 7.16.839 10.202 1.847 2.458-.084 3.789-1.549 5.371-2.611.753-1.393 1.571-2.728 2.217-4.142 1.347-2.954 3.533-5.06 6.224-6.812 2.368-1.54 4.671-2.883 7.682-2.604 1.346.124 2.74-.449 4.122-.503 2.248-.087 4.54-.259 6.746.06 3.769.545 7.492 1.418 11.222 2.205 1.37.286 2.709.723 3.39 2.527zm27.169 144.467c-.405-7.783.718-9.585 6.68-11.476 5.525 1.735 6.361 3.018 5.64 8.589-.102.792-.097 1.599-.136 2.317.518.148.717.279.837.227 3.614-1.563 7.226-3.134 10.821-4.741.463-.206.82-.638 1.244-.94 2.588-1.848 4.526-4.277 6.31-6.87 1.865-2.71 3.805-5.367 5.735-8.031 2.969-4.101 5.415-8.463 6.788-13.375.42-1.501.727-3.072 1.398-4.459 2.601-5.361 3.867-11.093 5.227-16.843.968-4.092.697-7.874-.793-11.695-1.387-3.555-2.731-7.127-4.106-10.688-2.275-5.884-5.453-11.178-9.708-15.897-4.646-5.153-9.035-10.539-13.517-15.84-2.292-2.71-3.86-5.749-4.179-9.355-.381-4.3-2.08-8.024-5.036-11.173-2.926-3.119-4.579-6.828-5.593-10.974-.694-2.835-1.924-5.557-3.109-8.245-.619-1.403-1.547-2.757-3.769-2.855-.75 1.362-1.619 2.836-2.388 4.359-1.441 2.854-2.192 5.741-1.265 9.024.555 1.967.582 4.138.512 6.205-.051 1.507-.304 3.207-1.071 4.449-1.99 3.22-4.313 6.235-6.576 9.435-1.341-.145-2.594-.067-3.696-.432-6.936-2.304-13.54-5.398-20.067-8.652-1.572-.785-2.974-1.855-2.974-3.872 2.003-4.6 6.892-7.438 7.756-12.767-.614-.268-1.059-.579-1.542-.656-7.307-1.16-14.476-3.892-22.066-1.935-.821.212-1.722.117-2.281.149-5.209 2.034-8.874 5.286-11.004 10.155-1.431 3.273-3.945 5.176-7.551 6.05-3.11-.291-5.543-3.584-9.704-2.477-3.673 4.402-9.021 7.835-12.644 13.041-1.169 1.682-2.813 3.056-4.332 4.469-2.965 2.761-5.4 5.823-6.682 9.763-1.494 4.593-4.524 7.738-9.332 8.928-2.58.637-4.775 1.961-6.936 3.458-1.547 1.07-3.293 1.882-5.021 2.653-1.739.776-3.551 1.397-5.355 2.016-4.242 1.458-6.899 4.49-8.595 8.506-1.013 2.398-1.964 4.826-3.074 7.178-2.953 6.249-2.041 12.103 1.566 17.774 3.447 5.418 6.773 10.915 10.249 16.313 3.092 4.805 4.764 10.027 4.646 15.714-.087 4.3 1.327 7.772 4.558 10.505 2.722.731 5.208.636 7.591-.882 4.92-3.135 10.346-4.726 16.13-5.379 4.663-.528 8.67-2.545 11.552-6.354 2.75-3.636 6.575-5.79 10.7-7.085 9.355-2.939 18.999-3.795 28.898-3.03 2.895 1.93 6.017 3.581 8.591 5.853 2.554 2.25 4.553 5.128 6.84 7.782 4.885-.569 9.075.973 12.648 3.959 1.974 1.651 3.558 3.77 5.311 5.683 1.279 1.394 2.483 2.863 3.834 4.184 3.368 3.296 7.489 5.499 12.04 8.24zm33.031 2.255c-1.84-.668-3.439-1.248-5.519-2.005.849-.68 1.357-1.368 2.012-1.564 3.486-1.039 6.986-2.053 10.524-2.89 5.887-1.395 11.077-4.144 15.537-8.129 6.282-5.616 13.385-10.01 20.957-13.457 7.584-3.454 15.647-5.632 24.11-5.968 13.703-.542 25.621 3.648 35.455 13.28 4.477 4.387 6.892 9.609 7.359 16.103.95 13.242-4.13 24.027-12.428 33.705-3.512 4.096-7.54 7.6-12.182 10.485-6.022 3.743-12.557 5.828-19.436 7.089-14.265 2.616-27.24-.795-39.111-8.699-6.163-4.102-10.895-9.678-14.547-16.11-3.339-5.882-6.517-11.854-9.844-17.743-.84-1.49-1.974-2.816-2.887-4.097zm1.031-2.156c1.333 2.014 2.511 3.351 3.199 4.905 2.823 6.363 6.768 12.084 10.18 18.108 5.497 9.701 13.391 16.816 23.775 20.828 9.539 3.687 19.452 5.101 29.602 2.681 6.94-1.654 13.815-3.62 19.482-8.218 3.224-2.615 6.454-5.329 9.166-8.447 8.366-9.623 13.495-20.446 12.01-33.71-.507-4.533-2.023-8.444-4.971-11.74-8.837-9.881-20.168-14.651-33.237-14.628-9.79.02-19.192 2.581-27.965 7.098-6.961 3.584-13.533 7.751-19.418 12.951-4.225 3.732-9.023 6.4-14.504 7.848-2.335.617-4.611 1.456-7.319 2.324zm-20.637 27.774c-.944-.609-2.107-1.079-2.882-1.911-3.007-3.221-4.949-7.084-6.27-11.255-.606-1.919-.479-3.768 1.039-5.166 2.59-1.54 4.339.529 6.124 1.169 3.472.415 6.781-.403 10.083.571 1.202 4.063-1.523 7.034-2.623 10.34-.869 2.621-2.418 4.982-5.471 6.252zm.108-1.707c3.615-2.924 4.334-6.822 5.872-10.25.466-1.04 1.365-2.1.139-3.583h-8.759c-.992-.558-1.593-.903-2.199-1.237-.564-.308-1.133-.607-1.559-.834-1.794 1.239-1.489 2.714-1.055 3.973 1.529 4.434 3.416 8.679 7.561 11.931zm67.971-31.594h5.735c2.928 1.966 4.242 4.936 4.292 8.317.061 4.131-.336 8.267-.51 12.402-.104 2.477-1.065 4.69-2.004 6.927-1.49 3.55-3.97 5.55-8.175 5.359-.202-.593-.581-1.205-.595-1.826-.204-8.807-.363-17.618-.518-26.427-.029-1.749.105-3.458 1.775-4.752zm.441 2.044c-.97 10.467-.35 23.656 1.326 28.384 1.772-.549 3.003-1.697 3.689-3.354.726-1.754 1.471-3.541 1.862-5.388.942-4.444.831-8.977.644-13.487-.096-2.308-.879-4.409-2.844-6.095-.553-.092-1.227-.29-1.903-.296-.853-.01-1.708.137-2.774.236zm41.039-9.075c.063 1.206.187 2.33.165 3.449-.071 3.81-.064 7.629-.328 11.427-.396 5.701-.866 11.403-1.592 17.068-.208 1.609-1.216 3.234-2.219 4.585-.765 1.031-2.099 1.643-2.944 2.266-4.949-1.365-6.01-2.548-6.238-6.768-.11-2.007-.302-4.07 1.3-6.355.971 1.691.63 3.028.685 4.271.053 1.208.012 2.421.012 3.211.841 1.888 1.593 3.249 3.861 3.386l2.424-1.938c1.816-2.914 2.958-13.952 2.197-19.167-1.937 1.111-3.121 3.591-5.73 3.054-1.531-.543-1.847-2.011-2.331-3.259-1.421-3.675-.549-7.567-.9-11.348-.05-.534.344-1.109.843-2.579 1.162 3.434.68 6.014.995 8.492.302 2.379.415 4.862 2.06 6.813 1.989-.114 2.735-1.544 3.368-2.969 1.49-3.357 2.387-6.87 2.588-10.559.066-1.152-.116-2.523 1.784-3.08zm-17.927 38.006c-2.005-3.217-1.156-5.843-2.254-8.278-2.769-.3-5.354.438-8.206 1.697l-.941 7.165c-.683-1.051-1.292-1.555-1.282-2.045.047-2.411-.011-4.873.466-7.216 1.108-5.442 2.031-10.881 2.389-16.439.196-3.034.524-6.191 2.455-8.784.465.133.991.145 1.056.325 1.481 4.055 3.36 8.035 4.248 12.223 1.289 6.082 1.875 12.315 2.705 18.49.076.569-.25 1.192-.636 2.862zm-7.31-27.99c-.312 6.185-2.109 12.139-2.404 18.605l6.746-1.559c.632-5.291-.698-11.012-4.342-17.046zm-32.422-4.058c2.349-.378 4.18.072 5.41 1.78.846 1.176 2.044 2.435.845 4.262-2.056-.963-2.183-4.342-5.428-3.885-2.185 1.652-2.863 4.412-3.267 7.098-1.047 6.953-.393 13.874 1.325 20.653.524 2.067 1.168 4.365 3.393 5.516 2.568-2.61 3.099-4.183 3.44-10.238l-3.829-.7v-1.409c1.87-.512 3.736-1.231 6.131-.632.192 4.458-.716 8.613-2.554 12.541-.657 1.406-1.933 2.444-4.055 2.507-.561-.523-1.43-1.113-1.992-1.918-.787-1.126-1.557-2.346-1.961-3.642-2.625-8.43-3.396-16.989-1.241-25.643.586-2.346 1.415-4.672 3.783-6.29zm61.71 15.411c-.335-.934-.668-1.393-.625-1.814.714-6.852.938-13.75 1.879-20.582.011-.08.29-.124.663-.271.177.352.546.734.524 1.093-.377 6.565-.78 13.128-1.253 19.686-.039.532-.628 1.026-1.188 1.888zm-50.148-13.911c-3.136-.201-1.15-4.441-1.192-7.535 1.344-.378 1.882.089 1.891.641.023 1.49-.504 4.853-.699 6.894zm50.744 24.115c-1.044-.658-.83-1.345.059-1.877.638-.382 1.194.588.727 1.351-.147.237-.504.345-.786.526z" opacity=".6"/></svg>