<?xml version="1.0" encoding="utf-8"?>
<!-- Generator: Adobe Illustrator 17.1.0, SVG Export Plug-In . SVG Version: 6.00 Build 0)  -->
<!DOCTYPE svg PUBLIC "-//W3C//DTD SVG 1.1//EN" "http://www.w3.org/Graphics/SVG/1.1/DTD/svg11.dtd">
<svg version="1.1" id="Layer_1" xmlns="http://www.w3.org/2000/svg" xmlns:xlink="http://www.w3.org/1999/xlink" x="0px" y="0px"
	 viewBox="0 0 368.119 191.6" enable-background="new 0 0 368.119 191.6" xml:space="preserve">
<path opacity="0.2" fill="#FFFFFF" d="M152.015,155.12c-0.182,0-0.342,0.031-0.516,0.044c-1.013-0.656-2.209-1.044-3.484-1.044h-0.5
	c-3.543,0-6.5,2.957-6.5,6.5c0,0.606,0.093,1.194,0.254,1.755c-0.346,3.479,1.733,7.245,6.246,7.245c1.781,0,3.18-0.591,4.204-1.515
	c0.099,0.004,0.194,0.015,0.296,0.015C160.398,168.12,160.398,155.12,152.015,155.12z"/>
<g>
	<path opacity="0.2" fill-rule="evenodd" clip-rule="evenodd" fill="#FFFFFF" d="M183.993,84.606
		c0.431-5.701-1.727-10.767-4.55-16.047c-3.746-7.007-8.133-13.342-12.837-19.741c-9.474-12.891-16.546-27.292-22.275-42.185
		c-2.977-7.74-15.55-4.382-12.535,3.455c0.112,0.291,0.231,0.579,0.344,0.87c-0.041,0.221-0.098,0.429-0.124,0.663
		c-0.498,4.494-0.148,8.971-0.069,13.477c0.056,3.169,0.062,5.681-2.058,7.629c-0.201,0.185-0.384,0.372-0.56,0.558
		c-3.231-1.558-6.745-2.012-10.394-2.262c-3.84-0.262-6.649-0.945-9.424-2.854c1.712-3.768,3.264-7.505,3.72-11.809
		c0.103-0.965-0.101-1.884-0.506-2.716c-0.704-2.439-2.698-4.451-5.994-4.451c-0.531,0-1.026,0.057-1.49,0.154
		c-0.398-0.1-0.807-0.177-1.225-0.227c-8.649-1.027-16.858-1.469-24.28,3.888c-2.434,1.756-3.791,4.575-2.975,7.393
		c-0.993,0.545-1.975,1.093-2.943,1.611c0.074,0.01,0.179,0.017,0.319,0.017c-0.128,0.006-0.256,0.012-0.383,0.018
		c-0.446,0.237-0.889,0.468-1.328,0.689c0.674-0.345,1.021-0.56,1.178-0.684c-1.069,0.039-2.142,0.057-3.208,0.118
		c-0.525,0.03-1.037,0.091-1.552,0.143c-5.173-1.626-9.97-0.764-13.69,4.344c-0.313,0.43-0.619,0.858-0.923,1.284
		c-0.537,0.415-1.071,0.839-1.588,1.303c-1.913,1.715-3.521,3.8-4.88,6.007c-2.511,1.891-5.547,3.281-8.278,4.693
		c-5.598,2.894-12.498,5.785-15.425,11.764c-1.575,3.217-3.023,5.071-6.013,7.108c-1.591,1.084-3.089,2.278-4.396,3.689
		c-0.149,0.161-0.339,0.421-0.553,0.716c-0.212,0.078-0.425,0.153-0.633,0.239c-2.985-0.366-5.323,0.399-7.633,2.565
		C0.644,69.952,1.088,78.509,0.13,83.632c-0.521,2.782,0.582,5.02,2.324,6.444c0.361,2.015,0.839,4.006,1.466,5.951
		c0.292,0.904,2.017,5.196,2.579,6.533c0.468,1.38,0.858,2.791,1.284,4.18c2.354,7.685,5.65,14.765,11.335,19.647
		c-2.889,3.724-1.26,10.733,4.897,10.733c3.604,0,5.652-2.402,6.158-5.142c10.52,2.424,20.401-3.181,26.646-11.369
		c1.508,0.487,3.077,0.841,4.695,1.011c4.658,0.49,8.551-1.513,11.553-4.556c0.396-0.04,0.734-0.065,0.953-0.066
		c2.379-0.011,4.759,0.189,7.126,0.398c1.072,0.095,7.92,0.958,4.118,0.44c2.906,0.393,5.81,0.796,8.718,1.163
		c-4.389-0.555,0.534,0.438,2.625,0.964c0.021,0.01,0.034,0.017,0.056,0.027c1.287,0.658,2.486,1.489,3.683,2.292
		c0.416,0.301,0.717,0.517,0.939,0.675c0.565,0.448,1.133,0.896,1.698,1.345c9.22,7.318,18.236,14.351,29.241,18.751
		c12.167,4.865,23.708,2.127,33.476-6.118c7.232-6.105,11.532-16.116,14.562-24.803C183.108,103.976,186.137,93.452,183.993,84.606z
		"/>
	<path opacity="0.2" fill-rule="evenodd" clip-rule="evenodd" fill="#FFFFFF" d="M73.686,21.98
		C73.831,21.828,73.538,21.914,73.686,21.98L73.686,21.98z"/>
	<path opacity="0.2" fill-rule="evenodd" clip-rule="evenodd" fill="#FFFFFF" d="M73.817,22.013
		c-0.062-0.009-0.104-0.02-0.131-0.032c-0.019,0.021-0.046,0.044-0.083,0.073c0.05-0.001,0.1-0.004,0.15-0.006
		C73.774,22.036,73.797,22.024,73.817,22.013z"/>
</g>
<g opacity="0.6">
	<path fill-rule="evenodd" clip-rule="evenodd" d="M261.579,44.912c4.508-1.414,5.675-5.561,8.463-7.807
		c1.232-4.261,1.635-8.618,4.252-12.503c0.947,0.3,1.752,0.554,2.678,0.846c-1.105,6.097-3.669,11.691-3.442,17.95
		c3.394-0.953,4.8-2.165,7.948-6.61c0.968-8.23,3.003-16.435,6.002-24.387c1.012-2.682,2.283-5.27,3.5-7.871
		c0.757-1.616,1.81-3.014,3.564-3.864c1.858-0.566,3.695-0.584,5.361,1.061c1.145,2.212,0.715,4.546-0.029,6.859
		c-1.764,5.49-4.01,10.786-6.741,15.86c-2.346,4.358-4.832,8.64-7.387,13.188c-0.073,2.238,0.187,4.508,2.824,5.91
		c3.809-1.479,4.56-5.626,7.326-8.329c0.776,0.419,1.534,0.827,2.444,1.318c-1.283,4.17-3.754,7.166-6.591,9.582
		c-4.51,1.735-6.788-1.331-9.341-3.718c-2.662,0.911-3.984,3.975-7.153,4.018c-2.886-0.675-2.886-0.675-5.492-2.694
		c-1.429,1.144-2.903,2.324-4.43,3.545c-0.589,0.125-1.208,0.358-1.833,0.372c-4.885,0.108-7.61-3.451-6.223-8.162
		c0.314-1.065,0.887-2.052,1.312-3.086c0.599-1.456,1.169-2.922,1.771-4.435c-0.561-0.608-0.965-1.044-1.279-1.385
		c-0.54,0.087-0.938,0.031-1.14,0.204c-0.723,0.619-1.444,1.261-2.049,1.992c-2.898,3.51-6.452,6.176-10.639,8.316
		c-0.699,1.101-1.501,2.288-2.229,3.521c-2.722,4.609-6.5,6.934-12.152,5.605c-0.727-0.58-1.564-1.247-2.364-1.886
		c-0.381,0.266-0.786,0.393-0.86,0.624c-0.866,2.735-1.726,5.475-2.505,8.235c-1.43,5.062-2.8,10.142-4.222,15.206
		c-0.076,0.272-0.411,0.473-0.703,0.791c-1.301,0.602-2.355,0.307-3.204-1.394c1.696-6.36,3.454-12.95,5.237-19.636
		c-2.509,0.058-4.699,0.34-6.815,0.061c-1.119-0.147-2.109-1.272-2.927-1.806c-1.575-4.326-0.807-8.245,0.132-12.449
		c-0.766-0.187-1.468-0.463-2.184-0.509c-1.266-0.081-2.54-0.022-3.855-0.022c-2.557,2.704-5.089,5.354-7.588,8.035
		c-2.45,2.628-5.447,4.491-8.713,5.816c-4.013,1.63-8.068,2.03-11.964-1.136c-0.398-0.814-0.928-1.793-1.355-2.814
		c-0.243-0.579-0.329-1.226-0.467-1.846c-0.861-3.875,4.64-11.564,10.182-11.391c2.151,0.067,3.963,0.716,4.846,2.868
		c-1.52,1.628-2.869-0.336-4.205,0.211c-6.853,3.011-8.696,6.717-5.885,12.019c1.995,0.774,4.022,0.471,5.975-0.35
		c1.613-0.678,3.268-1.361,4.706-2.335c3.587-2.426,6.604-5.475,9.296-9.011c-1.358-0.714-2.542-1.336-3.635-1.911
		c0.177-1.533,1.162-1.798,2.098-1.873c1.404-0.113,2.824-0.029,4.485-0.029c6.542-9.365,11.873-19.513,17.232-29.914
		c1.136,0.429,1.957,0.739,2.625,0.992c0.129,0.606,0.309,0.94,0.243,1.217c-2.515,10.56-5.073,21.107-7.569,31.671
		c-0.661,2.796-1.226,5.621-1.656,8.46c-0.155,1.021,0.209,2.123,0.318,3.036c2.049,1.127,3.415,0.315,4.545-0.901
		c2.729-2.936,4.951-6.233,6.438-9.969c0.707-1.776,1.154-3.654,1.792-5.461c0.311-0.88,0.788-1.7,1.27-2.716
		c0.997,0.21,1.861,0.393,2.965,0.626c-0.33,1.91-0.615,3.559-0.994,5.757c3.48-2.472,5.713-5.799,9.424-7.022
		c2.61,0.145,2.614,0.141,4.888,1.95c0.311,1.146,0.675,2.481,1.099,4.043c3.298-1.303,5.008-4.001,7.164-6.519
		c-2.143-1.743-3.969-3.52-4.478-6.354c0.349-5.862,3.204-10.352,7.94-12.311c1.749,0.093,2.995,1.082,3.833,2.509
		c0.905,1.544,1.33,3.269,0.979,5.076c-0.306,1.567-0.668,3.127-1.068,4.675c-0.359,1.39-0.805,2.757-1.295,4.411
		c1.065,0.958,2.227,2.002,3.477,3.126c1.053,1.58,0.586,3.271-0.114,4.925c-0.622,1.471-1.327,2.908-2.017,4.351
		C260.605,41.032,260.667,42.693,261.579,44.912z M296.133,3.986c-3.372,4.425-7.666,15.731-7.995,21.045
		c3.932-5.233,5.849-10.947,7.87-16.593C296.446,7.212,297.246,5.861,296.133,3.986z M242.262,32.762
		c-4.535,2.252-7.186,5.699-9.897,9.287c0.521,0.088,0.868,0.265,1.101,0.168c2.779-1.15,5.543-2.342,8.234-3.49
		C242.58,36.895,242.851,35.234,242.262,32.762z M255.452,25.291c0.322-0.155,0.729-0.213,0.848-0.429
		c1.48-2.701,2.097-5.653,2.265-8.687c0.034-0.62-0.546-1.274-0.931-2.103c-2.459,2.274-3.748,4.743-4.125,7.696
		C253.888,23.119,253.777,24.709,255.452,25.291z M213.876,34.073c0.949-3.968,1.813-7.588,2.931-12.264
		c-3.648,4.177-5.368,8.201-7.96,12.264C210.708,34.073,212.041,34.073,213.876,34.073z M237.645,44.893
		c-2.051-0.26-3.301,0.551-4.839,2.41C235.115,47.119,236.59,46.798,237.645,44.893z"/>
	<path fill-rule="evenodd" clip-rule="evenodd" d="M327.182,45.503c1.996-0.854,2.807-2.612,3.526-4.394
		c2.087-5.166,3.616-10.454,3.481-16.434c-1.472,0.248-2.672,0.586-3.882,0.623c-1.574,0.048-3.209,0.078-4.723-0.283
		c-2.386-0.569-3.735-2.306-4.179-4.722c-1.18-6.432,2.535-13.496,8.509-16.182c2.096-0.942,2.096-0.942,5.695-0.542
		c2.079,1.887,2.826,4.498,2.844,7.236c0.039,6.368,0.424,12.742-0.556,19.1c-0.638,4.134-1.783,8.078-3.364,11.923
		c-1.257,3.056-3.046,5.61-6.964,6.856c0.297-0.061-0.016,0.062-0.326,0.059c-6.803-0.092-9.703-3.182-9.028-9.842
		c0.221-2.176,0.284-4.476,1.864-6.584c0.797,0.217,1.629,0.442,2.528,0.687c0.15,2.183-0.298,4.044-0.706,5.885
		c-0.402,1.812-0.143,3.477,0.661,5.131C323.778,45.546,325.352,45.996,327.182,45.503z M334.423,20.786
		c-0.019-4.902,0.966-9.626-0.781-14.258c-6.776,1.658-9.777,7.562-7.786,15.089C328.614,23.271,331.238,22.364,334.423,20.786z"/>
	<path fill-rule="evenodd" clip-rule="evenodd" d="M366.003,21.413c-0.702,0-1.431,0-2.066,0c-1.577-2.351,0.268-4.91-0.935-7.161
		c-0.475,0.052-0.921,0.1-1.636,0.178c-0.237,2.33-0.473,4.638-0.742,7.285c-1.042-0.131-1.863-0.233-2.606-0.326
		c-0.852-5.75-0.399-13.825,1.047-18.472c0.592-0.078,1.306-0.173,2.362-0.311c0.038,2.894,0.073,5.526,0.106,8.097
		c0.642,0.106,0.945,0.156,1.522,0.251c0.345-0.763,0.913-1.556,1.051-2.418c0.299-1.881,0.417-3.794,0.536-5.699
		c0.074-1.19,0.381-2.185,1.746-2.836c0.407,0.124,0.981,0.3,1.329,0.406C368.755,1.762,367.643,14.07,366.003,21.413z"/>
	<path fill-rule="evenodd" clip-rule="evenodd" d="M235.598,66.76c3.16-2.955,3.225-7.2,5.728-10.523
		c0.484,0.848,0.953,1.317,1.004,1.829c0.109,1.104,0.075,2.237-0.024,3.348c-0.352,3.969-0.756,7.934-1.161,12.123
		c-0.176,0.114-0.539,0.35-1.033,0.669c-1.385-2.835,0.085-5.734-0.564-8.703c-2.849,1.463-2.321,4.78-4.064,7.156
		c-0.545-0.686-1.078-1.068-1.197-1.555c-0.572-2.313-1.033-4.654-1.632-7.447c-2.22,3.045-0.911,6.385-1.773,9.24
		c-0.472-0.101-0.764-0.163-1.269-0.271c-1.013-4.251,0.287-8.452,0.751-12.676c0.093-0.848,0.686-1.641,1.179-2.755
		C234.466,59.81,234.184,63.444,235.598,66.76z"/>
	<path fill-rule="evenodd" clip-rule="evenodd" d="M306.425,64.714c-1.274,2.424,0.502,5.021-1.263,7.026
		c-0.069,0.079-0.307,0.01-0.461,0.01c-1.046-3.892-0.741-11.272,0.729-16.033c3.115,3.324,2.093,8.293,5.073,11.835
		c0.77-4.424-0.114-8.684,0.99-12.839c0.517,0.261,0.947,0.355,0.97,0.508c0.772,5.38-0.138,10.752,0.242,16.296
		c-0.891,0.357-1.55,0.621-2.185,0.876C308.165,70.263,308.446,66.931,306.425,64.714z"/>
	<path fill-rule="evenodd" clip-rule="evenodd" d="M339.231,50.915c0.61,1.634,1.268,2.642,1.331,3.685
		c0.346,5.736,0.559,11.482,0.77,17.226c0.013,0.365-0.375,0.746-0.685,1.319c-1.858-1.03-0.798-3.104-2.019-4.386
		c-0.755,0-1.679,0-2.546,0c-0.58,0.85-1.933,2.18-2.457,2.443C333.776,67.421,337.108,54.88,339.231,50.915z M338.795,66.516
		c0.107-1.93,0.271-3.475,0.235-5.016c-0.013-0.556-0.505-1.101-1.213-2.526c-0.205,3.123-1.442,5.066-1.064,7.382
		C337.388,66.405,337.81,66.438,338.795,66.516z"/>
	<path fill-rule="evenodd" clip-rule="evenodd" d="M263.738,74.078c-1.489-3.332-0.599-6.336-0.433-9.278
		c0.17-2.994,0.609-5.973,0.963-9.264c2.178-0.818,4.127-0.593,5.754,1.328c1.172,2.988-0.364,5.242-1.865,7.374
		c0.708,1.376,1.35,2.624,1.912,3.719C269.36,71.521,267.553,73.573,263.738,74.078z M268.368,57.368c-0.923,0-1.59,0-2.475,0
		c-0.117,1.834-0.223,3.487-0.35,5.465C268.238,61.837,268.797,60.166,268.368,57.368z M265.238,71.307
		c2.84-1.484,2.921-1.702,1.727-4.474c-0.434,0-0.885,0-1.409,0C264.802,68.306,264.72,69.756,265.238,71.307z"/>
	<path fill-rule="evenodd" clip-rule="evenodd" d="M349.064,20.213c-1.456-0.469-2.41-0.776-3.254-1.047
		c-1.009-4.08,1.229-7.823,0.07-11.618c-1.387-0.385-2.723-0.757-4.079-1.134c-0.1-0.568-0.177-1.01-0.312-1.787
		c3.928-0.694,7.77-1.449,11.642-1.99c0.756-0.105,1.628,0.622,2.496,0.986c-1.145,2.717-3.98,1.208-5.716,3.043
		C349.032,10.607,349.406,15.039,349.064,20.213z"/>
	<path fill-rule="evenodd" clip-rule="evenodd" d="M297.114,73.406c-0.756-1.906-1.33-3.354-2.05-5.168
		c-0.605,1.607-1.047,2.777-1.539,4.081c-0.495-0.45-0.882-0.636-0.889-0.834c-0.117-3.5,0.963-12.969,1.764-15.672
		c1.566-1.086,3.256-0.591,5.259-0.328c0.547,1.29,1.086,2.557,1.409,3.318c-0.506,3.481-2.729,5.275-4.372,7.617
		c0.592,1.918,1.191,3.856,1.754,5.68c1.069,0.055,1.791,0.092,2.849,0.146c-0.506,0.731-0.841,1.217-1.284,1.858
		C299.056,73.874,298.174,73.661,297.114,73.406z M294.947,64.597c4.084-3.023,4.397-3.667,3.775-7.322
		c-0.944-0.713-1.908-1.095-3.166,0.035C295.373,59.509,295.171,61.92,294.947,64.597z"/>
	<path fill-rule="evenodd" clip-rule="evenodd" d="M348.509,70.555c1.979-3.199,1.85-6.48,2.421-9.562
		c0.571-3.079,0.885-6.205,1.301-9.241c1.071-0.094,1.487,0.366,1.434,1.073c-0.159,2.062-0.328,4.129-0.641,6.171
		c-0.505,3.302-1.084,6.596-1.719,9.876c-0.354,1.833-1.268,3.265-3.501,3.555c-1.984-0.937-2.201-2.924-2.298-4.781
		c-0.124-2.382,0.052-4.781,0.149-7.171c0.091-2.214,0.225-4.428,0.399-6.637c0.028-0.361,0.362-0.699,0.835-1.558
		c0.968,2.444,0.608,4.483,0.586,6.477c-0.022,1.913-0.172,3.829-0.094,5.738C347.46,66.421,346.804,68.55,348.509,70.555z"/>
	<path fill-rule="evenodd" clip-rule="evenodd" d="M283.846,56.93c1.666,4.502-0.223,9.276,1.48,14.378
		c0.704-0.835,1.28-1.207,1.372-1.675c0.732-3.738,1.331-7.503,2.071-11.239c0.161-0.818,0.72-1.559,1.212-2.575
		c1.094,1.748,0.537,3.151,0.291,4.511c-0.481,2.655-1.082,5.29-1.587,7.941c-0.393,2.063-0.945,3.996-3.089,5.127
		c-1.483-0.97-2.557-2.116-2.72-3.79C282.463,65.359,283.064,61.163,283.846,56.93z"/>
	<path fill-rule="evenodd" clip-rule="evenodd" d="M316.86,55.498c1.903-1.526,4.011-1.432,6.168-0.795
		c0.127,0.984-0.349,1.27-1.057,1.337c-1.078,0.103-2.156,0.203-3.436,0.322c-0.333,2.42-0.533,4.588-0.02,7.013
		c1.153,0.282,2.292,0.562,3.528,0.864c-0.603,1.924-2.371,0.91-3.281,1.729c-0.561,0.909-0.561,0.959,0.12,5.347
		c1.338,0,2.715,0,4.892,0c-0.967,0.873-1.306,1.41-1.766,1.553c-1.527,0.472-3.101,0.777-4.682,0.228
		C316.24,69.374,316.036,61.757,316.86,55.498z"/>
	<path fill-rule="evenodd" clip-rule="evenodd" d="M274.602,74.05c-3.018-3.972-1.825-8.314-1.049-12.441
		c0.411-2.184,1.163-4.746,4.26-5.31c0.332,0.601,0.799,1.106,0.897,1.677c0.691,3.984,0.667,7.963-0.428,11.884
		C277.753,71.758,276.794,73.344,274.602,74.05z M275.596,71.063c2.068-3.335,2.415-7.276,1.029-11.707
		C274.258,62.979,273.838,67.752,275.596,71.063z"/>
	<path fill-rule="evenodd" clip-rule="evenodd" d="M246.545,57.564c1.704-0.675,3.141-0.875,4.642,0.005
		c-0.621,1.907-2.306,1.1-3.275,1.76c-0.177,0.26-0.48,0.507-0.508,0.782c-0.213,2.037-0.371,4.08-0.561,6.282
		c1.209,0.309,2.216,0.564,3.212,0.819c-0.082,1.987-2.27,0.928-2.922,2.456c0,0.261,0,0.841,0,1.702
		c1.699,0.079,3.23,0.151,5.559,0.26c-1.017,0.814-1.383,1.348-1.818,1.413c-1.712,0.26-3.438,0.798-5.145,0.24
		C244.438,69.022,244.783,61.753,246.545,57.564z"/>
	<path fill-rule="evenodd" clip-rule="evenodd" d="M255.534,58.123c0.707-0.192,0.997-0.271,1.415-0.385
		c1.016,4.397-0.256,8.884,0.418,13.261c1.018,0.287,1.912,0.538,2.822,0.794c-0.17,0.384-0.296,0.664-0.551,1.237
		c-0.93,0.072-2.013,0.156-3.235,0.251c-0.344-0.51-0.914-0.987-0.987-1.532c-0.189-1.414-0.231-2.859-0.203-4.289
		C255.272,64.438,255.415,61.419,255.534,58.123z"/>
	<path fill-rule="evenodd" clip-rule="evenodd" d="M275.69,15.409c0.351-0.324,0.794-0.734,1.432-1.324
		c0.726,0.572,1.387,1.091,2.353,1.852c-0.888,0.67-1.448,1.093-1.84,1.389C276.337,17.147,275.489,16.865,275.69,15.409z"/>
	<path fill-rule="evenodd" clip-rule="evenodd" d="M326.267,74.977c0.55-1.542,1.034-3.118,2.677-4.848
		c0.391,2.643-0.347,4.114-1.865,5.27C326.988,75.467,326.613,75.162,326.267,74.977z"/>
</g>
<path opacity="0.6" fill-rule="evenodd" clip-rule="evenodd" d="M112.531,12.677c-0.821,4.725-4.896,7.826-7.244,12.144
	c0.412,0.482,0.709,1.139,1.2,1.356c6.127,2.717,12.28,5.377,18.436,8.027c0.571,0.246,1.21,0.335,1.958,0.533
	c2.54-2.483,4.423-5.459,6.271-8.389c0.773-1.228,0.673-3.057,0.791-4.626c0.07-0.933-0.141-1.906-0.339-2.837
	c-0.825-3.885-0.681-7.606,1.495-11.099c0.583-0.938,0.913-2.033,1.431-3.221c0.564-0.34,1.237-0.745,1.908-1.148
	c0.521,0.139,1.031,0.163,1.418,0.395c1.837,1.097,3.22,2.621,3.983,4.638c0.733,1.938,1.564,3.858,2.075,5.856
	c1.087,4.252,2.764,8.155,5.854,11.352c2.432,2.516,3.786,5.579,4.045,9.009c0.331,4.399,2.419,7.839,5.227,11.037
	c4.11,4.683,8.119,9.456,12.191,14.173c3.811,4.416,6.488,9.438,8.317,14.969c0.851,2.573,1.984,5.054,3.012,7.567
	c1.747,4.271,1.723,8.486,0.962,13.102c-1.29,7.835-4.702,14.906-7.011,22.355c-1.105,3.567-3.414,6.853-5.606,9.963
	c-1.737,2.464-3.788,4.703-5.33,7.341c-1.972,3.375-4.774,5.975-8.23,7.761c-2.861,1.345-5.723,2.688-9.515,4.47
	c-0.533-0.099-2.062-0.383-3.443-0.639c-3.297,0.18-6.475,0.354-9.81,0.535c-3.035-1.989-6.17-3.901-9.143-6.038
	c-2.458-1.766-4.594-3.847-6.294-6.472c-2.305-3.558-5.583-6.121-10.146-7.643c-1.284,0-3.028,0-5.006,0
	c-1.092-1.058-2.471-1.995-3.312-3.283c-2.253-3.451-5.21-6.003-8.848-7.85c-0.706-0.358-1.35-0.842-1.896-1.188
	c-3.463-0.809-6.761-0.913-10.135-0.336c-3.299,0.564-6.69,0.622-9.963,1.286c-2.79,0.565-5.484,1.635-8.193,2.562
	c-2.474,0.848-4.459,2.354-6.104,4.438c-3.102,3.93-7.121,6.295-12.21,6.746c-4.998,0.443-9.692,1.959-13.959,4.602
	c-2.013,1.247-4.131,1.604-6.642,1.515c-4.954-1.589-6.944-5.351-7.047-10.517c-0.106-5.352-1.314-10.36-4.381-14.925
	c-3.205-4.771-6.059-9.774-9.104-14.652c-2.629-4.208-3.932-8.713-3.204-14.15c1.23-2.968,2.762-6.305,4.001-9.748
	c1.625-4.518,4.724-7.494,9.025-9.352c1.319-0.568,2.673-1.066,4.034-1.526c2.284-0.771,4.362-1.817,6.316-3.307
	c1.473-1.123,3.351-1.885,5.167-2.348c4.089-1.045,6.854-3.491,8.109-7.402c1.274-3.975,3.723-7.01,6.717-9.73
	c0.708-0.644,1.56-1.187,2.103-1.948c3.837-5.389,9.168-9.332,13.449-14.116c3.688-1.455,6.589,0.773,9.389,1.701
	c2.262-0.077,3.487-1.427,4.943-2.405c0.693-1.283,1.446-2.513,2.04-3.815c1.24-2.721,3.251-4.661,5.728-6.275
	c2.179-1.419,4.299-2.656,7.07-2.399c1.239,0.114,2.522-0.414,3.793-0.463c2.069-0.08,4.178-0.239,6.208,0.055
	c3.469,0.502,6.895,1.306,10.328,2.031C110.672,10.613,111.904,11.015,112.531,12.677z M137.534,145.752
	c-0.373-7.169,0.661-8.829,6.148-10.571c5.085,1.598,5.854,2.78,5.19,7.912c-0.094,0.73-0.089,1.473-0.125,2.134
	c0.477,0.136,0.66,0.257,0.77,0.209c3.326-1.44,6.65-2.887,9.959-4.367c0.426-0.19,0.755-0.588,1.145-0.866
	c2.382-1.702,4.165-3.94,5.807-6.328c1.716-2.496,3.502-4.944,5.278-7.398c2.732-3.778,4.983-7.796,6.247-12.32
	c0.387-1.383,0.669-2.83,1.287-4.107c2.394-4.938,3.559-10.218,4.81-15.515c0.891-3.769,0.641-7.253-0.73-10.773
	c-1.276-3.275-2.513-6.565-3.779-9.845c-2.094-5.42-5.018-10.297-8.934-14.643c-4.276-4.747-8.315-9.708-12.44-14.591
	c-2.109-2.496-3.552-5.296-3.846-8.617c-0.351-3.961-1.914-7.391-4.635-10.292c-2.693-2.873-4.214-6.29-5.147-10.109
	c-0.639-2.611-1.771-5.119-2.861-7.595c-0.57-1.292-1.424-2.54-3.469-2.63c-0.69,1.255-1.49,2.612-2.198,4.015
	c-1.326,2.629-2.017,5.288-1.164,8.312c0.511,1.812,0.536,3.812,0.471,5.716c-0.047,1.388-0.28,2.954-0.986,4.098
	c-1.831,2.966-3.969,5.743-6.052,8.691c-1.234-0.134-2.387-0.062-3.401-0.398c-6.383-2.122-12.461-4.972-18.468-7.97
	c-1.447-0.723-2.737-1.709-2.737-3.567c1.843-4.237,6.343-6.851,7.138-11.76c-0.565-0.247-0.975-0.533-1.419-0.604
	c-6.725-1.069-13.322-3.585-20.307-1.782c-0.756,0.195-1.585,0.108-2.099,0.137c-4.794,1.874-8.167,4.869-10.127,9.354
	c-1.317,3.015-3.631,4.768-6.949,5.573c-2.862-0.268-5.101-3.301-8.931-2.282c-3.38,4.055-8.302,7.217-11.636,12.013
	c-1.076,1.549-2.589,2.815-3.987,4.117c-2.729,2.543-4.97,5.364-6.149,8.993c-1.375,4.231-4.163,7.128-8.588,8.224
	c-2.374,0.587-4.394,1.806-6.383,3.185c-1.424,0.986-3.031,1.734-4.621,2.444c-1.6,0.715-3.268,1.287-4.928,1.857
	c-3.904,1.343-6.349,4.136-7.91,7.835c-0.932,2.209-1.807,4.445-2.829,6.612c-2.718,5.756-1.878,11.149,1.441,16.372
	c3.172,4.991,6.233,10.054,9.432,15.027c2.846,4.426,4.384,9.236,4.276,14.475c-0.08,3.961,1.221,7.159,4.195,9.677
	c2.505,0.673,4.793,0.586,6.986-0.812c4.528-2.888,9.521-4.353,14.844-4.955c4.291-0.486,7.979-2.344,10.631-5.853
	c2.531-3.349,6.051-5.333,9.847-6.526c8.609-2.707,17.485-3.496,26.595-2.791c2.664,1.778,5.537,3.299,7.906,5.391
	c2.35,2.073,4.19,4.724,6.295,7.168c4.496-0.524,8.352,0.896,11.64,3.647c1.817,1.521,3.274,3.473,4.888,5.235
	c1.177,1.284,2.285,2.637,3.528,3.854C129.553,141.197,133.346,143.227,137.534,145.752z"/>
<path opacity="0.6" fill-rule="evenodd" clip-rule="evenodd" d="M167.933,147.829c-1.693-0.615-3.165-1.15-5.079-1.847
	c0.781-0.626,1.249-1.26,1.852-1.441c3.208-0.957,6.429-1.891,9.685-2.662c5.418-1.285,10.194-3.817,14.299-7.488
	c5.781-5.173,12.318-9.221,19.287-12.396c6.98-3.182,14.4-5.188,22.188-5.497c12.611-0.499,23.579,3.36,32.629,12.233
	c4.12,4.041,6.343,8.851,6.772,14.833c0.874,12.198-3.801,22.132-11.437,31.047c-3.232,3.773-6.939,7.001-11.211,9.658
	c-5.542,3.448-11.556,5.368-17.887,6.53c-13.128,2.41-25.069-0.732-35.994-8.013c-5.672-3.779-10.027-8.915-13.388-14.84
	c-3.073-5.418-5.998-10.919-9.059-16.344C169.816,150.23,168.773,149.009,167.933,147.829z M168.881,145.843
	c1.227,1.855,2.311,3.087,2.944,4.518c2.598,5.861,6.229,11.131,9.369,16.68c5.059,8.936,12.324,15.49,21.88,19.186
	c8.779,3.396,17.902,4.699,27.243,2.47c6.387-1.524,12.714-3.335,17.929-7.57c2.967-2.409,5.94-4.909,8.435-7.781
	c7.699-8.864,12.419-18.834,11.053-31.052c-0.467-4.176-1.862-7.778-4.575-10.814c-8.133-9.102-18.561-13.496-30.588-13.474
	c-9.01,0.018-17.662,2.377-25.736,6.538c-6.406,3.301-12.454,7.14-17.87,11.93c-3.888,3.438-8.304,5.895-13.348,7.229
	C173.468,144.27,171.374,145.043,168.881,145.843z"/>
<path opacity="0.6" fill-rule="evenodd" clip-rule="evenodd" d="M149.889,171.427c-0.869-0.561-1.939-0.994-2.652-1.76
	c-2.767-2.967-4.555-6.525-5.77-10.367c-0.558-1.768-0.441-3.471,0.956-4.759c2.384-1.419,3.993,0.487,5.636,1.077
	c3.195,0.382,6.241-0.371,9.279,0.526c1.106,3.743-1.402,6.479-2.414,9.525C154.124,168.082,152.699,170.257,149.889,171.427z
	 M149.989,169.854c3.327-2.693,3.989-6.284,5.404-9.442c0.429-0.958,1.256-1.934,0.128-3.3c-2.67,0-5.533,0-8.061,0
	c-0.913-0.514-1.466-0.832-2.024-1.139c-0.519-0.284-1.043-0.559-1.435-0.768c-1.651,1.141-1.37,2.5-0.971,3.66
	C144.437,162.948,146.174,166.859,149.989,169.854z"/>
<g opacity="0.6">
	<path fill-rule="evenodd" clip-rule="evenodd" d="M212.542,140.752c1.652,0,3.395,0,5.278,0c2.695,1.811,3.904,4.547,3.95,7.661
		c0.056,3.805-0.309,7.615-0.469,11.424c-0.096,2.282-0.98,4.32-1.844,6.381c-1.371,3.27-3.654,5.112-7.523,4.936
		c-0.186-0.546-0.535-1.11-0.548-1.682c-0.188-8.113-0.334-16.229-0.477-24.343C210.882,143.518,211.005,141.944,212.542,140.752z
		 M212.948,142.634c-0.893,9.642-0.322,21.791,1.22,26.146c1.631-0.506,2.764-1.563,3.395-3.09c0.668-1.616,1.354-3.262,1.714-4.963
		c0.867-4.094,0.765-8.269,0.593-12.423c-0.088-2.126-0.809-4.061-2.617-5.614c-0.509-0.085-1.129-0.267-1.751-0.273
		C214.716,142.408,213.929,142.543,212.948,142.634z"/>
	<path fill-rule="evenodd" clip-rule="evenodd" d="M250.716,134.275c0.058,1.111,0.172,2.146,0.152,3.177
		c-0.065,3.51-0.059,7.027-0.302,10.526c-0.364,5.251-0.797,10.504-1.465,15.722c-0.191,1.482-1.119,2.979-2.042,4.223
		c-0.704,0.95-1.932,1.513-2.709,2.087c-4.555-1.257-5.531-2.347-5.741-6.234c-0.101-1.849-0.278-3.749,1.196-5.854
		c0.894,1.558,0.58,2.789,0.63,3.934c0.049,1.113,0.011,2.23,0.011,2.958c0.774,1.739,1.466,2.993,3.553,3.119
		c0.746-0.597,1.717-1.373,2.231-1.785c1.671-2.684,2.722-12.852,2.022-17.656c-1.783,1.023-2.872,3.308-5.273,2.813
		c-1.409-0.5-1.7-1.852-2.145-3.002c-1.308-3.385-0.505-6.97-0.828-10.453c-0.046-0.492,0.317-1.022,0.776-2.376
		c1.069,3.163,0.626,5.54,0.916,7.822c0.278,2.191,0.382,4.479,1.896,6.276c1.83-0.105,2.517-1.422,3.1-2.735
		c1.371-3.092,2.197-6.328,2.382-9.726C249.135,136.051,248.968,134.788,250.716,134.275z"/>
	<path fill-rule="evenodd" clip-rule="evenodd" d="M234.218,169.284c-1.845-2.963-1.064-5.382-2.074-7.625
		c-2.548-0.276-4.927,0.403-7.552,1.563c-0.251,1.912-0.515,3.924-0.866,6.6c-0.629-0.968-1.189-1.432-1.18-1.884
		c0.043-2.221-0.01-4.489,0.429-6.647c1.02-5.013,1.869-10.023,2.199-15.143c0.18-2.795,0.482-5.703,2.259-8.091
		c0.428,0.123,0.912,0.134,0.972,0.299c1.363,3.735,3.092,7.401,3.909,11.259c1.186,5.602,1.726,11.344,2.489,17.032
		C234.873,167.172,234.573,167.746,234.218,169.284z M227.491,143.501c-0.287,5.697-1.941,11.182-2.212,17.138
		c2.368-0.548,4.343-1.004,6.208-1.436C232.068,154.329,230.844,149.059,227.491,143.501z"/>
	<path fill-rule="evenodd" clip-rule="evenodd" d="M197.653,139.763c2.162-0.348,3.847,0.066,4.979,1.64
		c0.779,1.083,1.881,2.243,0.778,3.926c-1.892-0.887-2.009-4-4.995-3.579c-2.011,1.522-2.635,4.064-3.007,6.538
		c-0.964,6.405-0.362,12.78,1.219,19.024c0.482,1.904,1.075,4.021,3.123,5.081c2.363-2.404,2.852-3.853,3.166-9.431
		c-1.134-0.207-2.305-0.422-3.524-0.645c0-0.363,0-0.663,0-1.298c1.721-0.472,3.438-1.134,5.642-0.582
		c0.177,4.106-0.659,7.934-2.35,11.552c-0.605,1.295-1.779,2.251-3.732,2.309c-0.516-0.482-1.316-1.025-1.833-1.767
		c-0.724-1.037-1.433-2.161-1.805-3.355c-2.416-7.765-3.125-15.649-1.142-23.621C194.71,143.396,195.473,141.254,197.653,139.763z"
		/>
	<path fill-rule="evenodd" clip-rule="evenodd" d="M254.444,153.959c-0.308-0.86-0.615-1.283-0.575-1.671
		c0.657-6.312,0.863-12.666,1.729-18.959c0.01-0.074,0.267-0.114,0.61-0.25c0.163,0.324,0.502,0.676,0.482,1.007
		c-0.347,6.047-0.718,12.093-1.153,18.134C255.502,152.71,254.96,153.165,254.444,153.959z"/>
	<path fill-rule="evenodd" clip-rule="evenodd" d="M208.293,141.145c-2.886-0.185-1.058-4.091-1.097-6.941
		c1.237-0.348,1.732,0.082,1.74,0.59C208.958,136.167,208.473,139.265,208.293,141.145z"/>
	<path fill-rule="evenodd" clip-rule="evenodd" d="M254.993,163.358c-0.961-0.606-0.764-1.239,0.054-1.729
		c0.587-0.352,1.099,0.542,0.669,1.244C255.581,163.092,255.252,163.192,254.993,163.358z"/>
</g>
</svg>
