<svg xmlns="http://www.w3.org/2000/svg" viewBox="0 0 270 174" enable-background="new 0 0 270 174"><path opacity=".2" fill="#fff" d="M235.098 60.828c-.668-5.068-2.239-9.316-6.905-12.054-4.362-2.559-9.704-2.453-14.074 0-9.024 5.065-16.553 11.693-23.991 18.738-1.768-8.55-6.393-16.113-12.225-22.538-5.112-5.633-14.537-5.186-19.716 0-2.057 2.059-3.286 4.526-3.766 7.101-2.235 1.744-3.909 4.137-4.466 7.035-1.522 7.928-.151 15.099 2.385 22.637.485 1.443.967 2.886 1.427 4.337.161.505 1.095 4.965 1.042 3.801.23 2.375.232 4.792.385 7.172.867 13.43 4.868 28.441 18.43 34.321 9.49 4.115 17.933-.064 20.428-9.285l.275-.474.39-.589c.356-.403.708-.812 1.083-1.198 2.12-2.261 4.568-4.227 6.962-6.184 4.478-3.661 8.743-7.209 12.622-11.511 9.719-10.782 21.771-25.705 19.714-41.309z"/><path opacity=".2" fill="#fff" d="M83.613 92.276c-20.227-9.909-43.572-.898-64.727-.667-8.419.091-12.589 6.735-12.514 13.274-2.517 3.878-3.135 8.798.008 12.877.274.356.471.578.617.716-.059.37.201 2.292.194 2.557-.075 2.86-.544 5.716-.762 8.568-.436 5.687 1.06 11.094 2.922 16.394 4.318 12.288 12.409 26.938 27.349 27.142 3.104.042 6.21-.51 9.182-1.384 1.226-.36 2.435-.793 3.652-1.183.277-.089 2.11-.38 2.51-.523.713.055 1.52.121 1.298.063 1.006.166 2.01.35 3.012.528 3.29.586 6.613 1.084 9.947 1.315 7.252.502 14.403-2.632 18.492-8.668 2.653-3.914 4.027-8.941 5.468-13.418 5.736-17.803 15.401-46.79-6.648-57.591z"/><path d="M89.376 83.383l2.073 5.174c.206 5.683.447 12.32.684 18.842.974.574 1.289-.117 1.702-.542 1.109-1.143 2.115-2.406 3.325-3.426 4.486-3.779 9.366-3.342 12.885 1.285 3.041 3.998 4.985 8.545 5.415 13.595.449 5.269.056 10.5-1.057 15.688-1.132 5.275-3.757 9.807-6.932 14.014-3.083 4.085-7.417 5.873-12.503 5.845-2.67-.015-4.985-.953-6.861-2.858-.276-.279-.276-.832-.396-1.232.923-.855 1.497-.056 2.11.288 5.317 2.983 11.409 2.098 15.558-2.453 4.884-5.356 7.56-11.755 8.217-18.945.289-3.167.313-6.371.242-9.554-.11-4.972-2.202-9.286-5.085-13.172-3.003-4.048-6.926-4.287-10.692-.981-2.943 2.583-4.749 5.919-6.319 9.41-.163.362.087.911.194 1.755 2.754-2.248 5.3-4.349 7.871-6.418 1.833-1.475 3.778-2.426 6.282-.924 1.742 1.712 2.821 3.963 3.354 6.52 1.914 9.189.811 18.111-2.754 26.683-1.509 3.629-4.634 5.987-8.031 7.847-4.344.505-6.967-2.713-10.423-4.602-.71 1.059-.811 2.277-.987 3.473-.44 2.992-.843 5.991-1.353 8.972-.489 2.855-1.552 5.436-3.294 7.84-2.745 3.787-6.829 5.054-10.915 6.324-7.253 2.254-14.732 2.341-22.238 2.042-5.081-.203-10.166-.287-15.245-.513-1.417-.062-2.841-.351-4.226-.687-3.875-.94-7.566-2.369-10.992-4.439-2.109-1.275-3.601-3.051-4.631-5.312-1.857-4.075-3.461-8.263-4.165-12.665-1.082-6.758-1.893-13.564-2.626-20.371-.632-5.866-1.136-11.749-2.556-17.486-1.976-7.986-2.368-16.047-1.503-24.195.048-.449.301-.875.543-1.543 1.851-.414 3.708.186 5.565.237 2.374.064 4.752.145 7.124.083 5.568-.146 11.134-.464 16.703-.545 7.957-.118 15.916-.149 23.874-.094 4.135.028 8.292.096 12.397.544 6.045.66 11.995-.057 18.009-.353l1.782-3.026-.125-.125zm-32.024 10.958c-5.165.877-10.33 1.98-15.457-.118-4.255 1.006-8.499 1.481-12.811 1.015-3.632-.394-7.259-1.003-10.9-1.101-3.631-.099-7.28.274-10.913.546-.721.055-1.406.591-2.194.944.329 4.935.097 9.744 1.447 14.356 1.621 5.539 2.238 11.249 2.669 16.92.52 6.843 1.403 13.623 2.326 20.406.69 5.079 2.412 9.873 4.366 14.594.956 2.31 2.399 4.329 4.581 5.321 4.461 2.026 8.925 4.173 14.034 4.214 4.45.037 8.896.31 13.346.44 3.34.097 6.687.279 10.022.166 6.23-.211 12.319-1.209 18.111-3.705 4.124-1.776 6.607-4.898 7.744-9.121.578-2.146.888-4.369 1.25-6.569.931-5.659 1.851-11.321 2.72-16.99.482-3.147.949-6.302 1.254-9.47.427-4.438.795-8.887 1.009-13.34.245-5.089.309-10.186.417-15.28.03-1.421-.067-2.842-1.073-4.221-2.505.333-5.137.233-7.415 1.083-4.366 1.63-8.742.652-13.11.726-.67.012-1.35-.638-2.026-.982 7.655.545 15.202.136 22.516-2.544.558-1.205.813-2.368-.186-3.193-5.783.242-11.382 1.064-16.858.558-7.167-.663-14.3-.538-21.45-.553-8.435-.017-16.872.017-25.305.172-6.346.116-12.683 1.102-19.037.119-.12-.018-.265.128-.649.327-.108.403-.372.985-.399 1.579-.035.75.122 1.508.236 2.674 2.544-.356 4.854.284 7.225-.461 1.182-.37 2.517-.475 3.759-.382 3.803.287 7.617.591 11.385 1.16 2.534.383 4.964.774 7.553.207 2.143-.469 4.491-.89 6.588-.491 4.427.843 8.752 1.105 13.171.137.593-.13 1.365.551 2.054.857zm33.401 26.777c.408 6.9-1.031 13.75-2.453 20.421 2.709 3.126 5.555 5.568 9.65 6.346 3.551-1.61 6.238-4.18 7.701-7.909 3.102-7.911 3.733-16.08 2.174-24.394-.468-2.498-1.408-4.896-4.446-5.976-4.877 2.936-9.295 6.432-12.626 11.512zm-32.927-50.46l-2.814-.438c-2.185 1.378-3.306 3.972-6.05 4.96l-3.108-2.084h-3.954c-.513.446-.999.687-1.2 1.075-1.018 1.962-1.957 3.964-2.935 5.947-.32.649-.678 1.279-1.133 2.134-1.295-3.002 1.042-4.779 1.538-7.098l-1.392-3.728c-1.353-1.633-2.802-2.437-5.259-1.848l-3.54 3.353c-.797-3.106-3.099-3.629-5.784-3.5-2.099.102-4.075.541-5.833 1.986l-.768 2.639-6.403-.413c1.129-1.36 2.703-1.303 4.395-1.383 4.229-4.719 9.32-5.197 14.96-2.476l4.409-1.913c3.487.255 4.62 2.987 6.133 4.852l5.53-1.565 4.4 2.369c2.18-.577 2.95-2.794 4.803-4.128h3.657l.247 1.359.101-.1zm-55.007 11.717l.705 2.691-2.81.973v4.917c-1.989-4.162.811-6.535.768-9.298l3.724-2.746 1.663-3.366 1.361 4.172c-2.233-.416-3.673 1.114-5.411 2.657zm72.54-5.357l-4.283-.678c-4.417.379-6.585 3.683-8.523 7.39-.242-.533-.51-.83-.457-1.048.904-3.717 3.405-6.03 6.874-7.212 2.323-.791 4.615-.475 6.313 1.637l.076-.089zm-.077.089l2.953-.181 1.882-2.762c2.884-.214 5.198-.517 6.748 1.862l.098-.1-4.18-.917c-2.636.282-3.058 2.879-5.033 3.984l-2.391-1.976-.077.09zm-17.559-6.348c1.889-.986 3.325.177 4.775 1.069 1.181.724 2.409 1.502 2.163 3.737-1.959-2.497-4.334-3.79-6.819-4.923l-.119.117zm31.778 12.75l.954-1.688c-.306-.915-.605-1.807-.896-2.707l-.105.101c2.158 1.061 2.65 2.666 1.209 4.196-.197.21-.834.005-1.278-.019l.116.117zm-70.711-5.716c1.637-1.308 2.873-.194 4.715.894-2.096.084-3.483-.389-4.841-1.007l.126.113zm-.126-.113c.723 1.688-.619 2.681-1.386 4.989-.413-2.727.117-3.963 1.52-4.868l-.134-.121zm68.201-1.653c1.509.531 3.078 1.013 2.596 3.182l.098-.094c-.764-1.144-2.489-1.506-2.598-3.185l-.096.097zm-26.844 43.223c.974-5.709-1.082-10.88-2.449-16.004-.709-.17-1.023-.334-1.315-.302-4.239.466-8.476.946-12.708 1.465-.444.055-.857.374-1.233.546-1.921 1.85-1.445 4.112-1.279 6.308.164 2.181.341 4.362.205 6.575l1.951 7.467 3.61 3.481c-3.356-.311-5.054-2.441-5.623-5.494-.575-3.087-1.391-6.138-1.091-9.374.187-2.015-.212-4.084-.396-6.837.195-1.059.943-2.574 2.718-3.768l15.05-1.611c3.331 3.877 2.829 8.897 4.195 13.378-.561 1.366.01 3.176-1.635 4.17zm-29.637 10.383c-3.078 3.145-6.68 2.465-10.159 1.11-2.198-.856-4.233-2.226-5.203-3.914-.878-3.295-1.789-6.018-2.289-8.813-.388-2.169-.439-4.439-.323-6.647.169-3.209 2.103-5.326 5.023-6.343 2.232-.778 4.538-1.44 7.008-1.123 1.881.241 3.793.242 5.832.358l1.027 1.537.171-.115c-2.834-.202-5.685-.692-8.497-.527-3.127.185-6.39.575-8.813 4.204-.137 1.222-.723 3.14-.481 4.949.543 4.056 1.498 8.056 2.281 12.06.537.413.941.675 1.289.998 3.299 3.071 7.039 4.097 11.384 2.572.577-.203 1.245-.144 1.871-.206l-.121-.1zm43.779 33.301c-.314 1.269-1.373 1.332-2.247 1.062-1.182-.364-2.262-1.065-3.386-1.621-2.469-4.591-3.497-9.222-2.05-14.29.828-2.901 1.45-5.863 2.072-8.817.334-1.589.722-3.098 2.314-4.412 3.977-.563 8.201-2.064 12.555.025l-11.343.638c-1.572 1.029-2.031 2.395-2.347 3.792-.701 3.098-1.333 6.21-1.978 9.32-1.104 5.325-.818 7.344 1.808 12.864 1.291 1.288 2.841 1.908 4.717 1.56l-.115-.121zm-23.619 1.141c-1.178.242-2.288.068-2.96-.986-1.014-1.59-2.293-3.161-2.759-4.924-1.669-6.315-2.29-12.783-1.974-19.322.015-.303.194-.596.411-1.228.544-.345 1.289-1.194 2.103-1.268 4.091-.369 8.2-.55 12.305-.75.429-.021.874.269 1.551.495l-.142 2.237.092-.07-2.482-1.353c-3.943.353-7.902.077-11.461.847-1.6 1.27-1.555 2.747-1.396 4.154.513 4.553 1.23 9.085 1.658 13.644.348 3.715 2.138 6.453 4.997 8.641l.057-.117zm-16.199-24.727l-2.232-1.26c-1.688.346-3.54.742-5.399 1.101-1.851.357-3.709.677-5.638 1.026-.643 3.896-.28 7.543-.12 11.169.087 1.988 1.307 3.536 2.674 4.929.991 1.009 2.21 1.903 2.076 3.574-.679-.65-1.313-1.356-2.044-1.941-3.107-2.487-4.236-5.717-3.924-9.629.111-1.391-.229-2.818-.361-4.228-.133-1.416-.274-2.833.707-4.58 4.097-1.749 8.802-1.788 13.71-2.455l.551 2.294zm33.505-14.575c-.37-.433-.943-.811-1.078-1.308-1.518-5.585-1.694-11.314-1.547-17.045.055-2.134.805-4.086 3.274-4.672l-.098-.095c-1.775 3.778-1.708 3.778-1.756 8.986-.034 3.669-.024 7.303.952 10.888.284 1.044.12 2.209.159 3.321l.094-.075zm6.428 38.282l4.455-3.989c.948-3.996 1.997-7.184 2.396-10.452.38-3.117.082-6.317.082-9.938 1.597 6.584 1.147 13.66-1.017 19.093-.926 2.323-2.643 3.921-4.653 5.241-.309.203-.903-.031-1.372-.069l.109.114zm8.941-35.14c-.023-.312-.163-.672-.053-.925 2.5-5.779 2.349-11.725 1.196-17.75-.473-2.469-.872-4.953-1.411-8.041 1.409 1.303 1.801 2.479 2.051 3.784 1.079 5.627 1.623 11.285.867 16.994-.292 2.204-.879 4.344-2.747 5.841l.097.097zm-24.139 10.413c.471.356 1.203.622 1.364 1.087.563 1.617 1.313 3.308 1.295 4.963-.053 4.865-.563 9.709-1.959 14.408-.063.212-.477.321-.728.478l.128.115c.214-2.525.316-5.066.665-7.573.635-4.572 1.038-9.105-.673-13.549l-.092.071zm-23.933 24.943c1.596-4.413 1.29-8.97.807-13.483-.382-3.571-1.157-7.099-1.757-10.646 1.302.303 1.653 1.346 1.836 2.46.433 2.643.857 5.287 1.209 7.94.164 1.234.239 2.493.202 3.736-.078 2.678-.253 5.354-.404 8.326l-1.893 1.667zm33.353-61.524c3.654-1.573 7.588-1.533 11.58-1.827-.277.239-.523.629-.834.69-1.868.367-3.742.761-5.633.945-1.719.169-3.463.083-5.203.102l.09.09zm14.621 26.071c-.544.509-1.075 1.442-1.635 1.46-3.633.11-7.326 1.07-10.883-.496l-.131.139c4.29.211 8.539-.092 12.743-1.01l-.094-.093zm-49.854-18.182c.302.32.81.606.87.967.419 2.482.779 4.975 1.076 7.476.093.783-.104 1.576-.992 1.933l.114.108c-.32-3.529-.64-7.058-.961-10.587l-.107.103zm23.84-15.435l5.553-1.316 4.223 1.424c-2.504-.246-4.972-.503-7.375.74-.764.395-1.88.234-2.401-.848zm-.879 33.149c.611-3.105 2.146-5.773 3.925-8.326-.433 3.19-1.572 6.045-3.925 8.326zm-27.782 35.747l3.847 1.62 3.015-1.646c-.234 1.852-1.681 2.342-3.26 2.92-1.478-.565-3.127-.944-3.602-2.894zm18.135-34.444c3.154.327 6.265.215 9.272-.931-3.193 2.38-5.876 2.649-9.272.931zm12.471 30.612c.377 1.457.065 2.761-.795 3.982-.511.725-1.163.976-2.004.844l.049.095c.721-1.442 1.426-2.894 2.18-4.319.118-.224.46-.328.699-.488l-.129-.114zm-2.799 4.826c-1.907 1.426-3.81 1.434-5.708-.016l-.057.117 5.814-.006-.049-.095zm14.35-35.309c-2.71-1.157-2.761-1.232-2.755-4.007l-.091.072c.908 1.354 1.815 2.71 2.718 4.07l.128-.135zm-37.331-2.922c-.104 1.916-.877 3.319-2.887 3.772l.121.099c.666-1.497 1.234-3.068 2.874-3.834l-.108-.037zm.95-5.849c.297 2.05.266 4.046-.95 5.849l.107.038c.018-1.255-.063-2.522.092-3.76.088-.698.564-1.348.865-2.019l-.114-.108zm-8.133 40.25c1.794.204 2.476 1.343 2.525 3.014-1.421-.519-1.781-1.928-2.525-3.014zm5.212-54.463c1.018.279 1.142 1.022.988 1.91l.127-.093c-1.099-.26-.776-1.216-.944-1.932l-.171.115zm.988 1.91c1.169.214.971 1.123.978 1.928l.108-.103c-1.028-.283-.91-1.142-.959-1.917l-.127.092z" opacity=".6" fill-rule="evenodd" clip-rule="evenodd"/><path d="M178.249 135.741c-1.224-3.783-2.229-6.791-3.17-9.819-1.467-4.72-3.31-9.262-5.442-13.739-5.061-10.63-9.912-21.366-14.642-32.148-2.11-4.809-3.53-9.901-4.424-15.094-1.437-8.356 1.145-15.515 7.182-21.243 6.561-6.227 14.802-5.539 21.094.001 3.026 2.666 5.258 5.94 6.941 9.606 1.798 3.92 3.262 7.947 4.106 12.187.122.611.297 1.211.493 2 .534-.254 1.072-.328 1.252-.622 5.002-8.137 12.627-13.314 20.433-18.311 2.091-1.339 4.338-2.018 6.767-1.887 5.627.302 10.113 2.437 12.46 7.978 2.05 4.841 2.508 9.791 1.657 14.97-1.134 6.902-4.01 12.972-7.881 18.744-7.406 11.043-15.977 21.027-25.965 29.79-5.503 4.829-11.024 9.638-16.57 14.416-1.173 1.01-2.49 1.849-4.291 3.171zm11.19-63.649c-1.104-1.65-.823-3.302-1.103-4.803-1.514-8.126-4.193-15.68-10.273-21.639-6.269-6.144-14.815-5.693-20.237.519-4.742 5.432-6.775 11.752-5.221 19.048 1.299 6.099 3.019 12.031 5.656 17.701 4.497 9.668 8.781 19.439 13.411 29.043 2.085 4.324 3.866 8.72 5.292 13.284.7 2.242 1.446 4.47 2.225 6.869 3.693-1.313 6.086-3.949 8.678-6.227 4.18-3.674 8.07-7.682 12.301-11.293 10.159-8.668 18.267-19.026 25.302-30.279 2.796-4.473 4.979-9.226 5.687-14.569.727-5.49.501-10.72-2.263-15.762-2.645-4.826-11.004-6.982-15.536-4.232-6.442 3.91-12.464 8.286-17.356 14.057-1.848 2.18-3.396 4.612-5.113 6.904-.343.459-.835.804-1.45 1.379zm-48.621-72.092c.512.243 1.087.331 1.337.664 4.106 5.474 7.907 11.114 9.384 17.971.81 3.765.7 7.57.46 11.369-.04.619-.734 1.197-1.33 2.106-2.057-2.119-3.562-4.176-4.542-6.426-2.715-6.241-5.624-12.434-7.03-19.159-.257-1.227-.371-2.507-.358-3.762.012-1.143.477-2.156 2.079-2.763zm-.358 2.697c-.03 3.597 1.045 6.545 2.1 9.44 3.866 10.615 4.667 12.146 7.192 14.615 1.341-7.629-2.407-17.629-9.292-24.055zm104.981 45.12l-2.117-.807c-.02-.414-.166-.842-.028-.974 2.058-1.97 4.158-3.895 6.237-5.844 3.474-3.257 6.985-6.475 10.389-9.804 2.166-2.119 4.295-4.223 7.039-5.119 1.709.126 2.604.885 3.04 2.373-1.464 3.332-3.608 6.377-6.469 8.629-4.36 3.432-9.027 6.484-13.646 9.573-1.296.866-2.883 1.296-4.445 1.973zm3.802-2.833c.562-.516 1.078-1.096 1.695-1.537 3.493-2.492 7.037-4.912 10.509-7.434 2.469-1.794 4.436-4.092 6.037-6.685.423-.686.588-1.467-.573-2.203-1.198.782-2.669 1.47-3.787 2.53-2.419 2.293-4.586 4.854-6.994 7.161-2.393 2.294-4.956 4.412-7.398 6.566.232.679.386 1.128.535 1.579l-1.084-.517-.124.166 1.184.374zm-60.523-37.546c.913 1.136 1.738 1.863 2.188 2.775 1.574 3.187 2.09 6.693 2.043 10.155-.069 5.215-.553 10.428-.977 15.634-.083 1.015-.694 1.987-1.196 3.343l-2.163-1.983c-.647-6.807-1.446-13.4-1.82-20.018-.158-2.788.555-5.63.942-8.439.056-.409.499-.766.983-1.467zm.703 22.697c.926-.773 1.333-.945 1.355-1.156.511-5.218 1-10.441-.491-15.596-.223-.768-.477-1.517-1.644-1.407-.694 5.882.934 11.634.78 18.159zm47.536-23.358c.167 1.261.566 2.21.344 2.979-.745 2.579-1.374 5.287-2.673 7.59-2.026 3.591-4.451 6.978-7.515 9.825-1.865 1.732-3.684 3.517-5.581 5.211-.918.819-1.972 1.486-3.618 2.706.295-1.293.33-1.865.556-2.346.405-.857.908-1.671 1.401-2.485 3.296-5.438 6.61-10.867 9.896-16.311 1.41-2.337 3.044-4.477 5.208-6.161.459-.356 1.051-.542 1.982-1.008zm-1.27 2.662c-3.917 3.518-8.073 10.379-10.348 16.495 2.796-1.619 3.679-2.601 7.098-7.836 1.553-2.378 2.859-4.841 3.25-8.659zm6.428 56.865l.581-2.362c1.208-.469 2.377-.914 3.538-1.378 3.519-1.406 7.006-2.906 10.564-4.204 2.811-1.026 5.69-1.89 8.581-2.662 1.228-.328 2.556-.205 3.391 1.492-.247.513-.433 1.317-.924 1.827-.868.904-1.836 1.778-2.912 2.407-6.888 4.034-14.279 5.827-22.819 4.88zm5.787-1.417c5.375-.111 10.273-1.746 14.952-4.142 1.306-.669 2.851-1.196 3.494-3.169-.906 0-1.55-.123-2.129.019-5.727 1.403-10.796 4.446-16.222 6.603-.071.028-.046.298-.095.689zm-120.454-23.779c1.01-.154 1.762-.497 2.367-.325 4.691 1.336 7.372 3.484 10.319 8.294-.29.157-.788.646-1.063.542-4.26-1.603-8.533-3.224-11.164-7.323-.083-.129-.116-.291-.459-1.188zm4.941 3.054c.094-.087.251-.167.253-.25.003-.093-.136-.19-.213-.285l-.363.385.323.15zm74.967-8.444v4.41l-2.339 1.506-2.049-2.424c.566-2.455 1.516-4.027 4.388-3.492zm-.426 2.443c-1.961-.43-2.148.071-2.162.718-.002.124.214.369.231.36.427-.215.841-.457 1.931-1.078zm-38.21-13.179c-1.372-3.249-1.363-3.291 1.261-5.535l1.999 2.01c-.059 2.301-1.256 3.113-3.26 3.525zm.961-2.034l.431-.069-.21-1.019c-.106.062-.302.123-.303.186-.002.301.05.602.082.902zm-30.094 39.416l2.313 1.084c.28 1.87-.15 2.36-2.595 3.402-.142-.053-.301-.08-.423-.164-.253-.173-.485-.376-.747-.584-.624-1.499-.225-2.678 1.452-3.738zm102.473 19.698c2.326-2.952 3.11-3.122 6.118-1.17-.472 1.766-1.927 2.19-3.461 2.435-1.133.18-2.21.075-2.657-1.265zm3.829-.845l-.623-.104.623.104zm-13.269-43.423c-1.436.945-2.701 1.307-4.024.27.594-3.281.695-3.355 4.188-3.067.65.858.545 1.714-.164 2.797zm-3.106.06c2.179-1.185 2.179-1.185 1.426-1.985l-1.426 1.985zm32.362 10.365c.282 1.902-.542 2.531-1.741 2.714-1.155.176-2.172-.097-2.566-1.657 1.021-1.673 2.417-2.028 4.307-1.057zm-68.178 2.816l-1.221-1.62c.149-.444.191-.971.469-1.298.374-.441.931-.728 1.759-1.34l1.067 3.307-2.074.951zm8.674 23.73l2.09 1.966c.493 3.319.483 6.379-1.795 9.01-1.277-.5-.889-1.383-.679-1.998.727-2.141 1.225-4.247.25-6.299-1.078-.579-1.678-.036-2.181.584-1.413 1.738-1.354 3.853-1.354 5.913 0 3.975.146 7.951.091 11.925-.025 1.877-.373 3.751-.539 5.287-2.817 2.418-2.817 2.418-5.868 2.091-2.098-2.993-.637-5.942.188-8.93h1.146c.452 2.329-1.397 4.628-.128 6.902 1.342.85 2.278.134 2.645-.954.448-1.322.632-2.784.661-4.191.084-4.135.033-8.274.037-12.412.003-1.927.239-3.804 1.104-5.565.808-1.643 1.907-2.905 4.332-3.329zm-23.181 9.154c.037-4.317 2.293-7.925-.732-11.403-.583.505-1.059.861-1.46 1.287-.206.22-.294.559-.412.854-2.525 6.287-3.433 12.871-3.557 19.591-.025 1.325.049 1.327 1.282 3.346 3.694-.46 3.19-4.627 5.882-7.014-.085 3.043-1.056 4.941-2.406 6.673-1.148 1.472-2.725 2.097-4.967 2.02-.438-.767-1.148-1.627-1.428-2.61-.296-1.046-.278-2.212-.23-3.319.247-5.757 1.309-11.387 3.053-16.861.612-1.92 1.293-3.955 3.146-5.371 1.985-.532 3.303.381 4.028 2.233 1.025 2.628.266 6.744-2.199 10.574zm5.397 19.648c-.74.13-1.513.382-2.279.36-.583-.017-1.155-.382-1.788-.613-.898-2.517-.261-4.759.741-6.936.128-.279.731-.341 1.609-.713l-1.064 5.626 2.177.408c1.028-2.669 1.246-5.172 1.276-7.724.045-3.816.026-7.642.31-11.442.139-1.859.741-3.733 1.43-5.484.635-1.613 2.004-2.417 4.124-1.99 2.051 1.244 2.644 3.141 1.59 5.544-.508 1.157-1.091 2.288-1.742 3.37-.177.293-.724.362-1.443.689.184-2.773 3.43-4.892 1.042-7.729-2.082-.169-2.803 1.284-3.021 2.883-.385 2.83-.626 5.692-.714 8.546-.083 2.691.223 5.394.15 8.086-.064 2.376-.297 4.782-2.398 7.119z" opacity=".6" fill-rule="evenodd" clip-rule="evenodd"/></svg>