<?xml version="1.0" encoding="utf-8"?>
<!-- Generator: Adobe Illustrator 17.1.0, SVG Export Plug-In . SVG Version: 6.00 Build 0)  -->
<!DOCTYPE svg PUBLIC "-//W3C//DTD SVG 1.1//EN" "http://www.w3.org/Graphics/SVG/1.1/DTD/svg11.dtd">
<svg version="1.1" id="Layer_1" xmlns="http://www.w3.org/2000/svg" xmlns:xlink="http://www.w3.org/1999/xlink" x="0px" y="0px"
	 viewBox="0 0 270 174" enable-background="new 0 0 270 174" xml:space="preserve">
<path opacity="0.2" fill="#FFFFFF" d="M235.098,60.828c-0.668-5.068-2.239-9.316-6.905-12.054c-4.362-2.559-9.704-2.453-14.074,0
	c-9.024,5.065-16.553,11.693-23.991,18.738c-1.768-8.55-6.393-16.113-12.225-22.538c-5.112-5.633-14.537-5.186-19.716,0
	c-2.057,2.059-3.286,4.526-3.766,7.101c-2.235,1.744-3.909,4.137-4.466,7.035c-1.522,7.928-0.151,15.099,2.385,22.637
	c0.485,1.443,0.967,2.886,1.427,4.337c0.161,0.505,1.095,4.965,1.042,3.801c0.23,2.375,0.232,4.792,0.385,7.172
	c0.867,13.43,4.868,28.441,18.43,34.321c9.49,4.115,17.933-0.064,20.428-9.285c0.076-0.12,0.161-0.266,0.275-0.474
	c0.169-0.252,0.293-0.438,0.39-0.589c0.356-0.403,0.708-0.812,1.083-1.198c2.12-2.261,4.568-4.227,6.962-6.184
	c4.478-3.661,8.743-7.209,12.622-11.511C225.103,91.355,237.155,76.432,235.098,60.828z"/>
<path opacity="0.2" fill="#FFFFFF" d="M83.613,92.276c-20.227-9.909-43.572-0.898-64.727-0.667
	C10.467,91.7,6.297,98.344,6.372,104.883c-2.517,3.878-3.135,8.798,0.008,12.877c0.274,0.356,0.471,0.578,0.617,0.716
	c-0.059,0.37,0.201,2.292,0.194,2.557c-0.075,2.86-0.544,5.716-0.762,8.568c-0.436,5.687,1.06,11.094,2.922,16.394
	c4.318,12.288,12.409,26.938,27.349,27.142c3.104,0.042,6.21-0.51,9.182-1.384c1.226-0.36,2.435-0.793,3.652-1.183
	c0.277-0.089,2.11-0.38,2.51-0.523c0.713,0.055,1.52,0.121,1.298,0.063c1.006,0.166,2.01,0.35,3.012,0.528
	c3.29,0.586,6.613,1.084,9.947,1.315c7.252,0.502,14.403-2.632,18.492-8.668c2.653-3.914,4.027-8.941,5.468-13.418
	C95.997,132.064,105.662,103.077,83.613,92.276z"/>
<g opacity="0.6">
	<path fill-rule="evenodd" clip-rule="evenodd" d="M89.376,83.383c0.573,1.431,1.147,2.863,2.073,5.174
		c0.206,5.683,0.447,12.32,0.684,18.842c0.974,0.574,1.289-0.117,1.702-0.542c1.109-1.143,2.115-2.406,3.325-3.426
		c4.486-3.779,9.366-3.342,12.885,1.285c3.041,3.998,4.985,8.545,5.415,13.595c0.449,5.269,0.056,10.5-1.057,15.688
		c-1.132,5.275-3.757,9.807-6.932,14.014c-3.083,4.085-7.417,5.873-12.503,5.845c-2.67-0.015-4.985-0.953-6.861-2.858
		c-0.276-0.279-0.276-0.832-0.396-1.232c0.923-0.855,1.497-0.056,2.11,0.288c5.317,2.983,11.409,2.098,15.558-2.453
		c4.884-5.356,7.56-11.755,8.217-18.945c0.289-3.167,0.313-6.371,0.242-9.554c-0.11-4.972-2.202-9.286-5.085-13.172
		c-3.003-4.048-6.926-4.287-10.692-0.981c-2.943,2.583-4.749,5.919-6.319,9.41c-0.163,0.362,0.087,0.911,0.194,1.755
		c2.754-2.248,5.3-4.349,7.871-6.418c1.833-1.475,3.778-2.426,6.282-0.924c1.742,1.712,2.821,3.963,3.354,6.52
		c1.914,9.189,0.811,18.111-2.754,26.683c-1.509,3.629-4.634,5.987-8.031,7.847c-4.344,0.505-6.967-2.713-10.423-4.602
		c-0.71,1.059-0.811,2.277-0.987,3.473c-0.44,2.992-0.843,5.991-1.353,8.972c-0.489,2.855-1.552,5.436-3.294,7.84
		c-2.745,3.787-6.829,5.054-10.915,6.324c-7.253,2.254-14.732,2.341-22.238,2.042c-5.081-0.203-10.166-0.287-15.245-0.513
		c-1.417-0.062-2.841-0.351-4.226-0.687c-3.875-0.94-7.566-2.369-10.992-4.439c-2.109-1.275-3.601-3.051-4.631-5.312
		c-1.857-4.075-3.461-8.263-4.165-12.665c-1.082-6.758-1.893-13.564-2.626-20.371c-0.632-5.866-1.136-11.749-2.556-17.486
		c-1.976-7.986-2.368-16.047-1.503-24.195c0.048-0.449,0.301-0.875,0.543-1.543c1.851-0.414,3.708,0.186,5.565,0.237
		c2.374,0.064,4.752,0.145,7.124,0.083c5.568-0.146,11.134-0.464,16.703-0.545c7.957-0.118,15.916-0.149,23.874-0.094
		c4.135,0.028,8.292,0.096,12.397,0.544c6.045,0.66,11.995-0.057,18.009-0.353c0.67-1.137,1.226-2.081,1.782-3.026L89.376,83.383z
		 M57.352,94.341c-5.165,0.877-10.33,1.98-15.457-0.118c-4.255,1.006-8.499,1.481-12.811,1.015c-3.632-0.394-7.259-1.003-10.9-1.101
		c-3.631-0.099-7.28,0.274-10.913,0.546c-0.721,0.055-1.406,0.591-2.194,0.944c0.329,4.935,0.097,9.744,1.447,14.356
		c1.621,5.539,2.238,11.249,2.669,16.92c0.52,6.843,1.403,13.623,2.326,20.406c0.69,5.079,2.412,9.873,4.366,14.594
		c0.956,2.31,2.399,4.329,4.581,5.321c4.461,2.026,8.925,4.173,14.034,4.214c4.45,0.037,8.896,0.31,13.346,0.44
		c3.34,0.097,6.687,0.279,10.022,0.166c6.23-0.211,12.319-1.209,18.111-3.705c4.124-1.776,6.607-4.898,7.744-9.121
		c0.578-2.146,0.888-4.369,1.25-6.569c0.931-5.659,1.851-11.321,2.72-16.99c0.482-3.147,0.949-6.302,1.254-9.47
		c0.427-4.438,0.795-8.887,1.009-13.34c0.245-5.089,0.309-10.186,0.417-15.28c0.03-1.421-0.067-2.842-1.073-4.221
		c-2.505,0.333-5.137,0.233-7.415,1.083c-4.366,1.63-8.742,0.652-13.11,0.726c-0.67,0.012-1.35-0.638-2.026-0.982
		c7.655,0.545,15.202,0.136,22.516-2.544c0.558-1.205,0.813-2.368-0.186-3.193c-5.783,0.242-11.382,1.064-16.858,0.558
		c-7.167-0.663-14.3-0.538-21.45-0.553c-8.435-0.017-16.872,0.017-25.305,0.172c-6.346,0.116-12.683,1.102-19.037,0.119
		c-0.12-0.018-0.265,0.128-0.649,0.327c-0.108,0.403-0.372,0.985-0.399,1.579c-0.035,0.75,0.122,1.508,0.236,2.674
		c2.544-0.356,4.854,0.284,7.225-0.461c1.182-0.37,2.517-0.475,3.759-0.382c3.803,0.287,7.617,0.591,11.385,1.16
		c2.534,0.383,4.964,0.774,7.553,0.207c2.143-0.469,4.491-0.89,6.588-0.491c4.427,0.843,8.752,1.105,13.171,0.137
		C55.891,93.354,56.663,94.035,57.352,94.341z M90.753,121.118c0.408,6.9-1.031,13.75-2.453,20.421
		c2.709,3.126,5.555,5.568,9.65,6.346c3.551-1.61,6.238-4.18,7.701-7.909c3.102-7.911,3.733-16.08,2.174-24.394
		c-0.468-2.498-1.408-4.896-4.446-5.976C98.502,112.542,94.084,116.038,90.753,121.118z"/>
	<path fill-rule="evenodd" clip-rule="evenodd" d="M57.826,70.658c-0.93-0.145-1.861-0.29-2.814-0.438
		c-2.185,1.378-3.306,3.972-6.05,4.96c-0.946-0.635-1.963-1.316-3.108-2.084c-1.274,0-2.676,0-3.954,0
		c-0.513,0.446-0.999,0.687-1.2,1.075c-1.018,1.962-1.957,3.964-2.935,5.947c-0.32,0.649-0.678,1.279-1.133,2.134
		c-1.295-3.002,1.042-4.779,1.538-7.098c-0.481-1.289-0.976-2.614-1.392-3.728c-1.353-1.633-2.802-2.437-5.259-1.848
		c-0.908,0.861-2.149,2.035-3.54,3.353c-0.797-3.106-3.099-3.629-5.784-3.5c-2.099,0.102-4.075,0.541-5.833,1.986
		c-0.244,0.838-0.505,1.734-0.768,2.639c-2.148-0.138-4.266-0.275-6.403-0.413c1.129-1.36,2.703-1.303,4.395-1.383
		c4.229-4.719,9.32-5.197,14.96-2.476c1.556-0.675,3.13-1.358,4.409-1.913c3.487,0.255,4.62,2.987,6.133,4.852
		c2.053-0.581,3.838-1.087,5.53-1.565c1.627,0.875,3.011,1.621,4.4,2.369c2.18-0.577,2.95-2.794,4.803-4.128
		c1.038,0,2.279,0,3.657,0c0.099,0.546,0.173,0.952,0.247,1.359L57.826,70.658z"/>
	<path fill-rule="evenodd" clip-rule="evenodd" d="M2.819,82.375c0.286,1.09,0.479,1.831,0.705,2.691
		c-0.9,0.312-1.741,0.603-2.81,0.973c0,1.299,0,2.595,0,4.917c-1.989-4.162,0.811-6.535,0.768-9.298
		c1.344-0.991,2.483-1.832,3.724-2.746c0.493-0.997,1.034-2.093,1.663-3.366c0.499,1.53,0.902,2.764,1.361,4.172
		C5.997,79.302,4.557,80.832,2.819,82.375z"/>
	<path fill-rule="evenodd" clip-rule="evenodd" d="M75.359,77.018c-1.389-0.219-2.777-0.439-4.283-0.678
		c-4.417,0.379-6.585,3.683-8.523,7.39c-0.242-0.533-0.51-0.83-0.457-1.048c0.904-3.717,3.405-6.03,6.874-7.212
		c2.323-0.791,4.615-0.475,6.313,1.637L75.359,77.018z"/>
	<path fill-rule="evenodd" clip-rule="evenodd" d="M75.282,77.107c0.768-0.047,1.535-0.094,2.953-0.181
		c0.498-0.731,1.286-1.887,1.882-2.762c2.884-0.214,5.198-0.517,6.748,1.862l0.098-0.1c-1.481-0.325-2.963-0.65-4.18-0.917
		c-2.636,0.282-3.058,2.879-5.033,3.984c-0.781-0.647-1.586-1.312-2.391-1.976C75.359,77.018,75.282,77.107,75.282,77.107z"/>
	<path fill-rule="evenodd" clip-rule="evenodd" d="M57.723,70.759c1.889-0.986,3.325,0.177,4.775,1.069
		c1.181,0.724,2.409,1.502,2.163,3.737c-1.959-2.497-4.334-3.79-6.819-4.923C57.826,70.658,57.723,70.759,57.723,70.759z"/>
	<path fill-rule="evenodd" clip-rule="evenodd" d="M89.501,83.509c0.309-0.547,0.619-1.094,0.954-1.688
		c-0.306-0.915-0.605-1.807-0.896-2.707c0.008-0.008-0.105,0.101-0.105,0.101c2.158,1.061,2.65,2.666,1.209,4.196
		c-0.197,0.21-0.834,0.005-1.278-0.019C89.376,83.383,89.501,83.509,89.501,83.509z"/>
	<path fill-rule="evenodd" clip-rule="evenodd" d="M18.79,77.793c1.637-1.308,2.873-0.194,4.715,0.894
		c-2.096,0.084-3.483-0.389-4.841-1.007L18.79,77.793z"/>
	<path fill-rule="evenodd" clip-rule="evenodd" d="M18.664,77.68c0.723,1.688-0.619,2.681-1.386,4.989
		c-0.413-2.727,0.117-3.963,1.52-4.868C18.79,77.793,18.664,77.68,18.664,77.68z"/>
	<path fill-rule="evenodd" clip-rule="evenodd" d="M86.865,76.027c1.509,0.531,3.078,1.013,2.596,3.182
		c-0.007,0.007,0.106-0.102,0.098-0.094c-0.764-1.144-2.489-1.506-2.598-3.185C86.963,75.926,86.865,76.027,86.865,76.027z"/>
	<path fill-rule="evenodd" clip-rule="evenodd" d="M60.021,119.25c0.974-5.709-1.082-10.88-2.449-16.004
		c-0.709-0.17-1.023-0.334-1.315-0.302c-4.239,0.466-8.476,0.946-12.708,1.465c-0.444,0.055-0.857,0.374-1.233,0.546
		c-1.921,1.85-1.445,4.112-1.279,6.308c0.164,2.181,0.341,4.362,0.205,6.575c0.639,2.447,1.278,4.893,1.951,7.467
		c1.165,1.123,2.387,2.302,3.61,3.481c-3.356-0.311-5.054-2.441-5.623-5.494c-0.575-3.087-1.391-6.138-1.091-9.374
		c0.187-2.015-0.212-4.084-0.396-6.837c0.195-1.059,0.943-2.574,2.718-3.768c4.777-0.511,9.78-1.047,15.05-1.611
		c3.331,3.877,2.829,8.897,4.195,13.378C61.095,116.446,61.666,118.256,60.021,119.25z"/>
	<path fill-rule="evenodd" clip-rule="evenodd" d="M30.384,129.633c-3.078,3.145-6.68,2.465-10.159,1.11
		c-2.198-0.856-4.233-2.226-5.203-3.914c-0.878-3.295-1.789-6.018-2.289-8.813c-0.388-2.169-0.439-4.439-0.323-6.647
		c0.169-3.209,2.103-5.326,5.023-6.343c2.232-0.778,4.538-1.44,7.008-1.123c1.881,0.241,3.793,0.242,5.832,0.358
		c0.339,0.507,0.683,1.021,1.027,1.537l0.171-0.115c-2.834-0.202-5.685-0.692-8.497-0.527c-3.127,0.185-6.39,0.575-8.813,4.204
		c-0.137,1.222-0.723,3.14-0.481,4.949c0.543,4.056,1.498,8.056,2.281,12.06c0.537,0.413,0.941,0.675,1.289,0.998
		c3.299,3.071,7.039,4.097,11.384,2.572c0.577-0.203,1.245-0.144,1.871-0.206L30.384,129.633z"/>
	<path fill-rule="evenodd" clip-rule="evenodd" d="M74.163,162.934c-0.314,1.269-1.373,1.332-2.247,1.062
		c-1.182-0.364-2.262-1.065-3.386-1.621c-2.469-4.591-3.497-9.222-2.05-14.29c0.828-2.901,1.45-5.863,2.072-8.817
		c0.334-1.589,0.722-3.098,2.314-4.412c3.977-0.563,8.201-2.064,12.555,0.025c-3.872,0.218-7.744,0.435-11.343,0.638
		c-1.572,1.029-2.031,2.395-2.347,3.792c-0.701,3.098-1.333,6.21-1.978,9.32c-1.104,5.325-0.818,7.344,1.808,12.864
		c1.291,1.288,2.841,1.908,4.717,1.56L74.163,162.934z"/>
	<path fill-rule="evenodd" clip-rule="evenodd" d="M50.544,164.075c-1.178,0.242-2.288,0.068-2.96-0.986
		c-1.014-1.59-2.293-3.161-2.759-4.924c-1.669-6.315-2.29-12.783-1.974-19.322c0.015-0.303,0.194-0.596,0.411-1.228
		c0.544-0.345,1.289-1.194,2.103-1.268c4.091-0.369,8.2-0.55,12.305-0.75c0.429-0.021,0.874,0.269,1.551,0.495
		c-0.047,0.748-0.094,1.493-0.142,2.237l0.092-0.07c-0.817-0.446-1.635-0.891-2.482-1.353c-3.943,0.353-7.902,0.077-11.461,0.847
		c-1.6,1.27-1.555,2.747-1.396,4.154c0.513,4.553,1.23,9.085,1.658,13.644c0.348,3.715,2.138,6.453,4.997,8.641L50.544,164.075z"/>
	<path fill-rule="evenodd" clip-rule="evenodd" d="M34.345,139.348c-0.678-0.383-1.356-0.765-2.232-1.26
		c-1.688,0.346-3.54,0.742-5.399,1.101c-1.851,0.357-3.709,0.677-5.638,1.026c-0.643,3.896-0.28,7.543-0.12,11.169
		c0.087,1.988,1.307,3.536,2.674,4.929c0.991,1.009,2.21,1.903,2.076,3.574c-0.679-0.65-1.313-1.356-2.044-1.941
		c-3.107-2.487-4.236-5.717-3.924-9.629c0.111-1.391-0.229-2.818-0.361-4.228c-0.133-1.416-0.274-2.833,0.707-4.58
		c4.097-1.749,8.802-1.788,13.71-2.455C34.011,137.961,34.178,138.654,34.345,139.348z"/>
	<path fill-rule="evenodd" clip-rule="evenodd" d="M67.85,124.773c-0.37-0.433-0.943-0.811-1.078-1.308
		c-1.518-5.585-1.694-11.314-1.547-17.045c0.055-2.134,0.805-4.086,3.274-4.672l-0.098-0.095c-1.775,3.778-1.708,3.778-1.756,8.986
		c-0.034,3.669-0.024,7.303,0.952,10.888c0.284,1.044,0.12,2.209,0.159,3.321C67.756,124.849,67.85,124.773,67.85,124.773z"/>
	<path fill-rule="evenodd" clip-rule="evenodd" d="M74.278,163.055c1.649-1.476,3.298-2.952,4.455-3.989
		c0.948-3.996,1.997-7.184,2.396-10.452c0.38-3.117,0.082-6.317,0.082-9.938c1.597,6.584,1.147,13.66-1.017,19.093
		c-0.926,2.323-2.643,3.921-4.653,5.241c-0.309,0.203-0.903-0.031-1.372-0.069C74.163,162.934,74.278,163.055,74.278,163.055z"/>
	<path fill-rule="evenodd" clip-rule="evenodd" d="M83.219,127.915c-0.023-0.312-0.163-0.672-0.053-0.925
		c2.5-5.779,2.349-11.725,1.196-17.75c-0.473-2.469-0.872-4.953-1.411-8.041c1.409,1.303,1.801,2.479,2.051,3.784
		c1.079,5.627,1.623,11.285,0.867,16.994c-0.292,2.204-0.879,4.344-2.747,5.841L83.219,127.915z"/>
	<path fill-rule="evenodd" clip-rule="evenodd" d="M59.08,138.328c0.471,0.356,1.203,0.622,1.364,1.087
		c0.563,1.617,1.313,3.308,1.295,4.963c-0.053,4.865-0.563,9.709-1.959,14.408c-0.063,0.212-0.477,0.321-0.728,0.478l0.128,0.115
		c0.214-2.525,0.316-5.066,0.665-7.573c0.635-4.572,1.038-9.105-0.673-13.549L59.08,138.328z"/>
	<path fill-rule="evenodd" clip-rule="evenodd" d="M35.147,163.271c1.596-4.413,1.29-8.97,0.807-13.483
		c-0.382-3.571-1.157-7.099-1.757-10.646c1.302,0.303,1.653,1.346,1.836,2.46c0.433,2.643,0.857,5.287,1.209,7.94
		c0.164,1.234,0.239,2.493,0.202,3.736c-0.078,2.678-0.253,5.354-0.404,8.326C36.493,162.085,35.819,162.678,35.147,163.271z"/>
	<path fill-rule="evenodd" clip-rule="evenodd" d="M68.5,101.747c3.654-1.573,7.588-1.533,11.58-1.827
		c-0.277,0.239-0.523,0.629-0.834,0.69c-1.868,0.367-3.742,0.761-5.633,0.945c-1.719,0.169-3.463,0.083-5.203,0.102
		C68.402,101.652,68.5,101.747,68.5,101.747z"/>
	<path fill-rule="evenodd" clip-rule="evenodd" d="M83.121,127.818c-0.544,0.509-1.075,1.442-1.635,1.46
		c-3.633,0.11-7.326,1.07-10.883-0.496l-0.131,0.139c4.29,0.211,8.539-0.092,12.743-1.01
		C83.219,127.915,83.121,127.818,83.121,127.818z"/>
	<path fill-rule="evenodd" clip-rule="evenodd" d="M33.267,109.636c0.302,0.32,0.81,0.606,0.87,0.967
		c0.419,2.482,0.779,4.975,1.076,7.476c0.093,0.783-0.104,1.576-0.992,1.933l0.114,0.108c-0.32-3.529-0.64-7.058-0.961-10.587
		L33.267,109.636z"/>
	<path fill-rule="evenodd" clip-rule="evenodd" d="M57.107,94.201c1.654-0.392,3.308-0.784,5.553-1.316
		c1.048,0.353,2.635,0.888,4.223,1.424c-2.504-0.246-4.972-0.503-7.375,0.74C58.744,95.444,57.628,95.283,57.107,94.201z"/>
	<path fill-rule="evenodd" clip-rule="evenodd" d="M56.228,127.35c0.611-3.105,2.146-5.773,3.925-8.326
		C59.72,122.214,58.581,125.069,56.228,127.35z"/>
	<path fill-rule="evenodd" clip-rule="evenodd" d="M28.446,163.097c1.217,0.512,2.434,1.025,3.847,1.62
		c0.945-0.515,1.98-1.081,3.015-1.646c-0.234,1.852-1.681,2.342-3.26,2.92C30.57,165.426,28.921,165.047,28.446,163.097z"/>
	<path fill-rule="evenodd" clip-rule="evenodd" d="M46.581,128.653c3.154,0.327,6.265,0.215,9.272-0.931
		C52.66,130.102,49.977,130.371,46.581,128.653z"/>
	<path fill-rule="evenodd" clip-rule="evenodd" d="M59.052,159.265c0.377,1.457,0.065,2.761-0.795,3.982
		c-0.511,0.725-1.163,0.976-2.004,0.844l0.049,0.095c0.721-1.442,1.426-2.894,2.18-4.319c0.118-0.224,0.46-0.328,0.699-0.488
		L59.052,159.265z"/>
	<path fill-rule="evenodd" clip-rule="evenodd" d="M56.253,164.091c-1.907,1.426-3.81,1.434-5.708-0.016l-0.057,0.117
		c1.938-0.002,3.876-0.004,5.814-0.006L56.253,164.091z"/>
	<path fill-rule="evenodd" clip-rule="evenodd" d="M70.603,128.782c-2.71-1.157-2.761-1.232-2.755-4.007
		c0.002-0.002-0.093,0.074-0.091,0.072c0.908,1.354,1.815,2.71,2.718,4.07C70.472,128.921,70.603,128.782,70.603,128.782z"/>
	<path fill-rule="evenodd" clip-rule="evenodd" d="M33.272,125.86c-0.104,1.916-0.877,3.319-2.887,3.772l0.121,0.099
		c0.666-1.497,1.234-3.068,2.874-3.834L33.272,125.86z"/>
	<path fill-rule="evenodd" clip-rule="evenodd" d="M34.222,120.011c0.297,2.05,0.266,4.046-0.95,5.849l0.107,0.038
		c0.018-1.255-0.063-2.522,0.092-3.76c0.088-0.698,0.564-1.348,0.865-2.019L34.222,120.011z"/>
	<path fill-rule="evenodd" clip-rule="evenodd" d="M26.089,160.261c1.794,0.204,2.476,1.343,2.525,3.014
		C27.193,162.756,26.833,161.347,26.089,160.261z"/>
	<path fill-rule="evenodd" clip-rule="evenodd" d="M31.301,105.798c1.018,0.279,1.142,1.022,0.988,1.91l0.127-0.093
		c-1.099-0.26-0.776-1.216-0.944-1.932L31.301,105.798z"/>
	<path fill-rule="evenodd" clip-rule="evenodd" d="M32.289,107.708c1.169,0.214,0.971,1.123,0.978,1.928l0.108-0.103
		c-1.028-0.283-0.91-1.142-0.959-1.917L32.289,107.708z"/>
</g>
<g opacity="0.6">
	<path fill-rule="evenodd" clip-rule="evenodd" d="M178.249,135.741c-1.224-3.783-2.229-6.791-3.17-9.819
		c-1.467-4.72-3.31-9.262-5.442-13.739c-5.061-10.63-9.912-21.366-14.642-32.148c-2.11-4.809-3.53-9.901-4.424-15.094
		c-1.437-8.356,1.145-15.515,7.182-21.243c6.561-6.227,14.802-5.539,21.094,0.001c3.026,2.666,5.258,5.94,6.941,9.606
		c1.798,3.92,3.262,7.947,4.106,12.187c0.122,0.611,0.297,1.211,0.493,2c0.534-0.254,1.072-0.328,1.252-0.622
		c5.002-8.137,12.627-13.314,20.433-18.311c2.091-1.339,4.338-2.018,6.767-1.887c5.627,0.302,10.113,2.437,12.46,7.978
		c2.05,4.841,2.508,9.791,1.657,14.97c-1.134,6.902-4.01,12.972-7.881,18.744c-7.406,11.043-15.977,21.027-25.965,29.79
		c-5.503,4.829-11.024,9.638-16.57,14.416C181.367,133.58,180.05,134.419,178.249,135.741z M189.439,72.092
		c-1.104-1.65-0.823-3.302-1.103-4.803c-1.514-8.126-4.193-15.68-10.273-21.639c-6.269-6.144-14.815-5.693-20.237,0.519
		c-4.742,5.432-6.775,11.752-5.221,19.048c1.299,6.099,3.019,12.031,5.656,17.701c4.497,9.668,8.781,19.439,13.411,29.043
		c2.085,4.324,3.866,8.72,5.292,13.284c0.7,2.242,1.446,4.47,2.225,6.869c3.693-1.313,6.086-3.949,8.678-6.227
		c4.18-3.674,8.07-7.682,12.301-11.293c10.159-8.668,18.267-19.026,25.302-30.279c2.796-4.473,4.979-9.226,5.687-14.569
		c0.727-5.49,0.501-10.72-2.263-15.762c-2.645-4.826-11.004-6.982-15.536-4.232c-6.442,3.91-12.464,8.286-17.356,14.057
		c-1.848,2.18-3.396,4.612-5.113,6.904C190.546,71.172,190.054,71.517,189.439,72.092z"/>
	<path fill-rule="evenodd" clip-rule="evenodd" d="M140.818,0c0.512,0.243,1.087,0.331,1.337,0.664
		c4.106,5.474,7.907,11.114,9.384,17.971c0.81,3.765,0.7,7.57,0.46,11.369c-0.04,0.619-0.734,1.197-1.33,2.106
		c-2.057-2.119-3.562-4.176-4.542-6.426c-2.715-6.241-5.624-12.434-7.03-19.159c-0.257-1.227-0.371-2.507-0.358-3.762
		C138.751,1.62,139.216,0.607,140.818,0z M140.46,2.697c-0.03,3.597,1.045,6.545,2.1,9.44c3.866,10.615,4.667,12.146,7.192,14.615
		C151.093,19.123,147.345,9.123,140.46,2.697z"/>
	<path fill-rule="evenodd" clip-rule="evenodd" d="M245.441,47.817c-1.005-0.383-1.584-0.604-2.117-0.807
		c-0.02-0.414-0.166-0.842-0.028-0.974c2.058-1.97,4.158-3.895,6.237-5.844c3.474-3.257,6.985-6.475,10.389-9.804
		c2.166-2.119,4.295-4.223,7.039-5.119c1.709,0.126,2.604,0.885,3.04,2.373c-1.464,3.332-3.608,6.377-6.469,8.629
		c-4.36,3.432-9.027,6.484-13.646,9.573C248.59,46.71,247.003,47.14,245.441,47.817z M249.243,44.984
		c0.562-0.516,1.078-1.096,1.695-1.537c3.493-2.492,7.037-4.912,10.509-7.434c2.469-1.794,4.436-4.092,6.037-6.685
		c0.423-0.686,0.588-1.467-0.573-2.203c-1.198,0.782-2.669,1.47-3.787,2.53c-2.419,2.293-4.586,4.854-6.994,7.161
		c-2.393,2.294-4.956,4.412-7.398,6.566c0.232,0.679,0.386,1.128,0.535,1.579c-0.361-0.172-0.723-0.345-1.084-0.517
		c-0.042,0.056-0.084,0.11-0.124,0.166C248.453,44.736,248.847,44.86,249.243,44.984z"/>
	<path fill-rule="evenodd" clip-rule="evenodd" d="M188.72,7.438c0.913,1.136,1.738,1.863,2.188,2.775
		c1.574,3.187,2.09,6.693,2.043,10.155c-0.069,5.215-0.553,10.428-0.977,15.634c-0.083,1.015-0.694,1.987-1.196,3.343
		c-0.96-0.879-1.631-1.495-2.163-1.983c-0.647-6.807-1.446-13.4-1.82-20.018c-0.158-2.788,0.555-5.63,0.942-8.439
		C187.793,8.496,188.236,8.139,188.72,7.438z M189.423,30.135c0.926-0.773,1.333-0.945,1.355-1.156
		c0.511-5.218,1-10.441-0.491-15.596c-0.223-0.768-0.477-1.517-1.644-1.407C187.949,17.858,189.577,23.61,189.423,30.135z"/>
	<path fill-rule="evenodd" clip-rule="evenodd" d="M236.959,6.777c0.167,1.261,0.566,2.21,0.344,2.979
		c-0.745,2.579-1.374,5.287-2.673,7.59c-2.026,3.591-4.451,6.978-7.515,9.825c-1.865,1.732-3.684,3.517-5.581,5.211
		c-0.918,0.819-1.972,1.486-3.618,2.706c0.295-1.293,0.33-1.865,0.556-2.346c0.405-0.857,0.908-1.671,1.401-2.485
		c3.296-5.438,6.61-10.867,9.896-16.311c1.41-2.337,3.044-4.477,5.208-6.161C235.436,7.429,236.028,7.243,236.959,6.777z
		 M235.689,9.439c-3.917,3.518-8.073,10.379-10.348,16.495c2.796-1.619,3.679-2.601,7.098-7.836
		C233.992,15.72,235.298,13.257,235.689,9.439z"/>
	<path fill-rule="evenodd" clip-rule="evenodd" d="M242.117,66.304c0.266-1.082,0.409-1.665,0.581-2.362
		c1.208-0.469,2.377-0.914,3.538-1.378c3.519-1.406,7.006-2.906,10.564-4.204c2.811-1.026,5.69-1.89,8.581-2.662
		c1.228-0.328,2.556-0.205,3.391,1.492c-0.247,0.513-0.433,1.317-0.924,1.827c-0.868,0.904-1.836,1.778-2.912,2.407
		C258.048,65.458,250.657,67.251,242.117,66.304z M247.904,64.887c5.375-0.111,10.273-1.746,14.952-4.142
		c1.306-0.669,2.851-1.196,3.494-3.169c-0.906,0-1.55-0.123-2.129,0.019c-5.727,1.403-10.796,4.446-16.222,6.603
		C247.928,64.226,247.953,64.496,247.904,64.887z"/>
	<path fill-rule="evenodd" clip-rule="evenodd" d="M127.45,41.108c1.01-0.154,1.762-0.497,2.367-0.325
		c4.691,1.336,7.372,3.484,10.319,8.294c-0.29,0.157-0.788,0.646-1.063,0.542c-4.26-1.603-8.533-3.224-11.164-7.323
		C127.826,42.167,127.793,42.005,127.45,41.108z M132.391,44.162c0.094-0.087,0.251-0.167,0.253-0.25
		c0.003-0.093-0.136-0.19-0.213-0.285c-0.121,0.128-0.241,0.256-0.363,0.385C132.183,44.065,132.296,44.118,132.391,44.162z"/>
	<path fill-rule="evenodd" clip-rule="evenodd" d="M207.358,35.718c0,1.42,0,2.792,0,4.41c-0.649,0.418-1.382,0.89-2.339,1.506
		c-0.796-0.942-1.454-1.719-2.049-2.424C203.536,36.755,204.486,35.183,207.358,35.718z M206.932,38.161
		c-1.961-0.43-2.148,0.071-2.162,0.718c-0.002,0.124,0.214,0.369,0.231,0.36C205.428,39.024,205.842,38.782,206.932,38.161z"/>
	<path fill-rule="evenodd" clip-rule="evenodd" d="M168.722,24.982c-1.372-3.249-1.363-3.291,1.261-5.535
		c0.713,0.716,1.439,1.448,1.999,2.01C171.923,23.758,170.726,24.57,168.722,24.982z M169.683,22.948
		c0.144-0.023,0.287-0.046,0.431-0.069c-0.07-0.34-0.14-0.679-0.21-1.019c-0.106,0.062-0.302,0.123-0.303,0.186
		C169.599,22.347,169.651,22.648,169.683,22.948z"/>
	<path fill-rule="evenodd" clip-rule="evenodd" d="M139.589,62.364c0.727,0.341,1.615,0.757,2.313,1.084
		c0.28,1.87-0.15,2.36-2.595,3.402c-0.142-0.053-0.301-0.08-0.423-0.164c-0.253-0.173-0.485-0.376-0.747-0.584
		C137.513,64.603,137.912,63.424,139.589,62.364z"/>
	<path fill-rule="evenodd" clip-rule="evenodd" d="M242.062,82.062c2.326-2.952,3.11-3.122,6.118-1.17
		c-0.472,1.766-1.927,2.19-3.461,2.435C243.586,83.507,242.509,83.402,242.062,82.062z M245.891,81.217
		c-0.207-0.036-0.415-0.071-0.623-0.104C245.475,81.148,245.683,81.183,245.891,81.217z"/>
	<path fill-rule="evenodd" clip-rule="evenodd" d="M232.622,37.794c-1.436,0.945-2.701,1.307-4.024,0.27
		c0.594-3.281,0.695-3.355,4.188-3.067C233.436,35.855,233.331,36.711,232.622,37.794z M229.516,37.854
		c2.179-1.185,2.179-1.185,1.426-1.985C230.68,36.233,230.426,36.587,229.516,37.854z"/>
	<path fill-rule="evenodd" clip-rule="evenodd" d="M261.878,48.219c0.282,1.902-0.542,2.531-1.741,2.714
		c-1.155,0.176-2.172-0.097-2.566-1.657C258.592,47.603,259.988,47.248,261.878,48.219z"/>
	<path fill-rule="evenodd" clip-rule="evenodd" d="M193.7,51.035c-0.623-0.827-0.904-1.2-1.221-1.62
		c0.149-0.444,0.191-0.971,0.469-1.298c0.374-0.441,0.931-0.728,1.759-1.34c0.412,1.277,0.715,2.216,1.067,3.307
		C194.957,50.458,194.424,50.703,193.7,51.035z"/>
	<path fill-rule="evenodd" clip-rule="evenodd" d="M202.374,74.765c0.771,0.725,1.448,1.361,2.09,1.966
		c0.493,3.319,0.483,6.379-1.795,9.01c-1.277-0.5-0.889-1.383-0.679-1.998c0.727-2.141,1.225-4.247,0.25-6.299
		c-1.078-0.579-1.678-0.036-2.181,0.584c-1.413,1.738-1.354,3.853-1.354,5.913c0,3.975,0.146,7.951,0.091,11.925
		c-0.025,1.877-0.373,3.751-0.539,5.287c-2.817,2.418-2.817,2.418-5.868,2.091c-2.098-2.993-0.637-5.942,0.188-8.93
		c0.44,0,0.729,0,1.146,0c0.452,2.329-1.397,4.628-0.128,6.902c1.342,0.85,2.278,0.134,2.645-0.954
		c0.448-1.322,0.632-2.784,0.661-4.191c0.084-4.135,0.033-8.274,0.037-12.412c0.003-1.927,0.239-3.804,1.104-5.565
		C198.85,76.451,199.949,75.189,202.374,74.765z"/>
	<path fill-rule="evenodd" clip-rule="evenodd" d="M179.193,83.919c0.037-4.317,2.293-7.925-0.732-11.403
		c-0.583,0.505-1.059,0.861-1.46,1.287c-0.206,0.22-0.294,0.559-0.412,0.854c-2.525,6.287-3.433,12.871-3.557,19.591
		c-0.025,1.325,0.049,1.327,1.282,3.346c3.694-0.46,3.19-4.627,5.882-7.014c-0.085,3.043-1.056,4.941-2.406,6.673
		c-1.148,1.472-2.725,2.097-4.967,2.02c-0.438-0.767-1.148-1.627-1.428-2.61c-0.296-1.046-0.278-2.212-0.23-3.319
		c0.247-5.757,1.309-11.387,3.053-16.861c0.612-1.92,1.293-3.955,3.146-5.371c1.985-0.532,3.303,0.381,4.028,2.233
		C182.417,75.973,181.658,80.089,179.193,83.919z"/>
	<path fill-rule="evenodd" clip-rule="evenodd" d="M184.59,103.567c-0.74,0.13-1.513,0.382-2.279,0.36
		c-0.583-0.017-1.155-0.382-1.788-0.613c-0.898-2.517-0.261-4.759,0.741-6.936c0.128-0.279,0.731-0.341,1.609-0.713
		c-0.387,2.044-0.695,3.675-1.064,5.626c0.796,0.149,1.455,0.273,2.177,0.408c1.028-2.669,1.246-5.172,1.276-7.724
		c0.045-3.816,0.026-7.642,0.31-11.442c0.139-1.859,0.741-3.733,1.43-5.484c0.635-1.613,2.004-2.417,4.124-1.99
		c2.051,1.244,2.644,3.141,1.59,5.544c-0.508,1.157-1.091,2.288-1.742,3.37c-0.177,0.293-0.724,0.362-1.443,0.689
		c0.184-2.773,3.43-4.892,1.042-7.729c-2.082-0.169-2.803,1.284-3.021,2.883c-0.385,2.83-0.626,5.692-0.714,8.546
		c-0.083,2.691,0.223,5.394,0.15,8.086C186.924,98.824,186.691,101.23,184.59,103.567z"/>
</g>
</svg>
