<svg xmlns="http://www.w3.org/2000/svg" viewBox="0 0 144 132" enable-background="new 0 0 144 132"><path opacity=".2" fill="#fff" d="M124.255 58.906c-8.971-7.715-15.467-17.535-25.417-24.223-7.512-5.049-14.656 1.886-14.654 8.967-5.387.078-10.615 3.027-14.206 8.739-6.036 9.598-19.032 12.039-20.37 24.907-.96 9.238 6.24 19.521 11.669 26.313 6.407 8.015 14.785 14.574 25.555 12.37 10.272-2.102 17.692-12.284 23.176-20.337 2.806-4.12 5.318-8.439 7.874-12.715 1.166-1.952 2.347-3.894 3.563-5.816.546-.864 1.116-1.712 1.69-2.557.262-.383.535-.758.808-1.133l.311-.376c3.305-3.924 4.395-10.36.001-14.139z"/><path opacity=".2" fill="#fff" d="M67.455 32.914c-2.302-1.987-5.078-3.372-7.35-5.332-5.561-4.798-14.677-3.255-16.753 4.412-.497 1.837-1.037 3.577-1.62 5.264-2.111.807-3.944 2.355-5.389 4.344-.963 1.325-1.784 2.768-2.481 4.276-4.279 3.643-8.196 7.861-11.583 11.984-2.781 3.386-4.27 6.87-5.852 10.937-1.77 4.552-4.775 12.41-1.395 16.922 4.422 5.904 12.174 5.731 17.016.268 2.593-2.926 4.23-6.798 5.078-10.746.387-.076.779-.171 1.18-.294 8.724-2.679 13.744-9.114 15.756-16.806.319-.526.623-1.058.926-1.591 3.05-.811 4.96-3.491 5.464-6.659 2.497.046 4.983-.829 7.001-2.841 3.655-3.643 4.137-10.57.002-14.138z"/><g opacity=".6" fill-rule="evenodd" clip-rule="evenodd"><path d="M72.231 131.053c-4.386-3.778-8.164-2.052-11.675.947l-4.149-4.558 1.254-3.805c-.895.178-1.512.144-1.928.416-.788.516-1.46 1.208-2.382 1.998l-3.052-2.373c-.729-1.886 1.906-3.064.165-4.957-2.337 1.398-4.741 2.834-7.551 4.512l-5.01-2.112c-1.182-1.959 1.047-3.73-.687-5.561-.439.202-1.093.32-1.454.708-.738.798-1.318 1.742-2.152 2.882l-5.12-2.742.448-4.465c-.571-.08-1.205-.345-1.385-.163-.766.772-1.398 1.678-2.168 2.648-2.132.227-3.261-1.512-4.872-2.602l.445-3.356-1.603-1.174-2.536 3.362c-1.973-.171-3.398-1.21-5.052-2.21l-.221-4.878c-2.698-.879-3.304 1.87-5.222 2.454-1.977-.58-3.258-2.228-4.813-3.563.701-3.007 3.196-5.491 1.876-8.998-.944-.756-2.046-1.636-3.387-2.707 1.633-3.4 3.228-6.865 4.944-10.269 4.248-8.424 9.214-16.441 14.126-24.487.582-.953 1.236-1.884 1.669-2.904 2.757-6.504 6.662-12.36 10.263-18.395 2.292-3.84 4.331-7.829 6.457-11.766 3.493-6.466 6.958-12.947 10.455-19.411.22-.407.614-.72 1.032-1.198h3.291l3.641-2.328c2.412.385 4.544 1.348 6.724 2.639l-.513 5.413c1.069 1.023 1.823.564 2.367.029.998-.979 1.864-2.093 2.969-3.362l4.525 2.011-.548 4.775 1.917.923 2.951-3.819 3.879.628c1.744 2.177-.254 4.266.404 6.172.481.023.889.168 1.046.029.949-.831 1.84-1.727 2.935-2.779l4.99 2.114-1.079 4.697c.867-.582 1.365-.838 1.762-1.204.453-.419.816-.936 1.181-1.365 1.785.584 3.387 1.229 5.047 1.617 1.819.425 3.712.926 5.535.813 1.682-.104 3.314-.979 5.206-1.592l5.35 2.738c-.349 2.203-2.926 3.403-2.04 5.864l1.391.831 4.48-2.851 5.07 3.613-1.893 4.555c.961.028 1.742.257 2.338.021.999-.394 1.88-1.086 2.831-1.664l4.202 3.135-2.124 5.102c2.364 1.122 3.275-1.204 5.272-1.657l4.411 2.641-2.662 4.131 1.481 1.158 4.061-2.16 4.654 3.471-2.172 3.554c-.809 2.181.346 3.787 1.442 5.383-1.084 1.446-1.975 2.772-3.002 3.982-4.551 5.361-9.141 10.688-13.715 16.031-.312.364-.562.783-.891 1.129-5.624 5.908-11.276 11.788-16.876 17.718-3.401 3.6-6.692 7.302-10.092 10.903-1.754 1.858-3.649 3.582-5.456 5.391-2.935 2.939-5.838 5.91-8.774 8.847-3.39 3.389-6.792 6.765-10.216 10.118-.439.433-1.042.7-2.015 1.332zm4.053-95.342c4.029-2.177 6.607-5.857 10.034-9.319-5.627-1.872-10.921-3.492-16.108-5.399-5.377-1.977-10.65-4.232-15.873-6.327l-5.756 3.003c-.665 1.636-1.378 3.406-2.104 5.171-2.612 6.357-5.403 12.618-9.001 18.508-2.997 4.907-5.791 9.937-8.682 14.908-1.285 2.211-2.562 4.427-3.887 6.613-4.715 7.783-10.487 14.933-14.125 23.66.465.897 1.044 2.011 1.713 3.296-.23 2.376-.471 4.866-.731 7.563 3.357 1.157 6.549 2.168 9.673 3.358 3.262 1.243 6.456 2.658 9.676 3.996.754-.624 1.398-1.1 1.973-1.648.646-.615.865-1.304-.106-2.153l-3.534 1.563-3.296-5.439c.982-2.372 3.425-3.73 3.414-6.739l-1.95-3.597c1.389-1.774 2.747-3.509 4.474-5.718-2.681-.782-4.469-2.721-7.228-3.104-.402.565-.714 1.112-1.133 1.558-.369.392-.86.671-1.478 1.135-.176-2.849 1.185-5.858 3.399-7.999.108.097.302.185.31.29.076.924.12 1.85.186 2.996 2.377 1.312 4.529 3.31 7.667 3.275l4.947-4.847c-2.998-2.883-6.932-3.792-9.528-6.704 4.165.741 7.37 3.594 11.126 5.371.875-.719 1.663-1.261 2.314-1.934.629-.651 1.119-1.437 1.688-2.185-2.215-2.035-4.625-3.234-7.162-4.265-3.044-1.237-5.023-3.326-5.062-6.965l1.361-1.818c2.895-.144 5.461.105 7.399 2.485-1.312 1.033-2.254.099-3.28-.19-1.055-.298-2.157-.706-3.092.314-.362 1.329.432 2.235 1.323 2.854 3.263 2.262 6.729 4.156 10.55 5.421 2.682-2.68 5.958-4.536 7.394-8.391-2.732-1.448-5.247-2.827-7.802-4.126-4.767-2.424-5.113-2.639-6.806-4.873 2.566-.068 4.078 2.474 6.794 2.542-.699-3.304-2.678-5.951-2.373-10.001 2.799 3.386 3.082 7.137 5.133 10.009 4.329-.227 8.593-.45 12.858-.675.678-.607 1.728-.94 1.576-2.301-2.615-1.612-5.354-3.211-7.998-4.956-2.759-1.821-6.151-2.69-8.351-5.23 1.062-4.024 1.151-4.181 3.516-5.875l-1.415 5.806 8.078 4.539c.476-.751.775-1.301 1.149-1.795.44-.58.681-1.488 2.036-1.154l-.875 4.403c2.075 1.398 4.001 2.419 6.335 2.741 2.04-2.289 4.47-4.113 5.787-6.838-3.741-3.057-12.039-7.994-15.769-9.435-1.032-.103-1.046 2.178-2.685 1.018.931-2.197 1.828-4.387 2.815-6.536.111-.241.733-.248 1.4-.449l-.595 4.099c5.564 3.306 11.022 6.548 16.526 9.819 1.5-.864 2.648-1.895 3.3-3.421l-.139.092zm-3.843 92.954c4.128-2.539 7.258-6.17 10.459-9.738 2.456-2.737 4.987-5.409 7.517-8.08 3.076-3.249 6.19-6.463 9.278-9.701 1.546-1.622 3.049-3.284 4.606-4.895 3.886-4.022 7.793-8.023 11.685-12.036 1.114-1.149 2.222-2.303 3.314-3.472 2.509-2.687 5.042-5.352 7.501-8.084 4.167-4.63 7.476-9.981 12.08-14.257.784-.729 1.231-1.819 1.735-2.59-.978-4.163-.97-4.16.565-8.042.096-.243-.092-.598-.179-1.069l-1.914-1.366c-1.963.772-3.884 1.79-6.175.693l-.98-1.445 1.88-4.007-2.11-1.132-4.226 1.918-2.552-1.368 1.686-5.203-2.16-1.712-4.366 1.583-2.154-1.952 1.138-3.978-2.743-2.414c-2.358 1.212-4.472 3.051-7.007 1.275-1.163-1.933-.42-3.537.276-5.17.171-.402.102-.905.161-1.546l-2.549-1.449c-3.26 1.355-6.583 2.457-9.991.929-1.556 1.314-2.807 2.586-4.261 3.555-4.032 2.687-7.448 6.031-10.801 9.485-5.794 5.969-11.674 11.855-17.517 17.776-3.822 3.872-7.571 7.822-11.489 11.596-4.605 4.437-8.654 9.415-13.625 13.501-3.709 3.047-6.822 6.705-9.705 10.604l1.766 4.261c-.992 1.915-2.004 3.872-3.13 6.049l1.481 2.495 4.033-.328c2.855 1.94 1.038 3.977.74 5.806l1.241 1.317c1.537-.31 3.248-1.371 4.735-.169 1.992 1.967-.545 4.002.237 6.032 2.217-.013 4.621-1.546 6.373 1.357l-.309 4.412 4.028-1.541c3.389 1.542 1.415 4.319 1.942 6.59l4.548-1.648 1.792 2.015-.502 3.953 2.278 1.452 6.541-2.036 4.829 1.774zm12.623-113.262l-4.352 2.889-2.475-1.645c.16-.998.3-1.773.404-2.552.104-.775.173-1.555.281-2.552l-1.96-.636-4.226 3.629-3.256-1.648.284-4.846-1.696-.78c-2.297 1.455-3.586 5.117-6.653 3.312-2.529-2.389-.051-4.776-1.236-7.091l-3.29-.987c-1.303.701-2.357 1.532-3.545 1.838-1.317.338-2.757.195-4.23.265-1.071 2.075-2.137 4.206-3.261 6.305-2.111 3.943-4.251 7.87-6.389 11.799-2.978 5.473-5.802 11.037-9 16.38-2.548 4.255-5.097 8.486-7.242 12.964-1.308 2.731-2.762 5.413-4.386 7.967-5.234 8.231-10.178 16.624-14.492 25.376-.693 1.406-1.247 2.88-1.78 4.124l3.291 4.839-1.923 7.601 1.869 1.725 5.13-2.38 2.426 1.325.452 4.857 2.038.989 3.545-2.953 2.441.808c.35.593.624.855.655 1.144.132 1.238.194 2.485.282 3.731l1.544.874c1.585-1.23 3.059-3.399 5.559-2.012 1.714 1.459.318 3.426 1.046 5.272l1.641 1.154 4.507-2.998 2.331 1.887.274 4.563c1.148.391 2.165.946 3.215 1.016.619.041 1.288-.687 1.916-1.057l-.576-2.481 1.384-2.891-1.402-1.024-3.148 1.302c-1.042-1.241-2.724-1.672-3.48-3.252l2.123-2.723-.602-1.555-3.106 1.433c-4.531-1.91-8.784-3.666-13.007-5.493-4.362-1.887-9.172-2.628-13.495-5.048.394-2.959 1.717-5.679.989-8.509l-2.025-3.223c2.026-3.647 3.863-7.183 5.911-10.591 5.017-8.351 10.672-16.314 15.231-24.953 1.786-3.383 3.993-6.543 5.88-9.877 1.965-3.47 3.897-6.968 5.623-10.559 2.344-4.88 4.479-9.861 6.587-14.539l6.549-3.639c10.936 5.239 22.22 10.012 34.39 12.208 1.824-1.242 3.765-2.003 5.103-4.028l-1.574-1.027-3.576 2.693-1.702-.645c-1.05-1.76-.037-3.299-.054-4.853-.003-.278-.248-.554-.402-.875l-1.36-.347zm-34.669 38.772c1.503 1.388 3.118 2.412 5.034 2.977 1.415-.992 2.62-1.924 3.068-3.719-2.566 0-4.885-.015-7.203.024-.227.003-.448.345-.899.718zm26.029-18.555l-1.857-.24.084-1.701c.748.948 1.18 1.498 1.623 2.04l.15-.099zm-25.881-14.589l-1.241-.177c.114-.256.271-.742.336-.73.352.065.681.252 1.018.398l-.113.509zm-34.88 63.222l-.481-1.044.802-.239.311 1.053-.632.23zm37.803-62.441c1.425-.561 1.516-.091.909 1.06l-.909-1.06zm8.048 4.669l-.588.348c-.093-.229-.283-.474-.249-.682.025-.159.335-.272.518-.406l.319.74zm-38.112 60.948l.57.457c-.162.187-.306.396-.496.546-.042.033-.371-.17-.36-.219.059-.27.184-.525.286-.784zm-3.402-1.429l-.054 1.087-.336-.024c-.019-.354-.015-.71-.015-1.066l.405.003zm54.635 35.661c-4.866-2.705-9.345-1.502-13.875.071-9.544-7.903-17.985-16.747-26.248-25.92 1.149-3.443 2.998-6.613 1.682-10.483 2.166-1.932 4.272-3.858 6.43-5.723 5.32-4.597 10.945-8.883 15.934-13.811 7.496-7.406 14.538-15.268 21.802-22.91 4.95-5.207 9.94-10.378 14.941-15.537.423-.436 1.068-.659 1.801-1.095 2.812 1.593 5.802 2.544 8.623 1.056 9.368 7.434 18.455 14.648 27.728 22.006l-1.527 4.574 2.336 3.772c-7.335 4.668-11.783 12.147-17.262 18.672-4.004 4.771-7.699 9.8-11.578 14.677-1.091 1.372-2.312 2.649-3.536 3.909-5.678 5.846-11.315 11.735-17.096 17.477-3.167 3.144-6.592 6.031-10.155 9.265zm-.332-2.391c3.57-2.502 6.703-5.215 9.573-8.235 3.527-3.708 6.923-7.553 10.618-11.088 5.219-4.992 10.004-10.333 14.46-16.009 7.103-9.045 13.986-18.278 22.051-26.576v-7.808c-8.245-6.546-16.728-13.281-25.16-19.977-1.499.086-2.937.352-4.329.199-1.551-.17-3.058-.723-4.812-1.167-2.187 2.107-4.45 4.127-6.53 6.32-7.147 7.54-14.234 15.139-21.34 22.719-8 8.536-16.573 16.456-25.668 23.821-1.717 1.39-3.27 2.978-4.153 3.789-.85 4.227-1.499 7.458-2.169 10.796 7.961 7.963 15.305 16.638 24.407 23.71 4.314-1.911 8.726-1.636 13.052-.494zm18.775-36.965c-.494.327-.611.445-.749.483-.148.041-.325.037-.474-.004-.145-.04-.309-.12-.398-.234-5.285-6.78-10.568-13.561-15.824-20.363-.254-.33-.261-.851-.368-1.231.705-.816 1.272-.329 1.64.126 1.401 1.734 2.709 3.542 4.097 5.286.366.459.672 1.133 1.719.936.529-3.528-1.014-6.928-1.306-10.713 2.128 1.908 2.149 1.904 2.973 6.877.389 2.343.681 4.701.978 6.776 4.259 3.867 10.194 4.379 13.777 8.647.05.06-.08.271-.139.453-1.034.626-1.696-.334-2.496-.655-.885-.354-1.744-.778-2.591-1.219-.847-.441-1.673-.925-2.491-1.418-.799-.482-1.569-1.024-2.77-.768.596 2.963 3.067 4.53 4.422 7.021zm-25.544-11.3l1.317-2.036c5.218-1.409 6.018-1.026 8.668 4.021-.562.77-1.115.414-1.462-.137-.986-1.563-2.26-2.672-4.476-3.029l-1.585.825c-.15.577-.379.941-.285 1.178.575 1.46.918 3.157 1.903 4.285 3.247 3.714 6.683 7.271 10.167 10.768.832.834 2.136 1.199 3.387 1.869 1.705-3.886-2.162-6.247-2.381-10.347 2.802 2.747 3.715 5.421 4.975 8.347l-1.231 3.44c-2.13.66-3.612-.142-4.816-1.12-5.103-4.149-9.749-8.746-12.972-14.562-.6-1.081-.828-2.365-1.209-3.502zm33.782 4.741c-.421-.678-.701-1.274-1.11-1.762-3.467-4.148-6.97-8.267-10.433-12.42-.81-.971-1.568-2-2.231-3.076-.486-.789-.777-1.697-1.146-2.534 1.162-2.471 3.429-3.388 5.225-4.785 1.072.768.771 1.469.157 2.038-1.035.957-2.149 1.83-3.36 2.85 1.118 3.789 4.038 5.966 6.66 8.735l3.524-3.408c1.253.37.875 1.224.482 1.854-.658 1.053-1.481 2.004-2.326 3.119 1.53 2.556 3.183 4.805 5.471 6.862l4.321-4.02c0 .976.195 1.602-.033 1.954-1.118 1.717-2.306 3.406-5.201 4.593zm-29.574 27.193c-3.461-1.747-5.509-4.946-8.021-7.649-2.481-2.671-4.715-5.571-7.139-8.468l-4.843 3.804-1.334-.812c.102-.39.084-.771.267-.955 2.462-2.484 4.938-4.956 7.445-7.395.654-.636 1.366-1.401 2.686-.385l-2.966 3.885c1.474 2.018 2.872 4.105 4.449 6.046 1.604 1.974 3.403 3.787 5.084 5.7 1.658 1.886 3.515 3.63 4.372 6.229zm16.59-53.822c2.902-3.382 5.535-5.748 7.864-8.828 1.343 2.257-.886 2.776-.699 4.042.062.298.023.686.2.882 3.636 4.036 7.303 8.045 10.949 12.071 1.379 1.522 2.724 3.074 4.021 4.542-.837 1.282-1.507.899-2.081.283-3.705-3.98-7.386-7.98-11.08-11.971-1.08-1.167-2.168-2.325-3.129-3.354-2.25-.09-3.045 2.508-6.045 2.333zm-23.115 28.832c.67.267 1.041.298 1.206.498 4.124 4.978 8.227 9.975 12.483 15.151-.572.226-1.175.593-1.278.485-4.482-4.686-8.87-9.455-12.394-14.931-.129-.198-.017-.55-.017-1.203zm-15.172 14.062c.245.123.627.196.696.383.075.208-.134.52-.22.787-.275-.123-.671-.181-.788-.391-.086-.156.193-.511.312-.779zm51.534-55.086l-2.237-.452c.669-1.536 1.234-1.605 2.237.452zm3.53 4.73l-.658-1.366c.256-.106.603-.373.754-.289.612.339.681.834-.096 1.655zm13.285 14.809c.694-.497 1.19-.581 1.4.209.033.127-.445.552-.517.515-.315-.165-.566-.448-.883-.724zm-59.518 43.644c.268.105.715.165.758.329.062.234-.173.546-.281.824-.264-.126-.641-.191-.757-.4-.085-.153.173-.495.28-.753zm10.726 11.28l.433.55c-.202.118-.394.263-.61.338-.063.021-.292-.212-.279-.235.126-.221.287-.423.456-.653zm-3.828-3.797c.242.109.58.161.691.348.078.131-.106.594-.257.641-.195.062-.475-.144-.718-.233l.284-.756zm-18.426-19.234l-.81.39-.382-.82c.271-.112.581-.36.802-.296.184.054.265.469.39.726zm63.117-41.657l1.234 1.272c-1.605-.001-1.605-.001-1.234-1.272zm4.806 6.171l-1.602-1.195 1.3-.295.302 1.49zm-71.39 33.068l-.428-.638.919-.418c.086.23.308.558.228.67-.144.197-.469.264-.719.386zm53.797-52.771c-.209.126-.485.385-.581.331-.215-.123-.35-.396-.487-.627-.011-.018.26-.272.305-.247.259.143.488.338.763.543zm25.054 26.943l.415-.135.117.551c-.149-.023-.319-.012-.439-.083-.071-.044-.064-.217-.093-.333zm-68.241 35.708c.046.327.1.653.123.982.002.024-.216.065-.333.098l-.166-1.023.376-.057zm18.145 20.756l-.358-.772.763.022-.405.75zm-10.657-12.08v-1.015h.283v1.015h-.283z"/><polygon points="110.715,40.279 113.136,41.056 115.151,39.506 115.158,42.043 117.257,43.475 114.841,44.266 114.125,46.7 112.623,44.652 110.08,44.725 111.57,42.668"/><polygon points="65.783,23.425 68.307,23.735 69.994,21.836 70.479,24.326 72.811,25.339 70.587,26.569 70.341,29.093 68.48,27.364 65.997,27.911 67.073,25.612"/><polygon points="51.162,100.115 53.583,100.892 55.597,99.343 55.605,101.879 57.704,103.311 55.288,104.102 54.572,106.536 53.07,104.489 50.527,104.561 52.017,102.504"/></g></svg>