<?xml version="1.0" encoding="utf-8"?>
<!-- Generator: Adobe Illustrator 17.1.0, SVG Export Plug-In . SVG Version: 6.00 Build 0)  -->
<!DOCTYPE svg PUBLIC "-//W3C//DTD SVG 1.1//EN" "http://www.w3.org/Graphics/SVG/1.1/DTD/svg11.dtd">
<svg version="1.1" id="Layer_1" xmlns="http://www.w3.org/2000/svg" xmlns:xlink="http://www.w3.org/1999/xlink" x="0px" y="0px"
	 viewBox="0 0 144 132" enable-background="new 0 0 144 132" xml:space="preserve">
<path opacity="0.2" fill="#FFFFFF" d="M124.255,58.906c-8.971-7.715-15.467-17.535-25.417-24.223
	c-7.512-5.049-14.656,1.886-14.654,8.967c-5.387,0.078-10.615,3.027-14.206,8.739c-6.036,9.598-19.032,12.039-20.37,24.907
	c-0.96,9.238,6.24,19.521,11.669,26.313c6.407,8.015,14.785,14.574,25.555,12.37c10.272-2.102,17.692-12.284,23.176-20.337
	c2.806-4.12,5.318-8.439,7.874-12.715c1.166-1.952,2.347-3.894,3.563-5.816c0.546-0.864,1.116-1.712,1.69-2.557
	c0.262-0.383,0.535-0.758,0.808-1.133c0.081-0.098,0.18-0.217,0.311-0.376C127.559,69.121,128.649,62.685,124.255,58.906z"/>
<path opacity="0.2" fill="#FFFFFF" d="M67.455,32.914c-2.302-1.987-5.078-3.372-7.35-5.332c-5.561-4.798-14.677-3.255-16.753,4.412
	c-0.497,1.837-1.037,3.577-1.62,5.264c-2.111,0.807-3.944,2.355-5.389,4.344c-0.963,1.325-1.784,2.768-2.481,4.276
	c-4.279,3.643-8.196,7.861-11.583,11.984c-2.781,3.386-4.27,6.87-5.852,10.937c-1.77,4.552-4.775,12.41-1.395,16.922
	c4.422,5.904,12.174,5.731,17.016,0.268c2.593-2.926,4.23-6.798,5.078-10.746c0.387-0.076,0.779-0.171,1.18-0.294
	c8.724-2.679,13.744-9.114,15.756-16.806c0.319-0.526,0.623-1.058,0.926-1.591c3.05-0.811,4.96-3.491,5.464-6.659
	c2.497,0.046,4.983-0.829,7.001-2.841C71.108,43.409,71.59,36.482,67.455,32.914z"/>
<g opacity="0.6">
	<path fill-rule="evenodd" clip-rule="evenodd" d="M72.231,131.053c-4.386-3.778-8.164-2.052-11.675,0.947
		c-1.427-1.568-2.698-2.963-4.149-4.558c0.341-1.034,0.723-2.195,1.254-3.805c-0.895,0.178-1.512,0.144-1.928,0.416
		c-0.788,0.516-1.46,1.208-2.382,1.998c-1.111-0.864-2.201-1.712-3.052-2.373c-0.729-1.886,1.906-3.064,0.165-4.957
		c-2.337,1.398-4.741,2.834-7.551,4.512c-1.558-0.657-3.437-1.449-5.01-2.112c-1.182-1.959,1.047-3.73-0.687-5.561
		c-0.439,0.202-1.093,0.32-1.454,0.708c-0.738,0.798-1.318,1.742-2.152,2.882c-1.711-0.916-3.351-1.794-5.12-2.742
		c0.155-1.537,0.294-2.924,0.448-4.465c-0.571-0.08-1.205-0.345-1.385-0.163c-0.766,0.772-1.398,1.678-2.168,2.648
		c-2.132,0.227-3.261-1.512-4.872-2.602c0.152-1.143,0.295-2.219,0.445-3.356c-0.384-0.281-0.744-0.545-1.603-1.174
		c-0.846,1.121-1.694,2.246-2.536,3.362c-1.973-0.171-3.398-1.21-5.052-2.21c-0.073-1.604-0.149-3.287-0.221-4.878
		c-2.698-0.879-3.304,1.87-5.222,2.454c-1.977-0.58-3.258-2.228-4.813-3.563c0.701-3.007,3.196-5.491,1.876-8.998
		C2.443,92.707,1.341,91.827,0,90.756c1.633-3.4,3.228-6.865,4.944-10.269c4.248-8.424,9.214-16.441,14.126-24.487
		c0.582-0.953,1.236-1.884,1.669-2.904c2.757-6.504,6.662-12.36,10.263-18.395c2.292-3.84,4.331-7.829,6.457-11.766
		c3.493-6.466,6.958-12.947,10.455-19.411c0.22-0.407,0.614-0.72,1.032-1.198c1.018,0,2.106,0,3.291,0
		c1.166-0.745,2.362-1.51,3.641-2.328c2.412,0.385,4.544,1.348,6.724,2.639c-0.187,1.968-0.361,3.812-0.513,5.413
		c1.069,1.023,1.823,0.564,2.367,0.029c0.998-0.979,1.864-2.093,2.969-3.362c1.5,0.666,2.917,1.296,4.525,2.011
		c-0.194,1.689-0.369,3.213-0.548,4.775c0.493,0.238,0.903,0.435,1.917,0.923c0.877-1.135,1.846-2.39,2.951-3.819
		c1.389,0.225,2.768,0.448,3.879,0.628c1.744,2.177-0.254,4.266,0.404,6.172c0.481,0.023,0.889,0.168,1.046,0.029
		c0.949-0.831,1.84-1.727,2.935-2.779c1.606,0.681,3.185,1.349,4.99,2.114c-0.348,1.513-0.65,2.832-1.079,4.697
		c0.867-0.582,1.365-0.838,1.762-1.204c0.453-0.419,0.816-0.936,1.181-1.365c1.785,0.584,3.387,1.229,5.047,1.617
		c1.819,0.425,3.712,0.926,5.535,0.813c1.682-0.104,3.314-0.979,5.206-1.592c1.637,0.837,3.455,1.768,5.35,2.738
		c-0.349,2.203-2.926,3.403-2.04,5.864c0.316,0.189,0.708,0.423,1.391,0.831c1.382-0.879,2.836-1.804,4.48-2.851
		c1.543,1.099,3.186,2.27,5.07,3.613c-0.56,1.347-1.146,2.758-1.893,4.555c0.961,0.028,1.742,0.257,2.338,0.021
		c0.999-0.394,1.88-1.086,2.831-1.664c1.41,1.052,2.679,1.999,4.202,3.135c-0.698,1.676-1.395,3.35-2.124,5.102
		c2.364,1.122,3.275-1.204,5.272-1.657c1.208,0.723,2.678,1.604,4.411,2.641c-0.891,1.382-1.717,2.663-2.662,4.131
		c0.504,0.394,0.959,0.75,1.481,1.158c1.381-0.735,2.632-1.399,4.061-2.16c1.443,1.076,2.956,2.204,4.654,3.471
		c-0.797,1.304-1.523,2.492-2.172,3.554c-0.809,2.181,0.346,3.787,1.442,5.383c-1.084,1.446-1.975,2.772-3.002,3.982
		c-4.551,5.361-9.141,10.688-13.715,16.031c-0.312,0.364-0.562,0.783-0.891,1.129c-5.624,5.908-11.276,11.788-16.876,17.718
		c-3.401,3.6-6.692,7.302-10.092,10.903c-1.754,1.858-3.649,3.582-5.456,5.391c-2.935,2.939-5.838,5.91-8.774,8.847
		c-3.39,3.389-6.792,6.765-10.216,10.118C73.807,130.154,73.204,130.421,72.231,131.053z M76.284,35.711
		c4.029-2.177,6.607-5.857,10.034-9.319c-5.627-1.872-10.921-3.492-16.108-5.399c-5.377-1.977-10.65-4.232-15.873-6.327
		c-1.931,1.008-3.763,1.963-5.756,3.003c-0.665,1.636-1.378,3.406-2.104,5.171c-2.612,6.357-5.403,12.618-9.001,18.508
		c-2.997,4.907-5.791,9.937-8.682,14.908c-1.285,2.211-2.562,4.427-3.887,6.613c-4.715,7.783-10.487,14.933-14.125,23.66
		c0.465,0.897,1.044,2.011,1.713,3.296c-0.23,2.376-0.471,4.866-0.731,7.563c3.357,1.157,6.549,2.168,9.673,3.358
		c3.262,1.243,6.456,2.658,9.676,3.996c0.754-0.624,1.398-1.1,1.973-1.648c0.646-0.615,0.865-1.304-0.106-2.153
		c-1.14,0.505-2.361,1.044-3.534,1.563c-1.235-2.038-2.298-3.792-3.296-5.439c0.982-2.372,3.425-3.73,3.414-6.739
		c-0.532-0.979-1.198-2.21-1.95-3.597c1.389-1.774,2.747-3.509,4.474-5.718c-2.681-0.782-4.469-2.721-7.228-3.104
		c-0.402,0.565-0.714,1.112-1.133,1.558c-0.369,0.392-0.86,0.671-1.478,1.135c-0.176-2.849,1.185-5.858,3.399-7.999
		c0.108,0.097,0.302,0.185,0.31,0.29c0.076,0.924,0.12,1.85,0.186,2.996c2.377,1.312,4.529,3.31,7.667,3.275
		c1.64-1.607,3.2-3.135,4.947-4.847c-2.998-2.883-6.932-3.792-9.528-6.704c4.165,0.741,7.37,3.594,11.126,5.371
		c0.875-0.719,1.663-1.261,2.314-1.934c0.629-0.651,1.119-1.437,1.688-2.185c-2.215-2.035-4.625-3.234-7.162-4.265
		c-3.044-1.237-5.023-3.326-5.062-6.965c0.431-0.575,0.894-1.193,1.361-1.818c2.895-0.144,5.461,0.105,7.399,2.485
		c-1.312,1.033-2.254,0.099-3.28-0.19c-1.055-0.298-2.157-0.706-3.092,0.314c-0.362,1.329,0.432,2.235,1.323,2.854
		c3.263,2.262,6.729,4.156,10.55,5.421c2.682-2.68,5.958-4.536,7.394-8.391c-2.732-1.448-5.247-2.827-7.802-4.126
		c-4.767-2.424-5.113-2.639-6.806-4.873c2.566-0.068,4.078,2.474,6.794,2.542c-0.699-3.304-2.678-5.951-2.373-10.001
		c2.799,3.386,3.082,7.137,5.133,10.009c4.329-0.227,8.593-0.45,12.858-0.675c0.678-0.607,1.728-0.94,1.576-2.301
		c-2.615-1.612-5.354-3.211-7.998-4.956c-2.759-1.821-6.151-2.69-8.351-5.23c1.062-4.024,1.151-4.181,3.516-5.875
		c-0.519,2.129-0.945,3.873-1.415,5.806c2.719,1.528,5.335,2.998,8.078,4.539c0.476-0.751,0.775-1.301,1.149-1.795
		c0.44-0.58,0.681-1.488,2.036-1.154c-0.286,1.436-0.577,2.906-0.875,4.403c2.075,1.398,4.001,2.419,6.335,2.741
		c2.04-2.289,4.47-4.113,5.787-6.838c-3.741-3.057-12.039-7.994-15.769-9.435c-1.032-0.103-1.046,2.178-2.685,1.018
		c0.931-2.197,1.828-4.387,2.815-6.536c0.111-0.241,0.733-0.248,1.4-0.449c-0.217,1.495-0.392,2.699-0.595,4.099
		c5.564,3.306,11.022,6.548,16.526,9.819c1.5-0.864,2.648-1.895,3.3-3.421L76.284,35.711z M72.441,128.665
		c4.128-2.539,7.258-6.17,10.459-9.738c2.456-2.737,4.987-5.409,7.517-8.08c3.076-3.249,6.19-6.463,9.278-9.701
		c1.546-1.622,3.049-3.284,4.606-4.895c3.886-4.022,7.793-8.023,11.685-12.036c1.114-1.149,2.222-2.303,3.314-3.472
		c2.509-2.687,5.042-5.352,7.501-8.084c4.167-4.63,7.476-9.981,12.08-14.257c0.784-0.729,1.231-1.819,1.735-2.59
		c-0.978-4.163-0.97-4.16,0.565-8.042c0.096-0.243-0.092-0.598-0.179-1.069c-0.537-0.384-1.175-0.838-1.914-1.366
		c-1.963,0.772-3.884,1.79-6.175,0.693c-0.249-0.367-0.593-0.875-0.98-1.445c0.626-1.334,1.21-2.578,1.88-4.007
		c-0.929-0.498-1.592-0.854-2.11-1.132c-1.537,0.697-2.837,1.288-4.226,1.918c-0.841-0.451-1.634-0.876-2.552-1.368
		c0.603-1.862,1.13-3.488,1.686-5.203c-0.835-0.662-1.556-1.234-2.16-1.712c-1.574,0.571-2.902,1.052-4.366,1.583
		c-0.76-0.688-1.425-1.292-2.154-1.952c0.395-1.378,0.739-2.581,1.138-3.978c-0.869-0.765-1.8-1.585-2.743-2.414
		c-2.358,1.212-4.472,3.051-7.007,1.275c-1.163-1.933-0.42-3.537,0.276-5.17c0.171-0.402,0.102-0.905,0.161-1.546
		c-0.821-0.467-1.637-0.93-2.549-1.449c-3.26,1.355-6.583,2.457-9.991,0.929c-1.556,1.314-2.807,2.586-4.261,3.555
		c-4.032,2.687-7.448,6.031-10.801,9.485c-5.794,5.969-11.674,11.855-17.517,17.776c-3.822,3.872-7.571,7.822-11.489,11.596
		c-4.605,4.437-8.654,9.415-13.625,13.501c-3.709,3.047-6.822,6.705-9.705,10.604c0.587,1.417,1.128,2.719,1.766,4.261
		c-0.992,1.915-2.004,3.872-3.13,6.049c0.476,0.801,1.019,1.716,1.481,2.495c1.66-0.135,3.039-0.247,4.033-0.328
		c2.855,1.94,1.038,3.977,0.74,5.806c0.424,0.45,0.741,0.785,1.241,1.317c1.537-0.31,3.248-1.371,4.735-0.169
		c1.992,1.967-0.545,4.002,0.237,6.032c2.217-0.013,4.621-1.546,6.373,1.357c-0.084,1.202-0.188,2.68-0.309,4.412
		c1.646-0.63,2.945-1.127,4.028-1.541c3.389,1.542,1.415,4.319,1.942,6.59c1.537-0.557,2.973-1.077,4.548-1.648
		c0.706,0.793,1.309,1.472,1.792,2.015c-0.188,1.483-0.343,2.697-0.502,3.953c0.951,0.605,1.731,1.103,2.278,1.452
		c2.439-0.759,4.563-1.42,6.541-2.036C69.364,127.535,70.855,128.082,72.441,128.665z M85.064,15.403
		c-1.44,0.955-2.867,1.903-4.352,2.889c-0.943-0.627-1.695-1.127-2.475-1.645c0.16-0.998,0.3-1.773,0.404-2.552
		c0.104-0.775,0.173-1.555,0.281-2.552c-0.813-0.264-1.5-0.487-1.96-0.636c-1.556,1.337-2.862,2.458-4.226,3.629
		c-1.225-0.62-2.18-1.104-3.256-1.648c0.1-1.706,0.19-3.239,0.284-4.846c-0.612-0.281-1.179-0.542-1.696-0.78
		c-2.297,1.455-3.586,5.117-6.653,3.312c-2.529-2.389-0.051-4.776-1.236-7.091c-1.058-0.317-2.253-0.676-3.29-0.987
		c-1.303,0.701-2.357,1.532-3.545,1.838c-1.317,0.338-2.757,0.195-4.23,0.265c-1.071,2.075-2.137,4.206-3.261,6.305
		c-2.111,3.943-4.251,7.87-6.389,11.799c-2.978,5.473-5.802,11.037-9,16.38c-2.548,4.255-5.097,8.486-7.242,12.964
		c-1.308,2.731-2.762,5.413-4.386,7.967C13.602,68.245,8.658,76.638,4.344,85.39c-0.693,1.406-1.247,2.88-1.78,4.124
		c1.202,1.767,2.178,3.202,3.291,4.839c-0.626,2.471-1.242,4.911-1.923,7.601c0.581,0.536,1.254,1.158,1.869,1.725
		c1.877-0.871,3.575-1.659,5.13-2.38c0.984,0.537,1.67,0.912,2.426,1.325c0.156,1.669,0.301,3.23,0.452,4.857
		c0.743,0.361,1.42,0.689,2.038,0.989c1.288-1.072,2.371-1.975,3.545-2.953c0.97,0.321,1.837,0.608,2.441,0.808
		c0.35,0.593,0.624,0.855,0.655,1.144c0.132,1.238,0.194,2.485,0.282,3.731c0.468,0.265,0.874,0.495,1.544,0.874
		c1.585-1.23,3.059-3.399,5.559-2.012c1.714,1.459,0.318,3.426,1.046,5.272c0.458,0.323,1.082,0.761,1.641,1.154
		c1.599-1.064,3.019-2.008,4.507-2.998c0.951,0.77,1.67,1.352,2.331,1.887c0.096,1.595,0.18,3.003,0.274,4.563
		c1.148,0.391,2.165,0.946,3.215,1.016c0.619,0.041,1.288-0.687,1.916-1.057c-0.225-0.969-0.401-1.727-0.576-2.481
		c0.461-0.964,0.917-1.916,1.384-2.891c-0.585-0.428-0.952-0.696-1.402-1.024c-1.016,0.42-2.013,0.833-3.148,1.302
		c-1.042-1.241-2.724-1.672-3.48-3.252c0.764-0.981,1.434-1.84,2.123-2.723c-0.194-0.499-0.353-0.912-0.602-1.555
		c-1.225,0.565-2.333,1.076-3.106,1.433c-4.531-1.91-8.784-3.666-13.007-5.493c-4.362-1.887-9.172-2.628-13.495-5.048
		c0.394-2.959,1.717-5.679,0.989-8.509c-0.694-1.105-1.353-2.152-2.025-3.223c2.026-3.647,3.863-7.183,5.911-10.591
		C19.386,67.493,25.041,59.53,29.6,50.891c1.786-3.383,3.993-6.543,5.88-9.877c1.965-3.47,3.897-6.968,5.623-10.559
		c2.344-4.88,4.479-9.861,6.587-14.539c2.276-1.264,4.348-2.416,6.549-3.639c10.936,5.239,22.22,10.012,34.39,12.208
		c1.824-1.242,3.765-2.003,5.103-4.028c-0.693-0.452-1.161-0.758-1.574-1.027c-1.294,0.975-2.418,1.821-3.576,2.693
		c-0.711-0.269-1.285-0.487-1.702-0.645c-1.05-1.76-0.037-3.299-0.054-4.853c-0.003-0.278-0.248-0.554-0.402-0.875
		C85.995,15.64,85.536,15.523,85.064,15.403z M50.395,54.175c1.503,1.388,3.118,2.412,5.034,2.977
		c1.415-0.992,2.62-1.924,3.068-3.719c-2.566,0-4.885-0.015-7.203,0.024C51.067,53.46,50.846,53.802,50.395,54.175z"/>
	<path fill-rule="evenodd" clip-rule="evenodd" d="M76.424,35.62c-0.584-0.075-1.169-0.151-1.857-0.24
		c0.017-0.352,0.035-0.714,0.084-1.701c0.748,0.948,1.18,1.498,1.623,2.04C76.284,35.711,76.424,35.62,76.424,35.62z"/>
	<path fill-rule="evenodd" clip-rule="evenodd" d="M50.543,21.031c-0.414-0.059-0.828-0.118-1.241-0.177
		c0.114-0.256,0.271-0.742,0.336-0.73c0.352,0.065,0.681,0.252,1.018,0.398C50.618,20.692,50.58,20.861,50.543,21.031z"/>
	<path fill-rule="evenodd" clip-rule="evenodd" d="M15.663,84.253c-0.16-0.348-0.32-0.696-0.481-1.044
		c0.267-0.08,0.534-0.16,0.802-0.239c0.104,0.351,0.208,0.702,0.311,1.053C16.084,84.099,15.874,84.176,15.663,84.253z"/>
	<path fill-rule="evenodd" clip-rule="evenodd" d="M53.466,21.812c1.425-0.561,1.516-0.091,0.909,1.06
		C54.063,22.509,53.792,22.193,53.466,21.812z"/>
	<path fill-rule="evenodd" clip-rule="evenodd" d="M61.514,26.481c-0.196,0.116-0.392,0.232-0.588,0.348
		c-0.093-0.229-0.283-0.474-0.249-0.682c0.025-0.159,0.335-0.272,0.518-0.406C61.301,25.987,61.408,26.234,61.514,26.481z"/>
	<path fill-rule="evenodd" clip-rule="evenodd" d="M23.402,87.429c0.191,0.152,0.38,0.305,0.57,0.457
		c-0.162,0.187-0.306,0.396-0.496,0.546c-0.042,0.033-0.371-0.17-0.36-0.219C23.175,87.943,23.3,87.688,23.402,87.429z"/>
	<path fill-rule="evenodd" clip-rule="evenodd" d="M20,86c-0.018,0.362-0.036,0.724-0.054,1.087
		c-0.117-0.008-0.335-0.01-0.336-0.024c-0.019-0.354-0.015-0.71-0.015-1.066C19.731,85.998,19.865,85.999,20,86z"/>
	<path fill-rule="evenodd" clip-rule="evenodd" d="M74.635,121.661c-4.866-2.705-9.345-1.502-13.875,0.071
		c-9.544-7.903-17.985-16.747-26.248-25.92c1.149-3.443,2.998-6.613,1.682-10.483c2.166-1.932,4.272-3.858,6.43-5.723
		c5.32-4.597,10.945-8.883,15.934-13.811c7.496-7.406,14.538-15.268,21.802-22.91c4.95-5.207,9.94-10.378,14.941-15.537
		c0.423-0.436,1.068-0.659,1.801-1.095c2.812,1.593,5.802,2.544,8.623,1.056c9.368,7.434,18.455,14.648,27.728,22.006
		c-0.49,1.468-0.98,2.934-1.527,4.574c0.746,1.205,1.49,2.405,2.336,3.772c-7.335,4.668-11.783,12.147-17.262,18.672
		c-4.004,4.771-7.699,9.8-11.578,14.677c-1.091,1.372-2.312,2.649-3.536,3.909c-5.678,5.846-11.315,11.735-17.096,17.477
		C81.623,115.54,78.198,118.427,74.635,121.661z M74.303,119.27c3.57-2.502,6.703-5.215,9.573-8.235
		c3.527-3.708,6.923-7.553,10.618-11.088c5.219-4.992,10.004-10.333,14.46-16.009c7.103-9.045,13.986-18.278,22.051-26.576
		c0-2.5,0-5.008,0-7.808c-8.245-6.546-16.728-13.281-25.16-19.977c-1.499,0.086-2.937,0.352-4.329,0.199
		c-1.551-0.17-3.058-0.723-4.812-1.167c-2.187,2.107-4.45,4.127-6.53,6.32c-7.147,7.54-14.234,15.139-21.34,22.719
		c-8,8.536-16.573,16.456-25.668,23.821c-1.717,1.39-3.27,2.978-4.153,3.789c-0.85,4.227-1.499,7.458-2.169,10.796
		c7.961,7.963,15.305,16.638,24.407,23.71C65.565,117.853,69.977,118.128,74.303,119.27z"/>
	<path fill-rule="evenodd" clip-rule="evenodd" d="M93.078,82.305c-0.494,0.327-0.611,0.445-0.749,0.483
		c-0.148,0.041-0.325,0.037-0.474-0.004c-0.145-0.04-0.309-0.12-0.398-0.234c-5.285-6.78-10.568-13.561-15.824-20.363
		c-0.254-0.33-0.261-0.851-0.368-1.231c0.705-0.816,1.272-0.329,1.64,0.126c1.401,1.734,2.709,3.542,4.097,5.286
		c0.366,0.459,0.672,1.133,1.719,0.936c0.529-3.528-1.014-6.928-1.306-10.713c2.128,1.908,2.149,1.904,2.973,6.877
		c0.389,2.343,0.681,4.701,0.978,6.776c4.259,3.867,10.194,4.379,13.777,8.647c0.05,0.06-0.08,0.271-0.139,0.453
		c-1.034,0.626-1.696-0.334-2.496-0.655c-0.885-0.354-1.744-0.778-2.591-1.219c-0.847-0.441-1.673-0.925-2.491-1.418
		c-0.799-0.482-1.569-1.024-2.77-0.768C89.252,78.247,91.723,79.814,93.078,82.305z"/>
	<path fill-rule="evenodd" clip-rule="evenodd" d="M67.534,71.005c0.548-0.847,0.972-1.503,1.317-2.036
		c5.218-1.409,6.018-1.026,8.668,4.021c-0.562,0.77-1.115,0.414-1.462-0.137c-0.986-1.563-2.26-2.672-4.476-3.029
		c-0.416,0.217-1.084,0.565-1.585,0.825c-0.15,0.577-0.379,0.941-0.285,1.178c0.575,1.46,0.918,3.157,1.903,4.285
		c3.247,3.714,6.683,7.271,10.167,10.768c0.832,0.834,2.136,1.199,3.387,1.869c1.705-3.886-2.162-6.247-2.381-10.347
		c2.802,2.747,3.715,5.421,4.975,8.347c-0.386,1.078-0.848,2.368-1.231,3.44c-2.13,0.66-3.612-0.142-4.816-1.12
		c-5.103-4.149-9.749-8.746-12.972-14.562C68.143,73.426,67.915,72.142,67.534,71.005z"/>
	<path fill-rule="evenodd" clip-rule="evenodd" d="M101.316,75.746c-0.421-0.678-0.701-1.274-1.11-1.762
		c-3.467-4.148-6.97-8.267-10.433-12.42c-0.81-0.971-1.568-2-2.231-3.076c-0.486-0.789-0.777-1.697-1.146-2.534
		c1.162-2.471,3.429-3.388,5.225-4.785c1.072,0.768,0.771,1.469,0.157,2.038c-1.035,0.957-2.149,1.83-3.36,2.85
		c1.118,3.789,4.038,5.966,6.66,8.735c1.31-1.266,2.415-2.335,3.524-3.408c1.253,0.37,0.875,1.224,0.482,1.854
		c-0.658,1.053-1.481,2.004-2.326,3.119c1.53,2.556,3.183,4.805,5.471,6.862c1.405-1.307,2.651-2.467,4.321-4.02
		c0,0.976,0.195,1.602-0.033,1.954C105.399,72.87,104.211,74.559,101.316,75.746z"/>
	<path fill-rule="evenodd" clip-rule="evenodd" d="M71.742,102.939c-3.461-1.747-5.509-4.946-8.021-7.649
		c-2.481-2.671-4.715-5.571-7.139-8.468c-1.705,1.339-3.282,2.577-4.843,3.804c-0.61-0.371-0.984-0.599-1.334-0.812
		c0.102-0.39,0.084-0.771,0.267-0.955c2.462-2.484,4.938-4.956,7.445-7.395c0.654-0.636,1.366-1.401,2.686-0.385
		c-0.925,1.212-1.852,2.426-2.966,3.885c1.474,2.018,2.872,4.105,4.449,6.046c1.604,1.974,3.403,3.787,5.084,5.7
		C69.028,98.596,70.885,100.34,71.742,102.939z"/>
	<path fill-rule="evenodd" clip-rule="evenodd" d="M88.332,49.117c2.902-3.382,5.535-5.748,7.864-8.828
		c1.343,2.257-0.886,2.776-0.699,4.042c0.062,0.298,0.023,0.686,0.2,0.882c3.636,4.036,7.303,8.045,10.949,12.071
		c1.379,1.522,2.724,3.074,4.021,4.542c-0.837,1.282-1.507,0.899-2.081,0.283c-3.705-3.98-7.386-7.98-11.08-11.971
		c-1.08-1.167-2.168-2.325-3.129-3.354C92.127,46.694,91.332,49.292,88.332,49.117z"/>
	<path fill-rule="evenodd" clip-rule="evenodd" d="M65.217,77.949c0.67,0.267,1.041,0.298,1.206,0.498
		c4.124,4.978,8.227,9.975,12.483,15.151c-0.572,0.226-1.175,0.593-1.278,0.485c-4.482-4.686-8.87-9.455-12.394-14.931
		C65.105,78.954,65.217,78.602,65.217,77.949z"/>
	<path fill-rule="evenodd" clip-rule="evenodd" d="M50.045,92.011c0.245,0.123,0.627,0.196,0.696,0.383
		c0.075,0.208-0.134,0.52-0.22,0.787c-0.275-0.123-0.671-0.181-0.788-0.391C49.647,92.634,49.926,92.279,50.045,92.011z"/>
	<path fill-rule="evenodd" clip-rule="evenodd" d="M101.579,36.925c-1.105-0.223-1.614-0.327-2.237-0.452
		C100.011,34.937,100.576,34.868,101.579,36.925z"/>
	<path fill-rule="evenodd" clip-rule="evenodd" d="M105.109,41.655c-0.267-0.555-0.462-0.961-0.658-1.366
		c0.256-0.106,0.603-0.373,0.754-0.289C105.817,40.339,105.886,40.834,105.109,41.655z"/>
	<path fill-rule="evenodd" clip-rule="evenodd" d="M118.394,56.464c0.694-0.497,1.19-0.581,1.4,0.209
		c0.033,0.127-0.445,0.552-0.517,0.515C118.962,57.023,118.711,56.74,118.394,56.464z"/>
	<path fill-rule="evenodd" clip-rule="evenodd" d="M58.876,100.108c0.268,0.105,0.715,0.165,0.758,0.329
		c0.062,0.234-0.173,0.546-0.281,0.824c-0.264-0.126-0.641-0.191-0.757-0.4C58.511,100.708,58.769,100.366,58.876,100.108z"/>
	<path fill-rule="evenodd" clip-rule="evenodd" d="M69.602,111.388c0.148,0.188,0.29,0.369,0.433,0.55
		c-0.202,0.118-0.394,0.263-0.61,0.338c-0.063,0.021-0.292-0.212-0.279-0.235C69.272,111.82,69.433,111.618,69.602,111.388z"/>
	<path fill-rule="evenodd" clip-rule="evenodd" d="M65.774,107.591c0.242,0.109,0.58,0.161,0.691,0.348
		c0.078,0.131-0.106,0.594-0.257,0.641c-0.195,0.062-0.475-0.144-0.718-0.233C65.584,108.095,65.678,107.843,65.774,107.591z"/>
	<path fill-rule="evenodd" clip-rule="evenodd" d="M47.348,88.357c-0.27,0.131-0.54,0.261-0.81,0.39
		c-0.127-0.273-0.254-0.546-0.382-0.82c0.271-0.112,0.581-0.36,0.802-0.296C47.142,87.685,47.223,88.1,47.348,88.357z"/>
	<path fill-rule="evenodd" clip-rule="evenodd" d="M110.465,46.7c0.409,0.421,0.727,0.749,1.234,1.272
		C110.094,47.971,110.094,47.971,110.465,46.7z"/>
	<path fill-rule="evenodd" clip-rule="evenodd" d="M115.271,52.871c-0.653-0.487-0.988-0.736-1.602-1.195
		c0.623-0.142,0.962-0.218,1.3-0.295C115.046,51.76,115.122,52.139,115.271,52.871z"/>
	<path fill-rule="evenodd" clip-rule="evenodd" d="M43.881,85.939c-0.143-0.213-0.286-0.425-0.428-0.638
		c0.306-0.139,0.613-0.279,0.919-0.418c0.086,0.23,0.308,0.558,0.228,0.67C44.456,85.75,44.131,85.817,43.881,85.939z"/>
	<path fill-rule="evenodd" clip-rule="evenodd" d="M97.678,33.168c-0.209,0.126-0.485,0.385-0.581,0.331
		c-0.215-0.123-0.35-0.396-0.487-0.627c-0.011-0.018,0.26-0.272,0.305-0.247C97.174,32.768,97.403,32.963,97.678,33.168z"/>
	<path fill-rule="evenodd" clip-rule="evenodd" d="M122.732,60.111c0.138-0.045,0.277-0.09,0.415-0.135
		c0.039,0.184,0.078,0.367,0.117,0.551c-0.149-0.023-0.319-0.012-0.439-0.083C122.754,60.4,122.761,60.227,122.732,60.111z"/>
	<path fill-rule="evenodd" clip-rule="evenodd" d="M54.491,95.819c0.046,0.327,0.1,0.653,0.123,0.982
		c0.002,0.024-0.216,0.065-0.333,0.098c-0.055-0.341-0.111-0.682-0.166-1.023C54.241,95.857,54.366,95.838,54.491,95.819z"/>
	<path fill-rule="evenodd" clip-rule="evenodd" d="M72.636,116.575c-0.12-0.257-0.239-0.514-0.358-0.772
		c0.254,0.007,0.508,0.015,0.763,0.022C72.906,116.075,72.772,116.325,72.636,116.575z"/>
	<path fill-rule="evenodd" clip-rule="evenodd" d="M61.979,104.495c0-0.338,0-0.677,0-1.015c0.094,0,0.189,0,0.283,0
		c0,0.338,0,0.677,0,1.015C62.168,104.495,62.073,104.495,61.979,104.495z"/>
	<polygon fill-rule="evenodd" clip-rule="evenodd" points="110.715,40.279 113.136,41.056 115.151,39.506 115.158,42.043 
		117.257,43.475 114.841,44.266 114.125,46.7 112.623,44.652 110.08,44.725 111.57,42.668 	"/>
	<polygon fill-rule="evenodd" clip-rule="evenodd" points="65.783,23.425 68.307,23.735 69.994,21.836 70.479,24.326 72.811,25.339 
		70.587,26.569 70.341,29.093 68.48,27.364 65.997,27.911 67.073,25.612 	"/>
	<polygon fill-rule="evenodd" clip-rule="evenodd" points="51.162,100.115 53.583,100.892 55.597,99.343 55.605,101.879 
		57.704,103.311 55.288,104.102 54.572,106.536 53.07,104.489 50.527,104.561 52.017,102.504 	"/>
</g>
</svg>
