<?xml version="1.0" encoding="utf-8"?>
<!-- Generator: Adobe Illustrator 17.1.0, SVG Export Plug-In . SVG Version: 6.00 Build 0)  -->
<!DOCTYPE svg PUBLIC "-//W3C//DTD SVG 1.1//EN" "http://www.w3.org/Graphics/SVG/1.1/DTD/svg11.dtd">
<svg version="1.1" id="Layer_1" xmlns="http://www.w3.org/2000/svg" xmlns:xlink="http://www.w3.org/1999/xlink" x="0px" y="0px"
	 viewBox="-0.1 283.6 1920.1 512.8" enable-background="new -0.1 283.6 1920.1 512.8" xml:space="preserve">
<path opacity="0.5" fill="#FFFFFF" enable-background="new    " d="M1920,484.7c0,18.9-15.2,33.9-34.4,33.9s-34.7-14.9-34.7-33.9
	c0-18.4,15.5-33.3,34.7-33.3S1920,466.3,1920,484.7z M1860.5,484.9c0,14.4,10.7,25.9,25.1,25.9c14.4,0.3,24.8-11.5,24.8-25.9
	s-10.4-25.9-25.3-25.9C1871.2,459.1,1860.5,470.3,1860.5,484.9z M1880.8,501.5h-8.8v-32c2.7-0.5,7.2-1.1,13.3-1.1
	c6.7,0,9.9,1.1,12,2.7c1.9,1.1,3.5,3.5,3.5,6.7c0,3.5-2.9,6.4-6.9,7.5v0.3c3.5,1.1,5.1,3.7,6.1,8.3c1.1,4.5,1.6,6.7,2.1,7.7h-9.6
	c-1.1-1.1-1.6-4-2.4-7.5c-0.5-3.5-2.4-4.8-5.9-4.8h-3.5V501.5L1880.8,501.5z M1881.1,483.1h3.2c4,0,6.7-1.3,6.7-4.3
	c0-2.7-2.1-4.3-6.1-4.3c-1.6,0-2.9,0.3-3.7,0.3V483.1z"/>
<path fill="#FFFFFF" d="M1706.7,613.7c11.5,6.7,33.1,13.9,51.2,13.9c22.1,0,31.7-8.8,31.7-21.3c0-13.1-8.3-19.7-32.5-28.3
	c-38.9-13.1-55.2-33.6-54.7-56.3c0-34.1,29.1-60.5,75.2-60.5c22.1,0,41.3,5.6,52.8,11.5l-9.9,34.4c-8.5-4.8-24.5-11.2-42.1-11.2
	c-17.9,0-27.7,8.3-27.7,20.3c0,12.3,9.3,18.1,34.7,26.9c36,12.8,52.8,30.7,53.1,59.2c0,34.9-28.3,60.8-80.8,60.8
	c-24,0-45.9-6.1-60.5-13.9L1706.7,613.7L1706.7,613.7z M1500,522.8c0-22.1-0.5-40.8-1.6-57.6h44.3l2.4,29.1h1.3
	c8.5-15.2,30.1-33.3,63.2-33.3c34.7,0,70.7,21.9,70.7,82.9v114.7h-50.1V549.2c0-27.7-10.7-48.8-37.9-48.8c-20,0-33.9,13.9-39.2,28.5
	c-1.6,4.3-2.1,10.4-2.1,15.7v113.6h-50.7V522.8H1500z M1426.7,542.5c0-4.3-0.5-9.1-1.6-13.1c-5.3-17.9-19.7-31.5-40.8-31.5
	c-28.3,0-49.1,23.7-49.1,62.9c0,33.1,17.1,59.5,48.5,59.5c18.7,0,35.2-12,40.8-29.3c1.3-5.1,2.1-12,2.1-17.3V542.5z M1477.1,630.3
	c0,40.5-8.5,69.3-29.3,87.7c-20.8,17.9-49.3,23.5-76.8,23.5c-25.3,0-52.3-5.1-69.3-15.5l10.9-36.8c12.5,7.2,33.9,14.7,57.9,14.7
	c32.8,0,57.1-16.5,57.1-58.4v-16.5h-0.8c-11.5,17.1-32,28.5-57.9,28.5c-49.3,0-84.5-39.7-84.5-94.4c0-63.5,42.4-101.9,90.1-101.9
	c30.1,0,48.3,14.1,57.6,30.1h0.8l2.1-25.9h43.7c-0.8,13.1-1.6,29.1-1.6,55.5V630.3z M1216.8,465.2h50.7v193.1h-50.7V465.2z
	 M1270.4,411.3c0,14.7-10.9,26.1-28.5,26.1c-16.8,0-27.7-11.5-27.7-26.1c0-15.2,11.5-26.7,28.3-26.7
	C1259.5,384.7,1269.9,396.1,1270.4,411.3"/>
<path fill="#FFFFFF" d="M1068.5,613.7c11.5,6.7,33.1,13.9,51.2,13.9c22.1,0,32-8.8,32-21.3c0-13.1-8.3-19.7-32.8-28.3
	c-38.9-13.1-55.2-33.6-54.7-56.3c0-34.1,29.1-60.5,75.2-60.5c22.1,0,41.3,5.6,52.8,11.5l-9.9,34.4c-8.5-4.8-24.5-11.2-42.1-11.2
	c-17.9,0-27.7,8.3-27.7,20.3c0,12.3,9.3,18.1,34.7,26.9c36,12.8,52.8,30.7,53.1,59.2c0,34.9-28.3,60.8-80.8,60.8
	c-24,0-45.9-6.1-60.5-13.9L1068.5,613.7L1068.5,613.7z M1007.7,541.5c0.5-17.9-7.7-47.2-41.3-47.2c-30.9,0-44,27.5-46.1,47.2H1007.7
	L1007.7,541.5z M920.3,575.6c1.3,34.9,29.3,50.1,61.3,50.1c23.2,0,40-3.2,55.2-8.8l7.5,33.6c-17.1,6.7-40.8,12.3-69.3,12.3
	c-64.5,0-102.4-38.9-102.4-97.9c0-53.6,33.6-104,97.3-104c65.1,0,85.9,51.5,85.9,93.9c0,9.1-0.8,16.3-1.6,20.5H920.3V575.6z
	 M810.1,545.7c0-4-0.3-8.8-1.3-12.8c-4.5-18.9-20.5-34.7-43.2-34.7c-32.3,0-50.4,27.7-50.4,64c0,35.2,17.9,61.1,49.9,61.1
	c20.5,0,38.4-13.3,43.2-34.4c1.3-4.3,1.6-9.1,1.6-14.4v-28.8H810.1z M860.3,376.7v227.2c0,19.7,0.8,41.3,1.6,54.4h-45.1l-2.1-30.7
	h-0.8c-11.7,21.3-36,34.9-64.8,34.9c-47.5,0-85.1-39.2-85.1-98.7c-0.5-64.8,41.3-103.2,89.1-103.2c27.2,0,46.9,11.2,56,25.3h0.8
	V376.7H860.3L860.3,376.7z"/>
<path opacity="0.5" fill="#FFFFFF" enable-background="new    " d="M570.1,325.2c-0.3,4.5-0.5,9.1-1.1,13.6c20,1.3,40,2.9,59.7,4.8
	c-23.5,138.4-46.9,276.8-70.7,415.2l13.9,2.1L644,338c0.5-3.7-2.7-7.2-6.4-7.5C615.5,328.7,592.8,326.8,570.1,325.2 M240.8,736.4
	c106.7,14.4,212.5,34.4,317.1,59.7c0.5,0.3,1.3,0.3,1.9,0.3l2.4-0.3c2.4-0.5,4.8-2.4,5.3-5.6l2.7-16c-4.5-0.8-9.3-1.6-13.9-2.1
	c-0.5,3.2-1.1,6.1-1.6,9.1c-36.5-8.8-73.3-17.1-110.4-24.3l-197.1-20.3L240.8,736.4"/>
<path fill="#FFFFFF" d="M53.6,709.7c-8.8,0-9.9,13.3-1.1,13.6l6.7,0.3c-0.5-4.5-1.3-9.1-1.6-13.9c-1.3,0-2.4,0-3.7-0.3h-0.3V709.7z
	 M71.7,710.5c0.5,4.5,1.1,9.1,1.9,13.9c41.1,1.9,81.9,4,122.9,7.2c91.2,6.7,182.1,16,272.5,28.3c29.1,4,58.1,8.3,87.2,12.5
	c4.5,0.8,9.3,1.6,13.9,2.1c13.6,2.1,27.2,4.5,41.1,6.7h1.3c7.7,0,8.5-12.3,0-13.9l-40-6.7l-13.9-2.1c-7.5-1.3-14.9-2.4-22.4-3.5
	c-88.3-13.3-176.5-23.7-265.3-31.7c-65.9-5.9-131.7-10.1-197.6-13.1C72.5,710.5,72.3,710.5,71.7,710.5 M44.8,284.7
	c-3.2,0-6.4,1.9-6.4,6.1c-0.8,16.8-1.1,33.6-1.3,50.4c0,4.8,0,9.3-0.3,14.1c-0.3,35.7,0.3,71.7,1.3,107.5
	c2.4,73.3,7.7,146.4,16,219.2l3.2,28c0.5,4.5,1.1,9.1,1.6,13.9l2.1,16.5c0.5,3.7,3.5,5.6,6.4,5.6c4,0,8-2.9,7.5-8
	c0-0.3,0-0.8-0.3-1.1l-1.6-12.3c-0.5-4.5-1.1-9.3-1.9-13.9l-3.7-30.9c-2.1-18.7-4-37.3-5.6-56c-6.7-72.3-10.4-144.8-11.2-217.1
	c-0.3-18.1-0.3-36,0-54.1c0-4.5,0-9.3,0.3-14.1c0.3-15.5,0.5-30.7,1.1-46.1C52.5,287.3,48.5,284.7,44.8,284.7 M566.1,283.6
	c-140.8,1.1-280.8,13.9-419.5,37.1c-19.5,3.2-38.9,6.7-58.4,10.4l-37.3,7.2c0,4.8,0,9.3-0.3,14.1c167.2-33.9,336.8-53.3,507.2-55.2
	c-10.1,148.3-22.4,296.3-32.8,444.5c-84.5-9.9-169.6-15.7-254.7-18.1c88.8,7.7,177.3,18.4,265.3,31.7l0.5-0.5
	c1.3-1.1,2.1-2.4,2.4-4.5l30.4-411.2l1.1-13.6l2.4-34.1C572.8,287.6,570.1,283.6,566.1,283.6 M37.1,341.2l-31.2,6.4
	c-3.5,0.8-6.7,4.3-5.9,8C30.4,462.3,38.4,572.7,54.1,682c-8.3-72.8-13.6-145.9-16-219.2c-5.9-34.7-13.1-69.1-22.4-103.2l21.1-4.5
	C37.1,350.5,37.1,345.7,37.1,341.2 M68,679.6c1.1,10.4,2.4,20.5,3.7,30.9h1.1L68,679.6 M73.6,724.4l1.6,12.3
	c29.1-0.5,58.1-1.1,87.2-1.1c26.1,0,52.3,0.3,78.4,0.8c2.1,0,4.5,0,6.7,0.3l-50.9-5.3C155.5,728.4,114.7,726,73.6,724.4"/>
<path opacity="0.6" fill="#FFFFFF" enable-background="new    " d="M192.3,434c-24.8,0-42.9,21.6-42.9,52.8
	c0.5,26.4,16,46.9,43.5,46.9c20.3,0,34.9-9.1,42.7-21.3c1.6-3.2,2.7-7.2,2.7-13.9c0.5-34.7-13.1-64.8-45.3-64.8h-0.5L192.3,434z
	 M123.2,624.1c7.7,0.8,15.5,0.5,27.5-0.8c19.5-1.6,38.9-8.3,53.6-19.7c17.1-13.3,28.8-32.8,33.6-56.8l-0.5-0.3
	c-13.3,14.7-32,22.9-57.3,22.9c-46.4,0-80.5-32.3-80.5-79.7c0.3-49.1,39.2-91.5,95.7-91.5c61.3,0,94.1,46.9,94.1,109.3
	c0,54.9-18.7,93.9-45.9,118.9c-23.2,20.8-54.9,32.8-90.1,35.2c-11.5,1.1-22.7,1.1-30.1,0.8L123.2,624.1L123.2,624.1z M390.4,434
	c-24.8,0-42.9,21.6-42.9,52.8c0.3,26.4,15.7,46.9,43.5,46.9c20.3,0,34.9-9.1,42.7-21.3c1.6-3.2,2.9-7.2,2.9-13.9
	c0.5-34.7-13.1-64.8-45.3-64.8h-0.8V434z M321.3,624.1c7.7,0.8,15.5,0.5,27.7-0.8c19.5-1.6,38.9-8.3,53.6-19.7
	c17.1-13.3,28.8-32.8,33.6-56.8l-0.8-0.3c-13.3,14.7-32,22.9-57.3,22.9c-46.4,0-80.5-32.3-80.5-79.7c0-48.8,38.9-91.5,95.5-91.5
	c61.3,0,94.1,46.9,94.1,109.3c0,54.9-18.7,93.9-45.9,118.9c-23.2,20.8-54.9,32.8-90.1,35.2c-11.5,1.1-22.7,1.1-30.1,0.8v-38.4H321.3
	z"/>
</svg>
