<svg xmlns="http://www.w3.org/2000/svg" viewBox="0 0 720 192.3" enable-background="new 0 0 720 192.3"><path opacity=".5" fill="#fff" d="M720 75.4c0 7.1-5.7 12.7-12.9 12.7s-13-5.6-13-12.7c0-6.9 5.8-12.5 13-12.5s12.9 5.6 12.9 12.5zm-22.3.1c0 5.4 4 9.7 9.4 9.7 5.4.1 9.3-4.3 9.3-9.7 0-5.4-3.9-9.7-9.5-9.7-5.2 0-9.2 4.2-9.2 9.7zm7.6 6.2h-3.3v-12c1-.2 2.7-.4 5-.4 2.5 0 3.7.4 4.5 1 .7.4 1.3 1.3 1.3 2.5 0 1.3-1.1 2.4-2.6 2.8v.1c1.3.4 1.9 1.4 2.3 3.1.4 1.7.6 2.5.8 2.9h-3.6c-.4-.4-.6-1.5-.9-2.8-.2-1.3-.9-1.8-2.2-1.8h-1.3v4.6zm.1-6.9h1.2c1.5 0 2.5-.5 2.5-1.6 0-1-.8-1.6-2.3-1.6-.6 0-1.1.1-1.4.1v3.1z"/><path fill="#fff" d="M640 123.8c4.3 2.5 12.4 5.2 19.2 5.2 8.3 0 11.9-3.3 11.9-8 0-4.9-3.1-7.4-12.2-10.6-14.6-4.9-20.7-12.6-20.5-21.1 0-12.8 10.9-22.7 28.2-22.7 8.3 0 15.5 2.1 19.8 4.3l-3.7 12.9c-3.2-1.8-9.2-4.2-15.8-4.2-6.7 0-10.4 3.1-10.4 7.6 0 4.6 3.5 6.8 13 10.1 13.5 4.8 19.8 11.5 19.9 22.2 0 13.1-10.6 22.8-30.3 22.8-9 0-17.2-2.3-22.7-5.2l3.6-13.3zm-77.5-34.1c0-8.3-.2-15.3-.6-21.6h16.6l.9 10.9h.5c3.2-5.7 11.3-12.5 23.7-12.5 13 0 26.5 8.2 26.5 31.1v43h-18.8v-41c0-10.4-4-18.3-14.2-18.3-7.5 0-12.7 5.2-14.7 10.7-.6 1.6-.8 3.9-.8 5.9v42.6h-19v-50.8zm-27.5 7.4c0-1.6-.2-3.4-.6-4.9-2-6.7-7.4-11.8-15.3-11.8-10.6 0-18.4 8.9-18.4 23.6 0 12.4 6.4 22.3 18.2 22.3 7 0 13.2-4.5 15.3-11 .5-1.9.8-4.5.8-6.5v-11.7zm18.9 32.9c0 15.2-3.2 26-11 32.9-7.8 6.7-18.5 8.8-28.8 8.8-9.5 0-19.6-1.9-26-5.8l4.1-13.8c4.7 2.7 12.7 5.5 21.7 5.5 12.3 0 21.4-6.2 21.4-21.9v-6.2h-.3c-4.3 6.4-12 10.7-21.7 10.7-18.5 0-31.7-14.9-31.7-35.4 0-23.8 15.9-38.2 33.8-38.2 11.3 0 18.1 5.3 21.6 11.3h.3l.8-9.7h16.4c-.3 4.9-.6 10.9-.6 20.8v41zm-97.6-61.9h19v72.4h-19v-72.4zm20.1-20.2c0 5.5-4.1 9.8-10.7 9.8-6.3 0-10.4-4.3-10.4-9.8 0-5.7 4.3-10 10.6-10 6.4 0 10.3 4.3 10.5 10"/><path fill="#fff" d="M400.7 123.8c4.3 2.5 12.4 5.2 19.2 5.2 8.3 0 12-3.3 12-8 0-4.9-3.1-7.4-12.3-10.6-14.6-4.9-20.7-12.6-20.5-21.1 0-12.8 10.9-22.7 28.2-22.7 8.3 0 15.5 2.1 19.8 4.3l-3.7 12.9c-3.2-1.8-9.2-4.2-15.8-4.2-6.7 0-10.4 3.1-10.4 7.6 0 4.6 3.5 6.8 13 10.1 13.5 4.8 19.8 11.5 19.9 22.2 0 13.1-10.6 22.8-30.3 22.8-9 0-17.2-2.3-22.7-5.2l3.6-13.3zm-22.8-27.1c.2-6.7-2.9-17.7-15.5-17.7-11.6 0-16.5 10.3-17.3 17.7h32.8zm-32.8 12.8c.5 13.1 11 18.8 23 18.8 8.7 0 15-1.2 20.7-3.3l2.8 12.6c-6.4 2.5-15.3 4.6-26 4.6-24.2 0-38.4-14.6-38.4-36.7 0-20.1 12.6-39 36.5-39 24.4 0 32.2 19.3 32.2 35.2 0 3.4-.3 6.1-.6 7.7h-50.2zm-41.3-11.2c0-1.5-.1-3.3-.5-4.8-1.7-7.1-7.7-13-16.2-13-12.1 0-18.9 10.4-18.9 24 0 13.2 6.7 22.9 18.7 22.9 7.7 0 14.4-5 16.2-12.9.5-1.6.6-3.4.6-5.4v-10.8zm18.8-63.4v85.2c0 7.4.3 15.5.6 20.4h-16.9l-.8-11.5h-.3c-4.4 8-13.5 13.1-24.3 13.1-17.8 0-31.9-14.7-31.9-37-.2-24.3 15.5-38.7 33.4-38.7 10.2 0 17.6 4.2 21 9.5h.3v-41h18.9z"/><path opacity=".5" fill="#fff" d="M213.8 15.6c-.1 1.7-.2 3.4-.4 5.1 7.5.5 15 1.1 22.4 1.8-8.8 51.9-17.6 103.8-26.5 155.7l5.2.8 27-158.6c.2-1.4-1-2.7-2.4-2.8-8.3-.7-16.8-1.4-25.3-2m-123.5 154.2c40 5.4 79.7 12.9 118.9 22.4.2.1.5.1.7.1l.9-.1c.9-.2 1.8-.9 2-2.1l1-6c-1.7-.3-3.5-.6-5.2-.8-.2 1.2-.4 2.3-.6 3.4-13.7-3.3-27.5-6.4-41.4-9.1l-73.9-7.6-2.4-.2"/><path fill="#fff" d="M20.1 159.8c-3.3 0-3.7 5-.4 5.1l2.5.1c-.2-1.7-.5-3.4-.6-5.2-.5 0-.9 0-1.4-.1h-.1zm6.8.3c.2 1.7.4 3.4.7 5.2 15.4.7 30.7 1.5 46.1 2.7 34.2 2.5 68.3 6 102.2 10.6 10.9 1.5 21.8 3.1 32.7 4.7 1.7.3 3.5.6 5.2.8 5.1.8 10.2 1.7 15.4 2.5h.5c2.9 0 3.2-4.6 0-5.2l-15-2.5-5.2-.8c-2.8-.5-5.6-.9-8.4-1.3-33.1-5-66.2-8.9-99.5-11.9-24.7-2.2-49.4-3.8-74.1-4.9-.3.1-.4.1-.6.1m-10.1-159.7c-1.2 0-2.4.7-2.4 2.3-.3 6.3-.4 12.6-.5 18.9 0 1.8 0 3.5-.1 5.3-.1 13.4.1 26.9.5 40.3.9 27.5 2.9 54.9 6 82.2l1.2 10.5c.2 1.7.4 3.4.6 5.2l.8 6.2c.2 1.4 1.3 2.1 2.4 2.1 1.5 0 3-1.1 2.8-3 0-.1 0-.3-.1-.4l-.6-4.6c-.2-1.7-.4-3.5-.7-5.2l-1.4-11.6c-.8-7-1.5-14-2.1-21-2.5-27.1-3.9-54.3-4.2-81.4-.1-6.8-.1-13.5 0-20.3 0-1.7 0-3.5.1-5.3.1-5.8.2-11.5.4-17.3.2-1.9-1.3-2.9-2.7-2.9m195.5-.4c-52.8.4-105.3 5.2-157.3 13.9-7.3 1.2-14.6 2.5-21.9 3.9l-14 2.7c0 1.8 0 3.5-.1 5.3 62.7-12.7 126.3-20 190.2-20.7-3.8 55.6-8.4 111.1-12.3 166.7-31.7-3.7-63.6-5.9-95.5-6.8 33.3 2.9 66.5 6.9 99.5 11.9l.2-.2c.5-.4.8-.9.9-1.7l11.4-154.2.4-5.1.9-12.8c.1-1.4-.9-2.9-2.4-2.9m-198.4 21.6l-11.7 2.4c-1.3.3-2.5 1.6-2.2 3 11.4 40 14.4 81.4 20.3 122.4-3.1-27.3-5.1-54.7-6-82.2-2.2-13-4.9-25.9-8.4-38.7l7.9-1.7c.1-1.7.1-3.5.1-5.2m11.6 126.9c.4 3.9.9 7.7 1.4 11.6h.4l-1.8-11.6m2.1 16.8l.6 4.6c10.9-.2 21.8-.4 32.7-.4 9.8 0 19.6.1 29.4.3.8 0 1.7 0 2.5.1l-19.1-2c-15.4-1.1-30.7-2-46.1-2.6"/><path d="M72.1 56.4c-9.3 0-16.1 8.1-16.1 19.8.2 9.9 6 17.6 16.3 17.6 7.6 0 13.1-3.4 16-8 .6-1.2 1-2.7 1-5.2.2-13-4.9-24.3-17-24.3h-.2zm-25.9 71.3c2.9.3 5.8.2 10.3-.3 7.3-.6 14.6-3.1 20.1-7.4 6.4-5 10.8-12.3 12.6-21.3l-.2-.1c-5 5.5-12 8.6-21.5 8.6-17.4 0-30.2-12.1-30.2-29.9.1-18.4 14.7-34.3 35.9-34.3 23 0 35.3 17.6 35.3 41 0 20.6-7 35.2-17.2 44.6-8.7 7.8-20.6 12.3-33.8 13.2-4.3.4-8.5.4-11.3.3v-14.4zm100.2-71.3c-9.3 0-16.1 8.1-16.1 19.8.1 9.9 5.9 17.6 16.3 17.6 7.6 0 13.1-3.4 16-8 .6-1.2 1.1-2.7 1.1-5.2.2-13-4.9-24.3-17-24.3h-.3zm-25.9 71.3c2.9.3 5.8.2 10.4-.3 7.3-.6 14.6-3.1 20.1-7.4 6.4-5 10.8-12.3 12.6-21.3l-.3-.1c-5 5.5-12 8.6-21.5 8.6-17.4 0-30.2-12.1-30.2-29.9 0-18.3 14.6-34.3 35.8-34.3 23 0 35.3 17.6 35.3 41 0 20.6-7 35.2-17.2 44.6-8.7 7.8-20.6 12.3-33.8 13.2-4.3.4-8.5.4-11.3.3v-14.4z" opacity=".75" fill="#fff"/></svg>