<?xml version="1.0" encoding="utf-8"?>
<!-- Generator: Adobe Illustrator 17.1.0, SVG Export Plug-In . SVG Version: 6.00 Build 0)  -->
<!DOCTYPE svg PUBLIC "-//W3C//DTD SVG 1.1//EN" "http://www.w3.org/Graphics/SVG/1.1/DTD/svg11.dtd">
<svg version="1.1" id="Logo" xmlns="http://www.w3.org/2000/svg" xmlns:xlink="http://www.w3.org/1999/xlink" x="0px" y="0px"
	 viewBox="0 0 2837.8 618.1" enable-background="new 0 0 2837.8 618.1" xml:space="preserve">
<g>
	<path fill="#FFFFFF" d="M1167.8,291.2c-13.1,0-23.2,2.8-23.2,14.9V318c0,12.1,10.1,15.3,23.2,15.3c13.1,0,23.2-3.1,23.2-15.3v-11.9
		C1191,294,1180.9,291.2,1167.8,291.2z"/>
	<path fill="#FFFFFF" d="M1177.2,357h-18.5c-6.1,0-11.1,5-11.1,11.1v159c0,6.1,5,11.1,11.1,11.1h18.5c6.1,0,11.1-5,11.1-11.1v-159
		C1188.3,361.9,1183.3,357,1177.2,357z"/>
	<path fill="#FFFFFF" d="M636.8,355.1c-26.9,0-45.8,11.8-59.9,30.6c-9.4-18.8-27.6-30.6-53.2-30.6c-27.2,0-42.7,14.8-54.2,30.6
		l0-17.7c0-6.1-5-11.1-11.1-11.1H440c-6.1,0-11.1,5-11.1,11.1v159c0,6.1,5,11.1,11.1,11.1h18.5c6.1,0,11.1-5,11.1-11.1l0-90.8
		c0-27.3,15.5-44.1,38-44.1c22.5,0,36,15.5,36,43.1v91.8c0,6.1,5,11.1,11.1,11.1h18.5c6.1,0,11.1-5,11.1-11.1v-90.8
		c0-28.6,15.8-44.1,38-44.1c22.9,0,36,15.2,36,43.4l0,91.5c0,6.1,5,11.1,11.1,11.1H688c6.1,0,11.1-5,11.1-11.1v-104
		C699.1,379.7,675.5,355.1,636.8,355.1z"/>
	<path fill="#FFFFFF" d="M2354.4,291.2c-13.1,0-23.2,2.8-23.2,14.9V318c0,12.1,10.1,15.3,23.2,15.3c13.1,0,23.2-3.1,23.2-15.3v-11.9
		C2377.6,294,2367.5,291.2,2354.4,291.2z"/>
	<path fill="#FFFFFF" d="M2363.8,357h-18.5c-6.1,0-11.1,5-11.1,11.1v159c0,6.1,5,11.1,11.1,11.1h18.5c6.1,0,11.1-5,11.1-11.1v-159
		C2374.9,361.9,2370,357,2363.8,357z"/>
	<path fill="#FFFFFF" d="M121.6,338.4c17.7,0,34.5,5.6,48.4,16.3c1.9,1.4,4.1,2.2,6.5,2.2c2.8,0,5.5-1.1,7.6-3.1l14.2-14.2
		c2.1-2.2,3.3-5.1,3.1-8.2c-0.2-3-1.6-5.9-4-7.8c-21.7-17.3-47.9-26.5-75.8-26.5C54.6,297.1,0,351.7,0,418.7
		c0,67.1,54.6,121.6,121.6,121.6c27.9,0,54.2-9.2,75.8-26.5c2.4-1.9,3.8-4.7,4-7.7c0.2-3.1-1-6-3.1-8.2l-14.2-14.2
		c-2-2-4.7-3.1-7.6-3.1c-2.4,0-4.6,0.7-6.5,2.2c-14,10.6-30.7,16.3-48.4,16.3c-44.3,0-80.3-36-80.3-80.3
		C41.3,374.4,77.3,338.4,121.6,338.4z"/>
	<path fill="#FFFFFF" d="M1380.8,357h-18.5c-6.1,0-11.1,5-11.1,11.1v17.8c-13.1-18.5-31.6-30.6-60.6-30.6c-41.7,0-82.4,33-82.4,92.2
		v0.7c0,58.9,40.4,92.2,82.4,92.2c29.6,0,48.1-13.6,60.6-30.1l0.3-0.4v16.4c0,30.6-23.6,58.7-56.6,58.7c-20.3,0-38.8-9.4-48.1-25.2
		c-3.2-5.2-10-6.9-15.2-3.7l-7.8,5.2c-5.3,3.2-6.9,10-3.8,15.3c15.3,25,42.4,41.6,76.7,41.6c58.9,0,95.2-42.1,95.2-92.5V368.1
		C1391.9,361.9,1386.9,357,1380.8,357z M1347.5,448.1c0,34-23.3,56.9-49.9,56.9c-26.9,0-48.1-21.9-48.1-56.9v-0.7
		c0-34.3,21.5-56.8,48.1-56.8c26.6,0,49.9,22.9,49.9,56.8V448.1z"/>
	<path fill="#FFFFFF" d="M2242.4,355.3c-27.6,0-44.1,14-55.5,30.5v-17.7c0-6.1-5-11.1-11.1-11.1h-18.5c-6.1,0-11.1,5-11.1,11.1v159
		c0,6.1,5,11.1,11.1,11.1h18.5c6.1,0,11.1-5,11.1-12.8l0-95.7c0-21.6,17.5-39,39-39s39,17.5,39,39v97.4c0,6.1,5,11.1,11.1,11.1h18.5
		c6.1,0,11.1-5,11.1-11.1V423.2C2305.6,382.2,2282.4,355.3,2242.4,355.3z"/>
	<path fill="#FFFFFF" d="M1516.7,355.3c-27.6,0-44.1,14-55.5,30.5v-17.7c0-6.1-5-11.1-11.1-11.1h-18.5c-6.1,0-11.1,5-11.1,11.1v159
		c0,6.1,5,11.1,11.1,11.1h18.5c6.1,0,11.1-5,11.1-12.8l0-95.7c0-21.6,17.5-39,39-39s39,17.5,39,39v97.4c0,6.1,5,11.1,11.1,11.1h18.5
		c6.1,0,11.1-5,11.1-11.1V423.2C1579.9,382.2,1556.7,355.3,1516.7,355.3z"/>
	<path fill="#FFFFFF" d="M2833.2,357.4c-0.5-0.2-0.9-0.4-1.2-0.5c-0.4-0.1-0.9-0.2-1.4-0.3c-3.8-0.9-7.7-1.3-11.8-1.3
		c-21.2,0-39.6,12.4-48.2,30.3v-17.5c0-6.1-5-11.1-11.1-11.1h-18.5c-6.1,0-11.1,5-11.1,11.1v159c0,6.1,5,11.1,11.1,11.1h18.5
		c6.1,0,11.1-5,11.1-11.1v-67.3c0-54.3,28.4-64.1,44.7-62.8c3.2,0.3,6,0.7,8.4,1c0,0,0.9,0.1,1.4,0.1c0.2,0,0.5,0,0.7,0
		c3.8,0,7-2.7,7.7-6.3l4.1-26.1c0.1-0.4,0.1-0.8,0.1-1.2C2837.8,361.4,2835.9,358.6,2833.2,357.4z"/>
	<path fill="#FFFFFF" d="M2031.3,355.3c-54.5,0-94.5,41.4-94.5,92.2v0.4v0.4c0,50.8,40,92.2,94.5,92.2s94.5-41.4,94.5-92.2v-0.4
		v-0.4C2125.8,396.7,2085.8,355.3,2031.3,355.3z M2084.5,447.9v0.6c0,31.1-21.6,56.2-53.2,56.5c-31.6-0.3-53.2-25.5-53.2-56.5v-0.6
		v-0.6c0-31.1,21.6-56.2,53.2-56.5c31.6,0.3,53.2,25.5,53.2,56.5V447.9z"/>
	<path fill="#FFFFFF" d="M2614.3,355.3c-54.5,0-94.5,41.4-94.5,92.2v0.4v0.4c0,50.8,40,92.2,94.5,92.2s94.5-41.4,94.5-92.2v-0.4
		v-0.4C2708.9,396.7,2668.8,355.3,2614.3,355.3z M2667.5,447.9v0.6c0,31.1-21.6,56.2-53.2,56.5c-31.6-0.3-53.2-25.5-53.2-56.5v-0.6
		v-0.6c0-31.1,21.6-56.2,53.2-56.5c31.6,0.3,53.2,25.5,53.2,56.5V447.9z"/>
	<path fill="#FFFFFF" d="M1904.5,299.6H1886c-3.6,0-6.8,1.8-8.9,4.5l-76.5,104.5l-76.5-104.5c-2.1-2.7-5.2-4.5-8.9-4.5h-18.6
		c-6.1,0-11.1,5-11.1,11.1v216.3c0,6.1,5,11.1,11.1,11.1h18.5c6.1,0,11.1-5,11.1-11.1V377l67.6,86.7c0.1,0.1,0.1,0.1,0.2,0.2
		l0.5,0.7h0c1.5,1.7,3.6,2.7,6,2.7c2.4,0,4.6-1.1,6-2.7h0l0.5-0.7c0.1-0.1,0.1-0.1,0.2-0.2l67.6-86.7v150.1c0,6.1,5,11.1,11.1,11.1
		h18.5c6.1,0,11.1-5,11.1-11.1V310.7C1915.6,304.6,1910.7,299.6,1904.5,299.6z"/>
	<polygon fill="#FFFFFF" points="1800.6,467.3 1800.6,467.3 1800.6,467.3 	"/>
	<path fill="#FFFFFF" d="M828.9,355.3c-28.9,0-47.4,12-60.6,30.5v-17.7c0-6.1-5-11.1-11.1-11.1h-18.5c-6.1,0-11.1,5-11.1,11.1v233.3
		c0,6.1,5,11.1,11.1,11.1h18.5c6.1,0,11.1-5,11.1-11.1v-91.6c12.5,16.5,31,30.5,60.6,30.5c42.1,0,82.4-33.3,82.4-92.2v-0.7
		C911.3,388.3,870.6,355.3,828.9,355.3z M870,448.1c0,34-23.3,56.9-49.9,56.9c-26.9,0-48.1-21.9-48.1-56.9v-0.7
		c0-34.3,21.5-56.8,48.1-56.8c26.6,0,49.9,22.9,49.9,56.8V448.1z"/>
	<path fill="#FFFFFF" d="M402,509.4L402,509.4L402,509.4c-4.3,0-7.9-3.5-7.9-7.8V368.1c0-6.1-5-11.1-11.1-11.1h-18.5
		c-6.1,0-11.1,5-11.1,11.1v17.7c-13.1-18.5-31.6-30.5-60.6-30.5c-41.7,0-82.4,33-82.4,92.2v0.7c0,58.9,40.4,92.2,82.4,92.2
		c30.5,0,52-13.7,61.2-30.5c4.7,16.4,19.7,28.3,37.6,28.3v0l10.3,0c4.3,0,7.8-3.5,7.8-7.8l0-13.1C409.9,512.9,406.4,509.4,402,509.4
		z M349.8,448.1c0,34-23.3,56.9-49.9,56.9c-26.9,0-48.1-21.9-48.1-56.9v-0.7c0-34.3,21.5-56.8,48.1-56.8c26.6,0,49.9,22.9,49.9,56.8
		V448.1z"/>
	<path fill="#FFFFFF" d="M1120.3,509.4L1120.3,509.4L1120.3,509.4c-4.3,0-7.9-3.5-7.9-7.8V368.1c0-6.1-5-11.1-11.1-11.1h-18.5
		c-6.1,0-11.1,5-11.1,11.1v17.7c-13.1-18.5-31.6-30.5-60.6-30.5c-41.7,0-82.4,33-82.4,92.2v0.7c0,58.9,40.4,92.2,82.4,92.2
		c30.5,0,52-13.7,61.2-30.5c4.7,16.4,19.7,28.3,37.6,28.3v0l10.3,0c4.3,0,7.8-3.5,7.8-7.8l0-13.1
		C1128.1,512.9,1124.6,509.4,1120.3,509.4z M1068.1,448.1c0,34-23.3,56.9-49.9,56.9c-26.9,0-48.1-21.9-48.1-56.9v-0.7
		c0-34.3,21.5-56.8,48.1-56.8c26.6,0,49.9,22.9,49.9,56.8V448.1z"/>
	<path fill="#FFFFFF" d="M2499.7,357H2461v-49.6h0c0-1.5-0.5-3.1-1.4-4.4c-2.5-3.6-7.4-4.4-10.9-1.9l0,0l-19.3,13.6
		c-5.5,3.7-9,10-9,17.1V357h-13.1c-6.1,0-11.1,5-11.1,11.1v11.4c0,6.1,5,11.1,11.1,11.1h13.1v97.8c0,39,21.2,52.2,51.1,52.2
		c15.9,0,32.2-6.1,32.2-6.1s5.5-1.7,4.1-8.1c-0.5-2.2-3.2-17.4-3.2-17.4c-0.7-3.7-2.2-6.7-7.5-5.9c-2.6,0.4-7.5,1.2-14.2,1.2
		c-13.8,0-21.8-6.4-21.8-22.2v-91.3h38.7c6.2,0,11.1-5,11.1-11.1v-11.4C2510.8,362,2505.8,357,2499.7,357z"/>
</g>
<g>
	<path fill="#FFFFFF" d="M1577.9,4.7c-3.5-5-10.4-6.2-15.5-2.7L1290,192.8c2,2.9,5.3,4.7,9.1,4.7l0,0v0h269.7
		c6.1,0,11.1-5,11.1-11.1V10.9C1579.9,8.8,1579.3,6.6,1577.9,4.7"/>
	<path fill="#FFFFFF" d="M1305.5,2c-5-3.5-11.9-2.3-15.5,2.7c-1.3,1.9-2,4.1-2,6.2l0,175.8l129.7-106.3L1305.5,2z"/>
</g>
</svg>
