<?xml version="1.0" encoding="utf-8"?>
<!-- Generator: Adobe Illustrator 17.1.0, SVG Export Plug-In . SVG Version: 6.00 Build 0)  -->
<!DOCTYPE svg PUBLIC "-//W3C//DTD SVG 1.1//EN" "http://www.w3.org/Graphics/SVG/1.1/DTD/svg11.dtd">
<svg version="1.1" id="Layer_1" xmlns="http://www.w3.org/2000/svg" xmlns:xlink="http://www.w3.org/1999/xlink" x="0px" y="0px"
	 viewBox="-0.2 358.2 1919.1 364.1" enable-background="new -0.2 358.2 1919.1 364.1" xml:space="preserve">
<path opacity="0.6" fill="#FFFFFF" d="M246.3,394.8c-9.4-5.2-37.7-2.1-70.2,8.4C117.4,443.1,68.1,501.7,65,596.1c-1,2.1-6.3,0-7.3-1
	c-15.7-30.4-22-61.8-9.4-107.9c2.1-4.2-5.2-9.4-7.3-7.3c-3.1,3.1-14.7,15.7-23.1,29.3C-21,577.2,5.2,665.2,74.4,704
	s156.2,13.6,194.9-55.5C313.4,568.8,272.5,409.5,246.3,394.8z"/>
<g>
	<path fill="#FFFFFF" d="M493.6,433.6c-81.7,0-141.5,60.8-141.5,144.6c0,84.9,59.7,143.6,144.6,143.6c43,0,76.5-13.6,103.8-40.9
		c8.4-8.4,9.4-16.8,9.4-19.9c0-13.6-10.5-24.1-24.1-24.1c-7.3,0-12.6,3.1-19.9,9.4c-15.7,14.7-35.6,29.3-69.2,29.3
		c-46.1,0-84.9-34.6-87-79.7h185.5c19.9,0,30.4-9.4,30.4-28.3c0-5.2,0-9.4-1-17.8C614.1,476.6,564.9,433.6,493.6,433.6z
		 M493.6,477.6c44,0,73.4,28.3,74.4,74.4H409.8C414,510.1,449.6,477.6,493.6,477.6z"/>
	<path fill="#FFFFFF" d="M801.7,433.6c-37.7,0-74.4,21-88,51.4v-18.9c0-28.3-22-30.4-26.2-30.4c-12.6,0-27.2,8.4-27.2,30.4v222.2
		c0,29.3,23.1,31.4,28.3,31.4c4.2,0,28.3-1,28.3-31.4V568.8c0-51.4,29.3-88,71.3-88c40.9,0,60.8,26.2,60.8,81.7v125.8
		c0,29.3,23.1,31.4,28.3,31.4c4.2,0,28.3-1,28.3-31.4V544.7C904.5,491.3,877.2,433.6,801.7,433.6z"/>
	<path fill="#FFFFFF" d="M1160.2,435.7c-12.6,0-22,7.3-28.3,23.1l-77.6,193.9l-76.5-193.9c-6.3-14.7-15.7-23.1-28.3-23.1
		c-15.7,0-28.3,12.6-28.3,27.2c0,4.2,0,8.4,3.1,15.7l89.1,209.6c10.5,25.2,28.3,30.4,40.9,30.4c12.6,0,30.4-5.2,40.9-30.4
		l89.1-210.7c3.1-7.3,3.1-12.6,3.1-15.7C1187.4,447.2,1175.9,435.7,1160.2,435.7z"/>
	<path fill="#FFFFFF" d="M1323.7,433.6c-35.6,0-70.2,10.5-94.3,28.3c-8.4,6.3-12.6,13.6-12.6,22c0,12.6,9.4,22,22,22
		c5.2,0,11.5-2.1,16.8-6.3c21-14.7,41.9-21,62.9-21c41.9,0,66,21,66,58.7v6.3c-93.3,0-188.6,11.5-188.6,93.3
		c0,58.7,50.3,84.9,99.6,84.9c39.8,0,71.3-15.7,91.2-45.1v14.7c0,21,14.7,28.3,26.2,28.3c2.1,0,25.2-1,25.2-28.3V540.5
		C1439,473.4,1396,433.6,1323.7,433.6z M1372.9,585.6h11.5v12.6c0,47.2-30.4,78.6-77.6,78.6c-12.6,0-54.5-3.1-54.5-40.9
		C1253.4,590.8,1321.6,585.6,1372.9,585.6z"/>
	<path fill="#FFFFFF" d="M1585.7,487.1c25.2,0,26.2-18.9,26.2-23.1c0-11.5-7.3-24.1-26.2-24.1h-50.3v-50.3
		c0-23.1-14.7-31.4-27.2-31.4c-4.2,0-28.3,1-28.3,31.4v244.2c0,56.6,27.2,85.9,80.7,85.9c13.6,0,27.2-2.1,35.6-6.3
		c9.4-5.2,15.7-12.6,15.7-22c0-12.6-9.4-22-22-22c-2.1,0-6.3,1-10.5,2.1c-5.2,1-8.4,2.1-11.5,2.1c-21,0-31.4-13.6-31.4-44V487.1
		H1585.7z"/>
	<path fill="#FFFFFF" d="M1772.2,433.6c-84.9,0-147.8,60.8-147.8,143.6c0,40.9,14.7,77.6,41.9,103.8c27.2,26.2,63.9,40.9,104.8,40.9
		c83.8,0,147.8-61.8,147.8-144.6C1920,493.4,1857.1,433.6,1772.2,433.6z M1772.2,673.6c-58.7,0-89.1-49.3-89.1-97.5
		c0-66,46.1-96.4,89.1-96.4s89.1,30.4,89.1,96.4C1861.3,643.2,1815.2,673.6,1772.2,673.6z"/>
</g>
</svg>
