<?xml version="1.0" encoding="utf-8"?>
<!-- Generator: Adobe Illustrator 17.1.0, SVG Export Plug-In . SVG Version: 6.00 Build 0)  -->
<!DOCTYPE svg PUBLIC "-//W3C//DTD SVG 1.1//EN" "http://www.w3.org/Graphics/SVG/1.1/DTD/svg11.dtd">
<svg version="1.1" id="Layer_1" xmlns="http://www.w3.org/2000/svg" xmlns:xlink="http://www.w3.org/1999/xlink" x="0px" y="0px"
	 viewBox="0 0 207.1 185.7" enable-background="new 0 0 207.1 185.7" xml:space="preserve">
<g>
	<path fill="#FFFFFF" d="M189.2,14.8h-5.8V9c0-0.9-0.7-1.6-1.6-1.6H176V1.6c0-0.9-0.7-1.6-1.6-1.6h-56c-6.5,0-12.2,3.9-14.8,9.4
		C100.9,3.9,95.3,0,88.7,0h-56C31.8,0,31,0.7,31,1.6v5.7h-5.8c-0.9,0-1.6,0.7-1.6,1.6v5.7h-5.8c-0.9,0-1.6,0.7-1.6,1.6v96.8
		c0,0.9,0.7,1.6,1.6,1.6h70.9c7.3,0,13.2,5.9,13.2,13.1c0,0.9,0.7,1.6,1.6,1.6c0.9,0,1.6-0.7,1.6-1.6c0-7.2,5.9-13.1,13.2-13.1h70.9
		c0.9,0,1.6-0.7,1.6-1.6V16.4C190.9,15.5,190.1,14.8,189.2,14.8 M187.6,111.6h-69.2c-5.2,0-9.9,2.5-12.9,6.3
		c1.3-5.9,6.6-10.4,12.9-10.4h63.5c0.9,0,1.6-0.7,1.6-1.6V18h4.1V111.6z M19.5,18h4.1v87.8c0,0.9,0.7,1.6,1.6,1.6h63.5
		c6.3,0,11.6,4.5,12.9,10.4c-3-3.8-7.6-6.3-12.9-6.3H19.5V18z M26.9,14.8v-4.1H31v4.1v1.6V18v80.4c0,0.9,0.7,1.6,1.6,1.6h56
		c6.3,0,11.6,4.5,12.9,10.4c-3-3.8-7.6-6.3-12.9-6.3H26.9V18v-1.6V14.8z M34.3,7.4V3.3h54.4c6.3,0,11.6,4.5,12.9,10.4
		c0.2,0.9,0.3,1.8,0.3,2.7v0.7v4.3v2.4v0.7v6.6v72.3c-3-4-7.8-6.7-13.2-6.7H34.3V18v-1.6v-1.6v-4.1V9V7.4z M118.4,3.3h54.4v4.1V9
		v1.6v4.1v1.6V18v78.8h-54.4c-5.4,0-10.2,2.6-13.2,6.7V31.2v-6.6v-0.7v-2.4v-4.3v-0.7c0-0.9,0.1-1.8,0.3-2.7
		C106.7,7.8,112,3.3,118.4,3.3 M180.2,14.8v1.6V18v86.2h-61.8c-5.2,0-9.9,2.5-12.9,6.3c1.3-5.9,6.6-10.4,12.9-10.4h56
		c0.9,0,1.6-0.7,1.6-1.6V18v-1.6v-1.6v-4.1h4.1V14.8z"/>
	<g>
		<path fill="#FFFFFF" d="M0,170.4c0-10.2,6.7-16.6,16.1-16.6c10,0,15.2,7.1,15.2,15.3c0,10.2-6.7,16.6-16.1,16.6
			C5.2,185.7,0,178.6,0,170.4z M21.1,170.4c0-8.1-1.5-14.3-5.7-14.3c-4.2,0-5.3,6.8-5.3,13c0,8.1,1.5,14.3,5.7,14.3
			C20,183.4,21.1,176.5,21.1,170.4z"/>
		<path fill="#FFFFFF" d="M35.5,160.7c0-7,5-9.5,10.8-9.5c2.9,0,5.2,0.7,7.1,2.3c2-1.9,5-2.8,8.2-2.8c5.1,0,7.3,1.7,7.3,4.6
			c0,1.3-0.7,2.4-1.7,2.9h-4.6c0.1-0.6,0.2-1.4,0.2-2.2c0-1.5-0.1-3.1-1.5-3.1c-1.2,0-1.7,1-1.7,2.7v5.8h5v2.5h-5V181
			c0,1.9,1,2.1,3.4,2.4v1.9H48.4v-1.9c1.6-0.1,2.2-0.3,2.2-1.6v-18h-6v18c0,1.3,0.6,1.5,2.2,1.6v1.9H33.2v-1.9
			c1.6-0.1,2.3-0.3,2.3-1.6v-18h-3.1v-2l3.1-0.8V160.7z M51.2,156.9c-0.5-2-1.7-3.6-4-3.6c-1.9,0-2.6,1.4-2.6,4.2v3.8h6v-0.6
			C50.6,159.3,50.8,158,51.2,156.9z"/>
		<path fill="#FFFFFF" d="M65.9,183.4l-0.3-6h2.3c0.8,3.5,3.2,6.2,6.6,6.2c2,0,3.6-0.9,3.6-2.8c0-2.2-1.7-2.8-4.6-3.7
			c-5.1-1.5-7.9-3.7-7.9-8.3c0-5.3,4-8.1,9.5-8.1c3,0,5.9,0.8,7.8,2v5.3h-2.1c-0.4-2.8-2.4-5.3-5.5-5.3c-1.8,0-3,0.9-3,2.5
			c0,1.8,1.3,2.4,4,3.3c5.5,1.8,8.5,3.6,8.5,8.7c0,5.3-4,8.3-10.2,8.3C70.7,185.7,67.9,184.8,65.9,183.4z"/>
		<path fill="#FFFFFF" d="M101.5,179.6c2.5,0,4.4-0.8,5.7-2.7l1.1,0.7c-1.5,5.7-5.2,8.1-10.3,8.1c-6.3,0-11.2-4.4-11.2-11.7
			c0-7.6,4.9-13.2,12.5-13.2c4.5,0,8.4,1.7,8.4,5.8c0,1.8-1.1,2.9-2.1,3.4H101c0.1-1.1,0.2-1.9,0.2-2.7c0-2.7-0.7-4.4-2.7-4.4
			c-2.5,0-3.9,3.3-3.9,7.7C94.6,176.2,97.1,179.6,101.5,179.6z"/>
		<path fill="#FFFFFF" d="M120.9,181c0,1.9,1,2.1,3.4,2.4v1.9h-14.9v-1.9c1.6-0.1,2.3-0.3,2.3-1.6v-15.5l-2.3-1.5v-1.4l9.9-2.7h1.8
			l-0.2,6.9c1.7-5.3,3.3-6.9,6.1-6.9c1.1,0,1.9,0.3,2.3,0.8v6.8h-1.1c-2.8,0-5.4,0.1-7.3,1.2V181z"/>
		<path fill="#FFFFFF" d="M152.5,170.7v1.1h-14c0,4.9,2.7,8,6.6,8c2.8,0,4.9-0.9,6.6-3.1l0.9,0.6c-1.2,5.1-4.7,8.4-10.5,8.4
			c-6.6,0-11.8-4.2-11.8-11.9c0-8,5.7-12.9,12.2-12.9C149.1,160.8,152.5,164.9,152.5,170.7z M138.5,169.7h6.2c0-4.4-0.7-6.9-2.8-6.9
			C139.7,162.8,138.7,165.5,138.5,169.7z"/>
		<path fill="#FFFFFF" d="M176.6,170.7v1.1h-14c0,4.9,2.7,8,6.6,8c2.8,0,4.9-0.9,6.6-3.1l0.9,0.6c-1.2,5.1-4.7,8.4-10.5,8.4
			c-6.6,0-11.8-4.2-11.8-11.9c0-8,5.7-12.9,12.2-12.9C173.3,160.8,176.6,164.9,176.6,170.7z M162.7,169.7h6.2c0-4.4-0.7-6.9-2.8-6.9
			C163.9,162.8,162.8,165.5,162.7,169.7z"/>
		<path fill="#FFFFFF" d="M195.6,168.9c0-1.6-0.5-2.7-2.7-2.7c-1.2,0-2.3,0.2-3.3,0.6v15.1c0,1.3,0.6,1.5,2.2,1.6v1.9h-13.7v-1.9
			c1.6-0.1,2.3-0.3,2.3-1.6v-15.5l-2.3-1.5v-1.4l9.9-2.7h1.8l-0.2,4.5c1.6-2.1,4.1-4.5,8.3-4.5c4.3,0,6.8,2.4,6.8,7.2v13.7
			c0,1.3,0.7,1.5,2.3,1.6v1.9h-13.7v-1.9c1.6-0.1,2.2-0.3,2.2-1.6V168.9z"/>
	</g>
</g>
</svg>
