<svg xmlns="http://www.w3.org/2000/svg" viewBox="50.9 50.4 459.2 85.2" enable-background="new 50.9 50.4 459.2 85.2"><path fill="#fff" d="M103.8 74.9c-.2-2.6-.7-5-1.6-7.3-2.2-5.8-6.3-10.6-11.5-13.6-1.5-.8-3-1.5-4.6-2.1-2.7-.9-5.6-1.4-8.6-1.4-14.6 0-26.5 11.9-26.5 26.5l26.5 58.7s3.9-6.4 8.6-15.2c-7.5-13.7-17.1-32.9-17.9-42.5 0-.4-.1-.8-.1-1.1 0-.7 0-1.3.1-2 .9-4.3 4.6-7.5 9.1-7.5.6 0 1.1.1 1.7.2 3.2.6 5.8 2.8 6.9 5.7.4 1.1.7 2.3.7 3.5 0 .9-.3 2-.7 3.3-1.1 3.2-3.1 7.4-5 10.9 2.5 6.5 6.1 13.9 9.6 20.8 3.5-6.9 7.1-14.3 9.6-20.8 2-5.1 3.3-9.6 3.6-12.9.1-.5.2-.9.2-1.3.1-.7 0-1.3-.1-1.9m42.2-3.6c2.7 0 5 .4 6.9 1.2 1.9.8 3.4 1.8 4.6 3.1 1.2 1.3 2.1 2.8 2.6 4.4.5 1.7.8 3.4.8 5.1 0 1.7-.3 3.4-.8 5.1-.5 1.7-1.4 3.1-2.6 4.4-1.2 1.3-2.7 2.3-4.6 3.1-1.9.8-4.2 1.2-6.9 1.2h-10v15.5h-9.5v-43.1h19.5zm-2.6 20.2c1.1 0 2.1-.1 3.1-.2 1-.2 1.9-.5 2.7-.9.8-.5 1.4-1.1 1.8-2s.7-2 .7-3.3c0-1.4-.2-2.5-.7-3.3-.5-.8-1.1-1.5-1.8-2-.8-.5-1.6-.8-2.7-.9-1-.2-2.1-.2-3.1-.2h-7.4v12.9l7.4-.1zm21.8-20.2h8.6v7.1h-8.6v-7.1zm8.5 43.1h-8.6v-31.2h8.6v31.2zm14.9-31.2v4.3h.2c1.1-1.8 2.5-3.1 4.2-4 1.7-.8 3.5-1.2 5.3-1.2 2.3 0 4.2.3 5.6.9 1.5.6 2.6 1.5 3.5 2.6.8 1.1 1.4 2.5 1.8 4 .3 1.6.5 3.4.5 5.3v19.2h-8.6v-17.6c0-2.6-.4-4.5-1.2-5.8-.8-1.3-2.2-1.9-4.3-1.9-2.3 0-4 .7-5.1 2.1-1 1.4-1.6 3.7-1.6 6.9v16.4h-8.6v-31.2h8.3zm64.8-11.9c2.7 0 5 .4 6.9 1.2 1.9.8 3.4 1.8 4.6 3.1 1.2 1.3 2.1 2.8 2.6 4.4.5 1.7.8 3.4.8 5.1 0 1.7-.3 3.4-.8 5.1-.5 1.7-1.4 3.1-2.6 4.4-1.2 1.3-2.7 2.3-4.6 3.1-1.9.8-4.2 1.2-6.9 1.2h-10v15.5h-9.4v-43.1h19.4zm-2.6 20.2c1.1 0 2.1-.1 3.1-.2 1-.2 1.9-.5 2.7-.9s1.4-1.1 1.8-2c.5-.8.7-2 .7-3.3 0-1.4-.2-2.5-.7-3.3-.5-.8-1.1-1.5-1.8-2-.8-.5-1.6-.8-2.7-.9-1-.2-2.1-.2-3.1-.2h-7.4v12.9l7.4-.1zm21.7-3.8c.9-1.3 2-2.4 3.4-3.2 1.4-.8 2.9-1.4 4.6-1.7 1.7-.3 3.4-.5 5.2-.5 1.6 0 3.2.1 4.8.3 1.6.2 3.1.7 4.4 1.3s2.4 1.5 3.3 2.7c.8 1.1 1.3 2.7 1.3 4.6v16.2c0 1.4.1 2.8.2 4 .2 1.3.4 2.3.8 2.9h-8.7c-.2-.5-.3-1-.4-1.5-.1-.5-.2-1-.2-1.5-1.4 1.4-3 2.4-4.8 3-1.9.6-3.7.8-5.7.8-1.5 0-2.9-.2-4.2-.5-1.3-.4-2.4-.9-3.4-1.7-1-.8-1.7-1.7-2.3-2.9-.5-1.2-.8-2.6-.8-4.2 0-1.8.3-3.2.9-4.4.6-1.1 1.4-2.1 2.4-2.7 1-.7 2.1-1.2 3.4-1.5 1.3-.3 2.5-.6 3.8-.8 1.3-.2 2.6-.4 3.8-.5 1.2-.1 2.4-.3 3.3-.5 1-.2 1.7-.6 2.3-1.1.6-.5.8-1.1.8-2 0-.9-.1-1.7-.5-2.2-.3-.5-.7-1-1.2-1.3-.5-.3-1.1-.5-1.8-.6-.7-.1-1.4-.2-2.1-.2-1.7 0-3 .4-4 1.1s-1.5 1.9-1.7 3.6h-8.4c.1-2 .6-3.6 1.5-5m16.9 12.1c-.5.2-1.1.3-1.8.5-.6.1-1.3.2-2 .3l-2.1.3c-.6.1-1.3.3-1.9.5-.6.2-1.2.5-1.6.8s-.8.8-1.1 1.3c-.3.5-.4 1.2-.4 2s.1 1.4.4 1.9c.3.5.7.9 1.1 1.2.5.3 1 .5 1.7.6.6.1 1.3.2 2 .2 1.7 0 3-.3 3.9-.8.9-.6 1.6-1.2 2.1-2 .4-.8.7-1.6.8-2.4.1-.8.1-1.4.1-1.9v-3.2c-.2.3-.7.6-1.2.7m28.1 23.9c-1.6 1.1-3.9 1.6-6.9 1.6-.9 0-1.8 0-2.6-.1l-2.6-.2v-7.1c.8.1 1.6.2 2.5.2.8.1 1.7.1 2.5.1 1.1-.1 2-.6 2.5-1.3.5-.8.8-1.6.8-2.5 0-.7-.1-1.3-.4-1.9l-10.9-29.3h9.1l7.1 21.4h.1l6.8-21.4h8.9l-13 35.1c-1 2.5-2.2 4.3-3.9 5.4m28.1-40.5v4.2h.1c1.1-1.6 2.5-2.9 4.1-3.7 1.6-.9 3.4-1.3 5.5-1.3 2 0 3.8.4 5.4 1.1 1.6.8 2.9 2.1 3.7 4 .9-1.4 2.2-2.6 3.8-3.6 1.6-1 3.5-1.6 5.6-1.6 1.6 0 3.2.2 4.6.6 1.4.4 2.6 1 3.6 1.9 1 .9 1.8 2 2.4 3.5.6 1.4.8 3.1.8 5.2v20.9h-8.6v-17.7c0-1 0-2-.1-3-.1-.9-.3-1.7-.7-2.4-.4-.7-.9-1.2-1.6-1.6-.7-.4-1.7-.6-2.9-.6s-2.2.2-2.9.7c-.7.5-1.3 1.1-1.8 1.8-.4.7-.7 1.6-.8 2.5-.1.9-.2 1.9-.2 2.9v17.4h-8.6v-17.5c0-.9 0-1.8-.1-2.7 0-.9-.2-1.7-.5-2.5s-.8-1.4-1.5-1.8c-.7-.5-1.7-.7-3.1-.7-.4 0-.9.1-1.6.3-.7.2-1.3.5-1.9 1-.6.5-1.2 1.2-1.6 2.2-.4.9-.7 2.2-.7 3.7v18.1h-8.6v-31.3h8.2zm54.8 23.7c1.3 1.2 3.1 1.9 5.6 1.9 1.7 0 3.2-.4 4.5-1.3 1.2-.9 2-1.8 2.3-2.7h7.5c-1.2 3.7-3.1 6.4-5.6 8-2.5 1.6-5.5 2.4-9.1 2.4-2.5 0-4.7-.4-6.6-1.2-2-.8-3.6-1.9-5-3.3s-2.4-3.2-3.2-5.2c-.7-2-1.1-4.2-1.1-6.6 0-2.3.4-4.5 1.1-6.5.8-2 1.9-3.8 3.3-5.2 1.4-1.5 3.1-2.6 5-3.5s4.1-1.3 6.5-1.3c2.7 0 5 .5 6.9 1.5 2 1 3.6 2.4 4.9 4.1 1.3 1.7 2.2 3.7 2.7 5.9.6 2.2.8 4.5.6 6.9h-22.5c.2 2.8.9 4.8 2.2 6.1m9.7-16.4c-1-1.1-2.6-1.7-4.7-1.7-1.4 0-2.5.2-3.4.7-.9.5-1.6 1-2.2 1.7-.5.7-.9 1.4-1.1 2.2-.2.8-.4 1.4-.4 2.1h13.9c-.4-2.3-1.1-3.9-2.1-5m23.7-7.3v4.3h.2c1.1-1.8 2.5-3.1 4.2-4 1.7-.8 3.5-1.2 5.3-1.2 2.3 0 4.2.3 5.6.9 1.5.6 2.6 1.5 3.5 2.6.8 1.1 1.4 2.5 1.8 4 .3 1.6.5 3.4.5 5.3v19.2h-8.6v-17.6c0-2.6-.4-4.5-1.2-5.8-.8-1.3-2.2-1.9-4.3-1.9-2.3 0-4 .7-5.1 2.1-1 1.4-1.6 3.7-1.6 6.9v16.4h-8.6v-31.2h8.3zm44.8 0v5.7h-6.3v15.5c0 1.4.2 2.4.7 2.9.5.5 1.5.7 2.9.7.5 0 .9 0 1.4-.1.4 0 .9-.1 1.3-.2v6.6c-.7.1-1.5.2-2.4.2-.9 0-1.8.1-2.6.1-1.3 0-2.6-.1-3.8-.3-1.2-.2-2.2-.5-3.1-1.1-.9-.5-1.6-1.3-2.1-2.2-.5-1-.8-2.2-.8-3.8v-18.3h-5.2v-5.7h5.2v-9.4h8.6v9.4h6.2zm11.3 23.4c.4.7.9 1.2 1.5 1.6.6.4 1.3.7 2.1.9.8.2 1.6.3 2.4.3.6 0 1.2-.1 1.9-.2s1.3-.4 1.8-.7c.5-.3 1-.7 1.4-1.2.4-.5.5-1.1.5-1.9 0-1.3-.9-2.3-2.6-2.9-1.7-.6-4.1-1.3-7.2-1.9-1.2-.3-2.5-.6-3.7-1-1.2-.4-2.2-.9-3.2-1.5-.9-.6-1.7-1.4-2.2-2.4-.6-.9-.8-2.1-.8-3.5 0-2 .4-3.7 1.2-4.9.8-1.3 1.8-2.3 3.1-3 1.3-.7 2.7-1.3 4.3-1.6 1.6-.3 3.3-.5 5-.5s3.3.2 4.9.5c1.6.3 3 .9 4.3 1.6 1.2.8 2.3 1.8 3.1 3 .8 1.3 1.3 2.9 1.5 4.8h-8.1c-.1-1.7-.7-2.8-1.9-3.4-1.1-.6-2.5-.9-4-.9-.5 0-1 0-1.6.1-.6.1-1.1.2-1.5.4-.5.2-.9.5-1.2.9-.3.4-.5.9-.5 1.5 0 .8.3 1.4.8 1.9.6.5 1.3.9 2.2 1.2.9.3 1.9.6 3.1.8 1.2.2 2.4.5 3.6.8 1.2.3 2.5.6 3.7 1 1.2.4 2.2.9 3.2 1.6.9.7 1.7 1.5 2.2 2.5.6 1 .8 2.2.8 3.7 0 2.1-.4 3.8-1.2 5.2-.8 1.4-1.9 2.5-3.2 3.3-1.3.8-2.8 1.4-4.6 1.8-1.7.3-3.5.5-5.2.5-1.8 0-3.6-.2-5.3-.5-1.7-.4-3.3-1-4.6-1.8-1.3-.8-2.5-2-3.3-3.3-.9-1.4-1.3-3.1-1.4-5.2h8.1c0 .9.2 1.7.6 2.4"/></svg>