<?xml version="1.0" encoding="utf-8"?>
<!-- Generator: Adobe Illustrator 17.1.0, SVG Export Plug-In . SVG Version: 6.00 Build 0)  -->
<!DOCTYPE svg PUBLIC "-//W3C//DTD SVG 1.1//EN" "http://www.w3.org/Graphics/SVG/1.1/DTD/svg11.dtd">
<svg version="1.1" id="Layer_1" xmlns="http://www.w3.org/2000/svg" xmlns:xlink="http://www.w3.org/1999/xlink" x="0px" y="0px"
	 viewBox="50.9 50.4 459.2 85.2" enable-background="new 50.9 50.4 459.2 85.2" xml:space="preserve">
<path fill="#FFFFFF" d="M103.8,74.9c-0.2-2.6-0.7-5-1.6-7.3C100,61.8,95.9,57,90.7,54c-1.5-0.8-3-1.5-4.6-2.1
	c-2.7-0.9-5.6-1.4-8.6-1.4c-14.6,0-26.5,11.9-26.5,26.5s26.5,58.7,26.5,58.7s3.9-6.4,8.6-15.2C78.6,106.8,69,87.6,68.2,78
	c0-0.4-0.1-0.8-0.1-1.1c0-0.7,0-1.3,0.1-2c0.9-4.3,4.6-7.5,9.1-7.5c0.6,0,1.1,0.1,1.7,0.2c3.2,0.6,5.8,2.8,6.9,5.7
	c0.4,1.1,0.7,2.3,0.7,3.5c0,0.9-0.3,2-0.7,3.3c-1.1,3.2-3.1,7.4-5,10.9c2.5,6.5,6.1,13.9,9.6,20.8c3.5-6.9,7.1-14.3,9.6-20.8
	c2-5.1,3.3-9.6,3.6-12.9c0.1-0.5,0.2-0.9,0.2-1.3C104,76.1,103.9,75.5,103.8,74.9"/>
<path fill="#FFFFFF" d="M146,71.3c2.7,0,5,0.4,6.9,1.2c1.9,0.8,3.4,1.8,4.6,3.1c1.2,1.3,2.1,2.8,2.6,4.4c0.5,1.7,0.8,3.4,0.8,5.1
	c0,1.7-0.3,3.4-0.8,5.1c-0.5,1.7-1.4,3.1-2.6,4.4c-1.2,1.3-2.7,2.3-4.6,3.1c-1.9,0.8-4.2,1.2-6.9,1.2h-10v15.5h-9.5V71.3H146z
	 M143.4,91.5c1.1,0,2.1-0.1,3.1-0.2c1-0.2,1.9-0.5,2.7-0.9c0.8-0.5,1.4-1.1,1.8-2s0.7-2,0.7-3.3c0-1.4-0.2-2.5-0.7-3.3
	c-0.5-0.8-1.1-1.5-1.8-2c-0.8-0.5-1.6-0.8-2.7-0.9c-1-0.2-2.1-0.2-3.1-0.2H136v12.9L143.4,91.5L143.4,91.5z"/>
<path fill="#FFFFFF" d="M165.2,71.3h8.6v7.1h-8.6V71.3z M173.7,114.4h-8.6V83.2h8.6V114.4z"/>
<path fill="#FFFFFF" d="M188.6,83.2v4.3h0.2c1.1-1.8,2.5-3.1,4.2-4c1.7-0.8,3.5-1.2,5.3-1.2c2.3,0,4.2,0.3,5.6,0.9
	c1.5,0.6,2.6,1.5,3.5,2.6c0.8,1.1,1.4,2.5,1.8,4c0.3,1.6,0.5,3.4,0.5,5.3v19.2h-8.6V96.7c0-2.6-0.4-4.5-1.2-5.8
	c-0.8-1.3-2.2-1.9-4.3-1.9c-2.3,0-4,0.7-5.1,2.1c-1,1.4-1.6,3.7-1.6,6.9v16.4h-8.6V83.2H188.6z"/>
<path fill="#FFFFFF" d="M253.4,71.3c2.7,0,5,0.4,6.9,1.2c1.9,0.8,3.4,1.8,4.6,3.1c1.2,1.3,2.1,2.8,2.6,4.4c0.5,1.7,0.8,3.4,0.8,5.1
	c0,1.7-0.3,3.4-0.8,5.1c-0.5,1.7-1.4,3.1-2.6,4.4c-1.2,1.3-2.7,2.3-4.6,3.1c-1.9,0.8-4.2,1.2-6.9,1.2h-10v15.5H234V71.3H253.4z
	 M250.8,91.5c1.1,0,2.1-0.1,3.1-0.2c1-0.2,1.9-0.5,2.7-0.9s1.4-1.1,1.8-2c0.5-0.8,0.7-2,0.7-3.3c0-1.4-0.2-2.5-0.7-3.3
	c-0.5-0.8-1.1-1.5-1.8-2c-0.8-0.5-1.6-0.8-2.7-0.9c-1-0.2-2.1-0.2-3.1-0.2h-7.4v12.9L250.8,91.5L250.8,91.5z"/>
<path fill="#FFFFFF" d="M272.5,87.7c0.9-1.3,2-2.4,3.4-3.2c1.4-0.8,2.9-1.4,4.6-1.7c1.7-0.3,3.4-0.5,5.2-0.5c1.6,0,3.2,0.1,4.8,0.3
	c1.6,0.2,3.1,0.7,4.4,1.3s2.4,1.5,3.3,2.7c0.8,1.1,1.3,2.7,1.3,4.6v16.2c0,1.4,0.1,2.8,0.2,4c0.2,1.3,0.4,2.3,0.8,2.9h-8.7
	c-0.2-0.5-0.3-1-0.4-1.5c-0.1-0.5-0.2-1-0.2-1.5c-1.4,1.4-3,2.4-4.8,3c-1.9,0.6-3.7,0.8-5.7,0.8c-1.5,0-2.9-0.2-4.2-0.5
	c-1.3-0.4-2.4-0.9-3.4-1.7c-1-0.8-1.7-1.7-2.3-2.9c-0.5-1.2-0.8-2.6-0.8-4.2c0-1.8,0.3-3.2,0.9-4.4c0.6-1.1,1.4-2.1,2.4-2.7
	c1-0.7,2.1-1.2,3.4-1.5c1.3-0.3,2.5-0.6,3.8-0.8c1.3-0.2,2.6-0.4,3.8-0.5c1.2-0.1,2.4-0.3,3.3-0.5c1-0.2,1.7-0.6,2.3-1.1
	c0.6-0.5,0.8-1.1,0.8-2c0-0.9-0.1-1.7-0.5-2.2c-0.3-0.5-0.7-1-1.2-1.3c-0.5-0.3-1.1-0.5-1.8-0.6c-0.7-0.1-1.4-0.2-2.1-0.2
	c-1.7,0-3,0.4-4,1.1s-1.5,1.9-1.7,3.6H271C271.1,90.7,271.6,89.1,272.5,87.7 M289.4,99.8c-0.5,0.2-1.1,0.3-1.8,0.5
	c-0.6,0.1-1.3,0.2-2,0.3c-0.7,0.1-1.4,0.2-2.1,0.3c-0.6,0.1-1.3,0.3-1.9,0.5c-0.6,0.2-1.2,0.5-1.6,0.8s-0.8,0.8-1.1,1.3
	c-0.3,0.5-0.4,1.2-0.4,2c0,0.8,0.1,1.4,0.4,1.9c0.3,0.5,0.7,0.9,1.1,1.2c0.5,0.3,1,0.5,1.7,0.6c0.6,0.1,1.3,0.2,2,0.2
	c1.7,0,3-0.3,3.9-0.8c0.9-0.6,1.6-1.2,2.1-2c0.4-0.8,0.7-1.6,0.8-2.4c0.1-0.8,0.1-1.4,0.1-1.9v-3.2
	C290.4,99.4,289.9,99.7,289.4,99.8"/>
<path fill="#FFFFFF" d="M317.5,123.7c-1.6,1.1-3.9,1.6-6.9,1.6c-0.9,0-1.8,0-2.6-0.1c-0.9-0.1-1.7-0.1-2.6-0.2v-7.1
	c0.8,0.1,1.6,0.2,2.5,0.2c0.8,0.1,1.7,0.1,2.5,0.1c1.1-0.1,2-0.6,2.5-1.3c0.5-0.8,0.8-1.6,0.8-2.5c0-0.7-0.1-1.3-0.4-1.9l-10.9-29.3
	h9.1l7.1,21.4h0.1l6.8-21.4h8.9l-13,35.1C320.4,120.8,319.2,122.6,317.5,123.7"/>
<path fill="#FFFFFF" d="M345.6,83.2v4.2h0.1c1.1-1.6,2.5-2.9,4.1-3.7c1.6-0.9,3.4-1.3,5.5-1.3c2,0,3.8,0.4,5.4,1.1
	c1.6,0.8,2.9,2.1,3.7,4c0.9-1.4,2.2-2.6,3.8-3.6c1.6-1,3.5-1.6,5.6-1.6c1.6,0,3.2,0.2,4.6,0.6c1.4,0.4,2.6,1,3.6,1.9
	c1,0.9,1.8,2,2.4,3.5c0.6,1.4,0.8,3.1,0.8,5.2v20.9h-8.6V96.7c0-1,0-2-0.1-3c-0.1-0.9-0.3-1.7-0.7-2.4c-0.4-0.7-0.9-1.2-1.6-1.6
	c-0.7-0.4-1.7-0.6-2.9-0.6s-2.2,0.2-2.9,0.7c-0.7,0.5-1.3,1.1-1.8,1.8c-0.4,0.7-0.7,1.6-0.8,2.5c-0.1,0.9-0.2,1.9-0.2,2.9v17.4h-8.6
	V96.9c0-0.9,0-1.8-0.1-2.7c0-0.9-0.2-1.7-0.5-2.5c-0.3-0.8-0.8-1.4-1.5-1.8c-0.7-0.5-1.7-0.7-3.1-0.7c-0.4,0-0.9,0.1-1.6,0.3
	c-0.7,0.2-1.3,0.5-1.9,1c-0.6,0.5-1.2,1.2-1.6,2.2c-0.4,0.9-0.7,2.2-0.7,3.7v18.1h-8.6V83.2H345.6z"/>
<path fill="#FFFFFF" d="M400.4,106.9c1.3,1.2,3.1,1.9,5.6,1.9c1.7,0,3.2-0.4,4.5-1.3c1.2-0.9,2-1.8,2.3-2.7h7.5
	c-1.2,3.7-3.1,6.4-5.6,8c-2.5,1.6-5.5,2.4-9.1,2.4c-2.5,0-4.7-0.4-6.6-1.2c-2-0.8-3.6-1.9-5-3.3c-1.4-1.4-2.4-3.2-3.2-5.2
	c-0.7-2-1.1-4.2-1.1-6.6c0-2.3,0.4-4.5,1.1-6.5c0.8-2,1.9-3.8,3.3-5.2c1.4-1.5,3.1-2.6,5-3.5s4.1-1.3,6.5-1.3c2.7,0,5,0.5,6.9,1.5
	c2,1,3.6,2.4,4.9,4.1c1.3,1.7,2.2,3.7,2.7,5.9c0.6,2.2,0.8,4.5,0.6,6.9h-22.5C398.4,103.6,399.1,105.6,400.4,106.9 M410.1,90.5
	c-1-1.1-2.6-1.7-4.7-1.7c-1.4,0-2.5,0.2-3.4,0.7c-0.9,0.5-1.6,1-2.2,1.7c-0.5,0.7-0.9,1.4-1.1,2.2c-0.2,0.8-0.4,1.4-0.4,2.1h13.9
	C411.8,93.2,411.1,91.6,410.1,90.5"/>
<path fill="#FFFFFF" d="M433.8,83.2v4.3h0.2c1.1-1.8,2.5-3.1,4.2-4c1.7-0.8,3.5-1.2,5.3-1.2c2.3,0,4.2,0.3,5.6,0.9
	c1.5,0.6,2.6,1.5,3.5,2.6c0.8,1.1,1.4,2.5,1.8,4c0.3,1.6,0.5,3.4,0.5,5.3v19.2h-8.6V96.7c0-2.6-0.4-4.5-1.2-5.8
	c-0.8-1.3-2.2-1.9-4.3-1.9c-2.3,0-4,0.7-5.1,2.1c-1,1.4-1.6,3.7-1.6,6.9v16.4h-8.6V83.2H433.8z"/>
<path fill="#FFFFFF" d="M478.6,83.2v5.7h-6.3v15.5c0,1.4,0.2,2.4,0.7,2.9c0.5,0.5,1.5,0.7,2.9,0.7c0.5,0,0.9,0,1.4-0.1
	c0.4,0,0.9-0.1,1.3-0.2v6.6c-0.7,0.1-1.5,0.2-2.4,0.2c-0.9,0-1.8,0.1-2.6,0.1c-1.3,0-2.6-0.1-3.8-0.3c-1.2-0.2-2.2-0.5-3.1-1.1
	c-0.9-0.5-1.6-1.3-2.1-2.2c-0.5-1-0.8-2.2-0.8-3.8V88.9h-5.2v-5.7h5.2v-9.4h8.6v9.4H478.6z"/>
<path fill="#FFFFFF" d="M489.9,106.6c0.4,0.7,0.9,1.2,1.5,1.6c0.6,0.4,1.3,0.7,2.1,0.9c0.8,0.2,1.6,0.3,2.4,0.3
	c0.6,0,1.2-0.1,1.9-0.2c0.7-0.1,1.3-0.4,1.8-0.7c0.5-0.3,1-0.7,1.4-1.2c0.4-0.5,0.5-1.1,0.5-1.9c0-1.3-0.9-2.3-2.6-2.9
	c-1.7-0.6-4.1-1.3-7.2-1.9c-1.2-0.3-2.5-0.6-3.7-1c-1.2-0.4-2.2-0.9-3.2-1.5c-0.9-0.6-1.7-1.4-2.2-2.4c-0.6-0.9-0.8-2.1-0.8-3.5
	c0-2,0.4-3.7,1.2-4.9c0.8-1.3,1.8-2.3,3.1-3c1.3-0.7,2.7-1.3,4.3-1.6c1.6-0.3,3.3-0.5,5-0.5s3.3,0.2,4.9,0.5c1.6,0.3,3,0.9,4.3,1.6
	c1.2,0.8,2.3,1.8,3.1,3c0.8,1.3,1.3,2.9,1.5,4.8h-8.1c-0.1-1.7-0.7-2.8-1.9-3.4c-1.1-0.6-2.5-0.9-4-0.9c-0.5,0-1,0-1.6,0.1
	c-0.6,0.1-1.1,0.2-1.5,0.4c-0.5,0.2-0.9,0.5-1.2,0.9c-0.3,0.4-0.5,0.9-0.5,1.5c0,0.8,0.3,1.4,0.8,1.9c0.6,0.5,1.3,0.9,2.2,1.2
	c0.9,0.3,1.9,0.6,3.1,0.8c1.2,0.2,2.4,0.5,3.6,0.8c1.2,0.3,2.5,0.6,3.7,1c1.2,0.4,2.2,0.9,3.2,1.6c0.9,0.7,1.7,1.5,2.2,2.5
	c0.6,1,0.8,2.2,0.8,3.7c0,2.1-0.4,3.8-1.2,5.2c-0.8,1.4-1.9,2.5-3.2,3.3c-1.3,0.8-2.8,1.4-4.6,1.8c-1.7,0.3-3.5,0.5-5.2,0.5
	c-1.8,0-3.6-0.2-5.3-0.5c-1.7-0.4-3.3-1-4.6-1.8c-1.3-0.8-2.5-2-3.3-3.3c-0.9-1.4-1.3-3.1-1.4-5.2h8.1
	C489.3,105.1,489.5,105.9,489.9,106.6"/>
</svg>
