<?xml version="1.0" encoding="utf-8"?>
<!-- Generator: Adobe Illustrator 17.1.0, SVG Export Plug-In . SVG Version: 6.00 Build 0)  -->
<!DOCTYPE svg PUBLIC "-//W3C//DTD SVG 1.1//EN" "http://www.w3.org/Graphics/SVG/1.1/DTD/svg11.dtd">
<svg version="1.1" id="Layer_1" xmlns="http://www.w3.org/2000/svg" xmlns:xlink="http://www.w3.org/1999/xlink" x="0px" y="0px"
	 viewBox="0 0 327.2 56.7" enable-background="new 0 0 327.2 56.7" xml:space="preserve">
<path fill="#FFFFFF" d="M75.2,23.6c-1.9,0-3.4,0.5-4.9,1.3V39c0,0.4-0.3,0.7-0.7,0.7h-3.2c-0.4,0-0.7-0.3-0.7-0.7V20.6
	c0-0.4,0.3-0.7,0.7-0.7h3.1c0.4,0,0.7,0.3,0.7,0.7v0.7c1.7-1.3,3.6-1.7,5-1.7c0.4,0,0.7,0.3,0.7,0.7v2.5
	C75.9,23.3,75.6,23.6,75.2,23.6z M92.9,31.4H81.4v0.1c0,2,0.8,4.5,4.2,4.5c2.6,0,5-0.2,6.5-0.4h0.1c0.4,0,0.6,0.2,0.6,0.5v2.3
	c0,0.6-0.1,0.8-0.7,0.9c-2.3,0.4-3.7,0.6-6.8,0.6c-3.5,0-8.5-1.9-8.5-8.8v-2.6c0-5.5,3.1-8.9,8.4-8.9c5.4,0,8.4,3.7,8.4,8.9v2
	C93.6,31.1,93.4,31.4,92.9,31.4z M88.9,28c0-2.7-1.5-4.3-3.7-4.3c-2.2,0-3.8,1.5-3.8,4.3v0.2h7.5V28z M109.7,39.7h-3
	c-0.4,0-0.7-0.3-0.7-0.7v-0.6c-1.6,1-3.3,1.6-5,1.6c-2.9,0-6.1-1.1-6.1-5.9V34c0-4,2.5-6.1,8.6-6.1h2.2v-1.5c0-2.3-1-2.8-3.1-2.8
	c-2.3,0-4.6,0.1-5.7,0.3h-0.2c-0.4,0-0.6-0.1-0.6-0.6v-2.2c0-0.4,0.2-0.6,0.7-0.7c1.4-0.3,3.4-0.6,5.9-0.6c5,0,7.7,2.2,7.7,6.7V39
	C110.4,39.4,110.1,39.7,109.7,39.7z M105.8,31h-2.2c-3.2,0-3.9,1-3.9,3v0.1c0,1.7,0.8,2.2,2.5,2.2c1.3,0,2.6-0.4,3.6-1V31z
	 M116.8,39.7h-3.3c-0.4,0-0.7-0.3-0.7-0.7V13.7c0-0.4,0.3-0.7,0.7-0.7h3.3c0.4,0,0.7,0.3,0.7,0.7V39
	C117.5,39.4,117.2,39.7,116.8,39.7z M135.8,31.4h-11.5v0.1c0,2,0.8,4.5,4.2,4.5c2.6,0,5-0.2,6.5-0.4h0.1c0.3,0,0.6,0.2,0.6,0.5v2.3
	c0,0.6-0.1,0.8-0.7,0.9c-2.3,0.4-3.7,0.6-6.8,0.6c-3.5,0-8.5-1.9-8.5-8.8v-2.6c0-5.5,3.1-8.9,8.4-8.9c5.4,0,8.4,3.7,8.4,8.9v2
	C136.5,31.1,136.2,31.4,135.8,31.4z M131.8,28c0-2.7-1.5-4.3-3.7-4.3c-2.2,0-3.8,1.5-3.8,4.3v0.2h7.4V28z M145.2,40
	c-1.4,0-4.3-0.2-6.3-0.7c-0.4-0.1-0.7-0.4-0.7-0.8v-2.1c0-0.3,0.2-0.6,0.6-0.6h0.1c1.7,0.2,4.9,0.4,5.9,0.4c2.2,0,2.5-0.7,2.5-1.7
	c0-0.7-0.4-1.1-1.5-1.8l-4.8-3c-1.7-1-3-2.8-3-4.8c0-3.5,2.2-5.3,6.7-5.3c2.8,0,4.5,0.3,6.3,0.7c0.4,0.1,0.6,0.4,0.6,0.8v2
	c0,0.4-0.2,0.7-0.6,0.7H151c-1-0.1-3.8-0.4-5.8-0.4c-1.7,0-2.4,0.4-2.4,1.5c0,0.6,0.5,0.9,1.4,1.4l4.6,2.8c3,1.8,3.4,3.5,3.4,5.3
	C152.1,37.6,149.9,40,145.2,40L145.2,40z M164.8,39.7c-0.8,0.1-1.6,0.2-2.4,0.2c-4,0-5.6-0.9-5.6-5.6v-11l-3.3-0.5
	c-0.4-0.1-0.7-0.3-0.7-0.7v-1.6c0-0.4,0.3-0.7,0.7-0.7h3.3v-4.7c0-0.4,0.3-0.6,0.7-0.7l3.3-0.6h0.1c0.3,0,0.6,0.2,0.6,0.5v5.4h3.2
	c0.4,0,0.7,0.3,0.7,0.7v2.1c0,0.4-0.3,0.7-0.7,0.7h-3.2v11c0,1.8,0.1,2,1.4,2h1.9c0.5,0,0.7,0.2,0.7,0.5v2.2
	C165.5,39.5,165.3,39.7,164.8,39.7L164.8,39.7z M181.3,39.7h-3c-0.4,0-0.7-0.3-0.7-0.7v-0.6c-1.6,1-3.3,1.6-5,1.6
	c-2.9,0-6.1-1.1-6.1-5.9V34c0-4,2.5-6.1,8.6-6.1h2.2v-1.5c0-2.3-1-2.8-3.1-2.8c-2.2,0-4.6,0.1-5.7,0.3h-0.2c-0.4,0-0.6-0.1-0.6-0.6
	v-2.2c0-0.4,0.2-0.6,0.7-0.7c1.4-0.3,3.4-0.6,5.9-0.6c5,0,7.7,2.2,7.7,6.7V39C182.1,39.4,181.7,39.7,181.3,39.7L181.3,39.7z
	 M177.4,31h-2.2c-3.2,0-3.9,1-3.9,3v0.1c0,1.7,0.8,2.2,2.5,2.2c1.3,0,2.6-0.4,3.6-1L177.4,31L177.4,31z M194.6,39.7
	c-0.8,0.1-1.6,0.2-2.4,0.2c-4,0-5.6-0.9-5.6-5.6v-11l-3.3-0.5c-0.4-0.1-0.7-0.3-0.7-0.7v-1.6c0-0.4,0.3-0.7,0.7-0.7h3.3v-4.7
	c0-0.4,0.3-0.6,0.7-0.7l3.3-0.6h0.1c0.3,0,0.6,0.2,0.6,0.5v5.4h3.2c0.4,0,0.7,0.3,0.7,0.7v2.1c0,0.4-0.3,0.7-0.7,0.7h-3.2v11
	c0,1.8,0.1,2,1.4,2h1.9c0.5,0,0.8,0.2,0.8,0.5v2.2C195.3,39.5,195.1,39.7,194.6,39.7L194.6,39.7z M212.6,31.4h-11.5v0.1
	c0,2,0.9,4.5,4.2,4.5c2.6,0,5-0.2,6.5-0.4h0.1c0.3,0,0.6,0.2,0.6,0.5v2.3c0,0.6-0.1,0.8-0.7,0.9c-2.3,0.4-3.7,0.6-6.8,0.6
	c-3.5,0-8.5-1.9-8.5-8.8v-2.6c0-5.5,3.1-8.9,8.4-8.9c5.4,0,8.4,3.7,8.4,8.9v2C213.3,31.1,213.1,31.4,212.6,31.4L212.6,31.4z
	 M208.6,28c0-2.7-1.5-4.3-3.7-4.3c-2.2,0-3.8,1.5-3.8,4.3v0.2h7.4L208.6,28L208.6,28z M218.5,39.7h-3.1c-0.4,0-0.7-0.3-0.7-0.7v-4
	c0-0.4,0.3-0.7,0.7-0.7h3.1c0.4,0,0.7,0.3,0.7,0.7v4C219.2,39.4,218.9,39.7,218.5,39.7z M233,39.5c-0.8,0.2-2.4,0.5-4.5,0.5
	c-4.6,0-8-2.8-8-8.5v-3.3c0-5.7,3.4-8.5,8-8.5c2.1,0,3.7,0.2,4.5,0.5c0.6,0.1,0.7,0.4,0.7,0.9v2.3c0,0.3-0.3,0.5-0.6,0.5H233
	c-1.4-0.2-2.2-0.2-4.5-0.2c-1.7,0-3.4,0.9-3.4,4.6v3.3c0,3.6,1.7,4.6,3.4,4.6c2.3,0,3.1-0.1,4.5-0.2h0.1c0.4,0,0.6,0.2,0.6,0.5v2.3
	C233.7,39.2,233.6,39.4,233,39.5z M243.8,40c-5.5,0-8.4-3.7-8.4-8.8v-2.8c0-5,2.9-8.8,8.4-8.8c5.5,0,8.4,3.7,8.4,8.8v2.8
	C252.2,36.3,249.3,40,243.8,40z M247.6,28.4c0-2.9-1.3-4.7-3.8-4.7c-2.5,0-3.8,1.9-3.8,4.7v2.8c0,2.9,1.3,4.7,3.8,4.7
	c2.5,0,3.8-1.9,3.8-4.7V28.4z M278.8,39.7h-3.2c-0.4,0-0.7-0.3-0.7-0.7V27c0-2.7-0.6-3.4-2.5-3.4c-0.7,0-2,0.2-3.3,0.9
	c0.1,0.8,0.1,1.7,0.1,2.5V39c0,0.4-0.3,0.7-0.7,0.7h-3.2c-0.4,0-0.7-0.3-0.7-0.7V27c0-2.7-0.5-3.4-2.4-3.4c-0.7,0-1.8,0.4-3.2,1.2
	V39c0,0.4-0.3,0.7-0.7,0.7h-3.2c-0.4,0-0.7-0.3-0.7-0.7V20.6c0-0.4,0.3-0.7,0.7-0.7h3.1c0.4,0,0.7,0.3,0.7,0.7v0.7
	c1.5-0.9,3-1.7,5-1.7c2,0,3.3,0.6,4.1,1.6c1.8-1,3.4-1.6,5.8-1.6c4.8,0,5.8,3.3,5.8,7.4V39C279.5,39.4,279.2,39.7,278.8,39.7z
	 M285.3,39.7h-3.1c-0.4,0-0.7-0.3-0.7-0.7v-4c0-0.4,0.3-0.7,0.7-0.7h3.1c0.4,0,0.7,0.3,0.7,0.7v4C286,39.4,285.7,39.7,285.3,39.7z
	 M302.4,39.7h-3c-0.4,0-0.7-0.3-0.7-0.7v-0.6c-1.6,1-3.3,1.6-5,1.6c-2.9,0-6.1-1.1-6.1-5.9V34c0-4,2.5-6.1,8.6-6.1h2.2v-1.5
	c0-2.3-1-2.8-3.1-2.8c-2.3,0-4.6,0.1-5.7,0.3h-0.2c-0.4,0-0.6-0.1-0.6-0.6v-2.2c0-0.4,0.2-0.6,0.7-0.7c1.4-0.3,3.4-0.6,5.9-0.6
	c5,0,7.7,2.2,7.7,6.7V39C303.1,39.4,302.8,39.7,302.4,39.7z M298.5,31h-2.2c-3.2,0-3.9,1-3.9,3v0.1c0,1.7,0.8,2.2,2.5,2.2
	c1.3,0,2.6-0.4,3.6-1V31z M321,39.7h-3.2c-0.4,0-0.7-0.3-0.7-0.7v-0.8c-1.8,1.2-3.3,1.8-5.5,1.8c-1.8,0-3.3-0.5-4.3-1.5
	c-1.3-1.3-1.8-3.5-1.8-6.4V20.6c0-0.4,0.3-0.7,0.7-0.7h3.2c0.4,0,0.7,0.4,0.7,0.7v11.5c0,1.8,0.1,2.8,0.8,3.4
	c0.5,0.4,1.1,0.6,2.2,0.6c1.3,0,3-0.9,4-1.4V20.6c0-0.4,0.3-0.7,0.7-0.7h3.2c0.4,0,0.7,0.4,0.7,0.7V39
	C321.7,39.4,321.3,39.7,321,39.7L321,39.7z"/>
<g opacity="0.6">
	<polygon fill="#FFFFFF" points="14.3,26.2 19.1,26.2 19.1,41.2 37.6,41.2 37.6,26.2 42.4,26.2 28.4,12.2 	"/>
	<path fill="#FFFFFF" d="M28.5,0C12.8-0.1,0.1,12.5,0,28.2c-0.1,15.7,12.5,28.4,28.2,28.5h0.2c15.6,0,28.3-12.6,28.3-28.2
		C56.8,12.8,44.2,0.1,28.5,0z M44.3,30.6H42l0,12.7c0,1.3-1,2.4-2.4,2.4H17c-1.3,0-2.4-1.1-2.4-2.4V30.6h-2.3c-2,0-3.6-1.6-3.6-3.6
		c0-1,0.4-1.9,1-2.6v0L26.6,7.7c0.4-0.5,1.1-0.8,1.7-0.8c0.7,0,1.3,0.3,1.7,0.8l16.8,16.7v0c0.6,0.7,1.1,1.6,1.1,2.6
		C47.9,28.9,46.3,30.6,44.3,30.6z"/>
</g>
<path fill="#FFFFFF" d="M325,18.7c-1.3,0-2.2-1-2.2-2.2s0.9-2.2,2.2-2.2c1.3,0,2.2,1,2.2,2.2C327.2,17.7,326.3,18.7,325,18.7z
	 M325,14.6c-1.1,0-1.8,0.8-1.8,1.9c0,1.1,0.7,1.8,1.8,1.8c1.1,0,1.8-0.8,1.8-1.9C326.8,15.4,326.1,14.6,325,14.6z M325.5,17.6
	l-0.4-0.9h-0.5v0.9h-0.4v-2.3h0.9c0.4,0,0.8,0.3,0.8,0.7c0,0.3-0.1,0.5-0.4,0.7l0.4,0.9H325.5z M325.1,15.7h-0.5v0.7h0.5
	c0.2,0,0.4-0.1,0.4-0.4C325.5,15.8,325.4,15.7,325.1,15.7z"/>
</svg>
