<?xml version="1.0" encoding="utf-8"?>
<!-- Generator: Adobe Illustrator 17.1.0, SVG Export Plug-In . SVG Version: 6.00 Build 0)  -->
<!DOCTYPE svg PUBLIC "-//W3C//DTD SVG 1.1//EN" "http://www.w3.org/Graphics/SVG/1.1/DTD/svg11.dtd">
<svg version="1.1" id="colour" xmlns="http://www.w3.org/2000/svg" xmlns:xlink="http://www.w3.org/1999/xlink" x="0px" y="0px"
	 viewBox="-0.1 323.9 1920.1 432.1" enable-background="new -0.1 323.9 1920.1 432.1" xml:space="preserve">
<path fill="#FFFFFF" d="M503.9,592.1c3,4.8,7.2,9,12.6,12c5.4,3,10.8,5.4,17.4,6.6c6.6,1.2,13.2,1.8,20.3,1.8
	c5.4,0,10.8-0.6,16.8-1.2s11.4-2.4,16.2-4.2c4.8-1.8,9-5.4,12-9c3-4.2,4.8-9,4.8-15.6c0-8.4-3.6-15-10.2-19.2
	c-6.6-4.2-15-7.8-25.1-10.8c-10.2-3-20.9-5.4-32.3-7.2c-12-2.4-22.7-5.4-32.3-9.6c-10.2-4.2-18.6-9.6-25.1-16.8
	c-6.6-7.2-10.2-17.4-10.2-29.9c0-10.2,2.4-18.6,7.2-25.7c4.8-7.2,10.8-13.2,18-17.4c7.2-4.8,15.6-7.8,24.5-10.2
	c9-2.4,18.6-3.6,27.5-3.6c12,0,22.7,1.2,32.3,3s18.6,5.4,26.3,10.2c7.8,4.8,13.8,11.4,18,19.2c4.8,8.4,7.2,18.6,7.8,30.5h-34.1
	c-0.6-6.6-2.4-12-5.4-16.2c-3-4.2-6.6-7.8-11.4-10.2c-4.8-2.4-9.6-4.2-15-5.4c-5.4-1.2-10.8-1.8-16.8-1.8c-4.8,0-10.2,0.6-15.6,1.2
	c-5.4,0.6-10.2,2.4-14.4,4.2c-4.2,1.8-7.8,4.8-10.2,7.8c-2.4,3-4.2,7.2-4.2,12.6c0,6,1.8,10.2,6,14.4c4.2,3.6,9.6,6.6,15.6,9.6
	c6.6,2.4,13.8,4.8,21.5,6c7.8,1.8,16.2,3.6,23.9,5.4c8.4,1.8,16.8,4.2,25.1,6.6c8.4,2.4,15.6,6,21.5,10.2c6,4.2,11.4,9.6,15,16.2
	s6,14.4,6,23.9c0,12-2.4,22.1-7.8,29.9s-12,14.4-20.3,19.2c-8.4,4.8-18,8.4-28.1,10.2c-8.4,1.8-19.2,2.4-29.3,2.4
	c-11.4,0-22.1-1.2-32.9-3.6c-10.2-2.4-19.8-6-27.5-11.4c-7.8-5.4-14.4-12-19.2-20.9c-4.8-8.4-7.2-19.2-7.8-31.7h34.1
	C499.2,581.3,500.3,587.3,503.9,592.1z"/>
<rect x="673.9" y="437.1" fill="#FFFFFF" width="34.1" height="199.9"/>
<path fill="#FFFFFF" d="M849.3,437.1v29.3H808v124.5c0,3.6,0.6,7.2,1.2,9.6c0.6,2.4,1.8,4.2,3.6,5.4s4.2,2.4,7.8,2.4
	c3.6,0.6,7.8,0.6,13.2,0.6h15.6v29.3h-25.7c-9,0-16.2-0.6-22.7-1.8c-6-1.2-11.4-3.6-15-6.6c-3.6-3-6.6-7.8-8.4-13.2
	c-1.8-5.4-3-13.2-3-22.7V465.8h-35.3v-29.3h35.3v-59.9h34.1v59.9h40.7V437.1z"/>
<path fill="#FFFFFF" d="M1027,624.4c-15.6,11.4-34.7,16.8-58.7,16.8c-16.8,0-31.1-2.4-43.1-7.8c-12-5.4-22.1-12.6-30.5-21.5
	c-8.4-9.6-14.4-20.3-18.6-33.5c-4.2-13.2-6.6-26.9-7.2-42.5c0-15,2.4-29.3,7.2-41.9c4.8-12.6,11.4-23.3,20.3-32.9
	c8.4-9.6,19.2-16.8,30.5-21.5c12-5.4,25.1-7.8,38.9-7.8c18.6,0,33.5,3.6,46.1,10.8c12,7.2,22.1,16.8,29.3,28.1
	c7.2,11.4,12.6,23.9,15,37.1c3,13.2,4.2,26.3,3.6,38.3h-155c0,9,0.6,17.4,3,25.1c2.4,7.8,6,15,11.4,20.9c5.4,6,12,10.8,20.3,14.4
	c8.4,3.6,18,5.4,29.3,5.4c14.4,0,26.3-3,35.3-9.6s15-16.2,18-29.3h33.5C1052.8,595.7,1042.6,613,1027,624.4z M1018.7,495.7
	c-3-7.2-7.2-13.2-12.6-18c-5.4-4.8-11.4-9-18.6-12c-7.2-3-15-4.2-23.3-4.2c-9,0-16.8,1.2-23.9,4.2s-13.2,7.2-18,12
	c-4.8,5.4-9,11.4-12,18c-3,6.6-4.8,14.4-5.4,22.1h118.5C1023.4,510.1,1021.6,502.9,1018.7,495.7z"/>
<path fill="#FFFFFF" d="M1124.6,437.1V464h0.6c5.4-11.4,14.4-19.2,26.3-23.9s25.1-7.8,39.5-7.8c16.2,0,29.9,3,41.9,8.4
	c12,5.4,21.5,13.2,29.3,22.7c7.8,9.6,13.8,20.9,18,33.5c4.2,12.6,6,26.3,6,40.1c0,14.4-1.8,27.5-6,40.1
	c-3.6,12.6-9.6,23.9-17.4,32.9c-7.8,9.6-18,16.8-29.3,22.1c-12,5.4-25.7,8.4-41.3,8.4c-4.8,0-10.8-0.6-16.8-1.8
	c-6-1.2-12.6-3-18.6-4.8c-6-2.4-12-5.4-17.4-9.6s-10.2-9-13.8-15h-0.6V713h-34.1V437.1H1124.6z M1246.7,507.7
	c-2.4-9-6.6-16.8-11.4-23.9c-5.4-7.2-12-12.6-19.8-16.8c-8.4-4.2-18-6-28.7-6c-11.4,0-20.9,2.4-29.3,6.6
	c-7.8,4.2-14.4,10.2-19.8,17.4c-4.8,7.2-9,15-10.8,23.9c-2.4,9-3.6,18-3.6,27.5c0,9.6,1.2,19.2,3.6,28.7c2.4,9,6,17.4,11.4,23.9
	c5.4,7.2,12,12.6,20.3,16.8s18.6,6.6,29.9,6.6c12,0,21.5-2.4,29.3-6.6c7.8-4.2,14.4-10.2,19.2-17.4c4.8-7.2,8.4-15.6,10.2-24.5
	c2.4-9.6,3-18.6,3-28.7C1250.9,525.6,1249.7,516.7,1246.7,507.7z"/>
<path fill="#FFFFFF" d="M1316.1,495.7c4.2-12.6,10.8-23.9,19.2-33.5c8.4-9.6,19.2-16.8,31.7-22.1c12.6-5.4,26.9-8.4,43.1-8.4
	c16.8,0,31.1,3,43.1,8.4c12.6,5.4,22.7,12.6,31.1,22.1c8.4,9.6,15,20.3,19.2,33.5c4.2,12.6,6.6,26.3,6.6,41.3
	c0,15-2.4,28.1-6.6,41.3c-4.2,12.6-10.8,23.9-19.2,32.9c-8.4,9.6-19.2,16.8-31.1,22.1c-12.6,5.4-26.9,7.8-43.1,7.8
	s-30.5-2.4-43.1-7.8s-23.3-12.6-31.7-22.1c-8.4-9.6-15-20.3-19.2-32.9c-4.2-12.6-6.6-26.3-6.6-41.3
	C1309.5,522.6,1311.3,508.9,1316.1,495.7z M1350.2,569.3c3.6,9.6,7.8,17.4,13.8,23.3c6,6.6,12.6,11.4,20.3,14.4
	c7.8,3.6,16.2,4.8,25.1,4.8s17.4-1.8,25.1-4.8c7.8-3.6,15-8.4,20.3-14.4c6-6.6,10.2-14.4,13.8-23.3c3.6-9.6,4.8-20.3,4.8-32.3
	c0-12-1.8-22.7-4.8-32.3c-3.6-9.6-7.8-17.4-13.8-23.9c-6-6.6-12.6-11.4-20.3-15c-7.8-3.6-16.2-4.8-25.1-4.8s-17.4,1.8-25.1,4.8
	c-7.8,3.6-15,8.4-20.3,15c-6,6.6-10.8,14.4-13.8,23.9c-3.6,9.6-4.8,20.3-4.8,32.3C1345.4,549,1347.2,559.8,1350.2,569.3z"/>
<rect x="1540.5" y="437.1" fill="#FFFFFF" width="34.1" height="199.9"/>
<path fill="#FFFFFF" d="M1647.1,437.1v31.7h0.6c14.4-24.5,36.5-36.5,67-36.5c13.8,0,25.1,1.8,34.1,5.4c9,3.6,16.2,8.4,22.1,15
	c5.4,6.6,9.6,14.4,12,22.7c2.4,9,3.6,18.6,3.6,29.3v131.7h-34.1V501.7c0-12.6-3.6-22.1-11.4-29.3c-7.2-7.2-18-10.8-30.5-10.8
	c-10.2,0-19.2,1.8-26.9,4.8s-13.8,7.8-19.2,13.2c-4.8,6-9,12.6-11.4,19.8c-2.4,7.8-3.6,16.2-3.6,25.1v113.1h-34.1V437.1H1647.1z"/>
<path fill="#FFFFFF" d="M1920,437.1v29.3h-41.3v124.5c0,3.6,0.6,7.2,1.2,9.6c0.6,2.4,1.8,4.2,3.6,5.4c1.8,1.2,4.2,2.4,7.8,2.4
	c3.6,0.6,7.8,0.6,13.2,0.6h15.6v29.3h-25.7c-9,0-16.2-0.6-22.7-1.8c-6-1.2-11.4-3.6-15-6.6s-6.6-7.8-8.4-13.2
	c-1.8-5.4-3-13.2-3-22.7V465.8h-35.3v-29.3h35.3v-59.9h34.1v59.9h40.7V437.1z"/>
<path opacity="0.45" fill="#FFFFFF" enable-background="new    " d="M9,513.7l31.1,30.5l99.4,92.8l42.5-41.3
	c4.2-5.4,3.6-12.6-0.6-18l-38.9-34.1l0,0l-41.9-40.7c-4.8-5.4-4.8-13.8,0.6-19.2l112.5-110.1l-51.5-49.7L40.1,441.8L8.4,472.4
	C-3,483.7-3,502.3,9,513.7z"/>
<path opacity="0.6" fill="#FFFFFF" enable-background="new    " d="M346.5,566.3l-31.1-30.5l-99.4-92.2l-42.5,41.3
	c-4.2,5.4-3.6,12.6,0.6,18l38.9,34.1l0,0l41.9,40.7c4.8,5.4,4.8,13.8-0.6,19.2L141.2,706.4l51.5,49.7l122.1-117.9l31.7-30.5
	C357.9,596.3,358.5,577.7,346.5,566.3z"/>
<path fill="#FFFFFF" d="M710.4,395.8c0,10.8-9,19.2-19.8,19.2s-19.8-8.4-19.8-19.2s9-19.2,19.8-19.2
	C702,376.6,710.4,385.6,710.4,395.8z"/>
<path fill="#FFFFFF" d="M1577.1,395.8c0,10.8-9,19.2-19.8,19.2c-10.8,0-19.8-8.4-19.8-19.2s9-19.2,19.8-19.2
	C1568.1,376.6,1577.1,385.6,1577.1,395.8z"/>
</svg>
