<svg xmlns="http://www.w3.org/2000/svg" viewBox="0 0 1101.714 16.338" enable-background="new 0 0 1101.714 16.338"><path opacity=".25" fill-rule="evenodd" clip-rule="evenodd" fill="#fff" d="M1101.677 1.696c-.418.104-.84.315-1.252.295-5.246-.254-10.49-.533-15.734-.823-4.957-.273-9.896-.116-14.848.233-7.012.495-14.017.732-21.058-.038-4.266-.467-8.623-.31-12.93-.175-7.027.221-14.047.648-21.068.996-1.912.095-3.824.305-5.736.312-2.869.01-5.738-.113-8.609-.181-6.072-.144-12.143-.331-18.217-.42-7.99-.116-15.986-.358-23.973-.175-10.859.249-21.725-.245-32.584.863-7.94.81-15.957 1.004-23.943 1.119-9.268.134-18.559.19-27.811-.295-8.312-.436-16.607-.523-24.916-.346-12.295.261-24.617.142-36.877.961-20.785 1.388-41.559.643-62.338.468-8.785-.074-17.57-.501-26.357-.563-4.785-.033-9.574.376-14.361.56-3.516.135-7.033.319-10.549.321-13.586.01-27.172-.046-40.758-.078-7.045-.017-14.031.683-21.025 1.5-7.457.871-14.941 1.569-22.434 2.079-7.33.497-14.682.721-22.027.954-6.711.214-13.43.25-20.145.422-6.869.175-13.734.473-20.602.619-7.512.16-15.027.168-22.539.315-7.188.141-14.371.402-21.559.559-7.834.171-15.672.219-23.506.436-9.426.261-18.887.23-28.27 1.06-18.38 1.625-36.746.855-55.123.454-4.312-.094-8.622-.329-12.935-.369-6.875-.062-13.768-.329-20.622.048-16.915.929-33.863.738-50.776 2.065-11.452.899-22.964 1.769-34.493 1.359-4.311-.154-8.618-.532-12.93-.585-11.672-.143-23.347-.132-35.02-.243-16.949-.162-33.897-.568-50.845-.508-12.618.045-25.235.666-37.852 1.026-2.877.082-5.754.206-8.631.208-6.238.003-12.478.018-18.714-.114-12.307-.26-24.616-.514-36.916-.993-3.838-.149-7.637-.339-11.474.035-2.698.264-5.431.202-8.149.214-9.752.043-19.497.065-29.245.662-5.402.331-10.854-.214-16.286-.308-3.83-.066-7.663-.04-11.495-.053l-4.145.002c.59-.616.826-1.098 1.137-1.151 4.918-.858 9.849-.484 14.804-.277 6.223.259 12.465.171 18.697.088 7.833-.103 15.663-.36 23.494-.539 3.676-.084 7.353-.191 11.029-.194 4.953-.003 9.907.026 14.857.152 4.151.106 8.298.518 12.448.541 17.43.098 34.862.303 52.288.054 8.623-.124 17.239-.841 25.88-.729 10.073.13 20.148.13 30.222.239 8.153.089 16.304.359 24.456.361 7.799.001 15.597-.284 23.396-.351 2.713-.023 5.427.286 8.143.351 8.953.216 17.906.551 26.858.525 6.387-.019 12.771-.553 19.155-.836 3.035-.134 6.081-.111 9.107-.347 10.684-.83 21.376-1.254 32.095-1.286 6.067-.018 12.133-.634 18.202-.694 10.392-.103 20.788-.088 31.18.073 10.39.16 20.772.665 31.162.827 10.076.158 20.119-.544 30.165-1.381 6.682-.558 13.418-.505 20.131-.665 14.543-.348 29.086-.682 43.631-.965 4.764-.092 9.533.106 14.295-.023 13.262-.364 26.518-.847 39.777-1.249 5.115-.155 10.234-.163 15.348-.34 9.424-.326 18.85-.658 28.268-1.129 4.146-.207 8.318-.507 12.4-1.214 6.486-1.122 13.016-1.447 19.561-1.828 6.871-.4 13.707.451 20.568.318 9.111-.176 18.227-.146 27.338-.325 7.99-.157 15.975-.647 23.965-.692 10.232-.059 20.467.187 30.699.292 13.41.14 26.822.432 40.23.338 6.857-.048 13.707-.801 20.562-1.215 1.275-.077 2.557-.073 3.836-.083 12.787-.099 25.574-.258 38.361-.267 8.473-.006 16.975-.172 25.414.427 7.68.544 15.332.483 22.988.307 6.059-.139 12.104-.804 18.154-1.215 3.19-.216 6.398-.239 9.568-.61 7.154-.836 14.348-.208 21.506-.713 1.27-.09 2.559.059 3.832.155 3.021.23 6.021.363 9.064.06 2.205-.221 4.463.086 6.697.173 1.115.044 2.242.263 3.342.162 7.357-.673 14.685.366 22.025.321 8.467-.053 16.934-.329 25.398-.527 6.871-.161 13.74-.413 20.611-.492 2.221-.025 4.447.372 6.672.568.793.07 1.592.188 2.385.159 4.625-.171 9.248-.459 13.875-.557 5.906-.124 11.814-.171 17.723-.122 4.141.034 8.279.266 12.418.457.769.035 1.531.293 2.295.448l-.035.742z"/></svg>