<?xml version="1.0" encoding="utf-8"?>
<!-- Generator: Adobe Illustrator 17.1.0, SVG Export Plug-In . SVG Version: 6.00 Build 0)  -->
<!DOCTYPE svg PUBLIC "-//W3C//DTD SVG 1.1//EN" "http://www.w3.org/Graphics/SVG/1.1/DTD/svg11.dtd">
<svg version="1.1" id="Layer_1" xmlns="http://www.w3.org/2000/svg" xmlns:xlink="http://www.w3.org/1999/xlink" x="0px" y="0px"
	 viewBox="0 0 1101.714 16.338" enable-background="new 0 0 1101.714 16.338" xml:space="preserve">
<path opacity="0.25" fill-rule="evenodd" clip-rule="evenodd" fill="#FFFFFF" d="M1101.677,1.696
	c-0.418,0.104-0.84,0.315-1.252,0.295c-5.246-0.254-10.49-0.533-15.734-0.823c-4.957-0.273-9.896-0.116-14.848,0.233
	c-7.012,0.495-14.017,0.732-21.058-0.038c-4.266-0.467-8.623-0.31-12.93-0.175c-7.027,0.221-14.047,0.648-21.068,0.996
	c-1.912,0.095-3.824,0.305-5.736,0.312c-2.869,0.01-5.738-0.113-8.609-0.181c-6.072-0.144-12.143-0.331-18.217-0.42
	c-7.99-0.116-15.986-0.358-23.973-0.175c-10.859,0.249-21.725-0.245-32.584,0.863c-7.94,0.81-15.957,1.004-23.943,1.119
	c-9.268,0.134-18.559,0.19-27.811-0.295c-8.312-0.436-16.607-0.523-24.916-0.346c-12.295,0.261-24.617,0.142-36.877,0.961
	c-20.785,1.388-41.559,0.643-62.338,0.468c-8.785-0.074-17.57-0.501-26.357-0.563c-4.785-0.033-9.574,0.376-14.361,0.56
	c-3.516,0.135-7.033,0.319-10.549,0.321c-13.586,0.01-27.172-0.046-40.758-0.078c-7.045-0.017-14.031,0.683-21.025,1.5
	c-7.457,0.871-14.941,1.569-22.434,2.079c-7.33,0.497-14.682,0.721-22.027,0.954c-6.711,0.214-13.43,0.25-20.145,0.422
	c-6.869,0.175-13.734,0.473-20.602,0.619c-7.512,0.16-15.027,0.168-22.539,0.315c-7.188,0.141-14.371,0.402-21.559,0.559
	c-7.834,0.171-15.672,0.219-23.506,0.436c-9.426,0.261-18.887,0.23-28.27,1.06c-18.38,1.625-36.746,0.855-55.123,0.454
	c-4.312-0.094-8.622-0.329-12.935-0.369c-6.875-0.062-13.768-0.329-20.622,0.048c-16.915,0.929-33.863,0.738-50.776,2.065
	c-11.452,0.899-22.964,1.769-34.493,1.359c-4.311-0.154-8.618-0.532-12.93-0.585c-11.672-0.143-23.347-0.132-35.02-0.243
	c-16.949-0.162-33.897-0.568-50.845-0.508c-12.618,0.045-25.235,0.666-37.852,1.026c-2.877,0.082-5.754,0.206-8.631,0.208
	c-6.238,0.003-12.478,0.018-18.714-0.114c-12.307-0.26-24.616-0.514-36.916-0.993c-3.838-0.149-7.637-0.339-11.474,0.035
	c-2.698,0.264-5.431,0.202-8.149,0.214c-9.752,0.043-19.497,0.065-29.245,0.662c-5.402,0.331-10.854-0.214-16.286-0.308
	c-3.83-0.066-7.663-0.04-11.495-0.053C2.914,15.57,1.684,15.574,0,15.574c0.59-0.616,0.826-1.098,1.137-1.151
	c4.918-0.858,9.849-0.484,14.804-0.277c6.223,0.259,12.465,0.171,18.697,0.088c7.833-0.103,15.663-0.36,23.494-0.539
	c3.676-0.084,7.353-0.191,11.029-0.194c4.953-0.003,9.907,0.026,14.857,0.152c4.151,0.106,8.298,0.518,12.448,0.541
	c17.43,0.098,34.862,0.303,52.288,0.054c8.623-0.124,17.239-0.841,25.88-0.729c10.073,0.13,20.148,0.13,30.222,0.239
	c8.153,0.089,16.304,0.359,24.456,0.361c7.799,0.001,15.597-0.284,23.396-0.351c2.713-0.023,5.427,0.286,8.143,0.351
	c8.953,0.216,17.906,0.551,26.858,0.525c6.387-0.019,12.771-0.553,19.155-0.836c3.035-0.134,6.081-0.111,9.107-0.347
	c10.684-0.83,21.376-1.254,32.095-1.286c6.067-0.018,12.133-0.634,18.202-0.694c10.392-0.103,20.788-0.088,31.18,0.073
	c10.39,0.16,20.772,0.665,31.162,0.827c10.076,0.158,20.119-0.544,30.165-1.381c6.682-0.558,13.418-0.505,20.131-0.665
	c14.543-0.348,29.086-0.682,43.631-0.965c4.764-0.092,9.533,0.106,14.295-0.023c13.262-0.364,26.518-0.847,39.777-1.249
	c5.115-0.155,10.234-0.163,15.348-0.34c9.424-0.326,18.85-0.658,28.268-1.129c4.146-0.207,8.318-0.507,12.4-1.214
	c6.486-1.122,13.016-1.447,19.561-1.828c6.871-0.4,13.707,0.451,20.568,0.318c9.111-0.176,18.227-0.146,27.338-0.325
	c7.99-0.157,15.975-0.647,23.965-0.692c10.232-0.059,20.467,0.187,30.699,0.292c13.41,0.14,26.822,0.432,40.23,0.338
	c6.857-0.048,13.707-0.801,20.562-1.215c1.275-0.077,2.557-0.073,3.836-0.083c12.787-0.099,25.574-0.258,38.361-0.267
	c8.473-0.006,16.975-0.172,25.414,0.427c7.68,0.544,15.332,0.483,22.988,0.307c6.059-0.139,12.104-0.804,18.154-1.215
	c3.19-0.216,6.398-0.239,9.568-0.61c7.154-0.836,14.348-0.208,21.506-0.713c1.27-0.09,2.559,0.059,3.832,0.155
	c3.021,0.23,6.021,0.363,9.064,0.06c2.205-0.221,4.463,0.086,6.697,0.173c1.115,0.044,2.242,0.263,3.342,0.162
	c7.357-0.673,14.685,0.366,22.025,0.321c8.467-0.053,16.934-0.329,25.398-0.527c6.871-0.161,13.74-0.413,20.611-0.492
	c2.221-0.025,4.447,0.372,6.672,0.568c0.793,0.07,1.592,0.188,2.385,0.159c4.625-0.171,9.248-0.459,13.875-0.557
	c5.906-0.124,11.814-0.171,17.723-0.122c4.141,0.034,8.279,0.266,12.418,0.457c0.769,0.035,1.531,0.293,2.295,0.448
	C1101.702,1.202,1101.688,1.449,1101.677,1.696z"/>
</svg>
