<svg xmlns="http://www.w3.org/2000/svg" viewBox="577.8 200.3 28.5 1920" enable-background="new 577.8 200.3 28.5 1920"><path opacity=".25" fill="#fff" enable-background="new" d="M603.3 2120.2c-.2-.7-.5-1.5-.5-2.2.4-9.1.9-18.3 1.4-27.4.5-8.6.2-17.2-.4-25.9-.9-12.2-1.3-24.4.1-36.7.8-7.4.5-15 .3-22.5-.4-12.2-1.1-24.5-1.7-36.7-.2-3.3-.5-6.7-.5-10 0-5 .2-10 .3-15 .3-10.6.6-21.2.7-31.7.2-13.9.6-27.9.3-41.8-.4-18.9.4-37.9-1.5-56.8-1.4-13.8-1.7-27.8-2-41.7-.2-16.2-.3-32.3.5-48.5.8-14.5.9-28.9.6-43.4-.5-21.4-.2-42.9-1.7-64.3-2.4-36.2-1.1-72.4-.8-108.6l1-45.9c.1-8.3-.7-16.7-1-25-.2-6.1-.6-12.3-.6-18.4 0-23.7.1-47.4.1-71 0-12.3-1.2-24.5-2.6-36.6-1.5-13-2.7-26-3.6-39.1-.9-12.8-1.3-25.6-1.7-38.4-.4-11.7-.4-23.4-.7-35.1l-1.1-35.9c-.3-13.1-.3-26.2-.5-39.3-.2-12.5-.7-25-1-37.6-.3-13.7-.4-27.3-.8-41-.5-16.4-.4-32.9-1.8-49.3-2.8-32-1.5-64-.8-96.1.2-7.5.6-15 .6-22.5.1-12 .6-24-.1-35.9-1.6-29.5-1.3-59-3.6-88.5-1.6-20-3.1-40-2.4-60.1.3-7.5.9-15 1-22.5l.4-61c.3-29.5 1-59.1.9-88.6-.1-22-1.2-44-1.8-66-.1-5-.4-10-.4-15 0-10.9 0-21.7.2-32.6.5-21.4.9-42.9 1.7-64.3.3-6.7.6-13.3-.1-20-.5-4.7-.4-9.5-.4-14.2-.1-17-.1-34-1.2-51-.6-9.4.4-18.9.5-28.4.1-6.7.1-13.4.1-20v-7.2c1.1 1 1.9 1.4 2 2 1.5 8.6.8 17.2.5 25.8-.5 10.8-.3 21.7-.2 32.6.2 13.7.6 27.3.9 40.9.1 6.4.3 12.8.3 19.2 0 8.6 0 17.3-.3 25.9-.2 7.2-.9 14.5-.9 21.7-.2 30.4-.5 60.8-.1 91.1.2 15 1.5 30 1.3 45.1l-.4 52.7c-.2 14.2-.6 28.4-.6 42.6 0 13.6.5 27.2.6 40.8 0 4.7-.5 9.5-.6 14.2-.4 15.6-1 31.2-.9 46.8 0 11.1 1 22.3 1.5 33.4.2 5.3.2 10.6.6 15.9 1.4 18.6 2.2 37.3 2.2 55.9 0 10.6 1.1 21.1 1.2 31.7.2 18.1.2 36.2-.1 54.3-.3 18.1-1.2 36.2-1.4 54.3-.3 17.6.9 35.1 2.4 52.6 1 11.6.9 23.4 1.2 35.1.6 25.3 1.2 50.7 1.7 76v24.9c.6 23.1 1.5 46.2 2.2 69.3l.6 26.7c.6 16.4 1.1 32.9 2 49.3.4 7.2.9 14.5 2.1 21.6 2 11.3 2.5 22.7 3.2 34.1.7 12-.8 23.9-.6 35.8.3 15.9.3 31.8.6 47.6.3 13.9 1.1 27.8 1.2 41.8.1 17.8-.3 35.7-.5 53.5-.2 23.4-.8 46.7-.6 70.1.1 11.9 1.4 23.9 2.1 35.8.1 2.2.1 4.5.1 6.7.2 22.3.4 44.6.5 66.9 0 14.8.3 29.6-.7 44.3-.9 13.4-.8 26.7-.5 40.1.2 10.6 1.4 21.1 2.1 31.6.4 5.6.4 11.2 1.1 16.7 1.5 12.5.4 25 1.2 37.5.2 2.2-.1 4.5-.3 6.7-.4 5.3-.6 10.5-.1 15.8.4 3.8-.1 7.8-.3 11.7-.1 1.9-.5 3.9-.3 5.8 1.2 12.8-.6 25.6-.6 38.4.1 14.8.6 29.5.9 44.3.3 12 .7 23.9.9 35.9 0 3.9-.6 7.8-1 11.6-.1 1.4-.3 2.8-.3 4.2.3 8.1.8 16.1 1 24.2.2 10.3.3 20.6.2 30.9-.1 7.2-.5 14.4-.8 21.6-.1 1.3-.5 2.7-.8 4l-.9-.3z"/></svg>